<svg width="52" height="74" viewBox="0 0 52 74" fill="none" xmlns="http://www.w3.org/2000/svg">
<path d="M25.996 38.4809C33.6189 38.4809 39.7986 32.2981 39.7986 24.6711C39.7986 17.0442 33.6189 10.8613 25.996 10.8613C18.373 10.8613 12.1934 17.0442 12.1934 24.6711C12.1934 32.2981 18.373 38.4809 25.996 38.4809Z" fill="#9E9E9E"/>
<path d="M26.1205 73.7984C35.0932 73.7837 42.3607 69.9029 42.3529 65.1303C42.3451 60.3577 35.0649 56.5007 26.0922 56.5154C17.1195 56.5301 9.85204 60.4109 9.85985 65.1835C9.86766 69.9561 17.1478 73.8132 26.1205 73.7984Z" fill="#C4C2C2"/>
<path d="M42.3273 65.1294L44.3268 59.2109L7.91797 59.2665L9.862 65.185L42.3273 65.1294Z" fill="#C4C2C2"/>
<path d="M44.0497 55.0709C43.6887 53.5426 43.1333 52.07 42.439 50.6807C41.1337 48.0132 39.1619 48.7356 40.9671 45.8181C41.6336 44.7622 44.4663 42.1503 42.1613 41.3167C41.1892 40.9554 39.8562 41.6223 39.1619 40.5942C38.4954 39.6217 39.4118 38.7603 40.245 38.3157C40.6338 38.1212 41.0504 38.0101 41.4392 37.7878C41.9946 37.5099 42.5223 37.1487 42.9666 36.7319C43.6609 36.0928 44.1053 35.3426 44.2719 34.4535L44.2441 26.3398L7.75195 26.3954L7.77972 34.6757C7.80749 34.7313 7.83527 34.8147 7.83527 34.8702C7.86304 36.0928 8.72397 37.0931 8.83505 38.288C8.8906 38.8159 8.83505 39.2883 8.75174 39.8162C8.66842 40.3164 8.64065 40.8165 8.61288 41.3167C8.41847 43.3729 8.14076 42.8449 8.86283 44.8455C9.11277 45.4846 9.52935 46.0126 9.83484 46.5961C10.1681 47.2629 10.1959 47.9298 10.0292 48.6523C9.7793 49.7359 9.25163 49.7637 8.80728 50.7918C8.44625 51.6254 7.86304 54.4596 7.83527 55.3488C7.77972 56.9048 7.83527 58.4608 7.83527 58.4608C7.83527 63.8236 16.028 68.1583 26.1091 68.1305C36.1903 68.1027 44.3552 63.768 44.3275 58.4052V56.4602C44.2441 55.9878 44.1608 55.5433 44.0497 55.0709Z" fill="#FF6550"/>
<g opacity="0.5">
<path d="M44.2707 59.2111C44.2984 58.9332 44.3262 58.6831 44.3262 58.4052V56.4602C44.2429 55.9878 44.1596 55.5155 44.0485 55.0709C43.6874 53.5426 43.132 52.07 42.4377 50.6807C41.1324 48.0132 39.1606 48.7356 40.9658 45.8181C41.6323 44.7622 44.4651 42.1503 42.16 41.3167C41.188 40.9554 39.8549 41.6223 39.1606 40.5942C38.4941 39.6217 39.4106 38.7603 40.2437 38.3157C40.6325 38.1212 41.0491 38.0101 41.4379 37.7878C41.9934 37.5099 42.521 37.1487 42.9654 36.7319C43.6597 36.0928 44.104 35.3426 44.2707 34.4535L44.2429 26.3398L17.082 26.3954V42.567C17.6375 43.8452 18.6928 44.9011 19.7759 45.7347C21.2756 46.8739 22.9974 47.7909 24.8581 48.2355C26.7744 48.7078 28.8851 48.9301 30.8291 48.4022C31.4123 48.2355 31.94 48.041 32.4121 47.652C32.8842 47.2629 33.3286 46.8739 33.7729 46.4849C34.4117 45.957 35.6336 44.8177 36.5501 45.4013C37.05 45.7069 37.1333 46.4294 37.05 46.9573C36.9667 47.7075 36.5779 48.3466 36.078 48.8745C35.0504 49.9582 33.5785 50.6529 32.1899 51.0975C30.1626 51.7365 28.0519 51.931 25.9412 51.9033C23.2752 51.8477 20.6091 51.4309 17.9707 51.292C17.7763 51.3753 17.5819 51.4587 17.4986 51.6532C17.2487 52.1533 17.943 52.9313 18.2762 53.2648C18.8039 53.7927 19.3871 54.1817 20.0258 54.543C22.192 55.71 24.6082 56.3491 27.0521 56.6547C29.496 56.9604 31.9955 56.9604 34.4394 56.7936C35.8003 56.7103 37.0778 56.4324 38.383 56.099C39.0218 55.9323 39.6605 55.7656 40.2993 55.6544C40.8269 55.571 41.3824 55.4321 41.9378 55.4877C42.6877 55.571 43.1042 56.1823 42.6877 56.8492C42.2989 57.4327 41.6323 57.9051 41.0214 58.2385C38.9662 59.3778 36.5501 59.8224 34.245 60.128C29.4405 60.7393 24.1361 60.3781 19.8314 63.0456C18.5262 63.8514 17.6097 64.9906 17.1376 66.4355V72.4095C19.7204 73.3265 22.8308 73.8544 26.1634 73.8544C35.1337 73.8267 42.3822 69.9644 42.3822 65.1851L43.9096 60.6559C44.0485 60.3503 44.1318 60.0724 44.2151 59.7668L44.3817 59.2944L44.2707 59.2111Z" fill="#AFAEAA"/>
</g>
<path d="M39 39.0205C46.1797 31.837 46.1797 20.1903 39 13.0069C31.8203 5.82344 20.1797 5.82345 13 13.0069C5.8203 20.1903 5.8203 31.837 13 39.0204C20.1797 46.2039 31.8203 46.2039 39 39.0205Z" fill="#C4C2C2"/>
<path d="M25.996 38.4809C33.6189 38.4809 39.7986 32.2981 39.7986 24.6711C39.7986 17.0442 33.6189 10.8613 25.996 10.8613C18.373 10.8613 12.1934 17.0442 12.1934 24.6711C12.1934 32.2981 18.373 38.4809 25.996 38.4809Z" fill="#9E9E9E"/>
<path d="M25.998 38.483C33.4829 38.483 39.5506 33.5068 39.5506 27.3684C39.5506 21.23 33.4829 16.2539 25.998 16.2539C18.513 16.2539 12.4453 21.23 12.4453 27.3684C12.4453 33.5068 18.513 38.483 25.998 38.483Z" fill="#ADADAD"/>
<path d="M25.9983 38.7593C18.2499 38.7593 11.918 32.4518 11.918 24.6716C11.918 16.9193 18.2222 10.584 25.9983 10.584C33.7744 10.584 40.0786 16.9193 40.0786 24.6716C40.0786 32.4518 33.7744 38.7593 25.9983 38.7593ZM25.9983 11.1397C18.5277 11.1397 12.4734 17.2249 12.4734 24.6716C12.4734 32.1462 18.5554 38.2036 25.9983 38.2036C33.4411 38.2036 39.5232 32.1184 39.5232 24.6716C39.5509 17.1971 33.4689 11.1397 25.9983 11.1397Z" fill="#CECCCC"/>
</svg>
