<svg width="71" height="34" viewBox="0 0 71 34" fill="none" xmlns="http://www.w3.org/2000/svg">
<path d="M7.93087 31.7085C12.311 31.7085 15.8617 25.0186 15.8617 16.7663C15.8617 8.51403 12.311 1.82422 7.93087 1.82422C3.55077 1.82422 0 8.51403 0 16.7663C0 25.0186 3.55077 31.7085 7.93087 31.7085Z" fill="#C4C2C2"/>
<path d="M7.92969 31.7085L13.3342 33.5322V0.0644531L7.92969 1.85623V31.7085Z" fill="#C4C2C2"/>
<path d="M56.1531 0H14.0684V33.5318H56.1531V0Z" fill="#386A9B"/>
<path d="M56.1539 33.5318C61.0639 33.5318 65.0442 26.0254 65.0442 16.7659C65.0442 7.50635 61.0639 0 56.1539 0C51.244 0 47.2637 7.50635 47.2637 16.7659C47.2637 26.0254 51.244 33.5318 56.1539 33.5318Z" fill="#C4C2C2"/>
<path d="M62.0709 31.9963H53.0527V1.53613H62.0709V31.9963ZM53.6923 31.3884H61.4633V2.14406H53.6923V31.3884Z" fill="#C4C2C2"/>
<path d="M14.0699 33.5318C18.9799 33.5318 22.9602 26.0254 22.9602 16.7659C22.9602 7.50635 18.9799 0 14.0699 0C9.15999 0 5.17969 7.50635 5.17969 16.7659C5.17969 26.0254 9.15999 33.5318 14.0699 33.5318Z" fill="#386A9B"/>
<g opacity="0.5">
<path d="M0.0292969 18.0791C0.381069 25.6941 3.77087 31.6774 7.92818 31.6774L12.0855 33.0852C12.3413 33.2132 12.6291 33.3092 12.917 33.3732L13.3647 33.5332V33.4692C13.6205 33.5012 13.8443 33.5332 14.1002 33.5332H56.1849C60.8539 33.5332 64.6914 26.718 65.0752 18.0791H0.0292969Z" fill="#AFAEAA"/>
</g>
<path d="M61.7512 31.7085C66.1313 31.7085 69.682 25.0186 69.682 16.7663C69.682 8.51403 66.1313 1.82422 61.7512 1.82422C57.3711 1.82422 53.8203 8.51403 53.8203 16.7663C53.8203 25.0186 57.3711 31.7085 61.7512 31.7085Z" fill="#777676"/>
<path d="M60.536 2.01562C56.7304 3.10349 53.8203 9.31071 53.8203 16.7658C53.8203 24.2208 56.7304 30.4281 60.536 31.5159C64.3415 30.4281 67.2516 24.2208 67.2516 16.7658C67.2516 9.31071 64.3415 3.13548 60.536 2.01562Z" fill="#9E9E9E"/>
<path d="M61.7507 31.9963C57.2096 31.9963 53.5 25.1492 53.5 16.7662C53.5 8.35128 57.2096 1.53613 61.7507 1.53613C66.2917 1.53613 70.0013 8.38327 70.0013 16.7662C70.0013 25.1812 66.2917 31.9963 61.7507 31.9963ZM61.7507 2.14406C57.5614 2.14406 54.1396 8.70323 54.1396 16.7662C54.1396 24.8292 57.5614 31.3884 61.7507 31.3884C65.9399 31.3884 69.3617 24.8292 69.3617 16.7662C69.3617 8.70323 65.9399 2.14406 61.7507 2.14406Z" fill="#C4C2C2"/>
<path d="M61.7522 13.886C62.8473 13.886 63.735 11.9235 63.735 9.50259C63.735 7.08168 62.8473 5.11914 61.7522 5.11914C60.6572 5.11914 59.7695 7.08168 59.7695 9.50259C59.7695 11.9235 60.6572 13.886 61.7522 13.886Z" fill="#666666"/>
<path d="M64.7894 22.0775C64.5975 22.0775 64.4056 22.0455 64.2457 21.9815C63.2863 21.6616 62.7427 20.5417 62.1351 19.2299C62.0391 19.0059 61.9432 18.8139 61.8153 18.5899C60.6321 16.2542 60.6321 13.9505 61.7833 13.3746C62.3589 13.0866 63.1584 13.2786 63.9579 13.9185C64.6934 14.5265 65.397 15.4543 65.9406 16.5102C66.0685 16.7662 66.1965 17.0221 66.3564 17.2781C66.9959 18.494 67.5396 19.5178 67.2518 20.4457C67.0919 20.9576 66.6761 21.3736 66.0046 21.7256C65.5569 21.9495 65.1411 22.0775 64.7894 22.0775ZM62.3589 18.302C62.4549 18.526 62.5828 18.7499 62.6787 18.9419C63.2544 20.1258 63.7341 21.1176 64.4376 21.3736C64.7894 21.5016 65.1731 21.4376 65.6848 21.1816C66.1965 20.9257 66.5163 20.6377 66.6122 20.2857C66.836 19.6138 66.3244 18.6859 65.7487 17.5981C65.6208 17.3421 65.4929 17.0861 65.333 16.7982C64.8213 15.8063 64.1818 14.9424 63.5102 14.3985C62.9026 13.9185 62.3589 13.7586 62.0072 13.9185C61.3356 14.2705 61.3036 16.1583 62.3589 18.302Z" fill="#C4C2C2"/>
</svg>
