<svg width="61" height="54" viewBox="0 0 61 54" fill="none" xmlns="http://www.w3.org/2000/svg">
<path d="M43.0681 45.2971L23.4417 52.8344C17.4094 55.1579 10.6407 52.1544 8.31835 46.0905L0.784998 26.4539C-1.53731 20.4184 1.4647 13.6462 7.52537 11.3227L27.1517 3.78541C33.1841 1.46189 39.9528 4.46546 42.2751 10.5293L49.8084 30.1659C52.1024 36.2014 49.1004 42.9736 43.0681 45.2971Z" fill="#AFAEAA"/>
<path d="M23.2161 52.948L43.324 45.2124C49.2147 42.9456 52.1601 36.315 49.8944 30.4212L49.6678 29.8545L8.17773 45.8075L8.4043 46.3742C10.67 52.268 17.2971 55.2149 23.2161 52.948Z" fill="#7A786E"/>
<path d="M50.0915 42.6057L30.4651 50.143C24.4328 52.4665 17.6641 49.4629 15.3418 43.3991L7.80844 23.7625C5.48612 17.727 8.48813 10.9548 14.5488 8.63128L34.1752 1.094C40.2075 -1.22952 46.9762 1.77405 49.2985 7.83788L56.8319 27.4745C59.1259 33.51 56.1239 40.2822 50.0915 42.6057Z" fill="#7A786E"/>
<path d="M34.3734 1.00845L14.4922 8.65907L18.5987 19.3416L49.157 7.58232C46.8913 1.68851 40.2642 -1.25841 34.3734 1.00845Z" fill="#605E5B"/>
<path d="M49.8937 30.4204L42.1621 10.302C39.8964 4.40823 33.2693 1.46132 27.3786 3.72817L14.266 8.74359C8.37525 11.0104 5.42988 17.641 7.69555 23.5348L15.4272 43.6531C17.6928 49.5469 24.3199 52.4938 30.2106 50.227L43.2949 45.1832C49.214 42.9447 52.1593 36.3142 49.8937 30.4204Z" fill="#54524C"/>
<path d="M15.4277 43.6815C17.3252 48.5835 22.1964 51.4454 27.1809 50.9637L53.0379 41.0179C57.0594 38.0143 58.787 32.6306 56.8895 27.7285L53.5476 19.0294C52.2449 15.5725 51.9617 10.7555 54.7654 9.70703L13.2753 25.66C10.8398 26.5951 10.5849 31.0154 12.0576 34.9824L15.4277 43.6815Z" fill="#828079"/>
<path d="M26.1334 51.3044C21.4322 51.3044 16.9575 48.4425 15.1733 43.7955L7.44166 23.6772C6.30882 20.7586 6.39379 17.5567 7.66823 14.6948C8.94267 11.8329 11.2367 9.62269 14.182 8.5176L34.2899 0.781976C40.3222 -1.54155 47.1192 1.49036 49.4415 7.52586L57.1731 27.6442C58.306 30.5627 58.221 33.7647 56.9466 36.6266C55.6721 39.4885 53.3781 41.6986 50.4328 42.8037L30.3249 50.5394C28.9372 51.0494 27.5212 51.3044 26.1334 51.3044ZM38.4813 0.526948C37.1503 0.526948 35.7909 0.753627 34.4881 1.26367L14.3803 8.99931C11.6048 10.0761 9.3958 12.1729 8.178 14.8931C6.9602 17.6133 6.87525 20.6453 7.95144 23.4505L15.683 43.5688C17.8921 49.3209 24.3775 52.2112 30.1267 50.001L50.2345 42.2654C53.01 41.1886 55.219 39.0918 56.4368 36.3715C57.6546 33.6513 57.7395 30.6194 56.6634 27.8142L48.9317 7.69586C47.2042 3.24717 42.956 0.526948 38.4813 0.526948Z" fill="#C4C2C2"/>
<path d="M25.8752 29.6839L57.9062 17.3579C60.2851 16.4512 61.0215 13.3909 59.2939 11.5208C57.8495 9.96232 56.2069 9.16893 54.7909 9.70731L13.3008 25.6603C14.9434 25.0369 16.6426 26.057 18.0304 27.6721C19.9845 29.9389 23.0998 30.7324 25.8752 29.6839Z" fill="#BCBCBB"/>
</svg>
