<svg width="30" height="71" viewBox="0 0 30 71" fill="none" xmlns="http://www.w3.org/2000/svg">
<path d="M27.5454 18.7832H22.7363V56.7064H27.5454V18.7832Z" fill="#AFAEAA"/>
<g opacity="0.5">
<path d="M27.5667 18.7832H25.1621V56.7064H27.5667V18.7832Z" fill="#AFAEAA"/>
</g>
<path d="M29.9077 18.002H20.416V21.4207H29.9077V18.002Z" fill="#AFAEAA"/>
<g opacity="0.5">
<path d="M29.9079 18.002H25.1621V21.4207H29.9079V18.002Z" fill="#AFAEAA"/>
</g>
<g opacity="0.5">
<path d="M27.5454 21.4209H22.7363V21.9907H27.5454V21.4209Z" fill="#AFAEAA"/>
</g>
<g opacity="0.5">
<path d="M22.7363 25.9794L27.5665 25.1352V24.5654L22.7363 25.4096V25.9794Z" fill="#AFAEAA"/>
</g>
<g opacity="0.5">
<path d="M22.7363 27.119L27.5665 26.2749V25.7051L22.7363 26.5492V27.119Z" fill="#AFAEAA"/>
</g>
<g opacity="0.5">
<path d="M22.7363 28.2587L27.5665 27.4145V26.8447L22.7363 27.6889V28.2587Z" fill="#AFAEAA"/>
</g>
<g opacity="0.5">
<path d="M22.7363 29.3983L27.5665 28.5542V27.9844L22.7363 28.8285V29.3983Z" fill="#AFAEAA"/>
</g>
<g opacity="0.5">
<path d="M22.7363 33.9565L27.5665 33.0913V32.5215L22.7363 33.3867V33.9565Z" fill="#AFAEAA"/>
</g>
<g opacity="0.5">
<path d="M22.7363 32.8169L27.5665 31.9516V31.3818L22.7363 32.2471V32.8169Z" fill="#AFAEAA"/>
</g>
<g opacity="0.5">
<path d="M22.7363 30.538L27.5665 29.6938V29.124L22.7363 29.9682V30.538Z" fill="#AFAEAA"/>
</g>
<g opacity="0.5">
<path d="M22.7363 31.6772L27.5665 30.8331V30.2422L22.7363 31.1074V31.6772Z" fill="#AFAEAA"/>
</g>
<g opacity="0.5">
<path d="M22.7363 35.0962L27.5665 34.2309V33.6611L22.7363 34.5053V35.0962Z" fill="#AFAEAA"/>
</g>
<g opacity="0.5">
<path d="M22.7363 36.2147L27.5665 35.3706V34.8008L22.7363 35.6449V36.2147Z" fill="#AFAEAA"/>
</g>
<g opacity="0.5">
<path d="M22.7363 37.3544L27.5665 36.5102V35.9404L22.7363 36.7846V37.3544Z" fill="#AFAEAA"/>
</g>
<g opacity="0.5">
<path d="M22.7363 41.912L27.5665 41.0678V40.498L22.7363 41.3422V41.912Z" fill="#AFAEAA"/>
</g>
<g opacity="0.5">
<path d="M22.7363 40.7723L27.5665 39.9282V39.3584L22.7363 40.2025V40.7723Z" fill="#AFAEAA"/>
</g>
<g opacity="0.5">
<path d="M22.7363 38.494L27.5665 37.6499V37.0801L22.7363 37.9242V38.494Z" fill="#AFAEAA"/>
</g>
<g opacity="0.5">
<path d="M22.7363 39.6327L27.5665 38.7885V38.2188L22.7363 39.0629V39.6327Z" fill="#AFAEAA"/>
</g>
<g opacity="0.5">
<path d="M22.7363 43.0516L27.5665 42.2075V41.6377L22.7363 42.4818V43.0516Z" fill="#AFAEAA"/>
</g>
<g opacity="0.5">
<path d="M22.7363 44.1913L27.5665 43.3471V42.7773L22.7363 43.6215V44.1913Z" fill="#AFAEAA"/>
</g>
<g opacity="0.5">
<path d="M22.7363 45.3315L27.5665 44.4874V43.8965L22.7363 44.7617V45.3315Z" fill="#AFAEAA"/>
</g>
<g opacity="0.5">
<path d="M22.7363 46.4712L27.5665 45.6059V45.0361L22.7363 45.9014V46.4712Z" fill="#AFAEAA"/>
</g>
<g opacity="0.5">
<path d="M22.7363 51.0077L27.5665 50.1635V49.5938L22.7363 50.4379V51.0077Z" fill="#AFAEAA"/>
</g>
<g opacity="0.5">
<path d="M22.7363 49.868L27.5665 49.0239V48.4541L22.7363 49.2982V49.868Z" fill="#AFAEAA"/>
</g>
<g opacity="0.5">
<path d="M22.7363 47.6099L27.5665 46.7446V46.1748L22.7363 47.0401V47.6099Z" fill="#AFAEAA"/>
</g>
<g opacity="0.5">
<path d="M22.7363 48.7495L27.5665 47.8843V47.3145L22.7363 48.1797V48.7495Z" fill="#AFAEAA"/>
</g>
<g opacity="0.5">
<path d="M22.7363 52.1473L27.5665 51.3032V50.7334L22.7363 51.5775V52.1473Z" fill="#AFAEAA"/>
</g>
<g opacity="0.5">
<path d="M22.7363 53.287L27.5665 52.4428V51.873L22.7363 52.7172V53.287Z" fill="#AFAEAA"/>
</g>
<g opacity="0.5">
<path d="M22.7363 54.4266L27.5665 53.5825V53.0127L22.7363 53.8568V54.4266Z" fill="#AFAEAA"/>
</g>
<g opacity="0.5">
<path d="M22.7363 55.5663L27.5665 54.7221V54.1523L22.7363 54.9965V55.5663Z" fill="#AFAEAA"/>
</g>
<g opacity="0.5">
<path d="M22.7363 56.7059L27.5665 55.8618V55.292L22.7363 56.1361V56.7059Z" fill="#AFAEAA"/>
</g>
<path d="M15.5867 39.1037L11.7422 39.9854L18.6784 70.2639L22.5229 69.3823L15.5867 39.1037Z" fill="#AFAEAA"/>
<g opacity="0.5">
<path d="M15.6083 39.0871L13.6758 39.5303L20.612 69.8088L22.5445 69.3657L15.6083 39.0871Z" fill="#AFAEAA"/>
</g>
<path d="M17.3245 38.0396L9.73828 39.7793L10.365 42.5151L17.9512 40.7754L17.3245 38.0396Z" fill="#AFAEAA"/>
<g opacity="0.5">
<path d="M17.3082 38.0339L13.5254 38.9014L14.1521 41.6371L17.9349 40.7697L17.3082 38.0339Z" fill="#AFAEAA"/>
</g>
<g opacity="0.5">
<path d="M16.075 41.2053L12.2305 42.0869L12.3341 42.5394L16.1787 41.6578L16.075 41.2053Z" fill="#AFAEAA"/>
</g>
<g opacity="0.5">
<path d="M13.0762 45.732L16.7674 44.1703L16.6619 43.7061L12.9707 45.2677L13.0762 45.732Z" fill="#AFAEAA"/>
</g>
<g opacity="0.5">
<path d="M13.2871 46.6392L16.9783 45.0776L16.8728 44.6133L13.1816 46.1749L13.2871 46.6392Z" fill="#AFAEAA"/>
</g>
<g opacity="0.5">
<path d="M13.4785 47.5465L17.1697 45.9848L17.0853 45.5205L13.373 47.0822L13.4785 47.5465Z" fill="#AFAEAA"/>
</g>
<g opacity="0.5">
<path d="M13.6894 48.4537L17.3807 46.892L17.2752 46.4277L13.584 47.9894L13.6894 48.4537Z" fill="#AFAEAA"/>
</g>
<g opacity="0.5">
<path d="M14.5332 52.0836L18.2244 50.5219L18.1189 50.0576L14.4277 51.6193L14.5332 52.0836Z" fill="#AFAEAA"/>
</g>
<g opacity="0.5">
<path d="M14.3223 51.1763L18.0135 49.6147L17.908 49.1504L14.2168 50.7121L14.3223 51.1763Z" fill="#AFAEAA"/>
</g>
<g opacity="0.5">
<path d="M13.9004 49.3619L17.5916 47.8002L17.4861 47.3359L13.7949 48.8976L13.9004 49.3619Z" fill="#AFAEAA"/>
</g>
<g opacity="0.5">
<path d="M14.1113 50.2691L17.8025 48.7074L17.6971 48.2432L14.0059 49.8048L14.1113 50.2691Z" fill="#AFAEAA"/>
</g>
<g opacity="0.5">
<path d="M14.7441 52.9912L18.4353 51.4295L18.3299 50.9863L14.6387 52.5269L14.7441 52.9912Z" fill="#AFAEAA"/>
</g>
<g opacity="0.5">
<path d="M14.9551 53.8984L18.6463 52.3367L18.5408 51.8936L14.8496 53.4552L14.9551 53.8984Z" fill="#AFAEAA"/>
</g>
<g opacity="0.5">
<path d="M15.1445 54.8066L18.8357 53.2449L18.7303 52.8018L15.0391 54.3634L15.1445 54.8066Z" fill="#AFAEAA"/>
</g>
<g opacity="0.5">
<path d="M15.9883 58.4576L19.6795 56.8959L19.574 56.4316L15.8828 57.9933L15.9883 58.4576Z" fill="#AFAEAA"/>
</g>
<g opacity="0.5">
<path d="M15.7773 57.5283L19.4685 55.9666L19.3631 55.5234L15.6719 57.0851L15.7773 57.5283Z" fill="#AFAEAA"/>
</g>
<g opacity="0.5">
<path d="M15.3555 55.7138L19.0467 54.1522L18.9412 53.709L15.25 55.2706L15.3555 55.7138Z" fill="#AFAEAA"/>
</g>
<g opacity="0.5">
<path d="M15.5664 56.6211L19.2576 55.0594L19.1521 54.6162L15.4609 56.1779L15.5664 56.6211Z" fill="#AFAEAA"/>
</g>
<g opacity="0.5">
<path d="M16.1992 59.3648L19.8904 57.8031L19.785 57.3389L16.0938 58.9005L16.1992 59.3648Z" fill="#AFAEAA"/>
</g>
<g opacity="0.5">
<path d="M16.4102 60.272L20.1014 58.7104L19.9959 58.2461L16.3047 59.8078L16.4102 60.272Z" fill="#AFAEAA"/>
</g>
<g opacity="0.5">
<path d="M16.6211 61.1793L20.3123 59.6176L20.2068 59.1533L16.5156 60.715L16.6211 61.1793Z" fill="#AFAEAA"/>
</g>
<g opacity="0.5">
<path d="M16.8105 62.0865L20.5017 60.5248L20.3963 60.0605L16.7051 61.6222L16.8105 62.0865Z" fill="#AFAEAA"/>
</g>
<g opacity="0.5">
<path d="M17.6543 65.7164L21.3455 64.1547L21.24 63.6904L17.5488 65.2521L17.6543 65.7164Z" fill="#AFAEAA"/>
</g>
<g opacity="0.5">
<path d="M17.4434 64.8091L21.1346 63.2475L21.0291 62.7832L17.3379 64.3449L17.4434 64.8091Z" fill="#AFAEAA"/>
</g>
<g opacity="0.5">
<path d="M17.0215 62.9947L20.7127 61.433L20.6072 60.9688L16.916 62.5304L17.0215 62.9947Z" fill="#AFAEAA"/>
</g>
<g opacity="0.5">
<path d="M17.2324 63.9019L20.9236 62.3403L20.8182 61.876L17.127 63.4376L17.2324 63.9019Z" fill="#AFAEAA"/>
</g>
<g opacity="0.5">
<path d="M17.8652 66.624L21.5564 65.0623L21.451 64.6191L17.7598 66.1597L17.8652 66.624Z" fill="#AFAEAA"/>
</g>
<g opacity="0.5">
<path d="M18.0762 67.5322L21.7674 65.9705L21.6619 65.5273L17.9707 67.089L18.0762 67.5322Z" fill="#AFAEAA"/>
</g>
<g opacity="0.5">
<path d="M18.2871 68.4394L21.9783 66.8777L21.8728 66.4346L18.1816 67.9962L18.2871 68.4394Z" fill="#AFAEAA"/>
</g>
<g opacity="0.5">
<path d="M18.4766 69.3466L22.1678 67.785L22.0623 67.3418L18.3711 68.9035L18.4766 69.3466Z" fill="#AFAEAA"/>
</g>
<g opacity="0.5">
<path d="M18.6875 70.2539L22.3787 68.6922L22.2732 68.249L18.582 69.8107L18.6875 70.2539Z" fill="#AFAEAA"/>
</g>
<path d="M2.46752 22.4754V6.60547H1.24414V22.5387C1.24414 22.5387 1.24414 22.5598 1.26523 22.5598C1.47616 23.003 1.68709 23.4672 1.87692 23.9104C2.02457 23.425 2.2355 22.9397 2.46752 22.4754Z" fill="#AFAEAA"/>
<g opacity="0.5">
<path d="M2.46716 22.4754V6.60547H1.85547V23.8682V23.8893C2.0453 23.4039 2.23514 22.9397 2.46716 22.4754Z" fill="#AFAEAA"/>
</g>
<path d="M3.73339 6.37282V6.03516H0V6.39392C0.0210926 6.41502 0.0210952 6.41502 0.0421878 6.43613C0.084373 6.47833 0.0632804 6.45723 0.0421878 6.43613L0.0632752 6.45723C0.0843678 6.47833 0.105464 6.47833 0.126557 6.49943C0.210927 6.56275 0.295294 6.62606 0.379664 6.68937C0.442942 6.73158 0.485131 6.77378 0.548409 6.81599H3.20608C3.37482 6.64716 3.54356 6.49944 3.73339 6.37282Z" fill="#AFAEAA"/>
<g opacity="0.5">
<path d="M3.73378 6.37364L0.0214844 6.35254V6.39475C0.042577 6.41585 0.0425731 6.41585 0.0636657 6.43696C0.105851 6.47916 0.0847583 6.45806 0.0636657 6.43696L0.0847596 6.45806C0.105852 6.47916 0.126949 6.47916 0.148041 6.50026C0.232412 6.56357 0.316778 6.62689 0.401149 6.6902C0.464426 6.73241 0.506615 6.77461 0.569893 6.81682H3.22755C3.3752 6.64799 3.54395 6.50027 3.73378 6.37364Z" fill="#AFAEAA"/>
</g>
<path d="M4.72455 16.5667L10.2719 1.68867L9.1329 1.2666L3.56445 16.1868V16.2079C3.60664 16.7144 3.64882 17.1998 3.64882 17.6852C4.0074 17.3053 4.34488 16.9255 4.72455 16.5667Z" fill="#AFAEAA"/>
<g opacity="0.5">
<path d="M4.72455 16.5666L10.2719 1.68857L9.70241 1.47754L3.66992 17.664V17.6851C4.0074 17.3052 4.34488 16.9254 4.72455 16.5666Z" fill="#AFAEAA"/>
</g>
<path d="M11.5369 1.92087L11.6635 1.60432L8.18319 0.295898L8.05664 0.633557C8.05664 0.654661 8.07773 0.65466 8.07773 0.675764C8.11991 0.717971 8.07773 0.696867 8.07773 0.675764L8.09882 0.696865C8.11991 0.717969 8.11992 0.739073 8.14101 0.760177C8.20429 0.844591 8.26756 0.929005 8.30975 1.01342C8.35193 1.07673 8.39412 1.14004 8.4363 1.18225L10.9252 2.11081C11.1151 2.0475 11.326 1.98419 11.5369 1.92087Z" fill="#AFAEAA"/>
<g opacity="0.5">
<path d="M11.5385 1.92073L8.0582 0.612305L8.03711 0.654511C8.03711 0.675615 8.0582 0.675614 8.0582 0.696718C8.10039 0.738925 8.0582 0.717821 8.0582 0.696718L8.07929 0.717823C8.10038 0.738926 8.10039 0.76003 8.12148 0.781134C8.18476 0.865548 8.24803 0.949962 8.29022 1.03438C8.3324 1.09769 8.37459 1.161 8.41677 1.20321L10.9057 2.13176C11.1166 2.04735 11.3276 1.98404 11.5385 1.92073Z" fill="#AFAEAA"/>
</g>
<path d="M11.6648 15.6591L19.1316 1.66745L18.0558 1.09766L10.5469 15.1315V15.1526C10.5258 15.6591 10.5047 16.1445 10.4414 16.6299C10.8422 16.2922 11.2429 15.9546 11.6648 15.6591Z" fill="#AFAEAA"/>
<g opacity="0.5">
<path d="M11.6636 15.6592L19.1304 1.66752L18.6031 1.37207L10.4824 16.6089V16.63C10.841 16.2923 11.2418 15.9547 11.6636 15.6592Z" fill="#AFAEAA"/>
</g>
<path d="M20.3549 2.04705L20.5236 1.7516L17.2332 0L17.0645 0.316554C17.0645 0.337657 17.0855 0.35876 17.0855 0.35876C17.1066 0.400968 17.0855 0.379864 17.0855 0.35876C17.0855 0.35876 17.0855 0.379862 17.1066 0.379862C17.1277 0.400966 17.1277 0.42207 17.1488 0.443174C17.191 0.527588 17.2332 0.633107 17.2965 0.717521C17.3387 0.780832 17.3597 0.844141 17.3808 0.907452L19.7221 2.15257C19.912 2.13146 20.1229 2.06815 20.3549 2.04705Z" fill="#AFAEAA"/>
<g opacity="0.5">
<path d="M20.3549 2.0475L17.0855 0.295898L17.0645 0.338105C17.0645 0.359209 17.0855 0.380312 17.0855 0.380312C17.1066 0.422519 17.0855 0.401415 17.0855 0.380312C17.0855 0.380312 17.0855 0.401416 17.1066 0.401416C17.1277 0.42252 17.1277 0.443624 17.1488 0.464728C17.191 0.549142 17.2332 0.654661 17.2965 0.739075C17.3387 0.802386 17.3597 0.865695 17.3808 0.929006L19.7221 2.17412C19.912 2.13191 20.1229 2.0686 20.3549 2.0475Z" fill="#AFAEAA"/>
</g>
<path d="M8.14133 15.2155L21.8937 7.32276L21.282 6.26758L7.46636 14.1814V14.2025C7.19216 14.6246 6.89686 15.0256 6.60156 15.4054C7.08669 15.321 7.61401 15.2577 8.14133 15.2155Z" fill="#AFAEAA"/>
<g opacity="0.5">
<path d="M8.14133 15.2153L21.8937 7.32251L21.5984 6.79492L6.62266 15.3841L6.60156 15.4052C7.10778 15.3208 7.61401 15.2575 8.14133 15.2153Z" fill="#AFAEAA"/>
</g>
<path d="M22.7163 8.31467L23.0116 8.14584L21.1554 4.91699L20.8391 5.10693C20.8391 5.12803 20.8391 5.14913 20.8391 5.17024C20.8391 5.23355 20.8391 5.19134 20.8391 5.17024C20.8391 5.19134 20.8391 5.19134 20.8391 5.21244C20.8391 5.23355 20.8391 5.25465 20.8391 5.29686C20.818 5.40238 20.818 5.50789 20.818 5.61341C20.818 5.67672 20.7969 5.76114 20.7969 5.82445L22.1257 8.14584C22.3155 8.14584 22.5054 8.23026 22.7163 8.31467Z" fill="#AFAEAA"/>
<g opacity="0.5">
<path d="M22.7163 8.31479L20.8812 5.08594L20.8391 5.10704C20.8391 5.12815 20.8391 5.14925 20.8391 5.17035C20.8391 5.23366 20.8391 5.19146 20.8391 5.17035C20.8391 5.19146 20.8391 5.19146 20.8391 5.21256C20.8391 5.23366 20.8391 5.25477 20.8391 5.29697C20.818 5.40249 20.818 5.50801 20.818 5.61353C20.818 5.67684 20.7969 5.76125 20.7969 5.82456L22.1257 8.14596C22.3155 8.14596 22.5054 8.23037 22.7163 8.31479Z" fill="#AFAEAA"/>
</g>
</svg>
