<svg width="222" height="88" viewBox="0 0 222 88" fill="none" xmlns="http://www.w3.org/2000/svg">
    <defs>
        <linearGradient id="paint0_linear_747_16298" x1="161.053" y1="61.7595" x2="233.402" y2="61.7595" gradientUnits="userSpaceOnUse">
            <stop stop-color="#F76922"/>
            <stop offset="1" stop-color="#FFA82E"/>
        </linearGradient>
        <linearGradient id="paint1_linear_747_16298" x1="161.336" y1="39.1341" x2="212.424" y2="53.2873" gradientUnits="userSpaceOnUse">
            <stop stop-color="#F76922"/>
            <stop offset="1" stop-color="#FFA82E"/>
        </linearGradient>
        <linearGradient id="paint2_linear_747_16298" x1="60.6685" y1="61.7595" x2="-11.6807" y2="61.7595" gradientUnits="userSpaceOnUse">
            <stop stop-color="#F76922"/>
            <stop offset="1" stop-color="#FFA82E"/>
        </linearGradient>
        <linearGradient id="paint3_linear_747_16298" x1="60.386" y1="39.1341" x2="9.2981" y2="53.2872" gradientUnits="userSpaceOnUse">
            <stop stop-color="#F76922"/>
            <stop offset="1" stop-color="#FFA82E"/>
        </linearGradient>
        <linearGradient id="paint4_linear_747_16298" x1="110.86" y1="4.04277" x2="110.86" y2="36.5175" gradientUnits="userSpaceOnUse">
            <stop stop-color="#FAC521"/>
            <stop offset="1" stop-color="#FFA82E"/>
        </linearGradient>
        <radialGradient id="paint5_radial_747_16298" cx="0" cy="0" r="1" gradientUnits="userSpaceOnUse" gradientTransform="translate(111.179 25.9968) scale(14.5179 14.5799)">
            <stop stop-color="#004156"/>
            <stop offset="0.376" stop-color="#064B62"/>
            <stop offset="1" stop-color="#14637E"/>
        </radialGradient>
        <radialGradient id="paint6_radial_747_16298" cx="0" cy="0" r="1" gradientUnits="userSpaceOnUse" gradientTransform="translate(111.179 25.9965) scale(14.518 14.58)">
            <stop stop-color="#004156"/>
            <stop offset="0.376" stop-color="#064B62"/>
            <stop offset="1" stop-color="#14637E"/>
        </radialGradient>
        <radialGradient id="paint7_radial_747_16298" cx="0" cy="0" r="1" gradientUnits="userSpaceOnUse" gradientTransform="translate(111.179 25.9974) scale(16.1901 16.2591)">
            <stop stop-color="#004DCD"/>
            <stop offset="0.3057" stop-color="#0459CE"/>
            <stop offset="0.8511" stop-color="#1077D0"/>
            <stop offset="1" stop-color="#1481D1"/>
        </radialGradient>
        <radialGradient id="paint8_radial_747_16298" cx="0" cy="0" r="1" gradientUnits="userSpaceOnUse" gradientTransform="translate(82.1435 24.5427) rotate(156.862) scale(11.5555 11.5896)">
            <stop stop-color="#004156"/>
            <stop offset="0.376" stop-color="#064B62"/>
            <stop offset="1" stop-color="#14637E"/>
        </radialGradient>
        <radialGradient id="paint9_radial_747_16298" cx="0" cy="0" r="1" gradientUnits="userSpaceOnUse" gradientTransform="translate(82.1433 24.5425) rotate(156.862) scale(11.5553 11.5895)">
            <stop stop-color="#004156"/>
            <stop offset="0.376" stop-color="#064B62"/>
            <stop offset="1" stop-color="#14637E"/>
        </radialGradient>
        <radialGradient id="paint10_radial_747_16298" cx="0" cy="0" r="1" gradientUnits="userSpaceOnUse" gradientTransform="translate(82.1436 24.5429) rotate(156.862) scale(12.8863 12.9243)">
            <stop stop-color="#004DCD"/>
            <stop offset="0.3057" stop-color="#0459CE"/>
            <stop offset="0.8511" stop-color="#1077D0"/>
            <stop offset="1" stop-color="#1481D1"/>
        </radialGradient>
        <linearGradient id="paint11_linear_747_16298" x1="85.6332" y1="32.7778" x2="80.5535" y2="20.892" gradientUnits="userSpaceOnUse">
            <stop stop-color="#FF8C29"/>
            <stop offset="0.1705" stop-color="#FF912A"/>
            <stop offset="0.3859" stop-color="#FFA12B"/>
            <stop offset="0.6253" stop-color="#FFBB2E"/>
            <stop offset="0.8804" stop-color="#FFDF32"/>
            <stop offset="1" stop-color="#FFF234"/>
        </linearGradient>
        <linearGradient id="paint12_linear_747_16298" x1="85.2875" y1="31.4055" x2="80.7717" y2="20.8393" gradientUnits="userSpaceOnUse">
            <stop stop-color="#FF8C29"/>
            <stop offset="0.1705" stop-color="#FF912A"/>
            <stop offset="0.3859" stop-color="#FFA12B"/>
            <stop offset="0.6253" stop-color="#FFBB2E"/>
            <stop offset="0.8804" stop-color="#FFDF32"/>
            <stop offset="1" stop-color="#FFF234"/>
        </linearGradient>
        <linearGradient id="paint13_linear_747_16298" x1="84.8237" y1="33.1238" x2="79.744" y2="21.2379" gradientUnits="userSpaceOnUse">
            <stop stop-color="#FF8C29"/>
            <stop offset="0.1705" stop-color="#FF912A"/>
            <stop offset="0.3859" stop-color="#FFA12B"/>
            <stop offset="0.6253" stop-color="#FFBB2E"/>
            <stop offset="0.8804" stop-color="#FFDF32"/>
            <stop offset="1" stop-color="#FFF234"/>
        </linearGradient>
        <linearGradient id="paint14_linear_747_16298" x1="83.3344" y1="24.6182" x2="80.6313" y2="18.2935" gradientUnits="userSpaceOnUse">
            <stop stop-color="#FF8C29"/>
            <stop offset="0.1705" stop-color="#FF912A"/>
            <stop offset="0.3859" stop-color="#FFA12B"/>
            <stop offset="0.6253" stop-color="#FFBB2E"/>
            <stop offset="0.8804" stop-color="#FFDF32"/>
            <stop offset="1" stop-color="#FFF234"/>
        </linearGradient>
        <linearGradient id="paint15_linear_747_16298" x1="85.2707" y1="31.4141" x2="80.7539" y2="20.8455" gradientUnits="userSpaceOnUse">
            <stop stop-color="#FF8C29"/>
            <stop offset="0.1403" stop-color="#FF902E"/>
            <stop offset="0.3174" stop-color="#FF9D3E"/>
            <stop offset="0.5144" stop-color="#FFB258"/>
            <stop offset="0.7258" stop-color="#FFD07C"/>
            <stop offset="0.9464" stop-color="#FFF5AA"/>
            <stop offset="1" stop-color="#FFFFB6"/>
        </linearGradient>
        <linearGradient id="paint16_linear_747_16298" x1="90.7653" y1="27.0528" x2="88.8026" y2="27.8845" gradientUnits="userSpaceOnUse">
            <stop stop-color="#FF8C29"/>
            <stop offset="0.1705" stop-color="#FF912A"/>
            <stop offset="0.3859" stop-color="#FFA12B"/>
            <stop offset="0.6253" stop-color="#FFBB2E"/>
            <stop offset="0.8804" stop-color="#FFDF32"/>
            <stop offset="1" stop-color="#FFF234"/>
        </linearGradient>
        <linearGradient id="paint17_linear_747_16298" x1="90.5594" y1="30.3482" x2="89.2808" y2="30.89" gradientUnits="userSpaceOnUse">
            <stop stop-color="#FF8C29"/>
            <stop offset="0.1705" stop-color="#FF912A"/>
            <stop offset="0.3859" stop-color="#FFA12B"/>
            <stop offset="0.6253" stop-color="#FFBB2E"/>
            <stop offset="0.8804" stop-color="#FFDF32"/>
            <stop offset="1" stop-color="#FFF234"/>
        </linearGradient>
        <linearGradient id="paint18_linear_747_16298" x1="79.8055" y1="31.712" x2="78.1832" y2="32.3994" gradientUnits="userSpaceOnUse">
            <stop stop-color="#FF8C29"/>
            <stop offset="0.1705" stop-color="#FF912A"/>
            <stop offset="0.3859" stop-color="#FFA12B"/>
            <stop offset="0.6253" stop-color="#FFBB2E"/>
            <stop offset="0.8804" stop-color="#FFDF32"/>
            <stop offset="1" stop-color="#FFF234"/>
        </linearGradient>
        <radialGradient id="paint19_radial_747_16298" cx="0" cy="0" r="1" gradientUnits="userSpaceOnUse" gradientTransform="translate(140.597 25.1058) rotate(-156.972) scale(11.5387 11.6067)">
            <stop stop-color="#004156"/>
            <stop offset="0.376" stop-color="#064B62"/>
            <stop offset="1" stop-color="#14637E"/>
        </radialGradient>
        <radialGradient id="paint20_radial_747_16298" cx="0" cy="0" r="1" gradientUnits="userSpaceOnUse" gradientTransform="translate(140.597 25.1054) rotate(-156.972) scale(11.5386 11.6066)">
            <stop stop-color="#004156"/>
            <stop offset="0.376" stop-color="#064B62"/>
            <stop offset="1" stop-color="#14637E"/>
        </radialGradient>
        <radialGradient id="paint21_radial_747_16298" cx="0" cy="0" r="1" gradientUnits="userSpaceOnUse" gradientTransform="translate(140.597 25.1057) rotate(-156.972) scale(12.8676 12.9434)">
            <stop stop-color="#004DCD"/>
            <stop offset="0.3057" stop-color="#0459CE"/>
            <stop offset="0.8511" stop-color="#1077D0"/>
            <stop offset="1" stop-color="#1481D1"/>
        </radialGradient>
    </defs>
<path d="M182.63 35.522C194.561 37.8621 206.495 40.2023 218.426 42.546C221.538 43.1577 222.789 46.9062 220.665 49.2463C216.831 53.4679 212.997 57.6894 209.163 61.9109C212.84 68.6042 216.52 75.2974 220.197 81.9907C221.895 85.0812 219.099 88.7088 215.658 87.8802L178.009 78.8219C173.861 77.8225 171.393 73.5761 172.595 69.5039C175.938 58.1766 179.286 46.8493 182.63 35.522Z" fill="url(#paint0_linear_747_16298)"/>
<path d="M192.093 74.7391L167.398 67.9747C164.569 67.1994 162.91 64.2938 163.69 61.4806L174.866 21.1361C175.645 18.323 178.567 16.6728 181.396 17.4481L206.091 24.2125C208.92 24.9878 210.58 27.8934 209.8 30.7066L198.624 71.051C197.841 73.8642 194.919 75.5144 192.093 74.7391Z" fill="url(#paint1_linear_747_16298)"/>
<path d="M39.0907 35.522C27.1598 37.8621 15.2254 40.2023 3.29447 42.546C0.182993 43.1577 -1.06875 46.9062 1.05564 49.2463C4.88955 53.4679 8.72346 57.6894 12.5574 61.9109C8.88082 68.6042 5.20069 75.2974 1.52415 81.9907C-0.174647 85.0812 2.6221 88.7088 6.06261 87.8802L43.7115 78.8219C47.8601 77.8225 50.3278 73.5761 49.1261 69.5039C45.7822 58.1766 42.4383 46.8493 39.0907 35.522Z" fill="url(#paint2_linear_747_16298)"/>
<path d="M29.6312 74.7391L54.3263 67.9747C57.1552 67.1994 58.8147 64.2938 58.035 61.4806L46.8587 21.1361C46.0791 18.323 43.1572 16.6728 40.3282 17.4481L15.6331 24.2125C12.8042 24.9878 11.1447 27.8934 11.9244 30.7066L23.1007 71.051C23.8803 73.8642 26.8022 75.5144 29.6312 74.7391Z" fill="url(#paint3_linear_747_16298)"/>
<path d="M178.838 52.632C133.987 43.4777 87.733 43.4777 42.8813 52.632C39.659 53.29 36.5046 51.2521 35.7893 48.0584C33.3216 37.0761 30.8539 26.0937 28.3826 15.1114C27.6458 11.8359 29.7523 8.59596 33.0605 7.91668C84.3855 -2.63889 137.338 -2.63889 188.663 7.91668C191.967 8.59596 194.077 11.8359 193.341 15.1114C190.873 26.0937 188.405 37.0761 185.934 48.0584C185.215 51.2486 182.061 53.29 178.838 52.632Z" fill="url(#paint4_linear_747_16298)"/>
<path d="M117.7 42C116.744 42 115.821 41.7682 114.963 41.3156L111.182 39.3177L107.401 41.3156C106.533 41.7682 105.621 42 104.664 42C102.928 42 101.279 41.2273 100.147 39.8806C99.0367 38.5561 98.564 36.801 98.8608 35.079L99.5862 30.8513L96.5196 27.8489C94.9039 26.2704 94.3323 23.9414 95.0248 21.7889C95.7173 19.6364 97.5418 18.0911 99.7731 17.771L104.005 17.1528L105.895 13.3004C106.896 11.2584 108.918 10 111.182 10C113.435 10 115.458 11.2584 116.458 13.3004L118.349 17.1528L122.58 17.771C124.811 18.1021 126.636 19.6364 127.329 21.7889C128.021 23.9414 127.46 26.2704 125.845 27.8489L122.778 30.8513L123.504 35.079C123.8 36.801 123.328 38.5561 122.218 39.8806C121.085 41.2163 119.437 42 117.7 42Z" fill="#1481D1"/>
<path d="M117.7 40.3111C117.019 40.3111 116.359 40.1455 115.744 39.8143L111.182 37.408L106.621 39.8143C106.005 40.1455 105.335 40.3111 104.664 40.3111C103.422 40.3111 102.246 39.7591 101.433 38.7878C100.63 37.8274 100.301 36.6132 100.52 35.3549L101.389 30.2552L97.6956 26.6457C96.5415 25.5087 96.1349 23.853 96.6295 22.3076C97.1241 20.7622 98.4321 19.6584 100.037 19.4266L105.137 18.687L107.423 14.0399C108.137 12.5829 109.588 11.6777 111.204 11.6777C112.82 11.6777 114.271 12.5829 114.985 14.0399L117.271 18.687L122.371 19.4266C123.965 19.6584 125.273 20.7622 125.779 22.3076C126.273 23.853 125.867 25.5087 124.713 26.6457L120.986 30.2552L121.855 35.3549C122.064 36.6132 121.745 37.8274 120.931 38.7878C120.129 39.7591 118.942 40.3111 117.7 40.3111Z" fill="url(#paint5_radial_747_16298)"/>
<path opacity="0.43" d="M125.746 22.3076C125.251 20.7622 123.943 19.6584 122.338 19.4266L117.238 18.6871L114.952 14.0399C114.238 12.5829 112.787 11.6777 111.171 11.6777C109.555 11.6777 108.104 12.5829 107.39 14.0399L105.104 18.6871L100.004 19.4266C98.399 19.6584 97.102 20.7622 96.5964 22.3076C96.0908 23.853 96.5085 25.5087 97.6626 26.6457L99.9488 28.8864C100.674 27.7936 101.554 26.8002 102.543 25.9723C105.631 23.3894 109.16 22.5946 113.095 23.1907C116.788 23.7536 120.261 25.6301 122.305 28.8312C122.316 28.8533 122.327 28.8754 122.349 28.8975L124.657 26.6457C125.834 25.5087 126.24 23.853 125.746 22.3076Z" fill="url(#paint6_radial_747_16298)"/>
<path opacity="0.45" d="M127.329 21.7889C126.636 19.6364 124.811 18.0911 122.58 17.771L118.349 17.1418L116.458 13.2894C115.458 11.2584 113.435 10 111.182 10C108.929 10 106.906 11.2584 105.906 13.3004L104.016 17.1528L99.7731 17.7599C97.5418 18.0911 95.7173 19.6254 95.0248 21.7779C94.3323 23.9303 94.9039 26.2594 96.5196 27.8379L99.5862 30.8403L98.8608 35.068C98.564 36.7899 99.0367 38.545 100.147 39.8696C101.279 41.2163 102.928 41.989 104.664 41.989C105.621 41.989 106.544 41.7572 107.401 41.3046L111.182 39.3067L114.963 41.3046C115.832 41.7572 116.744 41.989 117.7 41.989C119.437 41.989 121.085 41.2163 122.218 39.8696C123.328 38.545 123.8 36.7899 123.504 35.068L122.778 30.8403L125.845 27.8379C127.46 26.2594 128.032 23.9414 127.329 21.7889ZM122.009 30.5974L122.8 35.2004C123.053 36.7127 122.646 38.247 121.668 39.417C120.668 40.5981 119.228 41.2825 117.7 41.2825C116.865 41.2825 116.051 41.0728 115.293 40.6754L111.171 38.5009L107.049 40.6754C106.291 41.0728 105.478 41.2825 104.642 41.2825C103.114 41.2825 101.675 40.5981 100.674 39.417C99.6961 38.258 99.2895 36.7237 99.5423 35.2004L100.334 30.5974L97.0032 27.3301C95.5854 25.9393 95.0798 23.8972 95.6953 22.0097C96.3108 20.1221 97.9045 18.7644 99.872 18.4774L104.477 17.8041L106.533 13.6095C107.412 11.8213 109.182 10.7175 111.171 10.7175C113.15 10.7175 114.93 11.8213 115.81 13.6095L117.865 17.8041L122.47 18.4774C124.427 18.7644 126.032 20.1221 126.647 22.0097C127.263 23.8972 126.757 25.9393 125.339 27.3301L122.009 30.5974Z" fill="url(#paint7_radial_747_16298)"/>
<path d="M82.3283 38.2911C83.0318 37.993 83.6253 37.5405 84.1199 36.9334L86.2742 34.2842L89.6596 34.5601C90.429 34.6264 91.1764 34.5049 91.8798 34.2069C93.1548 33.666 94.1111 32.5843 94.5288 31.2487C94.9354 29.9351 94.7376 28.5001 93.9792 27.3301L92.1326 24.4601L93.4406 21.3032C94.1331 19.6364 93.8253 17.7599 92.6492 16.4022C91.4732 15.0444 89.6596 14.4815 87.9229 14.9451L84.6365 15.8171L82.0535 13.5874C80.6906 12.4173 78.822 12.1193 77.1733 12.8257C75.5246 13.5322 74.4365 15.0886 74.3376 16.8878L74.1507 20.3097L71.249 22.0869C69.7212 23.0251 68.8638 24.725 69.0177 26.5132C69.1716 28.3125 70.3147 29.8247 71.9854 30.487L75.1619 31.7233L75.9423 35.0458C76.2611 36.4035 77.1514 37.5294 78.3714 38.1586C79.6134 38.7878 81.0533 38.832 82.3283 38.2911Z" fill="#1481D1"/>
<path d="M81.8116 37.0658C82.3062 36.8561 82.7459 36.5249 83.0976 36.0944L85.6916 32.9044L89.7804 33.2355C90.3409 33.2797 90.8685 33.1914 91.3741 32.9816C92.2864 32.5953 92.9789 31.8116 93.2646 30.8512C93.5614 29.8909 93.4185 28.8975 92.8689 28.0475L90.6487 24.5815L92.2314 20.7843C92.7261 19.5922 92.5062 18.2455 91.6709 17.2741C90.8245 16.3028 89.5276 15.9054 88.2855 16.2255L84.3176 17.2741L81.1961 14.6029C80.2288 13.764 78.8879 13.5542 77.7008 14.062C76.5247 14.5698 75.7443 15.6846 75.6674 16.9761L75.4366 21.0934L71.9303 23.2348C70.8312 23.9082 70.2157 25.1224 70.3366 26.4028C70.4465 27.6943 71.2598 28.776 72.4579 29.2397L76.2829 30.7298L77.2282 34.7367C77.459 35.7191 78.0745 36.5139 78.9648 36.9554C79.8661 37.408 80.8993 37.4521 81.8116 37.0658Z" fill="url(#paint8_radial_747_16298)"/>
<path opacity="0.43" d="M70.3365 26.3918C70.2266 25.1113 70.8311 23.8861 71.9303 23.2238L75.4365 21.0824L75.6673 16.9651C75.7443 15.6736 76.5247 14.5587 77.7008 14.062C78.8878 13.5542 80.2288 13.764 81.196 14.6029L84.3066 17.2852L88.2745 16.2365C89.5165 15.9054 90.8135 16.3028 91.6598 17.2852C92.5062 18.2566 92.715 19.6032 92.2204 20.7954L91.2422 23.1465C90.3738 22.5725 89.4176 22.12 88.4394 21.833C85.3728 20.9057 82.548 21.4356 79.8551 23.1024C77.327 24.6698 75.3706 27.1313 74.865 30.1117C74.865 30.1338 74.865 30.1558 74.854 30.1779L72.4688 29.2507C71.2708 28.765 70.4574 27.6833 70.3365 26.3918Z" fill="url(#paint9_radial_747_16298)"/>
<path opacity="0.45" d="M71.9854 30.4877L75.1619 31.724L75.9423 35.0465C76.2611 36.4042 77.1514 37.5301 78.3714 38.1593C79.6134 38.7885 81.0643 38.8437 82.3283 38.3028C83.0318 38.0048 83.6253 37.5522 84.1199 36.9451L86.2742 34.2959L89.6596 34.5719C90.429 34.6381 91.1764 34.5167 91.8798 34.2186C93.1548 33.6778 94.1111 32.596 94.5288 31.2604C94.9354 29.9468 94.7376 28.5118 93.9792 27.3418L92.1326 24.4718L93.4406 21.3149C94.1331 19.6481 93.8253 17.7716 92.6492 16.4139C91.4732 15.0562 89.6596 14.4932 87.9229 14.9568L84.6365 15.8288L82.0535 13.5991C80.6906 12.429 78.822 12.131 77.1733 12.8375C75.5246 13.5439 74.4365 15.1003 74.3376 16.8996L74.1507 20.3104L71.249 22.0876C69.7212 23.0258 68.8638 24.7257 69.0177 26.5139C69.1716 28.3131 70.3147 29.8254 71.9854 30.4877ZM72.1942 29.9468C70.7214 29.3728 69.7212 28.0372 69.5893 26.4587C69.4464 24.8802 70.2048 23.3901 71.5457 22.5622L74.7113 20.6305L74.9201 16.9216C75.008 15.3432 75.9643 13.9744 77.4151 13.3563C78.866 12.7381 80.5147 12.992 81.7018 14.0186L84.5046 16.447L88.0878 15.4977C89.6156 15.0893 91.1984 15.586 92.2425 16.7781C93.2757 17.9703 93.5395 19.626 92.935 21.0831L91.5061 24.516L93.5066 27.6398C94.166 28.6664 94.3419 29.9137 93.9902 31.0727C93.6275 32.2538 92.7811 33.2031 91.671 33.6778C91.0555 33.9427 90.407 34.042 89.7255 33.9868L86.0324 33.6778L83.6912 36.5588C83.2626 37.0886 82.735 37.486 82.1195 37.7509C80.9983 38.2255 79.7343 38.1814 78.6352 37.6295C77.558 37.0776 76.7886 36.0841 76.5029 34.903L75.6455 31.2824L72.1942 29.9468Z" fill="url(#paint10_radial_747_16298)"/>
<path d="M76.239 16.9982L75.9971 21.4135L72.2381 23.7095C70.2706 24.9127 70.5234 27.8599 72.6777 28.6988L76.7775 30.2994L77.7887 34.6043C78.3163 36.8561 81.1961 37.5184 82.6469 35.7302L85.4278 32.3083L89.8133 32.6726C92.1105 32.8602 93.6274 30.3214 92.3743 28.3787L89.9892 24.6588L91.6819 20.5857C92.5722 18.4442 90.6377 16.2145 88.4064 16.8106L84.1638 17.9254L80.8224 15.0444C79.0747 13.5322 76.3709 14.6912 76.239 16.9982Z" fill="url(#paint11_linear_747_16298)"/>
<path opacity="0.39" d="M90.418 18.069C90.6268 18.7976 90.1542 19.7579 89.6706 20.3098C87.5382 22.7714 84.5596 24.3829 81.5149 25.4095C79.2067 26.1932 74.8871 27.8159 72.6559 26.2815C70.1718 24.5816 75.1949 22.4402 76.4369 21.6786L76.6677 17.5613C76.7886 15.3978 79.3167 14.316 80.9544 15.7289L84.0759 18.4223C85.285 18.1022 86.4831 17.7269 87.7031 17.4619C88.2966 17.3295 89.11 17.0646 89.6925 17.2964C90.0992 17.473 90.33 17.7489 90.418 18.069Z" fill="url(#paint12_linear_747_16298)"/>
<path opacity="0.41" d="M71.6995 28.0697C72.1171 28.4891 73.8977 28.7761 74.5243 28.9969C75.5245 29.3391 76.6566 29.6371 77.7228 29.5488C78.0085 31.0169 77.6458 34.9907 79.7781 35.3881C81.9874 35.8075 83.9878 32.1207 84.4715 30.465C86.2631 30.9617 89.4506 32.4298 91.1542 30.9948C93.0448 29.4053 90.7256 26.0497 89.1978 25.1445C89.7583 24.405 89.9452 23.5109 90.5058 22.8155C90.7036 22.5726 90.9124 22.3077 91.0993 22.0317L90.0001 24.6699L92.3853 28.3898C93.6383 30.3325 92.1215 32.8824 89.8243 32.6837L85.4387 32.3194L82.6579 35.7413C81.196 37.5185 78.3163 36.8562 77.7887 34.6044L76.7775 30.2994L72.6777 28.6989C72.282 28.5554 71.9633 28.3346 71.6995 28.0697Z" fill="url(#paint13_linear_747_16298)"/>
<path opacity="0.39" d="M83.0427 18.632C82.68 19.3385 81.1852 18.8528 80.6466 18.6983C79.6793 18.4113 78.4373 17.9477 77.7668 17.1529C76.1841 15.2764 79.7563 14.7134 80.9544 15.751C81.405 16.1374 83.5044 17.7159 83.0427 18.632Z" fill="url(#paint14_linear_747_16298)"/>
<path opacity="0.61" d="M74.1176 25.7405C78.822 26.171 83.6142 23.9523 87.5052 21.5238C88.7802 20.7291 90.0112 19.7246 90.4399 18.2234C90.5498 18.9188 90.1101 19.7908 89.6595 20.3096C87.5271 22.7712 84.5485 24.3828 81.5039 25.4093C79.1957 26.193 74.876 27.8157 72.6448 26.2813C72.1502 25.9392 71.9523 25.5859 71.9633 25.2217C72.6558 25.4976 73.3702 25.6742 74.1176 25.7405Z" fill="url(#paint15_linear_747_16298)"/>
<path opacity="0.39" d="M90.8464 29.4052C89.4835 29.7474 87.4171 25.9613 88.6701 25.5418C89.7913 25.1776 91.9675 28.4228 91.0663 29.2728C91.0113 29.35 90.9344 29.3831 90.8464 29.4052Z" fill="url(#paint16_linear_747_16298)"/>
<path opacity="0.39" d="M89.3628 30.4097C89.6046 30.1227 90.1542 29.9682 90.4839 30.2773C91.0775 30.8402 89.7805 31.3369 89.4178 31.0389C89.176 30.8402 89.198 30.5974 89.3628 30.4097Z" fill="url(#paint17_linear_747_16298)"/>
<path opacity="0.39" d="M79.4267 33.6439C78.3385 34.8581 77.7779 30.1227 78.8221 30.3434C79.8553 30.5642 80.0092 32.9926 79.4267 33.6439Z" fill="url(#paint18_linear_747_16298)"/>
<path d="M130.842 34.796C131.544 35.0966 132.28 35.2104 133.058 35.1455L136.454 34.8589L138.599 37.4944C139.084 38.0958 139.689 38.5509 140.39 38.8515C141.661 39.3958 143.101 39.3341 144.35 38.7072C145.575 38.0876 146.47 36.9473 146.786 35.5864L147.571 32.2586L150.745 31.0082C152.423 30.3494 153.558 28.8227 153.72 27.0302C153.882 25.2374 153.031 23.537 151.496 22.6057L148.594 20.8397L148.409 17.4252C148.307 15.6281 147.227 14.0721 145.578 13.3731C143.929 12.6741 142.057 12.9706 140.695 14.1499L138.107 16.3937L134.821 15.5346C133.089 15.084 131.273 15.6468 130.094 17.0009C128.908 18.3627 128.612 20.239 129.292 21.9054L130.603 25.0576L128.755 27.9306C127.999 29.1044 127.806 30.5297 128.199 31.8478C128.606 33.1817 129.571 34.2517 130.842 34.796Z" fill="#1481D1"/>
<path d="M131.365 33.5713C131.858 33.7826 132.401 33.8698 132.954 33.8244L137.042 33.4793L139.635 36.6609C139.991 37.0962 140.42 37.4156 140.92 37.6348C141.829 38.0247 142.872 37.9798 143.76 37.5185C144.656 37.0652 145.271 36.2714 145.502 35.2839L146.456 31.2719L150.281 29.7749C151.48 29.3032 152.296 28.2084 152.416 26.9301C152.529 25.6441 151.916 24.4316 150.827 23.7576L147.326 21.6224L147.085 17.5123C147.019 16.231 146.241 15.1173 145.055 14.6134C143.876 14.1174 142.534 14.3291 141.553 15.1713L138.433 17.8668L134.467 16.8244C133.222 16.4991 131.923 16.8989 131.087 17.8762C130.234 18.8533 130.02 20.1924 130.516 21.3795L132.093 25.1762L129.867 28.644C129.32 29.4936 129.175 30.4902 129.474 31.4397C129.773 32.405 130.456 33.1814 131.365 33.5713Z" fill="url(#paint19_radial_747_16298)"/>
<path opacity="0.43" d="M131.095 17.8685C131.939 16.899 133.238 16.4837 134.475 16.8167L138.441 17.859L141.561 15.1635C142.542 14.3213 143.884 14.1096 145.055 14.6133C146.242 15.1172 147.019 16.2309 147.086 17.5122L147.311 21.6221L150.811 23.7572C151.909 24.4236 152.521 25.636 152.401 26.9299C152.289 28.2159 151.465 29.3028 150.266 29.7745L147.899 30.7027C147.71 29.677 147.374 28.6722 146.903 27.7665C145.446 24.9084 143.11 23.2377 140.048 22.4526C137.172 21.7174 134.048 22.0163 131.556 23.7231C131.54 23.7384 131.524 23.7538 131.5 23.7612L130.516 21.395C130.036 20.1926 130.25 18.8535 131.095 17.8685Z" fill="url(#paint20_radial_747_16298)"/>
<path opacity="0.45" d="M129.292 21.9058L130.602 25.058L128.754 27.9309C127.999 29.1048 127.806 30.5301 128.198 31.8481C128.606 33.182 129.57 34.2677 130.834 34.8041C131.535 35.1047 132.271 35.2185 133.05 35.1535L136.446 34.867L138.591 37.5024C139.076 38.1039 139.68 38.5589 140.381 38.8595C141.653 39.4038 143.092 39.3421 144.341 38.7151C145.567 38.0957 146.462 36.9553 146.778 35.5946L147.562 32.2667L150.737 31.0163C152.414 30.3574 153.55 28.8309 153.712 27.0382C153.874 25.2454 153.023 23.5451 151.488 22.6137L148.586 20.8477L148.401 17.4333C148.298 15.6361 147.219 14.0802 145.57 13.3812C143.921 12.6822 142.049 12.9787 140.687 14.158L138.106 16.3941L134.82 15.5349C133.088 15.0843 131.273 15.6472 130.094 17.0013C128.907 18.3631 128.611 20.2394 129.292 21.9058ZM129.825 21.6805C129.218 20.2184 129.486 18.5679 130.529 17.3755C131.565 16.1751 133.161 15.6866 134.684 16.0791L138.264 17.0212L141.075 14.5938C142.27 13.56 143.916 13.2988 145.364 13.9164C146.813 14.534 147.772 15.9005 147.856 17.471L148.05 21.1822L151.213 23.1088C152.564 23.9276 153.303 25.4154 153.168 26.9977C153.027 28.5724 152.019 29.9136 150.553 30.4902L147.097 31.8452L146.236 35.4605C145.955 36.6502 145.18 37.6443 144.103 38.196C143.003 38.7552 141.735 38.8041 140.626 38.3328C140.009 38.0727 139.489 37.6736 139.057 37.1433L136.722 34.2627L133.031 34.5755C132.353 34.6344 131.703 34.5299 131.086 34.2697C129.969 33.7904 129.126 32.8473 128.762 31.6703C128.413 30.509 128.594 29.2631 129.245 28.2358L131.254 25.1001L129.825 21.6805Z" fill="url(#paint21_radial_747_16298)"/>

</svg>
