<svg width="17" height="18" viewBox="0 0 17 18" fill="none" xmlns="http://www.w3.org/2000/svg">
    <defs>
        <radialGradient id="paint0_radial_535_9611" cx="0" cy="0" r="1" gradientUnits="userSpaceOnUse" gradientTransform="translate(8.53956 7.85878) rotate(156.862) scale(7.50778 7.52994)">
            <stop stop-color="#004156"/>
            <stop offset="0.376" stop-color="#064B62"/>
            <stop offset="1" stop-color="#14637E"/>
        </radialGradient>
        <radialGradient id="paint1_radial_535_9611" cx="0" cy="0" r="1" gradientUnits="userSpaceOnUse" gradientTransform="translate(8.53949 7.85859) rotate(156.862) scale(7.50771 7.52987)">
            <stop stop-color="#004156"/>
            <stop offset="0.376" stop-color="#064B62"/>
            <stop offset="1" stop-color="#14637E"/>
        </radialGradient>
        <radialGradient id="paint2_radial_535_9611" cx="0" cy="0" r="1" gradientUnits="userSpaceOnUse" gradientTransform="translate(8.53962 7.85871) rotate(156.862) scale(8.37246 8.39717)">
            <stop stop-color="#004DCD"/>
            <stop offset="0.3057" stop-color="#0459CE"/>
            <stop offset="0.8511" stop-color="#1077D0"/>
            <stop offset="1" stop-color="#1481D1"/>
        </radialGradient>
        <linearGradient id="paint3_linear_535_9611" x1="10.8069" y1="13.2092" x2="7.50651" y2="5.48674" gradientUnits="userSpaceOnUse">
            <stop stop-color="#FF8C29"/>
            <stop offset="0.1705" stop-color="#FF912A"/>
            <stop offset="0.3859" stop-color="#FFA12B"/>
            <stop offset="0.6253" stop-color="#FFBB2E"/>
            <stop offset="0.8804" stop-color="#FFDF32"/>
            <stop offset="1" stop-color="#FFF234"/>
        </linearGradient>
        <linearGradient id="paint4_linear_535_9611" x1="10.5822" y1="12.3175" x2="7.64826" y2="5.45247" gradientUnits="userSpaceOnUse">
            <stop stop-color="#FF8C29"/>
            <stop offset="0.1705" stop-color="#FF912A"/>
            <stop offset="0.3859" stop-color="#FFA12B"/>
            <stop offset="0.6253" stop-color="#FFBB2E"/>
            <stop offset="0.8804" stop-color="#FFDF32"/>
            <stop offset="1" stop-color="#FFF234"/>
        </linearGradient>
        <linearGradient id="paint5_linear_535_9611" x1="10.281" y1="13.434" x2="6.98056" y2="5.71144" gradientUnits="userSpaceOnUse">
            <stop stop-color="#FF8C29"/>
            <stop offset="0.1705" stop-color="#FF912A"/>
            <stop offset="0.3859" stop-color="#FFA12B"/>
            <stop offset="0.6253" stop-color="#FFBB2E"/>
            <stop offset="0.8804" stop-color="#FFDF32"/>
            <stop offset="1" stop-color="#FFF234"/>
        </linearGradient>
        <linearGradient id="paint6_linear_535_9611" x1="9.3132" y1="7.90766" x2="7.55698" y2="3.79835" gradientUnits="userSpaceOnUse">
            <stop stop-color="#FF8C29"/>
            <stop offset="0.1705" stop-color="#FF912A"/>
            <stop offset="0.3859" stop-color="#FFA12B"/>
            <stop offset="0.6253" stop-color="#FFBB2E"/>
            <stop offset="0.8804" stop-color="#FFDF32"/>
            <stop offset="1" stop-color="#FFF234"/>
        </linearGradient>
        <linearGradient id="paint7_linear_535_9611" x1="10.5713" y1="12.3233" x2="7.63671" y2="5.45661" gradientUnits="userSpaceOnUse">
            <stop stop-color="#FF8C29"/>
            <stop offset="0.1403" stop-color="#FF902E"/>
            <stop offset="0.3174" stop-color="#FF9D3E"/>
            <stop offset="0.5144" stop-color="#FFB258"/>
            <stop offset="0.7258" stop-color="#FFD07C"/>
            <stop offset="0.9464" stop-color="#FFF5AA"/>
            <stop offset="1" stop-color="#FFFFB6"/>
        </linearGradient>
        <linearGradient id="paint8_linear_535_9611" x1="14.1414" y1="9.48951" x2="12.8662" y2="10.0299" gradientUnits="userSpaceOnUse">
            <stop stop-color="#FF8C29"/>
            <stop offset="0.1705" stop-color="#FF912A"/>
            <stop offset="0.3859" stop-color="#FFA12B"/>
            <stop offset="0.6253" stop-color="#FFBB2E"/>
            <stop offset="0.8804" stop-color="#FFDF32"/>
            <stop offset="1" stop-color="#FFF234"/>
        </linearGradient>
        <linearGradient id="paint9_linear_535_9611" x1="14.0075" y1="11.6307" x2="13.1768" y2="11.9827" gradientUnits="userSpaceOnUse">
            <stop stop-color="#FF8C29"/>
            <stop offset="0.1705" stop-color="#FF912A"/>
            <stop offset="0.3859" stop-color="#FFA12B"/>
            <stop offset="0.6253" stop-color="#FFBB2E"/>
            <stop offset="0.8804" stop-color="#FFDF32"/>
            <stop offset="1" stop-color="#FFF234"/>
        </linearGradient>
        <linearGradient id="paint10_linear_535_9611" x1="7.02045" y1="12.5167" x2="5.9664" y2="12.9634" gradientUnits="userSpaceOnUse">
            <stop stop-color="#FF8C29"/>
            <stop offset="0.1705" stop-color="#FF912A"/>
            <stop offset="0.3859" stop-color="#FFA12B"/>
            <stop offset="0.6253" stop-color="#FFBB2E"/>
            <stop offset="0.8804" stop-color="#FFDF32"/>
            <stop offset="1" stop-color="#FFF234"/>
        </linearGradient>
    </defs>
    <path d="M8.65963 16.7913C9.11668 16.5976 9.50231 16.3036 9.82367 15.9091L11.2234 14.1879L13.4229 14.3672C13.9228 14.4102 14.4084 14.3313 14.8654 14.1377C15.6938 13.7863 16.3151 13.0835 16.5865 12.2157C16.8507 11.3622 16.7222 10.4299 16.2294 9.66969L15.0297 7.80503L15.8795 5.7539C16.3294 4.67097 16.1294 3.45177 15.3653 2.56964C14.6012 1.68751 13.4229 1.32175 12.2946 1.62297L10.1593 2.18953L8.4811 0.740837C7.59558 -0.0193703 6.38156 -0.213008 5.31036 0.245985C4.23916 0.704978 3.53217 1.7162 3.4679 2.8852L3.3465 5.10845L1.4612 6.2631C0.468554 6.8727 -0.0884683 7.97715 0.01151 9.13898C0.111488 10.308 0.854184 11.2905 1.93966 11.7208L4.0035 12.5241L4.51053 14.6828C4.71763 15.5649 5.29608 16.2964 6.08876 16.7052C6.89573 17.114 7.83124 17.1427 8.65963 16.7913Z" fill="#1481D1"/>
<path d="M8.32393 15.9952C8.64529 15.859 8.93094 15.6438 9.15946 15.3641L10.8448 13.2915L13.5014 13.5066C13.8656 13.5353 14.2084 13.4779 14.5369 13.3417C15.1296 13.0907 15.5795 12.5815 15.7652 11.9575C15.958 11.3336 15.8651 10.6881 15.5081 10.1359L14.0655 7.88395L15.0939 5.41686C15.4152 4.64231 15.2724 3.76735 14.7297 3.13624C14.1798 2.50512 13.3371 2.24694 12.5302 2.45492L9.95215 3.13624L7.92402 1.40067C7.29558 0.855613 6.42434 0.71935 5.65308 1.04925C4.88896 1.37915 4.38193 2.1035 4.33194 2.9426L4.18197 5.61767L1.9039 7.00899C1.18977 7.44647 0.789854 8.23536 0.868408 9.06729C0.939821 9.90639 1.46828 10.6092 2.24668 10.9104L4.73185 11.8786L5.34601 14.482C5.49597 15.1203 5.89589 15.6366 6.47433 15.9235C7.05992 16.2175 7.7312 16.2462 8.32393 15.9952Z" fill="url(#paint0_radial_535_9611)"/>
<path opacity="0.43" d="M0.868414 9.06012C0.797001 8.22819 1.18977 7.43213 1.9039 7.00182L4.18198 5.6105L4.33195 2.93543C4.38194 2.09633 4.88897 1.37198 5.65309 1.04925C6.42435 0.71935 7.29559 0.855613 7.92402 1.40067L9.94501 3.14341L12.523 2.46209C13.33 2.24694 14.1727 2.50512 14.7225 3.14341C15.2724 3.77452 15.4081 4.64948 15.0868 5.42403L14.4512 6.95162C13.887 6.57869 13.2657 6.28464 12.6301 6.09818C10.6377 5.49575 8.8024 5.83999 7.05278 6.92293C5.41028 7.94132 4.13913 9.54063 3.81063 11.477C3.81063 11.4913 3.81063 11.5057 3.80349 11.52L2.25383 10.9176C1.47542 10.602 0.946968 9.89922 0.868414 9.06012Z" fill="url(#paint1_radial_535_9611)"/>
<path opacity="0.45" d="M1.93966 11.7212L4.0035 12.5244L4.51053 14.6831C4.71763 15.5652 5.29608 16.2967 6.08876 16.7055C6.89573 17.1143 7.83838 17.1502 8.65963 16.7988C9.11668 16.6051 9.50231 16.3111 9.82367 15.9166L11.2234 14.1954L13.4229 14.3747C13.9228 14.4177 14.4084 14.3388 14.8654 14.1452C15.6938 13.7938 16.3151 13.091 16.5865 12.2232C16.8507 11.3697 16.7222 10.4374 16.2294 9.6772L15.0297 7.81254L15.8795 5.76141C16.3294 4.67847 16.1294 3.45927 15.3653 2.57715C14.6012 1.69502 13.4229 1.32926 12.2946 1.63047L10.1593 2.19704L8.4811 0.748345C7.59558 -0.011863 6.38156 -0.205501 5.31036 0.253492C4.23916 0.712486 3.53217 1.72371 3.4679 2.8927L3.3465 5.10878L1.4612 6.26344C0.468554 6.87304 -0.0884683 7.97749 0.01151 9.13932C0.111488 10.3083 0.854184 11.2908 1.93966 11.7212ZM2.07535 11.3697C1.11841 10.9968 0.468554 10.129 0.382858 9.10346C0.290021 8.07789 0.782771 7.1097 1.65401 6.57182L3.71071 5.31676L3.84639 2.90705C3.90352 1.88148 4.52482 0.992185 5.46747 0.590566C6.41012 0.188947 7.48132 0.353897 8.25258 1.02087L10.0736 2.59866L12.4017 1.98189C13.3943 1.71653 14.4227 2.03926 15.1011 2.81381C15.7724 3.58837 15.9438 4.66413 15.551 5.6108L14.6226 7.84122L15.9223 9.87084C16.3508 10.5378 16.4651 11.3482 16.2366 12.1013C16.0009 12.8686 15.451 13.4854 14.7297 13.7938C14.3298 13.9659 13.9085 14.0305 13.4657 13.9946L11.0663 13.7938L9.54515 15.6656C9.26664 16.0099 8.92386 16.2681 8.52395 16.4402C7.79553 16.7486 6.97428 16.7199 6.26015 16.3613C5.56031 16.0027 5.06041 15.3572 4.87474 14.5899L4.31772 12.2375L2.07535 11.3697Z" fill="url(#paint2_radial_535_9611)"/>
<path d="M4.70328 2.95691L4.54617 5.82562L2.10384 7.31734C0.825549 8.09907 0.989799 10.0139 2.38949 10.559L5.0532 11.5989L5.7102 14.3959C6.05298 15.8589 7.92401 16.2892 8.86666 15.1274L10.6734 12.9042L13.5228 13.1408C15.0153 13.2627 16.0008 11.6132 15.1867 10.351L13.6371 7.93412L14.7368 5.28773C15.3153 3.89641 14.0584 2.44771 12.6087 2.83499L9.85216 3.55934L7.6812 1.68751C6.54573 0.704973 4.78897 1.45801 4.70328 2.95691Z" fill="url(#paint3_linear_535_9611)"/>
<path opacity="0.39" d="M13.9156 3.65259C14.0513 4.12593 13.7442 4.74987 13.43 5.10846C12.0446 6.70777 10.1093 7.75484 8.13115 8.42182C6.63147 8.93101 3.82494 9.98527 2.37526 8.98839C0.761321 7.88394 4.0249 6.49261 4.83187 5.99776L4.98183 3.32269C5.06039 1.91702 6.70289 1.21419 7.76694 2.13218L9.79507 3.88209C10.5806 3.67411 11.359 3.43027 12.1517 3.25815C12.5373 3.17208 13.0658 2.99996 13.4443 3.15057C13.7085 3.26532 13.8585 3.44461 13.9156 3.65259Z" fill="url(#paint4_linear_535_9611)"/>
<path opacity="0.41" d="M1.75391 10.1502C2.02528 10.4227 3.18217 10.6092 3.58922 10.7526C4.23908 10.9749 4.97464 11.1686 5.66734 11.1112C5.85302 12.0651 5.61735 14.6469 7.00277 14.9051C8.43817 15.1776 9.73789 12.7822 10.0521 11.7065C11.2161 12.0292 13.2871 12.983 14.394 12.0507C15.6223 11.018 14.1155 8.83776 13.1229 8.24967C13.4871 7.76916 13.6085 7.18825 13.9727 6.73643C14.1012 6.57865 14.2369 6.40653 14.3583 6.22723L13.6442 7.94129L15.1938 10.3582C16.008 11.6204 15.0225 13.2771 13.5299 13.148L10.6805 12.9113L8.87379 15.1346C7.92399 16.2892 6.05297 15.8589 5.71019 14.3959L5.05319 11.5989L2.38948 10.559C2.1324 10.4658 1.9253 10.3223 1.75391 10.1502Z" fill="url(#paint5_linear_535_9611)"/>
<path opacity="0.39" d="M9.12372 4.01832C8.88806 4.47732 7.91684 4.16176 7.56692 4.06135C6.93848 3.87489 6.13152 3.57367 5.6959 3.05731C4.66755 1.83811 6.98847 1.47235 7.76687 2.14649C8.05967 2.3975 9.42366 3.42307 9.12372 4.01832Z" fill="url(#paint6_linear_535_9611)"/>
<path opacity="0.61" d="M3.32503 8.63697C6.3815 8.91667 9.49511 7.47514 12.0231 5.89735C12.8515 5.38098 13.6514 4.72835 13.9299 3.75299C14.0013 4.20481 13.7156 4.77138 13.4228 5.10846C12.0374 6.70776 10.1021 7.75484 8.12398 8.42181C6.62431 8.93101 3.81778 9.98526 2.36809 8.98838C2.04673 8.76606 1.91819 8.53656 1.92533 8.29989C2.37523 8.47919 2.83942 8.59394 3.32503 8.63697Z" fill="url(#paint7_linear_535_9611)"/>
<path opacity="0.39" d="M14.1941 11.0179C13.3086 11.2403 11.966 8.78036 12.7801 8.50783C13.5085 8.27116 14.9225 10.3797 14.3369 10.9319C14.3012 10.9821 14.2512 11.0036 14.1941 11.0179Z" fill="url(#paint8_linear_535_9611)"/>
<path opacity="0.39" d="M13.2301 11.6706C13.3872 11.4842 13.7443 11.3838 13.9585 11.5846C14.3441 11.9503 13.5014 12.2731 13.2658 12.0794C13.1087 11.9503 13.123 11.7926 13.2301 11.6706Z" fill="url(#paint9_linear_535_9611)"/>
<path opacity="0.39" d="M6.77431 13.7719C6.06732 14.5608 5.70311 11.4841 6.38154 11.6276C7.05282 11.771 7.1528 13.3488 6.77431 13.7719Z" fill="url(#paint10_linear_535_9611)"/>

</svg>
