<svg width="16" height="17" viewBox="0 0 16 17" fill="none" xmlns="http://www.w3.org/2000/svg">
    <defs>
        <radialGradient id="paint0_radial_535_9613" cx="0" cy="0" r="1" gradientUnits="userSpaceOnUse" gradientTransform="translate(8.53956 7.85878) rotate(156.862) scale(7.50778 7.52994)">
            <stop stop-color="#004156"/>
            <stop offset="0.376" stop-color="#064B62"/>
            <stop offset="1" stop-color="#14637E"/>
        </radialGradient>
    </defs>
    <path d="M8.32393 15.9952C8.64529 15.859 8.93094 15.6438 9.15946 15.3641L10.8448 13.2915L13.5014 13.5066C13.8656 13.5353 14.2084 13.4779 14.5369 13.3417C15.1296 13.0907 15.5795 12.5815 15.7652 11.9575C15.958 11.3336 15.8651 10.6881 15.5081 10.1359L14.0655 7.88395L15.0939 5.41686C15.4152 4.64231 15.2724 3.76735 14.7297 3.13624C14.1798 2.50512 13.3371 2.24694 12.5302 2.45492L9.95215 3.13624L7.92402 1.40067C7.29558 0.855613 6.42434 0.71935 5.65308 1.04925C4.88896 1.37915 4.38193 2.1035 4.33194 2.9426L4.18197 5.61767L1.9039 7.00899C1.18977 7.44647 0.789854 8.23536 0.868408 9.06729C0.939821 9.90639 1.46828 10.6092 2.24668 10.9104L4.73185 11.8786L5.34601 14.482C5.49597 15.1203 5.89589 15.6366 6.47433 15.9235C7.05992 16.2175 7.7312 16.2462 8.32393 15.9952Z" fill="url(#paint0_radial_535_9613)"/>

</svg>
