<svg width="22" height="21" viewBox="0 0 22 21" fill="none" xmlns="http://www.w3.org/2000/svg">
    <defs>
        <radialGradient id="paint0_radial_535_9592" cx="0" cy="0" r="1" gradientUnits="userSpaceOnUse" gradientTransform="translate(10.6837 10.3935) scale(9.43255 9.47279)">
            <stop stop-color="#004156"/>
            <stop offset="0.376" stop-color="#064B62"/>
            <stop offset="1" stop-color="#14637E"/>
        </radialGradient>
        <radialGradient id="paint1_radial_535_9592" cx="0" cy="0" r="1" gradientUnits="userSpaceOnUse" gradientTransform="translate(10.6836 10.3932) scale(9.43262 9.47286)">
            <stop stop-color="#004156"/>
            <stop offset="0.376" stop-color="#064B62"/>
            <stop offset="1" stop-color="#14637E"/>
        </radialGradient>
        <radialGradient id="paint2_radial_535_9592" cx="0" cy="0" r="1" gradientUnits="userSpaceOnUse" gradientTransform="translate(10.6834 10.3938) scale(10.519 10.5638)">
            <stop stop-color="#004DCD"/>
            <stop offset="0.3057" stop-color="#0459CE"/>
            <stop offset="0.8511" stop-color="#1077D0"/>
            <stop offset="1" stop-color="#1481D1"/>
        </radialGradient>
        <linearGradient id="paint3_linear_535_9592" x1="10.6834" y1="17.7042" x2="10.6834" y2="7.13933" gradientUnits="userSpaceOnUse">
            <stop stop-color="#FF8C29"/>
            <stop offset="0.1705" stop-color="#FF912A"/>
            <stop offset="0.3859" stop-color="#FFA12B"/>
            <stop offset="0.6253" stop-color="#FFBB2E"/>
            <stop offset="0.8804" stop-color="#FFDF32"/>
            <stop offset="1" stop-color="#FFF234"/>
        </linearGradient>
        <linearGradient id="paint4_linear_535_9592" x1="10.5067" y1="16.5605" x2="10.5067" y2="7.16922" gradientUnits="userSpaceOnUse">
            <stop stop-color="#FF8C29"/>
            <stop offset="0.1705" stop-color="#FF912A"/>
            <stop offset="0.3859" stop-color="#FFA12B"/>
            <stop offset="0.6253" stop-color="#FFBB2E"/>
            <stop offset="0.8804" stop-color="#FFDF32"/>
            <stop offset="1" stop-color="#FFF234"/>
        </linearGradient>
        <linearGradient id="paint5_linear_535_9592" x1="11.4022" y1="17.7042" x2="11.4022" y2="7.13939" gradientUnits="userSpaceOnUse">
            <stop stop-color="#FF8C29"/>
            <stop offset="0.1705" stop-color="#FF912A"/>
            <stop offset="0.3859" stop-color="#FFA12B"/>
            <stop offset="0.6253" stop-color="#FFBB2E"/>
            <stop offset="0.8804" stop-color="#FFDF32"/>
            <stop offset="1" stop-color="#FFF234"/>
        </linearGradient>
        <linearGradient id="paint6_linear_535_9592" x1="9.81256" y1="10.8333" x2="9.81256" y2="5.21101" gradientUnits="userSpaceOnUse">
            <stop stop-color="#FF8C29"/>
            <stop offset="0.1705" stop-color="#FF912A"/>
            <stop offset="0.3859" stop-color="#FFA12B"/>
            <stop offset="0.6253" stop-color="#FFBB2E"/>
            <stop offset="0.8804" stop-color="#FFDF32"/>
            <stop offset="1" stop-color="#FFF234"/>
        </linearGradient>
        <linearGradient id="paint7_linear_535_9592" x1="10.5218" y1="16.5604" x2="10.5218" y2="7.16926" gradientUnits="userSpaceOnUse">
            <stop stop-color="#FF8C29"/>
            <stop offset="0.1403" stop-color="#FF902E"/>
            <stop offset="0.3174" stop-color="#FF9D3E"/>
            <stop offset="0.5144" stop-color="#FFB258"/>
            <stop offset="0.7258" stop-color="#FFD07C"/>
            <stop offset="0.9464" stop-color="#FFF5AA"/>
            <stop offset="1" stop-color="#FFFFB6"/>
        </linearGradient>
        <linearGradient id="paint8_linear_535_9592" x1="5.00258" y1="15.0498" x2="6.74263" y2="15.0498" gradientUnits="userSpaceOnUse">
            <stop stop-color="#FF8C29"/>
            <stop offset="0.1705" stop-color="#FF912A"/>
            <stop offset="0.3859" stop-color="#FFA12B"/>
            <stop offset="0.6253" stop-color="#FFBB2E"/>
            <stop offset="0.8804" stop-color="#FFDF32"/>
            <stop offset="1" stop-color="#FFF234"/>
        </linearGradient>
        <linearGradient id="paint9_linear_535_9592" x1="6.20731" y1="17.4603" x2="7.34085" y2="17.4603" gradientUnits="userSpaceOnUse">
            <stop stop-color="#FF8C29"/>
            <stop offset="0.1705" stop-color="#FF912A"/>
            <stop offset="0.3859" stop-color="#FFA12B"/>
            <stop offset="0.6253" stop-color="#FFBB2E"/>
            <stop offset="0.8804" stop-color="#FFDF32"/>
            <stop offset="1" stop-color="#FFF234"/>
        </linearGradient>
        <linearGradient id="paint10_linear_535_9592" x1="14.7243" y1="15.0311" x2="16.1626" y2="15.0311" gradientUnits="userSpaceOnUse">
            <stop stop-color="#FF8C29"/>
            <stop offset="0.1705" stop-color="#FF912A"/>
            <stop offset="0.3859" stop-color="#FFA12B"/>
            <stop offset="0.6253" stop-color="#FFBB2E"/>
            <stop offset="0.8804" stop-color="#FFDF32"/>
            <stop offset="1" stop-color="#FFF234"/>
        </linearGradient>
    </defs>

    <path d="M14.9204 20.791C14.2991 20.791 13.6992 20.6404 13.1422 20.3463L10.6856 19.0482L8.22901 20.3463C7.66484 20.6404 7.07212 20.791 6.45082 20.791C5.3225 20.791 4.2513 20.2889 3.51575 19.414C2.79447 18.5534 2.4874 17.4131 2.68021 16.2943L3.15154 13.5475L1.15911 11.5968C0.109343 10.5712 -0.262006 9.05794 0.187896 7.65945C0.637799 6.26095 1.82326 5.25691 3.27294 5.04893L6.02234 4.64731L7.25065 2.14436C7.90051 0.817582 9.21451 0 10.6856 0C12.1496 0 13.4636 0.817582 14.1134 2.14436L15.3417 4.64731L18.0912 5.04893C19.5408 5.26408 20.7263 6.26095 21.1762 7.65945C21.6261 9.05794 21.2619 10.5712 20.2121 11.5968L18.2197 13.5475L18.691 16.2943C18.8838 17.4131 18.5768 18.5534 17.8555 19.414C17.1199 20.2818 16.0487 20.791 14.9204 20.791Z" fill="#1481D1"/>
<path d="M14.9205 19.6937C14.4777 19.6937 14.0492 19.5861 13.6493 19.3709L10.6857 17.8075L7.72205 19.3709C7.32213 19.5861 6.88652 19.6937 6.4509 19.6937C5.64393 19.6937 4.87981 19.3351 4.35135 18.704C3.83003 18.08 3.6158 17.2911 3.75862 16.4735L4.32279 13.1602L1.92331 10.815C1.17347 10.0763 0.909241 9.00055 1.2306 7.9965C1.55196 6.99245 2.40177 6.27528 3.4444 6.12467L6.75797 5.64416L8.24336 2.62485C8.70755 1.67817 9.6502 1.09009 10.7 1.09009C11.7497 1.09009 12.6924 1.67817 13.1566 2.62485L14.642 5.64416L17.9555 6.12467C18.991 6.27528 19.8408 6.99245 20.1693 7.9965C20.4907 9.00055 20.2265 10.0763 19.4766 10.815L17.0557 13.1602L17.6199 16.4735C17.7556 17.2911 17.5485 18.08 17.02 18.704C16.4987 19.3351 15.7275 19.6937 14.9205 19.6937Z" fill="url(#paint0_radial_535_9592)"/>
<path opacity="0.43" d="M20.1478 7.9965C19.8264 6.99245 18.9766 6.27528 17.934 6.12467L14.6204 5.64416L13.135 2.62485C12.6708 1.67817 11.7282 1.09009 10.6784 1.09009C9.62865 1.09009 8.686 1.67817 8.22182 2.62485L6.73642 5.64416L3.42286 6.12467C2.38023 6.27528 1.53755 6.99245 1.20905 7.9965C0.880554 9.00055 1.15193 10.0763 1.90176 10.815L3.38715 12.2709C3.85848 11.5609 4.42978 10.9154 5.0725 10.3775C7.07921 8.69934 9.37157 8.18297 11.9282 8.57025C14.3276 8.93601 16.5843 10.1552 17.9126 12.235C17.9197 12.2494 17.9269 12.2637 17.9411 12.2781L19.4408 10.815C20.2049 10.0763 20.4692 9.00055 20.1478 7.9965Z" fill="url(#paint1_radial_535_9592)"/>
<path opacity="0.45" d="M21.1762 7.65945C20.7263 6.26096 19.5408 5.25691 18.0911 5.04893L15.3417 4.64013L14.1134 2.13719C13.4636 0.817582 12.1496 0 10.6856 0C9.22165 0 7.90765 0.817582 7.25779 2.14436L6.02948 4.64731L3.27294 5.04175C1.82326 5.25691 0.637799 6.25378 0.187896 7.65228C-0.262006 9.05077 0.109342 10.564 1.15911 11.5896L3.15154 13.5403L2.68021 16.2871C2.4874 17.4059 2.79447 18.5462 3.51575 19.4068C4.2513 20.2818 5.3225 20.7838 6.45082 20.7838C7.07212 20.7838 7.67198 20.6332 8.22901 20.3391L10.6856 19.041L13.1422 20.3391C13.7064 20.6332 14.2991 20.7838 14.9204 20.7838C16.0487 20.7838 17.1199 20.2818 17.8555 19.4068C18.5768 18.5462 18.8838 17.4059 18.691 16.2871L18.2197 13.5403L20.2121 11.5896C21.2619 10.564 21.6332 9.05795 21.1762 7.65945ZM17.7198 13.3825L18.234 16.3732C18.3982 17.3557 18.134 18.3526 17.4984 19.1128C16.8486 19.8801 15.913 20.3248 14.9204 20.3248C14.3777 20.3248 13.8492 20.1885 13.3565 19.9303L10.6785 18.5175L8.00048 19.9303C7.50773 20.1885 6.97928 20.3248 6.43654 20.3248C5.4439 20.3248 4.50839 19.8801 3.85853 19.1128C3.22295 18.3597 2.95872 17.3629 3.12297 16.3732L3.63715 13.3825L1.47333 11.2597C0.552104 10.356 0.223603 9.02926 0.623516 7.80289C1.02343 6.57651 2.05892 5.69439 3.33721 5.50792L6.32942 5.07044L7.66484 2.34517C8.23615 1.18334 9.3859 0.466165 10.6785 0.466165C11.9639 0.466165 13.1208 1.18334 13.6921 2.34517L15.0275 5.07044L18.0197 5.50792C19.2909 5.69439 20.3335 6.57651 20.7334 7.80289C21.1333 9.02926 20.8048 10.356 19.8836 11.2597L17.7198 13.3825Z" fill="url(#paint2_radial_535_9592)"/>
<path d="M12.7209 2.83283L14.3134 6.06729L17.8697 6.58366C19.7336 6.85619 20.4763 9.15833 19.1266 10.4779L16.5557 12.9952L17.1628 16.5524C17.4841 18.4171 15.5345 19.8371 13.8635 18.9621L10.6856 17.2839L7.50771 18.9621C5.84379 19.8443 3.89421 18.4171 4.20843 16.5524L4.81544 12.9952L2.24457 10.4779C0.894863 9.15833 1.63756 6.85619 3.50144 6.58366L7.05781 6.06729L8.65032 2.83283C9.47871 1.13312 11.8853 1.13312 12.7209 2.83283Z" fill="url(#paint3_linear_535_9592)"/>
<path opacity="0.39" d="M2.40175 8.18295C2.47316 8.79255 3.1373 9.3663 3.68004 9.63165C6.07238 10.8007 8.82178 11.0445 11.4355 10.8437C13.4208 10.6931 17.1842 10.521 18.3768 8.65629C19.698 6.57648 15.2418 6.58365 14.0706 6.41153L12.5852 3.39221C11.8068 1.80725 9.55733 1.80725 8.77893 3.39221L7.29354 6.41153C6.28662 6.56213 5.26541 6.66971 4.25849 6.85618C3.77288 6.94941 3.07303 7.00678 2.71596 7.36537C2.45174 7.6379 2.36604 7.9176 2.40175 8.18295Z" fill="url(#paint4_linear_535_9592)"/>
<path opacity="0.41" d="M19.6552 9.68903C19.4766 10.1337 18.234 10.9297 17.827 11.2955C17.1771 11.8692 16.4273 12.4573 15.5989 12.7299C15.8489 13.9275 17.3914 16.7891 15.9203 17.7788C14.392 18.8043 11.714 16.6743 10.8214 15.5842C9.62878 16.5381 7.70776 18.6537 5.96528 18.123C4.03713 17.5349 4.71556 14.2718 5.57251 13.0956C4.91551 12.7155 4.49418 12.1131 3.84432 11.7617C3.6158 11.6397 3.38013 11.5035 3.15161 11.36L4.81554 12.988L4.20138 16.5524C3.88002 18.4171 5.8296 19.8371 7.50067 18.9621L10.6785 17.2839L13.8564 18.9621C15.5275 19.8443 17.4699 18.4171 17.1557 16.5524L16.5487 12.9952L19.1196 10.4779C19.3695 10.2413 19.548 9.96872 19.6552 9.68903Z" fill="url(#paint5_linear_535_9592)"/>
<path opacity="0.39" d="M8.12192 6.23944C8.61467 6.65541 9.59303 5.80914 9.94296 5.52227C10.5785 4.99873 11.3641 4.24569 11.6212 3.42811C12.2139 1.50608 9.35023 2.23042 8.77892 3.39225C8.56468 3.8369 7.48635 5.70156 8.12192 6.23944Z" fill="url(#paint6_linear_535_9592)"/>
<path opacity="0.61" d="M17.0913 8.72088C13.6921 10.5568 9.37873 10.4349 5.67953 9.85402C4.47265 9.66755 3.22292 9.30179 2.4231 8.31926C2.56592 8.87866 3.17293 9.39502 3.67282 9.63886C6.06516 10.8079 8.81456 11.0517 11.4283 10.8509C13.4136 10.7003 17.177 10.5282 18.3696 8.6635C18.6339 8.24754 18.6696 7.91764 18.541 7.65228C18.1197 8.06107 17.6341 8.42683 17.0913 8.72088Z" fill="url(#paint7_linear_535_9592)"/>
<path opacity="0.39" d="M5.68679 16.8464C6.82226 16.6671 7.16504 13.153 6.09385 13.2462C5.12977 13.3323 4.5299 16.4663 5.48683 16.8249C5.55111 16.8536 5.62252 16.8608 5.68679 16.8464Z" fill="url(#paint8_linear_535_9592)"/>
<path opacity="0.39" d="M7.12933 17.1262C6.85796 16.9899 6.39377 17.0544 6.25095 17.3843C5.97958 18.0011 7.12219 17.9509 7.29358 17.6138C7.40784 17.3843 7.30786 17.2122 7.12933 17.1262Z" fill="url(#paint9_linear_535_9592)"/>
<path opacity="0.39" d="M15.6274 16.3588C16.8272 16.9182 15.7417 13.1817 15.0276 13.6837C14.3277 14.1857 14.9776 16.0576 15.6274 16.3588Z" fill="url(#paint10_linear_535_9592)"/>

</svg>
