<svg width="20" height="19" viewBox="0 0 20 19" fill="none" xmlns="http://www.w3.org/2000/svg">
    <defs>
        <radialGradient id="paint0_radial_535_9594" cx="0" cy="0" r="1" gradientUnits="userSpaceOnUse" gradientTransform="translate(9.68373 9.39345) scale(9.43255 9.47279)">
            <stop stop-color="#004156"/>
            <stop offset="0.376" stop-color="#064B62"/>
            <stop offset="1" stop-color="#14637E"/>
        </radialGradient>
    </defs>
    <path d="M13.9205 18.6937C13.4777 18.6937 13.0492 18.5861 12.6493 18.3709L9.68569 16.8075L6.72205 18.3709C6.32213 18.5861 5.88652 18.6937 5.4509 18.6937C4.64393 18.6937 3.87981 18.3351 3.35135 17.704C2.83003 17.08 2.6158 16.2911 2.75862 15.4735L3.32279 12.1602L0.923306 9.81501C0.173469 9.07632 -0.0907591 8.00055 0.2306 6.9965C0.551958 5.99245 1.40177 5.27528 2.4444 5.12467L5.75797 4.64416L7.24336 1.62485C7.70755 0.678173 8.6502 0.0900879 9.69997 0.0900879C10.7497 0.0900879 11.6924 0.678173 12.1566 1.62485L13.642 4.64416L16.9555 5.12467C17.991 5.27528 18.8408 5.99245 19.1693 6.9965C19.4907 8.00055 19.2265 9.07632 18.4766 9.81501L16.0557 12.1602L16.6199 15.4735C16.7556 16.2911 16.5485 17.08 16.02 17.704C15.4987 18.3351 14.7275 18.6937 13.9205 18.6937Z" fill="url(#paint0_radial_535_9594)"/>

</svg>
