<svg width="17" height="18" viewBox="4 3 17 18" fill="none" xmlns="http://www.w3.org/2000/svg">
    <defs>
        <radialGradient id="paint0_radial_535_9611" cx="0" cy="0" r="1" gradientUnits="userSpaceOnUse" gradientTransform="translate(12.5366 11.6024) rotate(-157.059) scale(7.50778 7.52994)">
            <stop stop-color="#004156"/>
            <stop offset="0.376" stop-color="#064B62"/>
            <stop offset="1" stop-color="#14637E"/>
        </radialGradient>
        <radialGradient id="paint1_radial_535_9611" cx="0" cy="0" r="1" gradientUnits="userSpaceOnUse" gradientTransform="translate(12.5366 11.6022) rotate(-157.059) scale(7.50771 7.52987)">
            <stop stop-color="#004156"/>
            <stop offset="0.376" stop-color="#064B62"/>
            <stop offset="1" stop-color="#14637E"/>
        </radialGradient>
        <radialGradient id="paint2_radial_535_9611" cx="0" cy="0" r="1" gradientUnits="userSpaceOnUse" gradientTransform="translate(12.5365 11.6024) rotate(-157.059) scale(8.37246 8.39717)">
            <stop stop-color="#004DCD"/>
            <stop offset="0.3057" stop-color="#0459CE"/>
            <stop offset="0.8511" stop-color="#1077D0"/>
            <stop offset="1" stop-color="#1481D1"/>
        </radialGradient>
        <linearGradient id="paint3_linear_535_9611" x1="10.2553" y1="16.947" x2="13.5284" y2="9.21294" gradientUnits="userSpaceOnUse">
            <stop stop-color="#FF8C29"/>
            <stop offset="0.1705" stop-color="#FF912A"/>
            <stop offset="0.3859" stop-color="#FFA12B"/>
            <stop offset="0.6253" stop-color="#FFBB2E"/>
            <stop offset="0.8804" stop-color="#FFDF32"/>
            <stop offset="1" stop-color="#FFF234"/>
        </linearGradient>
        <linearGradient id="paint4_linear_535_9611" x1="10.7418" y1="16.1666" x2="13.6515" y2="9.29123" gradientUnits="userSpaceOnUse">
            <stop stop-color="#FF8C29"/>
            <stop offset="0.1705" stop-color="#FF912A"/>
            <stop offset="0.3859" stop-color="#FFA12B"/>
            <stop offset="0.6253" stop-color="#FFBB2E"/>
            <stop offset="0.8804" stop-color="#FFDF32"/>
            <stop offset="1" stop-color="#FFF234"/>
        </linearGradient>
        <linearGradient id="paint5_linear_535_9611" x1="9.7286" y1="16.7241" x2="13.0017" y2="8.98995" gradientUnits="userSpaceOnUse">
            <stop stop-color="#FF8C29"/>
            <stop offset="0.1705" stop-color="#FF912A"/>
            <stop offset="0.3859" stop-color="#FFA12B"/>
            <stop offset="0.6253" stop-color="#FFBB2E"/>
            <stop offset="0.8804" stop-color="#FFDF32"/>
            <stop offset="1" stop-color="#FFF234"/>
        </linearGradient>
        <linearGradient id="paint6_linear_535_9611" x1="13.0378" y1="12.1936" x2="14.7795" y2="8.07812" gradientUnits="userSpaceOnUse">
            <stop stop-color="#FF8C29"/>
            <stop offset="0.1705" stop-color="#FF912A"/>
            <stop offset="0.3859" stop-color="#FFA12B"/>
            <stop offset="0.6253" stop-color="#FFBB2E"/>
            <stop offset="0.8804" stop-color="#FFDF32"/>
            <stop offset="1" stop-color="#FFF234"/>
        </linearGradient>
        <linearGradient id="paint7_linear_535_9611" x1="10.73" y1="16.1628" x2="13.6404" y2="9.28582" gradientUnits="userSpaceOnUse">
            <stop stop-color="#FF8C29"/>
            <stop offset="0.1403" stop-color="#FF902E"/>
            <stop offset="0.3174" stop-color="#FF9D3E"/>
            <stop offset="0.5144" stop-color="#FFB258"/>
            <stop offset="0.7258" stop-color="#FFD07C"/>
            <stop offset="0.9464" stop-color="#FFF5AA"/>
            <stop offset="1" stop-color="#FFFFB6"/>
        </linearGradient>
        <linearGradient id="paint8_linear_535_9611" x1="15.2476" y1="16.7686" x2="13.9738" y2="16.2249" gradientUnits="userSpaceOnUse">
            <stop stop-color="#FF8C29"/>
            <stop offset="0.1705" stop-color="#FF912A"/>
            <stop offset="0.3859" stop-color="#FFA12B"/>
            <stop offset="0.6253" stop-color="#FFBB2E"/>
            <stop offset="0.8804" stop-color="#FFDF32"/>
            <stop offset="1" stop-color="#FFF234"/>
        </linearGradient>
        <linearGradient id="paint9_linear_535_9611" x1="13.6125" y1="18.1573" x2="12.7827" y2="17.8031" gradientUnits="userSpaceOnUse">
            <stop stop-color="#FF8C29"/>
            <stop offset="0.1705" stop-color="#FF912A"/>
            <stop offset="0.3859" stop-color="#FFA12B"/>
            <stop offset="0.6253" stop-color="#FFBB2E"/>
            <stop offset="0.8804" stop-color="#FFDF32"/>
            <stop offset="1" stop-color="#FFF234"/>
        </linearGradient>
        <linearGradient id="paint10_linear_535_9611" x1="8.12751" y1="13.7392" x2="7.07463" y2="13.2898" gradientUnits="userSpaceOnUse">
            <stop stop-color="#FF8C29"/>
            <stop offset="0.1705" stop-color="#FF912A"/>
            <stop offset="0.3859" stop-color="#FFA12B"/>
            <stop offset="0.6253" stop-color="#FFBB2E"/>
            <stop offset="0.8804" stop-color="#FFDF32"/>
            <stop offset="1" stop-color="#FFF234"/>
        </linearGradient>
    </defs>
    <path d="M6.18566 17.885C6.64217 18.0799 7.12146 18.1537 7.6285 18.1116L9.83921 17.9258L11.2358 19.6345C11.5516 20.0244 11.9452 20.3195 12.4018 20.5144C13.2295 20.8673 14.1667 20.8273 14.98 20.4208C15.778 20.0191 16.3604 19.2798 16.5662 18.3975L17.0771 16.2399L19.144 15.4292C20.2361 15.0021 20.9756 14.0123 21.0809 12.8501C21.1863 11.6878 20.6324 10.5853 19.6327 9.98152L17.7435 8.83652L17.6229 6.6228C17.5562 5.45763 16.8535 4.44885 15.7799 3.99566C14.7062 3.54247 13.4874 3.73468 12.6008 4.49928L10.9152 5.95403L8.77573 5.397C7.64808 5.10486 6.46616 5.46976 5.69865 6.3477C4.92598 7.23061 4.73344 8.44712 5.17646 9.52747L6.0295 11.5712L4.82631 13.4339C4.33457 14.1949 4.20891 15.119 4.46432 15.9736C4.72963 16.8384 5.3579 17.5321 6.18566 17.885Z" fill="#1481D1"/>
<path d="M6.52633 17.091C6.8474 17.228 7.20052 17.2845 7.56051 17.2551L10.2225 17.0313L11.9103 19.0941C12.1423 19.3763 12.4214 19.5834 12.7474 19.7255C13.3393 19.9783 14.0182 19.9492 14.5964 19.6501C15.1796 19.3562 15.5801 18.8416 15.7302 18.2013L16.3516 15.6002L18.842 14.6296C19.6228 14.3238 20.154 13.614 20.2321 12.7852C20.3052 11.9514 19.9067 11.1653 19.1971 10.7283L16.9181 9.344L16.7613 6.67924C16.718 5.84849 16.2118 5.12642 15.4392 4.79973C14.6715 4.47817 13.7981 4.61542 13.159 5.16146L11.1281 6.90905L8.54572 6.23327C7.73523 6.02235 6.88959 6.28153 6.34485 6.91519C5.78999 7.54868 5.65031 8.41686 5.9733 9.18648L6.9998 11.6481L5.55063 13.8964C5.1949 14.4472 5.10037 15.0934 5.29499 15.709C5.48939 16.3348 5.93437 16.8382 6.52633 17.091Z" fill="url(#paint0_radial_535_9611)"/>
<path opacity="0.43" d="M6.34998 6.9102C6.89967 6.28168 7.74553 6.01239 8.55085 6.22829L11.1332 6.90406L13.1641 5.15648C13.8032 4.61043 14.6766 4.47319 15.4391 4.79971C16.2118 5.12641 16.718 5.84848 16.7613 6.67922L16.9079 9.34381L19.1869 10.7281C19.9017 11.1602 20.3002 11.9462 20.2219 12.7851C20.1488 13.6189 19.6126 14.3236 18.8318 14.6294L17.2906 15.2312C17.1679 14.5662 16.9487 13.9147 16.6422 13.3275C15.694 11.4745 14.173 10.3913 12.1793 9.88228C10.3064 9.40562 8.27266 9.5994 6.65002 10.706C6.63969 10.7159 6.62936 10.7259 6.61407 10.7307L5.97305 9.19659C5.66039 8.41701 5.80007 7.54884 6.34998 6.9102Z" fill="url(#paint1_radial_535_9611)"/>
<path opacity="0.45" d="M5.17625 9.52775L6.0293 11.5715L4.8261 13.4341C4.33437 14.1952 4.2087 15.1193 4.46411 15.9738C4.72943 16.8386 5.35749 17.5425 6.18029 17.8903C6.6368 18.0852 7.11609 18.159 7.62313 18.1168L9.83384 17.9311L11.2304 19.6397C11.5462 20.0297 11.9399 20.3247 12.3964 20.5196C13.2241 20.8725 14.1614 20.8325 14.9747 20.426C15.7727 20.0244 16.3551 19.285 16.5608 18.4028L17.0717 16.2452L19.1386 15.4345C20.2307 15.0073 20.9702 14.0176 21.0756 12.8553C21.1809 11.693 20.627 10.5906 19.6274 9.98677L17.7381 8.84177L17.6175 6.62805C17.5508 5.46288 16.8482 4.4541 15.7745 4.00091C14.7008 3.54772 13.482 3.73993 12.5954 4.50453L10.915 5.9543L8.77553 5.39727C7.64787 5.10513 6.46595 5.47004 5.69844 6.34797C4.92577 7.23088 4.73324 8.44739 5.17625 9.52775ZM5.5235 9.38171C5.12832 8.43375 5.3026 7.3637 5.98186 6.59058C6.65618 5.81231 7.69536 5.49563 8.68715 5.75007L11.0178 6.36091L12.8477 4.7871C13.626 4.11686 14.6975 3.94749 15.6407 4.34789C16.5839 4.74829 17.2081 5.63429 17.2627 6.65249L17.3894 9.05863L19.4486 10.3077C20.3283 10.8386 20.8091 11.8032 20.7218 12.8291C20.6296 13.85 19.9736 14.7196 19.0192 15.0934L16.7687 15.9719L16.2083 18.3159C16.0251 19.0872 15.5207 19.7317 14.8197 20.0894C14.1035 20.452 13.2778 20.4837 12.5554 20.1781C12.154 20.0095 11.8152 19.7507 11.5339 19.4069L10.0141 17.5393L7.61074 17.7421C7.16959 17.7803 6.74584 17.7125 6.34445 17.5438C5.61705 17.2331 5.06804 16.6216 4.83096 15.8585C4.60379 15.1056 4.72195 14.2978 5.1459 13.6318L6.45389 11.5988L5.5235 9.38171Z" fill="url(#paint2_radial_535_9611)"/>
<path d="M13.4061 5.43892L11.2308 7.31568L8.46218 6.59125C7.01239 6.21275 5.74706 7.65934 6.32538 9.04562L7.42407 11.6856L5.86514 14.099C5.0491 15.3608 6.03702 17.007 7.52776 16.8801L10.3824 16.6393L12.1885 18.8558C13.136 20.0155 15.0077 19.5811 15.3522 18.1191L16.0181 15.3264L18.6872 14.2829C20.0906 13.7344 20.2622 11.8242 18.9777 11.0486L16.5438 9.56552L16.3862 6.70337C16.3062 5.20394 14.5452 4.46091 13.4061 5.43892Z" fill="url(#paint3_linear_535_9611)"/>
<path opacity="0.39" d="M19.2954 12.5571C19.0485 12.9831 18.3861 13.1948 17.9099 13.2172C15.7969 13.3286 13.7002 12.661 11.8476 11.6988C10.4406 10.9718 7.73441 9.68155 7.44686 7.94585C7.12286 6.01722 10.3889 7.40285 11.3051 7.64084L13.3359 5.89325C14.4029 4.97477 16.0485 5.67033 16.1254 7.07354L16.2718 9.74825C16.9665 10.1698 17.6821 10.5613 18.3559 11.0129C18.6854 11.231 19.176 11.4922 19.33 11.8693C19.4307 12.1392 19.4055 12.3716 19.2954 12.5571Z" fill="url(#paint4_linear_535_9611)"/>
<path opacity="0.41" d="M6.17895 8.30423C6.17089 8.68874 6.83907 9.65139 7.01812 10.0441C7.30876 10.6664 7.67952 11.3305 8.20135 11.7897C7.64309 12.5851 5.61993 14.2063 6.39498 15.3833C7.19437 16.6062 9.82132 15.8808 10.8142 15.3609C11.3891 16.4232 12.1387 18.5766 13.578 18.7272C15.1739 18.8956 15.6991 16.2979 15.4342 15.1749C16.0329 15.1039 16.5355 14.7884 17.1136 14.7374C17.3164 14.7205 17.5345 14.6988 17.7479 14.6619L16.0179 15.3365L15.352 18.1292C15.0075 19.5912 13.1306 20.0305 12.1883 18.8659L10.3822 16.6494L7.52754 16.8902C6.03701 17.007 5.04909 15.3608 5.86513 14.099L7.42406 11.6856L6.32537 9.0456C6.2142 8.79575 6.17386 8.54708 6.17895 8.30423Z" fill="url(#paint5_linear_535_9611)"/>
<path opacity="0.39" d="M15.7078 9.35922C15.2138 9.50786 14.7674 8.5894 14.5969 8.26771C14.2953 7.6857 13.9525 6.89551 14.0223 6.22354C14.1871 4.63711 16.0606 6.05515 16.1149 7.08346C16.1372 7.46848 16.3447 9.16235 15.7078 9.35922Z" fill="url(#paint6_linear_535_9611)"/>
<path opacity="0.61" d="M8.35873 8.38624C10.2774 10.7818 13.4756 12.0246 16.3656 12.7511C17.3122 12.9896 18.3371 13.113 19.2329 12.637C18.9569 13.0019 18.3507 13.1891 17.9048 13.212C15.7918 13.3235 13.6952 12.6559 11.8426 11.6937C10.4355 10.9667 7.72936 9.67643 7.44181 7.94073C7.37903 7.55504 7.45517 7.30325 7.6306 7.14423C7.81353 7.59266 8.05287 8.00661 8.35873 8.38624Z" fill="url(#paint7_linear_535_9611)"/>
<path opacity="0.39" d="M14.1832 17.8668C13.4088 17.3832 14.2494 14.7098 15.0104 15.1071C15.6862 15.4676 15.1482 17.9487 14.3443 17.91C14.2833 17.9191 14.2332 17.898 14.1832 17.8668Z" fill="url(#paint8_linear_535_9611)"/>
<path opacity="0.39" d="M13.0444 17.6251C13.2877 17.6089 13.6077 17.7964 13.6117 18.09C13.6157 18.6215 12.7988 18.2384 12.7748 17.9343C12.7588 17.7316 12.8823 17.6325 13.0444 17.6251Z" fill="url(#paint9_linear_535_9611)"/>
<path opacity="0.39" d="M7.05267 14.4326C5.99401 14.4706 7.9575 12.0741 8.32479 12.6623C8.68712 13.2453 7.61999 14.4117 7.05267 14.4326Z" fill="url(#paint10_linear_535_9611)"/>

</svg>
