<svg width="17" height="18" viewBox="0 0 17 18" fill="none" xmlns="http://www.w3.org/2000/svg">
    <defs>
        <radialGradient id="paint0_radial_535_9606" cx="0" cy="0" r="1" gradientUnits="userSpaceOnUse" gradientTransform="translate(8.18188 7.85872) rotate(23.1378) scale(7.50778 7.52994)">
            <stop stop-color="#004156"/>
            <stop offset="0.376" stop-color="#064B62"/>
            <stop offset="1" stop-color="#14637E"/>
        </radialGradient>
        <radialGradient id="paint1_radial_535_9606" cx="0" cy="0" r="1" gradientUnits="userSpaceOnUse" gradientTransform="translate(8.1819 7.85863) rotate(23.1378) scale(7.50778 7.52994)">
            <stop stop-color="#004156"/>
            <stop offset="0.376" stop-color="#064B62"/>
            <stop offset="1" stop-color="#14637E"/>
        </radialGradient>
        <radialGradient id="paint2_radial_535_9606" cx="0" cy="0" r="1" gradientUnits="userSpaceOnUse" gradientTransform="translate(8.18174 7.8585) rotate(23.1378) scale(8.37246 8.39717)">
            <stop stop-color="#004DCD"/>
            <stop offset="0.3057" stop-color="#0459CE"/>
            <stop offset="0.8511" stop-color="#1077D0"/>
            <stop offset="1" stop-color="#1481D1"/>
        </radialGradient>
    </defs>
    <path d="M8.06396 16.7913C7.60692 16.5976 7.22128 16.3036 6.89993 15.9091L5.50023 14.1879L3.30071 14.3672C2.80082 14.4102 2.31521 14.3313 1.85816 14.1377C1.02977 13.7863 0.408478 13.0835 0.137108 12.2157C-0.12712 11.3622 0.00142348 10.4299 0.494174 9.66969L1.69391 7.80503L0.844099 5.7539C0.394196 4.67097 0.594151 3.45177 1.35827 2.56964C2.12239 1.68751 3.30071 1.32175 4.42904 1.62297L6.56428 2.18953L8.24249 0.740837C9.12801 -0.0193703 10.342 -0.213008 11.4132 0.245985C12.4844 0.704978 13.1914 1.7162 13.2557 2.8852L13.3771 5.10127L15.2624 6.25593C16.2622 6.86553 16.8121 7.96998 16.7121 9.13181C16.6121 10.3008 15.8694 11.2833 14.7839 11.7136L12.7272 12.5169L12.2202 14.6756C12.0131 15.5577 11.4347 16.2892 10.642 16.698C9.82786 17.114 8.88521 17.1427 8.06396 16.7913Z" fill="#1481D1"/>
<path d="M8.39931 15.9952C8.07795 15.8589 7.7923 15.6438 7.56378 15.3641L5.87843 13.2914L3.22186 13.5066C2.85766 13.5353 2.51488 13.4779 2.18638 13.3416C1.59365 13.0906 1.14375 12.5814 0.958071 11.9575C0.765256 11.3335 0.858094 10.6881 1.21516 10.1359L2.6577 7.88392L1.62935 5.41683C1.30799 4.64228 1.45082 3.76732 1.99356 3.13621C2.54344 2.50509 3.38611 2.24691 4.19308 2.45489L6.77109 3.15055L8.79208 1.40781C9.42766 0.862754 10.2989 0.726491 11.063 1.05639C11.8343 1.38629 12.3413 2.11064 12.3842 2.94257L12.5341 5.61764L14.8122 7.00896C15.5263 7.44644 15.9262 8.23533 15.8477 9.06726C15.7763 9.90636 15.2478 10.6092 14.4694 10.9104L11.9842 11.8786L11.3701 14.4819C11.2201 15.1202 10.8202 15.6366 10.2418 15.9235C9.66332 16.2175 8.99204 16.2462 8.39931 15.9952Z" fill="url(#paint0_radial_535_9606)"/>
<path opacity="0.43" d="M15.8548 9.06012C15.9262 8.22819 15.5334 7.43213 14.8193 7.00182L12.5412 5.6105L12.3913 2.93543C12.3413 2.09633 11.8414 1.37198 11.0701 1.04925C10.2989 0.71935 9.42762 0.855613 8.79919 1.40067L6.77106 3.15058L4.20019 2.46209C3.39323 2.24694 2.55055 2.50512 2.00067 3.14341C1.45079 3.77452 1.31511 4.64948 1.63646 5.42403L2.27204 6.95162C2.8362 6.57869 3.4575 6.28464 4.09307 6.09818C6.0855 5.49575 7.92081 5.83999 9.67043 6.92293C11.3129 7.94132 12.5841 9.54063 12.9126 11.477C12.9126 11.4913 12.9126 11.5057 12.9197 11.52L14.4694 10.9176C15.2478 10.602 15.7762 9.89922 15.8548 9.06012Z" fill="url(#paint1_radial_535_9606)"/>
<path opacity="0.45" d="M16.7117 9.13909C16.8117 7.9701 16.2618 6.87282 15.262 6.26321L13.3767 5.10856L13.2553 2.89248C13.1911 1.72348 12.4841 0.712264 11.4129 0.253271C10.3417 -0.205722 9.12052 -0.0192561 8.24214 0.748123L6.5568 2.18965L4.42155 1.62308C3.29322 1.32187 2.1149 1.68763 1.35078 2.56975C0.586664 3.45188 0.386707 4.67108 0.836609 5.75402L1.68643 7.80515L0.486687 9.66981C0.00107806 10.43 -0.127465 11.3552 0.129622 12.2158C0.39385 13.0836 1.02228 13.7864 1.85068 14.1378C2.30772 14.3315 2.79333 14.4103 3.29322 14.3673L5.49988 14.188L6.89958 15.9092C7.22094 16.3037 7.60657 16.5977 8.06361 16.7914C8.89201 17.1428 9.82752 17.1141 10.6345 16.6981C11.4272 16.2965 12.0056 15.5578 12.2127 14.6757L12.7197 12.517L14.7764 11.7138C15.8691 11.2906 16.6118 10.3081 16.7117 9.13909ZM12.4055 12.2445L11.8485 14.5968C11.67 15.3714 11.1629 16.0168 10.4631 16.3682C9.74896 16.7268 8.92771 16.7555 8.1993 16.4471C7.79938 16.275 7.4566 16.0168 7.17809 15.6726L5.65699 13.8007L3.25751 14.0016C2.81475 14.0374 2.39342 13.9729 1.9935 13.8007C1.26509 13.4924 0.715209 12.8756 0.486687 12.1082C0.258165 11.3552 0.372425 10.5448 0.800903 9.87779L2.10062 7.84818L1.17225 5.61776C0.77948 4.67108 0.950872 3.59532 1.62215 2.82077C2.29344 2.04621 3.32893 1.72348 4.32157 1.98884L6.64964 2.60561L8.47067 1.02782C9.24907 0.360848 10.3131 0.188725 11.2558 0.597516C12.1984 0.999135 12.8197 1.88844 12.8769 2.914L13.0125 5.32371L15.0692 6.57877C15.9405 7.11666 16.4332 8.08484 16.3404 9.11041C16.2476 10.136 15.5977 11.0038 14.6479 11.3767L12.4055 12.2445Z" fill="url(#paint2_radial_535_9606)"/>

</svg>
