<svg width="19" height="19" viewBox="0 0 19 19" fill="none" xmlns="http://www.w3.org/2000/svg">
<path d="M17.3085 1.55847C18.6418 4.55161 18.6418 14.1842 17.3085 17.1773C16.8842 18.1287 15.4275 18.3756 14.3436 18.3756C14.0929 18.3756 13.8615 18.3628 13.6673 18.3422C12.1206 18.1763 11.6642 17.518 11.5549 16.996C10.7796 13.3022 10.6806 3.77889 11.605 1.57647C12.0345 0.554323 13.5233 0.385894 14.3732 0.375608C15.0945 0.370465 16.8225 0.46818 17.3085 1.55847Z" fill="white"/>
<path d="M7.08317 1.75648C7.85846 5.45033 7.95746 14.9736 7.03303 17.1761C6.60488 18.1982 5.11474 18.3666 4.26488 18.3769H4.1916C3.43303 18.3769 1.80146 18.2496 1.33088 17.194C-0.00368682 14.2009 -0.00368682 4.56833 1.33088 1.57519C1.85288 0.40262 3.9396 0.301049 4.97074 0.410335C6.51746 0.576192 6.97388 1.23448 7.08317 1.75648Z" fill="white"/>
</svg>
