<svg width="20" height="19" viewBox="0 0 20 19" fill="none" xmlns="http://www.w3.org/2000/svg">
    <defs>
        <clipPath id="clip0_740_3894">
            <rect width="19" height="19" fill="white" transform="translate(0.5)"/>
        </clipPath>
    </defs>
<g clip-path="url(#clip0_740_3894)">
<path d="M16.7135 5.37067C17.8616 6.75134 18.4637 8.41067 18.4637 10.1333C18.4637 12.2993 17.5256 14.3133 15.8174 15.8333C14.1652 17.3027 11.981 18.1007 9.67075 18.1007C9.60074 18.1007 9.53073 18.1007 9.46073 18.1007C7.20649 18.05 5.06426 17.2267 3.4541 15.77C1.84393 14.3133 0.919828 12.3753 0.863822 10.336C0.765812 6.54867 3.56611 3.29334 7.52852 2.40667C7.38851 1.35534 7.64054 0.722007 8.2986 0.468674C8.70465 0.316674 9.37672 0.25334 10.2868 0.798007C11.3789 1.45667 12.5971 2.91334 12.5971 3.93934C12.5971 4.97801 11.3789 6.42201 10.2868 7.08067C9.39072 7.62534 8.71865 7.56201 8.2986 7.41001C7.79455 7.22001 7.52852 6.80201 7.50052 6.15601C5.82034 6.91601 4.70023 8.52467 4.77023 10.3107C4.86824 12.616 6.92646 14.478 9.46073 14.5667C10.8049 14.6173 12.079 14.174 13.0451 13.338C14.0112 12.4893 14.5433 11.362 14.5433 10.146C14.5433 9.18334 14.2072 8.27134 13.5772 7.49867C13.3251 7.19467 13.1851 6.82734 13.1851 6.43467C13.1851 5.96601 13.3811 5.52267 13.7592 5.18067C14.1652 4.81334 14.7113 4.63601 15.2853 4.66134C15.8454 4.69934 16.3635 4.96534 16.7135 5.37067Z" fill="white"/>
</g>
</svg>
