<?xml version="1.0" encoding="utf-8"?>
<!-- Generator: Adobe Illustrator 25.0.0, SVG Export Plug-In . SVG Version: 6.00 Build 0)  -->
<svg version="1.1" id="Calque_1" xmlns="http://www.w3.org/2000/svg" xmlns:xlink="http://www.w3.org/1999/xlink" x="0px" y="0px"
	 viewBox="0 0 1920 1920"  xml:space="preserve">

<g>
	<path fill="#8AC251" d="M7.59,1600.18c200.05-107.33,971.62-454.19,1889.52,1.73c22.17,11.01,21.94,42.8-0.44,53.39
		c-844.68,399.55-1673.61,91.12-1886.88-1.91C-12.87,1643.51-14.19,1611.86,7.59,1600.18z"/>
	<path fill="#2B3333" d="M1168.88,1549.38c-0.35,0-0.71-0.02-1.07-0.07c-5-0.62-14.32-1.79-13.57-10.55c0.74-8.63,8.05-8.56,21.34-8.39
		c8.65,0.11,21.57,0.52,38.52,1.22c-128.38-237.3,97.77-377.63,100.11-379.05c4.05-2.45,9.3-1.15,11.75,2.89
		c2.45,4.04,1.15,9.3-2.89,11.75c-0.56,0.34-56.98,34.99-95.49,97.77c-51.12,83.35-48.12,174.7,8.93,271.51
		c1.59,2.71,1.58,6.07-0.04,8.76c-1.62,2.69-4.59,4.28-7.72,4.14c-30.01-1.36-45.99-1.81-54.49-1.89
		C1172.77,1548.67,1170.89,1549.38,1168.88,1549.38z"/>
	<path fill="#2B3333" d="M1044.03,1243.76c-1.45,0-2.92-0.37-4.27-1.15c-4.1-2.36-5.5-7.6-3.14-11.69l129.13-223.83
		c2.37-4.09,7.6-5.5,11.69-3.14c4.1,2.36,5.5,7.6,3.14,11.69l-129.13,223.83C1049.87,1242.22,1046.99,1243.76,1044.03,1243.76z"/>
	<g>
		
			<ellipse transform="matrix(0.7071 -0.7071 0.7071 0.7071 -68.7136 1198.2604)" fill="#35B9D0" cx="1412.07" cy="682.07" rx="507.93" ry="507.93"/>
		<g>
			<path fill="#B2DA89" d="M1165.67,294.91c-1.9,1.5-3.8,3-5.7,4.51c-18.47,2.65-22.74,29.37-44.58,26.29
				c-0.54-2.6-1.07-5.19-1.63-7.79c8.97-10.72,10.21-23.68,10.61-36.89c24.19-23.06,61.16-25.03,83.71-50.78
				c41.06-21.23,81.07-45.6,129.98-43.25c5.46,2.75,8.22,7.94,2.35,11.04c-33.48,17.68-60.05,46.45-97.55,58
				C1215.26,264.54,1188.03,275.28,1165.67,294.91z"/>
			<path fill="#B2DA89" d="M1000.39,435.41c-4.46,0.4-8.92,0.8-13.36,1.17c-0.07-33.9,26.41-49.97,46-77.47
				C1050.27,402.89,1013.55,413.41,1000.39,435.41z"/>
			<g>
				<path fill="#B2DA89" d="M1915.37,603.06c6.32,51.32,5.79,102.58-1.35,153.78c0,0,0.14,0.49,0.14,0.48
					c-10.42-6.93-5.6-18.42-6.39-28.48c-0.43-5.47-7.81-6.91-10.45-2.1c-16.1,29.22-28.93,59.27-36.1,91.56
					c-0.77,3.47-4.49,5.39-7.73,3.91l-2.23-1.02c-2.23-1.02-3.51-3.37-3.19-5.8c6.35-47.16,7.12-93.37-23.94-134.21
					c-3.89-10.3-10.51-7.15-17.08-4.29c-0.85,0.37-1.79,0.51-2.72,0.43c-4.11-0.39-8.22-0.77-12.33-1.16
					c-0.88-0.08-1.72-0.39-2.46-0.87c-19.25-12.64-42.44-18.96-61.56-32.51c-4.03-2.85-9.44,0.62-8.64,5.49
					c3.59,21.74,3.75,46.73,45.39,30.72c1.94-0.75,6.54,5.41,10.07,8.82c0.34,0.32,0.64,0.68,0.89,1.07
					c14.23,22.42,3.92,36.33-8.37,49.56c-15.68,12.18-31.05,24.11-46.72,36.29c-8.47,4.63-16.94,9.26-25.41,13.89
					c-6.9,2.12-13.59,4.18-20.49,6.3l0,0c-3.38,0.33-6.31-2.44-6.07-5.83c3.58-50.41-28.83-88.33-48.49-130.62
					c-2.81-6.04-9.18-9.49-15.92-7.06c-2.15,0.78-4.67,7.97-3.51,9.42c31.46,39.18,25.43,97.35,65.46,132.05
					c1.52,1.31,2.28,3.31,1.88,5.27c-1.24,6.03-3,12.31,7.91,12.76c11.1-1.42,22.2-2.84,35.2-4.51c4.14-0.53,7.39,3.53,5.97,7.45
					c-11.13,30.72-28.46,53.78-53.53,72.4c-32.21,23.93-61.11,49.65-60.26,96.09c0.37,20.62-11.07,38.22-33.98,46.21
					c-14.21,4.96-24.12,15.9-24.09,32.31c0,1.89-0.81,3.71-2.38,4.78c-11.23,7.68-23.29,14.52-28.44,28.44
					c-1.18,0.45-2.51,0.7-3.53,1.39c-61.83,42.34-65.06,35.68-80.58-30.79c-0.12-0.5-0.15-1.04-0.11-1.55
					c1.2-17.33-16.79-31.7-8.03-50.15c19.23-40.49,1.63-71.14-24.8-99.46c-1.39-1.49-1.83-3.62-1.21-5.55
					c9.55-29.95-1.39-46.46-33.3-49.23c-1.4-0.12-2.71-0.8-3.68-1.82c-11.3-11.87-23.88-5.97-36.58-1.32
					c-44.78,16.38-83.78,9.17-115.13-28.51c-0.15-0.19-0.3-0.39-0.43-0.59c-13.76-21.68-34.52-40.3-30.58-69.75
					c-4.59-37.69,4.26-72.26,23.96-104.32c0.19-0.32,0.42-0.62,0.67-0.89l8.14-8.98c0,0-0.23,0.88-0.24,0.87
					c24.41-17.1,29.86-48.33,50.3-68.38c1.31-1.29,3.22-1.74,5.02-1.38c36.4,7.18,67.9-15.95,102.84-17.84
					c0.75-0.04,1.49,0.11,2.21,0.35c13.59,4.55,37.67-8.93,37.82,17.15c0.11,19.4,11.93,20.51,23.11,28.65
					c28.98,21.09,55.22,15,82.19-0.46c1.48-0.85,3.26-0.98,4.84-0.34c21.52,8.7,42.87,14.94,67.39,13.58
					c28.85-1.59,29-21.4,30.38-39.66c2.18-28.79-19.98-7.23-29.78-12.27c-4.96-2.55-12.39,0.28-18.36-0.98
					c-13.5-2.87-23.33-10.84-25.04-25.14c-1.67-14,11.62-15.32,19.94-18.93c20.38-8.85,41.84-10.83,63.73-5.09
					c7.28,1.91,16.69,5.28,20.65-3.31c5.13-11.12-7.12-14.03-12.89-19.81c-12.12-12.14-33.15-4.29-42.43-13.14
					c-38.57-36.83-34.32,6.16-43.56,22.04c-3.75,6.44,3.52,21.21-10.84,19.46c-31.7-3.87-22.63,16.38-22.62,31.29
					c0,3.3-3,5.96-6.26,5.43c-13.87-2.23-13.17-20.71-23.4-26.99c-1.46-0.9-2.36-2.44-2.57-4.14c-3.3-25.94-25.27-30.99-44.07-41.13
					c-4.05-2.19-8.78,1.19-8.1,5.75c0.84,5.66,0.39,10.83-2.16,15.62c-1.91,3.59-7.08,4-9.4,0.66
					c-14.39-20.73-34.55-17.85-56.22-8.79c-0.44,0.18-0.92,0.3-1.39,0.36c-20.43,2.24-34.89,17.13-41.39,32.32
					c-11.51,26.89-31.34,33.2-55.74,35.33c-0.98,0.09-2.01-0.09-2.91-0.5c-25.79-12.02-17.03-32.79-13.63-53.54
					c4.08-24.92,21.87-14.99,35.38-16.24c9.69-0.9,20.47,2.85,26.58-9.28c6.16-12.23,4.03-23.38-6.44-30.39
					c-23.77-15.91,5.9-11.51,7.5-17.4c0.48-1.76,2.24-2.84,3.99-3.33c16.54-4.53,30.87-12.51,42.05-25.43
					c6.39-4.34,16.05-10.91,22.44-15.25c2.8-0.97,5.6-1.93,8.4-2.9l2.84,0.03l2.3-1.67c6.71-1.83,5.53-4.76,2.76-7.9
					c-0.92-1.04-1.43-2.38-1.43-3.78c0-1.88-0.03-3.76,0.05-5.62c0.24-5.76,8.03-7.25,10.56-2.07
					c12.87,26.26,38.25,18.24,62.82,12.59c25.24-5.81,27.74-37.6,22.99-43.8c-11.7-15.27-11.79-29.94-10.1-45.44
					c0.54-4.99-5.3-8.08-9.12-4.81c-12.67,10.82-25.14,21.02-13.97,44.35c3.65,7.63-3.16,28.27-18.16,34.12
					c-15.45,6.02-13.41-11.1-19.79-17.29c-4.75-4.61-9.7-11.3-16.89-5.37c-7.59-0.22-14.27-0.41-21.86-0.62l-0.73-0.6
					c-0.99-0.81-1.71-1.94-1.96-3.19c-3.87-19.19,6.05-31.78,20.97-41.98c0.47-0.32,1-0.56,1.54-0.71
					c9.99-2.93,17.84-9.71,21.76-18.46c19.28-42.98,51.69-47.36,90.73-34.18c1.14,0.38,2.25,1.01,2.95,1.98
					c8.39,11.65,52.32-1.76,25.38,36.02c-2.63,3.69,9.6,7.68,14.62,4.05c6.96-5.03,12.17-12.49,18.13-18.91
					c0.01,0-0.79,0.2-0.79,0.2c3-0.3,6.01-0.61,9.01-0.91c1.28-0.13,2.47-0.7,3.38-1.61c1.99-2,3.98-4,5.97-5.99
					c0.61-0.61,1.36-1.08,2.18-1.35c6.7-2.23,13.39-4.46,20.09-6.7c0.39-0.13,0.79-0.24,1.2-0.28c13.87-1.68,31.94,20.31,42.71,1.2
					c6.76-1.71,10.13-2.56,16.88-4.26c21.38,14.49,42.77,28.97,64.15,43.46c23.57,24.43,60.31,62.48,83.88,86.91
					c15.17,24.2,30.34,48.39,45.51,72.59c0.17,0.28,0.32,0.57,0.45,0.87C1887.8,499.81,1906.21,549.99,1915.37,603.06z
					 M1738.34,545.47c-0.06-0.61-0.2-1.23-0.48-1.78c-1.21-2.45-3.69-5.94-2.98-8.55c7.03-25.74-25.58-33.31-24.96-54.16
					c0.33-11.33,9.58-24.2-10.91-21.06c-12.09,1.85-20.76,12.94-14.62,25.7c10.2,21.19,23.01,40.91,27.9,64.65
					c1.09,5.3,9.71,12.29,18.4,10.37C1737.98,559.03,1739.05,552.95,1738.34,545.47z"/>
			</g>
			<path fill="#B2DA89" d="M1054.63,1023.71c-30.31-35.68-57.85-73.32-80.87-114.16c-11.55-31.46-30.3-60.51-34.6-100.84
				c27.64,26.43,51.23,48.99,74.82,71.55c4.21,12.19,8.33,24.48,23.99,26.2c4.44,2.11,8.88,4.21,13.32,6.31
				c0-0.01,0.86-0.71,0.86-0.71c3.41,12.83,16.13,9.87,24.28,14.66c18.23,10.69,42.2,19.13,42.7,43.97
				c0.64,31.84,18.41,54.05,34.5,77.93c-3.32,19.68,6.05,32.7,20.26,45.38c7.69,6.86,28.15,13.37,10.79,30.64
				c-28.33-20.2-56.67-40.4-85-60.6C1087.55,1047.37,1072.41,1034.06,1054.63,1023.71z"/>
			<path fill="#B2DA89" d="M1580.53,1064.15c18.09-21.99,25.32-55.53,64.24-58.43c-6.21,25.06-29.02,37.15-39.86,57.11
				c-2.3,2.21-4.59,4.43-6.88,6.64c-2.12,1.45-4.25,2.89-6.37,4.34C1585.7,1073.17,1582.3,1069.6,1580.53,1064.15z"/>
		</g>
	</g>
	<path fill="#2B3333" d="M1164.53,880.01c-27.34,0-50.48-26.31-51.52-27.52c-3.1-3.57-2.71-8.98,0.86-12.07
		c3.57-3.1,8.97-2.72,12.07,0.86c6.05,6.93,25.48,24.22,42.68,21.27c11.94-2.05,22.14-13.54,30.3-34.15
		c1.74-4.39,6.71-6.55,11.11-4.81c4.4,1.74,6.55,6.71,4.81,11.11c-10.53,26.58-25.12,41.62-43.38,44.73
		C1169.12,879.82,1166.81,880.01,1164.53,880.01z"/>
	<path fill="#906556" d="M599.05,1398.78c-0.51-0.58-1.01-1.16-1.52-1.74c0.56,0.52,1.12,1.05,1.69,1.57
		C599.22,1398.6,599.05,1398.78,599.05,1398.78z"/>
	<path fill="#623C30" d="M533.59,1410.2c-1.36,0.97-2.73,1.95-4.09,2.92c-1.06-4.63,2.76-1.93,4.2-2.79
		C533.7,1410.33,533.59,1410.2,533.59,1410.2z"/>
	<path fill="#623C30" d="M529.98,1445.18c-0.68,0.52-1.36,1.04-2.04,1.56c0.52-0.68,1.05-1.35,1.57-2.03
		C529.51,1444.71,529.98,1445.18,529.98,1445.18z"/>
	<g>
		<path fill="#8AC251" d="M685.96,496.84c-14.56,20.46-36.11,30.11-48.15,21.54c-12.04-8.56-9.99-32.09,4.56-52.55
			c14.56-20.46,36.11-30.11,48.15-21.54C702.56,452.85,700.51,476.38,685.96,496.84z"/>
		<path fill="#623C30" d="M311.45,319.88c24.84,47.08,59.11,86.13,101.21,118.45c3.34,2.57,6.82,7.37,11.52,5.12
			c4.92-2.35,2.44-7.92,2.36-12.03c-1.46-73.53-7.58-146.69-18.2-219.46c0.51-1.28,0.39-2.51-0.35-3.67
			c-0.24-2.24-0.48-4.48-0.71-6.72c11.65-20.1-0.39-35.38-10.4-51.08c-5.06-25.74-10.11-51.49-15.17-77.23
			c6.59-6.77,7.3,3.25,11.27,3.95c17.33,50.3,27.08,102.52,38.55,158.33c43.32-47.72,50.83-102.77,50.19-165.26
			c9.09,13.08,9.62,23.25,9.11,32.89c-2.88,54.57-7.65,108.73-51.07,149.39c-6.02,5.64-3.96,11.63-3.24,17.74
			c2.41,20.38,5.09,40.73,7.67,61.08c2.26,19.09,4.52,38.19,6.78,57.28c1.71,48,3.53,95.99,5.03,143.99
			c0.28,8.82,1.1,13.8,11.78,8.19c46.2-24.27,76.07-63.54,100.62-107.89c2.05-3.71,2.48-6.78-0.46-10.41
			c-34.58-42.77-39.44-94.67-44.36-146.4c-1.17-12.26-0.17-24.74,1.95-37.41c12.01,57.4,15.7,117.16,54.6,169.6
			c19.51-51.97,29.61-101.53,28.75-153.22c-0.07-15.86-0.13-31.72-0.2-47.58c-1.62-21.91-3.23-43.81-4.85-65.72
			c4.24,0.41,8.47,0.81,12.71,1.22c12.41,63.73,17.75,127.78,8.36,192.45c-1.1,7.57-2.32,15.13-3.49,22.69
			c-6.14,7.08-12.85,13.75-18.29,21.33c-9.75,13.56-4.59,100.24-134.95,196.71c-7.94,4.53-12.15,9.61-12.25,19.44
			c-2.3,220.58-21.94,338.37-14.94,559.25c3.77,119,13.31,152.48,45.7,267.52c2.07,7.36,4.38,14.65,6.57,21.97
			c3.13,8.5-6.96,22.02,8.21,25.63c13.33,3.17,23.91,10.35,34.68,18.11c-12,6.01-23.77-6.51-37.36-0.05
			c7.2,6.8,16.2,10.1,19.67,19.34c-2.05,0.3-3.85,0.39-5.56,0.84c-16.45,4.27-23.09-16.6-38.49-14.97
			c-0.56-0.52-1.12-1.05-1.69-1.57c0.51,0.58,1.01,1.16,1.52,1.74c3.4,12.08,17.37,18.57,18.08,33.9
			c-11.27-1.82-14.5-13.44-23.33-15.99c-5.1,3.02,0.33,9.88-5.05,12.69c-1.43-5.07-3.42-9.87-4.07-14.84
			c-1.55-11.98-9.88-20.91-19.73-18.35c-10.86,2.82-17.5,13.72-12.26,27.35c2.58,6.72,6.29,13.71,2.26,22.23
			c-2.9-6.52-5.49-12.34-8.42-18.9c-6.75,6.89-8.81,15.19-16.54,18.3l-0.48-0.48c-2.68-11.98,15.49-21.49,4.08-34.51l0.11,0.14
			c-4.96-16.33-17.2-5.22-20.45-2.19c-10.89,10.17-21.51,13.41-34.79,7.43c0.23-17.75,15.3-17.36,26.5-21.93
			c4.59-1.88,11.02-4.28,8.04-10.58c-3.05-6.45-8.67-2.22-13.19-0.34c-8.51,3.55-14.62,14.22-28.94,8.92
			c13.21-13.21,29.15-21.33,36.26-37.38c14.91-7.69,15.66-22.69,17.71-36.32c5.95-39.52,5.46-79.4,2.86-119.09
			c-11.58-176.92-11.38-167.25-0.53-344.13c5.69-92.79,14.14-185.41,20.25-278.18c3.71-56.31,5.21-112.76,5.12-169.23
			c-0.01-8.68-2.56-14.1-9.83-18.84c-44.94-29.28-79.42-68.67-106.98-114.14c-6.57-10.84-13.72-14.8-26.13-14.04
			c-25.49,1.56-49.45-18.26-72.06-14.22c-24.71,4.41-48.1,9.5-73.27,3.71c19.77-3.01,40.78,0.45,63.11-12.12
			c-30.4-16.58-55.98-35.53-77.37-62.34c11.09-2.62,14.35,5.09,19.07,9.09c37.67,31.92,80.26,52.34,129.84,57.52
			c13.29,1.39,18.05-0.09,10.6-14.35c-15.74-30.14-28.23-61.73-38.45-94.19c3.34-5.88,6.68-11.76,10.81-19.05
			c6.77,14.82,12.8,28.02,18.83,41.22c4.79,16.15,12.85,30.77,21.14,45.29C298.38,305.71,301.64,314.74,311.45,319.88z"/>
		<path fill="#906556" d="M382.31,1448.97c-7.11,16.06-23.06,24.17-36.26,37.38c14.32,5.3,20.43-5.36,28.94-8.92
			c4.52-1.89,10.14-6.11,13.19,0.34c2.98,6.3-3.45,8.7-8.04,10.58c-11.19,4.57-26.26,4.18-26.5,21.93
			c13.28,5.98,23.9,2.74,34.79-7.43c3.25-3.03,15.5-14.15,20.45,2.18c-1.45,0.86-5.26-1.85-4.2,2.79c1.36-0.97,2.73-1.95,4.09-2.92
			c11.41,13.01-6.76,22.53-4.08,34.51c-0.52,0.68-1.04,1.36-1.57,2.03c0.68-0.52,1.36-1.04,2.04-1.56
			c7.73-3.12,9.79-11.41,16.54-18.3c2.92,6.56,5.51,12.38,8.42,18.9c4.03-8.52,0.32-15.51-2.26-22.23
			c-5.24-13.64,1.4-24.54,12.26-27.35c9.85-2.55,18.17,6.38,19.73,18.35c0.65,4.97,2.63,9.77,4.07,14.84
			c5.38-2.82-0.05-9.67,5.05-12.69c8.83,2.54,12.06,14.17,23.33,15.99c-0.71-15.33-14.68-21.83-18.08-33.9l0.17-0.18
			c15.4-1.63,22.04,19.25,38.49,14.98c1.71-0.44,3.51-0.54,5.56-0.84c-3.47-9.24-12.46-12.54-19.67-19.34
			c13.59-6.46,25.36,6.06,37.36,0.05c-10.77-7.76-21.35-14.94-34.68-18.11c-15.16-3.61-5.08-17.12-8.21-25.63
			c27.03,2.56,50.91-8.42,75.15,3.87c30.09,15.26,115.15,69.04,99,99c-22.23,41.26-136.22,45.25-180.04,58.1
			c-57.21,16.77-110.24,5.97-158-29.64c-12.98-9.68-128.21-9.53-135.45-24.15c-10.95-22.12,96.57-52.94,114.36-69.93
			C328.89,1461.95,354.23,1452.17,382.31,1448.97z"/>
		<path fill="#8AC251" d="M392.99,77.21c-3.97-0.7-4.68-10.72-11.27-3.95c-30.67,1.04-52.75-12.29-65.85-39.95
			c-4.23-8.93-6.34-18.67,1.34-26.96c7.71-8.32,17.33-6.53,26.77-3.26c13.62,4.73,24.28,13.71,34.54,26.21
			c4.34-6.96,7.35-13.04,11.53-18.16C395.34,4.66,401.61-1.56,411.2,1c9.58,2.56,11.86,10.96,13.21,19.32
			C428.5,45.8,416.94,66.52,392.99,77.21z"/>
		<path fill="#8AC251" d="M311.45,319.88c-9.81-5.14-13.07-14.16-14.42-24.32c6.57-23.05,15.21-44.89,35.87-59.37
			c7.97-5.59,16.41-10.87,26.46-5.02c9.56,5.56,8.17,15.17,7.6,24.01C364.99,286.11,339.58,315.56,311.45,319.88z"/>
		<path fill="#8AC251" d="M586.69,417.53c-12.88-9.23-14.84-20.14-5.1-33.71c5.45-7.58,12.15-14.25,18.29-21.33
			c14.32-2.49,26-13.29,41.23-12.99c7.67,0.15,15.67-0.35,20.74,6.79c5.61,7.89,3.3,16.29-1.44,23.25
			C642.82,405.4,619.42,420.69,586.69,417.53z"/>
		<path fill="#8AC251" d="M396.89,150.49c10,15.7,22.05,30.98,10.4,51.08c-17.56-2.14-35.56-1.33-51.37-12.14
			c-19.37-13.25-29.49-31.99-22.25-44.05c6.79-11.31,27.05-11.96,47.8-1.8C386.51,146.05,390.41,151.19,396.89,150.49z"/>
		<path fill="#8AC251" d="M608.67,207.54c0.07,15.86,0.13,31.72,0.2,47.58c-29.21-0.07-54.89-18.44-61.94-44.3
			c-4.75-17.43,3.28-27.32,21.15-26.4C585.56,185.32,596.32,197.77,608.67,207.54z"/>
		<path fill="#623C30" d="M228.3,168.93c3.47-3.74,2.82-11.67,10.9-10.72c5.53,15.32,11.06,30.64,16.59,45.96
			c-7.81-6.28-15.62-12.56-23.44-18.83C231,179.86,229.65,174.39,228.3,168.93z"/>
		<path fill="#8AC251" d="M408,208.29c0.74,1.17,0.85,2.4,0.35,3.67c-0.34-0.83-0.77-1.63-0.96-2.48
			C407.31,209.15,407.77,208.69,408,208.29z"/>
		<path fill="#623C30" d="M195.44,571.66c0,0,36.12,270.88,216.71,270.88c-6.02,90.29,12.04,78.26,12.04,78.26
			S183.4,782.34,195.44,571.66z"/>
		<path fill="#623C30" d="M243.6,589.71c0,0,0.89,105.1-32.66,82.65c17.17,39.37,14.6,37.75,14.6,37.75S261.66,686.03,243.6,589.71z"/>
		<path fill="#623C30" d="M529.65,509.9c0,0,81.79,12.91,133.44-12.91c-90.39,77.48-176.48,43.04-176.48,43.04L529.65,509.9z"/>
		<path fill="#8AC251" d="M180.61,529.3c19.98,19.98,26.65,45.71,14.9,57.46c-11.75,11.75-37.48,5.08-57.46-14.9
			c-19.98-19.98-26.65-45.71-14.9-57.46C134.9,502.65,160.63,509.32,180.61,529.3z"/>
		<path fill="#8AC251" d="M132.45,216.28c19.98,19.98,26.65,45.71,14.9,57.46c-11.75,11.75-37.48,5.08-57.46-14.9
			s-26.65-45.71-14.9-57.46C86.74,189.63,112.47,196.3,132.45,216.28z"/>
		<path fill="#8AC251" d="M246.82,174.15c19.98,19.98,26.65,45.71,14.9,57.46c-11.75,11.75-37.48,5.08-57.46-14.9
			s-26.65-45.71-14.9-57.46C201.11,147.49,226.84,154.16,246.82,174.15z"/>
		<path fill="#8AC251" d="M120.63,329.19c19.91-5.54,38.69-0.55,41.95,11.17c3.26,11.71-10.23,25.7-30.14,31.24
			s-38.69,0.55-41.95-11.17C87.23,348.72,100.72,334.73,120.63,329.19z"/>
		<path fill="#8AC251" d="M279.5,155.72c3.37,28.06-7.28,52.41-23.79,54.39c-16.5,1.98-32.61-19.16-35.98-47.22
			c-3.37-28.06,7.28-52.41,23.79-54.39C260.03,106.53,276.14,127.67,279.5,155.72z"/>
		<path fill="#8AC251" d="M284.49,577.22c-8.06,27.09-27.5,45.2-43.44,40.46c-15.93-4.74-22.32-30.54-14.26-57.62
			c8.05-27.09,27.5-45.2,43.43-40.46C286.16,524.34,292.54,550.14,284.49,577.22z"/>
		<path fill="#8AC251" d="M531.29,59.54c-8.06,27.09-27.5,45.2-43.44,40.46c-15.93-4.74-22.32-30.54-14.26-57.62
			c8.05-27.09,27.5-45.2,43.43-40.46C532.96,6.65,539.35,32.45,531.29,59.54z"/>
		
			<ellipse transform="matrix(0.1726 -0.985 0.985 0.1726 400.8795 699.5309)" fill="#8AC251" cx="616.82" cy="111.15" rx="45.47" ry="26.75"/>
		<path fill="#8AC251" d="M434.05,668.35c-2.14,1.25-4.28,2.5-6.42,3.75c-16.52,4.91-31.76,1.27-45.76-7.77
			c-6.95-4.49-14.53-10.21-11.27-19.99c2.98-8.93,11.9-8.41,19.54-8.65c4.4-0.14,8.83,0.46,13.54,0.75c0.54-11.44-2.5-22.35,1.12-33
			c2.28-6.7,4.11-14.05,12.46-15.5c9.18-1.6,14.33,4.74,18.17,11.48C448.6,622.55,447.68,645.64,434.05,668.35z"/>
	</g>
	<g>
		<path fill="#E65A5A" d="M844.51,1207.75l107.44,195.86c5.5,10.03,1.11,22.54-9.82,27.93l-104.5,51.59
			c-70.63,34.87-156.69,9.28-190.22-56.55l0,0c-31.71-62.27-4.72-138.06,61.36-172.31l105.58-54.72
			C825.32,1193.87,838.93,1197.57,844.51,1207.75z"/>
		<path fill="#C44042" d="M842.17,1295.53l-74.16,60.21c-10.33,9.73-0.31,25.68,13.49,21.48l85.03-25.89l499.67-254.34l-24.25-48.49
			L842.17,1295.53z"/>
		<path fill="#F9AF3B" d="M1411.11,944.59c0,0-115.35,12.01-84.69,100.49c-31.06,23.23-31.06,23.23-31.06,23.23l34.57,61.33
			l35.45-15.21c0,0,51.88,75.84,137.09-21.81C1424.03,951.07,1411.11,944.59,1411.11,944.59z M1384.17,985.27l73.09,108.03
			C1385.48,1122.59,1340.07,1037.56,1384.17,985.27z"/>
		<g>
			<path fill="#906556" d="M568.75,1356.81c-2.62-23.28,7.47-46.17,26.41-59.96c12.25-8.92,24.2-16.12,27.69-16.03
				c64.91,1.72,62.08,73.04,103.16,125.33c22.87,29.11,16.9,71.39-13.12,93.05l0,0c-28.61,20.64-68.44,14.76-89.86-13.27
				l-35.65-46.64c-7.17-9.38-11.66-20.54-12.98-32.28L568.75,1356.81z"/>
			<path fill="#906556" d="M737.3,1346.12l20.92,4.66c4.07,0.91,6.28,5.34,4.53,9.14l-2.84,6.2c-1.63,3.55-5.99,4.9-9.34,2.89
				l-18.07-10.86c-5.01-3.01-3.88-10.57,1.79-11.98l0,0C735.27,1345.92,736.3,1345.9,737.3,1346.12z"/>
			<path fill="#906556" d="M779.59,1420.84c2.32,9.31-3.34,18.75-12.66,21.07c-9.31,2.32-18.75-3.34-21.07-12.66
				c-2.32-9.31,3.34-18.75,12.66-21.07C767.83,1405.86,777.26,1411.52,779.59,1420.84z"/>
		</g>
	</g>
	<path fill="#2B3333" d="M1412.07,1047.91c-3.67,0-7.06-2.37-8.18-6.06c-1.38-4.52,1.16-9.31,5.69-10.68
		c120.49-36.78,183.53-80.74,187.37-130.65c6.2-80.52-144.03-154.04-145.55-154.77c-4.26-2.06-6.04-7.17-3.99-11.43
		c2.05-4.26,7.16-6.04,11.43-3.99c6.63,3.2,162.25,79.36,155.18,171.48c-4.42,57.65-71.52,106.68-199.44,145.73
		C1413.74,1047.79,1412.9,1047.91,1412.07,1047.91z"/>
	<path fill="#2B3333" d="M1646.67,1570.9h-65.37c-4.73,0-8.56-3.83-8.56-8.56c0-4.73,3.83-8.56,8.56-8.56h47.27
		c-112.84-141.61-105.6-263.8-78.77-342.33c29.99-87.79,88.76-139.79,91.25-141.96c3.55-3.1,8.95-2.74,12.07,0.82
		c3.11,3.56,2.75,8.96-0.81,12.07c-0.58,0.51-58.18,51.61-86.54,135.28c-37.88,111.71-8.46,225.82,87.44,339.15
		c2.15,2.54,2.63,6.1,1.23,9.13C1653.03,1568.97,1650,1570.9,1646.67,1570.9z"/>
	<path fill="#2B3333" d="M1039.73,753.05c-2.19,0-4.38-0.84-6.05-2.51c-41.55-41.56-28.71-104.2-28.14-106.85
		c0.99-4.62,5.53-7.57,10.16-6.57c4.62,0.99,7.56,5.53,6.58,10.15c-0.16,0.75-11.32,56.34,23.51,91.17c3.34,3.34,3.34,8.76,0,12.1
		C1044.11,752.21,1041.92,753.05,1039.73,753.05z"/>
	<path fill="#2B3333" d="M1216.22,710c-2.19,0-4.38-0.84-6.05-2.51c-41.55-41.55-28.71-104.2-28.14-106.85
		c0.99-4.62,5.53-7.55,10.16-6.57c4.62,0.99,7.56,5.53,6.58,10.15c-0.16,0.75-11.32,56.34,23.51,91.17c3.34,3.34,3.34,8.76,0,12.1
		C1220.6,709.17,1218.41,710,1216.22,710z"/>
	<path fill="#8AC251" d="M1306.31,1421.54c0,0,8.6-33.62,59.12-60.93c-21.05,37.05-10.04,60.81-10.04,60.81s3.73-18.89,16.9-35.91
		c13.17-17.02-16.9,35.91,12.57,45.65c29.47,9.74-14.61,44.21-22.91,46.49c-8.3,2.29-77.11-36.81-77.11-36.81L1306.31,1421.54z"/>
	<path fill="#8AC251" d="M72.51,1562.46c0,0-10-33.23,19.15-82.71c1.11,42.6,22.81,57.25,22.81,57.25s-6.56-18.1-4.08-39.48
		c2.49-21.38,4.08,39.48,34.35,32.59c30.27-6.88,10.32,45.4,4.4,51.65c-5.93,6.24-85.04,8.31-85.04,8.31L72.51,1562.46z"/>
</g>
</svg>
