<svg width="136" height="122" viewBox="0 0 136 122" fill="none" xmlns="http://www.w3.org/2000/svg">
<path d="M84.3212 122H77.2404C76.7301 122 76.3154 121.592 76.3154 121.09C76.3154 120.588 76.7301 120.181 77.2404 120.181H82.3628C70.1404 105.091 70.925 92.0724 73.8275 83.7027C77.0745 74.348 83.4409 68.8079 83.7152 68.5758C84.098 68.2433 84.6848 68.2809 85.0229 68.6636C85.361 69.0401 85.3228 69.6173 84.9336 69.9498C84.8698 70.0063 78.631 75.4522 75.5563 84.3678C71.4545 96.2698 74.6377 108.429 85.0293 120.507C85.2653 120.777 85.3164 121.159 85.1633 121.479C85.0102 121.793 84.6785 122 84.3212 122Z" fill="#2B3333"/>
<path d="M51.2489 122H44.1681C43.6577 122 43.2431 121.592 43.2431 121.09C43.2431 120.588 43.6577 120.181 44.1681 120.181H49.2905C37.0681 105.091 37.8527 92.0724 40.7552 83.7027C44.0022 74.348 50.3686 68.8079 50.6429 68.5758C51.0256 68.2433 51.6125 68.2809 51.9506 68.6636C52.2887 69.0401 52.2504 69.6173 51.8613 69.9498C51.7975 70.0063 45.5587 75.4522 42.484 84.3678C38.3822 96.2698 41.5654 108.429 51.957 120.507C52.193 120.777 52.244 121.159 52.0909 121.479C51.9378 121.793 51.6061 122 51.2489 122Z" fill="#2B3333"/>
<path d="M23.221 45.2224C23.0109 45.2224 22.8007 45.1173 22.6431 44.9598C13.1341 33.9825 9.50907 24.8434 11.8732 17.7528C14.6576 9.40165 24.6395 7.19568 25.0598 7.09064C25.4801 6.98559 25.9004 7.24821 25.9529 7.66839C26.058 8.08858 25.7953 8.50876 25.375 8.56128C25.2699 8.56128 15.8134 10.7147 13.2917 18.2255C11.0852 24.7909 14.6051 33.4572 23.7464 43.9618C24.0091 44.277 24.0091 44.7497 23.6939 45.0648C23.5363 45.1699 23.3786 45.2224 23.221 45.2224Z" fill="#2B3333"/>
<path d="M95.3257 77.3769C113.031 59.6756 113.031 30.9761 95.3257 13.2748C77.62 -4.42644 48.9133 -4.42644 31.2076 13.2748C13.5018 30.9761 13.5018 59.6756 31.2076 77.3769C48.9133 95.0782 77.62 95.0782 95.3257 77.3769Z" fill="#35B9D0"/>
<path d="M43.6576 9.34912C43.5 9.45416 43.2899 9.61173 43.1323 9.71678C41.4511 9.82183 40.9257 12.1854 38.9819 11.7652C38.9294 11.5551 38.9294 11.2925 38.8768 11.0824C39.7174 10.1895 39.9276 9.03398 40.0326 7.87847C42.3442 5.98764 45.654 6.04016 47.808 3.88672C51.5906 2.2585 55.3207 0.315147 59.6287 0.840377C60.1015 1.10299 60.3116 1.5757 59.7863 1.83832C56.6866 3.20392 54.1649 5.61998 50.75 6.40782C48.2808 6.93305 45.8116 7.7209 43.6576 9.34912Z" fill="#B2DA89"/>
<path d="M28.107 20.8517C27.6867 20.8517 27.3189 20.8517 26.8986 20.8517C27.1088 17.8579 29.578 16.5448 31.4693 14.2338C32.7301 18.278 29.4204 18.9608 28.107 20.8517Z" fill="#B2DA89"/>
<path d="M108.54 41.3357C108.803 45.9577 108.435 50.4747 107.489 54.9917V55.0442C106.596 54.3614 107.121 53.3635 107.069 52.4706C107.069 51.9979 106.439 51.7878 106.176 52.208C104.547 54.7291 103.234 57.3027 102.393 60.1389C102.288 60.4541 101.973 60.6117 101.658 60.4541L101.448 60.349C101.237 60.244 101.132 60.0339 101.185 59.8238C102.025 55.6745 102.393 51.5777 99.8715 47.7435C99.6088 46.7981 98.9784 47.0607 98.4005 47.2708C98.3479 47.3233 98.2429 47.3233 98.1378 47.2708C97.77 47.2183 97.4023 47.1657 97.0345 47.1132C96.982 47.1132 96.8769 47.0607 96.8244 47.0082C95.1958 45.7476 93.1468 45.0648 91.5182 43.7517C91.203 43.4891 90.6776 43.7517 90.7302 44.1719C90.9403 46.1153 90.7827 48.3738 94.5653 47.1657C94.7229 47.1132 95.0907 47.691 95.4059 48.0061C95.4584 48.0586 95.4584 48.0586 95.4584 48.1112C96.6142 50.2121 95.5635 51.3676 94.4077 52.4706C92.9367 53.4685 91.5182 54.4139 90.0472 55.4119C89.2592 55.7795 88.4711 56.1472 87.6831 56.5149C87.0526 56.6724 86.4222 56.83 85.8443 56.935C85.5291 56.935 85.3189 56.6724 85.3189 56.3573C85.9494 51.8928 83.27 48.3213 81.799 44.4345C81.5889 43.8568 81.0635 43.5417 80.4331 43.6992C80.2229 43.7517 79.9602 44.382 80.0653 44.5396C82.6396 48.2162 81.7465 53.3635 85.1088 56.6724C85.2139 56.7775 85.2664 56.9876 85.2664 57.1451C85.1088 57.6704 84.8987 58.2481 85.8968 58.3532C86.895 58.3006 87.8932 58.2481 89.049 58.1431C89.4168 58.1431 89.6794 58.5107 89.5218 58.8259C88.366 61.5045 86.6849 63.4479 84.3208 64.9185C81.3262 66.8619 78.5943 68.9628 78.3842 73.1121C78.2791 74.9505 77.1758 76.4211 75.0744 76.9989C73.761 77.3665 72.8153 78.2594 72.7102 79.7301C72.7102 79.8876 72.6052 80.0452 72.4476 80.1502C71.3968 80.7805 70.2936 81.3058 69.7682 82.5138C69.6631 82.5663 69.5581 82.5663 69.453 82.6188C63.674 86.0328 63.4639 85.4026 62.4657 79.3624C62.4657 79.3099 62.4657 79.2574 62.4657 79.2048C62.6758 77.6817 61.1523 76.2635 62.0454 74.6878C63.9892 71.2213 62.6233 68.3851 60.4693 65.7064C60.3642 65.5488 60.3117 65.3913 60.4167 65.1812C61.4675 62.555 60.5744 61.0318 57.7374 60.6117C57.6323 60.6117 57.5273 60.5066 57.4222 60.4016C56.4765 59.2986 55.3207 59.7188 54.1649 60.0864C50.0671 61.2945 46.6522 60.4016 44.078 56.83C44.078 56.83 44.078 56.7775 44.0254 56.7775C42.9222 54.7816 41.1885 52.9958 41.7138 50.3697C41.5562 47.0082 42.5544 43.9618 44.4983 41.2306C44.4983 41.1781 44.5508 41.1781 44.5508 41.1781L45.3388 40.4428V40.4953C47.5979 39.1297 48.2809 36.3985 50.2247 34.7178C50.3298 34.6127 50.5399 34.5602 50.6975 34.6127C53.9023 35.4531 56.8443 33.6148 59.9439 33.6673C59.9965 33.6673 60.1015 33.6673 60.1541 33.7198C61.3624 34.1925 63.5689 33.1421 63.4113 35.4531C63.3062 37.1864 64.357 37.3439 65.3026 38.1318C67.7718 40.1802 70.136 39.8125 72.6052 38.6045C72.7628 38.552 72.9204 38.552 73.0255 38.6045C74.8642 39.4974 76.7555 40.1802 78.9621 40.2327C81.5363 40.2852 81.6939 38.4994 81.9041 36.8712C82.2718 34.2976 80.1704 36.0834 79.3298 35.6107C78.9095 35.3481 78.2265 35.5581 77.7012 35.4006C76.4928 35.0854 75.7048 34.2976 75.5997 33.037C75.5472 31.7765 76.703 31.724 77.491 31.4613C79.3823 30.7785 81.2736 30.7785 83.2175 31.4088C83.8479 31.6189 84.6885 31.9866 85.0563 31.2513C85.5816 30.3058 84.5309 29.9382 84.0055 29.4129C83.0073 28.2574 81.0635 28.8352 80.328 27.9948C77.1233 24.4758 77.2284 28.31 76.3352 29.6756C75.9675 30.2008 76.5454 31.5664 75.232 31.3563C72.4476 30.8311 73.1305 32.6694 73.0255 33.9825C73.0255 34.2976 72.7102 34.5077 72.4476 34.4026C71.2392 34.14 71.3968 32.4593 70.5037 31.8815C70.3986 31.7765 70.2936 31.6714 70.2936 31.5139C70.136 29.2029 68.2447 28.6251 66.616 27.5746C66.2483 27.3645 65.828 27.6272 65.8805 28.0473C65.9331 28.5726 65.828 28.9928 65.6178 29.4129C65.4077 29.7281 64.9874 29.7281 64.7773 29.4129C63.6215 27.4696 61.8352 27.6272 59.8389 28.31C59.7863 28.31 59.7338 28.31 59.7338 28.31C57.895 28.3625 56.5291 29.623 55.8461 30.9361C54.6378 33.2471 52.8515 33.7198 50.645 33.7198C50.5399 33.7198 50.4874 33.7198 50.3823 33.6673C48.1758 32.4593 49.0689 30.621 49.4892 28.8352C50.0146 26.6292 51.5381 27.6272 52.7465 27.6272C53.6396 27.6272 54.5327 27.9948 55.1631 26.9444C55.7936 25.8939 55.6885 24.896 54.7954 24.2132C52.799 22.6375 55.3733 23.2152 55.5834 22.69C55.636 22.5324 55.7936 22.4274 55.9512 22.4274C57.4747 22.1122 58.7881 21.482 59.8389 20.4315C60.4167 20.0638 61.3099 19.5386 61.9403 19.2235C62.203 19.1709 62.4657 19.0659 62.7283 19.0134H62.991L63.2012 18.8558C63.8316 18.7508 63.7265 18.4881 63.5164 18.173C63.4639 18.068 63.4113 17.9629 63.4113 17.8053C63.4113 17.6478 63.4113 17.4902 63.4639 17.2801C63.5164 16.7549 64.1994 16.7024 64.4095 17.1751C65.4077 19.5911 67.7193 19.0134 69.9258 18.6982C72.1849 18.3306 72.6052 15.5468 72.2374 14.9166C71.2918 13.4984 71.3443 12.1854 71.607 10.8198C71.712 10.3996 71.1867 10.0845 70.8189 10.3471C69.6106 11.24 68.4548 12.0803 69.2954 14.2338C69.5581 14.9166 68.8225 16.7549 67.4566 17.1751C66.0381 17.5953 66.3533 16.1246 65.7754 15.4943C65.3552 15.0741 64.9874 14.4439 64.3044 14.9166C63.6215 14.864 63.0436 14.8115 62.3606 14.7065L62.3081 14.654C62.203 14.6014 62.1504 14.4964 62.1504 14.3388C61.9403 12.6056 62.886 11.5551 64.2519 10.7147C64.3044 10.7147 64.357 10.6622 64.4095 10.6622C65.3026 10.4521 66.0381 9.92688 66.4584 9.13903C68.4548 5.40989 71.3443 5.25233 74.7592 6.67045C74.8642 6.72297 74.9693 6.7755 75.0218 6.88054C75.7048 7.98353 79.6976 7.03811 77.0707 10.242C76.8081 10.5572 77.8588 10.9773 78.3316 10.7147C78.9621 10.2945 79.4874 9.66426 80.0653 9.13903H80.0128C80.2755 9.13903 80.5381 9.13903 80.8008 9.08651C80.9059 9.08651 81.011 9.03399 81.116 8.98146C81.3262 8.8239 81.4838 8.66633 81.6939 8.50876C81.7465 8.45623 81.799 8.40371 81.9041 8.40371C82.5345 8.24614 83.1124 8.08857 83.7428 7.931C83.7954 7.931 83.7954 7.931 83.8479 7.931C85.1088 7.87848 86.5798 9.92688 87.6305 8.29866C88.261 8.19362 88.5237 8.1411 89.1541 8.03605C90.9929 9.45417 92.7791 10.8723 94.6179 12.2904C96.5617 14.6014 99.6088 18.2255 101.553 20.5365C102.761 22.795 103.969 25.0535 105.178 27.2595C105.178 27.2595 105.178 27.312 105.23 27.3645C106.701 31.9866 108.067 36.5561 108.54 41.3357ZM93.1468 35.138C93.1468 35.0854 93.1468 35.0329 93.0943 34.9804C92.9892 34.7703 92.7791 34.4552 92.8842 34.1925C93.6722 31.9341 90.8352 31.0937 90.9929 29.2029C91.0979 28.2049 91.9911 27.1019 90.1523 27.2595C89.049 27.3645 88.2084 28.31 88.6813 29.4655C89.4693 31.4088 90.4675 33.2471 90.7827 35.4006C90.8353 35.8733 91.5708 36.5561 92.3588 36.451C93.0418 36.346 93.1468 35.8208 93.1468 35.138Z" fill="#B2DA89"/>
<path d="M29.3678 73.5323C26.8986 70.1708 24.6395 66.6518 22.8533 62.8701C22.0127 59.9814 20.5417 57.3027 20.3841 53.6786C22.6957 56.1997 24.6395 58.3531 26.5834 60.5066C26.8986 61.6096 27.1613 62.7126 28.5798 62.9752C28.9475 63.1853 29.3678 63.3954 29.7355 63.6055L29.8406 63.5529C30.0508 64.7084 31.2066 64.5509 31.8895 65.0236C33.4656 66.074 35.5145 66.9669 35.4095 69.1729C35.2519 72.0091 36.7229 74.1101 37.9837 76.316C37.5635 78.0493 38.299 79.2573 39.5073 80.4654C40.1377 81.1482 41.924 81.831 40.2953 83.2491C37.8787 81.2532 35.5145 79.3099 33.0979 77.314C32.1522 75.8433 30.8913 74.5828 29.3678 73.5323Z" fill="#B2DA89"/>
<path d="M75.9149 80.3603C77.6486 78.522 78.4892 75.5807 82.0091 75.5282C81.3262 77.7342 79.2247 78.6796 78.1214 80.3603C77.9113 80.5179 77.7012 80.728 77.491 80.8856C77.2809 80.9906 77.0707 81.0956 76.9131 81.2532C76.3352 81.1482 76.0725 80.833 75.9149 80.3603Z" fill="#B2DA89"/>
<path d="M61.8877 45.2224C61.7827 45.2224 61.6776 45.2224 61.5725 45.1173C56.7392 42.7013 48.5961 43.9093 48.5435 43.9093C48.1232 43.9618 47.7555 43.6992 47.6504 43.279C47.5979 42.8588 47.8605 42.4912 48.2808 42.3861C48.6486 42.3336 57.0019 41.1256 62.2029 43.7517C62.5707 43.9618 62.7283 44.382 62.5707 44.8022C62.4131 45.0648 62.1504 45.2224 61.8877 45.2224Z" fill="#2B3333"/>
<path d="M45.3388 34.2976C45.0236 34.2976 44.7083 34.0875 44.6033 33.7723C42.9746 28.8877 46.1268 24.5808 46.2319 24.4232C46.4946 24.1081 46.9674 24.003 47.2826 24.2657C47.5978 24.5283 47.7029 25.001 47.4402 25.3161C47.3877 25.3686 44.6558 29.1503 46.0217 33.2471C46.1794 33.6673 45.9167 34.0875 45.5489 34.1925C45.4964 34.2976 45.4438 34.2976 45.3388 34.2976Z" fill="#2B3333"/>
<path d="M63.674 34.2976C63.3588 34.2976 63.0435 34.0875 62.9385 33.7723C61.3098 28.8877 64.462 24.5808 64.5671 24.4232C64.8298 24.1081 65.3026 24.003 65.6178 24.2657C65.933 24.5283 66.0381 25.001 65.7754 25.3161C65.7229 25.3686 62.991 29.1503 64.357 33.2471C64.5146 33.6673 64.2519 34.0875 63.8841 34.1925C63.8316 34.2976 63.7265 34.2976 63.674 34.2976Z" fill="#2B3333"/>
<path d="M90.8877 48.794C90.5725 48.794 90.3098 48.6364 90.2047 48.3213C90.0471 47.9536 90.2047 47.4809 90.625 47.3233C103.339 41.8609 110.063 35.348 110.694 27.9948C111.692 15.5468 94.7754 4.517 94.5652 4.41196C94.1975 4.20187 94.0924 3.72916 94.3551 3.3615C94.5652 2.99384 95.0381 2.88879 95.4058 3.1514C96.1413 3.62411 113.321 14.759 112.217 28.1524C111.587 36.1359 104.495 43.0689 91.2555 48.794C91.0978 48.794 90.9928 48.794 90.8877 48.794Z" fill="#2B3333"/>
</svg>
