<svg width="134" height="157" viewBox="0 0 134 157" fill="none" xmlns="http://www.w3.org/2000/svg">
<path d="M100.5 102.697C119.001 84.248 119.002 54.3357 100.5 35.8864C81.9984 17.4371 52.0015 17.4371 33.5 35.8864C14.9985 54.3357 14.9985 84.248 33.5 102.697C52.0015 121.147 81.9984 121.147 100.5 102.697Z" fill="#35B9D0"/>
<path d="M42.7576 34.1116C42.5873 34.2595 42.4115 34.4019 42.2413 34.5497C40.5277 34.8564 40.2201 37.3539 38.1715 37.1403C38.1111 36.8993 38.0561 36.6583 37.9957 36.4228C38.7976 35.3986 38.869 34.1883 38.8635 32.9615C41.044 30.7379 44.4821 30.4367 46.4978 27.9666C50.2546 25.8581 53.9069 23.4647 58.471 23.5195C58.9873 23.755 59.2619 24.2314 58.7237 24.5381C55.659 26.2907 53.2808 29.051 49.8207 30.2504C47.2832 31.1267 44.7787 32.2111 42.7576 34.1116Z" fill="#B2DA89"/>
<path d="M27.8131 47.7105C27.4012 47.7598 26.9838 47.8145 26.5719 47.8638C26.451 44.7147 28.8676 43.1319 30.6032 40.514C32.3553 44.523 28.9665 45.6238 27.8131 47.7105Z" fill="#B2DA89"/>
<path d="M113.658 60.3016C114.416 65.05 114.537 69.8203 114.037 74.6016L114.053 74.6454C113.059 74.0375 113.471 72.9531 113.367 72.0165C113.312 71.5072 112.614 71.3976 112.384 71.8577C110.978 74.629 109.879 77.4605 109.319 80.4891C109.258 80.8123 108.918 81.004 108.61 80.878L108.402 80.7904C108.193 80.7027 108.061 80.4891 108.083 80.2591C108.522 75.8558 108.44 71.5565 105.408 67.8596C105.013 66.9176 104.403 67.2298 103.805 67.5146C103.728 67.5529 103.64 67.5694 103.552 67.5639C103.167 67.542 102.783 67.5201 102.399 67.4982C102.316 67.4927 102.239 67.4653 102.168 67.427C100.333 66.3152 98.1475 65.8058 96.3241 64.6064C95.9396 64.3545 95.4453 64.694 95.5387 65.1431C95.9451 67.1531 96.044 69.4753 99.8721 67.8487C100.048 67.772 100.498 68.3306 100.839 68.6373C100.872 68.6647 100.899 68.6976 100.927 68.7359C102.327 70.7733 101.41 72.0987 100.311 73.3693C98.889 74.5523 97.4939 75.7134 96.0769 76.8963C95.3025 77.3564 94.5281 77.811 93.7537 78.271C93.1166 78.4901 92.5014 78.7037 91.8643 78.9228C91.5513 78.9666 91.2657 78.7146 91.2821 78.4025C91.4524 73.7034 88.3053 70.2858 86.3336 66.4192C86.0535 65.8661 85.4493 65.5649 84.8287 65.8168C84.631 65.8935 84.4223 66.5726 84.5321 66.704C87.5913 70.242 87.2233 75.6695 91.0679 78.7639C91.2107 78.879 91.2931 79.0652 91.2602 79.2459C91.1668 79.81 91.0185 80.4015 92.0401 80.407C93.0726 80.2372 94.0997 80.0674 95.308 79.8703C95.6925 79.81 96.011 80.177 95.8902 80.5439C94.951 83.4356 93.4132 85.6373 91.1393 87.4501C88.2174 89.7778 85.6086 92.2642 85.8393 96.58C85.9436 98.4968 84.933 100.167 82.824 100.989C81.5168 101.498 80.6271 102.544 80.682 104.072C80.6875 104.247 80.6161 104.417 80.4788 104.527C79.4572 105.277 78.3533 105.951 77.9194 107.265C77.8095 107.309 77.6887 107.336 77.5953 107.408C71.9712 111.548 71.6472 110.94 69.983 104.812C69.972 104.768 69.9665 104.713 69.9665 104.669C70.0214 103.054 68.2969 101.777 69.0548 100.036C70.7135 96.2075 68.9724 93.4199 66.4185 90.8731C66.2867 90.7417 66.2372 90.5445 66.2867 90.3583C67.0776 87.5432 66.0066 86.0426 63.0187 85.8893C62.8869 85.8838 62.7661 85.8235 62.6672 85.7304C61.5743 84.6625 60.4209 85.2539 59.251 85.7249C55.1318 87.3954 51.4684 86.8532 48.4257 83.4521C48.4092 83.4356 48.3982 83.4192 48.3818 83.3973C47.0252 81.4257 45.0315 79.7662 45.3006 77.0114C44.7514 73.5226 45.4599 70.2804 47.1899 67.2353C47.2064 67.2079 47.2284 67.175 47.2503 67.1476L47.9808 66.2878L47.9643 66.3699C50.1832 64.6995 50.5897 61.7804 52.4296 59.8471C52.5449 59.7211 52.7262 59.6773 52.8909 59.7047C56.3072 60.2524 59.1686 58.0014 62.4201 57.7111C62.4915 57.7056 62.5574 57.7166 62.6288 57.7385C63.9085 58.1164 66.1109 56.7855 66.2098 59.2063C66.2812 61.0081 67.3906 61.0739 68.4561 61.7913C71.2242 63.6589 73.6519 63.0072 76.1179 61.4792C76.2552 61.397 76.42 61.3751 76.5683 61.4299C78.6004 62.1692 80.6161 62.6786 82.8954 62.4705C85.5811 62.2295 85.5262 60.3838 85.5976 58.686C85.7075 56.0024 83.7083 58.0781 82.7801 57.6399C82.3077 57.4208 81.6267 57.7056 81.0665 57.6071C79.7977 57.3825 78.8531 56.676 78.6498 55.3506C78.4466 54.0526 79.6824 53.8883 80.4458 53.5268C82.3187 52.6396 84.3124 52.3822 86.372 52.8422C87.0586 52.9956 87.9428 53.2804 88.2888 52.4643C88.7282 51.4128 87.5803 51.1828 87.0201 50.668C85.8503 49.5781 83.917 50.3777 83.0217 49.5835C79.3034 46.2865 79.8417 50.2681 79.0343 51.7743C78.7048 52.3877 79.4298 53.735 78.0896 53.6199C75.1238 53.3625 76.0355 55.2137 76.0849 56.6048C76.0959 56.9115 75.8268 57.1689 75.5192 57.1306C74.2176 56.9663 74.223 55.2466 73.2509 54.6989C73.1136 54.6222 73.0257 54.4798 72.9983 54.321C72.6028 51.9221 70.5432 51.5223 68.7527 50.6406C68.3683 50.4489 67.9399 50.7775 68.0167 51.1992C68.1156 51.725 68.0881 52.2069 67.8685 52.656C67.7037 52.9956 67.2204 53.0504 66.9952 52.7491C65.5837 50.8706 63.7163 51.2047 61.7281 52.1138C61.6896 52.1303 61.6457 52.1467 61.6017 52.1522C59.7069 52.426 58.4052 53.8609 57.8505 55.2904C56.8674 57.8261 55.0384 58.4779 52.7701 58.7572C52.6767 58.7681 52.5834 58.7572 52.4955 58.7188C50.0514 57.6837 50.7984 55.7285 51.051 53.7843C51.3476 51.4566 53.0392 52.3165 54.297 52.1576C55.1977 52.0426 56.2138 52.3548 56.7465 51.2102C57.2793 50.0546 57.0431 49.0249 56.049 48.406C53.7807 47.004 56.5598 47.3161 56.6916 46.763C56.7301 46.5987 56.8893 46.4892 57.0541 46.4399C58.581 45.9634 59.8936 45.1747 60.8932 43.937C61.4754 43.5098 62.3542 42.869 62.9364 42.4473C63.1945 42.3487 63.4526 42.2501 63.7108 42.1515L63.9744 42.1461L64.1831 41.9817C64.8037 41.7901 64.6829 41.5217 64.4138 41.2369C64.3259 41.1438 64.271 41.0178 64.271 40.8919C64.2655 40.7166 64.2545 40.5413 64.26 40.3716C64.2655 39.8348 64.985 39.6705 65.2376 40.1415C66.5228 42.5404 68.8626 41.7134 71.1364 41.1055C73.4706 40.4811 73.5969 37.5182 73.1356 36.9595C71.9932 35.5794 71.9382 34.2157 72.0426 32.7698C72.0756 32.3042 71.5208 32.0359 71.1748 32.3535C70.0324 33.3996 68.901 34.3909 70.0159 36.5214C70.3839 37.2169 69.8127 39.1612 68.4342 39.7527C67.0117 40.3606 67.149 38.7669 66.5338 38.2082C66.078 37.7975 65.5946 37.1896 64.9411 37.7646C64.2325 37.7701 63.6119 37.7756 62.9034 37.7756L62.832 37.7208C62.7386 37.6496 62.6672 37.5455 62.6398 37.4305C62.2169 35.6615 63.1011 34.4566 64.4577 33.4599C64.5017 33.427 64.5511 33.4051 64.6005 33.3886C65.5232 33.0819 66.2317 32.4247 66.5668 31.6032C68.22 27.5449 71.2297 27.0301 74.9096 28.1309C75.0194 28.1638 75.1238 28.2186 75.1897 28.3062C76.008 29.3632 80.0614 27.9721 77.6722 31.5704C77.4415 31.9209 78.5894 32.255 79.0508 31.899C79.6824 31.406 80.1438 30.6995 80.6765 30.0807L80.6051 30.1026C80.8852 30.0642 81.1653 30.0259 81.4399 29.9876C81.5608 29.9711 81.6651 29.9164 81.7475 29.8287C81.9287 29.637 82.1045 29.4454 82.2858 29.2537C82.3407 29.1934 82.4066 29.1496 82.4835 29.1222C83.0986 28.8922 83.7192 28.6622 84.3344 28.4321C84.3728 28.4212 84.4058 28.4102 84.4442 28.3993C85.7294 28.1966 87.487 30.1847 88.4316 28.3719C89.0578 28.1912 89.3653 28.1035 89.9915 27.9228C92.0346 29.1989 94.0722 30.475 96.1154 31.7511C98.3947 33.9418 101.943 37.3593 104.222 39.5555C105.716 41.7572 107.21 43.9534 108.704 46.1551C108.72 46.1825 108.737 46.2044 108.748 46.2372C110.747 50.7939 112.625 55.3944 113.658 60.3016ZM96.9667 55.5259C96.9612 55.4711 96.9447 55.4109 96.9172 55.3616C96.7964 55.137 96.5548 54.8194 96.6097 54.5784C97.1809 52.1631 94.1162 51.5662 94.1052 49.6274C94.0997 48.5758 94.918 47.349 93.0177 47.705C91.8973 47.9186 91.1229 48.9756 91.738 50.1422C92.7596 52.0755 94.0173 53.8719 94.5501 56.0626C94.6709 56.55 95.4947 57.1744 96.2966 56.9663C96.9777 56.7855 97.0546 56.2214 96.9667 55.5259Z" fill="#B2DA89"/>
<path d="M34.7992 102.221C31.8553 99.0007 29.1641 95.5941 26.8848 91.8754C25.704 88.9891 23.8641 86.3493 23.3258 82.6141C25.9896 84.9801 28.2634 87.001 30.5372 89.022C30.9711 90.1393 31.394 91.2675 32.8604 91.377C33.2833 91.5577 33.7008 91.7385 34.1237 91.9192L34.2006 91.848C34.5576 93.031 35.7384 92.7133 36.5128 93.1296C38.2484 94.0661 40.5112 94.7726 40.6375 97.0784C40.8023 100.036 42.5324 102.04 44.1087 104.209C43.8615 106.049 44.7787 107.227 46.1463 108.361C46.8878 108.974 48.8156 109.511 47.2503 111.176C44.5426 109.39 41.8349 107.605 39.1272 105.819C37.9463 104.313 36.4909 103.125 34.7992 102.221Z" fill="#B2DA89"/>
<path d="M83.9553 104.258C85.5701 102.155 86.1303 99.0117 89.7497 98.6173C89.2554 100.967 87.1683 102.166 86.2236 104.056C86.0149 104.269 85.8117 104.483 85.603 104.697C85.4108 104.839 85.2186 104.981 85.0208 105.118C84.4661 105.08 84.1366 104.757 83.9553 104.258Z" fill="#B2DA89"/>
<path d="M52.2154 53.1161C51.8364 53.1161 51.4959 52.8423 51.43 52.4589C50.4304 46.7575 46.9153 45.5252 46.8768 45.5143C46.4594 45.3774 46.2342 44.9228 46.3715 44.5066C46.5089 44.0903 46.9647 43.8658 47.3821 44.0027C47.5634 44.0629 51.8419 45.5581 53.0008 52.185C53.0776 52.6177 52.7866 53.0285 52.3527 53.1051C52.3087 53.1106 52.2648 53.1161 52.2154 53.1161Z" fill="#2B3333"/>
<path d="M72.9762 44.627C72.5973 44.627 72.2567 44.3532 72.1908 43.9698C71.1912 38.2685 67.6762 37.0362 67.6432 37.0252C67.2258 36.8883 67.0006 36.4338 67.1379 36.0175C67.2752 35.6013 67.7311 35.3767 68.1485 35.5137C68.3297 35.5739 72.6082 37.0691 73.7671 43.696C73.844 44.1287 73.5529 44.5394 73.119 44.6161C73.0641 44.6216 73.0202 44.627 72.9762 44.627Z" fill="#2B3333"/>
<path d="M57.8615 57.3551C57.4056 57.5249 57.3727 58.1602 57.8121 58.3738L61.0196 59.9511C61.0306 59.9566 61.047 59.9676 61.058 59.9676C63.8207 61.3149 66.8249 61.2601 69.3789 60.1647C72.2953 58.9105 74.6075 56.2817 75.2391 52.8203L75.4479 51.6757C75.5247 51.2485 75.1073 50.9035 74.7064 51.0568L57.8615 57.3551Z" fill="#D40000"/>
<path d="M61.058 59.9676C63.8206 61.3149 66.8249 61.2601 69.3788 60.1647C69.3514 60.0004 69.3074 59.8416 69.258 59.6773C68.5495 57.4428 66.1548 56.205 63.914 56.9115C62.4366 57.377 61.393 58.571 61.058 59.9676Z" fill="#FF0000"/>
<path d="M55.1208 157C54.8462 157 54.5716 156.858 54.4288 156.6C54.2091 156.217 54.3409 155.729 54.7254 155.516L57.9164 153.698L46.3606 109.965C46.2508 109.538 46.5034 109.105 46.9318 108.99C47.3602 108.875 47.7941 109.133 47.9094 109.56L59.619 153.878C59.7124 154.229 59.5586 154.596 59.2456 154.771L55.5218 156.896C55.39 156.967 55.2527 157 55.1208 157Z" fill="#2B3333"/>
<path d="M86.784 156.737C86.5368 156.737 86.2897 156.622 86.1359 156.403L83.4721 152.69C83.3513 152.52 83.3019 152.306 83.3348 152.098L90.7879 107.517C90.8593 107.084 91.2712 106.794 91.7051 106.865C92.139 106.937 92.4356 107.347 92.3587 107.78L84.9605 152.033L87.4321 155.477C87.6902 155.833 87.6078 156.332 87.2453 156.589C87.108 156.688 86.9432 156.737 86.784 156.737Z" fill="#2B3333"/>
<path d="M8.54609 105.786C8.40329 105.786 8.26049 105.748 8.12868 105.671C7.74971 105.441 7.63437 104.954 7.86505 104.576L29.686 69.0207C29.9166 68.6483 30.4055 68.5278 30.7844 68.7578C31.1634 68.9879 31.2787 69.4753 31.0481 69.8532L9.22714 105.409C9.07885 105.655 8.81522 105.786 8.54609 105.786Z" fill="#2B3333"/>
<path d="M101.152 42.6335C100.96 42.6335 100.767 42.5623 100.614 42.4254C100.289 42.1296 100.267 41.6258 100.564 41.3026C111.159 29.774 101.646 13.3928 100.575 11.6403L95.4178 8.55683C95.0388 8.33228 94.918 7.83937 95.1432 7.46695C95.3684 7.08905 95.8627 6.96856 96.2361 7.19311L101.558 10.3751C101.663 10.4354 101.75 10.523 101.816 10.6271C101.937 10.8133 113.724 29.3413 101.734 42.3761C101.586 42.5459 101.371 42.6335 101.152 42.6335Z" fill="#2B3333"/>
<path d="M101.152 11.8539C101.113 11.8539 101.069 11.8484 101.031 11.8429L94.1106 10.7804C93.6767 10.7147 93.3746 10.3094 93.4405 9.87127C93.5065 9.4386 93.9184 9.13737 94.3523 9.2031L99.6578 10.0191L97.7905 6.66186C97.5763 6.27848 97.7136 5.79105 98.098 5.57745C98.4825 5.36386 98.9713 5.50078 99.1855 5.88416L101.849 10.6599C101.998 10.9283 101.981 11.2514 101.805 11.5034C101.657 11.7279 101.415 11.8539 101.152 11.8539Z" fill="#2B3333"/>
<path d="M101.152 11.8538C101.047 11.8538 100.938 11.8319 100.839 11.7881C100.432 11.6129 100.246 11.1473 100.421 10.7421L102.02 7.02878C102.195 6.6235 102.662 6.43729 103.069 6.61254C103.475 6.7878 103.662 7.25333 103.486 7.65861L101.888 11.3719C101.756 11.6731 101.465 11.8538 101.152 11.8538Z" fill="#2B3333"/>
<path d="M48.4531 18.3001C48.475 18.3713 48.4695 18.4425 48.4421 18.5191C48.4146 18.5903 48.3487 18.6615 48.2499 18.7327C48.151 18.8039 48.0137 18.8751 47.8379 18.9518C47.6622 19.0285 47.437 19.1106 47.1569 19.1928C46.8713 19.2804 46.6351 19.3407 46.4429 19.3735C46.2507 19.4064 46.0969 19.4228 45.976 19.4173C45.8607 19.4119 45.7673 19.3899 45.7014 19.3461C45.6355 19.3023 45.5916 19.2421 45.5696 19.1709L43.8231 13.4695L38.5285 15.0852L40.275 20.7865C40.297 20.8577 40.297 20.9289 40.2695 21.0001C40.2421 21.0713 40.1817 21.1425 40.0828 21.2137C39.9839 21.2849 39.8466 21.3561 39.6709 21.4328C39.4951 21.5095 39.2645 21.5916 38.9789 21.6793C38.6987 21.7614 38.4681 21.8216 38.2758 21.86C38.0836 21.8928 37.9243 21.9093 37.809 21.9093C37.6882 21.9038 37.5948 21.8819 37.5289 21.8381C37.463 21.7943 37.419 21.734 37.3971 21.6628L33.3108 8.33776C33.2888 8.26656 33.2943 8.18989 33.3218 8.11869C33.3492 8.04749 33.4152 7.97629 33.514 7.9051C33.6129 7.8339 33.7502 7.7627 33.9314 7.68055C34.1127 7.60387 34.3379 7.52172 34.618 7.43409C34.9036 7.34646 35.1397 7.28622 35.3265 7.25336C35.5132 7.2205 35.6725 7.20407 35.7933 7.20954C35.9141 7.21502 36.002 7.23693 36.0679 7.28074C36.1283 7.32455 36.1723 7.3848 36.1943 7.456L37.7815 12.637L43.0761 11.0214L41.4888 5.84034C41.4669 5.76915 41.4724 5.69247 41.4998 5.62127C41.5273 5.55007 41.5932 5.47887 41.6866 5.40768C41.7799 5.33648 41.9172 5.26528 42.0985 5.1886C42.2797 5.11193 42.5104 5.02978 42.796 4.94215C43.0706 4.86 43.3068 4.79975 43.4935 4.76689C43.6803 4.73403 43.8395 4.7176 43.9604 4.72308C44.0812 4.72855 44.1746 4.75046 44.2405 4.79427C44.3064 4.83809 44.3503 4.89833 44.3723 4.96953L48.4531 18.3001Z" fill="black"/>
<path d="M50.3479 3.50723C50.5182 4.06039 50.5237 4.47662 50.3589 4.75594C50.1996 5.03526 49.8097 5.27076 49.2 5.45697C48.5794 5.64866 48.129 5.67056 47.8544 5.53364C47.5743 5.39672 47.3546 5.06264 47.1953 4.53139C47.0251 3.97824 47.0196 3.562 47.1734 3.2772C47.3272 2.99789 47.7171 2.76239 48.3377 2.5707C48.9474 2.38449 49.3978 2.36258 49.6779 2.4995C49.958 2.63642 50.1832 2.97598 50.3479 3.50723ZM54.1321 16.5913C54.1541 16.6625 54.1541 16.7337 54.1266 16.7994C54.0992 16.8651 54.0388 16.9363 53.9454 17.0021C53.852 17.0733 53.7202 17.139 53.5499 17.2102C53.3797 17.2814 53.16 17.3581 52.8909 17.4402C52.6217 17.5224 52.3966 17.5826 52.2153 17.6155C52.0341 17.6483 51.8858 17.6648 51.7704 17.6648C51.6551 17.6593 51.5672 17.6374 51.5068 17.599C51.4464 17.5552 51.4024 17.5005 51.3805 17.4293L48.4036 7.72436C48.3817 7.65317 48.3817 7.58197 48.4091 7.51077C48.4366 7.44505 48.497 7.37385 48.5904 7.30265C48.6838 7.23145 48.8156 7.15478 48.9803 7.08358C49.1506 7.0069 49.3648 6.93023 49.6394 6.84808C49.9085 6.76592 50.1337 6.71116 50.315 6.6783C50.4962 6.64544 50.6445 6.63448 50.7653 6.63996C50.8807 6.65091 50.974 6.67282 51.0345 6.71116C51.0949 6.75497 51.1388 6.80974 51.1608 6.88094L54.1321 16.5913Z" fill="black"/>
<path d="M60.7723 13.4093C60.8657 13.705 60.9151 13.9624 60.9316 14.1815C60.9481 14.4006 60.9151 14.5868 60.8328 14.7511C60.7504 14.9099 60.6186 15.0468 60.4373 15.1619C60.2561 15.2769 60.0199 15.3809 59.7178 15.4686C59.4212 15.5617 59.1631 15.6055 58.9434 15.6164C58.7237 15.6219 58.5425 15.5836 58.3887 15.4959C58.2349 15.4083 58.1031 15.2714 57.9932 15.0797C57.8834 14.888 57.7845 14.647 57.6912 14.3513C57.5978 14.0446 57.5429 13.7817 57.5264 13.5626C57.5099 13.3436 57.5429 13.1519 57.6198 12.9876C57.6966 12.8233 57.8285 12.6863 58.0097 12.5713C58.191 12.4563 58.4326 12.3523 58.7347 12.2592C59.0313 12.166 59.2894 12.1168 59.5036 12.1113C59.7178 12.1058 59.9046 12.1496 60.0638 12.2372C60.2231 12.3304 60.3604 12.4673 60.4703 12.6644C60.5801 12.8506 60.679 13.1026 60.7723 13.4093ZM59.4542 10.3149C59.4707 10.3916 59.4652 10.4628 59.4487 10.5285C59.4322 10.5997 59.3828 10.6654 59.3004 10.7311C59.2235 10.8023 59.1082 10.868 58.9599 10.9392C58.8116 11.0104 58.6194 11.0762 58.3942 11.1474C58.158 11.2186 57.9658 11.2679 57.8065 11.2898C57.6472 11.3171 57.5154 11.3226 57.411 11.3062C57.3067 11.2952 57.2298 11.2624 57.1749 11.2186C57.12 11.1693 57.076 11.1145 57.0486 11.0433L53.7257 1.22888C53.6982 1.13577 53.6928 1.04266 53.7147 0.96051C53.7367 0.872882 53.7971 0.79073 53.896 0.708578C53.9948 0.626426 54.1376 0.544273 54.3244 0.467598C54.5111 0.385446 54.7473 0.303294 55.0439 0.215665C55.335 0.128036 55.5821 0.0677947 55.7798 0.0349339C55.9776 0.00207313 56.1368 -0.00888215 56.2686 0.00754826C56.395 0.0185019 56.4938 0.0568396 56.5652 0.106131C56.6311 0.160899 56.6806 0.237572 56.7135 0.330678L59.4542 10.3149Z" fill="black"/>
</svg>
