<svg width="53" height="50" viewBox="0 0 53 50" fill="none" xmlns="http://www.w3.org/2000/svg">

    <defs>
        <filter id="filter0_d_1071_20810" x="0" y="0" width="53" height="53" filterUnits="userSpaceOnUse" color-interpolation-filters="sRGB">
            <feFlood flood-opacity="0" result="BackgroundImageFix"/>
            <feColorMatrix in="SourceAlpha" type="matrix" values="0 0 0 0 0 0 0 0 0 0 0 0 0 0 0 0 0 0 127 0" result="hardAlpha"/>
            <feOffset dy="4"/>
            <feGaussianBlur stdDeviation="2"/>
            <feComposite in2="hardAlpha" operator="out"/>
            <feColorMatrix type="matrix" values="0 0 0 0 0 0 0 0 0 0 0 0 0 0 0 0 0 0 0.25 0"/>
            <feBlend mode="normal" in2="BackgroundImageFix" result="effect1_dropShadow_1071_20810"/>
            <feBlend mode="normal" in="SourceGraphic" in2="effect1_dropShadow_1071_20810" result="shape"/>
        </filter>
        <linearGradient id="paint0_linear_1071_20810" x1="26.4995" y1="30.3936" x2="26.4995" y2="5.68821" gradientUnits="userSpaceOnUse">
            <stop stop-color="white" stop-opacity="0"/>
            <stop offset="1" stop-color="white"/>
        </linearGradient>
    </defs>
<g filter="url(#filter0_d_1071_20810)">
<path d="M33.9996 45L19.0004 45C10.7153 45 4 38.2847 4 29.9996L4 15.0004C4 6.71529 10.7153 -3.38425e-09 19.0004 -7.55965e-09L34.0009 -1.51193e-08C42.2847 -1.92941e-08 49 6.71529 49 15.0004L49 30.0009C49 38.2847 42.2847 45 33.9996 45Z" fill="white"/>
<path d="M32.9282 41.7858L20.071 41.7858C12.97 41.7858 7.21387 36.0296 7.21387 28.9286L7.21387 16.0715C7.21387 8.9705 12.97 3.21436 20.071 3.21436L32.9282 3.21436C40.0292 3.21436 45.7853 8.9705 45.7853 16.0715L45.7853 28.9286C45.7853 36.0296 40.0292 41.7858 32.9282 41.7858Z" fill="#31A442"/>
<g opacity="0.1">
<path d="M32.4589 40.3792L20.539 40.3792C13.9561 40.3792 8.61914 35.0422 8.61914 28.4593L8.61914 16.5395C8.61914 9.95663 13.9561 4.61963 20.539 4.61963L32.4589 4.61963C39.0417 4.61963 44.3787 9.95663 44.3787 16.5395L44.3787 28.4593C44.3787 35.0422 39.0417 40.3792 32.4589 40.3792Z" fill="white"/>
</g>
<g opacity="0.5">
<path d="M35.8621 30.393L17.137 30.393C13.1924 30.393 9.99609 27.1954 9.99609 23.2521L9.99609 16.4173C9.99609 10.4914 14.7995 5.68799 20.7254 5.68799L32.2737 5.68799C38.1995 5.68799 43.0029 10.4914 43.0029 16.4173L43.0029 23.2521C43.0029 27.1967 39.8054 30.393 35.8621 30.393Z" fill="url(#paint0_linear_1071_20810)"/>
</g>
<path d="M22.1248 7.87113C21.8072 9.61199 20.4264 9.42556 18.7151 10.3256C16.8624 11.2988 14.8978 12.5678 13.9991 11.2783C13.1287 10.0273 15.3311 7.82099 18.1841 6.82199C19.9674 6.19842 22.3884 6.42213 22.1248 7.87113Z" fill="white"/>
<path d="M11.9844 12.6128C12.9487 11.9892 14.4749 13.6002 14.0274 14.6301C13.58 15.6599 11.6579 16.0122 11.2734 15.0736C10.8903 14.1338 11.1989 13.1194 11.9844 12.6128Z" fill="white"/>
<path d="M37.3554 16.9822C37.9808 18.0001 38.9994 20.0536 38.9994 22.5001C38.9994 24.9465 37.963 27.0001 37.3554 28.0179C36.855 28.8393 35.5326 30.7501 34.0673 30.8393C34.0315 30.8393 33.9958 30.8393 33.9779 30.8393C33.2453 30.8393 32.4411 30.3572 32.2981 29.2322C32.2803 29.1608 32.2803 29.0893 32.2803 29.0179C32.2803 28.1608 32.87 27.5536 33.4597 26.9465C34.3532 26.0179 35.4612 24.8751 35.4612 22.5001C35.4612 20.1251 34.3532 18.9822 33.4597 18.0536C32.8342 17.4108 32.1909 16.7322 32.2981 15.7679C32.4411 14.6072 33.3167 14.1251 34.0673 14.1608C35.5326 14.2679 36.855 16.1786 37.3554 16.9822Z" fill="white"/>
<path d="M33.2819 22.5C33.2819 24.3571 32.0667 25.9107 30.4227 26.3929C30.1189 30.2321 29.2075 35 26.6163 35C25.0259 35 23.2925 33.4821 21.2017 30.2143C20.3439 28.875 19.6112 27.5714 19.1823 26.7321C17.6098 27 15.8942 27.0357 15.0722 26.1786C13.6426 24.6964 13.6426 20.3036 15.0722 18.8214C15.8942 17.9643 17.6098 18 19.1823 18.2679C19.6291 17.4464 20.3439 16.125 21.2017 14.7857C23.3103 11.5179 25.0259 10 26.6163 10C29.2075 10 30.1189 14.7679 30.4227 18.6071C32.0667 19.0893 33.2819 20.6607 33.2819 22.5Z" fill="white"/>
</g>
</svg>
