<svg width="45" height="45" viewBox="0 0 45 45" fill="none" xmlns="http://www.w3.org/2000/svg">
<g clip-path="url(#clip0_1071_20774)">
<path d="M29.9996 45L15.0004 45C6.71529 45 1.92941e-08 38.2847 1.51187e-08 29.9996L7.55965e-09 15.0004C3.38425e-09 6.71529 6.71529 -3.38425e-09 15.0004 -7.55965e-09L30.0009 -1.51193e-08C38.2847 -1.92941e-08 45 6.71529 45 15.0004L45 30.0009C45 38.2847 38.2847 45 29.9996 45Z" fill="white"/>
<path d="M28.9282 41.7858L16.071 41.7858C8.97001 41.7858 3.21387 36.0296 3.21387 28.9286L3.21387 16.0715C3.21387 8.9705 8.97001 3.21436 16.071 3.21436L28.9282 3.21436C36.0292 3.21436 41.7853 8.9705 41.7853 16.0715L41.7853 28.9286C41.7853 36.0296 36.0292 41.7858 28.9282 41.7858Z" fill="#31A442"/>
<g opacity="0.1">
<path d="M28.4589 40.3792L16.539 40.3792C9.95614 40.3792 4.61914 35.0422 4.61914 28.4593L4.61914 16.5395C4.61914 9.95663 9.95614 4.61963 16.539 4.61963L28.4589 4.61963C35.0417 4.61963 40.3787 9.95663 40.3787 16.5395L40.3787 28.4593C40.3787 35.0422 35.0417 40.3792 28.4589 40.3792Z" fill="white"/>
</g>
<g opacity="0.5">
<path d="M31.8621 30.393L13.137 30.393C9.19238 30.393 5.99609 27.1954 5.99609 23.2521L5.99609 16.4173C5.99609 10.4914 10.7995 5.68799 16.7254 5.68799L28.2737 5.68799C34.1995 5.68799 39.0029 10.4914 39.0029 16.4173L39.0029 23.2521C39.0029 27.1967 35.8054 30.393 31.8621 30.393Z" fill="url(#paint0_linear_1071_20774)"/>
</g>
<path d="M18.1248 7.87113C17.8072 9.61199 16.4264 9.42556 14.7151 10.3256C12.8624 11.2988 10.8978 12.5678 9.99909 11.2783C9.12866 10.0273 11.3311 7.82099 14.1841 6.82199C15.9674 6.19842 18.3884 6.42213 18.1248 7.87113Z" fill="white"/>
<path d="M7.98443 12.6128C8.94871 11.9892 10.4749 13.6002 10.0274 14.6301C9.58 15.6599 7.65786 16.0122 7.27343 15.0736C6.89028 14.1338 7.19885 13.1194 7.98443 12.6128Z" fill="white"/>
<path d="M9 23C9.00133 23.0139 9.00133 23.0262 9.00399 23.04C9.00533 23.0662 9.00266 23.0923 9.01065 23.117C9.45534 24.5006 17.2841 31.8374 19.6087 31.9959C21.9334 32.1545 21.5912 27.6126 21.5912 27.6126C22.2063 26.9801 30.8219 29.9136 32.5314 29.281C33.5899 28.8885 34 25.6426 34 23C34 20.3574 33.5899 17.1115 32.5314 16.719C30.8219 16.0864 22.2063 19.0199 21.5912 18.3874C21.5912 18.3874 21.9334 13.8455 19.6087 14.0041C17.2841 14.1626 9.45401 21.4994 9.01065 22.883C9.00266 22.9077 9.00533 22.9338 9.00399 22.96C9.00133 22.9738 9.00133 22.9877 9 23Z" fill="white"/>
</g>
<defs>
<linearGradient id="paint0_linear_1071_20774" x1="22.4995" y1="30.3936" x2="22.4995" y2="5.68821" gradientUnits="userSpaceOnUse">
<stop stop-color="white" stop-opacity="0"/>
<stop offset="1" stop-color="white"/>
</linearGradient>
<clipPath id="clip0_1071_20774">
<rect width="45" height="45" fill="white"/>
</clipPath>
</defs>
</svg>
