<svg width="35" height="35" viewBox="0 0 35 35" fill="none" xmlns="http://www.w3.org/2000/svg" xmlns:xlink="http://www.w3.org/1999/xlink">

<path d="M33.0382 27.7698C33.2241 28.7921 32.7753 29.9639 31.8301 30.9069C31.0277 31.7093 30.0575 32.1581 29.1554 32.1581C28.9967 32.1581 28.8426 32.1445 28.6885 32.1173C26.9522 31.7977 25.0618 29.8075 23.729 28.1121C22.9538 28.6583 22.2239 29.0573 21.6278 29.2159C21.349 29.2885 21.0974 29.3202 20.8707 29.3202C20.1001 29.3202 19.6082 28.9643 19.3543 28.7105C19.1027 28.4589 18.7446 27.9647 18.7446 27.1941C18.7446 26.9651 18.7763 26.7113 18.8511 26.4347C18.969 25.9973 19.2138 25.485 19.5561 24.9342L17.0197 22.9078L14.7099 24.7574C15.705 26.403 15.7707 27.6701 14.8981 28.5427C14.4923 28.9507 13.9982 29.1547 13.4202 29.1547C12.7085 29.1547 11.8698 28.8442 10.9042 28.2277C9.56913 29.9367 7.65607 31.9654 5.90394 32.2873C5.75207 32.3167 5.5934 32.3281 5.43474 32.3281C4.53487 32.3281 3.567 31.8815 2.76234 31.0791C1.81714 30.1339 1.36607 28.9598 1.5542 27.9398C1.87153 26.2126 3.84807 24.329 5.54127 22.9962C4.179 21.0537 3.9818 19.5826 4.95873 18.6079C5.36447 18.2022 5.8586 17.9959 6.43434 17.9959C7.09394 17.9959 7.86687 18.2611 8.74407 18.7961L9.9658 17.2683L1.935 10.8446C1.561 10.5431 1.33887 10.0875 1.33887 9.60472V2.35366C1.33887 1.47646 2.04833 0.766992 2.92553 0.766992H10.1789C10.6617 0.766992 11.115 0.984593 11.4165 1.36313L17.0537 8.40792L22.8314 1.19086C23.1329 0.814593 23.5885 0.594727 24.0713 0.594727H31.3246C32.1995 0.594727 32.9113 1.30419 32.9113 2.18139V9.43246C32.9113 9.91526 32.6914 10.3709 32.3151 10.6723L24.1189 17.2298L25.5174 18.9774C26.0659 18.6374 26.5782 18.3903 27.0179 18.2725C28.2351 17.9461 28.965 18.447 29.2959 18.7757C29.6223 19.1021 30.1255 19.8342 29.7969 21.0514C29.6654 21.5433 29.3707 22.1281 28.9627 22.7559C30.6741 24.091 32.7141 26.0109 33.0382 27.7698Z" fill="#3D9946"/>

</svg>
