<svg width="73" height="71" viewBox="0 0 73 71" fill="none" xmlns="http://www.w3.org/2000/svg">
    <defs>
        <filter id="filter0_d_1328_21270" x="0" y="0" width="73" height="73" filterUnits="userSpaceOnUse" color-interpolation-filters="sRGB">
            <feFlood flood-opacity="0" result="BackgroundImageFix"/>
            <feColorMatrix in="SourceAlpha" type="matrix" values="0 0 0 0 0 0 0 0 0 0 0 0 0 0 0 0 0 0 127 0" result="hardAlpha"/>
            <feOffset dy="4"/>
            <feGaussianBlur stdDeviation="2"/>
            <feComposite in2="hardAlpha" operator="out"/>
            <feColorMatrix type="matrix" values="0 0 0 0 0 0 0 0 0 0 0 0 0 0 0 0 0 0 0.45 0"/>
            <feBlend mode="normal" in2="BackgroundImageFix" result="effect1_dropShadow_1328_21270"/>
            <feBlend mode="normal" in="SourceGraphic" in2="effect1_dropShadow_1328_21270" result="shape"/>
        </filter>
    </defs>
<g filter="url(#filter0_d_1328_21270)">
<rect x="4" width="65" height="65" rx="30" fill="#3D9946" shape-rendering="crispEdges"/>
<path d="M52.3292 43.8084C52.5151 44.8306 52.0663 46.0025 51.1211 46.9454C50.3187 47.7478 49.3486 48.1966 48.4464 48.1966C48.2878 48.1966 48.1336 48.183 47.9795 48.1558C46.2432 47.8362 44.3528 45.8461 43.02 44.1506C42.2448 44.6969 41.515 45.0958 40.9188 45.2545C40.64 45.327 40.3884 45.3588 40.1618 45.3588C39.3911 45.3588 38.8992 45.0029 38.6454 44.749C38.3938 44.4974 38.0356 44.0033 38.0356 43.2326C38.0356 43.0037 38.0674 42.7498 38.1422 42.4733C38.26 42.0358 38.5048 41.5236 38.8471 40.9728L36.3107 38.9464L34.001 40.796C34.996 42.4416 35.0618 43.7086 34.1891 44.5813C33.7834 44.9893 33.2892 45.1933 32.7112 45.1933C31.9995 45.1933 31.1608 44.8828 30.1952 44.2662C28.8601 45.9753 26.9471 48.004 25.195 48.3258C25.0431 48.3553 24.8844 48.3666 24.7258 48.3666C23.8259 48.3666 22.858 47.9201 22.0534 47.1177C21.1082 46.1725 20.6571 44.9984 20.8452 43.9784C21.1626 42.2512 23.1391 40.3676 24.8323 39.0348C23.47 37.0922 23.2728 35.6212 24.2498 34.6465C24.6555 34.2408 25.1496 34.0345 25.7254 34.0345C26.385 34.0345 27.1579 34.2997 28.0351 34.8346L29.2568 33.3069L21.226 26.8832C20.852 26.5817 20.6299 26.1261 20.6299 25.6433V18.3922C20.6299 17.515 21.3393 16.8056 22.2165 16.8056H29.4699C29.9527 16.8056 30.406 17.0232 30.7075 17.4017L36.3447 24.4465L42.1224 17.2294C42.4239 16.8532 42.8795 16.6333 43.3623 16.6333H50.6156C51.4906 16.6333 52.2023 17.3428 52.2023 18.22V25.471C52.2023 25.9538 51.9824 26.4094 51.6062 26.7109L43.4099 33.2684L44.8084 35.016C45.357 34.676 45.8692 34.4289 46.309 34.311C47.5262 33.9846 48.256 34.4856 48.587 34.8142C48.9134 35.1406 49.4166 35.8728 49.0879 37.09C48.9564 37.5818 48.6618 38.1666 48.2538 38.7945C49.9651 40.1296 52.0051 42.0494 52.3292 43.8084Z" fill="white"/>
</g>
</svg>
