<svg width="33" height="44" viewBox="0 0 33 44" fill="none" xmlns="http://www.w3.org/2000/svg">
<path d="M16.5391 0.234375V0.35224H17.0484L16.5391 0.234375Z" fill="#3D9946"/>
<path d="M16.4217 42.587L14.4626 42.5477L14.4234 40.7012V38.8546H16.5392H16.6567L16.5392 0.352051H15.9907C15.9907 0.352051 15.9515 0.352051 15.9515 0.391339C15.7164 0.509204 15.0111 1.41284 12.9345 4.20231C11.4456 6.20602 10.231 7.97399 10.1918 8.13115C10.0351 8.79905 10.6228 9.50624 11.3281 9.50624C11.5632 9.50624 11.7199 9.50624 11.7199 9.54553C11.7199 9.58482 10.5836 11.2742 9.21229 13.3172C7.80176 15.3602 6.62632 17.1675 6.54796 17.2853C6.07778 18.189 6.78304 19.2498 7.84094 19.2498C8.19357 19.2498 8.27194 19.289 8.23276 19.4069C8.19357 19.4855 7.01813 21.1749 5.56842 23.1393C4.11871 25.143 2.86491 26.8717 2.78654 26.9896C2.51227 27.5789 2.669 28.2861 3.21754 28.7575C3.49181 28.9933 3.57017 28.9933 4.31462 28.9933C4.90234 28.9933 5.09825 29.0325 5.05906 29.1111C5.05906 29.1897 4.04035 30.9577 2.90409 33.04C1.06256 36.2616 0.749113 36.8902 0.709931 37.2831C0.67075 37.7939 0.866657 38.226 1.37601 38.5796C1.65028 38.7761 1.72865 38.7761 7.48831 38.8153L13.3263 38.8546V40.7405C13.3263 42.9406 13.3655 43.1371 14.0708 43.4907C14.3059 43.6085 14.4234 43.6478 14.8544 43.6871H16.6567V42.5477C16.5784 42.587 16.5 42.587 16.4217 42.587Z" fill="#3D9946"/>
<path d="M16.4996 0.234375V0.35224H15.9902L16.4996 0.234375Z" fill="#3D9946"/>
<path d="M16.617 42.5873L18.5761 42.548L18.6153 40.7015V38.8549H16.4995H16.382L16.4995 0.391602H17.048C17.048 0.391602 17.0872 0.391602 17.0872 0.43089C17.3223 0.548755 18.0276 1.45239 20.1042 4.24186C21.5931 6.24557 22.8077 8.01354 22.8469 8.1707C23.0036 8.8386 22.4159 9.54579 21.7106 9.54579C21.4755 9.54579 21.3188 9.54579 21.3188 9.58508C21.3188 9.62436 22.4551 11.3138 23.8264 13.3568C25.2369 15.3998 26.4124 17.207 26.4908 17.3249C26.9609 18.2285 26.2557 19.2893 25.1978 19.2893C24.8451 19.2893 24.7668 19.3286 24.806 19.4465C24.8451 19.525 26.0206 21.2144 27.4703 23.1788C28.92 25.1826 30.1738 26.9112 30.2522 27.0291C30.5264 27.6184 30.3697 28.3256 29.8212 28.7971C29.5469 29.0328 29.4685 29.0328 28.7241 29.0328C28.1364 29.0328 27.9405 29.0721 27.9796 29.1507C27.9796 29.2292 28.9984 30.9972 30.1346 33.0795C31.937 36.3012 32.2504 36.9298 32.2896 37.3619C32.3288 37.8727 32.1329 38.3049 31.6235 38.6585C31.3492 38.8549 31.2709 38.8549 25.5112 38.8942L19.6732 38.9335V40.8193C19.6732 43.0195 19.634 43.2159 18.9287 43.5695C18.6937 43.6874 18.5761 43.7267 18.1451 43.7659H16.3428V42.6266C16.4995 42.5873 16.5387 42.5873 16.617 42.5873Z" fill="#3D9946"/>
</svg>
