<svg width="73" height="74" viewBox="0 0 73 74" fill="none" xmlns="http://www.w3.org/2000/svg">
    <defs>
        <filter id="filter0_d_789_12546" x="0" y="0.5" width="73" height="73" filterUnits="userSpaceOnUse" color-interpolation-filters="sRGB">
            <feFlood flood-opacity="0" result="BackgroundImageFix"/>
            <feColorMatrix in="SourceAlpha" type="matrix" values="0 0 0 0 0 0 0 0 0 0 0 0 0 0 0 0 0 0 127 0" result="hardAlpha"/>
            <feOffset dy="4"/>
            <feGaussianBlur stdDeviation="2"/>
            <feComposite in2="hardAlpha" operator="out"/>
            <feColorMatrix type="matrix" values="0 0 0 0 0 0 0 0 0 0 0 0 0 0 0 0 0 0 0.45 0"/>
            <feBlend mode="normal" in2="BackgroundImageFix" result="effect1_dropShadow_789_12546"/>
            <feBlend mode="normal" in="SourceGraphic" in2="effect1_dropShadow_789_12546" result="shape"/>
        </filter>
    </defs>
<g filter="url(#filter0_d_789_12546)">
<rect x="4" y="0.5" width="65" height="65" rx="30" fill="#3D9946" shape-rendering="crispEdges"/>
<path d="M36.5391 11.2344V11.3522H37.0484L36.5391 11.2344Z" fill="white"/>
<path d="M36.4217 53.587L34.4626 53.5477L34.4234 51.7012V49.8546H36.5392H36.6567L36.5392 11.3521H35.9907C35.9907 11.3521 35.9515 11.3521 35.9515 11.3913C35.7164 11.5092 35.0111 12.4128 32.9345 15.2023C31.4456 17.206 30.231 18.974 30.1918 19.1311C30.0351 19.799 30.6228 20.5062 31.3281 20.5062C31.5632 20.5062 31.7199 20.5062 31.7199 20.5455C31.7199 20.5848 30.5836 22.2742 29.2123 24.3172C27.8018 26.3602 26.6263 28.1675 26.548 28.2853C26.0778 29.189 26.783 30.2498 27.8409 30.2498C28.1936 30.2498 28.2719 30.289 28.2328 30.4069C28.1936 30.4855 27.0181 32.1749 25.5684 34.1393C24.1187 36.143 22.8649 37.8717 22.7865 37.9896C22.5123 38.5789 22.669 39.2861 23.2175 39.7575C23.4918 39.9933 23.5702 39.9933 24.3146 39.9933C24.9023 39.9933 25.0982 40.0325 25.0591 40.1111C25.0591 40.1897 24.0403 41.9577 22.9041 44.04C21.0626 47.2616 20.7491 47.8902 20.7099 48.2831C20.6707 48.7939 20.8667 49.226 21.376 49.5796C21.6503 49.7761 21.7286 49.7761 27.4883 49.8153L33.3263 49.8546V51.7405C33.3263 53.9406 33.3655 54.1371 34.0708 54.4907C34.3059 54.6085 34.4234 54.6478 34.8544 54.6871H36.6567V53.5477C36.5784 53.587 36.5 53.587 36.4217 53.587Z" fill="white"/>
<path d="M36.4996 11.2344V11.3522H35.9902L36.4996 11.2344Z" fill="white"/>
<path d="M36.617 53.587L38.5761 53.5478L38.6153 51.7012V49.8547H36.4995H36.382L36.4995 11.3914H37.048C37.048 11.3914 37.0872 11.3914 37.0872 11.4306C37.3223 11.5485 38.0276 12.4521 40.1042 15.2416C41.5931 17.2453 42.8077 19.0133 42.8469 19.1705C43.0036 19.8384 42.4159 20.5455 41.7106 20.5455C41.4755 20.5455 41.3188 20.5455 41.3188 20.5848C41.3188 20.6241 42.4551 22.3135 43.8264 24.3565C45.2369 26.3995 46.4124 28.2068 46.4908 28.3246C46.9609 29.2283 46.2557 30.2891 45.1978 30.2891C44.8451 30.2891 44.7668 30.3283 44.806 30.4462C44.8451 30.5248 46.0206 32.2142 47.4703 34.1786C48.92 36.1823 50.1738 37.911 50.2522 38.0289C50.5264 38.6182 50.3697 39.3254 49.8212 39.7968C49.5469 40.0326 49.4685 40.0326 48.7241 40.0326C48.1364 40.0326 47.9405 40.0719 47.9796 40.1504C47.9796 40.229 48.9984 41.997 50.1346 44.0793C51.937 47.3009 52.2504 47.9295 52.2896 48.3617C52.3288 48.8724 52.1329 49.3046 51.6235 49.6582C51.3492 49.8547 51.2709 49.8547 45.5112 49.8939L39.6732 49.9332V51.8191C39.6732 54.0192 39.634 54.2157 38.9287 54.5693C38.6937 54.6871 38.5761 54.7264 38.1451 54.7657H36.3428V53.6263C36.4995 53.587 36.5387 53.587 36.617 53.587Z" fill="white"/>
</g>
</svg>
