<svg width="73" height="74" viewBox="0 0 73 74" fill="none" xmlns="http://www.w3.org/2000/svg">
<g filter="url(#filter0_d_789_12542)">
<rect x="4" y="0.75" width="65" height="65" rx="30" fill="#3D9946" shape-rendering="crispEdges"/>
<g clip-path="url(#clip0_789_12542)">
<path d="M51.2335 38.5459C51.2335 38.6533 51.1607 38.7249 51.0516 38.7249H47.1227C47.0135 38.7249 46.9408 38.6533 46.9408 38.5459V35.7548C46.9408 35.6475 47.0135 35.5759 47.1227 35.5759H51.0516C51.1607 35.5759 51.2335 35.6475 51.2335 35.7548V38.5459ZM51.2335 44.2713C51.2335 44.3786 51.1607 44.4502 51.0516 44.4502H47.1227C47.0135 44.4502 46.9408 44.3786 46.9408 44.2713V41.4802C46.9408 41.3728 47.0135 41.3013 47.1227 41.3013H51.0516C51.1607 41.3013 51.2335 41.3728 51.2335 41.4802V44.2713ZM40.247 38.5459C40.247 38.6533 40.1743 38.7249 40.0651 38.7249H36.1362C36.0271 38.7249 35.9543 38.6533 35.9543 38.5459V35.7548C35.9543 35.6475 36.0271 35.5759 36.1362 35.5759H40.0651C40.1743 35.5759 40.247 35.6475 40.247 35.7548V38.5459ZM40.247 44.2713C40.247 44.3786 40.1743 44.4502 40.0651 44.4502H36.1362C36.0271 44.4502 35.9543 44.3786 35.9543 44.2713V41.4802C35.9543 41.3728 36.0271 41.3013 36.1362 41.3013H40.0651C40.1743 41.3013 40.247 41.3728 40.247 41.4802V44.2713ZM27.3325 38.5459C27.3325 38.6533 27.2597 38.7249 27.1506 38.7249H23.1853C23.0761 38.7249 23.0034 38.6533 23.0034 38.5459V35.7548C23.0034 35.6475 23.0761 35.5759 23.1853 35.5759H27.1142C27.2233 35.5759 27.2961 35.6475 27.2961 35.7548V38.5459H27.3325ZM27.3325 44.2713C27.3325 44.3786 27.2597 44.4502 27.1506 44.4502H23.1853C23.0761 44.4502 23.0034 44.3786 23.0034 44.2713V41.4802C23.0034 41.3728 23.0761 41.3013 23.1853 41.3013H27.1142C27.2233 41.3013 27.2961 41.3728 27.2961 41.4802V44.2713H27.3325ZM56.9814 49.0305H55.9992V30.5305H54.6531V15.9666C54.6531 15.2868 54.1074 14.75 53.4162 14.75H52.4704C51.7792 14.75 51.2335 15.2868 51.2335 15.9666V30.5662H49.6328V15.9666C49.6328 15.2868 49.0871 14.75 48.3959 14.75H47.4137C46.7225 14.75 46.1768 15.2868 46.1768 15.9666V30.5662H42.6844V24.6978L29.9518 30.4589V24.6978L17.0372 30.5305V49.0305H16.055C15.4729 49.0305 15 49.4956 15 50.0682V51.7858H58V50.0682C58 49.4956 57.5271 49.0305 56.9814 49.0305Z" fill="white"/>
</g>
</g>
<defs>
<filter id="filter0_d_789_12542" x="0" y="0.75" width="73" height="73" filterUnits="userSpaceOnUse" color-interpolation-filters="sRGB">
<feFlood flood-opacity="0" result="BackgroundImageFix"/>
<feColorMatrix in="SourceAlpha" type="matrix" values="0 0 0 0 0 0 0 0 0 0 0 0 0 0 0 0 0 0 127 0" result="hardAlpha"/>
<feOffset dy="4"/>
<feGaussianBlur stdDeviation="2"/>
<feComposite in2="hardAlpha" operator="out"/>
<feColorMatrix type="matrix" values="0 0 0 0 0 0 0 0 0 0 0 0 0 0 0 0 0 0 0.45 0"/>
<feBlend mode="normal" in2="BackgroundImageFix" result="effect1_dropShadow_789_12542"/>
<feBlend mode="normal" in="SourceGraphic" in2="effect1_dropShadow_789_12542" result="shape"/>
</filter>
<clipPath id="clip0_789_12542">
<rect width="43" height="37" fill="white" transform="translate(15 14.75)"/>
</clipPath>
</defs>
</svg>
