<svg width="43" height="38" viewBox="0 0 43 38" fill="none" xmlns="http://www.w3.org/2000/svg">
<g clip-path="url(#clip0_1064_20631)">
<path d="M36.2335 24.5459C36.2335 24.6533 36.1607 24.7249 36.0516 24.7249H32.1227C32.0135 24.7249 31.9408 24.6533 31.9408 24.5459V21.7548C31.9408 21.6475 32.0135 21.5759 32.1227 21.5759H36.0516C36.1607 21.5759 36.2335 21.6475 36.2335 21.7548V24.5459ZM36.2335 30.2713C36.2335 30.3786 36.1607 30.4502 36.0516 30.4502H32.1227C32.0135 30.4502 31.9408 30.3786 31.9408 30.2713V27.4802C31.9408 27.3728 32.0135 27.3013 32.1227 27.3013H36.0516C36.1607 27.3013 36.2335 27.3728 36.2335 27.4802V30.2713ZM25.247 24.5459C25.247 24.6533 25.1743 24.7249 25.0651 24.7249H21.1362C21.0271 24.7249 20.9543 24.6533 20.9543 24.5459V21.7548C20.9543 21.6475 21.0271 21.5759 21.1362 21.5759H25.0651C25.1743 21.5759 25.247 21.6475 25.247 21.7548V24.5459ZM25.247 30.2713C25.247 30.3786 25.1743 30.4502 25.0651 30.4502H21.1362C21.0271 30.4502 20.9543 30.3786 20.9543 30.2713V27.4802C20.9543 27.3728 21.0271 27.3013 21.1362 27.3013H25.0651C25.1743 27.3013 25.247 27.3728 25.247 27.4802V30.2713ZM12.3325 24.5459C12.3325 24.6533 12.2597 24.7249 12.1506 24.7249H8.18528C8.07614 24.7249 8.00338 24.6533 8.00338 24.5459V21.7548C8.00338 21.6475 8.07614 21.5759 8.18528 21.5759H12.1142C12.2234 21.5759 12.2961 21.6475 12.2961 21.7548V24.5459H12.3325ZM12.3325 30.2713C12.3325 30.3786 12.2597 30.4502 12.1506 30.4502H8.18528C8.07614 30.4502 8.00338 30.3786 8.00338 30.2713V27.4802C8.00338 27.3728 8.07614 27.3013 8.18528 27.3013H12.1142C12.2234 27.3013 12.2961 27.3728 12.2961 27.4802V30.2713H12.3325ZM41.9814 35.0305H40.9992V16.5305H39.6531V1.96663C39.6531 1.28675 39.1074 0.75 38.4162 0.75H37.4704C36.7792 0.75 36.2335 1.28675 36.2335 1.96663V16.5662H34.6328V1.96663C34.6328 1.28675 34.0871 0.75 33.3959 0.75H32.4137C31.7225 0.75 31.1768 1.28675 31.1768 1.96663V16.5662H27.6844V10.6978L14.9518 16.4589V10.6978L2.03723 16.5305V35.0305H1.05499C0.472927 35.0305 0 35.4956 0 36.0682V37.7858H43V36.0682C43 35.4956 42.5271 35.0305 41.9814 35.0305Z" fill="#3D9946"/>
</g>
<defs>
<clipPath id="clip0_1064_20631">
<rect width="43" height="37" fill="white" transform="translate(0 0.75)"/>
</clipPath>
</defs>
</svg>
