<svg width="73" height="74" viewBox="0 0 73 74" fill="none" xmlns="http://www.w3.org/2000/svg">
<g filter="url(#filter0_d_789_12554)">
<rect x="4" y="0.25" width="65" height="65" rx="30" fill="#3D9946" shape-rendering="crispEdges"/>
<path d="M23.05 12.4436C22.9317 12.4863 22.7498 12.6147 22.6484 12.7174C22.2636 13.0811 22.2129 13.2865 22.2129 14.5529V15.751L21.8789 15.9221C21.7013 16.0162 21.5026 16.0933 21.4434 16.0933C21.3757 16.0933 20.991 15.7467 20.5808 15.3188C19.7099 14.4374 19.5154 14.309 18.9869 14.309C18.0482 14.309 17.4182 15.1434 17.6846 16.0334C17.7607 16.2986 18.0017 16.611 18.6232 17.2485L19.4646 18.1128L19.2955 18.4936L19.1264 18.8829L17.8664 18.9086C16.4627 18.9343 16.3401 18.9856 15.9342 19.5718C15.5833 20.1066 15.7482 20.9923 16.2851 21.3817C16.5219 21.5528 16.6699 21.5699 17.8368 21.6127L19.1391 21.6555L19.2997 22.062L19.4689 22.4685L18.581 23.3755C17.8749 24.0986 17.6846 24.3511 17.6423 24.6078C17.4648 25.5405 18.2554 26.3834 19.1771 26.238C19.5365 26.1866 19.6464 26.101 20.4709 25.2881L21.3673 24.3896L21.7689 24.5607L22.1706 24.7233L22.2129 26.0411C22.2552 27.2221 22.2721 27.3761 22.4412 27.6114C22.826 28.1548 23.7012 28.3259 24.2297 27.958C24.8089 27.5601 24.8597 27.4317 24.885 26.0112L24.9104 24.7362L25.2951 24.565L25.6714 24.3939L26.5255 25.2453C27.4388 26.1524 27.777 26.3407 28.3225 26.238C28.6988 26.1695 29.1385 25.8486 29.3034 25.5149C29.464 25.2025 29.464 24.5564 29.3118 24.2569C29.2442 24.1286 28.851 23.6879 28.4324 23.2643C28.0138 22.8493 27.6671 22.4642 27.6671 22.4214C27.6671 22.37 27.7263 22.1647 27.8024 21.9721L27.9462 21.6084H29.1808C30.3223 21.6084 30.4407 21.5913 30.6902 21.4116C31.1679 21.0907 31.3202 20.8083 31.3202 20.2564C31.3202 19.8585 31.2779 19.713 31.0918 19.4648C30.7155 18.9642 30.4449 18.8872 29.1089 18.8872H27.9335L27.7982 18.5492C27.7221 18.3609 27.6629 18.1598 27.6629 18.0999C27.6629 18.04 28.0053 17.6507 28.4282 17.2357C29.3076 16.3543 29.426 16.1574 29.426 15.6055C29.426 14.8396 28.8975 14.3048 28.1406 14.3048C27.5952 14.3048 27.4007 14.4246 26.5297 15.3145C26.1196 15.7381 25.7391 16.089 25.6968 16.089C25.6461 16.089 25.4431 16.0291 25.2529 15.9521L24.8935 15.8066V14.6257C24.8935 13.2822 24.8174 13.0041 24.3311 12.6275C24.014 12.3837 23.401 12.2938 23.05 12.4436Z" fill="white"/>
<path d="M44.8073 15.045C44.2788 15.3103 44.1689 15.5884 44.1181 16.7265L44.0759 17.7449L43.6573 17.8048C41.0232 18.2112 39.1163 18.9258 37.2856 20.1922C36.3892 20.8126 35.1715 22.0021 34.6007 22.8322C33.6875 24.1414 33.0829 25.7459 32.9729 27.1964C32.8968 28.112 32.9814 28.403 33.3492 28.5656C33.6579 28.6939 33.92 28.5998 34.3555 28.2105C35.1631 27.4959 36.0425 27.175 37.1503 27.1921C38.2834 27.2092 39.0318 27.5045 40.0634 28.3645C40.3974 28.6554 40.778 28.6597 41.1204 28.3987C41.8603 27.8382 42.5326 27.4574 43.1668 27.2178C43.5516 27.0809 43.9321 26.9611 43.9998 26.9611C44.1012 26.9611 44.1181 27.8339 44.1012 33.5631L44.0759 40.1736L29.9583 40.2164C15.8661 40.2592 15.8408 40.2592 15.6124 40.4389C15.1854 40.7555 15.0332 41.0379 15.0332 41.5299C15.0332 42.022 15.1854 42.3044 15.6124 42.6253C15.8408 42.805 15.9465 42.805 22.0434 42.8478C28.1402 42.8905 28.2459 42.8906 28.4743 43.0703C29.2311 43.6393 29.2734 44.5635 28.5673 45.0898C28.339 45.2609 28.191 45.2695 25.5019 45.3123C22.8678 45.3551 22.6564 45.3636 22.3858 45.5262C21.9588 45.7829 21.7643 46.0953 21.722 46.6044C21.6882 47.105 21.8658 47.4687 22.3182 47.811C22.555 47.9907 22.6522 47.9907 27.0452 48.0335L31.5438 48.0763L31.8229 48.3886C32.1231 48.7095 32.2584 49.1631 32.1654 49.5182C32.0724 49.8733 31.6115 50.3269 31.2352 50.4082C31.0492 50.4509 28.3728 50.4937 25.1848 50.4937H19.4642L19.1852 50.6906C18.8004 50.9558 18.5806 51.3452 18.5806 51.8116C18.5806 52.3036 18.8089 52.693 19.2359 52.9326L19.5615 53.1294H32.1992H44.8327L45.1582 52.9326C45.9912 52.4662 46.0377 51.3024 45.2682 50.7162C45.0568 50.5536 44.8834 50.528 43.7588 50.4937C42.3381 50.4424 42.0548 50.3483 41.7673 49.8733C41.5475 49.5182 41.5475 48.9235 41.7673 48.5641C42.0844 48.0207 42.0464 48.0292 46.1899 48.0292C49.6823 48.0292 49.974 48.0121 50.2954 47.8666C51.4285 47.3489 51.2255 45.6845 49.9952 45.4021C49.7584 45.3422 48.0122 45.308 45.4796 45.308C40.9133 45.308 41.0232 45.3165 40.6849 44.7732C40.3086 44.1613 40.5496 43.3227 41.1796 42.9975C41.4502 42.852 41.9618 42.8435 48.0883 42.8435C55.4071 42.8435 55.0731 42.8692 55.4748 42.3001C55.7369 41.9279 55.7369 41.1277 55.4748 40.7555C55.09 40.2035 55.1238 40.2121 50.7562 40.2121H46.803V33.5759V26.9397L47.082 26.9996C47.619 27.1194 48.6168 27.5943 49.3229 28.0693C50.2954 28.7325 50.363 28.741 51.0353 28.1891C51.7075 27.6286 52.439 27.3162 53.2846 27.1964C53.9061 27.1108 54.0837 27.1194 54.6207 27.2563C55.3775 27.436 55.9568 27.7141 56.4768 28.1548C57.1406 28.7153 57.5423 28.7496 57.8552 28.2746C57.9735 28.0949 57.9905 27.9366 57.9397 27.3333C57.6776 24.1158 55.6566 21.2448 52.3502 19.4178C50.9972 18.669 49.1369 18.0657 47.5725 17.8646L46.8241 17.7705L46.7903 16.7608C46.7649 15.6569 46.6888 15.4686 46.1349 15.0878C45.7967 14.8568 45.2174 14.8396 44.8073 15.045Z" fill="white"/>
</g>
<defs>
<filter id="filter0_d_789_12554" x="0" y="0.25" width="73" height="73" filterUnits="userSpaceOnUse" color-interpolation-filters="sRGB">
<feFlood flood-opacity="0" result="BackgroundImageFix"/>
<feColorMatrix in="SourceAlpha" type="matrix" values="0 0 0 0 0 0 0 0 0 0 0 0 0 0 0 0 0 0 127 0" result="hardAlpha"/>
<feOffset dy="4"/>
<feGaussianBlur stdDeviation="2"/>
<feComposite in2="hardAlpha" operator="out"/>
<feColorMatrix type="matrix" values="0 0 0 0 0 0 0 0 0 0 0 0 0 0 0 0 0 0 0.45 0"/>
<feBlend mode="normal" in2="BackgroundImageFix" result="effect1_dropShadow_789_12554"/>
<feBlend mode="normal" in="SourceGraphic" in2="effect1_dropShadow_789_12554" result="shape"/>
</filter>
</defs>
</svg>
