<svg width="43" height="42" viewBox="0 0 43 42" fill="none" xmlns="http://www.w3.org/2000/svg">
<path d="M8.05004 0.443807C7.93166 0.486593 7.74985 0.614949 7.64837 0.717637C7.26362 1.08132 7.21288 1.28669 7.21288 2.55318V3.7512L6.87886 3.92235C6.70128 4.01648 6.50257 4.0935 6.44337 4.0935C6.37572 4.0935 5.99097 3.74692 5.58084 3.31906C4.70986 2.43765 4.51537 2.30929 3.98686 2.30929C3.04823 2.30929 2.41824 3.14364 2.68461 4.0336C2.76072 4.29888 3.00172 4.61121 3.62324 5.24874L4.46463 6.11303L4.29551 6.49383L4.12639 6.88319L2.86642 6.90885C1.4627 6.93452 1.34008 6.98586 0.934188 7.57204C0.583257 8.10687 0.748152 8.99257 1.28512 9.38193C1.52189 9.55307 1.66987 9.57018 2.83682 9.61297L4.13907 9.65576L4.29974 10.0622L4.46886 10.4687L3.58096 11.3758C2.87488 12.0989 2.68461 12.3513 2.64233 12.608C2.46475 13.5408 3.2554 14.3837 4.17712 14.2382C4.53651 14.1869 4.64644 14.1013 5.47091 13.2883L6.36727 12.3898L6.76893 12.561L7.1706 12.7236L7.21288 14.0414C7.25516 15.2223 7.27208 15.3763 7.4412 15.6117C7.82595 16.1551 8.70117 16.3262 9.22967 15.9582C9.80892 15.5603 9.85966 15.4319 9.88503 14.0114L9.9104 12.7364L10.2951 12.5652L10.6714 12.3941L11.5255 13.2456C12.4388 14.1526 12.777 14.3409 13.3225 14.2382C13.6988 14.1698 14.1385 13.8489 14.3034 13.5151C14.464 13.2028 14.464 12.5567 14.3118 12.2572C14.2442 12.1288 13.851 11.6881 13.4324 11.2645C13.0138 10.8495 12.6671 10.4644 12.6671 10.4216C12.6671 10.3703 12.7263 10.1649 12.8024 9.97237L12.9462 9.60869H14.1808C15.3223 9.60869 15.4407 9.59157 15.6902 9.41187C16.1679 9.09097 16.3202 8.80857 16.3202 8.25663C16.3202 7.85871 16.2779 7.71324 16.0918 7.46507C15.7155 6.96447 15.4449 6.88745 14.1089 6.88745H12.9335L12.7982 6.54945C12.7221 6.36118 12.6629 6.16009 12.6629 6.10019C12.6629 6.04028 13.0053 5.65094 13.4282 5.23591C14.3076 4.3545 14.426 4.15768 14.426 3.60573C14.426 2.83985 13.8975 2.30503 13.1406 2.30503C12.5952 2.30503 12.4007 2.42481 11.5297 3.31477C11.1196 3.73836 10.7391 4.08921 10.6968 4.08921C10.6461 4.08921 10.4431 4.02933 10.2529 3.95231L9.89348 3.80682V2.62592C9.89348 1.28242 9.81738 1.0043 9.33115 0.627781C9.01404 0.383897 8.40097 0.294053 8.05004 0.443807Z" fill="#3D9946"/>
<path d="M29.8073 3.04501C29.2788 3.31029 29.1689 3.58839 29.1181 4.72652L29.0759 5.74485L28.6573 5.80475C26.0232 6.21122 24.1163 6.92575 22.2856 8.19223C21.3892 8.81264 20.1715 10.0021 19.6007 10.8322C18.6875 12.1414 18.0829 13.7459 17.9729 15.1964C17.8968 16.112 17.9814 16.403 18.3492 16.5656C18.6579 16.6939 18.92 16.5998 19.3555 16.2105C20.1631 15.4959 21.0425 15.175 22.1503 15.1921C23.2834 15.2092 24.0318 15.5045 25.0634 16.3645C25.3974 16.6554 25.778 16.6597 26.1204 16.3987C26.8603 15.8382 27.5326 15.4574 28.1668 15.2178C28.5516 15.0809 28.9321 14.9611 28.9998 14.9611C29.1012 14.9611 29.1181 15.8339 29.1012 21.5631L29.0759 28.1736L14.9583 28.2164C0.866135 28.2592 0.840766 28.2592 0.61245 28.4389C0.185414 28.7555 0.0332031 29.0379 0.0332031 29.5299C0.0332031 30.022 0.185414 30.3044 0.61245 30.6253C0.840766 30.805 0.946468 30.805 7.04335 30.8478C13.1402 30.8905 13.2459 30.8906 13.4743 31.0703C14.2311 31.6393 14.2734 32.5635 13.5673 33.0898C13.339 33.2609 13.191 33.2695 10.5019 33.3123C7.86783 33.3551 7.65642 33.3636 7.38583 33.5262C6.95879 33.7829 6.7643 34.0953 6.72202 34.6044C6.6882 35.105 6.86578 35.4687 7.31818 35.811C7.55495 35.9907 7.6522 35.9907 12.0452 36.0335L16.5438 36.0763L16.8229 36.3886C17.1231 36.7095 17.2584 37.1631 17.1654 37.5182C17.0724 37.8733 16.6115 38.3269 16.2352 38.4082C16.0492 38.4509 13.3728 38.4937 10.1848 38.4937H4.46423L4.18517 38.6906C3.80042 38.9558 3.58056 39.3452 3.58056 39.8116C3.58056 40.3036 3.80888 40.693 4.23591 40.9326L4.56147 41.1294H17.1992H29.8327L30.1582 40.9326C30.9912 40.4662 31.0377 39.3024 30.2682 38.7162C30.0568 38.5536 29.8834 38.528 28.7588 38.4937C27.3381 38.4424 27.0548 38.3483 26.7673 37.8733C26.5475 37.5182 26.5475 36.9235 26.7673 36.5641C27.0844 36.0207 27.0464 36.0292 31.1899 36.0292C34.6823 36.0292 34.974 36.0121 35.2954 35.8666C36.4285 35.3489 36.2255 33.6845 34.9952 33.4021C34.7584 33.3422 33.0122 33.308 30.4796 33.308C25.9133 33.308 26.0232 33.3165 25.6849 32.7732C25.3086 32.1613 25.5496 31.3227 26.1796 30.9975C26.4502 30.852 26.9618 30.8435 33.0883 30.8435C40.4071 30.8435 40.0731 30.8692 40.4748 30.3001C40.7369 29.9279 40.7369 29.1277 40.4748 28.7555C40.09 28.2035 40.1238 28.2121 35.7562 28.2121H31.803V21.5759V14.9397L32.082 14.9996C32.619 15.1194 33.6168 15.5943 34.3229 16.0693C35.2954 16.7325 35.363 16.741 36.0353 16.1891C36.7075 15.6286 37.439 15.3162 38.2846 15.1964C38.9061 15.1108 39.0837 15.1194 39.6207 15.2563C40.3775 15.436 40.9568 15.7141 41.4768 16.1548C42.1406 16.7153 42.5423 16.7496 42.8552 16.2746C42.9735 16.0949 42.9905 15.9366 42.9397 15.3333C42.6776 12.1158 40.6566 9.2448 37.3502 7.41782C35.9972 6.66905 34.1369 6.06575 32.5725 5.86465L31.8241 5.77053L31.7903 4.76076C31.7649 3.65686 31.6888 3.4686 31.1349 3.0878C30.7967 2.85675 30.2174 2.83964 29.8073 3.04501Z" fill="#3D9946"/>
</svg>
