<svg width="73" height="73" viewBox="0 0 73 73" fill="none" xmlns="http://www.w3.org/2000/svg">
<g filter="url(#filter0_d_789_12535)">
<rect x="4" width="65" height="65" rx="30" fill="#3D9946"/>
<g opacity="0.33">
<path d="M56.0425 32.9402C56.0425 33.3176 55.9575 33.653 55.745 33.9885C55.1926 34.8691 54.3852 35.2884 51.6657 34.9949V46.9035C51.6657 49.5872 49.4561 51.7676 46.7365 51.7676C45.3343 51.7676 44.017 51.1806 43.0822 50.1742C42.1473 49.1678 41.6799 47.7841 41.8499 46.4003C42.3173 41.8717 41.7649 40.3621 41.5949 40.0267C40.9575 38.7268 39.0454 37.8882 36.8357 37.8882C34.6261 37.8882 32.7139 38.7687 32.0765 40.0267C31.9066 40.3621 31.3542 41.8717 31.8216 46.4003C31.9491 47.7841 31.5241 49.1259 30.5893 50.1742C29.6544 51.1806 28.3372 51.7676 26.9349 51.7676C24.2154 51.7676 22.0057 49.5872 22.0057 46.9035V34.9949C19.3287 35.2884 18.4788 34.8691 17.9264 33.9885C17.5015 33.2757 17.544 32.3532 18.0539 31.6403C21.1984 27.4891 24.9802 23.1281 28.4646 19.6897C34.4136 13.7773 36.1134 13.7773 36.8357 13.7773C37.5581 13.7773 39.2578 13.7773 45.2068 19.6897C48.6912 23.1281 52.5156 27.4891 55.6175 31.6403C55.8725 32.0596 56.0425 32.479 56.0425 32.9402Z" fill="white" stroke="#996A23" stroke-miterlimit="10"/>
</g>
<path d="M55.3628 32.3531C55.3628 32.7305 55.2778 33.066 55.0653 33.4014C54.5129 34.282 53.7056 34.7013 50.986 34.4078V46.3584C50.986 49.042 48.7764 51.2224 46.0569 51.2224C44.6546 51.2224 43.3373 50.6354 42.4025 49.629C41.4676 48.6227 41.0002 47.2389 41.1702 45.8552C41.6376 41.3265 41.0852 39.817 40.9152 39.4815C40.2778 38.1816 38.3657 37.343 36.156 37.343C33.9464 37.343 32.0342 38.2236 31.3968 39.4815C31.2269 39.817 30.6745 41.3265 31.1419 45.8552C31.2694 47.2389 30.8444 48.5807 29.9096 49.629C28.9748 50.6354 27.6575 51.2224 26.2552 51.2224C23.5357 51.2224 21.3261 49.042 21.3261 46.3584V34.4078C18.649 34.7013 17.7992 34.282 17.2468 33.4014C16.8218 32.6886 16.8643 31.7661 17.3742 31.0532C20.5187 26.902 24.3006 22.5411 27.785 19.1026C33.6915 13.2322 35.3912 13.2322 36.1135 13.2322C36.8359 13.2322 38.5356 13.2322 44.4846 19.1446C47.969 22.583 51.7934 26.9439 54.8954 31.0952C55.1928 31.4725 55.3628 31.9338 55.3628 32.3531Z" fill="white"/>
</g>
<defs>
<filter id="filter0_d_789_12535" x="0" y="0" width="73" height="73" filterUnits="userSpaceOnUse" color-interpolation-filters="sRGB">
<feFlood flood-opacity="0" result="BackgroundImageFix"/>
<feColorMatrix in="SourceAlpha" type="matrix" values="0 0 0 0 0 0 0 0 0 0 0 0 0 0 0 0 0 0 127 0" result="hardAlpha"/>
<feOffset dy="4"/>
<feGaussianBlur stdDeviation="2"/>
<feComposite in2="hardAlpha" operator="out"/>
<feColorMatrix type="matrix" values="0 0 0 0 0 0 0 0 0 0 0 0 0 0 0 0 0 0 0.53 0"/>
<feBlend mode="normal" in2="BackgroundImageFix" result="effect1_dropShadow_789_12535"/>
<feBlend mode="normal" in="SourceGraphic" in2="effect1_dropShadow_789_12535" result="shape"/>
</filter>
</defs>
</svg>
