<svg width="41" height="40" viewBox="0 0 41 40" fill="none" xmlns="http://www.w3.org/2000/svg">
<g opacity="0.33">
<path d="M40.0425 19.9402C40.0425 20.3176 39.9575 20.653 39.745 20.9885C39.1926 21.8691 38.3852 22.2884 35.6657 21.9949V33.9035C35.6657 36.5872 33.4561 38.7676 30.7365 38.7676C29.3343 38.7676 28.017 38.1806 27.0822 37.1742C26.1473 36.1678 25.6799 34.7841 25.8499 33.4003C26.3173 28.8717 25.7649 27.3621 25.5949 27.0267C24.9575 25.7268 23.0454 24.8882 20.8357 24.8882C18.6261 24.8882 16.7139 25.7687 16.0765 27.0267C15.9066 27.3621 15.3542 28.8717 15.8216 33.4003C15.9491 34.7841 15.5241 36.1259 14.5893 37.1742C13.6544 38.1806 12.3372 38.7676 10.9349 38.7676C8.21537 38.7676 6.00575 36.5872 6.00575 33.9035V21.9949C3.3287 22.2884 2.47885 21.8691 1.92644 20.9885C1.50151 20.2757 1.54401 19.3532 2.05392 18.6403C5.19839 14.4891 8.98024 10.1281 12.4647 6.68974C18.4136 0.777343 20.1133 0.777344 20.8357 0.777344C21.5581 0.777344 23.2578 0.777343 29.2068 6.68974C32.6912 10.1281 36.5156 14.4891 39.6175 18.6403C39.8725 19.0596 40.0425 19.479 40.0425 19.9402Z" fill="white" stroke="#996A23" stroke-miterlimit="10"/>
</g>
<path d="M39.3628 19.3531C39.3628 19.7305 39.2778 20.066 39.0653 20.4014C38.5129 21.282 37.7056 21.7013 34.986 21.4078V33.3584C34.986 36.042 32.7764 38.2225 30.0569 38.2225C28.6546 38.2225 27.3373 37.6354 26.4025 36.629C25.4676 35.6227 25.0002 34.2389 25.1702 32.8552C25.6376 28.3265 25.0852 26.817 24.9152 26.4815C24.2778 25.1816 22.3657 24.343 20.156 24.343C17.9464 24.343 16.0342 25.2236 15.3968 26.4815C15.2269 26.817 14.6745 28.3265 15.1419 32.8552C15.2694 34.2389 14.8444 35.5807 13.9096 36.629C12.9748 37.6354 11.6575 38.2225 10.2552 38.2225C7.53569 38.2225 5.32606 36.042 5.32606 33.3584V21.4078C2.64902 21.7013 1.79916 21.282 1.24675 20.4014C0.821827 19.6886 0.86432 18.7661 1.37423 18.0532C4.5187 13.902 8.30056 9.54105 11.785 6.10264C17.6915 0.232178 19.3912 0.232178 20.1135 0.232178C20.8359 0.232178 22.5356 0.232178 28.4846 6.14457C31.969 9.58298 35.7934 13.9439 38.8954 18.0952C39.1928 18.4725 39.3628 18.9338 39.3628 19.3531Z" fill="#3D9946"/>
</svg>
