<svg width="138" height="198" viewBox="0 0 138 198" fill="none" xmlns="http://www.w3.org/2000/svg">
<path d="M137.764 186.338H4.65039V197.692H137.764V186.338Z" fill="#999999"/>
<path d="M118.234 182.998V149.604H120.704L127.329 35.8906H29.2012L38.151 189.444H109.633V182.998H118.234Z" fill="#062D5B"/>
<path d="M118.234 149.604H120.675L127.329 35.8906H29.2012L38.18 189.444H109.662V170.831C109.633 160.261 112.307 149.604 118.234 149.604Z" fill="#124389"/>
<path d="M5.98633 35.8906L14.9652 189.444H99.2619L104.144 35.8906H5.98633Z" fill="#1B60C8"/>
<path d="M29.2012 35.8911L38.151 0H118.351L127.329 35.8911H29.2012Z" fill="#124389"/>
<path d="M5.98633 35.8911L14.9652 0H99.2619L104.144 35.8911H5.98633Z" fill="#1894E8"/>
<path d="M106.381 29.7061H0V43.7314H106.381V29.7061Z" fill="#1894E8"/>
<path d="M106.366 43.7588H133.1V29.7334L106.366 29.7334V43.7588Z" fill="#124389"/>
<path d="M133.114 43.1797H0V44.3121H133.114V43.1797Z" fill="#062D5B"/>
<path d="M109.662 188.893H14.9629V190.025H109.662V188.893Z" fill="#062D5B"/>
<path d="M133.114 29.1543H0V30.2868H133.114V29.1543Z" fill="#4EB9F4"/>
<path d="M118.236 152.188C114.923 152.188 112.221 160.522 112.221 170.802C112.221 181.081 114.894 189.415 118.236 189.415H126.081V152.159H118.236V152.188Z" fill="#494949"/>
<path d="M88.5086 26.4823H23.7677C19.4672 26.4823 15.9512 22.9687 15.9512 18.671H16.7938C16.7938 22.5041 19.9321 25.6402 23.7677 25.6402H88.4795C92.3151 25.6402 95.4534 22.5041 95.4534 18.671V11.6729H96.296V18.671C96.3251 22.9687 92.8091 26.4823 88.5086 26.4823Z" fill="#062D5B"/>
<path d="M16.8231 18.6424H15.9805V11.6443C15.9805 7.34662 19.4965 3.83301 23.797 3.83301H88.5088C92.8094 3.83301 96.3253 7.34662 96.3253 11.6443H95.4827C95.4827 7.81123 92.3444 4.67512 88.5088 4.67512H23.768C19.9323 4.67512 16.7941 7.81123 16.7941 11.6443V18.6424H16.8231Z" fill="#4EB9F4"/>
<path d="M23.7699 7.89844C21.7068 7.89844 20.0215 9.58265 20.0215 11.6444V18.6425C20.0215 20.7042 21.7068 22.3884 23.7699 22.3884H88.4817C90.5448 22.3884 92.2302 20.7042 92.2302 18.6425V11.6444C92.2302 9.58265 90.5448 7.89844 88.4817 7.89844H23.7699Z" fill="#021B33"/>
<path d="M20.456 18.6416H19.6133V11.6434C19.6133 9.3494 21.473 7.46191 23.7976 7.46191H88.5094C90.8049 7.46191 92.6937 9.32036 92.6937 11.6434H91.822C91.822 9.81401 90.34 8.33306 88.5094 8.33306H23.7686C21.9379 8.33306 20.456 9.81401 20.456 11.6434V18.6416Z" fill="#062D5B"/>
<path d="M88.5111 22.8242H23.7703C21.4747 22.8242 19.5859 20.9657 19.5859 18.6427H20.4286C20.4286 20.4721 21.9106 21.953 23.7412 21.953H88.453C90.2836 21.953 91.7656 20.4721 91.7656 18.6427V11.6445H92.6083V18.6427C92.6664 20.9367 90.8067 22.8242 88.5111 22.8242Z" fill="#4EB9F4"/>
<path d="M112.57 176.899C113.384 184.188 115.621 189.444 118.237 189.444H126.082V176.899H112.57Z" fill="#282828"/>
<path d="M126.079 189.445C129.401 189.445 132.094 181.111 132.094 170.831C132.094 160.551 129.401 152.218 126.079 152.218C122.757 152.218 120.064 160.551 120.064 170.831C120.064 181.111 122.757 189.445 126.079 189.445Z" fill="#1D1D1B"/>
<path d="M126.083 183.549C125.763 183.549 125.502 183.288 125.502 182.968C125.502 182.649 125.763 182.388 126.083 182.388C127.478 182.388 129.425 177.974 129.425 170.801C129.425 163.6 127.478 159.215 126.083 159.215C125.763 159.215 125.502 158.954 125.502 158.634C125.502 158.315 125.763 158.054 126.083 158.054C128.989 158.054 130.558 164.616 130.558 170.801C130.587 176.987 129.018 183.549 126.083 183.549Z" fill="#707070"/>
<path d="M125.326 176.929C126.401 176.929 127.273 174.199 127.273 170.831C127.273 167.464 126.401 164.733 125.326 164.733C124.251 164.733 123.379 167.464 123.379 170.831C123.379 174.199 124.251 176.929 125.326 176.929Z" fill="#124389"/>
<path d="M123.349 187.964C123.146 187.964 122.972 187.877 122.855 187.703C120.792 184.422 119.514 177.946 119.514 170.832C119.514 164.124 120.705 157.823 122.594 154.425C122.739 154.164 123.088 154.048 123.378 154.193C123.64 154.338 123.756 154.687 123.611 154.977C121.809 158.229 120.676 164.298 120.676 170.832C120.676 177.743 121.896 183.986 123.843 187.122C124.018 187.384 123.93 187.732 123.669 187.906C123.553 187.935 123.466 187.964 123.349 187.964Z" fill="#707070"/>
<path d="M32.5117 118.534L27.0488 109.097C27.6881 109.3 28.3274 109.387 29.0248 109.387H51.9804V121.002H36.7541C34.9816 120.973 33.4125 120.073 32.5117 118.534Z" fill="white"/>
<path d="M29.0251 107.616C27.2526 107.616 25.6835 106.716 24.7827 105.177C23.911 103.638 23.911 101.809 24.7827 100.299L32.3959 87.1152L42.4499 92.9229L33.9359 107.645L29.0251 107.616Z" fill="white"/>
<path d="M39.141 87.0283L43.7322 95.0138L29.9297 87.0283H39.141Z" fill="white"/>
<path d="M85.3117 105.119L79.8488 114.556C79.7035 113.918 79.442 113.308 79.1224 112.698L67.6445 92.8359L77.6985 87.0283L85.3117 100.212C86.2125 101.751 86.2125 103.58 85.3117 105.119Z" fill="white"/>
<path d="M77.584 113.597C78.4557 115.136 78.4557 116.966 77.584 118.476C76.7122 120.015 75.1141 120.915 73.3415 120.915H58.1152V109.3H75.1141L77.584 113.597Z" fill="white"/>
<path d="M54.7148 115.137L59.306 107.151V123.093L54.7148 115.137Z" fill="white"/>
<path d="M47.3341 66.0625H58.2598C57.7949 66.4981 57.3591 67.0208 57.0104 67.6306L45.5325 87.4926L35.4785 81.685L43.0917 68.5017C43.9634 66.9627 45.5616 66.0625 47.3341 66.0625Z" fill="white"/>
<path d="M58.5519 68.5017C59.4237 66.9627 61.0219 66.0625 62.7944 66.0625C64.5669 66.0625 66.136 66.9627 67.0368 68.5017L74.65 81.685L64.596 87.4926L56.082 72.7703L58.5519 68.5017Z" fill="white"/>
<path d="M71.309 87.5219H62.0977L75.9292 79.5654L71.309 87.5219Z" fill="white"/>
<path d="M31.9023 132.646C32.6869 132.53 33.7039 132.414 34.9825 132.414C36.5807 132.414 37.743 132.792 38.4694 133.459C39.1377 134.04 39.5446 134.94 39.5446 136.073C39.5446 137.205 39.2249 138.077 38.5856 138.715C37.743 139.616 36.3482 140.08 34.7791 140.08C34.2851 140.08 33.8492 140.051 33.5005 139.964V144.959H31.9023V132.646ZM33.5005 138.657C33.8492 138.744 34.2851 138.773 34.8372 138.773C36.7841 138.773 37.9464 137.844 37.9464 136.131C37.9464 134.476 36.7841 133.692 35.0115 133.692C34.3141 133.692 33.762 133.75 33.5005 133.808V138.657Z" fill="white"/>
<path d="M42.1885 141.037L40.91 144.958H39.2246L43.438 132.529H45.3849L49.6273 144.958H47.942L46.6053 141.037H42.1885ZM46.2566 139.789L45.0362 136.217C44.7456 135.404 44.5712 134.678 44.3969 133.952H44.3678C44.1935 134.678 43.9901 135.433 43.7286 136.217L42.5081 139.818H46.2566V139.789Z" fill="white"/>
<path d="M51.4863 132.646C52.2709 132.53 53.2879 132.414 54.5665 132.414C56.1646 132.414 57.327 132.792 58.0534 133.459C58.7508 134.04 59.1285 134.94 59.1285 136.073C59.1285 137.205 58.8089 138.077 58.1696 138.715C57.327 139.616 55.9322 140.08 54.3631 140.08C53.8691 140.08 53.4332 140.051 53.0845 139.964V144.959H51.4863V132.646ZM53.0845 138.657C53.4332 138.744 53.8691 138.773 54.4212 138.773C56.368 138.773 57.5304 137.844 57.5304 136.131C57.5304 134.476 56.368 133.692 54.5955 133.692C53.8981 133.692 53.346 133.75 53.0845 133.808V138.657Z" fill="white"/>
<path d="M67.7304 139.123H62.9068V143.594H68.2825V144.93H61.3086V132.502H68.021V133.838H62.9068V137.758H67.7304V139.123Z" fill="white"/>
<path d="M70.373 132.675C71.1867 132.501 72.349 132.414 73.4532 132.414C75.1676 132.414 76.2718 132.733 77.0564 133.43C77.6956 133.982 78.0443 134.824 78.0443 135.782C78.0443 137.438 76.9982 138.512 75.6906 138.948V139.006C76.6495 139.325 77.2307 140.225 77.5213 141.503C77.9281 143.245 78.2187 144.436 78.4802 144.929H76.8239C76.6205 144.581 76.3299 143.507 75.9812 141.968C75.6035 140.254 74.9351 139.615 73.4822 139.557H71.9712V144.959H70.373V132.675ZM71.9712 138.338H73.6275C75.3419 138.338 76.4461 137.409 76.4461 135.986C76.4461 134.389 75.2838 133.692 73.5985 133.663C72.8139 133.663 72.2618 133.75 72.0003 133.808V138.338H71.9712Z" fill="white"/>
</svg>
