<svg width="139" height="200" viewBox="0 0 139 200" fill="none" xmlns="http://www.w3.org/2000/svg">
<path d="M138.998 188.207H4.68945V199.677H138.998V188.207Z" fill="#999999"/>
<path d="M119.299 184.834V151.099H121.791L128.476 36.2275H29.4668L38.497 191.375H110.621V184.834H119.299Z" fill="#7F5604"/>
<path d="M119.299 151.099H121.762L128.476 36.2275H29.4668L38.5263 191.346H110.65V172.543C110.621 161.865 113.318 151.099 119.299 151.099Z" fill="#AF7A05"/>
<path d="M6.03906 36.2275L15.0985 191.375H100.152L105.078 36.2275H6.03906Z" fill="#EFA706"/>
<path d="M29.4668 36.2275L38.497 0H119.417L128.476 36.2275H29.4668Z" fill="#AF7A05"/>
<path d="M6.03906 36.2275L15.0985 0H100.152L105.078 36.2275H6.03906Z" fill="#FFDB06"/>
<path d="M107.336 30.0088H0V44.1771H107.336V30.0088Z" fill="#FFDB06"/>
<path d="M107.32 44.1719H134.293V30.0035L107.32 30.0035V44.1719Z" fill="#AF7A05"/>
<path d="M134.309 43.5898H0V44.7339H134.309V43.5898Z" fill="#7F5604"/>
<path d="M110.649 190.788H15.0996V191.932H110.649V190.788Z" fill="#7F5604"/>
<path d="M134.309 29.4219H0V30.5659H134.309V29.4219Z" fill="#FFE266"/>
<path d="M119.297 153.739C115.955 153.739 113.229 162.158 113.229 172.542C113.229 182.927 115.926 191.345 119.297 191.345H127.214V153.71H119.297V153.739Z" fill="#494949"/>
<path d="M89.3025 26.724H24.0098C19.6706 26.724 16.123 23.1746 16.123 18.8332H16.9733C16.9733 22.7052 20.1397 25.8733 24.0098 25.8733H89.3025C93.1726 25.8733 96.339 22.7052 96.339 18.8332V11.7637H97.1893V18.8332C97.1893 23.1746 93.6417 26.724 89.3025 26.724Z" fill="#7F5604"/>
<path d="M16.9733 18.8314H16.123V11.7619C16.123 7.42051 19.6706 3.87109 24.0098 3.87109H89.3025C93.6417 3.87109 97.1893 7.42051 97.1893 11.7619H96.339C96.339 7.88986 93.1726 4.72179 89.3025 4.72179H24.0098C20.1397 4.72179 16.9733 7.88986 16.9733 11.7619V18.8314Z" fill="#FFE266"/>
<path d="M23.9833 7.97949C21.9017 7.97949 20.2012 9.68087 20.2012 11.7636V18.8331C20.2012 20.9158 21.9017 22.6172 23.9833 22.6172H89.2761C91.3577 22.6172 93.0582 20.9158 93.0582 18.8331V11.7636C93.0582 9.68087 91.3577 7.97949 89.2761 7.97949H23.9833Z" fill="#513503"/>
<path d="M20.6393 18.8327H19.7891V11.7632C19.7891 9.44578 21.6655 7.53906 24.011 7.53906H89.3037C91.6199 7.53906 93.5256 9.41645 93.5256 11.7632H92.6461C92.6461 9.91512 91.1508 8.41908 89.3037 8.41908H24.011C22.1639 8.41908 20.6686 9.91512 20.6686 11.7632V18.8327H20.6393Z" fill="#7F5604"/>
<path d="M89.3037 23.027H24.011C21.6948 23.027 19.7891 21.1496 19.7891 18.8029H20.6393C20.6393 20.6509 22.1346 22.147 23.9816 22.147H89.2744C91.1215 22.147 92.6167 20.6509 92.6167 18.8029V11.7334H93.467V18.8029C93.4963 21.1496 91.6199 23.027 89.3037 23.027Z" fill="#FFE266"/>
<path d="M113.58 178.702C114.401 186.065 116.659 191.374 119.297 191.374H127.213V178.702H113.58Z" fill="#282828"/>
<path d="M127.215 191.345C130.567 191.345 133.284 182.927 133.284 172.542C133.284 162.158 130.567 153.739 127.215 153.739C123.864 153.739 121.146 162.158 121.146 172.542C121.146 182.927 123.864 191.345 127.215 191.345Z" fill="#1D1D1B"/>
<path d="M127.213 185.42C126.891 185.42 126.627 185.156 126.627 184.834C126.627 184.511 126.891 184.247 127.213 184.247C128.621 184.247 130.585 179.788 130.585 172.543C130.585 165.268 128.621 160.838 127.213 160.838C126.891 160.838 126.627 160.574 126.627 160.252C126.627 159.929 126.891 159.665 127.213 159.665C130.145 159.665 131.728 166.295 131.728 172.543C131.758 178.791 130.175 185.42 127.213 185.42Z" fill="#707070"/>
<path d="M126.453 178.703C127.538 178.703 128.417 175.945 128.417 172.543C128.417 169.141 127.538 166.383 126.453 166.383C125.368 166.383 124.488 169.141 124.488 172.543C124.488 175.945 125.368 178.703 126.453 178.703Z" fill="#AF7A05"/>
<path d="M124.458 189.879C124.253 189.879 124.077 189.791 123.96 189.615C121.878 186.3 120.588 179.758 120.588 172.571C120.588 165.795 121.79 159.43 123.696 155.998C123.842 155.734 124.194 155.616 124.487 155.763C124.751 155.91 124.868 156.262 124.722 156.555C122.904 159.841 121.761 165.971 121.761 172.571C121.761 179.553 122.992 185.86 124.956 189.028C125.132 189.292 125.044 189.644 124.78 189.82C124.663 189.849 124.575 189.879 124.458 189.879Z" fill="#707070"/>
<path d="M32.8088 119.712L27.2969 110.179C27.9419 110.384 28.5869 110.472 29.2905 110.472H52.4523V122.206H37.0893C35.3009 122.206 33.7177 121.267 32.8088 119.712Z" fill="white"/>
<path d="M29.2898 108.682C27.5014 108.682 25.9182 107.773 25.0093 106.218C24.1297 104.664 24.1297 102.816 25.0093 101.29L32.6908 87.9727L42.8351 93.8395L34.2447 108.712L29.2898 108.682Z" fill="white"/>
<path d="M39.4932 87.9141L44.1256 95.9516L30.1992 87.9141H39.4932Z" fill="white"/>
<path d="M86.0816 106.161L80.5697 115.694C80.4231 115.049 80.1593 114.433 79.8367 113.817L68.2559 93.7525L78.4001 87.8857L86.0816 101.203C86.9905 102.758 86.9905 104.606 86.0816 106.161Z" fill="white"/>
<path d="M78.2822 114.726C79.1618 116.281 79.1618 118.129 78.2822 119.654C77.4026 121.209 75.7901 122.118 74.0017 122.118H58.6387V110.385H75.7901L78.2822 114.726Z" fill="white"/>
<path d="M55.209 116.282L59.8413 108.244V124.319L55.209 116.282Z" fill="white"/>
<path d="M47.7628 66.707H58.7866C58.3175 67.147 57.8778 67.675 57.5259 68.291L45.9451 88.3555L35.8008 82.4887L43.4823 69.1711C44.3618 67.6457 45.9744 66.707 47.7628 66.707Z" fill="white"/>
<path d="M59.08 69.1711C59.9595 67.6164 61.5721 66.707 63.3605 66.707C65.149 66.707 66.7322 67.6164 67.641 69.1711L75.3225 82.4887L65.1783 88.3555L56.5879 73.4832L59.08 69.1711Z" fill="white"/>
<path d="M71.9503 88.4135H62.6562L76.612 80.3467L71.9503 88.4135Z" fill="white"/>
<path d="M29.29 140.509H24.3938V145.027H29.8471V146.376H22.7812V133.821H29.5539V135.171H24.3938V139.131H29.2607V140.509H29.29Z" fill="white"/>
<path d="M35.6812 140.744V141.947H31.0781V140.744H35.6812Z" fill="white"/>
<path d="M39.4926 146.406L36.2969 133.851H37.9974L39.4926 140.216C39.8738 141.771 40.1963 143.355 40.4308 144.557H40.4601C40.6654 143.296 41.0465 141.829 41.4863 140.187L43.1575 133.851H44.8579L46.3825 140.216C46.7343 141.712 47.0862 143.208 47.2621 144.528H47.2914C47.5553 143.149 47.9071 141.741 48.2882 140.187L49.9594 133.851H51.6306L48.083 146.406H46.3825L44.7993 139.864C44.4182 138.251 44.1543 137.019 43.9784 135.757H43.9491C43.7145 137.019 43.4506 138.221 42.9815 139.864L41.1931 146.406H39.4926Z" fill="white"/>
<path d="M54.1819 142.445L52.8919 146.406H51.2207L55.4719 133.851H57.4363L61.7168 146.406H59.987L58.6383 142.445H54.1819ZM58.2865 141.184L57.0551 137.576C56.7619 136.755 56.586 136.021 56.4101 135.288H56.3808C56.2049 136.021 55.9997 136.784 55.7358 137.576L54.5044 141.213H58.2865V141.184Z" fill="white"/>
<path d="M63.3284 144.44C64.0614 144.88 65.1169 145.262 66.231 145.262C67.9021 145.262 68.8697 144.382 68.8697 143.12C68.8697 141.947 68.1953 141.272 66.4949 140.627C64.4425 139.894 63.1818 138.838 63.1818 137.078C63.1818 135.112 64.7944 133.675 67.2278 133.675C68.5178 133.675 69.456 133.968 70.0131 134.291L69.5733 135.611C69.1629 135.376 68.3126 135.024 67.1985 135.024C65.498 135.024 64.8237 136.051 64.8237 136.902C64.8237 138.075 65.586 138.662 67.3158 139.336C69.4267 140.158 70.5115 141.184 70.5115 143.032C70.5115 144.968 69.0749 146.64 66.1137 146.64C64.9116 146.64 63.5923 146.288 62.918 145.848L63.3284 144.44Z" fill="white"/>
<path d="M75.1142 135.229H71.3027V133.851H80.5968V135.229H76.756V146.406H75.1142V135.229Z" fill="white"/>
<path d="M88.4853 140.509H83.6184V145.027H89.0717V146.376H82.0059V133.821H88.7785V135.171H83.6184V139.131H88.4853V140.509Z" fill="white"/>
</svg>
