<svg width="142" height="203" viewBox="0 0 142 203" fill="none" xmlns="http://www.w3.org/2000/svg">
<path d="M142 192H5V203H142V192Z" fill="#999999"/>
<path d="M121.651 188.354V154H124.166L131 37H30L39.2307 195H112.797V188.354H121.651Z" fill="#1D1D1B"/>
<path d="M121.647 154.021H124.163L131 37H30L39.2346 195H112.778V175.858C112.778 164.993 115.53 154.021 121.647 154.021Z" fill="#282828"/>
<path d="M6 37L15.2297 195H101.993L107 37H6Z" fill="#464749"/>
<path d="M30 37L39.2307 0H121.769L131 37H30Z" fill="#282828"/>
<path d="M6 37L15.2297 0H101.993L107 37H6Z" fill="#7F7F7F"/>
<path d="M109 31H0V45H109V31Z" fill="#7F7F7F"/>
<path d="M109 45H137V31L109 31V45Z" fill="#282828"/>
<path d="M137 44H0V46H137V44Z" fill="#1D1D1B"/>
<path d="M113 194H15V196H113V194Z" fill="#1D1D1B"/>
<path d="M137 30H0V31H137V30Z" fill="#A3A2A2"/>
<path d="M121.5 157C117.905 157 115 165.515 115 176C115 186.485 117.905 195 121.5 195H130V157H121.5Z" fill="#494949"/>
<path d="M90.9156 27H24.0844C21.942 26.9944 19.889 26.1585 18.3742 24.675C16.8593 23.1915 16.0057 21.181 16 19.083H16.8839C16.8867 20.9523 17.6463 22.7442 18.996 24.066C20.3458 25.3878 22.1756 26.1316 24.0844 26.1344H90.9156C92.8244 26.1316 94.6542 25.3878 96.004 24.066C97.3537 22.7442 98.1133 20.9523 98.1161 19.083V12H99V19.083C98.9972 21.1819 98.1445 23.194 96.629 24.6781C95.1135 26.1622 93.0588 26.9972 90.9156 27Z" fill="#1D1D1B"/>
<path d="M16.8839 19H16V11.917C16.0057 9.81897 16.8593 7.80848 18.3742 6.32496C19.889 4.84145 21.942 4.00557 24.0844 4H90.9156C93.0588 4.00279 95.1135 4.83779 96.629 6.3219C98.1445 7.80602 98.9972 9.81811 99 11.917H98.1161C98.1133 10.0477 97.3537 8.25576 96.004 6.93397C94.6542 5.61219 92.8244 4.86839 90.9156 4.8656H24.0844C22.1756 4.86839 20.3458 5.61219 18.996 6.93397C17.6463 8.25576 16.8867 10.0477 16.8839 11.917V19Z" fill="#A3A2A2"/>
<path d="M91.1588 8H24.8412C22.7198 8 21 9.73574 21 11.8769V19.1231C21 21.2643 22.7198 23 24.8412 23H91.1588C93.2802 23 95 21.2643 95 19.1231V11.8769C95 9.73574 93.2802 8 91.1588 8Z" fill="#1D1D1B"/>
<path d="M20.8786 19H20V12.1083C20 11.0187 20.4515 9.97375 21.2553 9.20329C22.059 8.43284 23.1491 8 24.2857 8H90.7143C91.8509 8 92.941 8.43284 93.7447 9.20329C94.5485 9.97375 95 11.0187 95 12.1083H94.1214C94.1214 11.6794 94.0333 11.2547 93.8621 10.8584C93.6908 10.4621 93.4399 10.1021 93.1235 9.79883C92.8071 9.49554 92.4315 9.25494 92.0181 9.0908C91.6048 8.92666 91.1617 8.84221 90.7143 8.84221H24.2857C23.383 8.84492 22.518 9.18988 21.8796 9.80181C21.2413 10.4137 20.8814 11.2429 20.8786 12.1083V19Z" fill="#1D1D1B"/>
<path d="M90.6941 22.9999H24.2845C23.1482 22.9999 22.0584 22.5655 21.2549 21.7922C20.4514 21.0188 20 19.9699 20 18.8763H20.8783C20.8726 19.312 20.9572 19.7444 21.1272 20.1483C21.2971 20.5522 21.5491 20.9194 21.8682 21.2285C22.1873 21.5375 22.5673 21.7823 22.9859 21.9484C23.4044 22.1145 23.8532 22.1986 24.3059 22.1958H90.7155C91.6189 22.1958 92.4853 21.8504 93.124 21.2356C93.7628 20.6208 94.1217 19.787 94.1217 18.9175V12H95V18.9175C94.9887 20.0076 94.5294 21.049 93.7225 21.814C92.9156 22.5791 91.8267 23.0055 90.6941 22.9999Z" fill="#A3A2A2"/>
<path d="M116 182C116.843 189.583 119.154 195 121.877 195H130V182H116Z" fill="#282828"/>
<path d="M33.4753 121.537L28 112C28.6382 112.194 29.3013 112.294 29.9682 112.295H53V124H37.7257C36.8632 124.008 36.0142 123.783 35.2669 123.35C34.5195 122.917 33.901 122.291 33.4753 121.537Z" fill="white"/>
<path d="M30.069 111C29.1808 110.996 28.3091 110.763 27.5404 110.325C26.7718 109.886 26.133 109.257 25.6873 108.5C25.2417 107.743 25.0048 106.884 25.0001 106.009C24.9954 105.134 25.2231 104.273 25.6606 103.511L33.5436 90L44 95.948L35.2049 111H30.069Z" fill="white"/>
<path d="M40.3404 90L45 98L31 90H40.3404Z" fill="white"/>
<path d="M87.3609 108.369L81.9978 118C81.8513 117.336 81.6094 116.698 81.28 116.108L70 95.9104L79.8751 90L87.3609 103.437C87.7796 104.186 88 105.037 88 105.903C88 106.769 87.7796 107.62 87.3609 108.369Z" fill="white"/>
<path d="M79.3682 117.057C79.7866 117.763 80.0044 118.561 79.9999 119.373C79.9954 120.184 79.7688 120.98 79.3426 121.682C78.9164 122.384 78.3054 122.967 77.5702 123.374C76.8351 123.78 76.0014 123.996 75.1519 124H60V113H76.9693L79.3682 117.057Z" fill="white"/>
<path d="M56 118.494L61 110V127L56 118.494Z" fill="white"/>
<path d="M48.9646 68H60C59.5117 68.4739 59.0922 69.0159 58.7539 69.6098L47.1377 90L37 84.0761L44.7089 70.5112C45.1373 69.7484 45.7566 69.1143 46.5041 68.6733C47.2515 68.2323 48.1004 68 48.9646 68Z" fill="white"/>
<path d="M60.5234 70.5083C60.9637 69.7456 61.5966 69.1123 62.3586 68.672C63.1206 68.2318 63.9847 68 64.8644 68C65.744 68 66.6082 68.2318 67.3702 68.672C68.1321 69.1123 68.765 69.7456 69.2054 70.5083L77 84.0454L66.7034 90L58 74.8993L60.5234 70.5083Z" fill="white"/>
<path d="M73.3333 90L64 89.9896L78 82L73.3333 90Z" fill="white"/>
<path d="M31 142.352C31 146.699 28.4747 149 25.404 149C22.3333 149 20 146.413 20 142.638C20 138.619 22.3737 136 25.5859 136C28.798 136 31 138.598 31 142.352ZM21.6566 142.553C21.6566 145.257 23.0505 147.675 25.495 147.675C27.9394 147.675 29.3535 145.289 29.3535 142.426C29.3535 139.913 28.101 137.283 25.5152 137.283C22.9293 137.283 21.697 139.785 21.697 142.553H21.6566Z" fill="white"/>
<path d="M34 136.283C35.0144 136.095 36.0432 136.009 37.073 136.024C38.3351 135.897 39.5954 136.284 40.5967 137.106C40.9146 137.416 41.1652 137.795 41.3314 138.217C41.4976 138.64 41.5754 139.095 41.5595 139.552C41.5594 140.282 41.3359 140.992 40.9224 141.578C40.5089 142.163 39.9276 142.591 39.265 142.799V142.853C39.7529 143.085 40.1749 143.448 40.4893 143.905C40.8037 144.363 40.9996 144.899 41.0576 145.461C41.2704 146.668 41.5858 147.853 42 149H40.3611C40.0042 148 39.7333 146.967 39.5519 145.916C39.1933 144.141 38.5275 143.47 37.1037 143.415H35.5775V149H34V136.283ZM35.5775 142.16H37.1959C38.8758 142.16 39.9411 141.186 39.9411 139.714C39.9411 138.047 38.8041 137.322 37.1344 137.301C36.6116 137.285 36.0889 137.336 35.5775 137.452V142.16Z" fill="white"/>
<path d="M54 148.278C52.6812 148.728 51.2918 148.962 49.8906 148.971C48.9776 149.057 48.056 148.951 47.1908 148.661C46.3255 148.371 45.5376 147.905 44.8825 147.294C44.2274 146.684 43.721 145.944 43.3991 145.127C43.0772 144.311 42.9475 143.437 43.0192 142.567C43.0192 138.778 45.7812 136.003 50.2611 136.003C51.4149 135.971 52.5627 136.171 53.6295 136.59L53.2141 137.924C52.2833 137.54 51.2754 137.355 50.2611 137.38C49.5402 137.325 48.8155 137.42 48.1368 137.658C47.4582 137.895 46.8419 138.27 46.3306 138.756C45.8192 139.242 45.4249 139.828 45.175 140.473C44.9251 141.118 44.8255 141.807 44.883 142.493C44.883 145.695 46.9265 147.627 50.0366 147.627C50.8242 147.668 51.6123 147.552 52.3495 147.285V143.485H49.5875V142.162H54V148.278Z" fill="white"/>
<path d="M58.1224 144.91L56.7543 149H55L59.4684 136H61.5095L66 149H64.1795L62.7783 144.91H58.1224ZM62.4253 143.602L61.1454 139.861C60.8475 139.01 60.6489 138.236 60.4614 137.494C60.2738 138.258 60.0532 139.054 59.7994 139.839L58.5085 143.602H62.4253Z" fill="white"/>
<path d="M68 149V136.033H69.68L73.5 142.56C74.2934 143.913 75.0082 145.319 75.64 146.77C75.5 145.04 75.47 143.506 75.47 141.439V136H77V148.967H75.4L71.62 142.386C70.7914 140.989 70.0466 139.535 69.39 138.034H69.33C69.42 139.677 69.46 141.233 69.46 143.387V148.924L68 149Z" fill="white"/>
<path d="M82 136V149H80V136H82Z" fill="white"/>
<path d="M93.9779 148.392C92.8801 148.826 91.6988 149.032 90.512 148.996C86.8032 148.996 84.0106 146.75 84.0106 142.64C83.9583 141.759 84.0997 140.878 84.4256 140.054C84.7516 139.229 85.2547 138.48 85.9023 137.854C86.5499 137.229 87.3275 136.741 88.1845 136.423C89.0415 136.105 89.9586 135.963 90.8762 136.008C91.9484 135.965 93.0168 136.157 94 136.569L93.5916 137.904C92.7618 137.537 91.8559 137.356 90.9425 137.375C87.8518 137.375 85.8098 139.271 85.8098 142.587C85.8098 145.67 87.6642 147.661 90.8652 147.661C91.8171 147.672 92.7608 147.491 93.6357 147.131L93.9779 148.392Z" fill="white"/>
</svg>
