<svg width="138" height="199" viewBox="0 0 138 199" fill="none" xmlns="http://www.w3.org/2000/svg">
<g clip-path="url(#clip0_1205_21710)">
<path d="M137.999 187.57H4.65625V199H137.999V187.57Z" fill="#999999"/>
<path d="M29.2441 36.1093L38.2345 0H118.577L127.567 36.1093H29.2441Z" fill="#B74D04"/>
<path d="M5.99414 36.1093L14.9845 0H99.4484L104.317 36.1093H5.99414Z" fill="#FF7F00"/>
<path d="M118.459 184.212V150.598H120.909L127.567 36.1094H29.2441L38.2345 190.716H109.846V184.212H118.459Z" fill="#873A06"/>
<path d="M118.459 150.598H120.909L127.567 36.1094H29.2441L38.2345 190.716H109.846V171.961C109.846 161.33 112.507 150.598 118.459 150.598Z" fill="#B74D04"/>
<path d="M5.99414 36.1094L14.9845 190.716H99.4484L104.317 36.1094H5.99414Z" fill="#EA6400"/>
<path d="M106.566 29.9072H0V44.0328H106.566V29.9072Z" fill="#FF7F00"/>
<path d="M106.561 44.0264H133.344V29.9008L106.561 29.9008V44.0264Z" fill="#B74D04"/>
<path d="M133.343 43.459H0V44.6001H133.343V43.459Z" fill="#873A06"/>
<path d="M109.846 190.143H14.9844V191.284H109.846V190.143Z" fill="#873A06"/>
<path d="M133.343 29.333H0V30.4742H133.343V29.333Z" fill="#FF9F2C"/>
<path d="M118.459 153.212C115.138 153.212 112.441 161.608 112.441 171.961C112.441 182.315 115.138 190.717 118.459 190.717H126.324V153.212H118.459Z" fill="#494949"/>
<path d="M88.6612 26.6072H23.8267C21.7529 26.6056 19.7641 25.7792 18.2955 24.3088C16.8269 22.8384 15.998 20.8436 15.9902 18.761H16.8439C16.8455 20.6203 17.5817 22.4031 18.8909 23.7178C20.2 25.0326 21.9752 25.7719 23.8267 25.7735H88.6612C90.5132 25.7719 92.2889 25.0328 93.5991 23.7182C94.9092 22.4036 95.6467 20.6209 95.6498 18.761V11.707H96.5035V18.761C96.4941 20.8441 95.664 22.8389 94.1944 24.3092C92.7249 25.7794 90.7355 26.6057 88.6612 26.6072Z" fill="#873A06"/>
<path d="M16.8439 18.7607H15.9902V11.7068C15.9918 9.62006 16.8179 7.61923 18.2872 6.14368C19.7565 4.66813 21.7488 3.83848 23.8267 3.83691H88.6612C90.7396 3.83848 92.7325 4.66794 94.2027 6.14332C95.6729 7.6187 96.5004 9.61952 96.5035 11.7068H95.6498C95.6467 9.8469 94.9092 8.06416 93.5991 6.74956C92.2889 5.43496 90.5132 4.69583 88.6612 4.69427H23.8267C21.9752 4.69583 20.2 5.43515 18.8909 6.74992C17.5817 8.06469 16.8455 9.84744 16.8439 11.7068V18.7607Z" fill="#FF9F2C"/>
<path d="M88.667 7.94043H23.8266C21.7553 7.94043 20.0762 9.62672 20.0762 11.7069V18.7608C20.0762 20.8409 21.7553 22.5272 23.8266 22.5272H88.667C90.7383 22.5272 92.4174 20.8409 92.4174 18.7608V11.7069C92.4174 9.62672 90.7383 7.94043 88.667 7.94043Z" fill="#632A02"/>
<path d="M20.5002 18.7607H19.6465V11.7068C19.6496 10.5949 20.0912 9.52954 20.8746 8.74387C21.6581 7.95819 22.7195 7.51621 23.8267 7.51465H88.6612C89.7688 7.51465 90.8312 7.95613 91.615 8.74214C92.3988 9.52815 92.8399 10.5944 92.8414 11.7068H91.9877C91.9862 10.8218 91.635 9.97361 91.0113 9.34838C90.3877 8.72315 89.5424 8.372 88.6612 8.372H23.8267C22.9455 8.372 22.1003 8.72315 21.4766 9.34838C20.8529 9.97361 20.5017 10.8218 20.5002 11.7068V18.7607Z" fill="#873A06"/>
<path d="M88.6612 22.959H23.8267C22.7185 22.9575 21.6562 22.5147 20.8726 21.7277C20.089 20.9408 19.648 19.8739 19.6465 18.761H20.5002C20.5017 19.6465 20.8527 20.4953 21.4762 21.1215C22.0997 21.7476 22.9449 22.1001 23.8267 22.1017H88.6612C89.543 22.1001 90.3882 21.7476 91.0117 21.1215C91.6352 20.4953 91.9862 19.6465 91.9877 18.761V11.707H92.8414V18.761C92.8399 19.8739 92.3989 20.9408 91.6153 21.7277C90.8317 22.5147 89.7694 22.9575 88.6612 22.959Z" fill="#FF9F2C"/>
<path d="M112.771 178.087C113.59 185.436 115.821 190.717 118.459 190.717H126.325V178.087H112.771Z" fill="#282828"/>
<path d="M126.326 190.711C129.646 190.711 132.337 182.316 132.337 171.961C132.337 161.606 129.646 153.212 126.326 153.212C123.006 153.212 120.314 161.606 120.314 171.961C120.314 182.316 123.006 190.711 126.326 190.711Z" fill="#1D1D1B"/>
<path d="M126.325 184.785C126.238 184.809 126.146 184.813 126.057 184.795C125.969 184.778 125.885 184.74 125.813 184.685C125.741 184.629 125.683 184.558 125.643 184.477C125.603 184.395 125.582 184.306 125.582 184.215C125.582 184.124 125.603 184.034 125.643 183.953C125.683 183.871 125.741 183.8 125.813 183.745C125.885 183.69 125.969 183.652 126.057 183.635C126.146 183.617 126.238 183.62 126.325 183.644C127.726 183.644 129.681 179.198 129.681 171.961C129.681 164.723 127.726 160.283 126.325 160.283C126.238 160.307 126.146 160.31 126.057 160.293C125.969 160.275 125.885 160.237 125.813 160.182C125.741 160.127 125.683 160.056 125.643 159.974C125.603 159.893 125.582 159.803 125.582 159.712C125.582 159.621 125.603 159.532 125.643 159.45C125.683 159.369 125.741 159.298 125.813 159.243C125.885 159.187 125.969 159.15 126.057 159.132C126.146 159.115 126.238 159.118 126.325 159.142C129.269 159.142 130.817 165.746 130.817 171.961C130.817 178.175 129.245 184.785 126.325 184.785Z" fill="#707070"/>
<path d="M125.543 178.086C126.629 178.086 127.509 175.344 127.509 171.961C127.509 168.577 126.629 165.835 125.543 165.835C124.457 165.835 123.576 168.577 123.576 171.961C123.576 175.344 124.457 178.086 125.543 178.086Z" fill="#B74D04"/>
<path d="M123.581 189.209C123.484 189.21 123.388 189.185 123.303 189.138C123.218 189.09 123.148 189.02 123.098 188.937C121.026 185.619 119.742 179.11 119.742 171.943C119.742 165.179 120.92 158.852 122.821 155.423C122.843 155.334 122.884 155.252 122.942 155.181C123.001 155.111 123.075 155.056 123.158 155.019C123.241 154.983 123.332 154.966 123.423 154.97C123.513 154.975 123.602 155 123.681 155.045C123.761 155.09 123.829 155.152 123.88 155.227C123.931 155.303 123.965 155.389 123.977 155.48C123.99 155.57 123.981 155.662 123.952 155.749C123.923 155.835 123.875 155.914 123.811 155.979C122.003 159.249 120.867 165.362 120.867 171.943C120.867 178.908 122.085 185.188 124.046 188.333C124.121 188.463 124.145 188.616 124.112 188.762C124.079 188.907 123.992 189.036 123.869 189.12C123.783 189.174 123.683 189.205 123.581 189.209Z" fill="#707070"/>
<path d="M32.5829 119.319L27.1133 109.806C27.7531 109.999 28.4176 110.096 29.0856 110.095H52.0886V121.803H36.8279C35.9641 121.806 35.1151 121.578 34.3688 121.141C33.6224 120.705 33.0058 120.076 32.5829 119.319Z" fill="white"/>
<path d="M29.085 108.315C28.2246 108.314 27.3797 108.085 26.6351 107.652C25.8905 107.219 25.2723 106.597 24.8424 105.848C24.4125 105.1 24.186 104.251 24.1855 103.387C24.1851 102.522 24.4108 101.673 24.84 100.924L32.4939 87.6562L42.5735 93.4981L34.0247 108.315H29.085Z" fill="white"/>
<path d="M39.2122 87.6035L43.8222 95.6271L29.9922 87.6094L39.2122 87.6035Z" fill="white"/>
<path d="M85.4697 105.803L80.0001 115.299C79.8513 114.645 79.6051 114.017 79.27 113.437L67.7656 93.4219L77.8394 87.5801L85.4933 100.854C85.9305 101.606 86.1589 102.462 86.1547 103.332C86.1506 104.202 85.914 105.056 85.4697 105.803Z" fill="white"/>
<path d="M77.7166 114.347C78.1462 115.096 78.3722 115.945 78.3719 116.809C78.3717 117.673 78.1451 118.521 77.715 119.27C77.285 120.018 76.6665 120.639 75.9216 121.071C75.1768 121.504 74.3319 121.732 73.4716 121.732H58.2227V110.049H75.2614L77.7166 114.347Z" fill="white"/>
<path d="M54.8086 115.89L59.4245 107.872V123.907L54.8086 115.89Z" fill="white"/>
<path d="M47.4124 66.4834H58.3517C57.8622 66.9429 57.4435 67.4729 57.1094 68.0562L45.6108 88.0591L35.5371 82.2173L43.191 68.9431C43.616 68.1955 44.2304 67.5741 44.9718 67.1421C45.7132 66.7101 46.5553 66.4829 47.4124 66.4834Z" fill="white"/>
<path d="M58.6525 68.943C59.0833 68.1953 59.7022 67.5746 60.4473 67.1431C61.1924 66.7115 62.0374 66.4844 62.8975 66.4844C63.7576 66.4844 64.6026 66.7115 65.3476 67.1431C66.0927 67.5746 66.7117 68.1953 67.1424 68.943L74.7964 82.2171L64.7226 88.0589L56.1797 73.2415L58.6525 68.943Z" fill="white"/>
<path d="M71.4466 88.1125L62.2207 88.1066L76.0507 80.0889L71.4466 88.1125Z" fill="white"/>
<path d="M24.8926 133.54C25.9125 133.373 26.9444 133.292 27.9777 133.297C29.5732 133.297 30.7331 133.67 31.4749 134.338C31.835 134.669 32.1189 135.075 32.307 135.527C32.4951 135.979 32.5828 136.467 32.5642 136.957C32.589 137.444 32.5169 137.932 32.3521 138.39C32.1873 138.849 31.9332 139.271 31.6045 139.63C31.0949 140.105 30.4947 140.473 29.8401 140.71C29.1854 140.946 28.4898 141.048 27.7952 141.007C27.3605 141.022 26.9256 140.984 26.4999 140.895V145.909H24.8926V133.54ZM26.494 139.576C26.9303 139.676 27.3774 139.72 27.8246 139.707C29.7675 139.707 30.9509 138.761 30.9509 137.034C30.9509 135.307 29.7734 134.58 28.0071 134.58C27.4975 134.564 26.9878 134.608 26.4881 134.71L26.494 139.576Z" fill="white"/>
<path d="M34.7363 133.392H36.3436V144.555H41.6425V145.909H34.7363V133.392Z" fill="white"/>
<path d="M45.4751 141.971L44.1563 145.909H42.5137L46.7469 133.392H48.6898L52.9465 145.909H51.2215L49.885 141.971H45.4751ZM49.5612 140.723L48.3424 137.123C48.0598 136.307 47.8773 135.562 47.6948 134.84H47.6536C47.4711 135.579 47.265 136.342 47.0295 137.105L45.8049 140.723H49.5612Z" fill="white"/>
<path d="M54.5547 143.94C55.4267 144.466 56.4227 144.747 57.4396 144.756C59.0823 144.756 60.0478 143.887 60.0478 142.622C60.0478 141.439 59.3825 140.783 57.6928 140.132C55.6557 139.411 54.4016 138.359 54.4016 136.585C54.4016 134.634 56.0089 133.185 58.4346 133.185C59.3878 133.148 60.3351 133.351 61.19 133.776L60.7426 135.095C60.0188 134.704 59.2093 134.501 58.3875 134.503C56.686 134.503 56.0325 135.52 56.0325 136.378C56.0325 137.56 56.792 138.122 58.5112 138.79C60.6189 139.606 61.6905 140.629 61.6905 142.468C61.6905 144.401 60.2716 146.069 57.3278 146.069C56.217 146.084 55.1213 145.809 54.1484 145.271L54.5547 143.94Z" fill="white"/>
<path d="M66.2584 134.763H62.4668V133.392H71.6986V134.763H67.8893V145.909H66.2584V134.763Z" fill="white"/>
<path d="M74.6913 133.392V145.909H73.084V133.392H74.6913Z" fill="white"/>
<path d="M86.2133 145.502C85.17 145.929 84.0484 146.131 82.9221 146.093C79.3895 146.093 76.7637 143.864 76.7637 139.76C76.7637 135.846 79.4072 133.185 83.2754 133.185C84.2865 133.144 85.2937 133.336 86.2192 133.747L85.8306 135.066C85.0421 134.705 84.1828 134.527 83.3166 134.545C80.3728 134.545 78.4534 136.42 78.4534 139.707C78.4534 142.77 80.2197 144.739 83.2459 144.739C84.148 144.753 85.0429 144.576 85.8718 144.218L86.2133 145.502Z" fill="white"/>
</g>
<defs>
<clipPath id="clip0_1205_21710">
<rect width="138" height="199" fill="white"/>
</clipPath>
</defs>
</svg>
