<svg width="138" height="198" viewBox="0 0 138 198" fill="none" xmlns="http://www.w3.org/2000/svg">
<path d="M137.59 186.298H4.64258V197.651H137.59V186.298Z" fill="#999999"/>
<path d="M118.086 182.959V149.567H120.553L127.17 35.8594H29.1641L38.1027 189.434H109.495V182.959H118.086Z" fill="#7C0404"/>
<path d="M118.086 149.567H120.524L127.17 35.8594H29.1641L38.1317 189.405H109.525V170.792C109.495 160.223 112.165 149.567 118.086 149.567Z" fill="#A50202"/>
<path d="M5.98047 35.8594L14.9481 189.434H99.1394L104.015 35.8594H5.98047Z" fill="#EA0303"/>
<path d="M29.1641 35.8602L38.1027 0H118.202L127.17 35.8602H29.1641Z" fill="#A50202"/>
<path d="M5.98047 35.8602L14.9481 0H99.1394L104.015 35.8602H5.98047Z" fill="#FF2615"/>
<path d="M106.248 29.7041H0V43.7288H106.248V29.7041Z" fill="#FF2615"/>
<path d="M106.23 43.7256H132.93V29.7009L106.23 29.7009V43.7256Z" fill="#A50202"/>
<path d="M132.947 43.1484H0V44.2809H132.947V43.1484Z" fill="#7C0404"/>
<path d="M109.528 188.854H14.9473V189.986H109.528V188.854Z" fill="#7C0404"/>
<path d="M132.947 29.124H0V30.2565H132.947V29.124Z" fill="#FC5447"/>
<path d="M118.088 152.18C114.779 152.18 112.08 160.514 112.08 170.793C112.08 181.072 114.75 189.405 118.088 189.405H125.923V152.151H118.088V152.18Z" fill="#494949"/>
<path d="M88.4002 26.4522H23.7404C19.4452 26.4522 15.9336 22.9388 15.9336 18.6414H16.7752C16.7752 22.4742 19.9095 25.6102 23.7404 25.6102H88.3712C92.202 25.6102 95.3363 22.4742 95.3363 18.6414V11.6436H96.178V18.6414C96.207 22.9388 92.6954 26.4522 88.4002 26.4522Z" fill="#A50202"/>
<path d="M16.8045 18.6427H15.9629V11.6448C15.9629 7.34742 19.4745 3.83398 23.7697 3.83398H88.4005C92.6957 3.83398 96.2073 7.34742 96.2073 11.6448H95.3656C95.3656 7.81201 92.2313 4.67605 88.4005 4.67605H23.7406C19.9098 4.67605 16.7755 7.81201 16.7755 11.6448V18.6427H16.8045Z" fill="#FC5447"/>
<path d="M23.7711 7.89746C21.7106 7.89746 20.0273 9.58159 20.0273 11.6432V18.641C20.0273 20.7026 21.7106 22.3867 23.7711 22.3867H88.4019C90.4625 22.3867 92.1457 20.7026 92.1457 18.641V11.6432C92.1457 9.58159 90.4625 7.89746 88.4019 7.89746H23.7711Z" fill="#5B0202"/>
<path d="M20.4334 18.642H19.5918V11.6442C19.5918 9.35028 21.4492 7.46289 23.7709 7.46289H88.4017C90.6944 7.46289 92.5808 9.32124 92.5808 11.6442H91.7102C91.7102 9.81486 90.2301 8.33399 88.4017 8.33399H23.7419C21.9135 8.33399 20.4334 9.81486 20.4334 11.6442V18.642Z" fill="#A50202"/>
<path d="M88.3995 22.7943H23.7396C21.4469 22.7943 19.5605 20.936 19.5605 18.613H20.4022C20.4022 20.4424 21.8823 21.9232 23.7106 21.9232H88.3414C90.1698 21.9232 91.6499 20.4424 91.6499 18.613V11.6152H92.4915V18.613C92.5496 20.936 90.6922 22.7943 88.3995 22.7943Z" fill="#FC5447"/>
<path d="M112.43 176.892C113.242 184.18 115.477 189.435 118.089 189.435H125.925V176.892H112.43Z" fill="#282828"/>
<path d="M125.923 189.405C129.241 189.405 131.931 181.072 131.931 170.792C131.931 160.513 129.241 152.18 125.923 152.18C122.606 152.18 119.916 160.513 119.916 170.792C119.916 181.072 122.606 189.405 125.923 189.405Z" fill="#1D1D1B"/>
<path d="M126.33 183.541C126.011 183.541 125.75 183.28 125.75 182.96C125.75 182.641 126.011 182.38 126.33 182.38C127.578 182.38 129.291 177.966 129.291 170.794C129.291 163.593 127.578 159.208 126.33 159.208C126.011 159.208 125.75 158.947 125.75 158.628C125.75 158.308 126.011 158.047 126.33 158.047C129 158.047 130.422 164.464 130.422 170.794C130.422 177.124 129.029 183.541 126.33 183.541Z" fill="#707070"/>
<path d="M125.169 176.891C126.243 176.891 127.113 174.161 127.113 170.793C127.113 167.425 126.243 164.695 125.169 164.695C124.095 164.695 123.225 167.425 123.225 170.793C123.225 174.161 124.095 176.891 125.169 176.891Z" fill="#A50202"/>
<path d="M123.196 187.954C122.993 187.954 122.819 187.867 122.703 187.693C120.642 184.411 119.365 177.936 119.365 170.822C119.365 164.115 120.555 157.814 122.442 154.417C122.587 154.155 122.935 154.039 123.225 154.184C123.486 154.33 123.602 154.678 123.457 154.968C121.658 158.22 120.526 164.289 120.526 170.822C120.526 177.733 121.745 183.976 123.689 187.112C123.864 187.373 123.777 187.722 123.515 187.896C123.399 187.925 123.312 187.954 123.196 187.954Z" fill="#707070"/>
<path d="M32.4736 118.497L27.0176 109.061C27.6561 109.264 28.2945 109.351 28.991 109.351H51.918V120.966H36.7108C34.9404 120.966 33.3733 120.036 32.4736 118.497Z" fill="white"/>
<path d="M28.9897 107.579C27.2194 107.579 25.6523 106.679 24.7526 105.14C23.8819 103.601 23.8819 101.772 24.7526 100.262L32.3562 87.0791L42.3976 92.8864L33.8944 107.608L28.9897 107.579Z" fill="white"/>
<path d="M39.0885 87.0215L43.6739 94.9775L29.8887 87.0215H39.0885Z" fill="white"/>
<path d="M85.2056 105.083L79.7496 114.52C79.6045 113.881 79.3433 113.271 79.024 112.662L67.5605 92.8005L77.602 86.9932L85.2056 100.176C86.1053 101.715 86.1053 103.544 85.2056 105.083Z" fill="white"/>
<path d="M77.4874 113.561C78.358 115.1 78.358 116.929 77.4874 118.439C76.6167 119.978 75.0205 120.878 73.2502 120.878H58.043V109.264H75.0205L77.4874 113.561Z" fill="white"/>
<path d="M54.6465 115.1L59.2319 107.144V123.056L54.6465 115.1Z" fill="white"/>
<path d="M47.2744 66.0293H58.1864C57.7221 66.4648 57.2868 66.9875 56.9385 67.5972L45.475 87.4583L35.4336 81.651L43.0372 68.4683C43.9079 66.9584 45.504 66.0293 47.2744 66.0293Z" fill="white"/>
<path d="M58.4785 68.4683C59.3492 66.9294 60.9454 66.0293 62.7157 66.0293C64.486 66.0293 66.0531 66.9294 66.9528 68.4683L74.5564 81.651L64.515 87.4583L56.0117 72.7367L58.4785 68.4683Z" fill="white"/>
<path d="M71.2174 87.5163H62.0176L75.8318 79.5312L71.2174 87.5163Z" fill="white"/>
<path d="M40.8895 139.462C40.8024 137.72 40.6863 135.629 40.7153 134.09H40.6283C40.1929 135.542 39.6996 137.11 39.0611 138.823L36.8555 144.863H35.6366L33.6341 138.94C33.0537 137.197 32.5603 135.571 32.183 134.119H32.154C32.125 135.658 32.0379 137.749 31.9218 139.607L31.6026 144.95H30.0645L30.9351 132.522H32.9956L35.1142 138.533C35.6366 140.072 36.0429 141.437 36.3621 142.714H36.4202C36.7394 141.466 37.1747 140.101 37.7261 138.533L39.9318 132.522H41.9923L42.7759 144.95H41.2087L40.8895 139.462Z" fill="white"/>
<path d="M51.6559 139.085H46.8384V143.557H52.2364V144.893H45.2422V132.465H51.9461V133.801H46.8384V137.72H51.6559V139.085Z" fill="white"/>
<path d="M56.9662 133.859H53.1934V132.494H62.3932V133.859H58.5914V144.922H56.9662V133.859Z" fill="white"/>
<path d="M64.396 141.002L63.1191 144.922H61.4648L65.673 132.494H67.6174L71.8545 144.922H70.1423L68.8073 141.002H64.396ZM68.459 139.753L67.2401 136.182C66.9499 135.369 66.7758 134.643 66.6016 133.917H66.5726C66.3985 134.643 66.1953 135.398 65.9341 136.182L64.7152 139.782H68.459V139.753Z" fill="white"/>
<path d="M73.6562 132.494H75.2524V143.586H80.5634V144.922H73.6562V132.494Z" fill="white"/>
</svg>
