<svg width="140" height="201" viewBox="0 0 140 201" fill="none" xmlns="http://www.w3.org/2000/svg">
<g clip-path="url(#clip0_1205_21671)">
<path d="M139.999 189.456H4.72266V201H139.999V189.456Z" fill="#999999"/>
<path d="M120.169 186.063V152.109H122.66L129.41 36.4717H29.6719L38.7885 192.634H111.436V186.063H120.169Z" fill="#175603"/>
<path d="M120.168 152.109H122.659L129.41 36.4717H29.6621L38.7877 192.634H111.435V173.689C111.435 162.948 114.132 152.109 120.168 152.109Z" fill="#1E7F03"/>
<path d="M6.08008 36.4717L15.1967 192.634H100.89L105.828 36.4717H6.08008Z" fill="#2DA800"/>
<path d="M29.6719 36.4716L38.7885 0H120.294L129.41 36.4716H29.6719Z" fill="#1E7F03"/>
<path d="M6.08008 36.4716L15.1967 0H100.89L105.828 36.4716H6.08008Z" fill="#5CC600"/>
<path d="M108.105 30.2041H0V44.4713H108.105V30.2041Z" fill="#5CC600"/>
<path d="M108.106 44.4717H135.277V30.2045L108.106 30.2045V44.4717Z" fill="#1E7F03"/>
<path d="M135.276 43.6055H0V44.7572H135.276V43.6055Z" fill="#175603"/>
<path d="M135.276 29.6328H0V30.7845H135.276V29.6328Z" fill="#82ED1B"/>
<path d="M120.169 154.752C116.803 154.752 114.07 163.234 114.07 173.689C114.07 184.143 116.803 192.634 120.169 192.634H128.152V154.752H120.169Z" fill="#494949"/>
<path d="M89.9517 26.9003H24.1707C22.0614 26.8979 20.0392 26.059 18.5477 24.5677C17.0562 23.0764 16.2172 21.0543 16.2148 18.9453H17.1078C17.1218 20.8211 17.8732 22.616 19.1998 23.9424C20.5263 25.2689 22.3215 26.0202 24.1975 26.0342H89.9785C91.8572 26.0319 93.6583 25.284 94.9859 23.9548C96.3136 22.6256 97.0593 20.8238 97.0593 18.9453V11.8027H97.9522V18.9453C97.9522 19.9937 97.745 21.0318 97.3424 21.9999C96.9397 22.9679 96.3497 23.8469 95.6062 24.5862C94.8627 25.3254 93.9804 25.9105 93.01 26.3076C92.0396 26.7047 91.0002 26.9062 89.9517 26.9003Z" fill="#175603"/>
<path d="M17.0824 18.9452H16.1895V11.8027C16.1918 9.69359 17.0308 7.67157 18.5223 6.18023C20.0138 4.68889 22.036 3.85002 24.1453 3.84766H89.9263C92.0348 3.85002 94.0561 4.68918 95.5462 6.18078C97.0363 7.67237 97.8732 9.69441 97.8732 11.8027H96.9803C96.9803 9.92409 96.2346 8.12234 94.9069 6.79315C93.5793 5.46397 91.7783 4.71606 89.8995 4.71369H24.1721C22.2961 4.72771 20.501 5.47908 19.1744 6.80549C17.8478 8.13191 17.0964 9.92688 17.0824 11.8027V18.9452Z" fill="#82ED1B"/>
<path d="M89.952 8.01758H24.171C22.0702 8.01758 20.3672 9.72042 20.3672 11.821V18.9457C20.3672 21.0462 22.0702 22.7491 24.171 22.7491H89.952C92.0528 22.7491 93.7558 21.0462 93.7558 18.9457V11.821C93.7558 9.72042 92.0528 8.01758 89.952 8.01758Z" fill="#0F3302"/>
<path d="M20.7953 18.9456H19.9023V11.8031C19.9059 11.2461 20.019 10.6953 20.2354 10.1822C20.4518 9.66897 20.7672 9.20343 21.1635 8.81211C21.5599 8.4208 22.0294 8.11137 22.5453 7.9015C23.0613 7.69163 23.6135 7.58542 24.1705 7.58895H89.9515C91.0748 7.59132 92.1513 8.03917 92.9448 8.83423C93.7382 9.62929 94.1839 10.7066 94.1839 11.8298H93.291C93.2921 11.3871 93.2059 10.9484 93.0373 10.539C92.8686 10.1296 92.6209 9.7575 92.3082 9.444C91.9955 9.13049 91.624 8.88176 91.215 8.71205C90.806 8.54234 90.3675 8.45498 89.9247 8.45499H24.1705C23.2753 8.45499 22.4168 8.81055 21.7838 9.44346C21.1509 10.0764 20.7953 10.9348 20.7953 11.8298V18.9456Z" fill="#175603"/>
<path d="M89.952 23.2129H24.171C23.0462 23.2129 21.9674 22.7661 21.1719 21.9708C20.3765 21.1755 19.9297 20.0968 19.9297 18.9721H20.8226C20.8296 19.8579 21.1846 20.7054 21.8111 21.3318C22.4375 21.9581 23.2851 22.3131 24.171 22.3201H89.952C90.3948 22.3201 90.8333 22.2328 91.2423 22.0631C91.6513 21.8933 92.0228 21.6446 92.3355 21.3311C92.6482 21.0176 92.896 20.6455 93.0646 20.2361C93.2333 19.8267 93.3195 19.388 93.3183 18.9453V11.8027H94.2112V18.9453C94.2148 19.5059 94.1071 20.0618 93.8944 20.5806C93.6817 21.0994 93.3683 21.5708 92.9722 21.9677C92.5761 22.3646 92.1052 22.679 91.5868 22.8927C91.0684 23.1065 90.5128 23.2153 89.952 23.2129Z" fill="#82ED1B"/>
<path d="M114.408 179.876C115.23 187.304 117.498 192.634 120.167 192.634H128.15V179.876H114.408Z" fill="#282828"/>
<path d="M128.151 192.625C131.52 192.625 134.25 184.147 134.25 173.689C134.25 163.23 131.52 154.752 128.151 154.752C124.783 154.752 122.053 163.23 122.053 173.689C122.053 184.147 124.783 192.625 128.151 192.625Z" fill="#1D1D1B"/>
<path d="M128.15 186.643C128.069 186.654 127.986 186.646 127.907 186.622C127.829 186.598 127.756 186.557 127.694 186.503C127.633 186.448 127.583 186.381 127.549 186.306C127.516 186.231 127.498 186.15 127.498 186.068C127.498 185.985 127.516 185.904 127.549 185.829C127.583 185.754 127.633 185.687 127.694 185.632C127.756 185.578 127.829 185.537 127.907 185.513C127.986 185.489 128.069 185.481 128.15 185.492C129.57 185.492 131.561 181.028 131.561 173.689C131.561 166.35 129.57 161.894 128.15 161.894C128.069 161.905 127.986 161.897 127.907 161.873C127.829 161.849 127.756 161.808 127.694 161.754C127.633 161.699 127.583 161.632 127.549 161.557C127.516 161.482 127.498 161.401 127.498 161.319C127.498 161.236 127.516 161.155 127.549 161.08C127.583 161.005 127.633 160.938 127.694 160.884C127.756 160.829 127.829 160.788 127.907 160.764C127.986 160.74 128.069 160.733 128.15 160.743C131.115 160.743 132.713 167.412 132.713 173.689C132.713 179.965 131.115 186.643 128.15 186.643Z" fill="#707070"/>
<path d="M127.356 179.876C128.456 179.876 129.348 177.106 129.348 173.689C129.348 170.272 128.456 167.502 127.356 167.502C126.257 167.502 125.365 170.272 125.365 173.689C125.365 177.106 126.257 179.876 127.356 179.876Z" fill="#1E7F03"/>
<path d="M111.436 192.054H15.1973V193.205H111.436V192.054Z" fill="#175603"/>
<path d="M125.364 191.126C125.267 191.124 125.172 191.098 125.086 191.052C125.001 191.005 124.928 190.939 124.873 190.858C122.775 187.492 121.436 180.93 121.436 173.689C121.436 166.859 122.632 160.467 124.561 157.002C124.643 156.884 124.766 156.8 124.907 156.768C125.047 156.735 125.194 156.756 125.32 156.826C125.446 156.897 125.541 157.011 125.587 157.148C125.634 157.284 125.627 157.433 125.57 157.565C123.73 160.868 122.596 167.047 122.596 173.689C122.596 180.725 123.829 187.081 125.82 190.242C125.876 190.33 125.907 190.431 125.911 190.535C125.914 190.64 125.889 190.743 125.839 190.834C125.789 190.926 125.715 191.002 125.625 191.055C125.535 191.107 125.433 191.135 125.329 191.135L125.364 191.126Z" fill="#707070"/>
<path d="M33.038 120.531L27.502 110.906C28.1507 111.103 28.8243 111.205 29.5021 111.21H52.8429V123.004H37.3597C36.4845 123.013 35.6225 122.789 34.8629 122.354C34.1032 121.92 33.4732 121.29 33.038 120.531Z" fill="white"/>
<path d="M29.4662 109.406C28.5939 109.403 27.7376 109.171 26.9829 108.734C26.2283 108.296 25.6018 107.668 25.166 106.913C24.7303 106.157 24.5006 105.3 24.5 104.428C24.4994 103.556 24.7278 102.698 25.1624 101.942L32.904 88.5498L43.1189 94.4513L34.4844 109.415L29.4662 109.406Z" fill="white"/>
<path d="M39.7785 88.4873L44.4574 96.5941L30.4297 88.4873H39.7785Z" fill="white"/>
<path d="M86.7104 106.861L81.1565 116.477C81.0091 115.814 80.759 115.179 80.4154 114.593L68.7539 94.3888L78.9778 88.4873L86.7193 101.88C87.1624 102.635 87.3952 103.496 87.3937 104.372C87.3921 105.248 87.1562 106.107 86.7104 106.861Z" fill="white"/>
<path d="M78.8534 115.495C79.288 116.252 79.5164 117.109 79.5158 117.981C79.5151 118.853 79.2855 119.71 78.8497 120.466C78.414 121.221 77.7875 121.849 77.0329 122.287C76.2782 122.725 75.4219 122.956 74.5495 122.959H59.0664V111.156H76.3532L78.8534 115.495Z" fill="white"/>
<path d="M55.6016 117.057L60.2804 108.959V125.155L55.6016 117.057Z" fill="white"/>
<path d="M48.1012 67.1489H59.2001C58.7034 67.6162 58.2791 68.1548 57.9411 68.7471L46.2707 88.9426L36.0469 83.0322L43.7527 69.6399C44.1879 68.8732 44.821 68.2375 45.586 67.7993C46.351 67.3611 47.2197 67.1365 48.1012 67.1489Z" fill="white"/>
<path d="M59.5032 69.64C59.9384 68.8833 60.5654 68.2547 61.321 67.8176C62.0766 67.3805 62.9341 67.1504 63.8071 67.1504C64.68 67.1504 65.5376 67.3805 66.2932 67.8176C67.0488 68.2547 67.6758 68.8833 68.1109 69.64L75.8971 83.0323L65.6375 88.9427L56.9941 73.9791L59.5032 69.64Z" fill="white"/>
<path d="M72.4769 88.9964L63.1191 88.9875L77.1558 80.8896L72.4769 88.9964Z" fill="white"/>
<path d="M41.5294 146.815C40.2825 147.262 38.9697 147.498 37.6452 147.512C36.7812 147.595 35.9093 147.489 35.091 147.199C34.2727 146.909 33.5279 146.444 32.909 145.835C32.2901 145.227 31.8122 144.49 31.5089 143.676C31.2057 142.863 31.0844 141.993 31.1537 141.128C31.1537 137.36 33.761 134.602 38.0024 134.602C39.0817 134.577 40.1545 134.775 41.1544 135.182L40.7615 136.512C39.8799 136.132 38.9266 135.946 37.9667 135.968C37.2846 135.914 36.599 136.009 35.9571 136.245C35.3152 136.482 34.7323 136.855 34.2485 137.339C33.7647 137.823 33.3916 138.406 33.1548 139.047C32.9181 139.689 32.8233 140.375 32.877 141.057C32.877 144.262 34.8147 146.155 37.7524 146.155C38.4936 146.197 39.2356 146.084 39.9311 145.824V142.048H37.3595V140.735H41.5294V146.815Z" fill="white"/>
<path d="M44.0215 134.735H45.6555V146.012H51.013V147.378H44.0215V134.735Z" fill="white"/>
<path d="M54.924 143.396L53.5757 147.378H51.9238L56.2545 134.735H58.2189L62.5049 147.378H60.719L59.3707 143.396H54.924ZM59.0671 142.128L57.8349 138.485C57.5492 137.664 57.3617 136.905 57.1742 136.182C56.9866 136.932 56.7813 137.699 56.5313 138.467L55.299 142.128H59.0671Z" fill="white"/>
<path d="M64.1287 145.387C65.0126 145.921 66.0243 146.208 67.0574 146.217C68.7272 146.217 69.7362 145.324 69.7362 144.056C69.7362 142.789 69.0665 142.199 67.361 141.539C65.2984 140.815 64.0215 139.753 64.0215 137.967C64.0215 136.003 65.6466 134.539 68.1111 134.539C69.0798 134.504 70.0416 134.716 70.9059 135.155L70.4505 136.485C69.7121 136.089 68.8865 135.884 68.0485 135.887C66.3252 135.887 65.6734 136.914 65.6734 137.78C65.6734 138.958 66.4413 139.565 68.1825 140.217C70.3255 141.048 71.4059 142.074 71.4059 143.931C71.4059 145.788 69.9683 147.574 66.9413 147.574C65.8129 147.587 64.7 147.31 63.709 146.77L64.1287 145.387Z" fill="white"/>
<path d="M73.3795 145.387C74.2634 145.921 75.2751 146.208 76.3082 146.217C77.978 146.217 78.987 145.324 78.987 144.056C78.987 142.788 78.3173 142.199 76.6029 141.538C74.5403 140.815 73.2634 139.753 73.2634 137.967C73.2634 136.003 74.8974 134.539 77.353 134.539C78.3246 134.504 79.2891 134.716 80.1567 135.155L79.7013 136.485C78.9625 136.09 78.1372 135.885 77.2994 135.887C75.5761 135.887 74.9153 136.914 74.9153 137.78C74.9153 138.958 75.6832 139.565 77.4333 140.217C79.5674 141.047 80.6567 142.074 80.6567 143.931C80.6567 145.788 79.2102 147.574 76.1922 147.574C75.0667 147.586 73.957 147.309 72.9688 146.77L73.3795 145.387Z" fill="white"/>
</g>
<defs>
<clipPath id="clip0_1205_21671">
<rect width="140" height="201" fill="white"/>
</clipPath>
</defs>
</svg>
