<svg width="800" height="360" viewBox="0 0 800 360" fill="none" xmlns="http://www.w3.org/2000/svg">
<g clip-path="url(#clip0_918_25308)">
<path d="M316.319 199.44C333.23 190.353 398.462 160.986 476.064 199.585C477.941 200.517 477.921 203.209 476.029 204.106C404.619 237.934 334.534 211.818 316.504 203.946C314.587 203.109 314.478 200.432 316.319 199.44Z" fill="#8AC251"/>
<path d="M414.496 195.143C414.466 195.143 414.436 195.143 414.407 195.138C413.983 195.083 413.197 194.989 413.262 194.246C413.321 193.513 413.944 193.523 415.064 193.538C415.795 193.548 416.886 193.583 418.319 193.643C407.467 173.554 426.583 161.675 426.782 161.55C427.125 161.341 427.568 161.455 427.772 161.794C427.982 162.138 427.872 162.582 427.529 162.791C427.479 162.821 422.71 165.752 419.454 171.066C415.133 178.125 415.387 185.856 420.211 194.052C420.345 194.281 420.345 194.565 420.206 194.794C420.067 195.024 419.818 195.158 419.554 195.143C417.015 195.029 415.666 194.989 414.949 194.984C414.825 195.083 414.665 195.143 414.496 195.143Z" fill="#2B3333"/>
<path d="M403.942 169.266C403.818 169.266 403.694 169.236 403.584 169.172C403.236 168.972 403.121 168.529 403.32 168.18L414.237 149.232C414.436 148.883 414.879 148.768 415.228 148.968C415.576 149.167 415.691 149.611 415.491 149.96L404.575 168.907C404.435 169.137 404.191 169.266 403.942 169.266Z" fill="#2B3333"/>
<path d="M465.421 152.12C482.19 135.327 482.19 108.101 465.421 91.3091C448.652 74.5168 421.464 74.5168 404.695 91.3091C387.926 108.101 387.926 135.327 404.695 152.12C421.464 168.912 448.652 168.912 465.421 152.12Z" fill="#35B9D0"/>
<path d="M414.227 88.9346C414.067 89.0592 413.903 89.1888 413.744 89.3184C412.181 89.5428 411.822 91.8059 409.975 91.5467C409.931 91.3274 409.886 91.108 409.836 90.8887C410.593 89.9814 410.697 88.8848 410.732 87.7681C412.778 85.8141 415.904 85.6495 417.811 83.4711C421.28 81.6716 424.665 79.6128 428.797 79.8072C429.26 80.0415 429.494 80.4802 428.996 80.7444C426.164 82.2399 423.919 84.6775 420.748 85.6545C418.418 86.3674 416.118 87.2746 414.227 88.9346Z" fill="#B2DA89"/>
<path d="M400.253 100.833C399.875 100.868 399.501 100.903 399.123 100.933C399.118 98.0619 401.358 96.701 403.011 94.373C404.469 98.0768 401.363 98.9691 400.253 100.833Z" fill="#B2DA89"/>
<path d="M477.607 115.026C478.14 119.373 478.095 123.71 477.492 128.046L477.502 128.086C476.621 127.498 477.029 126.526 476.965 125.674C476.93 125.21 476.303 125.09 476.079 125.494C474.72 127.967 473.634 130.514 473.027 133.246C472.962 133.54 472.649 133.704 472.375 133.575L472.186 133.49C471.997 133.405 471.887 133.206 471.917 132.997C472.455 129.004 472.519 125.09 469.891 121.636C469.562 120.764 469 121.033 468.447 121.272C468.373 121.302 468.298 121.317 468.218 121.307C467.87 121.272 467.521 121.242 467.178 121.207C467.103 121.202 467.034 121.172 466.969 121.132C465.341 120.061 463.38 119.527 461.762 118.381C461.423 118.141 460.965 118.431 461.03 118.844C461.334 120.684 461.349 122.802 464.868 121.446C465.032 121.382 465.421 121.905 465.719 122.194C465.749 122.224 465.774 122.254 465.794 122.284C466.999 124.183 466.128 125.36 465.087 126.481C463.763 127.513 462.464 128.525 461.135 129.552C460.418 129.946 459.701 130.335 458.984 130.728C458.402 130.908 457.834 131.082 457.252 131.262C456.968 131.292 456.719 131.057 456.739 130.768C457.043 126.501 454.3 123.291 452.637 119.712C452.398 119.198 451.861 118.909 451.293 119.114C451.109 119.178 450.9 119.786 450.994 119.911C453.653 123.226 453.145 128.151 456.53 131.092C456.659 131.202 456.724 131.371 456.689 131.541C456.585 132.049 456.435 132.583 457.356 132.623C458.297 132.503 459.233 132.383 460.333 132.239C460.682 132.194 460.96 132.538 460.836 132.872C459.895 135.474 458.432 137.423 456.311 139.003C453.588 141.027 451.144 143.206 451.218 147.139C451.248 148.883 450.283 150.374 448.346 151.052C447.146 151.471 446.305 152.398 446.31 153.789C446.31 153.948 446.24 154.103 446.111 154.192C445.16 154.84 444.14 155.424 443.707 156.6C443.607 156.64 443.493 156.66 443.408 156.72C438.181 160.304 437.907 159.741 436.593 154.113C436.583 154.068 436.578 154.023 436.583 153.983C436.683 152.517 435.164 151.301 435.906 149.736C437.534 146.306 436.045 143.714 433.81 141.316C433.691 141.192 433.656 141.012 433.706 140.848C434.512 138.31 433.586 136.915 430.893 136.68C430.774 136.67 430.664 136.611 430.58 136.526C429.624 135.519 428.559 136.022 427.488 136.416C423.7 137.802 420.405 137.194 417.756 134.003C417.741 133.989 417.731 133.969 417.721 133.954C416.557 132.119 414.804 130.544 415.138 128.046C414.75 124.856 415.496 121.93 417.164 119.213C417.179 119.188 417.199 119.163 417.219 119.138L417.906 118.376L417.886 118.451C419.947 117.005 420.41 114.358 422.137 112.663C422.246 112.553 422.411 112.518 422.56 112.548C425.636 113.157 428.3 111.197 431.257 111.038C431.321 111.033 431.381 111.048 431.441 111.068C432.591 111.452 434.627 110.31 434.637 112.518C434.647 114.159 435.647 114.253 436.588 114.946C439.037 116.731 441.257 116.217 443.537 114.906C443.662 114.836 443.811 114.821 443.946 114.876C445.763 115.614 447.57 116.143 449.64 116.028C452.08 115.893 452.09 114.213 452.209 112.668C452.393 110.23 450.522 112.055 449.69 111.631C449.272 111.417 448.64 111.656 448.137 111.546C446.997 111.302 446.166 110.629 446.021 109.418C445.882 108.231 447.002 108.122 447.709 107.818C449.431 107.07 451.248 106.9 453.095 107.389C453.712 107.549 454.504 107.838 454.842 107.11C455.276 106.168 454.24 105.923 453.752 105.435C452.727 104.408 450.95 105.071 450.163 104.323C446.903 101.203 447.261 104.847 446.479 106.188C446.161 106.731 446.778 107.982 445.563 107.833C442.885 107.504 443.652 109.218 443.652 110.48C443.652 110.759 443.398 110.983 443.124 110.938C441.949 110.749 442.009 109.184 441.148 108.655C441.023 108.58 440.949 108.451 440.929 108.306C440.65 106.108 438.793 105.684 437.205 104.822C436.862 104.637 436.464 104.921 436.518 105.31C436.588 105.789 436.553 106.227 436.334 106.631C436.175 106.935 435.737 106.97 435.538 106.686C434.323 104.931 432.616 105.176 430.784 105.943C430.749 105.958 430.704 105.968 430.664 105.973C428.937 106.163 427.712 107.424 427.165 108.71C426.189 110.988 424.516 111.521 422.451 111.701C422.366 111.706 422.281 111.696 422.207 111.656C420.026 110.639 420.768 108.879 421.057 107.125C421.4 105.016 422.904 105.854 424.048 105.749C424.87 105.674 425.781 105.988 426.294 104.961C426.816 103.924 426.632 102.982 425.751 102.389C423.74 101.043 426.249 101.417 426.383 100.914C426.423 100.764 426.572 100.674 426.722 100.634C428.12 100.251 429.33 99.5776 430.276 98.4809C430.819 98.1121 431.635 97.5587 432.173 97.1898C432.412 97.1101 432.645 97.0253 432.884 96.9456H433.123L433.318 96.806C433.885 96.6515 433.785 96.4022 433.551 96.138C433.472 96.0483 433.432 95.9386 433.432 95.819C433.432 95.6595 433.432 95.5 433.437 95.3454C433.457 94.8569 434.114 94.7323 434.328 95.171C435.418 97.3942 437.564 96.7163 439.64 96.2377C441.775 95.7442 441.984 93.0524 441.581 92.5289C440.59 91.2379 440.585 89.9966 440.725 88.6806C440.77 88.2569 440.277 87.9977 439.953 88.2718C438.883 89.189 437.828 90.0514 438.773 92.0255C439.082 92.6735 438.505 94.4182 437.24 94.9117C435.936 95.4202 436.105 93.9696 435.568 93.4462C435.164 93.0573 434.746 92.4891 434.139 92.9925C433.497 92.9726 432.934 92.9576 432.292 92.9377L432.232 92.8879C432.148 92.8181 432.088 92.7234 432.068 92.6187C431.739 90.9936 432.581 89.9268 433.84 89.0644C433.88 89.0395 433.925 89.0196 433.97 89.0046C434.816 88.7554 435.478 88.1821 435.812 87.4393C437.439 83.8004 440.182 83.4315 443.483 84.5431C443.577 84.578 443.672 84.6278 443.732 84.7126C444.443 85.6996 448.157 84.563 445.877 87.7634C445.653 88.0774 446.688 88.4114 447.112 88.1073C447.699 87.6836 448.142 87.0505 448.645 86.5072L448.58 86.5221C448.834 86.4972 449.088 86.4723 449.342 86.4424C449.451 86.4324 449.551 86.3825 449.625 86.3078C449.795 86.1383 449.964 85.9688 450.128 85.7993C450.178 85.7495 450.243 85.7096 450.312 85.6847C450.88 85.4952 451.442 85.3058 452.01 85.1164C452.045 85.1064 452.075 85.0964 452.11 85.0914C453.284 84.9469 454.808 86.8112 455.719 85.1911C456.291 85.0466 456.575 84.9768 457.147 84.8322C458.954 86.0585 460.761 87.2848 462.573 88.5111C464.565 90.5798 467.671 93.8001 469.667 95.8688C470.951 97.9176 472.231 99.9664 473.515 102.015C473.53 102.04 473.54 102.065 473.555 102.09C475.277 106.282 476.835 110.534 477.607 115.026ZM462.643 110.151C462.638 110.101 462.628 110.046 462.603 110.001C462.499 109.792 462.29 109.498 462.349 109.278C462.942 107.1 460.189 106.457 460.239 104.692C460.268 103.735 461.05 102.643 459.318 102.908C458.297 103.062 457.56 104.004 458.083 105.081C458.944 106.876 460.03 108.545 460.443 110.554C460.532 111.003 461.264 111.596 461.996 111.432C462.613 111.297 462.703 110.784 462.643 110.151Z" fill="#B2DA89"/>
<path d="M404.838 150.638C402.274 147.617 399.95 144.432 398.003 140.972C397.028 138.31 395.44 135.848 395.076 132.433C397.411 134.671 399.407 136.581 401.403 138.49C401.762 139.522 402.11 140.564 403.429 140.708C403.803 140.888 404.181 141.067 404.554 141.241L404.629 141.182C404.918 142.268 405.993 142.019 406.68 142.423C408.223 143.33 410.249 144.043 410.289 146.147C410.344 148.843 411.847 150.723 413.206 152.747C412.927 154.412 413.719 155.513 414.919 156.59C415.571 157.168 417.298 157.722 415.83 159.182C413.435 157.472 411.041 155.763 408.641 154.053C407.621 152.642 406.341 151.515 404.838 150.638Z" fill="#B2DA89"/>
<path d="M449.301 154.063C450.829 152.198 451.441 149.362 454.732 149.118C454.209 151.241 452.278 152.263 451.362 153.953C451.168 154.142 450.973 154.327 450.779 154.516C450.6 154.641 450.421 154.761 450.242 154.885C449.734 154.825 449.45 154.521 449.301 154.063Z" fill="#B2DA89"/>
<path d="M414.133 138.47C411.823 138.47 409.867 136.242 409.777 136.142C409.513 135.838 409.548 135.384 409.852 135.12C410.155 134.856 410.608 134.891 410.872 135.195C411.385 135.783 413.028 137.244 414.481 136.994C415.492 136.82 416.353 135.848 417.045 134.103C417.194 133.729 417.612 133.55 417.986 133.694C418.359 133.844 418.538 134.263 418.394 134.637C417.503 136.885 416.268 138.161 414.725 138.425C414.521 138.455 414.322 138.47 414.133 138.47Z" fill="#2B3333"/>
<path d="M366.323 182.392C366.278 182.342 366.238 182.292 366.193 182.242C366.243 182.287 366.288 182.332 366.338 182.377L366.323 182.392Z" fill="#906556"/>
<path d="M360.789 183.359C360.674 183.444 360.56 183.523 360.445 183.608C360.356 183.214 360.679 183.444 360.799 183.374C360.799 183.369 360.789 183.359 360.789 183.359Z" fill="#623C30"/>
<path d="M360.485 186.32C360.425 186.365 360.37 186.41 360.311 186.455C360.355 186.4 360.4 186.34 360.445 186.28L360.485 186.32Z" fill="#623C30"/>
<path d="M373.672 106.033C372.442 107.763 370.621 108.58 369.6 107.858C368.585 107.135 368.754 105.141 369.988 103.406C371.218 101.676 373.04 100.859 374.06 101.582C375.076 102.309 374.902 104.298 373.672 106.033Z" fill="#8AC251"/>
<path d="M342.005 91.0533C344.106 95.0413 347.003 98.3463 350.562 101.083C350.846 101.302 351.14 101.706 351.538 101.517C351.951 101.317 351.742 100.844 351.737 100.5C351.613 94.2736 351.095 88.0823 350.199 81.921C350.244 81.8113 350.234 81.7066 350.169 81.6119C350.149 81.4225 350.129 81.233 350.109 81.0436C351.095 79.3438 350.075 78.0477 349.228 76.7217C348.8 74.5433 348.372 72.3649 347.944 70.1815C348.502 69.6082 348.561 70.4556 348.895 70.5155C350.358 74.7726 351.185 79.1942 352.155 83.9199C355.819 79.8821 356.451 75.2212 356.397 69.9272C357.163 71.0339 357.208 71.8963 357.168 72.7138C356.924 77.3348 356.521 81.921 352.852 85.3606C352.345 85.8391 352.519 86.3476 352.579 86.861C352.783 88.5858 353.007 90.3106 353.226 92.0304C353.415 93.6455 353.609 95.2656 353.798 96.8807C353.942 100.943 354.097 105.006 354.221 109.069C354.246 109.817 354.316 110.235 355.217 109.762C359.13 107.703 361.653 104.378 363.729 100.624C363.903 100.31 363.938 100.051 363.689 99.742C360.767 96.123 360.354 91.7263 359.941 87.3495C359.841 86.3127 359.926 85.2559 360.105 84.1841C361.121 89.0444 361.434 94.1041 364.72 98.5407C366.368 94.139 367.224 89.9467 367.149 85.5699C367.144 84.229 367.139 82.883 367.134 81.5421C367 79.6877 366.86 77.8333 366.726 75.9789C367.084 76.0138 367.443 76.0487 367.801 76.0836C368.852 81.4773 369.305 86.9009 368.508 92.3793C368.414 93.0224 368.314 93.6604 368.214 94.2985C367.697 94.8967 367.129 95.465 366.666 96.1031C365.84 97.2496 366.278 104.587 355.257 112.758C354.585 113.142 354.231 113.57 354.221 114.403C354.027 133.076 352.364 143.051 352.957 161.749C353.275 171.824 354.082 174.66 356.82 184.396C356.994 185.019 357.188 185.637 357.377 186.255C357.641 186.973 356.79 188.12 358.069 188.424C359.194 188.693 360.09 189.301 361.001 189.959C359.986 190.468 358.99 189.406 357.84 189.954C358.448 190.532 359.209 190.812 359.503 191.589C359.329 191.614 359.179 191.624 359.035 191.659C357.646 192.023 357.084 190.253 355.779 190.393C355.73 190.348 355.685 190.303 355.635 190.258C355.68 190.308 355.72 190.358 355.764 190.408C356.053 191.43 357.233 191.978 357.293 193.279C356.342 193.125 356.068 192.142 355.321 191.923C354.888 192.177 355.351 192.761 354.893 193C354.774 192.571 354.605 192.162 354.55 191.744C354.42 190.732 353.713 189.974 352.882 190.188C351.966 190.428 351.404 191.35 351.847 192.506C352.066 193.075 352.379 193.668 352.036 194.391C351.792 193.837 351.573 193.344 351.324 192.791C350.752 193.374 350.577 194.077 349.925 194.341L349.885 194.301C349.661 193.289 351.195 192.481 350.229 191.38L350.239 191.39C349.821 190.009 348.785 190.946 348.511 191.205C347.591 192.068 346.695 192.342 345.569 191.833C345.589 190.328 346.864 190.363 347.81 189.974C348.198 189.815 348.74 189.61 348.492 189.077C348.233 188.528 347.76 188.887 347.376 189.047C346.655 189.346 346.142 190.253 344.927 189.8C346.042 188.683 347.391 187.995 347.994 186.634C349.253 185.981 349.318 184.715 349.492 183.558C349.995 180.214 349.955 176.839 349.736 173.474C348.755 158.494 348.775 159.317 349.691 144.337C350.174 136.481 350.886 128.64 351.404 120.788C351.717 116.023 351.847 111.242 351.837 106.462C351.837 105.729 351.623 105.27 351.005 104.867C347.207 102.389 344.29 99.0541 341.96 95.2008C341.403 94.2836 340.801 93.9496 339.75 94.0144C337.595 94.149 335.569 92.469 333.657 92.808C331.566 93.1819 329.59 93.6106 327.464 93.1221C329.137 92.8678 330.914 93.162 332.801 92.0952C330.232 90.6894 328.067 89.0893 326.26 86.8161C327.196 86.5968 327.474 87.2498 327.873 87.5838C331.059 90.2857 334.658 92.0154 338.849 92.4541C339.974 92.5737 340.372 92.4441 339.745 91.2378C338.416 88.6855 337.361 86.0136 336.495 83.2619C336.778 82.7634 337.057 82.2649 337.411 81.6468C337.983 82.903 338.491 84.0196 339.003 85.1362C339.407 86.5021 340.089 87.7433 340.791 88.9696C340.9 89.852 341.179 90.6147 342.005 91.0533Z" fill="#623C30"/>
<path d="M348 186.64C347.398 188 346.049 188.688 344.934 189.805C346.144 190.254 346.661 189.351 347.383 189.052C347.767 188.893 348.239 188.534 348.498 189.082C348.752 189.616 348.205 189.82 347.816 189.979C346.87 190.368 345.596 190.333 345.576 191.839C346.701 192.347 347.597 192.073 348.518 191.211C348.792 190.951 349.827 190.014 350.246 191.395C350.121 191.47 349.803 191.241 349.892 191.629C350.007 191.545 350.121 191.465 350.236 191.38C351.201 192.482 349.663 193.289 349.892 194.301C349.847 194.361 349.803 194.416 349.758 194.476C349.817 194.431 349.872 194.386 349.932 194.341C350.584 194.077 350.758 193.374 351.331 192.791C351.58 193.344 351.799 193.838 352.043 194.391C352.381 193.668 352.072 193.08 351.853 192.507C351.41 191.35 351.973 190.428 352.889 190.189C353.72 189.974 354.427 190.727 354.557 191.744C354.611 192.163 354.781 192.572 354.9 193C355.353 192.761 354.895 192.183 355.328 191.924C356.075 192.138 356.349 193.125 357.299 193.279C357.24 191.983 356.06 191.43 355.771 190.408L355.786 190.393C357.085 190.254 357.648 192.023 359.042 191.659C359.186 191.619 359.34 191.614 359.51 191.59C359.216 190.807 358.454 190.528 357.847 189.954C358.997 189.406 359.993 190.468 361.008 189.959C360.097 189.301 359.201 188.693 358.076 188.424C356.792 188.12 357.648 186.973 357.384 186.256C359.669 186.475 361.69 185.543 363.736 186.585C366.28 187.876 373.473 192.427 372.104 194.964C370.227 198.459 360.585 198.793 356.881 199.884C352.043 201.305 347.562 200.388 343.525 197.377C342.43 196.559 332.688 196.569 332.076 195.333C331.15 193.459 340.24 190.852 341.743 189.411C343.485 187.741 345.626 186.914 348 186.64Z" fill="#906556"/>
<path d="M348.9 70.5057C348.566 70.4458 348.502 69.5984 347.949 70.1717C345.356 70.2614 343.489 69.1298 342.379 66.7919C342.02 66.0342 341.841 65.2117 342.493 64.5088C343.145 63.8059 343.957 63.9555 344.758 64.2346C345.908 64.6334 346.809 65.3961 347.68 66.4529C348.049 65.8647 348.303 65.3513 348.656 64.9176C349.104 64.3692 349.632 63.8408 350.443 64.0602C351.255 64.2745 351.444 64.9874 351.558 65.6952C351.902 67.8487 350.926 69.6034 348.9 70.5057Z" fill="#8AC251"/>
<path d="M342.007 91.0534C341.175 90.6197 340.902 89.8521 340.787 88.9947C341.345 87.0455 342.071 85.1961 343.819 83.9699C344.491 83.4963 345.208 83.0476 346.054 83.5461C346.86 84.0147 346.746 84.8322 346.696 85.58C346.537 88.1921 344.386 90.6845 342.007 91.0534Z" fill="#8AC251"/>
<path d="M365.279 99.3186C364.189 98.536 364.025 97.6138 364.846 96.4673C365.309 95.8242 365.871 95.2609 366.394 94.6627C367.604 94.4533 368.589 93.5361 369.879 93.561C370.526 93.576 371.203 93.5311 371.631 94.1343C372.104 94.8023 371.91 95.5151 371.511 96.1034C370.023 98.2917 368.047 99.5878 365.279 99.3186Z" fill="#8AC251"/>
<path d="M349.229 76.7117C350.075 78.0427 351.091 79.3338 350.11 81.0336C348.627 80.8542 347.103 80.919 345.769 80.0068C344.132 78.8852 343.275 77.2999 343.888 76.278C344.46 75.3209 346.173 75.2661 347.93 76.1235C348.353 76.3329 348.681 76.7715 349.229 76.7117Z" fill="#8AC251"/>
<path d="M367.135 81.5423C367.14 82.8833 367.145 84.2292 367.15 85.5701C364.681 85.5651 362.51 84.0099 361.913 81.8215C361.51 80.3459 362.192 79.5085 363.7 79.5882C365.183 79.658 366.089 80.7148 367.135 81.5423Z" fill="#8AC251"/>
<path d="M334.977 78.2722C335.27 77.9532 335.216 77.2852 335.897 77.365C336.365 78.661 336.833 79.9571 337.301 81.2532C336.639 80.7198 335.982 80.1914 335.32 79.658C335.206 79.1994 335.091 78.7358 334.977 78.2722Z" fill="#623C30"/>
<path d="M350.17 81.6021C350.235 81.7017 350.245 81.8064 350.2 81.9111C350.17 81.8413 350.136 81.7715 350.121 81.7017C350.111 81.6768 350.151 81.6369 350.17 81.6021Z" fill="#8AC251"/>
<path d="M332.199 112.369C332.199 112.369 335.25 135.305 350.518 135.305C350.01 142.952 351.533 141.93 351.533 141.93C351.533 141.93 331.183 130.205 332.199 112.369Z" fill="#623C30"/>
<path d="M336.271 113.895C336.271 113.895 336.345 122.793 333.508 120.893C334.961 124.228 334.742 124.089 334.742 124.089C334.742 124.089 337.799 122.05 336.271 113.895Z" fill="#623C30"/>
<path d="M360.455 107.14C360.455 107.14 367.37 108.232 371.736 106.048C364.094 112.604 356.816 109.687 356.816 109.687L360.455 107.14Z" fill="#623C30"/>
<path d="M330.945 108.78C332.633 110.47 333.2 112.648 332.205 113.645C331.209 114.642 329.034 114.074 327.346 112.384C325.659 110.694 325.091 108.516 326.087 107.519C327.082 106.527 329.258 107.09 330.945 108.78Z" fill="#8AC251"/>
<path d="M326.873 82.2802C328.561 83.9701 329.128 86.1485 328.132 87.1455C327.137 88.1425 324.961 87.5742 323.274 85.8843C321.586 84.1944 321.019 82.016 322.014 81.019C323.01 80.022 325.185 80.5903 326.873 82.2802Z" fill="#8AC251"/>
<path d="M336.545 78.7106C338.232 80.4005 338.8 82.5789 337.804 83.5759C336.809 84.5729 334.633 84.0046 332.946 82.3147C331.258 80.6248 330.691 78.4464 331.686 77.4494C332.677 76.4574 334.852 77.0207 336.545 78.7106Z" fill="#8AC251"/>
<path d="M325.878 91.8413C327.56 91.3727 329.148 91.7964 329.422 92.7884C329.696 93.7804 328.556 94.9618 326.873 95.4354C325.191 95.909 323.603 95.4803 323.329 94.4883C323.05 93.4913 324.19 92.3099 325.878 91.8413Z" fill="#8AC251"/>
<path d="M339.308 77.1555C339.592 79.5333 338.691 81.5921 337.297 81.7616C335.903 81.9311 334.539 80.1415 334.255 77.7637C333.972 75.3859 334.873 73.3271 336.266 73.1576C337.66 72.9881 339.024 74.7777 339.308 77.1555Z" fill="#8AC251"/>
<path d="M339.727 112.838C339.045 115.131 337.402 116.666 336.053 116.262C334.704 115.864 334.166 113.675 334.848 111.382C335.53 109.089 337.173 107.554 338.522 107.958C339.871 108.361 340.409 110.545 339.727 112.838Z" fill="#8AC251"/>
<path d="M360.594 69.0101C359.912 71.3032 358.269 72.8385 356.92 72.4348C355.571 72.036 355.034 69.8476 355.716 67.5545C356.398 65.2615 358.04 63.7261 359.389 64.1299C360.733 64.5337 361.276 66.7171 360.594 69.0101Z" fill="#8AC251"/>
<path d="M370.053 73.7733C370.419 71.6798 369.72 69.8078 368.49 69.5921C367.261 69.3763 365.967 70.8986 365.601 72.9921C365.234 75.0856 365.934 76.9576 367.164 77.1733C368.393 77.3891 369.687 75.8668 370.053 73.7733Z" fill="#8AC251"/>
<path d="M352.376 120.554C352.197 120.659 352.012 120.764 351.833 120.873C350.434 121.287 349.15 120.983 347.965 120.215C347.378 119.837 346.736 119.353 347.014 118.525C347.268 117.768 348.02 117.813 348.667 117.793C349.04 117.783 349.414 117.833 349.812 117.858C349.857 116.89 349.598 115.963 349.907 115.066C350.101 114.498 350.255 113.875 350.962 113.755C351.739 113.62 352.172 114.154 352.5 114.727C353.605 116.676 353.526 118.63 352.376 120.554Z" fill="#8AC251"/>
<path d="M387.078 166.221L396.162 182.801C396.625 183.648 396.257 184.71 395.331 185.164L386.495 189.531C380.527 192.482 373.249 190.318 370.411 184.745C367.728 179.476 370.013 173.055 375.598 170.159L384.524 165.528C385.455 165.045 386.605 165.359 387.078 166.221Z" fill="#E65A5A"/>
<path d="M386.879 173.649L380.607 178.743C379.736 179.566 380.582 180.917 381.747 180.563L388.935 178.369L431.178 156.835L429.127 152.727L386.879 173.649Z" fill="#C44042"/>
<path d="M434.976 143.938C434.976 143.938 425.224 144.955 427.818 152.448C425.189 154.417 425.189 154.417 425.189 154.417L428.112 159.611L431.108 158.325C431.108 158.325 435.494 164.746 442.697 156.481C436.071 144.487 434.976 143.938 434.976 143.938ZM432.701 147.383L438.879 156.53C432.811 159.008 428.973 151.81 432.701 147.383Z" fill="#F9AF3B"/>
<path d="M363.761 178.838C363.541 176.869 364.393 174.93 365.996 173.763C367.031 173.011 368.042 172.397 368.335 172.407C373.821 172.552 373.582 178.594 377.057 183.02C378.988 185.483 378.485 189.062 375.947 190.896C373.527 192.641 370.162 192.148 368.35 189.775L365.339 185.827C364.731 185.034 364.353 184.087 364.243 183.095L363.761 178.838Z" fill="#906556"/>
<path d="M378.013 177.936L379.781 178.33C380.124 178.404 380.313 178.783 380.164 179.102L379.925 179.626C379.786 179.925 379.417 180.039 379.134 179.87L377.605 178.953C377.182 178.699 377.277 178.055 377.755 177.936C377.839 177.916 377.929 177.916 378.013 177.936Z" fill="#906556"/>
<path d="M381.587 184.262C381.781 185.049 381.303 185.847 380.517 186.046C379.73 186.241 378.934 185.762 378.735 184.974C378.54 184.187 379.018 183.389 379.805 183.19C380.591 182.99 381.388 183.469 381.587 184.262Z" fill="#906556"/>
<path d="M435.061 152.687C434.752 152.687 434.463 152.488 434.369 152.174C434.254 151.79 434.468 151.386 434.852 151.271C445.037 148.156 450.368 144.437 450.692 140.21C451.214 133.39 438.515 127.169 438.386 127.109C438.028 126.935 437.873 126.501 438.047 126.142C438.222 125.783 438.655 125.629 439.013 125.803C439.576 126.073 452.728 132.523 452.13 140.319C451.757 145.2 446.082 149.352 435.27 152.657C435.2 152.677 435.13 152.687 435.061 152.687Z" fill="#2B3333"/>
<path d="M454.893 196.963H449.367C448.969 196.963 448.646 196.639 448.646 196.24C448.646 195.841 448.969 195.517 449.367 195.517H453.365C443.827 183.528 444.439 173.185 446.704 166.535C449.238 159.102 454.206 154.701 454.42 154.516C454.719 154.252 455.177 154.282 455.441 154.586C455.704 154.885 455.675 155.344 455.371 155.608C455.321 155.653 450.453 159.98 448.053 167.063C444.852 176.52 447.336 186.18 455.446 195.776C455.63 195.991 455.67 196.295 455.55 196.549C455.431 196.798 455.172 196.963 454.893 196.963Z" fill="#2B3333"/>
<path d="M403.579 127.722C403.395 127.722 403.211 127.653 403.066 127.508C399.552 123.989 400.637 118.685 400.687 118.46C400.771 118.072 401.155 117.817 401.548 117.902C401.936 117.987 402.185 118.371 402.105 118.759C402.09 118.824 401.15 123.53 404.092 126.476C404.375 126.76 404.375 127.219 404.092 127.503C403.947 127.653 403.763 127.722 403.579 127.722Z" fill="#2B3333"/>
<path d="M418.499 124.078C418.315 124.078 418.13 124.009 417.986 123.864C414.472 120.345 415.557 115.041 415.607 114.816C415.691 114.428 416.075 114.178 416.468 114.258C416.856 114.343 417.105 114.727 417.025 115.115C417.01 115.18 416.07 119.886 419.012 122.832C419.295 123.116 419.295 123.575 419.012 123.859C418.872 124.009 418.688 124.078 418.499 124.078Z" fill="#2B3333"/>
<path d="M426.114 184.316C426.114 184.316 426.841 181.47 431.112 179.157C429.335 182.292 430.261 184.306 430.261 184.306C430.261 184.306 430.574 182.706 431.689 181.265C432.804 179.825 430.261 184.306 432.755 185.129C435.249 185.951 431.52 188.872 430.818 189.067C430.116 189.261 424.297 185.951 424.297 185.951L426.114 184.316Z" fill="#8AC251"/>
<path d="M321.806 196.25C321.806 196.25 320.959 193.438 323.423 189.246C323.518 192.85 325.35 194.091 325.35 194.091C325.35 194.091 324.797 192.561 325.006 190.752C325.216 188.942 325.35 194.091 327.909 193.513C330.467 192.93 328.78 197.357 328.282 197.885C327.779 198.413 321.094 198.588 321.094 198.588L321.806 196.25Z" fill="#8AC251"/>
</g>
<path d="M300.516 266.188L305.859 284.703L311.219 266.188H316.688C316.812 269.906 316.938 273.323 317.062 276.438C317.094 277.323 317.13 278.214 317.172 279.109C317.214 279.995 317.255 280.865 317.297 281.719C317.339 282.562 317.38 283.37 317.422 284.141C317.464 284.901 317.5 285.599 317.531 286.234C317.573 286.87 317.615 287.427 317.656 287.906C317.698 288.375 317.74 288.74 317.781 289H313.562L313.188 271.297L308.172 289H303.562L298.516 271.344L298.094 289H293.875C293.906 288.74 293.943 288.375 293.984 287.906C294.026 287.427 294.062 286.87 294.094 286.234C294.135 285.599 294.177 284.901 294.219 284.141C294.26 283.37 294.302 282.562 294.344 281.719C294.385 280.865 294.422 279.995 294.453 279.109C294.495 278.214 294.536 277.323 294.578 276.438C294.703 273.323 294.833 269.906 294.969 266.188H300.516ZM326.312 281.078C326.312 281.828 326.38 282.5 326.516 283.094C326.661 283.677 326.87 284.177 327.141 284.594C327.422 285.01 327.766 285.328 328.172 285.547C328.589 285.766 329.062 285.875 329.594 285.875C330.094 285.875 330.547 285.766 330.953 285.547C331.359 285.328 331.703 285.01 331.984 284.594C332.276 284.177 332.495 283.677 332.641 283.094C332.797 282.5 332.875 281.828 332.875 281.078C332.875 279.578 332.594 278.401 332.031 277.547C331.479 276.693 330.667 276.266 329.594 276.266C329.094 276.266 328.641 276.375 328.234 276.594C327.828 276.812 327.479 277.13 327.188 277.547C326.906 277.964 326.688 278.469 326.531 279.062C326.385 279.656 326.312 280.328 326.312 281.078ZM321.938 281.078C321.938 279.734 322.146 278.547 322.562 277.516C322.979 276.474 323.542 275.604 324.25 274.906C324.969 274.198 325.802 273.661 326.75 273.297C327.698 272.932 328.698 272.75 329.75 272.75C330.854 272.75 331.865 272.932 332.781 273.297C333.708 273.661 334.5 274.198 335.156 274.906C335.823 275.604 336.339 276.474 336.703 277.516C337.068 278.547 337.25 279.734 337.25 281.078C337.25 282.422 337.042 283.615 336.625 284.656C336.208 285.688 335.641 286.557 334.922 287.266C334.214 287.964 333.385 288.495 332.438 288.859C331.49 289.214 330.49 289.391 329.438 289.391C328.333 289.391 327.323 289.214 326.406 288.859C325.49 288.495 324.698 287.964 324.031 287.266C323.375 286.557 322.859 285.688 322.484 284.656C322.12 283.615 321.938 282.422 321.938 281.078ZM351.781 289V280.406C351.781 279.688 351.734 279.083 351.641 278.594C351.547 278.104 351.401 277.714 351.203 277.422C351.005 277.12 350.75 276.906 350.438 276.781C350.135 276.646 349.776 276.578 349.359 276.578C348.911 276.578 348.474 276.677 348.047 276.875C347.62 277.073 347.224 277.333 346.859 277.656C346.495 277.979 346.177 278.339 345.906 278.734C345.635 279.13 345.432 279.531 345.297 279.938V289H340.922V279.391C340.922 277.849 340.833 276.547 340.656 275.484C340.49 274.411 340.318 273.604 340.141 273.062H344.438C344.5 273.219 344.562 273.427 344.625 273.688C344.688 273.938 344.745 274.203 344.797 274.484C344.849 274.755 344.896 275.026 344.938 275.297L345.062 275.953C345.562 275.391 346.052 274.906 346.531 274.5C347.01 274.094 347.495 273.76 347.984 273.5C348.474 273.24 348.974 273.052 349.484 272.938C349.995 272.812 350.526 272.75 351.078 272.75C351.87 272.75 352.578 272.885 353.203 273.156C353.839 273.427 354.375 273.833 354.812 274.375C355.25 274.917 355.583 275.594 355.812 276.406C356.042 277.219 356.156 278.161 356.156 279.234V289H351.781ZM373.906 281.578C373.906 282.078 373.911 282.667 373.922 283.344C373.943 284.021 373.964 284.708 373.984 285.406C374.016 286.104 374.047 286.771 374.078 287.406C374.12 288.042 374.167 288.573 374.219 289H369.531V271.344C369.531 269.823 369.505 268.448 369.453 267.219C369.401 265.979 369.323 264.906 369.219 264H373.906V281.578ZM378.984 267.359C378.984 266.964 379.052 266.599 379.188 266.266C379.323 265.932 379.51 265.646 379.75 265.406C380 265.156 380.292 264.964 380.625 264.828C380.958 264.693 381.323 264.625 381.719 264.625C382.115 264.625 382.479 264.693 382.812 264.828C383.146 264.964 383.432 265.156 383.672 265.406C383.922 265.646 384.115 265.932 384.25 266.266C384.385 266.599 384.453 266.964 384.453 267.359C384.453 267.766 384.385 268.135 384.25 268.469C384.115 268.802 383.922 269.094 383.672 269.344C383.432 269.583 383.146 269.771 382.812 269.906C382.479 270.031 382.115 270.094 381.719 270.094C381.323 270.094 380.958 270.031 380.625 269.906C380.292 269.771 380 269.583 379.75 269.344C379.51 269.094 379.323 268.802 379.188 268.469C379.052 268.135 378.984 267.766 378.984 267.359ZM383.906 273.062V281.578C383.906 282.078 383.911 282.672 383.922 283.359C383.943 284.036 383.964 284.724 383.984 285.422C384.016 286.12 384.047 286.786 384.078 287.422C384.12 288.057 384.167 288.583 384.219 289H379.531V280.719C379.531 279.958 379.526 279.208 379.516 278.469C379.516 277.729 379.505 277.031 379.484 276.375C379.474 275.708 379.453 275.094 379.422 274.531C379.391 273.958 379.349 273.469 379.297 273.062H383.906ZM403.812 273.062C403.594 273.51 403.365 273.995 403.125 274.516C402.896 275.036 402.672 275.547 402.453 276.047C402.245 276.547 402.047 277.021 401.859 277.469C401.672 277.917 401.516 278.297 401.391 278.609C401.286 278.859 401.146 279.203 400.969 279.641C400.802 280.068 400.609 280.552 400.391 281.094C400.182 281.625 399.958 282.193 399.719 282.797C399.479 283.391 399.245 283.979 399.016 284.562C398.464 285.938 397.875 287.417 397.25 289H393.438C392.833 287.49 392.266 286.062 391.734 284.719C391.505 284.146 391.271 283.562 391.031 282.969C390.792 282.375 390.562 281.807 390.344 281.266C390.135 280.714 389.938 280.208 389.75 279.75C389.573 279.292 389.422 278.911 389.297 278.609C389.172 278.297 389.016 277.917 388.828 277.469C388.641 277.01 388.438 276.531 388.219 276.031C388 275.531 387.776 275.026 387.547 274.516C387.318 273.995 387.094 273.51 386.875 273.062H391.75L395.406 284.469L399 273.062H403.812ZM406.234 289V279.391C406.234 277.849 406.146 276.547 405.969 275.484C405.802 274.411 405.63 273.604 405.453 273.062H409.75C409.812 273.229 409.875 273.448 409.938 273.719C410 273.979 410.057 274.255 410.109 274.547C410.161 274.839 410.208 275.125 410.25 275.406L410.375 276.109C410.75 275.568 411.151 275.089 411.578 274.672C412.005 274.255 412.432 273.906 412.859 273.625C413.297 273.333 413.724 273.115 414.141 272.969C414.557 272.823 414.943 272.75 415.297 272.75C416.026 272.75 416.646 272.906 417.156 273.219C417.677 273.531 418.099 273.958 418.422 274.5C418.755 275.031 418.995 275.651 419.141 276.359C419.286 277.068 419.359 277.818 419.359 278.609L415.875 279.156C415.823 278.448 415.651 277.88 415.359 277.453C415.068 277.016 414.589 276.797 413.922 276.797C413.661 276.797 413.365 276.911 413.031 277.141C412.708 277.37 412.391 277.667 412.078 278.031C411.766 278.396 411.474 278.818 411.203 279.297C410.943 279.766 410.745 280.24 410.609 280.719V289H406.234ZM425.219 281.969C425.323 283.323 425.703 284.302 426.359 284.906C427.026 285.5 427.948 285.797 429.125 285.797C430.156 285.797 431.156 285.682 432.125 285.453C433.104 285.214 434.083 284.802 435.062 284.219L435.391 287.828C434.828 288.109 434.276 288.349 433.734 288.547C433.203 288.745 432.667 288.906 432.125 289.031C431.594 289.156 431.047 289.245 430.484 289.297C429.922 289.359 429.339 289.391 428.734 289.391C427.703 289.391 426.714 289.219 425.766 288.875C424.828 288.521 424 288.005 423.281 287.328C422.562 286.641 421.99 285.792 421.562 284.781C421.146 283.771 420.938 282.599 420.938 281.266C420.938 279.974 421.115 278.807 421.469 277.766C421.833 276.714 422.354 275.818 423.031 275.078C423.708 274.328 424.526 273.755 425.484 273.359C426.443 272.953 427.526 272.75 428.734 272.75C429.609 272.75 430.375 272.859 431.031 273.078C431.698 273.286 432.271 273.578 432.75 273.953C433.24 274.318 433.646 274.755 433.969 275.266C434.302 275.766 434.562 276.312 434.75 276.906C434.948 277.49 435.089 278.104 435.172 278.75C435.255 279.396 435.297 280.042 435.297 280.688V280.969C435.297 281.083 435.297 281.203 435.297 281.328C435.307 281.453 435.312 281.573 435.312 281.688V281.969H425.219ZM428.516 276.031C427.609 276.031 426.891 276.276 426.359 276.766C425.839 277.245 425.49 278.042 425.312 279.156H431.328C431.328 278.052 431.089 277.255 430.609 276.766C430.141 276.276 429.443 276.031 428.516 276.031ZM462.562 273.062C462.344 273.51 462.115 273.995 461.875 274.516C461.646 275.036 461.422 275.547 461.203 276.047C460.995 276.547 460.797 277.021 460.609 277.469C460.422 277.917 460.266 278.297 460.141 278.609C460.036 278.859 459.896 279.203 459.719 279.641C459.552 280.068 459.359 280.552 459.141 281.094C458.932 281.625 458.708 282.193 458.469 282.797C458.229 283.391 457.995 283.979 457.766 284.562C457.214 285.938 456.625 287.417 456 289H452.188C451.583 287.49 451.016 286.062 450.484 284.719C450.255 284.146 450.021 283.562 449.781 282.969C449.542 282.375 449.312 281.807 449.094 281.266C448.885 280.714 448.688 280.208 448.5 279.75C448.323 279.292 448.172 278.911 448.047 278.609C447.922 278.297 447.766 277.917 447.578 277.469C447.391 277.01 447.188 276.531 446.969 276.031C446.75 275.531 446.526 275.026 446.297 274.516C446.068 273.995 445.844 273.51 445.625 273.062H450.5L454.156 284.469L457.75 273.062H462.562ZM468.406 281.969C468.51 283.323 468.891 284.302 469.547 284.906C470.214 285.5 471.135 285.797 472.312 285.797C473.344 285.797 474.344 285.682 475.312 285.453C476.292 285.214 477.271 284.802 478.25 284.219L478.578 287.828C478.016 288.109 477.464 288.349 476.922 288.547C476.391 288.745 475.854 288.906 475.312 289.031C474.781 289.156 474.234 289.245 473.672 289.297C473.109 289.359 472.526 289.391 471.922 289.391C470.891 289.391 469.901 289.219 468.953 288.875C468.016 288.521 467.188 288.005 466.469 287.328C465.75 286.641 465.177 285.792 464.75 284.781C464.333 283.771 464.125 282.599 464.125 281.266C464.125 279.974 464.302 278.807 464.656 277.766C465.021 276.714 465.542 275.818 466.219 275.078C466.896 274.328 467.714 273.755 468.672 273.359C469.63 272.953 470.714 272.75 471.922 272.75C472.797 272.75 473.562 272.859 474.219 273.078C474.885 273.286 475.458 273.578 475.938 273.953C476.427 274.318 476.833 274.755 477.156 275.266C477.49 275.766 477.75 276.312 477.938 276.906C478.135 277.49 478.276 278.104 478.359 278.75C478.443 279.396 478.484 280.042 478.484 280.688V280.969C478.484 281.083 478.484 281.203 478.484 281.328C478.495 281.453 478.5 281.573 478.5 281.688V281.969H468.406ZM471.703 276.031C470.797 276.031 470.078 276.276 469.547 276.766C469.026 277.245 468.677 278.042 468.5 279.156H474.516C474.516 278.052 474.276 277.255 473.797 276.766C473.328 276.276 472.63 276.031 471.703 276.031ZM482.328 289V279.391C482.328 277.849 482.24 276.547 482.062 275.484C481.896 274.411 481.724 273.604 481.547 273.062H485.844C485.906 273.229 485.969 273.448 486.031 273.719C486.094 273.979 486.151 274.255 486.203 274.547C486.255 274.839 486.302 275.125 486.344 275.406L486.469 276.109C486.844 275.568 487.245 275.089 487.672 274.672C488.099 274.255 488.526 273.906 488.953 273.625C489.391 273.333 489.818 273.115 490.234 272.969C490.651 272.823 491.036 272.75 491.391 272.75C492.12 272.75 492.74 272.906 493.25 273.219C493.771 273.531 494.193 273.958 494.516 274.5C494.849 275.031 495.089 275.651 495.234 276.359C495.38 277.068 495.453 277.818 495.453 278.609L491.969 279.156C491.917 278.448 491.745 277.88 491.453 277.453C491.161 277.016 490.682 276.797 490.016 276.797C489.755 276.797 489.458 276.911 489.125 277.141C488.802 277.37 488.484 277.667 488.172 278.031C487.859 278.396 487.568 278.818 487.297 279.297C487.036 279.766 486.839 280.24 486.703 280.719V289H482.328ZM503.438 276.422V281.781C503.438 282.667 503.474 283.375 503.547 283.906C503.62 284.427 503.734 284.828 503.891 285.109C504.057 285.391 504.266 285.573 504.516 285.656C504.766 285.74 505.068 285.781 505.422 285.781C505.818 285.781 506.26 285.682 506.75 285.484C507.25 285.286 507.812 284.995 508.438 284.609V288.109C507.688 288.578 506.969 288.906 506.281 289.094C505.604 289.292 504.984 289.391 504.422 289.391C503.682 289.391 502.984 289.318 502.328 289.172C501.682 289.036 501.115 288.792 500.625 288.438C500.146 288.083 499.766 287.615 499.484 287.031C499.203 286.438 499.062 285.688 499.062 284.781V276.422H496.094V273.297H499.062V268.375H503.438V273.297H508.203V276.422H503.438Z" fill="#3D9946"/>
<defs>
<clipPath id="clip0_918_25308">
<rect width="163" height="157" fill="white" transform="translate(315 64)"/>
</clipPath>
</defs>
</svg>
