<svg width="19" height="19" viewBox="0 0 19 19" fill="none" xmlns="http://www.w3.org/2000/svg">
<path d="M9.4905 0C4.2465 0 0 4.256 0 9.5C0 14.744 4.2465 19 9.4905 19C14.744 19 19 14.744 19 9.5C19 4.256 14.744 0 9.4905 0ZM16.074 5.7H13.2715C12.9675 4.5125 12.5305 3.3725 11.9605 2.318C13.7085 2.9165 15.162 4.1325 16.074 5.7ZM9.5 1.938C10.2885 3.078 10.906 4.3415 11.3145 5.7H7.6855C8.094 4.3415 8.7115 3.078 9.5 1.938ZM2.147 11.4C1.995 10.792 1.9 10.1555 1.9 9.5C1.9 8.8445 1.995 8.208 2.147 7.6H5.358C5.282 8.227 5.225 8.854 5.225 9.5C5.225 10.146 5.282 10.773 5.358 11.4H2.147ZM2.926 13.3H5.7285C6.0325 14.4875 6.4695 15.6275 7.0395 16.682C5.2915 16.0835 3.838 14.877 2.926 13.3ZM5.7285 5.7H2.926C3.838 4.123 5.2915 2.9165 7.0395 2.318C6.4695 3.3725 6.0325 4.5125 5.7285 5.7ZM9.5 17.062C8.7115 15.922 8.094 14.6585 7.6855 13.3H11.3145C10.906 14.6585 10.2885 15.922 9.5 17.062ZM11.723 11.4H7.277C7.1915 10.773 7.125 10.146 7.125 9.5C7.125 8.854 7.1915 8.2175 7.277 7.6H11.723C11.8085 8.2175 11.875 8.854 11.875 9.5C11.875 10.146 11.8085 10.773 11.723 11.4ZM11.9605 16.682C12.5305 15.6275 12.9675 14.4875 13.2715 13.3H16.074C15.162 14.8675 13.7085 16.0835 11.9605 16.682ZM13.642 11.4C13.718 10.773 13.775 10.146 13.775 9.5C13.775 8.854 13.718 8.227 13.642 7.6H16.853C17.005 8.208 17.1 8.8445 17.1 9.5C17.1 10.1555 17.005 10.792 16.853 11.4H13.642Z" fill="white"/>
</svg>
