<svg width="19" height="19" viewBox="0 0 19 19" fill="none" xmlns="http://www.w3.org/2000/svg">
<path d="M17.9931 11.1345C17.9373 10.9391 17.7929 10.43 16.506 10.0115C16.2565 9.84741 16.1095 9.576 16.1108 9.2672V9.20206C16.1083 8.90773 16.2577 8.6339 16.5047 8.46985C17.7904 8.05007 17.9348 7.53982 17.9893 7.3444C18.2515 6.40833 17.6384 5.25393 17.3623 4.80158C17.0811 4.33957 16.316 3.23704 15.3103 2.98493C15.1051 2.93306 14.5718 2.80158 13.5509 3.64114C13.2722 3.76298 12.934 3.74609 12.6515 3.59169L12.6249 3.57842C12.3437 3.42522 12.1664 3.1719 12.1385 2.88963C12.3982 1.62546 12.003 1.25152 11.851 1.10918C10.7819 0.100733 7.59755 0.100733 6.52848 1.10918C6.37775 1.25152 5.98128 1.62546 6.24095 2.88843C6.21308 3.16949 6.03195 3.42763 5.75835 3.576L5.71655 3.59892C5.43408 3.75453 5.09588 3.77263 4.81721 3.65079C3.79502 2.81364 3.26175 2.94754 3.05655 2.99941C2.05081 3.25272 1.28955 4.35646 1.00962 4.81846C0.734748 5.27323 0.124215 6.42884 0.390215 7.36491C0.445949 7.56032 0.590348 8.06937 1.87601 8.48794C2.12681 8.652 2.27248 8.92341 2.27121 9.23222V9.29735C2.27375 9.59169 2.12555 9.86551 1.87855 10.0296C0.592882 10.4493 0.448482 10.9596 0.394015 11.155C0.130548 12.0911 0.743615 13.2455 1.02101 13.6978C1.30221 14.1598 2.06602 15.2624 3.07302 15.5145C3.27822 15.5651 3.81148 15.6978 4.83115 14.8583C5.10982 14.7364 5.45055 14.7545 5.74315 14.9126C5.74441 14.9138 5.75455 14.9198 5.75582 14.921C6.03322 15.0718 6.21435 15.3311 6.24222 15.611C5.98381 16.874 6.37902 17.2479 6.52975 17.3902C7.06555 17.8945 8.12828 18.1466 9.19101 18.1466C10.2537 18.1466 11.3177 17.8945 11.8523 17.3902C12.0043 17.2479 12.3995 16.874 12.1398 15.611C12.1689 15.3299 12.3488 15.0718 12.6262 14.921L12.6642 14.9005C12.9479 14.7449 13.2849 14.7268 13.5648 14.8486C14.5883 15.6858 15.1215 15.5519 15.3255 15.5C16.3312 15.2467 17.0925 14.143 17.3724 13.6809C17.6473 13.2262 18.2591 12.0706 17.9931 11.1345ZM12.2057 9.2491C12.2057 10.8112 10.8541 12.0814 9.19101 12.0814C7.52915 12.0814 6.17635 10.8112 6.17635 9.2491C6.17635 7.68698 7.52915 6.41678 9.19101 6.41678C10.8541 6.41678 12.2057 7.68698 12.2057 9.2491Z" fill="white"/>
</svg>
