<svg xmlns="http://www.w3.org/2000/svg" viewBox="0 0 72.91 60.87"><g id="Calque_2" data-name="Calque 2"><g id="Layer_1" data-name="Layer 1"><path fill="none" stroke="#680500" stroke-miterlimit="22.93" stroke-width="1.04" d="M36.45,14c4.49-9,9-13.48,18-13.48a18,18,0,0,1,18,18c0,18-17.64,36.94-35.93,41.84C15,54.59.52,36.45.52,18.49a18,18,0,0,1,18-18C27.47.52,32,5,36.45,14Z"/><path fill="#b90000" d="M36.45,14c4.49-9,9-13.48,18-13.48a18,18,0,0,1,18,18c0,18-17.64,36.94-35.93,41.84C15,54.59.52,36.45.52,18.49a18,18,0,0,1,18-18C27.47.52,32,5,36.45,14Z"/><path fill="#e91300" d="M36.45,14c4.49-9,9-13.48,18-13.48A18,18,0,0,1,71,11.63C57.43,7.11,45.63,9.52,36.62,22.7c-12.39-14.28-35.75-6.53-28,19A39,39,0,0,1,.52,18.49a18,18,0,0,1,18-18C27.47.52,32,5,36.45,14Z"/><path fill="#ffffff" fill-rule="evenodd" d="M18.49,3c9,0,13.47,4.49,18,13.47,4.49-9,9-13.47,18-13.47a18,18,0,0,1,17.45,13.7c.09-.46.17-.93.23-1.39A18,18,0,0,0,54.42.52c-9,0-13.48,4.49-18,13.47C32,5,27.47.52,18.49.52A18,18,0,0,0,.78,15.45c.06.48.12,1,.2,1.43A18,18,0,0,1,18.49,3Z"/></g></g></svg>