<svg width="211" height="155" viewBox="0 0 211 155" fill="none" xmlns="http://www.w3.org/2000/svg">


    <defs>

        <filter id="filter0_d_1157_22728" x="0" y="0" width="211" height="155" filterUnits="userSpaceOnUse" color-interpolation-filters="sRGB">
            <feFlood flood-opacity="0" result="BackgroundImageFix"/>
            <feColorMatrix in="SourceAlpha" type="matrix" values="0 0 0 0 0 0 0 0 0 0 0 0 0 0 0 0 0 0 127 0" result="hardAlpha"/>
            <feOffset dy="4"/>
            <feGaussianBlur stdDeviation="2"/>
            <feComposite in2="hardAlpha" operator="out"/>
            <feColorMatrix type="matrix" values="0 0 0 0 0 0 0 0 0 0 0 0 0 0 0 0 0 0 0.25 0"/>
            <feBlend mode="normal" in2="BackgroundImageFix" result="effect1_dropShadow_1157_22728"/>
            <feBlend mode="normal" in="SourceGraphic" in2="effect1_dropShadow_1157_22728" result="shape"/>
        </filter>
        <clipPath id="clip0_1157_22728">
            <rect x="4" width="203" height="147" rx="10" fill="white"/>
        </clipPath>
    </defs>
    <g filter="url(#filter0_d_1157_22728)">
<g clip-path="url(#clip0_1157_22728)">
<rect x="4" width="203" height="147" rx="10" fill="#E5CF00"/>
    <path d="M43.5088 23.0684C43.1631 22.8926 42.8438 22.7432 42.5508 22.6201C42.2578 22.4912 41.9736 22.3857 41.6982 22.3037C41.4229 22.2217 41.1475 22.1602 40.8721 22.1191C40.5967 22.0781 40.3037 22.0576 39.9932 22.0576C39.7178 22.0576 39.4658 22.1016 39.2373 22.1895C39.0088 22.2715 38.8096 22.3799 38.6396 22.5146C38.4756 22.6494 38.3467 22.8047 38.2529 22.9805C38.1592 23.1504 38.1123 23.3262 38.1123 23.5078C38.1123 23.6953 38.1445 23.8652 38.209 24.0176C38.2793 24.1641 38.4141 24.3076 38.6133 24.4482C38.8125 24.583 39.0879 24.7236 39.4395 24.8701C39.7969 25.0107 40.2656 25.1719 40.8457 25.3535C41.4316 25.5352 41.9502 25.7402 42.4014 25.9688C42.8525 26.1973 43.2305 26.4609 43.5352 26.7598C43.8398 27.0527 44.0684 27.3838 44.2207 27.7529C44.3789 28.1221 44.458 28.5381 44.458 29.001C44.458 29.6279 44.332 30.2021 44.0801 30.7236C43.834 31.2393 43.4941 31.6816 43.0605 32.0508C42.6328 32.4199 42.1318 32.707 41.5576 32.9121C40.9893 33.1172 40.3799 33.2197 39.7295 33.2197C39.2725 33.2197 38.8271 33.1904 38.3936 33.1318C37.96 33.0732 37.5498 32.9912 37.1631 32.8857C36.7822 32.7803 36.4277 32.6572 36.0996 32.5166C35.7773 32.3701 35.4932 32.209 35.2471 32.0332L35.6865 29.6162C36.3193 30.126 36.9727 30.4951 37.6465 30.7236C38.3262 30.9521 39.0205 31.0664 39.7295 31.0664C40.0166 31.0664 40.292 31.0283 40.5557 30.9521C40.8193 30.8701 41.0537 30.7559 41.2588 30.6094C41.4639 30.457 41.6279 30.2725 41.751 30.0557C41.874 29.8389 41.9355 29.5898 41.9355 29.3086C41.9355 29.127 41.8975 28.9541 41.8213 28.79C41.751 28.626 41.6074 28.4648 41.3906 28.3066C41.1738 28.1426 40.8691 27.9756 40.4766 27.8057C40.0898 27.6357 39.5771 27.4482 38.9385 27.2432C38.2471 27.0264 37.6846 26.792 37.251 26.54C36.8174 26.2881 36.4775 26.0156 36.2314 25.7227C35.9854 25.4297 35.8184 25.1162 35.7305 24.7822C35.6426 24.4424 35.5986 24.0762 35.5986 23.6836C35.5986 23.4199 35.6367 23.1445 35.7129 22.8574C35.7891 22.5703 35.9033 22.2891 36.0557 22.0137C36.2139 21.7383 36.4131 21.4775 36.6533 21.2314C36.8936 20.9795 37.1777 20.7598 37.5059 20.5723C37.8398 20.3789 38.2207 20.2266 38.6484 20.1152C39.0762 20.0039 39.5537 19.9482 40.0811 19.9482C40.4561 19.9482 40.8047 19.9629 41.127 19.9922C41.4551 20.0215 41.7715 20.0684 42.0762 20.1328C42.3867 20.1973 42.6885 20.2793 42.9814 20.3789C43.2803 20.4785 43.5879 20.5986 43.9043 20.7393L43.5088 23.0684ZM52.5967 26.0039C52.4736 25.9746 52.2949 25.9395 52.0605 25.8984C51.8262 25.8516 51.5215 25.8281 51.1465 25.8281C50.6836 25.8281 50.2969 25.9277 49.9863 26.127C49.6758 26.3262 49.4268 26.5928 49.2393 26.9268C49.0576 27.2607 48.9258 27.6416 48.8438 28.0693C48.7676 28.4971 48.7295 28.9395 48.7295 29.3965C48.7295 29.6543 48.7529 29.8887 48.7998 30.0996C48.8525 30.3105 48.9229 30.4922 49.0107 30.6445C49.0986 30.7969 49.2012 30.917 49.3184 31.0049C49.4355 31.0869 49.5615 31.1279 49.6963 31.1279C49.9131 31.1279 50.1357 31.04 50.3643 30.8643C50.5928 30.6826 50.8125 30.4512 51.0234 30.1699C51.2402 29.8887 51.4424 29.5752 51.6299 29.2295C51.8232 28.8838 51.9902 28.5439 52.1309 28.21C52.2773 27.8701 52.3916 27.5566 52.4736 27.2695C52.5557 26.9824 52.5967 26.7539 52.5967 26.584V26.0039ZM53.3438 33C53.2793 32.8945 53.2178 32.7334 53.1592 32.5166C53.1006 32.2939 53.0479 32.0566 53.001 31.8047C52.96 31.5469 52.9248 31.2949 52.8955 31.0488C52.8721 30.7969 52.8604 30.5889 52.8604 30.4248V29.9238C52.6729 30.3047 52.4473 30.6914 52.1836 31.084C51.9258 31.4707 51.6299 31.8223 51.2959 32.1387C50.9619 32.4551 50.5928 32.7158 50.1885 32.9209C49.79 33.1201 49.3623 33.2197 48.9053 33.2197C48.5361 33.2197 48.1904 33.1377 47.8682 32.9736C47.5459 32.8096 47.2646 32.5664 47.0244 32.2441C46.79 31.9219 46.6055 31.5234 46.4707 31.0488C46.3359 30.5684 46.2686 30.0176 46.2686 29.3965C46.2686 28.6992 46.3711 28.0195 46.5762 27.3574C46.7812 26.6895 47.0977 26.0977 47.5254 25.582C47.9531 25.0605 48.498 24.6445 49.1602 24.334C49.8223 24.0176 50.6074 23.8594 51.5156 23.8594C52.1543 23.8594 52.7871 23.8975 53.4141 23.9736C54.041 24.0439 54.6064 24.1377 55.1104 24.2549V28.3418C55.1104 29.4492 55.1631 30.3809 55.2686 31.1367C55.374 31.8867 55.5117 32.5078 55.6816 33H53.3438ZM64.2949 33C64.2539 32.9062 64.21 32.7979 64.1631 32.6748C64.1162 32.5459 64.0693 32.4111 64.0225 32.2705C63.9814 32.1299 63.9404 31.9834 63.8994 31.8311C63.8643 31.6787 63.835 31.5264 63.8115 31.374C63.29 31.9775 62.751 32.4375 62.1943 32.7539C61.6377 33.0645 61.0576 33.2197 60.4541 33.2197C58.6201 33.2197 57.7031 31.96 57.7031 29.4404V26.8477C57.7031 26.5664 57.7002 26.3115 57.6943 26.083C57.6943 25.8545 57.6885 25.6348 57.6768 25.4238C57.665 25.207 57.6475 24.9873 57.624 24.7646C57.6006 24.542 57.5684 24.2988 57.5273 24.0352H60.1641V28.9131C60.1641 29.3115 60.1816 29.6543 60.2168 29.9414C60.2578 30.2285 60.3252 30.4658 60.4189 30.6533C60.5127 30.835 60.6357 30.9697 60.7881 31.0576C60.9404 31.1455 61.1279 31.1895 61.3506 31.1895C61.5498 31.1895 61.7607 31.1309 61.9834 31.0137C62.2119 30.8965 62.4287 30.7471 62.6338 30.5654C62.8447 30.3779 63.0352 30.1758 63.2051 29.959C63.375 29.7422 63.5039 29.5312 63.5918 29.3262V26.8477C63.5918 26.5605 63.5889 26.3027 63.583 26.0742C63.583 25.8398 63.5771 25.6172 63.5654 25.4062C63.5537 25.1953 63.5361 24.9814 63.5127 24.7646C63.4893 24.5479 63.457 24.3047 63.416 24.0352H66.0527V29.0449C66.0527 29.9004 66.0996 30.6504 66.1934 31.2949C66.293 31.9336 66.4365 32.502 66.624 33H64.2949ZM76.9951 24.0352C76.8721 24.2871 76.7432 24.5596 76.6084 24.8525C76.4795 25.1455 76.3535 25.4326 76.2305 25.7139C76.1133 25.9951 76.002 26.2617 75.8965 26.5137C75.791 26.7656 75.7031 26.9795 75.6328 27.1553C75.5742 27.2959 75.4951 27.4893 75.3955 27.7354C75.3018 27.9756 75.1934 28.248 75.0703 28.5527C74.9531 28.8516 74.8271 29.1709 74.6924 29.5107C74.5576 29.8447 74.4258 30.1758 74.2969 30.5039C73.9863 31.2773 73.6553 32.1094 73.3037 33H71.1592C70.8193 32.1504 70.5 31.3477 70.2012 30.5918C70.0723 30.2695 69.9404 29.9414 69.8057 29.6074C69.6709 29.2734 69.542 28.9541 69.4189 28.6494C69.3018 28.3389 69.1904 28.0547 69.085 27.7969C68.9854 27.5391 68.9004 27.3252 68.8301 27.1553C68.7598 26.9795 68.6719 26.7656 68.5664 26.5137C68.4609 26.2559 68.3467 25.9863 68.2236 25.7051C68.1006 25.4238 67.9746 25.1396 67.8457 24.8525C67.7168 24.5596 67.5908 24.2871 67.4678 24.0352H70.21L72.2666 30.4512L74.2881 24.0352H76.9951ZM80.2822 29.0449C80.3408 29.8066 80.5547 30.3574 80.9238 30.6973C81.2988 31.0312 81.8174 31.1982 82.4795 31.1982C83.0596 31.1982 83.6221 31.1338 84.167 31.0049C84.7178 30.8701 85.2686 30.6387 85.8193 30.3105L86.0039 32.3408C85.6875 32.499 85.377 32.6338 85.0723 32.7451C84.7734 32.8564 84.4717 32.9473 84.167 33.0176C83.8682 33.0879 83.5605 33.1377 83.2441 33.167C82.9277 33.2021 82.5996 33.2197 82.2598 33.2197C81.6797 33.2197 81.123 33.123 80.5898 32.9297C80.0625 32.7305 79.5967 32.4404 79.1924 32.0596C78.7881 31.6729 78.4658 31.1953 78.2256 30.627C77.9912 30.0586 77.874 29.3994 77.874 28.6494C77.874 27.9229 77.9736 27.2666 78.1729 26.6807C78.3779 26.0889 78.6709 25.585 79.0518 25.1689C79.4326 24.7471 79.8926 24.4248 80.4316 24.2021C80.9707 23.9736 81.5801 23.8594 82.2598 23.8594C82.752 23.8594 83.1826 23.9209 83.5518 24.0439C83.9268 24.1611 84.249 24.3252 84.5186 24.5361C84.7939 24.7412 85.0225 24.9873 85.2041 25.2744C85.3916 25.5557 85.5381 25.8633 85.6436 26.1973C85.7549 26.5254 85.834 26.8711 85.8809 27.2344C85.9277 27.5977 85.9512 27.9609 85.9512 28.3242V28.4824C85.9512 28.5469 85.9512 28.6143 85.9512 28.6846C85.957 28.7549 85.96 28.8223 85.96 28.8867V29.0449H80.2822ZM82.1367 25.7051C81.627 25.7051 81.2227 25.8428 80.9238 26.1182C80.6309 26.3877 80.4346 26.8359 80.335 27.4629H83.7188C83.7188 26.8418 83.584 26.3936 83.3145 26.1182C83.0508 25.8428 82.6582 25.7051 82.1367 25.7051ZM88.1133 33V27.5947C88.1133 26.7275 88.0635 25.9951 87.9639 25.3975C87.8701 24.7939 87.7734 24.3398 87.6738 24.0352H90.0908C90.126 24.1289 90.1611 24.252 90.1963 24.4043C90.2314 24.5508 90.2637 24.7061 90.293 24.8701C90.3223 25.0342 90.3486 25.1953 90.3721 25.3535L90.4424 25.749C90.6533 25.4443 90.8789 25.1748 91.1191 24.9404C91.3594 24.7061 91.5996 24.5098 91.8398 24.3516C92.0859 24.1875 92.3262 24.0645 92.5605 23.9824C92.7949 23.9004 93.0117 23.8594 93.2109 23.8594C93.6211 23.8594 93.9697 23.9473 94.2568 24.123C94.5498 24.2988 94.7871 24.5391 94.9688 24.8438C95.1562 25.1426 95.291 25.4912 95.373 25.8896C95.4551 26.2881 95.4961 26.71 95.4961 27.1553L93.5361 27.4629C93.5068 27.0645 93.4102 26.7451 93.2461 26.5049C93.082 26.2588 92.8125 26.1357 92.4375 26.1357C92.291 26.1357 92.124 26.2002 91.9365 26.3291C91.7549 26.458 91.5762 26.625 91.4004 26.8301C91.2246 27.0352 91.0605 27.2725 90.9082 27.542C90.7617 27.8057 90.6504 28.0723 90.5742 28.3418V33H88.1133ZM104.47 28.8252C104.47 29.1064 104.473 29.4375 104.479 29.8184C104.49 30.1992 104.502 30.5859 104.514 30.9785C104.531 31.3711 104.549 31.7461 104.566 32.1035C104.59 32.4609 104.616 32.7598 104.646 33H102.009V23.0684C102.009 22.2129 101.994 21.4395 101.965 20.748C101.936 20.0508 101.892 19.4473 101.833 18.9375H104.47V28.8252ZM108.249 19.6846C108.249 19.5205 108.29 19.3564 108.372 19.1924C108.454 19.0225 108.568 18.8701 108.715 18.7354C108.861 18.6006 109.037 18.4922 109.242 18.4102C109.447 18.3223 109.673 18.2783 109.919 18.2783C110.171 18.2783 110.396 18.3252 110.596 18.4189C110.795 18.5068 110.965 18.6328 111.105 18.7969C111.246 18.9551 111.354 19.1484 111.431 19.377C111.507 19.6055 111.545 19.8545 111.545 20.124C111.545 20.5166 111.489 20.9062 111.378 21.293C111.272 21.6797 111.126 22.0518 110.938 22.4092C110.757 22.7607 110.543 23.0918 110.297 23.4023C110.051 23.707 109.793 23.9766 109.523 24.2109L108.249 23.5957C108.712 23.1035 109.061 22.6113 109.295 22.1191C109.535 21.627 109.655 21.1963 109.655 20.8271H108.249V19.6846ZM116.124 28.5439C116.124 28.9658 116.162 29.3438 116.238 29.6777C116.32 30.0059 116.438 30.2871 116.59 30.5215C116.748 30.7559 116.941 30.9346 117.17 31.0576C117.404 31.1807 117.671 31.2422 117.97 31.2422C118.251 31.2422 118.506 31.1807 118.734 31.0576C118.963 30.9346 119.156 30.7559 119.314 30.5215C119.479 30.2871 119.602 30.0059 119.684 29.6777C119.771 29.3438 119.815 28.9658 119.815 28.5439C119.815 27.7002 119.657 27.0381 119.341 26.5576C119.03 26.0771 118.573 25.8369 117.97 25.8369C117.688 25.8369 117.434 25.8984 117.205 26.0215C116.977 26.1445 116.78 26.3232 116.616 26.5576C116.458 26.792 116.335 27.0762 116.247 27.4102C116.165 27.7441 116.124 28.1221 116.124 28.5439ZM113.663 28.5439C113.663 27.7881 113.78 27.1201 114.015 26.54C114.249 25.9541 114.565 25.4648 114.964 25.0723C115.368 24.6738 115.837 24.3721 116.37 24.167C116.903 23.9619 117.466 23.8594 118.058 23.8594C118.679 23.8594 119.247 23.9619 119.763 24.167C120.284 24.3721 120.729 24.6738 121.099 25.0723C121.474 25.4648 121.764 25.9541 121.969 26.54C122.174 27.1201 122.276 27.7881 122.276 28.5439C122.276 29.2998 122.159 29.9707 121.925 30.5566C121.69 31.1367 121.371 31.626 120.967 32.0244C120.568 32.417 120.103 32.7158 119.569 32.9209C119.036 33.1201 118.474 33.2197 117.882 33.2197C117.261 33.2197 116.692 33.1201 116.177 32.9209C115.661 32.7158 115.216 32.417 114.841 32.0244C114.472 31.626 114.182 31.1367 113.971 30.5566C113.766 29.9707 113.663 29.2998 113.663 28.5439ZM124.342 20.8271C124.342 20.6045 124.38 20.3994 124.456 20.2119C124.532 20.0244 124.638 19.8633 124.772 19.7285C124.913 19.5879 125.077 19.4795 125.265 19.4033C125.452 19.3271 125.657 19.2891 125.88 19.2891C126.103 19.2891 126.308 19.3271 126.495 19.4033C126.683 19.4795 126.844 19.5879 126.979 19.7285C127.119 19.8633 127.228 20.0244 127.304 20.2119C127.38 20.3994 127.418 20.6045 127.418 20.8271C127.418 21.0557 127.38 21.2637 127.304 21.4512C127.228 21.6387 127.119 21.8027 126.979 21.9434C126.844 22.0781 126.683 22.1836 126.495 22.2598C126.308 22.3301 126.103 22.3652 125.88 22.3652C125.657 22.3652 125.452 22.3301 125.265 22.2598C125.077 22.1836 124.913 22.0781 124.772 21.9434C124.638 21.8027 124.532 21.6387 124.456 21.4512C124.38 21.2637 124.342 21.0557 124.342 20.8271ZM127.11 24.0352V28.8252C127.11 29.1064 127.113 29.4404 127.119 29.8271C127.131 30.208 127.143 30.5947 127.154 30.9873C127.172 31.3799 127.189 31.7549 127.207 32.1123C127.23 32.4697 127.257 32.7656 127.286 33H124.649V28.3418C124.649 27.9141 124.646 27.4922 124.641 27.0762C124.641 26.6602 124.635 26.2676 124.623 25.8984C124.617 25.5234 124.605 25.1777 124.588 24.8613C124.57 24.5391 124.547 24.2637 124.518 24.0352H127.11ZM136.304 26.6631C136.14 26.5752 135.952 26.4844 135.741 26.3906C135.53 26.291 135.302 26.2002 135.056 26.1182C134.81 26.0361 134.546 25.9688 134.265 25.916C133.989 25.8574 133.699 25.8281 133.395 25.8281C133.137 25.8281 132.92 25.8516 132.744 25.8984C132.574 25.9453 132.437 26.0039 132.331 26.0742C132.226 26.1445 132.149 26.2266 132.103 26.3203C132.056 26.4082 132.032 26.4961 132.032 26.584C132.032 26.6895 132.05 26.7832 132.085 26.8652C132.126 26.9473 132.208 27.0234 132.331 27.0938C132.454 27.1641 132.63 27.2314 132.858 27.2959C133.093 27.3604 133.403 27.4307 133.79 27.5068C134.247 27.6006 134.678 27.7178 135.082 27.8584C135.486 27.9932 135.841 28.1689 136.146 28.3857C136.45 28.5967 136.69 28.8545 136.866 29.1592C137.042 29.458 137.13 29.8154 137.13 30.2314C137.13 30.6533 137.03 31.0459 136.831 31.4092C136.632 31.7725 136.359 32.0889 136.014 32.3584C135.674 32.6279 135.27 32.8389 134.801 32.9912C134.338 33.1436 133.84 33.2197 133.307 33.2197C132.914 33.2197 132.533 33.1934 132.164 33.1406C131.801 33.0879 131.458 33.0146 131.136 32.9209C130.813 32.8271 130.521 32.7188 130.257 32.5957C129.993 32.4727 129.765 32.3438 129.571 32.209L130.055 30.0645C130.271 30.2402 130.518 30.4014 130.793 30.5479C131.068 30.6943 131.353 30.8203 131.646 30.9258C131.938 31.0312 132.231 31.1133 132.524 31.1719C132.817 31.2246 133.093 31.251 133.351 31.251C133.556 31.251 133.743 31.2305 133.913 31.1895C134.089 31.1426 134.238 31.0811 134.361 31.0049C134.484 30.9287 134.581 30.8438 134.651 30.75C134.722 30.6562 134.757 30.5566 134.757 30.4512C134.757 30.3223 134.728 30.2021 134.669 30.0908C134.61 29.9795 134.505 29.874 134.353 29.7744C134.2 29.6748 133.989 29.5781 133.72 29.4844C133.456 29.3906 133.113 29.2969 132.691 29.2031C132.064 29.0742 131.555 28.9219 131.162 28.7461C130.77 28.5703 130.462 28.374 130.239 28.1572C130.017 27.9404 129.864 27.709 129.782 27.4629C129.7 27.2109 129.659 26.9473 129.659 26.6719C129.659 26.5312 129.683 26.3643 129.729 26.1709C129.782 25.9717 129.864 25.7695 129.976 25.5645C130.093 25.3535 130.245 25.1484 130.433 24.9492C130.626 24.7441 130.863 24.5625 131.145 24.4043C131.432 24.2402 131.766 24.1084 132.146 24.0088C132.533 23.9092 132.979 23.8594 133.482 23.8594C133.84 23.8594 134.174 23.8799 134.484 23.9209C134.795 23.9619 135.082 24.0176 135.346 24.0879C135.609 24.1523 135.85 24.2285 136.066 24.3164C136.283 24.3984 136.477 24.4805 136.646 24.5625L136.304 26.6631ZM140.997 29.0449C141.056 29.8066 141.27 30.3574 141.639 30.6973C142.014 31.0312 142.532 31.1982 143.194 31.1982C143.774 31.1982 144.337 31.1338 144.882 31.0049C145.433 30.8701 145.983 30.6387 146.534 30.3105L146.719 32.3408C146.402 32.499 146.092 32.6338 145.787 32.7451C145.488 32.8564 145.187 32.9473 144.882 33.0176C144.583 33.0879 144.275 33.1377 143.959 33.167C143.643 33.2021 143.314 33.2197 142.975 33.2197C142.395 33.2197 141.838 33.123 141.305 32.9297C140.777 32.7305 140.312 32.4404 139.907 32.0596C139.503 31.6729 139.181 31.1953 138.94 30.627C138.706 30.0586 138.589 29.3994 138.589 28.6494C138.589 27.9229 138.688 27.2666 138.888 26.6807C139.093 26.0889 139.386 25.585 139.767 25.1689C140.147 24.7471 140.607 24.4248 141.146 24.2021C141.686 23.9736 142.295 23.8594 142.975 23.8594C143.467 23.8594 143.897 23.9209 144.267 24.0439C144.642 24.1611 144.964 24.3252 145.233 24.5361C145.509 24.7412 145.737 24.9873 145.919 25.2744C146.106 25.5557 146.253 25.8633 146.358 26.1973C146.47 26.5254 146.549 26.8711 146.596 27.2344C146.643 27.5977 146.666 27.9609 146.666 28.3242V28.4824C146.666 28.5469 146.666 28.6143 146.666 28.6846C146.672 28.7549 146.675 28.8223 146.675 28.8867V29.0449H140.997ZM142.852 25.7051C142.342 25.7051 141.938 25.8428 141.639 26.1182C141.346 26.3877 141.149 26.8359 141.05 27.4629H144.434C144.434 26.8418 144.299 26.3936 144.029 26.1182C143.766 25.8428 143.373 25.7051 142.852 25.7051ZM154.761 26.0039C154.638 25.9746 154.459 25.9395 154.225 25.8984C153.99 25.8516 153.686 25.8281 153.311 25.8281C152.848 25.8281 152.461 25.9277 152.15 26.127C151.84 26.3262 151.591 26.5928 151.403 26.9268C151.222 27.2607 151.09 27.6416 151.008 28.0693C150.932 28.4971 150.894 28.9395 150.894 29.3965C150.894 29.6543 150.917 29.8887 150.964 30.0996C151.017 30.3105 151.087 30.4922 151.175 30.6445C151.263 30.7969 151.365 30.917 151.482 31.0049C151.6 31.0869 151.726 31.1279 151.86 31.1279C152.077 31.1279 152.3 31.04 152.528 30.8643C152.757 30.6826 152.977 30.4512 153.188 30.1699C153.404 29.8887 153.606 29.5752 153.794 29.2295C153.987 28.8838 154.154 28.5439 154.295 28.21C154.441 27.8701 154.556 27.5566 154.638 27.2695C154.72 26.9824 154.761 26.7539 154.761 26.584V26.0039ZM155.508 33C155.443 32.8945 155.382 32.7334 155.323 32.5166C155.265 32.2939 155.212 32.0566 155.165 31.8047C155.124 31.5469 155.089 31.2949 155.06 31.0488C155.036 30.7969 155.024 30.5889 155.024 30.4248V29.9238C154.837 30.3047 154.611 30.6914 154.348 31.084C154.09 31.4707 153.794 31.8223 153.46 32.1387C153.126 32.4551 152.757 32.7158 152.353 32.9209C151.954 33.1201 151.526 33.2197 151.069 33.2197C150.7 33.2197 150.354 33.1377 150.032 32.9736C149.71 32.8096 149.429 32.5664 149.188 32.2441C148.954 31.9219 148.77 31.5234 148.635 31.0488C148.5 30.5684 148.433 30.0176 148.433 29.3965C148.433 28.6992 148.535 28.0195 148.74 27.3574C148.945 26.6895 149.262 26.0977 149.689 25.582C150.117 25.0605 150.662 24.6445 151.324 24.334C151.986 24.0176 152.771 23.8594 153.68 23.8594C154.318 23.8594 154.951 23.8975 155.578 23.9736C156.205 24.0439 156.771 24.1377 157.274 24.2549V28.3418C157.274 29.4492 157.327 30.3809 157.433 31.1367C157.538 31.8867 157.676 32.5078 157.846 33H155.508ZM166.459 33C166.418 32.9062 166.374 32.7979 166.327 32.6748C166.28 32.5459 166.233 32.4111 166.187 32.2705C166.146 32.1299 166.104 31.9834 166.063 31.8311C166.028 31.6787 165.999 31.5264 165.976 31.374C165.454 31.9775 164.915 32.4375 164.358 32.7539C163.802 33.0645 163.222 33.2197 162.618 33.2197C160.784 33.2197 159.867 31.96 159.867 29.4404V26.8477C159.867 26.5664 159.864 26.3115 159.858 26.083C159.858 25.8545 159.853 25.6348 159.841 25.4238C159.829 25.207 159.812 24.9873 159.788 24.7646C159.765 24.542 159.732 24.2988 159.691 24.0352H162.328V28.9131C162.328 29.3115 162.346 29.6543 162.381 29.9414C162.422 30.2285 162.489 30.4658 162.583 30.6533C162.677 30.835 162.8 30.9697 162.952 31.0576C163.104 31.1455 163.292 31.1895 163.515 31.1895C163.714 31.1895 163.925 31.1309 164.147 31.0137C164.376 30.8965 164.593 30.7471 164.798 30.5654C165.009 30.3779 165.199 30.1758 165.369 29.959C165.539 29.7422 165.668 29.5312 165.756 29.3262V26.8477C165.756 26.5605 165.753 26.3027 165.747 26.0742C165.747 25.8398 165.741 25.6172 165.729 25.4062C165.718 25.1953 165.7 24.9814 165.677 24.7646C165.653 24.5479 165.621 24.3047 165.58 24.0352H168.217V29.0449C168.217 29.9004 168.264 30.6504 168.357 31.2949C168.457 31.9336 168.601 32.502 168.788 33H166.459Z" fill="white"/>

    <rect x="26" y="50" width="159" height="71" rx="10" fill="#C2AF00"/>
    <path d="M20.5927 62.5796C20.5927 62.5796 5.90899 67.5422 1.29032 68.9568C-3.32835 70.3713 -1.75758 68.5133 -1.75758 68.5133C-1.75758 68.5133 -16.5349 71.354 -13.487 69.493C-11.7395 68.3928 -9.74627 67.7036 -7.66912 67.4813C-7.66912 67.4813 -14.4083 69.0843 -16.1634 67.7712C-17.9184 66.4581 -9.88331 65.1623 -9.88331 65.1623C-9.88331 65.1623 -19.1207 65.2493 -14.4144 63.9217C-9.70811 62.5941 17.3696 59.7707 17.3696 59.7707C17.3696 59.7707 28.3499 57.9706 20.5927 62.5796Z" fill="#936F47"/>
    <path d="M66.8067 67.4813C66.7675 67.5799 66.7222 67.6784 66.6738 67.7712L66.8551 67.6581C66.84 67.606 66.8249 67.5451 66.8067 67.4813Z" fill="#5D0E0B"/>
    <path d="M57.1069 48.7497C57.2489 49.9846 57.6778 52.7673 58.7955 54.1877C58.8348 54.2399 58.8771 54.2892 58.9194 54.3385C60.3633 55.9675 61.8041 56.44 62.0277 56.5009C61.7709 56.3937 60.0552 55.5762 61.5987 53.3123C62.9852 51.2832 64.9457 51.1325 66.9001 51.805C68.4316 51.7064 69.4194 50.8223 69.9631 49.3671C69.9631 49.3468 69.9782 49.3266 69.9873 49.3034C70.2665 48.5594 70.4116 47.7752 70.4162 46.9844L70.0326 46.9003L69.7305 46.8365L69.4284 46.7786C69.1082 46.7206 68.776 46.6684 68.4286 46.622C68.196 46.5902 67.9604 46.5612 67.7187 46.538C64.9752 46.272 62.2059 46.3941 59.4993 46.9003C58.8192 47.6448 58.0098 48.2705 57.1069 48.7497Z" fill="#5D0E0B"/>
    <path d="M12.1649 60.1881C12.3944 60.3533 12.8898 60.6751 13.4879 61.0577C15.0466 62.0375 17.285 63.3999 17.285 63.3999C18.8799 63.0172 28.6338 70.6786 37.995 72.9657C50.4706 76.0007 58.4905 72.7947 66.6737 67.8001C67.1633 66.7513 67.3859 65.6057 67.3231 64.4579C67.3231 63.8376 69.2624 63.5709 71.4192 61.4461C73.576 59.3214 73.3253 56.8372 72.987 55.3762C72.6486 53.9152 70.371 53.4688 68.0632 52.318C65.7554 51.1672 63.2603 50.8977 61.5989 53.3326C60.0553 55.5936 61.771 56.411 62.0278 56.5212C61.8043 56.4603 60.3634 55.9878 58.9195 54.3587C58.7633 54.1781 58.6248 53.984 58.5057 53.779C57.5994 52.2803 57.237 49.8831 57.1071 48.7613C55.8926 49.4217 54.5245 49.7785 53.1288 49.799C51.7151 49.799 49.217 49.9063 46.2385 50.1469C42.7609 50.4137 39.301 50.8627 35.8745 51.4919C33.5095 51.9161 31.1856 52.5289 28.9268 53.3239H28.9117H28.8906C28.2864 53.5355 20.4326 56.356 15.684 58.3271C13.4396 59.2605 11.9051 59.9997 12.1649 60.1881Z" fill="#F1D3A1"/>
    <path d="M31.4885 69.4901C31.4885 69.4901 27.6099 70.9395 25.1178 69.4901C22.6258 68.0408 25.1178 66.0349 25.1178 66.0349C25.1178 66.0349 25.2568 68.5567 27.7489 68.8263C30.241 69.0959 30.2138 67.7857 31.4885 69.4901Z" fill="#565656"/>
    <path d="M59.4995 46.9004C66.8217 45.5872 72.1261 47.1497 73.8993 48.3033C74.9626 48.9932 76.772 48.857 78.0497 48.6338C77.5604 47.2685 75.896 45.1553 70.365 44.2857C69.8183 44.1987 69.2896 44.1321 68.7791 44.0799C63.215 43.4364 59.4995 46.9004 59.4995 46.9004Z" fill="#B48B57"/>
    <path d="M66.8066 67.4813C66.8248 67.5422 66.8399 67.6031 66.855 67.6668C67.8911 67.032 68.9332 66.3682 69.9875 65.6841C70.6677 65.2391 71.3194 64.7551 71.9388 64.2347C72.2973 63.9352 72.6366 63.6318 72.9568 63.3245C73.8222 62.4916 74.5974 61.5768 75.2707 60.5939C75.4338 60.3562 75.5879 60.1185 75.7329 59.8809C75.9644 59.4944 76.1759 59.1166 76.3672 58.7475C76.7882 57.9312 77.1408 57.084 77.4214 56.214C77.4728 56.0603 77.5181 55.9096 77.5634 55.7589C77.6087 55.6081 77.6419 55.469 77.6812 55.3472C77.8626 54.6733 78.0038 53.9901 78.1041 53.3007L78.1222 53.1819C78.1917 52.6717 78.234 52.2079 78.2582 51.7963C78.2823 51.3847 78.2854 50.9847 78.2793 50.6861C78.2793 50.1672 78.237 49.8715 78.237 49.8715C78.2549 49.6782 78.2477 49.4835 78.2159 49.2918C78.1851 49.0701 78.1325 48.8517 78.0588 48.6396C76.781 48.8628 74.9716 48.999 73.9083 48.3091C73.291 47.932 72.6262 47.632 71.9298 47.4163C71.7727 47.3612 71.6096 47.312 71.4374 47.2598C71.2652 47.2076 71.1595 47.1786 71.0115 47.1409C70.937 47.1177 70.8584 47.0975 70.7759 47.0801C70.6611 47.0482 70.5433 47.0221 70.4255 46.9931C70.4209 47.7839 70.2758 48.5681 69.9965 49.3121C69.9965 49.3353 69.9965 49.3556 69.9724 49.3759C69.4286 50.8252 68.4408 51.7151 66.9093 51.8137C67.3077 51.9537 67.6962 52.1183 68.0723 52.3065C70.3801 53.466 72.6547 53.9066 72.9961 55.3646C73.3374 56.8227 73.6002 59.3069 71.4283 61.4346C69.9331 62.9071 68.5405 63.4869 67.8307 63.913C67.5135 64.0985 67.3322 64.255 67.3322 64.4464C67.3841 65.4824 67.2049 66.5171 66.8066 67.4813Z" fill="#231F20"/>
    <path d="M73.5005 54.0863C72.9839 51.1093 70.5281 50.6078 74.0442 50.6919C76.4608 50.7469 77.6962 49.8599 78.2188 49.3063C78.7205 50.3406 79.0059 51.4594 79.0586 52.5992C79.0586 54.9936 78.1312 56.4545 77.3579 57.2546C76.591 58.3232 75.9248 59.4553 75.3673 60.6374C73.0987 60.1156 74.02 57.0633 73.5005 54.0863Z" fill="black"/>
    <path d="M79.8349 54.666C78.4605 55.6168 76.3551 55.698 75.769 54.2196C75.7932 52.3847 76.9622 51.0745 78.24 49.8715C78.24 49.8715 82.1005 52.6427 83.2816 54.2428C83.2816 54.2428 80.3092 53.2456 78.3699 53.1848C76.4306 53.1239 81.2124 53.7123 79.8349 54.666Z" fill="#6D6E71"/>
    <path d="M75.8113 54.924C75.7782 54.6906 75.7641 54.4551 75.769 54.2196C76.3551 55.698 78.4605 55.6168 79.8349 54.666C81.2093 53.7153 76.4306 53.1355 78.3699 53.1964C80.3092 53.2573 83.2816 54.2544 83.2816 54.2544C83.2816 54.2544 79.261 55.3559 77.0589 56.3908C77.0589 56.3908 76.1194 57.1358 75.8113 54.924Z" fill="#414042"/>
    <path d="M78.8984 50.8919C78.8984 50.8919 80.6413 52.0861 81.2576 52.6311C81.8738 53.1761 81.1277 52.7645 80.0765 52.3934C79.0252 52.0224 77.379 51.7093 77.6387 51.2774C77.8985 50.8455 78.2489 50.4426 78.8984 50.8919Z" fill="#A7A9AC"/>
    <path d="M73.8992 51.4368C73.8998 51.8086 73.7854 52.1721 73.5706 52.4815C73.3557 52.7908 73.0501 53.032 72.6923 53.1746C72.3345 53.3171 71.9407 53.3545 71.5607 53.2821C71.1807 53.2098 70.8316 53.0308 70.5577 52.7679C70.2838 52.5051 70.0973 52.1701 70.0218 51.8055C69.9464 51.4408 69.9854 51.0629 70.1339 50.7196C70.2825 50.3762 70.5338 50.0829 70.8562 49.8767C71.1786 49.6705 71.5574 49.5608 71.9448 49.5613C72.4629 49.5621 72.9596 49.7599 73.3259 50.1115C73.6923 50.4631 73.8984 50.9396 73.8992 51.4368Z" fill="#F2F2F2"/>
    <path d="M73.6452 51.4745C73.6446 51.7862 73.5476 52.0907 73.3665 52.3494C73.1853 52.6081 72.9282 52.8094 72.6278 52.9277C72.3273 53.0461 71.997 53.0761 71.6787 53.0141C71.3604 52.9521 71.0684 52.8008 70.8398 52.5794C70.6112 52.358 70.4563 52.0765 70.3946 51.7705C70.3329 51.4645 70.3673 51.1478 70.4934 50.8605C70.6195 50.5733 70.8316 50.3285 71.1028 50.157C71.3741 49.9856 71.6923 49.8953 72.0171 49.8976C72.4505 49.9007 72.8651 50.0683 73.1702 50.3638C73.4753 50.6592 73.6461 51.0586 73.6452 51.4745Z" fill="black"/>
    <path d="M70.9995 50.1904C70.9995 50.1105 71.0243 50.0324 71.0707 49.966C71.1171 49.8996 71.1831 49.848 71.2601 49.8176C71.3372 49.7873 71.4219 49.7797 71.5036 49.7957C71.5852 49.8117 71.66 49.8507 71.7184 49.9076C71.7769 49.9646 71.8164 50.0369 71.8319 50.1154C71.8474 50.194 71.8383 50.2752 71.8055 50.3487C71.7728 50.4222 71.7181 50.4847 71.6482 50.5283C71.5784 50.5718 71.4966 50.5945 71.4133 50.5933C71.303 50.5918 71.1978 50.5487 71.1203 50.4733C71.0429 50.3979 70.9995 50.2963 70.9995 50.1904Z" fill="white"/>
    <path d="M58.7954 54.1877C58.7945 55.2731 59.0344 56.3463 59.4992 57.3358C61.0277 60.591 65.7763 62.997 67.8213 63.9101C68.5312 63.484 69.9358 62.9042 71.419 61.4317C73.5758 59.304 73.3251 56.8227 72.9867 55.3617C72.6484 53.9008 70.3708 53.4544 68.063 52.3036C67.6868 52.1154 67.2983 51.9508 66.9 51.8108C64.9456 51.1383 62.9731 51.289 61.5986 53.3181C60.0551 55.5791 61.7708 56.3966 62.0276 56.5067C61.804 56.4459 60.3632 55.9734 58.9193 54.3443C58.877 54.2892 58.8347 54.2399 58.7954 54.1877Z" fill="#FFE5C0"/>
    <path d="M-16.0939 64.7739C-14.4325 64.7739 -5.91106 63.5883 -5.91106 63.5883L-12.7711 65.1624C-12.7711 65.1624 -16.0939 67.5567 -14.0156 67.6234C-11.9374 67.6901 10.5035 62.5709 12.5667 61.4317C12.8592 61.2826 13.1619 61.1528 13.4729 61.0433C17.9465 59.391 34.4397 54.8516 34.4397 54.8516C41.1003 52.8225 44.7101 51.3064 46.2386 50.1382C40.8345 50.576 33.8536 51.4977 28.9208 53.3268H28.9057H28.8846C28.2804 53.5385 20.4266 56.3589 15.678 58.3301C15.678 58.3301 4.06032 59.3881 -8.40617 61.4404C-20.8727 63.4927 -17.7553 64.7739 -16.0939 64.7739Z" fill="#B48B57"/>
    <path d="M35.8745 51.4832C37.1795 52.6804 38.8076 53.3703 40.5294 53.0485C46.4349 51.9499 54.9443 53.1616 58.5057 53.7674C57.5995 52.2688 57.237 49.8715 57.1071 48.7497C55.8937 49.4141 54.5257 49.775 53.1288 49.799C51.7151 49.799 49.217 49.9063 46.2386 50.1469C42.7611 50.4108 39.3013 50.8569 35.8745 51.4832Z" fill="#B48B57"/>
    <path d="M59.1793 54.0573C59.1793 54.0573 58.4241 60.6113 63.7617 64.1159C69.0993 67.6205 72.4613 66.8494 67.4258 72.2323C62.3903 77.6153 52.9264 86.4129 42.5381 89.4885C32.1499 92.564 43.4443 87.097 47.5767 81.4561C47.5767 81.4561 39.3332 88.8711 29.102 90.3755C18.8708 91.8799 22.0788 90.6828 27.2714 86.668C32.464 82.6533 36.8652 79.8357 36.8652 79.8357C36.8652 79.8357 29.8813 84.4476 22.393 86.4129C14.9046 88.3783 19.9432 84.8737 23.6013 82.3982C27.2594 79.9227 34.2886 76.8442 34.2886 76.8442C34.2886 76.8442 23.7523 79.3226 17.1883 80.4329C10.6243 81.5431 15.3577 79.1516 18.0945 77.6124C20.8313 76.0732 24.6615 75.2209 24.6615 75.2209C24.6615 75.2209 16.8741 76.3311 15.1946 76.1601C13.5151 75.9891 18.6926 73.2614 20.6833 72.8295C22.6739 72.3976 26.3562 70.9598 26.3562 70.9598C26.3562 70.9598 21.4686 71.3772 21.9278 70.0902C22.3869 68.8031 27.4225 66.3218 27.4225 66.3218C27.4225 66.3218 24.2175 66.9016 23.9124 65.2899C23.6073 63.6782 27.7276 62.7274 27.7276 62.7274C27.7276 62.7274 23.6073 62.8984 24.0634 61.6172C24.5196 60.336 27.7276 59.5678 27.7276 59.5678C27.7276 59.5678 24.2175 59.3098 23.9124 58.5416C23.6073 57.7735 26.3562 57.0053 26.3562 57.0053C26.3562 57.0053 22.3296 56.5415 23.9607 55.2661C25.5919 53.9906 29.2561 54.0254 29.2561 54.0254C34.521 53.3126 39.82 52.8541 45.1329 52.6514C52.9203 52.4079 59.2125 52.8572 59.1793 54.0573Z" fill="#B48B57"/>
    <path d="M56.1374 57.5184C56.1374 57.5184 59.3696 62.8521 62.9038 65.1218C66.4381 67.3915 53.1379 77.2616 50.3316 77.4906C47.5254 77.7196 48.9421 73.818 48.9421 73.818C48.9421 73.818 40.6714 75.6702 41.8887 72.4498C41.8887 72.4498 27.4195 74.276 35.7053 69.6873C35.7053 69.6873 28.084 67.29 34.7991 65.5044C34.7991 65.5044 29.3195 63.6463 34.7991 60.1273C34.7991 60.1273 32.1469 55.4893 43.4595 55.1356C54.7721 54.782 56.1374 57.5184 56.1374 57.5184Z" fill="#CB9A66"/>

</g>
</g>
</svg>
