<svg width="211" height="155" viewBox="0 0 211 155" fill="none" xmlns="http://www.w3.org/2000/svg">
    <defs>
        <filter id="filter0_d_729_13117" x="0" y="0" width="211" height="155" filterUnits="userSpaceOnUse" color-interpolation-filters="sRGB">
            <feFlood flood-opacity="0" result="BackgroundImageFix"/>
            <feColorMatrix in="SourceAlpha" type="matrix" values="0 0 0 0 0 0 0 0 0 0 0 0 0 0 0 0 0 0 127 0" result="hardAlpha"/>
            <feOffset dy="4"/>
            <feGaussianBlur stdDeviation="2"/>
            <feComposite in2="hardAlpha" operator="out"/>
            <feColorMatrix type="matrix" values="0 0 0 0 0 0 0 0 0 0 0 0 0 0 0 0 0 0 0.25 0"/>
            <feBlend mode="normal" in2="BackgroundImageFix" result="effect1_dropShadow_729_13117"/>
            <feBlend mode="normal" in="SourceGraphic" in2="effect1_dropShadow_729_13117" result="shape"/>
        </filter>
    </defs>
<g filter="url(#filter0_d_729_13117)">
<rect x="4" width="203" height="147" rx="10" fill="#555555"/>
<rect x="9" y="5" width="193" height="137" rx="5" stroke="#4D4C4C" stroke-width="10"/>
</g>
<path fill-rule="evenodd" clip-rule="evenodd" d="M105.605 60C116.579 60 125.421 69.8031 125.421 81.8988H119.263C119.342 73.5187 113.184 66.7198 105.605 66.7198C98.0264 66.7198 91.9474 73.5187 91.9474 81.8197H85.7896C85.7896 69.8031 94.6317 60 105.605 60Z" stroke="#989898" stroke-width="0.9601" stroke-miterlimit="22.9256"/>
<path fill-rule="evenodd" clip-rule="evenodd" d="M105.605 60C116.579 60 125.421 69.8031 125.421 81.8988H119.263C119.342 73.5187 113.184 66.7198 105.605 66.7198C98.0264 66.7198 91.9474 73.5187 91.9474 81.8197H85.7896C85.7896 69.8031 94.6317 60 105.605 60Z" fill="#E5E5E5"/>
<path fill-rule="evenodd" clip-rule="evenodd" d="M105.605 60C116.579 60 125.421 69.8031 125.421 81.8988H125.342C124.395 70.8308 115.947 62.1345 105.605 62.1345C95.2632 62.1345 86.8159 70.8308 85.8685 81.8988H85.7896C85.7896 69.8031 94.6317 60 105.605 60Z" fill="white"/>
<path fill-rule="evenodd" clip-rule="evenodd" d="M125.342 79.5271C125.421 80.3176 125.421 81.1082 125.421 81.8988H119.263C119.342 73.5187 113.184 66.7199 105.605 66.7199C98.0264 66.7199 91.9474 73.5187 91.9474 81.8197H85.7896C85.7896 81.0291 85.7896 80.2386 85.8685 79.448H91.8685C91.8685 71.068 98.0264 64.3481 105.526 64.3481C113.105 64.3481 119.184 71.147 119.184 79.448H125.342V79.5271Z" fill="#CBCBCB"/>
<path d="M129.289 81.3453H82V116.209H129.289V81.3453Z" stroke="#DBAF00" stroke-width="0.9601" stroke-miterlimit="22.9256"/>
<path fill-rule="evenodd" clip-rule="evenodd" d="M82 81.3453H129.289V116.209H82V81.3453Z" fill="#F6C500"/>
<path fill-rule="evenodd" clip-rule="evenodd" d="M86.0264 81.3453H125.263V116.209H86.0264V81.3453Z" fill="#FFD11F"/>
<path fill-rule="evenodd" clip-rule="evenodd" d="M95.5791 81.3453H115.632V116.209H95.5791V81.3453Z" fill="#FFE00F"/>
<path fill-rule="evenodd" clip-rule="evenodd" d="M105.526 90.1997C108.605 90.1997 111.132 92.7295 111.132 95.8127C111.132 97.7892 110.105 99.5284 108.605 100.477L109.553 106.644H101.105L102.132 100.319C100.79 99.2912 99.8423 97.6311 99.8423 95.8127C99.9212 92.7295 102.448 90.1997 105.526 90.1997Z" fill="#F6C500"/>
<path fill-rule="evenodd" clip-rule="evenodd" d="M105.526 91.939C108.605 91.939 111.132 94.4688 111.132 97.552C111.132 99.5284 110.105 101.268 108.605 102.216L109.553 107.592V108.383H101.105V107.592L102.132 102.058C100.79 101.031 99.8423 99.3703 99.8423 97.552C99.9212 94.4688 102.448 91.939 105.526 91.939Z" fill="white"/>
<path fill-rule="evenodd" clip-rule="evenodd" d="M105.526 91.1484C108.605 91.1484 111.132 93.6783 111.132 96.7615C111.132 98.7379 110.105 100.477 108.605 101.426L109.553 107.592H101.105L102.132 101.268C100.79 100.24 99.8423 98.5798 99.8423 96.7615C99.9212 93.6783 102.448 91.1484 105.526 91.1484Z" fill="#7A5500"/>
<path d="M129.289 81.9778H82V82.6102H129.289V81.9778Z" fill="white"/>
<path fill-rule="evenodd" clip-rule="evenodd" d="M105.526 93.5992C107.737 93.5992 109.474 95.4175 109.474 97.552C109.474 98.896 108.763 100.161 107.737 100.872L108.368 105.221H102.368L103.079 100.714C102.132 100.003 101.5 98.8169 101.5 97.552C101.579 95.4175 103.395 93.5992 105.526 93.5992Z" fill="black"/>
<path d="M47.5625 29.1582V38H45.1455C45.21 37.6484 45.248 37.1416 45.2598 36.4795C45.2715 35.8115 45.2773 35.0439 45.2773 34.1768V28.9912C45.2773 28.124 45.2715 27.3594 45.2598 26.6973C45.248 26.0293 45.21 25.5195 45.1455 25.168H47.5625L53.4512 34.0186V25.168H55.8682C55.8389 25.3438 55.8154 25.5605 55.7979 25.8184C55.7803 26.0762 55.7656 26.3691 55.7539 26.6973C55.748 27.0195 55.7422 27.374 55.7363 27.7607C55.7363 28.1475 55.7363 28.5576 55.7363 28.9912V38H53.4512L47.5625 29.1582ZM58.6895 25.8271C58.6895 25.6045 58.7275 25.3994 58.8037 25.2119C58.8799 25.0244 58.9854 24.8633 59.1201 24.7285C59.2607 24.5879 59.4248 24.4795 59.6123 24.4033C59.7998 24.3271 60.0049 24.2891 60.2275 24.2891C60.4502 24.2891 60.6553 24.3271 60.8428 24.4033C61.0303 24.4795 61.1914 24.5879 61.3262 24.7285C61.4668 24.8633 61.5752 25.0244 61.6514 25.2119C61.7275 25.3994 61.7656 25.6045 61.7656 25.8271C61.7656 26.0557 61.7275 26.2637 61.6514 26.4512C61.5752 26.6387 61.4668 26.8027 61.3262 26.9434C61.1914 27.0781 61.0303 27.1836 60.8428 27.2598C60.6553 27.3301 60.4502 27.3652 60.2275 27.3652C60.0049 27.3652 59.7998 27.3301 59.6123 27.2598C59.4248 27.1836 59.2607 27.0781 59.1201 26.9434C58.9854 26.8027 58.8799 26.6387 58.8037 26.4512C58.7275 26.2637 58.6895 26.0557 58.6895 25.8271ZM61.458 29.0352V33.8252C61.458 34.1064 61.4609 34.4404 61.4668 34.8271C61.4785 35.208 61.4902 35.5947 61.502 35.9873C61.5195 36.3799 61.5371 36.7549 61.5547 37.1123C61.5781 37.4697 61.6045 37.7656 61.6338 38H58.9971V33.3418C58.9971 32.9141 58.9941 32.4922 58.9883 32.0762C58.9883 31.6602 58.9824 31.2676 58.9707 30.8984C58.9648 30.5234 58.9531 30.1777 58.9355 29.8613C58.918 29.5391 58.8945 29.2637 58.8652 29.0352H61.458ZM72.6553 29.0352C72.5322 29.2871 72.4033 29.5596 72.2686 29.8525C72.1396 30.1455 72.0137 30.4326 71.8906 30.7139C71.7734 30.9951 71.6621 31.2617 71.5566 31.5137C71.4512 31.7656 71.3633 31.9795 71.293 32.1553C71.2344 32.2959 71.1553 32.4893 71.0557 32.7354C70.9619 32.9756 70.8535 33.248 70.7305 33.5527C70.6133 33.8516 70.4873 34.1709 70.3525 34.5107C70.2178 34.8447 70.0859 35.1758 69.957 35.5039C69.6465 36.2773 69.3154 37.1094 68.9639 38H66.8193C66.4795 37.1504 66.1602 36.3477 65.8613 35.5918C65.7324 35.2695 65.6006 34.9414 65.4658 34.6074C65.3311 34.2734 65.2021 33.9541 65.0791 33.6494C64.9619 33.3389 64.8506 33.0547 64.7451 32.7969C64.6455 32.5391 64.5605 32.3252 64.4902 32.1553C64.4199 31.9795 64.332 31.7656 64.2266 31.5137C64.1211 31.2559 64.0068 30.9863 63.8838 30.7051C63.7607 30.4238 63.6348 30.1396 63.5059 29.8525C63.377 29.5596 63.251 29.2871 63.1279 29.0352H65.8701L67.9268 35.4512L69.9482 29.0352H72.6553ZM75.9424 34.0449C76.001 34.8066 76.2148 35.3574 76.584 35.6973C76.959 36.0312 77.4775 36.1982 78.1396 36.1982C78.7197 36.1982 79.2822 36.1338 79.8271 36.0049C80.3779 35.8701 80.9287 35.6387 81.4795 35.3105L81.6641 37.3408C81.3477 37.499 81.0371 37.6338 80.7324 37.7451C80.4336 37.8564 80.1318 37.9473 79.8271 38.0176C79.5283 38.0879 79.2207 38.1377 78.9043 38.167C78.5879 38.2021 78.2598 38.2197 77.9199 38.2197C77.3398 38.2197 76.7832 38.123 76.25 37.9297C75.7227 37.7305 75.2568 37.4404 74.8525 37.0596C74.4482 36.6729 74.126 36.1953 73.8857 35.627C73.6514 35.0586 73.5342 34.3994 73.5342 33.6494C73.5342 32.9229 73.6338 32.2666 73.833 31.6807C74.0381 31.0889 74.3311 30.585 74.7119 30.1689C75.0928 29.7471 75.5527 29.4248 76.0918 29.2021C76.6309 28.9736 77.2402 28.8594 77.9199 28.8594C78.4121 28.8594 78.8428 28.9209 79.2119 29.0439C79.5869 29.1611 79.9092 29.3252 80.1787 29.5361C80.4541 29.7412 80.6826 29.9873 80.8643 30.2744C81.0518 30.5557 81.1982 30.8633 81.3037 31.1973C81.415 31.5254 81.4941 31.8711 81.541 32.2344C81.5879 32.5977 81.6113 32.9609 81.6113 33.3242V33.4824C81.6113 33.5469 81.6113 33.6143 81.6113 33.6846C81.6172 33.7549 81.6201 33.8223 81.6201 33.8867V34.0449H75.9424ZM77.7969 30.7051C77.2871 30.7051 76.8828 30.8428 76.584 31.1182C76.291 31.3877 76.0947 31.8359 75.9951 32.4629H79.3789C79.3789 31.8418 79.2441 31.3936 78.9746 31.1182C78.7109 30.8428 78.3184 30.7051 77.7969 30.7051ZM89.7061 31.0039C89.583 30.9746 89.4043 30.9395 89.1699 30.8984C88.9355 30.8516 88.6309 30.8281 88.2559 30.8281C87.793 30.8281 87.4062 30.9277 87.0957 31.127C86.7852 31.3262 86.5361 31.5928 86.3486 31.9268C86.167 32.2607 86.0352 32.6416 85.9531 33.0693C85.877 33.4971 85.8389 33.9395 85.8389 34.3965C85.8389 34.6543 85.8623 34.8887 85.9092 35.0996C85.9619 35.3105 86.0322 35.4922 86.1201 35.6445C86.208 35.7969 86.3105 35.917 86.4277 36.0049C86.5449 36.0869 86.6709 36.1279 86.8057 36.1279C87.0225 36.1279 87.2451 36.04 87.4736 35.8643C87.7021 35.6826 87.9219 35.4512 88.1328 35.1699C88.3496 34.8887 88.5518 34.5752 88.7393 34.2295C88.9326 33.8838 89.0996 33.5439 89.2402 33.21C89.3867 32.8701 89.501 32.5566 89.583 32.2695C89.665 31.9824 89.7061 31.7539 89.7061 31.584V31.0039ZM90.4531 38C90.3887 37.8945 90.3271 37.7334 90.2686 37.5166C90.21 37.2939 90.1572 37.0566 90.1104 36.8047C90.0693 36.5469 90.0342 36.2949 90.0049 36.0488C89.9814 35.7969 89.9697 35.5889 89.9697 35.4248V34.9238C89.7822 35.3047 89.5566 35.6914 89.293 36.084C89.0352 36.4707 88.7393 36.8223 88.4053 37.1387C88.0713 37.4551 87.7021 37.7158 87.2979 37.9209C86.8994 38.1201 86.4717 38.2197 86.0146 38.2197C85.6455 38.2197 85.2998 38.1377 84.9775 37.9736C84.6553 37.8096 84.374 37.5664 84.1338 37.2441C83.8994 36.9219 83.7148 36.5234 83.5801 36.0488C83.4453 35.5684 83.3779 35.0176 83.3779 34.3965C83.3779 33.6992 83.4805 33.0195 83.6855 32.3574C83.8906 31.6895 84.207 31.0977 84.6348 30.582C85.0625 30.0605 85.6074 29.6445 86.2695 29.334C86.9316 29.0176 87.7168 28.8594 88.625 28.8594C89.2637 28.8594 89.8965 28.8975 90.5234 28.9736C91.1504 29.0439 91.7158 29.1377 92.2197 29.2549V33.3418C92.2197 34.4492 92.2725 35.3809 92.3779 36.1367C92.4834 36.8867 92.6211 37.5078 92.791 38H90.4531ZM101.404 38C101.363 37.9062 101.319 37.7979 101.272 37.6748C101.226 37.5459 101.179 37.4111 101.132 37.2705C101.091 37.1299 101.05 36.9834 101.009 36.8311C100.974 36.6787 100.944 36.5264 100.921 36.374C100.399 36.9775 99.8604 37.4375 99.3037 37.7539C98.7471 38.0645 98.167 38.2197 97.5635 38.2197C95.7295 38.2197 94.8125 36.96 94.8125 34.4404V31.8477C94.8125 31.5664 94.8096 31.3115 94.8037 31.083C94.8037 30.8545 94.7979 30.6348 94.7861 30.4238C94.7744 30.207 94.7568 29.9873 94.7334 29.7646C94.71 29.542 94.6777 29.2988 94.6367 29.0352H97.2734V33.9131C97.2734 34.3115 97.291 34.6543 97.3262 34.9414C97.3672 35.2285 97.4346 35.4658 97.5283 35.6533C97.6221 35.835 97.7451 35.9697 97.8975 36.0576C98.0498 36.1455 98.2373 36.1895 98.46 36.1895C98.6592 36.1895 98.8701 36.1309 99.0928 36.0137C99.3213 35.8965 99.5381 35.7471 99.7432 35.5654C99.9541 35.3779 100.145 35.1758 100.314 34.959C100.484 34.7422 100.613 34.5312 100.701 34.3262V31.8477C100.701 31.5605 100.698 31.3027 100.692 31.0742C100.692 30.8398 100.687 30.6172 100.675 30.4062C100.663 30.1953 100.646 29.9814 100.622 29.7646C100.599 29.5479 100.566 29.3047 100.525 29.0352H103.162V34.0449C103.162 34.9004 103.209 35.6504 103.303 36.2949C103.402 36.9336 103.546 37.502 103.733 38H101.404ZM112.971 23.9375V30.5732C113.17 30.3271 113.384 30.1016 113.612 29.8965C113.847 29.6855 114.099 29.5039 114.368 29.3516C114.644 29.1992 114.937 29.0791 115.247 28.9912C115.563 28.9033 115.9 28.8594 116.258 28.8594C116.691 28.8594 117.087 28.9678 117.444 29.1846C117.808 29.4014 118.118 29.7061 118.376 30.0986C118.64 30.4854 118.845 30.9482 118.991 31.4873C119.138 32.0264 119.211 32.6152 119.211 33.2539C119.211 34.0098 119.111 34.6924 118.912 35.3018C118.719 35.9111 118.44 36.4326 118.077 36.8662C117.714 37.2998 117.274 37.6338 116.759 37.8682C116.243 38.1025 115.669 38.2197 115.036 38.2197C114.614 38.2197 114.201 38.1934 113.797 38.1406C113.398 38.0938 113.009 38.0322 112.628 37.9561C112.253 37.874 111.89 37.7891 111.538 37.7012C111.187 37.6074 110.844 37.5166 110.51 37.4287V27.0312C110.51 26.6562 110.504 26.2812 110.492 25.9062C110.486 25.5254 110.475 25.165 110.457 24.8252C110.439 24.4795 110.413 24.1836 110.378 23.9375H112.971ZM112.971 35.8906C113.141 35.9727 113.296 36.043 113.437 36.1016C113.577 36.1543 113.712 36.1982 113.841 36.2334C113.97 36.2686 114.099 36.2949 114.228 36.3125C114.356 36.3242 114.494 36.3301 114.641 36.3301C114.957 36.3301 115.25 36.2627 115.52 36.1279C115.789 35.9932 116.021 35.8057 116.214 35.5654C116.413 35.3252 116.565 35.0352 116.671 34.6953C116.782 34.3555 116.838 33.9775 116.838 33.5615C116.838 33.1689 116.803 32.8145 116.732 32.498C116.668 32.1816 116.571 31.915 116.442 31.6982C116.313 31.4756 116.155 31.3057 115.968 31.1885C115.78 31.0713 115.566 31.0127 115.326 31.0127C115.098 31.0127 114.869 31.0596 114.641 31.1533C114.418 31.2412 114.201 31.3672 113.99 31.5312C113.785 31.6895 113.595 31.8828 113.419 32.1113C113.243 32.3398 113.094 32.5889 112.971 32.8584V35.8906ZM124.054 33.8252C124.054 34.1064 124.057 34.4375 124.062 34.8184C124.074 35.1992 124.086 35.5859 124.098 35.9785C124.115 36.3711 124.133 36.7461 124.15 37.1035C124.174 37.4609 124.2 37.7598 124.229 38H121.593V28.0684C121.593 27.2129 121.578 26.4395 121.549 25.748C121.52 25.0508 121.476 24.4473 121.417 23.9375H124.054V33.8252ZM128.888 33.5439C128.888 33.9658 128.926 34.3438 129.002 34.6777C129.084 35.0059 129.201 35.2871 129.354 35.5215C129.512 35.7559 129.705 35.9346 129.934 36.0576C130.168 36.1807 130.435 36.2422 130.733 36.2422C131.015 36.2422 131.27 36.1807 131.498 36.0576C131.727 35.9346 131.92 35.7559 132.078 35.5215C132.242 35.2871 132.365 35.0059 132.447 34.6777C132.535 34.3438 132.579 33.9658 132.579 33.5439C132.579 32.7002 132.421 32.0381 132.104 31.5576C131.794 31.0771 131.337 30.8369 130.733 30.8369C130.452 30.8369 130.197 30.8984 129.969 31.0215C129.74 31.1445 129.544 31.3232 129.38 31.5576C129.222 31.792 129.099 32.0762 129.011 32.4102C128.929 32.7441 128.888 33.1221 128.888 33.5439ZM126.427 33.5439C126.427 32.7881 126.544 32.1201 126.778 31.54C127.013 30.9541 127.329 30.4648 127.728 30.0723C128.132 29.6738 128.601 29.3721 129.134 29.167C129.667 28.9619 130.229 28.8594 130.821 28.8594C131.442 28.8594 132.011 28.9619 132.526 29.167C133.048 29.3721 133.493 29.6738 133.862 30.0723C134.237 30.4648 134.527 30.9541 134.732 31.54C134.938 32.1201 135.04 32.7881 135.04 33.5439C135.04 34.2998 134.923 34.9707 134.688 35.5566C134.454 36.1367 134.135 36.626 133.73 37.0244C133.332 37.417 132.866 37.7158 132.333 37.9209C131.8 38.1201 131.237 38.2197 130.646 38.2197C130.024 38.2197 129.456 38.1201 128.94 37.9209C128.425 37.7158 127.979 37.417 127.604 37.0244C127.235 36.626 126.945 36.1367 126.734 35.5566C126.529 34.9707 126.427 34.2998 126.427 33.5439ZM142.774 31.2324C142.593 31.1504 142.394 31.083 142.177 31.0303C141.966 30.9775 141.77 30.9512 141.588 30.9512C141.148 30.9512 140.776 31.0332 140.472 31.1973C140.167 31.3555 139.918 31.5664 139.725 31.8301C139.531 32.0938 139.391 32.3926 139.303 32.7266C139.215 33.0605 139.171 33.3975 139.171 33.7373C139.171 34.1709 139.218 34.5459 139.312 34.8623C139.411 35.1729 139.54 35.4307 139.698 35.6357C139.862 35.835 140.05 35.9814 140.261 36.0752C140.478 36.1689 140.7 36.2158 140.929 36.2158C141.239 36.2158 141.553 36.0957 141.869 35.8555C142.191 35.6152 142.493 35.252 142.774 34.7656V31.2324ZM142.774 36.9453C142.317 37.4141 141.881 37.7451 141.465 37.9385C141.049 38.126 140.636 38.2197 140.226 38.2197C139.821 38.2197 139.411 38.1406 138.995 37.9824C138.579 37.8242 138.201 37.5811 137.861 37.2529C137.521 36.9189 137.243 36.4971 137.026 35.9873C136.815 35.4775 136.71 34.874 136.71 34.1768C136.71 33.5029 136.798 32.8467 136.974 32.208C137.149 31.5693 137.422 31.0039 137.791 30.5117C138.16 30.0137 138.632 29.6152 139.206 29.3164C139.786 29.0117 140.478 28.8594 141.28 28.8594C141.614 28.8594 141.951 28.8799 142.291 28.9209C142.637 28.9561 142.977 29.0059 143.311 29.0703C143.65 29.1348 143.981 29.208 144.304 29.29C144.626 29.3662 144.937 29.4424 145.235 29.5186V39.3184C145.235 39.6699 145.238 39.9863 145.244 40.2676C145.256 40.5547 145.271 40.8184 145.288 41.0586C145.306 41.2988 145.329 41.5186 145.358 41.7178C145.388 41.9229 145.42 42.1191 145.455 42.3066H142.774V36.9453ZM154.332 38C154.291 37.9062 154.247 37.7979 154.2 37.6748C154.153 37.5459 154.106 37.4111 154.06 37.2705C154.019 37.1299 153.978 36.9834 153.937 36.8311C153.901 36.6787 153.872 36.5264 153.849 36.374C153.327 36.9775 152.788 37.4375 152.231 37.7539C151.675 38.0645 151.095 38.2197 150.491 38.2197C148.657 38.2197 147.74 36.96 147.74 34.4404V31.8477C147.74 31.5664 147.737 31.3115 147.731 31.083C147.731 30.8545 147.726 30.6348 147.714 30.4238C147.702 30.207 147.685 29.9873 147.661 29.7646C147.638 29.542 147.605 29.2988 147.564 29.0352H150.201V33.9131C150.201 34.3115 150.219 34.6543 150.254 34.9414C150.295 35.2285 150.362 35.4658 150.456 35.6533C150.55 35.835 150.673 35.9697 150.825 36.0576C150.978 36.1455 151.165 36.1895 151.388 36.1895C151.587 36.1895 151.798 36.1309 152.021 36.0137C152.249 35.8965 152.466 35.7471 152.671 35.5654C152.882 35.3779 153.072 35.1758 153.242 34.959C153.412 34.7422 153.541 34.5312 153.629 34.3262V31.8477C153.629 31.5605 153.626 31.3027 153.62 31.0742C153.62 30.8398 153.614 30.6172 153.603 30.4062C153.591 30.1953 153.573 29.9814 153.55 29.7646C153.526 29.5479 153.494 29.3047 153.453 29.0352H156.09V34.0449C156.09 34.9004 156.137 35.6504 156.23 36.2949C156.33 36.9336 156.474 37.502 156.661 38H154.332ZM160.616 34.0449C160.675 34.8066 160.889 35.3574 161.258 35.6973C161.633 36.0312 162.151 36.1982 162.813 36.1982C163.394 36.1982 163.956 36.1338 164.501 36.0049C165.052 35.8701 165.603 35.6387 166.153 35.3105L166.338 37.3408C166.021 37.499 165.711 37.6338 165.406 37.7451C165.107 37.8564 164.806 37.9473 164.501 38.0176C164.202 38.0879 163.895 38.1377 163.578 38.167C163.262 38.2021 162.934 38.2197 162.594 38.2197C162.014 38.2197 161.457 38.123 160.924 37.9297C160.396 37.7305 159.931 37.4404 159.526 37.0596C159.122 36.6729 158.8 36.1953 158.56 35.627C158.325 35.0586 158.208 34.3994 158.208 33.6494C158.208 32.9229 158.308 32.2666 158.507 31.6807C158.712 31.0889 159.005 30.585 159.386 30.1689C159.767 29.7471 160.227 29.4248 160.766 29.2021C161.305 28.9736 161.914 28.8594 162.594 28.8594C163.086 28.8594 163.517 28.9209 163.886 29.0439C164.261 29.1611 164.583 29.3252 164.853 29.5361C165.128 29.7412 165.356 29.9873 165.538 30.2744C165.726 30.5557 165.872 30.8633 165.978 31.1973C166.089 31.5254 166.168 31.8711 166.215 32.2344C166.262 32.5977 166.285 32.9609 166.285 33.3242V33.4824C166.285 33.5469 166.285 33.6143 166.285 33.6846C166.291 33.7549 166.294 33.8223 166.294 33.8867V34.0449H160.616ZM162.471 30.7051C161.961 30.7051 161.557 30.8428 161.258 31.1182C160.965 31.3877 160.769 31.8359 160.669 32.4629H164.053C164.053 31.8418 163.918 31.3936 163.648 31.1182C163.385 30.8428 162.992 30.7051 162.471 30.7051ZM165.828 23.9375L162.312 27.4531H160.203L162.752 23.9375H165.828Z" fill="white"/>

</svg>
