<svg width="211" height="155" viewBox="0 0 211 155" fill="none" xmlns="http://www.w3.org/2000/svg">

    <defs>
        <filter id="filter0_d_1157_22727" x="0" y="0" width="211" height="155" filterUnits="userSpaceOnUse" color-interpolation-filters="sRGB">
            <feFlood flood-opacity="0" result="BackgroundImageFix"/>
            <feColorMatrix in="SourceAlpha" type="matrix" values="0 0 0 0 0 0 0 0 0 0 0 0 0 0 0 0 0 0 127 0" result="hardAlpha"/>
            <feOffset dy="4"/>
            <feGaussianBlur stdDeviation="2"/>
            <feComposite in2="hardAlpha" operator="out"/>
            <feColorMatrix type="matrix" values="0 0 0 0 0 0 0 0 0 0 0 0 0 0 0 0 0 0 0.25 0"/>
            <feBlend mode="normal" in2="BackgroundImageFix" result="effect1_dropShadow_1157_22727"/>
            <feBlend mode="normal" in="SourceGraphic" in2="effect1_dropShadow_1157_22727" result="shape"/>
        </filter>
        <clipPath id="clip0_1157_22727">
            <rect x="4" width="203" height="147" rx="10" fill="white"/>
        </clipPath>
        <clipPath id="clip1_1157_22727">
            <rect width="203" height="118" fill="white" transform="translate(4 102)"/>
        </clipPath>
    </defs>
<g filter="url(#filter0_d_1157_22727)">
<g clip-path="url(#clip0_1157_22727)">
<rect x="4" width="203" height="147" rx="10" fill="#3580FD"/>
<path d="M48.2568 25.3096V27.2871H43.4492V30.9785H45.7168C46.5605 30.9785 47.2607 30.9727 47.8174 30.9609C48.3799 30.9492 48.834 30.9111 49.1797 30.8467V33H40.8125C40.877 32.6484 40.915 32.1416 40.9268 31.4795C40.9385 30.8115 40.9443 30.0439 40.9443 29.1768V23.9912C40.9443 23.124 40.9385 22.3594 40.9268 21.6973C40.915 21.0293 40.877 20.5195 40.8125 20.168H48.916V22.1895H43.4492V25.3096H48.2568ZM48.5469 15.1582L45.0312 18.6738H42.9219L45.4707 15.1582H48.5469ZM59.7617 24.0352C59.6387 24.2871 59.5098 24.5596 59.375 24.8525C59.2461 25.1455 59.1201 25.4326 58.9971 25.7139C58.8799 25.9951 58.7686 26.2617 58.6631 26.5137C58.5576 26.7656 58.4697 26.9795 58.3994 27.1553C58.3408 27.2959 58.2617 27.4893 58.1621 27.7354C58.0684 27.9756 57.96 28.248 57.8369 28.5527C57.7197 28.8516 57.5938 29.1709 57.459 29.5107C57.3242 29.8447 57.1924 30.1758 57.0635 30.5039C56.7529 31.2773 56.4219 32.1094 56.0703 33H53.9258C53.5859 32.1504 53.2666 31.3477 52.9678 30.5918C52.8389 30.2695 52.707 29.9414 52.5723 29.6074C52.4375 29.2734 52.3086 28.9541 52.1855 28.6494C52.0684 28.3389 51.957 28.0547 51.8516 27.7969C51.752 27.5391 51.667 27.3252 51.5967 27.1553C51.5264 26.9795 51.4385 26.7656 51.333 26.5137C51.2275 26.2559 51.1133 25.9863 50.9902 25.7051C50.8672 25.4238 50.7412 25.1396 50.6123 24.8525C50.4834 24.5596 50.3574 24.2871 50.2344 24.0352H52.9766L55.0332 30.4512L57.0547 24.0352H59.7617ZM61.124 20.8271C61.124 20.6045 61.1621 20.3994 61.2383 20.2119C61.3145 20.0244 61.4199 19.8633 61.5547 19.7285C61.6953 19.5879 61.8594 19.4795 62.0469 19.4033C62.2344 19.3271 62.4395 19.2891 62.6621 19.2891C62.8848 19.2891 63.0898 19.3271 63.2773 19.4033C63.4648 19.4795 63.626 19.5879 63.7607 19.7285C63.9014 19.8633 64.0098 20.0244 64.0859 20.2119C64.1621 20.3994 64.2002 20.6045 64.2002 20.8271C64.2002 21.0557 64.1621 21.2637 64.0859 21.4512C64.0098 21.6387 63.9014 21.8027 63.7607 21.9434C63.626 22.0781 63.4648 22.1836 63.2773 22.2598C63.0898 22.3301 62.8848 22.3652 62.6621 22.3652C62.4395 22.3652 62.2344 22.3301 62.0469 22.2598C61.8594 22.1836 61.6953 22.0781 61.5547 21.9434C61.4199 21.8027 61.3145 21.6387 61.2383 21.4512C61.1621 21.2637 61.124 21.0557 61.124 20.8271ZM63.8926 24.0352V28.8252C63.8926 29.1064 63.8955 29.4404 63.9014 29.8271C63.9131 30.208 63.9248 30.5947 63.9365 30.9873C63.9541 31.3799 63.9717 31.7549 63.9893 32.1123C64.0127 32.4697 64.0391 32.7656 64.0684 33H61.4316V28.3418C61.4316 27.9141 61.4287 27.4922 61.4229 27.0762C61.4229 26.6602 61.417 26.2676 61.4053 25.8984C61.3994 25.5234 61.3877 25.1777 61.3701 24.8613C61.3525 24.5391 61.3291 24.2637 61.2998 24.0352H63.8926ZM69.8691 25.9248V28.9395C69.8691 29.4375 69.8896 29.8359 69.9307 30.1348C69.9717 30.4277 70.0361 30.6533 70.124 30.8115C70.2178 30.9697 70.335 31.0723 70.4756 31.1191C70.6162 31.166 70.7861 31.1895 70.9854 31.1895C71.208 31.1895 71.457 31.1338 71.7324 31.0225C72.0137 30.9111 72.3301 30.7471 72.6816 30.5303V32.499C72.2598 32.7627 71.8555 32.9473 71.4688 33.0527C71.0879 33.1641 70.7393 33.2197 70.4229 33.2197C70.0068 33.2197 69.6143 33.1787 69.2451 33.0967C68.8818 33.0205 68.5625 32.8828 68.2871 32.6836C68.0176 32.4844 67.8037 32.2207 67.6455 31.8926C67.4873 31.5586 67.4082 31.1367 67.4082 30.627V25.9248H65.7383V24.167H67.4082V21.3984H69.8691V24.167H72.5498V25.9248H69.8691ZM76.4609 29.0449C76.5195 29.8066 76.7334 30.3574 77.1025 30.6973C77.4775 31.0312 77.9961 31.1982 78.6582 31.1982C79.2383 31.1982 79.8008 31.1338 80.3457 31.0049C80.8965 30.8701 81.4473 30.6387 81.998 30.3105L82.1826 32.3408C81.8662 32.499 81.5557 32.6338 81.251 32.7451C80.9521 32.8564 80.6504 32.9473 80.3457 33.0176C80.0469 33.0879 79.7393 33.1377 79.4229 33.167C79.1064 33.2021 78.7783 33.2197 78.4385 33.2197C77.8584 33.2197 77.3018 33.123 76.7686 32.9297C76.2412 32.7305 75.7754 32.4404 75.3711 32.0596C74.9668 31.6729 74.6445 31.1953 74.4043 30.627C74.1699 30.0586 74.0527 29.3994 74.0527 28.6494C74.0527 27.9229 74.1523 27.2666 74.3516 26.6807C74.5566 26.0889 74.8496 25.585 75.2305 25.1689C75.6113 24.7471 76.0713 24.4248 76.6104 24.2021C77.1494 23.9736 77.7588 23.8594 78.4385 23.8594C78.9307 23.8594 79.3613 23.9209 79.7305 24.0439C80.1055 24.1611 80.4277 24.3252 80.6973 24.5361C80.9727 24.7412 81.2012 24.9873 81.3828 25.2744C81.5703 25.5557 81.7168 25.8633 81.8223 26.1973C81.9336 26.5254 82.0127 26.8711 82.0596 27.2344C82.1064 27.5977 82.1299 27.9609 82.1299 28.3242V28.4824C82.1299 28.5469 82.1299 28.6143 82.1299 28.6846C82.1357 28.7549 82.1387 28.8223 82.1387 28.8867V29.0449H76.4609ZM78.3154 25.7051C77.8057 25.7051 77.4014 25.8428 77.1025 26.1182C76.8096 26.3877 76.6133 26.8359 76.5137 27.4629H79.8975C79.8975 26.8418 79.7627 26.3936 79.4932 26.1182C79.2295 25.8428 78.8369 25.7051 78.3154 25.7051ZM91.4551 24.0352V25.3008L86.7969 31.1104H89.6533C89.9697 31.1104 90.2891 31.1045 90.6113 31.0928C90.9395 31.0811 91.2646 31.043 91.5869 30.9785V33H83.8525V31.6025L88.4229 25.9248H85.4785C85.2148 25.9248 84.9629 25.9307 84.7227 25.9424C84.4824 25.9541 84.2803 25.9922 84.1162 26.0566V24.0352H91.4551ZM101.211 28.8252C101.211 29.1064 101.214 29.4375 101.22 29.8184C101.231 30.1992 101.243 30.5859 101.255 30.9785C101.272 31.3711 101.29 31.7461 101.308 32.1035C101.331 32.4609 101.357 32.7598 101.387 33H98.75V23.0684C98.75 22.2129 98.7354 21.4395 98.7061 20.748C98.6768 20.0508 98.6328 19.4473 98.5742 18.9375H101.211V28.8252ZM110 26.0039C109.877 25.9746 109.698 25.9395 109.464 25.8984C109.229 25.8516 108.925 25.8281 108.55 25.8281C108.087 25.8281 107.7 25.9277 107.39 26.127C107.079 26.3262 106.83 26.5928 106.643 26.9268C106.461 27.2607 106.329 27.6416 106.247 28.0693C106.171 28.4971 106.133 28.9395 106.133 29.3965C106.133 29.6543 106.156 29.8887 106.203 30.0996C106.256 30.3105 106.326 30.4922 106.414 30.6445C106.502 30.7969 106.604 30.917 106.722 31.0049C106.839 31.0869 106.965 31.1279 107.1 31.1279C107.316 31.1279 107.539 31.04 107.768 30.8643C107.996 30.6826 108.216 30.4512 108.427 30.1699C108.644 29.8887 108.846 29.5752 109.033 29.2295C109.227 28.8838 109.394 28.5439 109.534 28.21C109.681 27.8701 109.795 27.5566 109.877 27.2695C109.959 26.9824 110 26.7539 110 26.584V26.0039ZM110.747 33C110.683 32.8945 110.621 32.7334 110.562 32.5166C110.504 32.2939 110.451 32.0566 110.404 31.8047C110.363 31.5469 110.328 31.2949 110.299 31.0488C110.275 30.7969 110.264 30.5889 110.264 30.4248V29.9238C110.076 30.3047 109.851 30.6914 109.587 31.084C109.329 31.4707 109.033 31.8223 108.699 32.1387C108.365 32.4551 107.996 32.7158 107.592 32.9209C107.193 33.1201 106.766 33.2197 106.309 33.2197C105.939 33.2197 105.594 33.1377 105.271 32.9736C104.949 32.8096 104.668 32.5664 104.428 32.2441C104.193 31.9219 104.009 31.5234 103.874 31.0488C103.739 30.5684 103.672 30.0176 103.672 29.3965C103.672 28.6992 103.774 28.0195 103.979 27.3574C104.185 26.6895 104.501 26.0977 104.929 25.582C105.356 25.0605 105.901 24.6445 106.563 24.334C107.226 24.0176 108.011 23.8594 108.919 23.8594C109.558 23.8594 110.19 23.8975 110.817 23.9736C111.444 24.0439 112.01 24.1377 112.514 24.2549V28.3418C112.514 29.4492 112.566 30.3809 112.672 31.1367C112.777 31.8867 112.915 32.5078 113.085 33H110.747ZM118.93 24.167H120.688V22.7168C120.688 22.0605 120.767 21.4863 120.925 20.9941C121.083 20.4961 121.312 20.083 121.61 19.7549C121.909 19.4209 122.272 19.1719 122.7 19.0078C123.128 18.8438 123.614 18.7617 124.159 18.7617C124.323 18.7617 124.499 18.7793 124.687 18.8145C124.88 18.8438 125.07 18.8877 125.258 18.9463C125.451 18.999 125.636 19.0635 125.812 19.1396C125.987 19.2158 126.14 19.2949 126.269 19.377L125.768 21.3809C125.674 21.293 125.568 21.2139 125.451 21.1436C125.334 21.0732 125.211 21.0146 125.082 20.9678C124.959 20.915 124.833 20.877 124.704 20.8535C124.581 20.8242 124.467 20.8096 124.361 20.8096C123.939 20.8096 123.632 20.9648 123.438 21.2754C123.245 21.5859 123.148 22.0986 123.148 22.8135V24.167H125.39V25.9248H123.148V28.6582C123.148 29.0859 123.151 29.5107 123.157 29.9326C123.169 30.3486 123.184 30.7471 123.201 31.1279C123.225 31.5029 123.254 31.8516 123.289 32.1738C123.324 32.4961 123.365 32.7715 123.412 33H120.688V25.9248H118.93V24.167ZM133.563 33C133.522 32.9062 133.479 32.7979 133.432 32.6748C133.385 32.5459 133.338 32.4111 133.291 32.2705C133.25 32.1299 133.209 31.9834 133.168 31.8311C133.133 31.6787 133.104 31.5264 133.08 31.374C132.559 31.9775 132.02 32.4375 131.463 32.7539C130.906 33.0645 130.326 33.2197 129.723 33.2197C127.889 33.2197 126.972 31.96 126.972 29.4404V26.8477C126.972 26.5664 126.969 26.3115 126.963 26.083C126.963 25.8545 126.957 25.6348 126.945 25.4238C126.934 25.207 126.916 24.9873 126.893 24.7646C126.869 24.542 126.837 24.2988 126.796 24.0352H129.433V28.9131C129.433 29.3115 129.45 29.6543 129.485 29.9414C129.526 30.2285 129.594 30.4658 129.688 30.6533C129.781 30.835 129.904 30.9697 130.057 31.0576C130.209 31.1455 130.396 31.1895 130.619 31.1895C130.818 31.1895 131.029 31.1309 131.252 31.0137C131.48 30.8965 131.697 30.7471 131.902 30.5654C132.113 30.3779 132.304 30.1758 132.474 29.959C132.644 29.7422 132.772 29.5312 132.86 29.3262V26.8477C132.86 26.5605 132.857 26.3027 132.852 26.0742C132.852 25.8398 132.846 25.6172 132.834 25.4062C132.822 25.1953 132.805 24.9814 132.781 24.7646C132.758 24.5479 132.726 24.3047 132.685 24.0352H135.321V29.0449C135.321 29.9004 135.368 30.6504 135.462 31.2949C135.562 31.9336 135.705 32.502 135.893 33H133.563ZM137.923 20.8271C137.923 20.6045 137.961 20.3994 138.037 20.2119C138.113 20.0244 138.219 19.8633 138.354 19.7285C138.494 19.5879 138.658 19.4795 138.846 19.4033C139.033 19.3271 139.238 19.2891 139.461 19.2891C139.684 19.2891 139.889 19.3271 140.076 19.4033C140.264 19.4795 140.425 19.5879 140.56 19.7285C140.7 19.8633 140.809 20.0244 140.885 20.2119C140.961 20.3994 140.999 20.6045 140.999 20.8271C140.999 21.0557 140.961 21.2637 140.885 21.4512C140.809 21.6387 140.7 21.8027 140.56 21.9434C140.425 22.0781 140.264 22.1836 140.076 22.2598C139.889 22.3301 139.684 22.3652 139.461 22.3652C139.238 22.3652 139.033 22.3301 138.846 22.2598C138.658 22.1836 138.494 22.0781 138.354 21.9434C138.219 21.8027 138.113 21.6387 138.037 21.4512C137.961 21.2637 137.923 21.0557 137.923 20.8271ZM140.691 24.0352V28.8252C140.691 29.1064 140.694 29.4404 140.7 29.8271C140.712 30.208 140.724 30.5947 140.735 30.9873C140.753 31.3799 140.771 31.7549 140.788 32.1123C140.812 32.4697 140.838 32.7656 140.867 33H138.23V28.3418C138.23 27.9141 138.228 27.4922 138.222 27.0762C138.222 26.6602 138.216 26.2676 138.204 25.8984C138.198 25.5234 138.187 25.1777 138.169 24.8613C138.151 24.5391 138.128 24.2637 138.099 24.0352H140.691ZM146.668 25.9248V28.9395C146.668 29.4375 146.688 29.8359 146.729 30.1348C146.771 30.4277 146.835 30.6533 146.923 30.8115C147.017 30.9697 147.134 31.0723 147.274 31.1191C147.415 31.166 147.585 31.1895 147.784 31.1895C148.007 31.1895 148.256 31.1338 148.531 31.0225C148.812 30.9111 149.129 30.7471 149.48 30.5303V32.499C149.059 32.7627 148.654 32.9473 148.268 33.0527C147.887 33.1641 147.538 33.2197 147.222 33.2197C146.806 33.2197 146.413 33.1787 146.044 33.0967C145.681 33.0205 145.361 32.8828 145.086 32.6836C144.816 32.4844 144.603 32.2207 144.444 31.8926C144.286 31.5586 144.207 31.1367 144.207 30.627V25.9248H142.537V24.167H144.207V21.3984H146.668V24.167H149.349V25.9248H146.668ZM153.26 29.0449C153.318 29.8066 153.532 30.3574 153.901 30.6973C154.276 31.0312 154.795 31.1982 155.457 31.1982C156.037 31.1982 156.6 31.1338 157.145 31.0049C157.695 30.8701 158.246 30.6387 158.797 30.3105L158.981 32.3408C158.665 32.499 158.354 32.6338 158.05 32.7451C157.751 32.8564 157.449 32.9473 157.145 33.0176C156.846 33.0879 156.538 33.1377 156.222 33.167C155.905 33.2021 155.577 33.2197 155.237 33.2197C154.657 33.2197 154.101 33.123 153.567 32.9297C153.04 32.7305 152.574 32.4404 152.17 32.0596C151.766 31.6729 151.443 31.1953 151.203 30.627C150.969 30.0586 150.852 29.3994 150.852 28.6494C150.852 27.9229 150.951 27.2666 151.15 26.6807C151.355 26.0889 151.648 25.585 152.029 25.1689C152.41 24.7471 152.87 24.4248 153.409 24.2021C153.948 23.9736 154.558 23.8594 155.237 23.8594C155.729 23.8594 156.16 23.9209 156.529 24.0439C156.904 24.1611 157.227 24.3252 157.496 24.5361C157.771 24.7412 158 24.9873 158.182 25.2744C158.369 25.5557 158.516 25.8633 158.621 26.1973C158.732 26.5254 158.812 26.8711 158.858 27.2344C158.905 27.5977 158.929 27.9609 158.929 28.3242V28.4824C158.929 28.5469 158.929 28.6143 158.929 28.6846C158.935 28.7549 158.938 28.8223 158.938 28.8867V29.0449H153.26ZM155.114 25.7051C154.604 25.7051 154.2 25.8428 153.901 26.1182C153.608 26.3877 153.412 26.8359 153.312 27.4629H156.696C156.696 26.8418 156.562 26.3936 156.292 26.1182C156.028 25.8428 155.636 25.7051 155.114 25.7051ZM166.672 31.6816C166.672 31.459 166.71 31.2539 166.786 31.0664C166.862 30.8789 166.968 30.7178 167.103 30.583C167.243 30.4424 167.407 30.334 167.595 30.2578C167.782 30.1816 167.987 30.1436 168.21 30.1436C168.433 30.1436 168.638 30.1816 168.825 30.2578C169.013 30.334 169.174 30.4424 169.309 30.583C169.449 30.7178 169.558 30.8789 169.634 31.0664C169.71 31.2539 169.748 31.459 169.748 31.6816C169.748 31.9102 169.71 32.1182 169.634 32.3057C169.558 32.4932 169.449 32.6572 169.309 32.7979C169.174 32.9326 169.013 33.0352 168.825 33.1055C168.638 33.1816 168.433 33.2197 168.21 33.2197C167.987 33.2197 167.782 33.1816 167.595 33.1055C167.407 33.0352 167.243 32.9326 167.103 32.7979C166.968 32.6572 166.862 32.4932 166.786 32.3057C166.71 32.1182 166.672 31.9102 166.672 31.6816ZM167.067 28.6055C167.05 27.9668 167.038 27.3252 167.032 26.6807C167.026 26.0361 167.012 25.3594 166.988 24.6504C166.971 23.9355 166.941 23.1768 166.9 22.374C166.859 21.5654 166.798 20.6836 166.716 19.7285H169.66C169.572 20.6836 169.508 21.5654 169.467 22.374C169.426 23.1768 169.394 23.9355 169.37 24.6504C169.353 25.3594 169.341 26.0361 169.335 26.6807C169.329 27.3252 169.32 27.9668 169.309 28.6055H167.067Z" fill="white"/>
<rect x="24" y="51" width="159" height="71" rx="10" fill="#0260FD"/>
<g clip-path="url(#clip1_1157_22727)">
<path d="M201.321 134.189C189.224 134.189 177.128 134.183 165.032 134.17C150.784 134.17 136.535 134.17 122.286 134.17C121.464 134.199 120.642 134.169 119.825 134.082C118.389 133.872 117.403 134.897 116.126 135.221C116.529 134.771 116.978 134.364 117.464 134.006C116.722 133.874 116.33 133.685 115.976 133.763C114.329 134.127 112.699 134.036 111.061 133.747C110.874 133.732 110.685 133.736 110.499 133.76C109.192 133.808 107.888 133.858 106.568 133.808C106.6 133.12 106.681 132.434 106.811 131.757C107.289 131.928 107.7 132.138 108.11 132.14C119.224 132.158 130.337 132.158 141.451 132.14C141.977 132.153 142.5 132.068 142.995 131.89C144.191 131.416 144.583 129.976 143.676 129.128C143.242 128.725 142.462 128.529 141.836 128.527C130.158 128.492 118.475 128.501 106.759 128.433C105.45 127.125 104.214 125.854 102.903 124.66C102.311 124.12 102.125 123.644 102.483 122.892C103.071 121.661 103.601 120.404 104.109 119.137C104.295 118.681 104.35 118.155 104.531 117.375C103.933 117.624 103.536 117.678 103.304 117.904C101.551 119.624 99.8002 121.351 98.1218 123.145C97.8519 123.436 97.768 124.131 97.895 124.539C98.394 126.047 99.029 127.515 99.503 128.98C99.0086 128.786 98.6094 128.47 98.1966 128.454C95.983 128.367 93.7626 128.274 91.5512 128.353C90.5147 128.39 89.8162 129.618 89.95 130.707C90.0589 131.587 90.8051 132.136 91.9096 132.149C92.3235 132.174 92.7386 132.174 93.1525 132.149C95.3707 131.901 97.7113 132.799 99.7888 131.523C99.3719 132.364 98.9116 133.183 98.4098 133.977C96.761 134.054 95.196 134.145 93.6288 134.205C93.1058 134.2 92.5833 134.168 92.0638 134.107C91.1952 134.036 90.3265 133.922 89.4556 133.895C88.6708 133.872 87.8679 134.031 87.0991 133.945C85.5613 133.769 85.4751 133.826 85.8652 135.364C85.6157 135.209 85.2438 135.111 85.1395 134.888C84.6291 133.794 83.6924 133.977 82.7966 134.022C82.0095 134.061 81.2248 134.184 80.4378 134.184C58.0475 134.193 35.6565 134.193 13.2648 134.184C12.1538 134.198 11.043 134.148 9.93755 134.036C9.80374 123.894 9.74023 113.887 9.66992 103.88C73.552 103.88 137.47 103.912 201.425 103.978C201.459 104.748 201.332 105.422 201.332 106.097C201.324 115.461 201.321 124.825 201.321 134.189ZM63.9876 106.163H43.7066C42.4229 106.163 41.1142 106.015 39.8623 106.222C39.0766 106.397 38.3811 106.853 37.9049 107.505C37.4513 108.15 37.7915 109.036 38.4697 109.494C38.9626 109.815 39.5337 109.994 40.1208 110.011C43.1419 110.059 46.1629 110.034 49.193 110.034C59.1271 110.034 69.0589 110.034 78.993 110.007C79.7251 110.01 80.4413 109.793 81.0501 109.385C81.2183 109.256 81.3584 109.095 81.4616 108.91C81.5649 108.725 81.6292 108.521 81.6505 108.31C81.6718 108.099 81.6496 107.886 81.5853 107.684C81.521 107.482 81.4161 107.295 81.277 107.136C80.7602 106.582 80.0514 106.248 79.2969 106.204C74.2732 106.129 69.2495 106.163 64.0012 106.163M152.229 110.036C159.855 110.036 167.484 110.036 175.115 110.036C175.638 110.009 176.158 109.944 176.671 109.843C177.492 109.724 177.928 109.275 177.982 108.414C178.037 107.503 177.912 106.714 176.891 106.457C176.314 106.295 175.719 106.204 175.12 106.186C163.716 106.169 152.311 106.169 140.904 106.186C140.342 106.17 139.782 106.254 139.248 106.434C138.067 106.878 137.577 108.567 138.484 109.328C139.033 109.783 139.927 110.011 140.673 110.011C144.447 110.077 148.225 110.041 152.24 110.041M68.095 132.143C73.874 132.143 79.6545 132.143 85.4366 132.143C86.8178 132.143 87.589 131.318 87.4778 130.021C87.3984 129.028 86.6273 128.501 85.2098 128.501H47.7982C47.572 128.478 47.344 128.478 47.1178 128.501C46.1584 128.702 45.58 129.303 45.5301 130.283C45.4848 131.147 45.9656 131.716 46.7957 131.919C47.3036 132.051 47.825 132.122 48.3493 132.131C54.8496 132.145 61.3476 132.131 68.0814 132.131M34.0606 132.131C34.9678 132.131 35.875 132.177 36.7823 132.117C38.3699 132.013 39.1478 130.78 38.4561 129.442C38.0478 128.65 37.3221 128.47 36.4557 128.472C29.275 128.49 22.0966 128.472 14.9091 128.49C14.4212 128.484 13.9357 128.561 13.4735 128.718C12.3848 129.114 11.9743 130.504 12.818 131.284C13.3953 131.784 14.1245 132.073 14.8864 132.104C21.1962 132.165 27.5082 132.14 34.0447 132.14M20.6632 110.039C24.6232 110.039 28.5855 110.039 32.5478 110.039C34.2488 110.039 35.0018 109.289 34.834 107.851C34.7342 106.994 33.7136 106.186 32.5659 106.181C26.3787 106.163 20.1914 106.163 14.0042 106.181C13.5355 106.197 13.0891 106.385 12.7499 106.711C12.4106 107.036 12.2024 107.475 12.1648 107.945C12.0582 109.364 12.7613 109.995 14.5576 110.032C16.5194 110.061 18.4813 110.032 20.67 110.032M186.465 128.488C184.539 128.488 182.609 128.488 180.686 128.488C179.649 128.488 179.209 129.144 179.098 130.035C178.937 131.402 179.749 132.115 181.475 132.133C184.156 132.161 186.839 132.133 189.52 132.133C191.788 132.133 194.056 132.156 196.324 132.133C197.553 132.117 198.388 131.281 198.379 130.192C198.37 129.103 197.642 128.495 196.322 128.495H186.463M182.929 107.213C182.248 107.838 182.339 108.621 182.904 109.107C183.469 109.592 184.265 109.988 184.963 110.002C188.996 110.086 193.031 110.05 197.063 110.032C197.542 110.032 198.114 110.016 198.479 109.765C198.912 109.464 199.386 108.936 199.463 108.448C199.676 106.981 198.762 106.183 196.995 106.17C193.076 106.154 189.155 106.117 185.236 106.206C184.501 106.222 183.777 106.778 182.929 107.206M167.411 128.488C166.544 128.488 165.676 128.488 164.807 128.488C163.616 128.488 162.516 129.399 162.539 130.354C162.562 131.309 163.623 132.129 164.807 132.133C167.68 132.143 170.547 132.143 173.408 132.133C174.614 132.133 175.449 131.279 175.422 130.165C175.388 129.135 174.637 128.499 173.405 128.49C171.48 128.49 169.55 128.49 167.406 128.49M123.633 109.323C123.914 109.489 124.195 109.795 124.479 109.799C127.219 109.857 129.957 109.878 132.694 109.861C133.018 109.816 133.32 109.669 133.556 109.442C134.202 108.893 134.322 108.225 134.009 107.405C133.653 106.464 132.957 106.177 132.068 106.172C129.915 106.158 127.758 106.172 125.611 106.172C123.753 106.174 122.914 107.389 123.642 109.323H123.633Z" fill="#C0CAE4"/>
<path d="M9.63612 103.823C9.74045 113.894 9.80395 123.901 9.86292 134.004C9.32086 135.419 8.82869 136.752 7.03012 136.738C5.19073 136.713 4.08165 135.67 4.02268 133.799C3.99093 132.587 4.02268 131.375 4.02268 130.153C4.00756 121.928 4 113.705 4 105.484C4 103.638 4.64186 102.558 5.9664 102.146C7.36353 101.711 8.56333 102.242 9.63612 103.823Z" fill="#9CA3BC"/>
<path d="M201.321 134.28C201.321 124.824 201.321 115.461 201.334 106.097C201.334 105.413 201.461 104.748 201.532 103.978C202.294 102.779 203.251 102.082 204.678 102.303C206.104 102.524 206.991 103.563 206.991 105.19C207 114.868 207 124.544 206.991 134.22C206.991 136.057 206.068 137.112 204.442 137.183C202.577 137.265 201.495 136.292 201.321 134.28Z" fill="#9BA3BC"/>
<path d="M88.4077 136.556C88.7814 136.601 89.1461 136.702 89.4896 136.857C89.1158 136.813 88.7509 136.711 88.4077 136.556Z" fill="#C0CAE4"/>
<path d="M113.638 136.494C113.856 136.227 114.111 135.992 114.395 135.797C114.179 136.066 113.923 136.301 113.638 136.494Z" fill="#C0CAE4"/>
<path d="M87.5098 136.301C87.7185 136.285 87.9278 136.324 88.1176 136.412C87.9087 136.43 87.6991 136.391 87.5098 136.301Z" fill="#C0CAE4"/>
<path d="M90.186 137.226C90.3322 137.225 90.4737 137.277 90.5852 137.372C90.4395 137.37 90.2987 137.319 90.186 137.226Z" fill="#C0CAE4"/>
<path d="M91.4946 138.386C91.6096 138.471 91.6977 138.588 91.7487 138.723C91.667 138.684 91.5899 138.57 91.4946 138.386Z" fill="#C0CAE4"/>
<path d="M86.3306 135.622C86.3691 135.608 86.4394 135.647 86.537 135.743C86.4893 135.756 86.4213 135.722 86.3306 135.622Z" fill="#C0CAE4"/>
<path d="M64.1035 106.167C69.2383 106.167 74.2621 106.133 79.2858 106.208C80.0403 106.253 80.7491 106.586 81.2658 107.14C81.405 107.3 81.5099 107.486 81.5742 107.688C81.6384 107.89 81.6606 108.103 81.6393 108.314C81.6181 108.525 81.5538 108.73 81.4505 108.914C81.3472 109.099 81.2072 109.261 81.039 109.389C80.4302 109.798 79.7139 110.014 78.9819 110.011C69.0478 110.05 59.116 110.039 49.1819 110.039C46.1609 110.039 43.1398 110.064 40.1097 110.016C39.528 109.995 38.9628 109.817 38.4744 109.499C37.794 109.043 37.4583 108.154 37.9097 107.509C38.3858 106.858 39.0814 106.402 39.867 106.227C41.119 106.019 42.4276 106.167 43.7114 106.167H64.1035Z" fill="#D9DEF0"/>
<path d="M152.104 110.039C148.214 110.039 144.436 110.075 140.662 110.009C139.915 109.995 139.022 109.781 138.473 109.325C137.566 108.564 138.056 106.876 139.237 106.432C139.77 106.252 140.331 106.168 140.893 106.183C152.3 106.17 163.705 106.17 175.109 106.183C175.708 106.202 176.303 106.293 176.88 106.454C177.901 106.712 178.014 107.5 177.971 108.412C177.917 109.273 177.481 109.722 176.66 109.84C176.147 109.942 175.627 110.007 175.104 110.034C167.472 110.043 159.843 110.039 152.104 110.039Z" fill="#D9DEF0"/>
<path d="M67.9591 132.14C61.3477 132.14 54.8497 132.14 48.3495 132.14C47.8251 132.131 47.3037 132.06 46.7959 131.928C45.9658 131.726 45.4849 131.156 45.5303 130.292C45.5847 129.313 46.1631 128.711 47.1179 128.511C47.3442 128.488 47.5721 128.488 47.7983 128.511H85.1963C86.607 128.511 87.3782 129.037 87.4644 130.03C87.5664 131.327 86.7953 132.149 85.4231 132.152C79.6305 132.145 73.856 132.14 67.9591 132.14Z" fill="#A1AED5"/>
<path d="M106.802 128.488C118.481 128.488 130.159 128.497 141.837 128.515C142.463 128.515 143.243 128.713 143.676 129.117C144.583 129.964 144.193 131.395 142.996 131.878C142.5 132.057 141.977 132.142 141.451 132.129C130.339 132.143 119.226 132.143 108.111 132.129C107.7 132.129 107.29 131.917 106.786 131.641C106.743 130.481 106.768 129.486 106.802 128.488Z" fill="#A1AED5"/>
<path d="M33.9385 132.14C27.5154 132.14 21.2034 132.165 14.8869 132.104C14.1212 132.076 13.3877 131.788 12.8071 131.286C11.9633 130.507 12.3739 129.117 13.4625 128.72C13.9248 128.563 14.4103 128.486 14.8982 128.492C22.0789 128.479 29.2573 128.492 36.4447 128.474C37.3021 128.474 38.0324 128.652 38.4452 129.445C39.1369 130.782 38.368 132.015 36.7713 132.12C35.8641 132.186 34.9546 132.14 33.9385 132.14Z" fill="#A1AED5"/>
<path d="M106.759 128.431C106.759 129.495 106.734 130.481 106.725 131.591C106.686 132.368 106.625 133.04 106.575 133.813C104.81 133.963 103.032 134.022 101.254 134.059C100.397 134.077 99.5395 134.059 98.5937 134.011C98.9665 133.14 99.3859 132.291 99.8502 131.466C100.447 130.465 99.9024 129.75 99.6053 128.998C99.0269 127.515 98.4032 126.036 97.9042 124.539C97.7704 124.131 97.8543 123.436 98.131 123.145C99.8094 121.349 101.56 119.622 103.314 117.904C103.54 117.676 103.942 117.624 104.541 117.375C104.359 118.155 104.314 118.674 104.119 119.137C103.611 120.404 103.08 121.661 102.492 122.892C102.134 123.644 102.32 124.12 102.912 124.66C104.214 125.842 105.45 127.114 106.759 128.431Z" fill="#2E2E47"/>
<path d="M20.5568 110.039C18.4815 110.039 16.5196 110.061 14.5578 110.039C12.7615 110.011 12.0629 109.371 12.165 107.951C12.2011 107.48 12.4096 107.038 12.7504 106.711C13.0912 106.384 13.5402 106.195 14.0112 106.181C20.1984 106.167 26.3857 106.167 32.5729 106.181C33.7206 106.181 34.7412 106.994 34.841 107.851C35.0088 109.289 34.2558 110.032 32.5548 110.039C28.5902 110.048 24.6393 110.039 20.5568 110.039Z" fill="#D8DEF0"/>
<path d="M186.578 128.49H196.331C197.651 128.49 198.372 129.096 198.388 130.187C198.404 131.279 197.563 132.113 196.333 132.129C194.065 132.161 191.797 132.129 189.529 132.129C186.848 132.129 184.165 132.149 181.484 132.129C179.758 132.111 178.946 131.395 179.107 130.03C179.212 129.139 179.652 128.481 180.695 128.483C182.612 128.495 184.537 128.49 186.578 128.49Z" fill="#A1AED5"/>
<path d="M182.988 107.147C183.778 106.78 184.501 106.224 185.236 106.208C189.155 106.12 193.077 106.156 196.996 106.172C198.763 106.172 199.677 106.976 199.463 108.45C199.391 108.938 198.912 109.467 198.479 109.767C198.114 110.018 197.542 110.032 197.064 110.034C193.031 110.052 188.996 110.089 184.964 110.004C184.261 109.991 183.451 109.583 182.904 109.109C182.358 108.635 182.242 107.833 182.988 107.147Z" fill="#D8DEF0"/>
<path d="M167.527 128.49C169.568 128.49 171.487 128.49 173.424 128.49C174.655 128.49 175.406 129.135 175.44 130.165C175.478 131.279 174.632 132.129 173.426 132.133C170.553 132.147 167.686 132.147 164.825 132.133C163.644 132.133 162.589 131.284 162.557 130.354C162.526 129.424 163.628 128.492 164.825 128.488C165.676 128.488 166.545 128.49 167.527 128.49Z" fill="#A1AED5"/>
<path d="M123.594 109.246C122.914 107.389 123.751 106.174 125.622 106.17C127.774 106.17 129.931 106.158 132.079 106.17C132.968 106.17 133.667 106.461 134.021 107.402C134.331 108.223 134.211 108.89 133.567 109.439C133.331 109.667 133.029 109.814 132.705 109.859C129.967 109.869 127.229 109.849 124.49 109.797C124.207 109.795 123.923 109.489 123.594 109.246Z" fill="#D7DEF0"/>
<path d="M99.5123 128.971C99.9024 129.741 100.447 130.456 99.8707 131.375C97.7206 132.785 95.3799 131.887 93.1618 132.136C92.7478 132.161 92.3328 132.161 91.9189 132.136C90.8143 132.122 90.0681 131.573 89.9593 130.693C89.8255 129.604 90.524 128.376 91.5605 128.34C93.7719 128.26 95.9923 128.353 98.2059 128.44C98.6187 128.46 99.0179 128.777 99.5123 128.971Z" fill="#A1ADD4"/>
<path d="M87.1948 135.414C86.8191 134.058 86.8951 134.013 88.2499 134.162C88.9313 134.236 89.6346 134.1 90.326 134.12C91.0933 134.143 91.8586 134.24 92.624 134.3C93.0817 134.352 93.5419 134.379 94.0027 134.383C95.3835 134.338 96.7623 134.261 98.2949 134.23C99.2021 134.265 99.9574 134.284 100.713 134.269C102.279 134.238 103.846 134.187 105.413 134.143L108.863 134.019C109.028 133.999 109.194 133.995 109.359 134.007C110.802 134.253 112.238 134.331 113.689 134.021C113.993 133.955 114.349 134.116 115 134.228C114.421 134.681 114.093 134.939 113.749 135.261C113.305 135.468 112.841 135.63 112.362 135.745C112.07 135.918 111.801 136.126 111.563 136.365C110.89 137.31 109.587 137.721 108.23 137.353C107.129 137.047 106.086 136.966 105.369 137.985C105.026 138.458 104.822 139.013 104.781 139.591C104.709 142.094 104.673 144.603 104.737 147.106C104.789 149.159 105.057 151.207 105.121 153.263C105.195 155.669 105.201 158.078 105.137 160.489C105.076 161.804 104.943 163.115 104.737 164.416C104.627 165.23 104.078 165.751 103.264 165.937C102.395 166.131 101.606 165.887 101.25 165.083C100.863 164.207 100.511 163.267 100.417 162.33C100.129 159.424 99.9215 156.5 99.7756 153.58C99.6397 150.845 99.6957 148.102 99.5258 145.37C99.4399 144.004 99.1022 142.642 98.7625 141.301C98.4827 140.203 97.7634 140.046 96.8442 140.78C96.5913 140.985 96.356 141.21 96.1408 141.452C95.5174 142.136 94.6382 142.363 93.8808 142.055C93.3393 141.834 92.8817 141.141 92.6499 140.559C92.3962 139.92 92.4401 139.17 92.3542 138.32C92.3075 138.161 92.2233 138.015 92.1084 137.894C91.845 137.656 91.5955 137.404 91.3611 137.14C91.241 137.034 91.0964 136.958 90.9395 136.917C90.7451 136.886 90.5609 136.811 90.4019 136.698C90.072 136.539 89.722 136.421 89.3609 136.349C89.3004 136.344 89.2432 136.32 89.197 136.282C88.9943 136.211 88.7848 136.159 88.5716 136.129C88.307 136.018 88.0512 135.888 87.8063 135.741C87.7268 135.669 87.6382 135.607 87.5425 135.557C87.4212 135.523 87.3046 135.474 87.1948 135.414Z" fill="#ACCDFB"/>
</g>
</g>
</g>
</svg>
