<svg width="211" height="155" viewBox="0 0 211 155" fill="none" xmlns="http://www.w3.org/2000/svg">

    <defs>
        <filter id="filter0_d_1157_22727" x="0" y="0" width="211" height="155" filterUnits="userSpaceOnUse" color-interpolation-filters="sRGB">
            <feFlood flood-opacity="0" result="BackgroundImageFix"/>
            <feColorMatrix in="SourceAlpha" type="matrix" values="0 0 0 0 0 0 0 0 0 0 0 0 0 0 0 0 0 0 127 0" result="hardAlpha"/>
            <feOffset dy="4"/>
            <feGaussianBlur stdDeviation="2"/>
            <feComposite in2="hardAlpha" operator="out"/>
            <feColorMatrix type="matrix" values="0 0 0 0 0 0 0 0 0 0 0 0 0 0 0 0 0 0 0.25 0"/>
            <feBlend mode="normal" in2="BackgroundImageFix" result="effect1_dropShadow_1157_22727"/>
            <feBlend mode="normal" in="SourceGraphic" in2="effect1_dropShadow_1157_22727" result="shape"/>
        </filter>
        <clipPath id="clip0_1157_22727">
            <rect x="4" width="203" height="147" rx="10" fill="white"/>
        </clipPath>
        <clipPath id="clip1_1157_22727">
            <rect width="203" height="118" fill="white" transform="translate(4 102)"/>
        </clipPath>
    </defs>
    <g filter="url(#filter0_d_1157_22727)">
<g clip-path="url(#clip0_1157_22727)">
<rect x="4" width="203" height="147" rx="10" fill="#3580FD"/>
<path d="M56.2637 20.168V22.3652C55.9473 22.2891 55.6191 22.2422 55.2793 22.2246C54.9395 22.2012 54.5908 22.1895 54.2334 22.1895H52.335V29.3701C52.335 30.1904 52.3438 30.917 52.3613 31.5498C52.3848 32.1826 52.4346 32.666 52.5107 33H49.6543C49.7305 32.666 49.7773 32.1826 49.7949 31.5498C49.8184 30.917 49.8301 30.1904 49.8301 29.3701V22.1895H47.9668C47.6152 22.1895 47.2666 22.2012 46.9209 22.2246C46.5811 22.2422 46.2529 22.2891 45.9365 22.3652V20.168H56.2637ZM64.6221 33C64.5811 32.9062 64.5371 32.7979 64.4902 32.6748C64.4434 32.5459 64.3965 32.4111 64.3496 32.2705C64.3086 32.1299 64.2676 31.9834 64.2266 31.8311C64.1914 31.6787 64.1621 31.5264 64.1387 31.374C63.6172 31.9775 63.0781 32.4375 62.5215 32.7539C61.9648 33.0645 61.3848 33.2197 60.7812 33.2197C58.9473 33.2197 58.0303 31.96 58.0303 29.4404V26.8477C58.0303 26.5664 58.0273 26.3115 58.0215 26.083C58.0215 25.8545 58.0156 25.6348 58.0039 25.4238C57.9922 25.207 57.9746 24.9873 57.9512 24.7646C57.9277 24.542 57.8955 24.2988 57.8545 24.0352H60.4912V28.9131C60.4912 29.3115 60.5088 29.6543 60.5439 29.9414C60.585 30.2285 60.6523 30.4658 60.7461 30.6533C60.8398 30.835 60.9629 30.9697 61.1152 31.0576C61.2676 31.1455 61.4551 31.1895 61.6777 31.1895C61.877 31.1895 62.0879 31.1309 62.3105 31.0137C62.5391 30.8965 62.7559 30.7471 62.9609 30.5654C63.1719 30.3779 63.3623 30.1758 63.5322 29.959C63.7021 29.7422 63.8311 29.5312 63.9189 29.3262V26.8477C63.9189 26.5605 63.916 26.3027 63.9102 26.0742C63.9102 25.8398 63.9043 25.6172 63.8926 25.4062C63.8809 25.1953 63.8633 24.9814 63.8398 24.7646C63.8164 24.5479 63.7842 24.3047 63.7432 24.0352H66.3799V29.0449C66.3799 29.9004 66.4268 30.6504 66.5205 31.2949C66.6201 31.9336 66.7637 32.502 66.9512 33H64.6221ZM68.9814 33V27.5947C68.9814 26.7275 68.9316 25.9951 68.832 25.3975C68.7383 24.7939 68.6416 24.3398 68.542 24.0352H70.959C70.9941 24.1289 71.0293 24.252 71.0645 24.4043C71.0996 24.5508 71.1318 24.7061 71.1611 24.8701C71.1904 25.0342 71.2168 25.1953 71.2402 25.3535L71.3105 25.749C71.5215 25.4443 71.7471 25.1748 71.9873 24.9404C72.2275 24.7061 72.4678 24.5098 72.708 24.3516C72.9541 24.1875 73.1943 24.0645 73.4287 23.9824C73.6631 23.9004 73.8799 23.8594 74.0791 23.8594C74.4893 23.8594 74.8379 23.9473 75.125 24.123C75.418 24.2988 75.6553 24.5391 75.8369 24.8438C76.0244 25.1426 76.1592 25.4912 76.2412 25.8896C76.3232 26.2881 76.3643 26.71 76.3643 27.1553L74.4043 27.4629C74.375 27.0645 74.2783 26.7451 74.1143 26.5049C73.9502 26.2588 73.6807 26.1357 73.3057 26.1357C73.1592 26.1357 72.9922 26.2002 72.8047 26.3291C72.623 26.458 72.4443 26.625 72.2686 26.8301C72.0928 27.0352 71.9287 27.2725 71.7764 27.542C71.6299 27.8057 71.5186 28.0723 71.4424 28.3418V33H68.9814ZM83.8438 33V28.166C83.8438 27.7617 83.8174 27.4219 83.7646 27.1465C83.7119 26.8711 83.6299 26.6514 83.5186 26.4873C83.4072 26.3174 83.2637 26.1973 83.0879 26.127C82.918 26.0508 82.7158 26.0127 82.4814 26.0127C82.2295 26.0127 81.9834 26.0684 81.7432 26.1797C81.5029 26.291 81.2803 26.4375 81.0752 26.6191C80.8701 26.8008 80.6914 27.0029 80.5391 27.2256C80.3867 27.4482 80.2725 27.6738 80.1963 27.9023V33H77.7354V27.5947C77.7354 26.7275 77.6855 25.9951 77.5859 25.3975C77.4922 24.7939 77.3955 24.3398 77.2959 24.0352H79.7129C79.748 24.123 79.7832 24.2402 79.8184 24.3867C79.8535 24.5273 79.8857 24.6768 79.915 24.835C79.9443 24.9873 79.9707 25.1396 79.9941 25.292L80.0645 25.6611C80.3457 25.3447 80.6211 25.0723 80.8906 24.8438C81.1602 24.6152 81.4326 24.4277 81.708 24.2812C81.9834 24.1348 82.2646 24.0293 82.5518 23.9648C82.8389 23.8945 83.1377 23.8594 83.4482 23.8594C83.8936 23.8594 84.292 23.9355 84.6436 24.0879C85.001 24.2402 85.3027 24.4688 85.5488 24.7734C85.7949 25.0781 85.9824 25.459 86.1113 25.916C86.2402 26.373 86.3047 26.9033 86.3047 27.5068V33H83.8438ZM88.6865 20.8271C88.6865 20.6045 88.7246 20.3994 88.8008 20.2119C88.877 20.0244 88.9824 19.8633 89.1172 19.7285C89.2578 19.5879 89.4219 19.4795 89.6094 19.4033C89.7969 19.3271 90.002 19.2891 90.2246 19.2891C90.4473 19.2891 90.6523 19.3271 90.8398 19.4033C91.0273 19.4795 91.1885 19.5879 91.3232 19.7285C91.4639 19.8633 91.5723 20.0244 91.6484 20.2119C91.7246 20.3994 91.7627 20.6045 91.7627 20.8271C91.7627 21.0557 91.7246 21.2637 91.6484 21.4512C91.5723 21.6387 91.4639 21.8027 91.3232 21.9434C91.1885 22.0781 91.0273 22.1836 90.8398 22.2598C90.6523 22.3301 90.4473 22.3652 90.2246 22.3652C90.002 22.3652 89.7969 22.3301 89.6094 22.2598C89.4219 22.1836 89.2578 22.0781 89.1172 21.9434C88.9824 21.8027 88.877 21.6387 88.8008 21.4512C88.7246 21.2637 88.6865 21.0557 88.6865 20.8271ZM91.4551 24.0352V28.8252C91.4551 29.1064 91.458 29.4404 91.4639 29.8271C91.4756 30.208 91.4873 30.5947 91.499 30.9873C91.5166 31.3799 91.5342 31.7549 91.5518 32.1123C91.5752 32.4697 91.6016 32.7656 91.6309 33H88.9941V28.3418C88.9941 27.9141 88.9912 27.4922 88.9854 27.0762C88.9854 26.6602 88.9795 26.2676 88.9678 25.8984C88.9619 25.5234 88.9502 25.1777 88.9326 24.8613C88.915 24.5391 88.8916 24.2637 88.8623 24.0352H91.4551ZM100.42 33V28.166C100.42 27.7617 100.394 27.4219 100.341 27.1465C100.288 26.8711 100.206 26.6514 100.095 26.4873C99.9834 26.3174 99.8398 26.1973 99.6641 26.127C99.4941 26.0508 99.292 26.0127 99.0576 26.0127C98.8057 26.0127 98.5596 26.0684 98.3193 26.1797C98.0791 26.291 97.8564 26.4375 97.6514 26.6191C97.4463 26.8008 97.2676 27.0029 97.1152 27.2256C96.9629 27.4482 96.8486 27.6738 96.7725 27.9023V33H94.3115V27.5947C94.3115 26.7275 94.2617 25.9951 94.1621 25.3975C94.0684 24.7939 93.9717 24.3398 93.8721 24.0352H96.2891C96.3242 24.123 96.3594 24.2402 96.3945 24.3867C96.4297 24.5273 96.4619 24.6768 96.4912 24.835C96.5205 24.9873 96.5469 25.1396 96.5703 25.292L96.6406 25.6611C96.9219 25.3447 97.1973 25.0723 97.4668 24.8438C97.7363 24.6152 98.0088 24.4277 98.2842 24.2812C98.5596 24.1348 98.8408 24.0293 99.1279 23.9648C99.415 23.8945 99.7139 23.8594 100.024 23.8594C100.47 23.8594 100.868 23.9355 101.22 24.0879C101.577 24.2402 101.879 24.4688 102.125 24.7734C102.371 25.0781 102.559 25.459 102.688 25.916C102.816 26.373 102.881 26.9033 102.881 27.5068V33H100.42ZM110.844 26.3027C110.639 26.1973 110.41 26.1123 110.158 26.0479C109.906 25.9834 109.681 25.9512 109.481 25.9512C109.095 25.9512 108.764 26.0332 108.488 26.1973C108.213 26.3555 107.99 26.5664 107.82 26.8301C107.65 27.0938 107.524 27.3926 107.442 27.7266C107.366 28.0605 107.328 28.3975 107.328 28.7373C107.328 29.165 107.363 29.5225 107.434 29.8096C107.51 30.0908 107.612 30.3164 107.741 30.4863C107.87 30.6562 108.022 30.7764 108.198 30.8467C108.374 30.917 108.567 30.9521 108.778 30.9521C108.937 30.9521 109.106 30.917 109.288 30.8467C109.476 30.7764 109.66 30.6738 109.842 30.5391C110.029 30.3984 110.208 30.2285 110.378 30.0293C110.548 29.8301 110.703 29.6016 110.844 29.3438V26.3027ZM113.305 32.7803C113.305 33.5537 113.179 34.2158 112.927 34.7666C112.681 35.3174 112.353 35.7656 111.942 36.1113C111.538 36.4629 111.078 36.7207 110.562 36.8848C110.047 37.0488 109.525 37.1309 108.998 37.1309C108.693 37.1309 108.38 37.1016 108.058 37.043C107.735 36.9902 107.416 36.9141 107.1 36.8145C106.783 36.7148 106.476 36.5947 106.177 36.4541C105.878 36.3135 105.603 36.1582 105.351 35.9883L106.098 34.1514C106.514 34.4502 106.933 34.6934 107.354 34.8809C107.776 35.0684 108.207 35.1621 108.646 35.1621C108.857 35.1621 109.089 35.1299 109.341 35.0654C109.599 35.001 109.839 34.8896 110.062 34.7314C110.284 34.5732 110.469 34.3594 110.615 34.0898C110.768 33.8262 110.844 33.4922 110.844 33.0879V31.4619C110.621 31.7373 110.387 31.9746 110.141 32.1738C109.895 32.3672 109.643 32.5312 109.385 32.666C109.133 32.7949 108.881 32.8916 108.629 32.9561C108.377 33.0146 108.134 33.0439 107.899 33.0439C107.507 33.0439 107.126 32.9736 106.757 32.833C106.394 32.6924 106.071 32.4697 105.79 32.165C105.509 31.8545 105.283 31.4531 105.113 30.9609C104.949 30.4688 104.867 29.874 104.867 29.1768C104.867 28.5029 104.961 27.8467 105.148 27.208C105.336 26.5693 105.629 26.0039 106.027 25.5117C106.432 25.0137 106.944 24.6152 107.565 24.3164C108.187 24.0117 108.931 23.8594 109.798 23.8594C110.085 23.8594 110.381 23.8799 110.686 23.9209C110.99 23.9561 111.292 24.0059 111.591 24.0703C111.896 24.1348 112.191 24.208 112.479 24.29C112.771 24.3662 113.047 24.4424 113.305 24.5186V32.7803ZM124.81 31.1895C125.079 31.1895 125.337 31.1309 125.583 31.0137C125.829 30.8906 126.046 30.7148 126.233 30.4863C126.421 30.2578 126.57 29.9824 126.682 29.6602C126.793 29.332 126.849 28.9658 126.849 28.5615C126.849 28.1631 126.811 27.8027 126.734 27.4805C126.658 27.1582 126.547 26.8857 126.4 26.6631C126.254 26.4346 126.075 26.2588 125.864 26.1357C125.653 26.0127 125.416 25.9512 125.152 25.9512C124.959 25.9512 124.76 25.9922 124.555 26.0742C124.35 26.1562 124.15 26.2793 123.957 26.4434C123.77 26.6016 123.591 26.8008 123.421 27.041C123.251 27.2754 123.104 27.5479 122.981 27.8584V30.3633C123.204 30.5273 123.395 30.665 123.553 30.7764C123.717 30.8818 123.866 30.9668 124.001 31.0312C124.136 31.0898 124.265 31.1309 124.388 31.1543C124.517 31.1777 124.657 31.1895 124.81 31.1895ZM120.521 37.3066V28.7373C120.521 28.1924 120.515 27.6885 120.503 27.2256C120.497 26.7568 120.479 26.3291 120.45 25.9424C120.421 25.5498 120.377 25.1953 120.318 24.8789C120.26 24.5625 120.181 24.2812 120.081 24.0352H122.498C122.562 24.1699 122.627 24.3633 122.691 24.6152C122.756 24.8613 122.809 25.166 122.85 25.5293C123.049 25.2832 123.269 25.0576 123.509 24.8525C123.749 24.6475 124.001 24.4717 124.265 24.3252C124.534 24.1787 124.818 24.0645 125.117 23.9824C125.416 23.9004 125.724 23.8594 126.04 23.8594C126.532 23.8594 126.978 23.9707 127.376 24.1934C127.78 24.4102 128.123 24.7178 128.404 25.1162C128.691 25.5088 128.914 25.9775 129.072 26.5225C129.23 27.0615 129.31 27.6533 129.31 28.2979C129.31 29.0479 129.207 29.7275 129.002 30.3369C128.797 30.9404 128.516 31.4561 128.158 31.8838C127.807 32.3115 127.391 32.6426 126.91 32.877C126.436 33.1055 125.929 33.2197 125.39 33.2197C125.161 33.2197 124.944 33.1992 124.739 33.1582C124.534 33.123 124.335 33.0703 124.142 33C123.954 32.9355 123.764 32.8564 123.57 32.7627C123.383 32.6631 123.187 32.5518 122.981 32.4287V34.3184C122.981 34.6699 122.984 34.9863 122.99 35.2676C123.002 35.5547 123.017 35.8184 123.034 36.0586C123.052 36.2988 123.075 36.5186 123.104 36.7178C123.134 36.9229 123.166 37.1191 123.201 37.3066H120.521ZM131.384 20.8271C131.384 20.6045 131.422 20.3994 131.498 20.2119C131.574 20.0244 131.68 19.8633 131.814 19.7285C131.955 19.5879 132.119 19.4795 132.307 19.4033C132.494 19.3271 132.699 19.2891 132.922 19.2891C133.145 19.2891 133.35 19.3271 133.537 19.4033C133.725 19.4795 133.886 19.5879 134.021 19.7285C134.161 19.8633 134.27 20.0244 134.346 20.2119C134.422 20.3994 134.46 20.6045 134.46 20.8271C134.46 21.0557 134.422 21.2637 134.346 21.4512C134.27 21.6387 134.161 21.8027 134.021 21.9434C133.886 22.0781 133.725 22.1836 133.537 22.2598C133.35 22.3301 133.145 22.3652 132.922 22.3652C132.699 22.3652 132.494 22.3301 132.307 22.2598C132.119 22.1836 131.955 22.0781 131.814 21.9434C131.68 21.8027 131.574 21.6387 131.498 21.4512C131.422 21.2637 131.384 21.0557 131.384 20.8271ZM134.152 24.0352V28.8252C134.152 29.1064 134.155 29.4404 134.161 29.8271C134.173 30.208 134.185 30.5947 134.196 30.9873C134.214 31.3799 134.231 31.7549 134.249 32.1123C134.272 32.4697 134.299 32.7656 134.328 33H131.691V28.3418C131.691 27.9141 131.688 27.4922 131.683 27.0762C131.683 26.6602 131.677 26.2676 131.665 25.8984C131.659 25.5234 131.647 25.1777 131.63 24.8613C131.612 24.5391 131.589 24.2637 131.56 24.0352H134.152ZM141.298 31.1895C141.567 31.1895 141.825 31.1309 142.071 31.0137C142.317 30.8906 142.534 30.7148 142.722 30.4863C142.909 30.2578 143.059 29.9824 143.17 29.6602C143.281 29.332 143.337 28.9658 143.337 28.5615C143.337 28.1631 143.299 27.8027 143.223 27.4805C143.146 27.1582 143.035 26.8857 142.889 26.6631C142.742 26.4346 142.563 26.2588 142.353 26.1357C142.142 26.0127 141.904 25.9512 141.641 25.9512C141.447 25.9512 141.248 25.9922 141.043 26.0742C140.838 26.1562 140.639 26.2793 140.445 26.4434C140.258 26.6016 140.079 26.8008 139.909 27.041C139.739 27.2754 139.593 27.5479 139.47 27.8584V30.3633C139.692 30.5273 139.883 30.665 140.041 30.7764C140.205 30.8818 140.354 30.9668 140.489 31.0312C140.624 31.0898 140.753 31.1309 140.876 31.1543C141.005 31.1777 141.146 31.1895 141.298 31.1895ZM137.009 37.3066V28.7373C137.009 28.1924 137.003 27.6885 136.991 27.2256C136.985 26.7568 136.968 26.3291 136.938 25.9424C136.909 25.5498 136.865 25.1953 136.807 24.8789C136.748 24.5625 136.669 24.2812 136.569 24.0352H138.986C139.051 24.1699 139.115 24.3633 139.18 24.6152C139.244 24.8613 139.297 25.166 139.338 25.5293C139.537 25.2832 139.757 25.0576 139.997 24.8525C140.237 24.6475 140.489 24.4717 140.753 24.3252C141.022 24.1787 141.307 24.0645 141.605 23.9824C141.904 23.9004 142.212 23.8594 142.528 23.8594C143.021 23.8594 143.466 23.9707 143.864 24.1934C144.269 24.4102 144.611 24.7178 144.893 25.1162C145.18 25.5088 145.402 25.9775 145.561 26.5225C145.719 27.0615 145.798 27.6533 145.798 28.2979C145.798 29.0479 145.695 29.7275 145.49 30.3369C145.285 30.9404 145.004 31.4561 144.646 31.8838C144.295 32.3115 143.879 32.6426 143.398 32.877C142.924 33.1055 142.417 33.2197 141.878 33.2197C141.649 33.2197 141.433 33.1992 141.228 33.1582C141.022 33.123 140.823 33.0703 140.63 33C140.442 32.9355 140.252 32.8564 140.059 32.7627C139.871 32.6631 139.675 32.5518 139.47 32.4287V34.3184C139.47 34.6699 139.473 34.9863 139.479 35.2676C139.49 35.5547 139.505 35.8184 139.522 36.0586C139.54 36.2988 139.563 36.5186 139.593 36.7178C139.622 36.9229 139.654 37.1191 139.689 37.3066H137.009ZM149.797 29.0449C149.855 29.8066 150.069 30.3574 150.438 30.6973C150.813 31.0312 151.332 31.1982 151.994 31.1982C152.574 31.1982 153.137 31.1338 153.682 31.0049C154.232 30.8701 154.783 30.6387 155.334 30.3105L155.519 32.3408C155.202 32.499 154.892 32.6338 154.587 32.7451C154.288 32.8564 153.986 32.9473 153.682 33.0176C153.383 33.0879 153.075 33.1377 152.759 33.167C152.442 33.2021 152.114 33.2197 151.774 33.2197C151.194 33.2197 150.638 33.123 150.104 32.9297C149.577 32.7305 149.111 32.4404 148.707 32.0596C148.303 31.6729 147.98 31.1953 147.74 30.627C147.506 30.0586 147.389 29.3994 147.389 28.6494C147.389 27.9229 147.488 27.2666 147.688 26.6807C147.893 26.0889 148.186 25.585 148.566 25.1689C148.947 24.7471 149.407 24.4248 149.946 24.2021C150.485 23.9736 151.095 23.8594 151.774 23.8594C152.267 23.8594 152.697 23.9209 153.066 24.0439C153.441 24.1611 153.764 24.3252 154.033 24.5361C154.309 24.7412 154.537 24.9873 154.719 25.2744C154.906 25.5557 155.053 25.8633 155.158 26.1973C155.27 26.5254 155.349 26.8711 155.396 27.2344C155.442 27.5977 155.466 27.9609 155.466 28.3242V28.4824C155.466 28.5469 155.466 28.6143 155.466 28.6846C155.472 28.7549 155.475 28.8223 155.475 28.8867V29.0449H149.797ZM151.651 25.7051C151.142 25.7051 150.737 25.8428 150.438 26.1182C150.146 26.3877 149.949 26.8359 149.85 27.4629H153.233C153.233 26.8418 153.099 26.3936 152.829 26.1182C152.565 25.8428 152.173 25.7051 151.651 25.7051ZM163.965 26.6631C163.801 26.5752 163.613 26.4844 163.402 26.3906C163.191 26.291 162.963 26.2002 162.717 26.1182C162.471 26.0361 162.207 25.9688 161.926 25.916C161.65 25.8574 161.36 25.8281 161.056 25.8281C160.798 25.8281 160.581 25.8516 160.405 25.8984C160.235 25.9453 160.098 26.0039 159.992 26.0742C159.887 26.1445 159.811 26.2266 159.764 26.3203C159.717 26.4082 159.693 26.4961 159.693 26.584C159.693 26.6895 159.711 26.7832 159.746 26.8652C159.787 26.9473 159.869 27.0234 159.992 27.0938C160.115 27.1641 160.291 27.2314 160.52 27.2959C160.754 27.3604 161.064 27.4307 161.451 27.5068C161.908 27.6006 162.339 27.7178 162.743 27.8584C163.147 27.9932 163.502 28.1689 163.807 28.3857C164.111 28.5967 164.352 28.8545 164.527 29.1592C164.703 29.458 164.791 29.8154 164.791 30.2314C164.791 30.6533 164.691 31.0459 164.492 31.4092C164.293 31.7725 164.021 32.0889 163.675 32.3584C163.335 32.6279 162.931 32.8389 162.462 32.9912C161.999 33.1436 161.501 33.2197 160.968 33.2197C160.575 33.2197 160.194 33.1934 159.825 33.1406C159.462 33.0879 159.119 33.0146 158.797 32.9209C158.475 32.8271 158.182 32.7188 157.918 32.5957C157.654 32.4727 157.426 32.3438 157.232 32.209L157.716 30.0645C157.933 30.2402 158.179 30.4014 158.454 30.5479C158.729 30.6943 159.014 30.8203 159.307 30.9258C159.6 31.0312 159.893 31.1133 160.186 31.1719C160.479 31.2246 160.754 31.251 161.012 31.251C161.217 31.251 161.404 31.2305 161.574 31.1895C161.75 31.1426 161.899 31.0811 162.022 31.0049C162.146 30.9287 162.242 30.8438 162.312 30.75C162.383 30.6562 162.418 30.5566 162.418 30.4512C162.418 30.3223 162.389 30.2021 162.33 30.0908C162.271 29.9795 162.166 29.874 162.014 29.7744C161.861 29.6748 161.65 29.5781 161.381 29.4844C161.117 29.3906 160.774 29.2969 160.353 29.2031C159.726 29.0742 159.216 28.9219 158.823 28.7461C158.431 28.5703 158.123 28.374 157.9 28.1572C157.678 27.9404 157.525 27.709 157.443 27.4629C157.361 27.2109 157.32 26.9473 157.32 26.6719C157.32 26.5312 157.344 26.3643 157.391 26.1709C157.443 25.9717 157.525 25.7695 157.637 25.5645C157.754 25.3535 157.906 25.1484 158.094 24.9492C158.287 24.7441 158.524 24.5625 158.806 24.4043C159.093 24.2402 159.427 24.1084 159.808 24.0088C160.194 23.9092 160.64 23.8594 161.144 23.8594C161.501 23.8594 161.835 23.8799 162.146 23.9209C162.456 23.9619 162.743 24.0176 163.007 24.0879C163.271 24.1523 163.511 24.2285 163.728 24.3164C163.944 24.3984 164.138 24.4805 164.308 24.5625L163.965 26.6631Z" fill="white"/>
<rect x="24" y="51" width="159" height="71" rx="10" fill="#0260FD"/>
<g clip-path="url(#clip1_1157_22727)">
<path d="M201.321 134.189C189.224 134.189 177.128 134.183 165.032 134.17C150.784 134.17 136.535 134.17 122.286 134.17C121.464 134.199 120.642 134.169 119.825 134.082C118.389 133.872 117.403 134.897 116.126 135.221C116.529 134.771 116.978 134.364 117.464 134.006C116.722 133.874 116.33 133.685 115.976 133.763C114.329 134.127 112.699 134.036 111.061 133.747C110.874 133.732 110.685 133.736 110.499 133.76C109.192 133.808 107.888 133.858 106.568 133.808C106.6 133.12 106.681 132.434 106.811 131.757C107.289 131.928 107.7 132.138 108.11 132.14C119.224 132.158 130.337 132.158 141.451 132.14C141.977 132.153 142.5 132.068 142.995 131.89C144.191 131.416 144.583 129.976 143.676 129.128C143.242 128.725 142.462 128.529 141.836 128.527C130.158 128.492 118.475 128.501 106.759 128.433C105.45 127.125 104.214 125.854 102.903 124.66C102.311 124.12 102.125 123.644 102.483 122.892C103.071 121.661 103.601 120.404 104.109 119.137C104.295 118.681 104.35 118.155 104.531 117.375C103.933 117.624 103.536 117.678 103.304 117.904C101.551 119.624 99.8002 121.351 98.1218 123.145C97.8519 123.436 97.768 124.131 97.895 124.539C98.394 126.047 99.029 127.515 99.503 128.98C99.0086 128.786 98.6094 128.47 98.1966 128.454C95.983 128.367 93.7626 128.274 91.5512 128.353C90.5147 128.39 89.8162 129.618 89.95 130.707C90.0589 131.587 90.8051 132.136 91.9096 132.149C92.3235 132.174 92.7386 132.174 93.1525 132.149C95.3707 131.901 97.7113 132.799 99.7888 131.523C99.3719 132.364 98.9116 133.183 98.4098 133.977C96.761 134.054 95.196 134.145 93.6288 134.205C93.1058 134.2 92.5833 134.168 92.0638 134.107C91.1952 134.036 90.3265 133.922 89.4556 133.895C88.6708 133.872 87.8679 134.031 87.0991 133.945C85.5613 133.769 85.4751 133.826 85.8652 135.364C85.6157 135.209 85.2438 135.111 85.1395 134.888C84.6291 133.794 83.6924 133.977 82.7966 134.022C82.0095 134.061 81.2248 134.184 80.4378 134.184C58.0475 134.193 35.6565 134.193 13.2648 134.184C12.1538 134.198 11.043 134.148 9.93755 134.036C9.80374 123.894 9.74023 113.887 9.66992 103.88C73.552 103.88 137.47 103.912 201.425 103.978C201.459 104.748 201.332 105.422 201.332 106.097C201.324 115.461 201.321 124.825 201.321 134.189ZM63.9876 106.163H43.7066C42.4229 106.163 41.1142 106.015 39.8623 106.222C39.0766 106.397 38.3811 106.853 37.9049 107.505C37.4513 108.15 37.7915 109.036 38.4697 109.494C38.9626 109.815 39.5337 109.994 40.1208 110.011C43.1419 110.059 46.1629 110.034 49.193 110.034C59.1271 110.034 69.0589 110.034 78.993 110.007C79.7251 110.01 80.4413 109.793 81.0501 109.385C81.2183 109.256 81.3584 109.095 81.4616 108.91C81.5649 108.725 81.6292 108.521 81.6505 108.31C81.6718 108.099 81.6496 107.886 81.5853 107.684C81.521 107.482 81.4161 107.295 81.277 107.136C80.7602 106.582 80.0514 106.248 79.2969 106.204C74.2732 106.129 69.2495 106.163 64.0012 106.163M152.229 110.036C159.855 110.036 167.484 110.036 175.115 110.036C175.638 110.009 176.158 109.944 176.671 109.843C177.492 109.724 177.928 109.275 177.982 108.414C178.037 107.503 177.912 106.714 176.891 106.457C176.314 106.295 175.719 106.204 175.12 106.186C163.716 106.169 152.311 106.169 140.904 106.186C140.342 106.17 139.782 106.254 139.248 106.434C138.067 106.878 137.577 108.567 138.484 109.328C139.033 109.783 139.927 110.011 140.673 110.011C144.447 110.077 148.225 110.041 152.24 110.041M68.095 132.143C73.874 132.143 79.6545 132.143 85.4366 132.143C86.8178 132.143 87.589 131.318 87.4778 130.021C87.3984 129.028 86.6273 128.501 85.2098 128.501H47.7982C47.572 128.478 47.344 128.478 47.1178 128.501C46.1584 128.702 45.58 129.303 45.5301 130.283C45.4848 131.147 45.9656 131.716 46.7957 131.919C47.3036 132.051 47.825 132.122 48.3493 132.131C54.8496 132.145 61.3476 132.131 68.0814 132.131M34.0606 132.131C34.9678 132.131 35.875 132.177 36.7823 132.117C38.3699 132.013 39.1478 130.78 38.4561 129.442C38.0478 128.65 37.3221 128.47 36.4557 128.472C29.275 128.49 22.0966 128.472 14.9091 128.49C14.4212 128.484 13.9357 128.561 13.4735 128.718C12.3848 129.114 11.9743 130.504 12.818 131.284C13.3953 131.784 14.1245 132.073 14.8864 132.104C21.1962 132.165 27.5082 132.14 34.0447 132.14M20.6632 110.039C24.6232 110.039 28.5855 110.039 32.5478 110.039C34.2488 110.039 35.0018 109.289 34.834 107.851C34.7342 106.994 33.7136 106.186 32.5659 106.181C26.3787 106.163 20.1914 106.163 14.0042 106.181C13.5355 106.197 13.0891 106.385 12.7499 106.711C12.4106 107.036 12.2024 107.475 12.1648 107.945C12.0582 109.364 12.7613 109.995 14.5576 110.032C16.5194 110.061 18.4813 110.032 20.67 110.032M186.465 128.488C184.539 128.488 182.609 128.488 180.686 128.488C179.649 128.488 179.209 129.144 179.098 130.035C178.937 131.402 179.749 132.115 181.475 132.133C184.156 132.161 186.839 132.133 189.52 132.133C191.788 132.133 194.056 132.156 196.324 132.133C197.553 132.117 198.388 131.281 198.379 130.192C198.37 129.103 197.642 128.495 196.322 128.495H186.463M182.929 107.213C182.248 107.838 182.339 108.621 182.904 109.107C183.469 109.592 184.265 109.988 184.963 110.002C188.996 110.086 193.031 110.05 197.063 110.032C197.542 110.032 198.114 110.016 198.479 109.765C198.912 109.464 199.386 108.936 199.463 108.448C199.676 106.981 198.762 106.183 196.995 106.17C193.076 106.154 189.155 106.117 185.236 106.206C184.501 106.222 183.777 106.778 182.929 107.206M167.411 128.488C166.544 128.488 165.676 128.488 164.807 128.488C163.616 128.488 162.516 129.399 162.539 130.354C162.562 131.309 163.623 132.129 164.807 132.133C167.68 132.143 170.547 132.143 173.408 132.133C174.614 132.133 175.449 131.279 175.422 130.165C175.388 129.135 174.637 128.499 173.405 128.49C171.48 128.49 169.55 128.49 167.406 128.49M123.633 109.323C123.914 109.489 124.195 109.795 124.479 109.799C127.219 109.857 129.957 109.878 132.694 109.861C133.018 109.816 133.32 109.669 133.556 109.442C134.202 108.893 134.322 108.225 134.009 107.405C133.653 106.464 132.957 106.177 132.068 106.172C129.915 106.158 127.758 106.172 125.611 106.172C123.753 106.174 122.914 107.389 123.642 109.323H123.633Z" fill="#C0CAE4"/>
<path d="M9.63612 103.823C9.74045 113.894 9.80395 123.901 9.86292 134.004C9.32086 135.419 8.82869 136.752 7.03012 136.738C5.19073 136.713 4.08165 135.67 4.02268 133.799C3.99093 132.587 4.02268 131.375 4.02268 130.153C4.00756 121.928 4 113.705 4 105.484C4 103.638 4.64186 102.558 5.9664 102.146C7.36353 101.711 8.56333 102.242 9.63612 103.823Z" fill="#9CA3BC"/>
<path d="M201.321 134.28C201.321 124.824 201.321 115.461 201.334 106.097C201.334 105.413 201.461 104.748 201.532 103.978C202.294 102.779 203.251 102.082 204.678 102.303C206.104 102.524 206.991 103.563 206.991 105.19C207 114.868 207 124.544 206.991 134.22C206.991 136.057 206.068 137.112 204.442 137.183C202.577 137.265 201.495 136.292 201.321 134.28Z" fill="#9BA3BC"/>
<path d="M88.4077 136.556C88.7814 136.601 89.1461 136.702 89.4896 136.857C89.1158 136.813 88.7509 136.711 88.4077 136.556Z" fill="#C0CAE4"/>
<path d="M113.638 136.494C113.856 136.227 114.111 135.992 114.395 135.797C114.179 136.066 113.923 136.301 113.638 136.494Z" fill="#C0CAE4"/>
<path d="M87.5098 136.301C87.7185 136.285 87.9278 136.324 88.1176 136.412C87.9087 136.43 87.6991 136.391 87.5098 136.301Z" fill="#C0CAE4"/>
<path d="M90.186 137.226C90.3322 137.225 90.4737 137.277 90.5852 137.372C90.4395 137.37 90.2987 137.319 90.186 137.226Z" fill="#C0CAE4"/>
<path d="M91.4946 138.386C91.6096 138.471 91.6977 138.588 91.7487 138.723C91.667 138.684 91.5899 138.57 91.4946 138.386Z" fill="#C0CAE4"/>
<path d="M86.3306 135.622C86.3691 135.608 86.4394 135.647 86.537 135.743C86.4893 135.756 86.4213 135.722 86.3306 135.622Z" fill="#C0CAE4"/>
<path d="M64.1035 106.167C69.2383 106.167 74.2621 106.133 79.2858 106.208C80.0403 106.253 80.7491 106.586 81.2658 107.14C81.405 107.3 81.5099 107.486 81.5742 107.688C81.6384 107.89 81.6606 108.103 81.6393 108.314C81.6181 108.525 81.5538 108.73 81.4505 108.914C81.3472 109.099 81.2072 109.261 81.039 109.389C80.4302 109.798 79.7139 110.014 78.9819 110.011C69.0478 110.05 59.116 110.039 49.1819 110.039C46.1609 110.039 43.1398 110.064 40.1097 110.016C39.528 109.995 38.9628 109.817 38.4744 109.499C37.794 109.043 37.4583 108.154 37.9097 107.509C38.3858 106.858 39.0814 106.402 39.867 106.227C41.119 106.019 42.4276 106.167 43.7114 106.167H64.1035Z" fill="#D9DEF0"/>
<path d="M152.104 110.039C148.214 110.039 144.436 110.075 140.662 110.009C139.915 109.995 139.022 109.781 138.473 109.325C137.566 108.564 138.056 106.876 139.237 106.432C139.77 106.252 140.331 106.168 140.893 106.183C152.3 106.17 163.705 106.17 175.109 106.183C175.708 106.202 176.303 106.293 176.88 106.454C177.901 106.712 178.014 107.5 177.971 108.412C177.917 109.273 177.481 109.722 176.66 109.84C176.147 109.942 175.627 110.007 175.104 110.034C167.472 110.043 159.843 110.039 152.104 110.039Z" fill="#D9DEF0"/>
<path d="M67.9591 132.14C61.3477 132.14 54.8497 132.14 48.3495 132.14C47.8251 132.131 47.3037 132.06 46.7959 131.928C45.9658 131.726 45.4849 131.156 45.5303 130.292C45.5847 129.313 46.1631 128.711 47.1179 128.511C47.3442 128.488 47.5721 128.488 47.7983 128.511H85.1963C86.607 128.511 87.3782 129.037 87.4644 130.03C87.5664 131.327 86.7953 132.149 85.4231 132.152C79.6305 132.145 73.856 132.14 67.9591 132.14Z" fill="#A1AED5"/>
<path d="M106.802 128.488C118.481 128.488 130.159 128.497 141.837 128.515C142.463 128.515 143.243 128.713 143.676 129.117C144.583 129.964 144.193 131.395 142.996 131.878C142.5 132.057 141.977 132.142 141.451 132.129C130.339 132.143 119.226 132.143 108.111 132.129C107.7 132.129 107.29 131.917 106.786 131.641C106.743 130.481 106.768 129.486 106.802 128.488Z" fill="#A1AED5"/>
<path d="M33.9385 132.14C27.5154 132.14 21.2034 132.165 14.8869 132.104C14.1212 132.076 13.3877 131.788 12.8071 131.286C11.9633 130.507 12.3739 129.117 13.4625 128.72C13.9248 128.563 14.4103 128.486 14.8982 128.492C22.0789 128.479 29.2573 128.492 36.4447 128.474C37.3021 128.474 38.0324 128.652 38.4452 129.445C39.1369 130.782 38.368 132.015 36.7713 132.12C35.8641 132.186 34.9546 132.14 33.9385 132.14Z" fill="#A1AED5"/>
<path d="M106.759 128.431C106.759 129.495 106.734 130.481 106.725 131.591C106.686 132.368 106.625 133.04 106.575 133.813C104.81 133.963 103.032 134.022 101.254 134.059C100.397 134.077 99.5395 134.059 98.5937 134.011C98.9665 133.14 99.3859 132.291 99.8502 131.466C100.447 130.465 99.9024 129.75 99.6053 128.998C99.0269 127.515 98.4032 126.036 97.9042 124.539C97.7704 124.131 97.8543 123.436 98.131 123.145C99.8094 121.349 101.56 119.622 103.314 117.904C103.54 117.676 103.942 117.624 104.541 117.375C104.359 118.155 104.314 118.674 104.119 119.137C103.611 120.404 103.08 121.661 102.492 122.892C102.134 123.644 102.32 124.12 102.912 124.66C104.214 125.842 105.45 127.114 106.759 128.431Z" fill="#2E2E47"/>
<path d="M20.5568 110.039C18.4815 110.039 16.5196 110.061 14.5578 110.039C12.7615 110.011 12.0629 109.371 12.165 107.951C12.2011 107.48 12.4096 107.038 12.7504 106.711C13.0912 106.384 13.5402 106.195 14.0112 106.181C20.1984 106.167 26.3857 106.167 32.5729 106.181C33.7206 106.181 34.7412 106.994 34.841 107.851C35.0088 109.289 34.2558 110.032 32.5548 110.039C28.5902 110.048 24.6393 110.039 20.5568 110.039Z" fill="#D8DEF0"/>
<path d="M186.578 128.49H196.331C197.651 128.49 198.372 129.096 198.388 130.187C198.404 131.279 197.563 132.113 196.333 132.129C194.065 132.161 191.797 132.129 189.529 132.129C186.848 132.129 184.165 132.149 181.484 132.129C179.758 132.111 178.946 131.395 179.107 130.03C179.212 129.139 179.652 128.481 180.695 128.483C182.612 128.495 184.537 128.49 186.578 128.49Z" fill="#A1AED5"/>
<path d="M182.988 107.147C183.778 106.78 184.501 106.224 185.236 106.208C189.155 106.12 193.077 106.156 196.996 106.172C198.763 106.172 199.677 106.976 199.463 108.45C199.391 108.938 198.912 109.467 198.479 109.767C198.114 110.018 197.542 110.032 197.064 110.034C193.031 110.052 188.996 110.089 184.964 110.004C184.261 109.991 183.451 109.583 182.904 109.109C182.358 108.635 182.242 107.833 182.988 107.147Z" fill="#D8DEF0"/>
<path d="M167.527 128.49C169.568 128.49 171.487 128.49 173.424 128.49C174.655 128.49 175.406 129.135 175.44 130.165C175.478 131.279 174.632 132.129 173.426 132.133C170.553 132.147 167.686 132.147 164.825 132.133C163.644 132.133 162.589 131.284 162.557 130.354C162.526 129.424 163.628 128.492 164.825 128.488C165.676 128.488 166.545 128.49 167.527 128.49Z" fill="#A1AED5"/>
<path d="M123.594 109.246C122.914 107.389 123.751 106.174 125.622 106.17C127.774 106.17 129.931 106.158 132.079 106.17C132.968 106.17 133.667 106.461 134.021 107.402C134.331 108.223 134.211 108.89 133.567 109.439C133.331 109.667 133.029 109.814 132.705 109.859C129.967 109.869 127.229 109.849 124.49 109.797C124.207 109.795 123.923 109.489 123.594 109.246Z" fill="#D7DEF0"/>
<path d="M99.5123 128.971C99.9024 129.741 100.447 130.456 99.8707 131.375C97.7206 132.785 95.3799 131.887 93.1618 132.136C92.7478 132.161 92.3328 132.161 91.9189 132.136C90.8143 132.122 90.0681 131.573 89.9593 130.693C89.8255 129.604 90.524 128.376 91.5605 128.34C93.7719 128.26 95.9923 128.353 98.2059 128.44C98.6187 128.46 99.0179 128.777 99.5123 128.971Z" fill="#A1ADD4"/>
<path d="M87.1948 135.414C86.8191 134.058 86.8951 134.013 88.2499 134.162C88.9313 134.236 89.6346 134.1 90.326 134.12C91.0933 134.143 91.8586 134.24 92.624 134.3C93.0817 134.352 93.5419 134.379 94.0027 134.383C95.3835 134.338 96.7623 134.261 98.2949 134.23C99.2021 134.265 99.9574 134.284 100.713 134.269C102.279 134.238 103.846 134.187 105.413 134.143L108.863 134.019C109.028 133.999 109.194 133.995 109.359 134.007C110.802 134.253 112.238 134.331 113.689 134.021C113.993 133.955 114.349 134.116 115 134.228C114.421 134.681 114.093 134.939 113.749 135.261C113.305 135.468 112.841 135.63 112.362 135.745C112.07 135.918 111.801 136.126 111.563 136.365C110.89 137.31 109.587 137.721 108.23 137.353C107.129 137.047 106.086 136.966 105.369 137.985C105.026 138.458 104.822 139.013 104.781 139.591C104.709 142.094 104.673 144.603 104.737 147.106C104.789 149.159 105.057 151.207 105.121 153.263C105.195 155.669 105.201 158.078 105.137 160.489C105.076 161.804 104.943 163.115 104.737 164.416C104.627 165.23 104.078 165.751 103.264 165.937C102.395 166.131 101.606 165.887 101.25 165.083C100.863 164.207 100.511 163.267 100.417 162.33C100.129 159.424 99.9215 156.5 99.7756 153.58C99.6397 150.845 99.6957 148.102 99.5258 145.37C99.4399 144.004 99.1022 142.642 98.7625 141.301C98.4827 140.203 97.7634 140.046 96.8442 140.78C96.5913 140.985 96.356 141.21 96.1408 141.452C95.5174 142.136 94.6382 142.363 93.8808 142.055C93.3393 141.834 92.8817 141.141 92.6499 140.559C92.3962 139.92 92.4401 139.17 92.3542 138.32C92.3075 138.161 92.2233 138.015 92.1084 137.894C91.845 137.656 91.5955 137.404 91.3611 137.14C91.241 137.034 91.0964 136.958 90.9395 136.917C90.7451 136.886 90.5609 136.811 90.4019 136.698C90.072 136.539 89.722 136.421 89.3609 136.349C89.3004 136.344 89.2432 136.32 89.197 136.282C88.9943 136.211 88.7848 136.159 88.5716 136.129C88.307 136.018 88.0512 135.888 87.8063 135.741C87.7268 135.669 87.6382 135.607 87.5425 135.557C87.4212 135.523 87.3046 135.474 87.1948 135.414Z" fill="#ACCDFB"/>
</g>
</g>
</g>
</svg>
