<svg width="211" height="155" viewBox="0 0 211 155" fill="none" xmlns="http://www.w3.org/2000/svg">

    <defs>
        <filter id="filter0_d_1157_22723" x="0" y="0" width="211" height="155" filterUnits="userSpaceOnUse" color-interpolation-filters="sRGB">
            <feFlood flood-opacity="0" result="BackgroundImageFix"/>
            <feColorMatrix in="SourceAlpha" type="matrix" values="0 0 0 0 0 0 0 0 0 0 0 0 0 0 0 0 0 0 127 0" result="hardAlpha"/>
            <feOffset dy="4"/>
            <feGaussianBlur stdDeviation="2"/>
            <feComposite in2="hardAlpha" operator="out"/>
            <feColorMatrix type="matrix" values="0 0 0 0 0 0 0 0 0 0 0 0 0 0 0 0 0 0 0.25 0"/>
            <feBlend mode="normal" in2="BackgroundImageFix" result="effect1_dropShadow_1157_22723"/>
            <feBlend mode="normal" in="SourceGraphic" in2="effect1_dropShadow_1157_22723" result="shape"/>
        </filter>
        <clipPath id="clip0_1157_22723">
            <rect x="4" width="203" height="147" rx="10" fill="white"/>
        </clipPath>
        <clipPath id="clip1_1157_22723">
            <rect width="83" height="83" fill="white" transform="translate(4 70)"/>
        </clipPath>
        <clipPath id="clip2_1157_22723">
            <rect width="83" height="83" fill="white" transform="translate(72 87)"/>
        </clipPath>
    </defs>
    <g filter="url(#filter0_d_1157_22723)">
<g clip-path="url(#clip0_1157_22723)">
<rect x="4" width="203" height="147" rx="10" fill="#8CC63F"/>
<path d="M80.3652 25.1768C80.3652 26.0498 80.3711 26.8203 80.3828 27.4883C80.3945 28.1504 80.4326 28.6543 80.4971 29H77.7285C77.793 28.6484 77.8311 28.1416 77.8428 27.4795C77.8545 26.8115 77.8604 26.0439 77.8604 25.1768V18.9541C77.8604 18.5439 77.8545 18.1631 77.8428 17.8115C77.8369 17.4541 77.8252 17.1348 77.8076 16.8535C77.79 16.5723 77.7637 16.3438 77.7285 16.168C78.2324 16.1562 78.7422 16.1416 79.2578 16.124C79.4746 16.1182 79.7061 16.1152 79.9521 16.1152C80.1982 16.1094 80.4473 16.1035 80.6992 16.0977C80.957 16.0918 81.2119 16.0889 81.4639 16.0889C81.7158 16.083 81.959 16.0801 82.1934 16.0801C82.9023 16.0801 83.5498 16.165 84.1357 16.335C84.7217 16.5049 85.2227 16.7598 85.6387 17.0996C86.0547 17.4336 86.377 17.8525 86.6055 18.3564C86.8398 18.8604 86.957 19.4492 86.957 20.123C86.957 20.8027 86.8398 21.4121 86.6055 21.9512C86.3711 22.4902 86.04 22.9473 85.6123 23.3223C85.1904 23.6973 84.6807 23.9873 84.083 24.1924C83.4854 24.3916 82.8262 24.4912 82.1055 24.4912C81.7832 24.4912 81.4844 24.4854 81.209 24.4736C80.9336 24.4561 80.6523 24.4326 80.3652 24.4033V25.1768ZM80.3652 22.4961C80.5527 22.5254 80.7754 22.5488 81.0332 22.5664C81.2969 22.5781 81.5664 22.584 81.8418 22.584C82.6973 22.584 83.3447 22.3877 83.7842 21.9951C84.2295 21.6025 84.4521 21.0078 84.4521 20.2109C84.4521 19.8945 84.4053 19.6045 84.3115 19.3408C84.2178 19.0713 84.0654 18.8428 83.8545 18.6553C83.6494 18.4678 83.3828 18.3213 83.0547 18.2158C82.7324 18.1104 82.3398 18.0576 81.877 18.0576C81.707 18.0576 81.5547 18.0605 81.4199 18.0664C81.2852 18.0664 81.1592 18.0693 81.042 18.0752C80.9307 18.0752 80.8193 18.0781 80.708 18.084C80.6025 18.0898 80.4883 18.0957 80.3652 18.1016V22.4961ZM95.4912 29C95.4502 28.9062 95.4062 28.7979 95.3594 28.6748C95.3125 28.5459 95.2656 28.4111 95.2188 28.2705C95.1777 28.1299 95.1367 27.9834 95.0957 27.8311C95.0605 27.6787 95.0312 27.5264 95.0078 27.374C94.4863 27.9775 93.9473 28.4375 93.3906 28.7539C92.834 29.0645 92.2539 29.2197 91.6504 29.2197C89.8164 29.2197 88.8994 27.96 88.8994 25.4404V22.8477C88.8994 22.5664 88.8965 22.3115 88.8906 22.083C88.8906 21.8545 88.8848 21.6348 88.873 21.4238C88.8613 21.207 88.8438 20.9873 88.8203 20.7646C88.7969 20.542 88.7646 20.2988 88.7236 20.0352H91.3604V24.9131C91.3604 25.3115 91.3779 25.6543 91.4131 25.9414C91.4541 26.2285 91.5215 26.4658 91.6152 26.6533C91.709 26.835 91.832 26.9697 91.9844 27.0576C92.1367 27.1455 92.3242 27.1895 92.5469 27.1895C92.7461 27.1895 92.957 27.1309 93.1797 27.0137C93.4082 26.8965 93.625 26.7471 93.8301 26.5654C94.041 26.3779 94.2314 26.1758 94.4014 25.959C94.5713 25.7422 94.7002 25.5312 94.7881 25.3262V22.8477C94.7881 22.5605 94.7852 22.3027 94.7793 22.0742C94.7793 21.8398 94.7734 21.6172 94.7617 21.4062C94.75 21.1953 94.7324 20.9814 94.709 20.7646C94.6855 20.5479 94.6533 20.3047 94.6123 20.0352H97.249V25.0449C97.249 25.9004 97.2959 26.6504 97.3896 27.2949C97.4893 27.9336 97.6328 28.502 97.8203 29H95.4912ZM107.014 20.0352V21.3008L102.355 27.1104H105.212C105.528 27.1104 105.848 27.1045 106.17 27.0928C106.498 27.0811 106.823 27.043 107.146 26.9785V29H99.4111V27.6025L103.981 21.9248H101.037C100.773 21.9248 100.521 21.9307 100.281 21.9424C100.041 21.9541 99.8389 21.9922 99.6748 22.0566V20.0352H107.014ZM116.33 20.0352V21.3008L111.672 27.1104H114.528C114.845 27.1104 115.164 27.1045 115.486 27.0928C115.814 27.0811 116.14 27.043 116.462 26.9785V29H108.728V27.6025L113.298 21.9248H110.354C110.09 21.9248 109.838 21.9307 109.598 21.9424C109.357 21.9541 109.155 21.9922 108.991 22.0566V20.0352H116.33ZM121.252 24.8252C121.252 25.1064 121.255 25.4375 121.261 25.8184C121.272 26.1992 121.284 26.5859 121.296 26.9785C121.313 27.3711 121.331 27.7461 121.349 28.1035C121.372 28.4609 121.398 28.7598 121.428 29H118.791V19.0684C118.791 18.2129 118.776 17.4395 118.747 16.748C118.718 16.0508 118.674 15.4473 118.615 14.9375H121.252V24.8252ZM126.033 25.0449C126.092 25.8066 126.306 26.3574 126.675 26.6973C127.05 27.0312 127.568 27.1982 128.23 27.1982C128.811 27.1982 129.373 27.1338 129.918 27.0049C130.469 26.8701 131.02 26.6387 131.57 26.3105L131.755 28.3408C131.438 28.499 131.128 28.6338 130.823 28.7451C130.524 28.8564 130.223 28.9473 129.918 29.0176C129.619 29.0879 129.312 29.1377 128.995 29.167C128.679 29.2021 128.351 29.2197 128.011 29.2197C127.431 29.2197 126.874 29.123 126.341 28.9297C125.813 28.7305 125.348 28.4404 124.943 28.0596C124.539 27.6729 124.217 27.1953 123.977 26.627C123.742 26.0586 123.625 25.3994 123.625 24.6494C123.625 23.9229 123.725 23.2666 123.924 22.6807C124.129 22.0889 124.422 21.585 124.803 21.1689C125.184 20.7471 125.644 20.4248 126.183 20.2021C126.722 19.9736 127.331 19.8594 128.011 19.8594C128.503 19.8594 128.934 19.9209 129.303 20.0439C129.678 20.1611 130 20.3252 130.27 20.5361C130.545 20.7412 130.773 20.9873 130.955 21.2744C131.143 21.5557 131.289 21.8633 131.395 22.1973C131.506 22.5254 131.585 22.8711 131.632 23.2344C131.679 23.5977 131.702 23.9609 131.702 24.3242V24.4824C131.702 24.5469 131.702 24.6143 131.702 24.6846C131.708 24.7549 131.711 24.8223 131.711 24.8867V25.0449H126.033ZM127.888 21.7051C127.378 21.7051 126.974 21.8428 126.675 22.1182C126.382 22.3877 126.186 22.8359 126.086 23.4629H129.47C129.47 22.8418 129.335 22.3936 129.065 22.1182C128.802 21.8428 128.409 21.7051 127.888 21.7051Z" fill="white"/>
<rect x="25" y="44" width="159" height="71" rx="10" fill="#7CB135"/>
<g clip-path="url(#clip1_1157_22723)">
<path d="M39.9288 134.08H51.4421C50.9712 131.548 51.6115 129.391 53.451 127.674C54.8231 126.394 56.5085 125.838 58.3904 125.972C61.8764 126.221 65.1777 129.41 64.3613 134.078H64.8169C67.8092 134.078 70.8023 134.117 73.7945 134.061C74.9489 134.039 75.861 134.721 75.8568 136.141C75.8229 146.743 75.8204 157.345 75.8492 167.947C75.8492 168.928 75.5214 169.61 74.5728 169.988C63.0324 170.008 51.5124 170.008 39.9542 169.969C39.9169 166.274 39.9144 162.619 39.9237 158.964C39.9237 158.625 39.8627 158.474 39.4706 158.556C38.5881 158.743 37.7157 158.641 36.8358 158.446C33.9943 157.812 31.8448 155.155 31.8016 152.171C31.7745 150.275 32.4469 148.64 33.8139 147.32C35.3257 145.861 37.1542 145.273 39.2343 145.495C39.9237 145.568 39.9186 145.61 39.9195 144.919C39.9223 141.307 39.9254 137.694 39.9288 134.08Z" fill="#4FA9DE"/>
<path d="M39.9221 134.081C39.9254 137.695 39.9238 141.309 39.917 144.924C39.917 145.614 39.9212 145.572 39.2318 145.499C37.1534 145.278 35.3249 145.866 33.8114 147.324C32.4444 148.644 31.772 150.28 31.7991 152.175C31.8423 155.159 33.9918 157.817 36.8333 158.45C37.7132 158.647 38.5856 158.748 39.4681 158.56C39.8602 158.476 39.9221 158.625 39.9212 158.968C39.9119 162.623 39.9144 166.278 39.9119 169.973C28.3625 170.013 16.7984 170.017 5.21959 169.984C4.91723 169.73 4.64706 169.525 4.40738 169.286C4.249 169.127 4.13466 168.925 4 168.742C4 157.222 4.01327 145.687 4.03981 134.135C7.88237 134.095 11.686 134.095 15.5014 134.095V133.726C15.5014 132.914 15.4523 132.097 15.5133 131.288C15.6691 129.24 16.6829 127.754 18.5496 126.867C18.9908 126.657 19.4312 126.448 19.886 126.241C19.9093 126.241 19.9325 126.242 19.9555 126.245C20.0048 126.259 20.056 126.265 20.1071 126.262C22.3396 125.712 24.385 126.029 26.1737 127.561C26.2574 127.61 26.3496 127.644 26.4456 127.661C26.4456 127.661 26.4413 127.661 26.4456 127.692C26.8487 128.244 27.2857 128.743 27.6313 129.297C28.4613 130.619 28.6341 132.082 28.4443 133.605C28.4266 133.751 28.4215 133.898 28.4062 134.094H39.9119C39.9119 134.094 39.9161 134.081 39.9221 134.081Z" fill="#F9DF7E"/>
<path d="M19.929 126.233C19.9032 126.238 19.8768 126.238 19.8511 126.233C18.8085 126.37 17.9963 126.911 17.2256 127.483C16.2575 128.204 15.7739 129.232 15.4555 130.385C15.1785 131.386 15.3047 132.394 15.2395 133.396C15.2065 133.904 15.3047 133.925 14.7949 133.925H4.00146V99.3188C4.07261 99.1968 4.15561 99.1214 4.21405 99.0308C4.58416 98.4539 5.08978 98.1558 5.79528 98.1566C16.5881 98.1634 27.3809 98.1657 38.1737 98.1634C39.1952 98.1634 39.9201 98.858 39.9235 99.8821C39.9343 104.1 39.9343 108.319 39.9235 112.539C39.9235 113.239 39.5695 113.751 38.9462 114.049C38.3033 114.356 37.6859 114.251 37.1083 113.848C36.8203 113.648 36.5459 113.41 36.2292 113.272C34.653 112.587 33.0955 113.132 32.1215 114.693C32.0427 114.757 31.9766 114.836 31.9267 114.924C31.4143 116.119 31.7311 117.197 32.4112 118.215C32.4493 118.272 32.5746 118.271 32.6593 118.3C32.6593 118.3 32.6593 118.306 32.6593 118.334C32.6793 118.365 32.7091 118.389 32.744 118.4C32.744 118.4 32.733 118.4 32.7389 118.427C32.7847 118.461 32.8352 118.487 32.8888 118.506C32.8888 118.506 32.8888 118.506 32.8888 118.539C32.9185 118.624 32.932 118.709 32.9795 118.743C33.7587 119.32 34.6522 119.458 35.5821 119.342C35.9319 119.298 36.3638 119.303 36.5315 118.855C36.5315 118.855 36.5315 118.849 36.5663 118.849C36.664 118.792 36.7561 118.726 36.8415 118.651C36.8534 118.652 36.8652 118.652 36.8771 118.651C36.9641 118.58 37.0446 118.502 37.1176 118.417C37.1176 118.417 37.1218 118.422 37.154 118.422C37.3141 118.377 37.442 118.331 37.5716 118.287C37.7698 118.22 37.9823 118.073 38.1644 118.103C39.0825 118.257 39.8168 118.76 39.8227 119.846C39.8465 124.346 39.8329 128.846 39.8321 133.346C39.8321 133.892 39.799 133.923 39.2587 133.923H28.6474C28.6474 133.153 28.6474 132.443 28.6474 131.733C28.6518 131.607 28.6439 131.48 28.6237 131.355C28.3796 130.127 27.8257 128.98 27.0145 128.026C26.8756 127.86 26.6342 127.781 26.4403 127.662C26.4403 127.662 26.4445 127.655 26.4352 127.631C26.3302 127.162 25.927 127.063 25.5992 126.899C24.9835 126.589 24.3568 126.295 23.7199 126.033C22.7883 125.648 21.8058 125.899 20.8479 125.898C20.5396 125.899 20.2347 126.116 19.929 126.233Z" fill="#F05F5A"/>
<path d="M4.00146 133.952C7.59841 133.924 11.1954 133.924 14.7932 133.923C15.3013 133.923 15.2048 133.902 15.2378 133.394C15.303 132.392 15.1768 131.384 15.4538 130.383C15.7722 129.23 16.2558 128.202 17.2239 127.481C17.9963 126.906 18.8085 126.369 19.8367 126.228C19.4327 126.443 18.9897 126.652 18.551 126.863C16.6878 127.749 15.6714 129.234 15.5148 131.284C15.4538 132.093 15.5037 132.91 15.5029 133.722V134.091C11.6874 134.091 7.88045 134.091 4.04127 134.091C4.00146 134.056 4.00146 134.018 4.00146 133.952Z" fill="#DD7755"/>
<path d="M26.4458 127.691C26.6338 127.782 26.8752 127.86 27.0141 128.03C27.8253 128.985 28.3792 130.131 28.6233 131.36C28.6435 131.485 28.6514 131.611 28.647 131.737C28.647 132.447 28.647 133.157 28.647 133.927H39.2532C39.7936 133.927 39.8266 133.897 39.8266 133.35C39.8266 128.851 39.841 124.35 39.8173 119.851C39.8113 118.764 39.077 118.262 38.159 118.107C37.9769 118.077 37.7643 118.224 37.5661 118.291C37.4365 118.335 37.312 118.381 37.1426 118.423C37.6195 117.941 38.2149 117.898 38.8365 118.132C39.5378 118.398 39.8884 118.952 39.9494 119.686C39.974 119.98 39.957 120.279 39.957 120.574C39.957 124.577 39.957 128.579 39.957 132.582C39.957 133.061 39.9358 133.54 39.9189 134.058C36.0958 134.097 32.2795 134.097 28.409 134.097C28.4242 133.901 28.4293 133.753 28.4471 133.608C28.6368 132.083 28.4641 130.622 27.6341 129.3C27.2834 128.742 26.8464 128.243 26.4458 127.691Z" fill="#DD7755"/>
<path d="M36.4944 118.855C36.3581 119.3 35.9261 119.296 35.5763 119.339C34.6447 119.455 33.7529 119.318 32.9737 118.74C32.9263 118.705 32.9127 118.626 32.8848 118.535C33.4497 118.739 33.9959 119.05 34.5829 119.191C35.224 119.345 35.8685 119.156 36.4944 118.855Z" fill="#DD7755"/>
<path d="M32.653 118.271C32.5751 118.271 32.4497 118.271 32.4116 118.215C31.734 117.199 31.4147 116.119 31.9271 114.924C31.9704 114.844 32.0278 114.772 32.0965 114.712C31.6163 115.982 31.7349 117.171 32.653 118.271Z" fill="#DD7755"/>
<path d="M36.8086 118.65C36.7387 118.73 36.6556 118.797 36.563 118.848C36.6331 118.768 36.7161 118.702 36.8086 118.65Z" fill="#DD7755"/>
<path d="M37.0848 118.422C37.0271 118.512 36.9543 118.591 36.8696 118.655C36.9277 118.566 37.0004 118.487 37.0848 118.422Z" fill="#DD7755"/>
<path d="M32.8772 118.479C32.8511 118.48 32.8252 118.475 32.8012 118.464C32.7773 118.454 32.7558 118.438 32.7383 118.419C32.7644 118.419 32.7903 118.424 32.8143 118.434C32.8383 118.444 32.8597 118.46 32.8772 118.479Z" fill="#DD7755"/>
<path d="M32.7375 118.375C32.7121 118.385 32.6842 118.375 32.6528 118.334C32.6825 118.323 32.713 118.338 32.7375 118.375Z" fill="#DD7755"/>
<path d="M19.957 126.241C20.2348 126.116 20.5397 125.902 20.8446 125.902C21.8025 125.902 22.7824 125.652 23.7166 126.037C24.3535 126.299 24.9802 126.593 25.5959 126.903C25.9212 127.068 26.3269 127.166 26.4319 127.639C26.3412 127.638 26.2526 127.611 26.1778 127.56C24.3891 126.028 22.3437 125.711 20.1112 126.261C20.059 126.263 20.007 126.256 19.957 126.241Z" fill="#DD7755"/>
<path d="M84.049 125.602C83.9236 125.861 83.8254 126.103 83.667 126.295C83.307 126.734 82.8336 126.928 82.2551 126.926C78.1068 126.918 73.9568 126.918 69.8051 126.926C69.0751 126.926 68.5161 126.66 68.1748 126.006C67.8081 125.3 67.9266 124.633 68.4145 124.037C68.9463 123.388 69.2411 122.667 69.2174 121.825C69.1801 120.531 68.3137 119.419 66.9755 118.945C65.855 118.545 64.5287 118.976 63.6157 120.037C62.8814 120.89 62.7391 122.404 63.3083 123.425C63.4229 123.62 63.5559 123.802 63.7055 123.971C64.2136 124.568 64.3305 125.242 64.0155 125.943C63.6928 126.66 63.0838 126.935 62.297 126.933C58.1911 126.922 54.0817 126.903 49.9775 126.947C48.9764 126.957 48.0862 126.1 48.1057 125.061C48.1633 122.056 48.126 119.047 48.126 116.042V115.397C45.6098 115.871 43.456 115.254 41.7359 113.416C40.4765 112.069 39.9336 110.429 40.0064 108.576C40.136 105.323 43.2358 101.596 48.1243 102.49V101.993C48.1243 98.9725 48.1438 95.9519 48.1159 92.9296C48.1066 91.9767 48.5199 91.3846 49.3863 91.0152C60.4753 90.9949 71.5439 90.9949 82.671 91.0152C83.396 91.2558 83.7796 91.7454 84.049 92.3519V125.602Z" fill="#A8D173"/>
</g>
<g clip-path="url(#clip2_1157_22723)">
<path d="M107.927 134.079H119.441C118.97 131.546 119.61 129.389 121.45 127.672C122.822 126.392 124.507 125.837 126.389 125.971C129.875 126.219 133.176 129.408 132.36 134.076H132.815C135.808 134.076 138.801 134.115 141.793 134.059C142.947 134.037 143.86 134.719 143.855 136.14C143.821 146.741 143.819 157.343 143.848 167.945C143.848 168.926 143.52 169.609 142.571 169.986C131.031 170.007 119.511 170.007 107.953 169.967C107.915 166.272 107.913 162.617 107.922 158.962C107.922 158.623 107.861 158.472 107.469 158.554C106.587 158.742 105.714 158.639 104.834 158.444C101.993 157.811 99.8433 155.154 99.8001 152.169C99.773 150.274 100.445 148.638 101.812 147.318C103.324 145.86 105.153 145.272 107.233 145.493C107.922 145.567 107.917 145.608 107.918 144.918C107.921 141.305 107.924 137.692 107.927 134.079Z" fill="#4FA9DE"/>
<path d="M107.921 134.08C107.924 137.694 107.922 141.308 107.916 144.922C107.916 145.612 107.92 145.571 107.23 145.497C105.152 145.276 103.323 145.864 101.81 147.322C100.443 148.642 99.7705 150.278 99.7976 152.174C99.8408 155.158 101.99 157.815 104.832 158.449C105.712 158.645 106.584 158.746 107.467 158.559C107.859 158.474 107.921 158.623 107.92 158.966C107.91 162.621 107.913 166.276 107.91 169.971C96.361 170.011 84.7969 170.015 73.2181 169.982C72.9158 169.728 72.6456 169.523 72.4059 169.284C72.2475 169.126 72.1332 168.923 71.9985 168.74C71.9985 157.22 72.0118 145.685 72.0383 134.134C75.8809 134.093 79.6845 134.093 83.5 134.093V133.725C83.5 132.912 83.4508 132.096 83.5118 131.287C83.6677 129.239 84.6814 127.752 86.5481 126.865C86.9894 126.655 87.4298 126.446 87.8846 126.239C87.9078 126.239 87.931 126.24 87.954 126.243C88.0033 126.257 88.0545 126.263 88.1056 126.26C90.3381 125.711 92.3835 126.027 94.1722 127.559C94.2559 127.609 94.3481 127.642 94.4441 127.659C94.4441 127.659 94.4399 127.659 94.4441 127.69C94.8472 128.242 95.2843 128.741 95.6298 129.295C96.4598 130.618 96.6326 132.08 96.4429 133.603C96.4251 133.749 96.42 133.897 96.4048 134.092H107.91C107.91 134.092 107.915 134.08 107.921 134.08Z" fill="#F9DF7E"/>
<path d="M72 133.95C75.5969 133.922 79.1939 133.922 82.7917 133.921C83.2999 133.921 83.2033 133.9 83.2363 133.393C83.3016 132.39 83.1754 131.382 83.4523 130.381C83.7708 129.228 84.2544 128.2 85.2224 127.479C85.9948 126.904 86.807 126.367 87.8352 126.226C87.4312 126.442 86.9883 126.65 86.5496 126.861C84.6863 127.748 83.67 129.233 83.5133 131.283C83.4523 132.091 83.5023 132.908 83.5014 133.72V134.089C79.686 134.089 75.879 134.089 72.0398 134.089C72 134.054 72 134.016 72 133.95Z" fill="#DD7755"/>
<path d="M94.4443 127.689C94.6324 127.78 94.8737 127.859 95.0126 128.028C95.8239 128.983 96.3778 130.129 96.6218 131.358C96.642 131.483 96.65 131.609 96.6455 131.736C96.6455 132.446 96.6455 133.155 96.6455 133.925H107.252C107.792 133.925 107.825 133.895 107.825 133.349C107.825 128.849 107.84 124.349 107.816 119.849C107.81 118.762 107.076 118.26 106.157 118.106C105.975 118.075 105.763 118.223 105.565 118.29C105.435 118.334 105.311 118.379 105.141 118.422C105.618 117.939 106.213 117.897 106.835 118.13C107.536 118.396 107.887 118.95 107.948 119.685C107.972 119.979 107.956 120.278 107.956 120.572C107.956 124.575 107.956 128.578 107.956 132.58C107.956 133.06 107.934 133.538 107.917 134.056C104.094 134.095 100.278 134.095 96.4075 134.095C96.4228 133.899 96.4279 133.752 96.4457 133.606C96.6354 132.081 96.4626 130.62 95.6326 129.298C95.282 128.741 94.8449 128.242 94.4443 127.689Z" fill="#DD7755"/>
<path d="M104.493 118.854C104.357 119.298 103.925 119.294 103.575 119.337C102.643 119.453 101.751 119.316 100.972 118.738C100.925 118.704 100.911 118.624 100.883 118.533C101.448 118.738 101.994 119.048 102.581 119.189C103.223 119.343 103.867 119.154 104.493 118.854Z" fill="#DD7755"/>
<path d="M100.652 118.269C100.574 118.269 100.448 118.269 100.41 118.213C99.7326 117.197 99.4133 116.118 99.9257 114.922C99.9689 114.842 100.026 114.77 100.095 114.71C99.6149 115.98 99.7334 117.169 100.652 118.269Z" fill="#DD7755"/>
<path d="M104.807 118.649C104.737 118.728 104.654 118.795 104.562 118.846C104.632 118.767 104.715 118.7 104.807 118.649Z" fill="#DD7755"/>
<path d="M105.083 118.421C105.026 118.51 104.953 118.589 104.868 118.654C104.926 118.565 104.999 118.486 105.083 118.421Z" fill="#DD7755"/>
<path d="M100.876 118.478C100.85 118.478 100.824 118.473 100.8 118.463C100.776 118.452 100.754 118.437 100.737 118.417C100.763 118.417 100.789 118.422 100.813 118.432C100.837 118.443 100.858 118.458 100.876 118.478Z" fill="#DD7755"/>
<path d="M100.736 118.373C100.711 118.384 100.683 118.373 100.651 118.333C100.681 118.322 100.711 118.336 100.736 118.373Z" fill="#DD7755"/>
<path d="M87.9556 126.239C88.2334 126.114 88.5383 125.9 88.8432 125.9C89.801 125.9 90.781 125.65 91.7151 126.035C92.352 126.298 92.9788 126.592 93.5945 126.902C93.9197 127.066 94.3254 127.164 94.4304 127.637C94.3397 127.637 94.2512 127.609 94.1763 127.558C92.3876 126.027 90.3422 125.71 88.1097 126.26C88.0576 126.261 88.0055 126.254 87.9556 126.239Z" fill="#DD7755"/>
</g>
<path d="M179.929 134.079H191.442C190.971 131.546 191.611 129.389 193.451 127.672C194.823 126.392 196.508 125.837 198.39 125.971C201.876 126.219 205.178 129.408 204.361 134.076H204.817C207.809 134.076 210.802 134.115 213.794 134.059C214.949 134.037 215.861 134.719 215.857 136.14C215.823 146.741 215.82 157.343 215.849 167.945C215.849 168.926 215.521 169.609 214.573 169.986C203.032 170.007 191.512 170.007 179.954 169.967C179.917 166.272 179.914 162.617 179.924 158.962C179.924 158.623 179.863 158.472 179.471 158.554C178.588 158.742 177.716 158.639 176.836 158.444C173.994 157.811 171.845 155.154 171.802 152.169C171.774 150.274 172.447 148.638 173.814 147.318C175.326 145.86 177.154 145.272 179.234 145.493C179.924 145.567 179.919 145.608 179.919 144.918C179.922 141.305 179.925 137.692 179.929 134.079Z" fill="#4FA9DE"/>
<path d="M216.05 132.602C215.925 132.861 215.827 133.103 215.668 133.295C215.308 133.734 214.835 133.928 214.257 133.926C210.108 133.918 205.958 133.918 201.807 133.926C201.077 133.926 200.518 133.66 200.176 133.006C199.81 132.3 199.928 131.633 200.416 131.037C200.948 130.388 201.243 129.667 201.219 128.825C201.182 127.531 200.315 126.419 198.977 125.945C197.856 125.545 196.53 125.976 195.617 127.037C194.883 127.89 194.741 129.404 195.31 130.425C195.424 130.62 195.557 130.802 195.707 130.971C196.215 131.568 196.332 132.242 196.017 132.943C195.694 133.66 195.085 133.935 194.298 133.933C190.193 133.922 186.083 133.903 181.979 133.947C180.978 133.957 180.088 133.1 180.107 132.061C180.165 129.056 180.128 126.047 180.128 123.042V122.397C177.611 122.871 175.457 122.254 173.737 120.416C172.478 119.069 171.935 117.429 172.008 115.576C172.137 112.323 175.237 108.596 180.126 109.49V108.993C180.126 105.973 180.145 102.952 180.117 99.9296C180.108 98.9767 180.521 98.3846 181.388 98.0152C192.477 97.9949 203.545 97.9949 214.672 98.0152C215.397 98.2558 215.781 98.7454 216.05 99.3519V132.602Z" fill="#A8D173"/>
<path d="M179.922 134.08C179.925 137.694 179.924 141.308 179.917 144.922C179.917 145.612 179.921 145.571 179.232 145.497C177.153 145.276 175.325 145.864 173.811 147.323C172.444 148.642 171.772 150.278 171.799 152.174C171.842 155.158 173.992 157.815 176.833 158.449C177.713 158.645 178.586 158.746 179.468 158.559C179.86 158.474 179.922 158.623 179.921 158.966C179.912 162.621 179.914 166.276 179.912 169.971C168.362 170.011 156.798 170.015 145.22 169.982C144.917 169.728 144.647 169.523 144.407 169.284C144.249 169.126 144.135 168.923 144 168.74C144 157.22 144.013 145.685 144.04 134.134C147.882 134.093 151.686 134.093 155.501 134.093V133.725C155.501 132.912 155.452 132.096 155.513 131.287C155.669 129.239 156.683 127.752 158.55 126.865C158.991 126.655 159.431 126.446 159.886 126.239C159.909 126.239 159.932 126.24 159.955 126.243C160.005 126.257 160.056 126.263 160.107 126.26C162.34 125.711 164.385 126.027 166.174 127.559C166.257 127.609 166.35 127.643 166.446 127.659C166.446 127.659 166.441 127.659 166.446 127.69C166.849 128.243 167.286 128.741 167.631 129.295C168.461 130.618 168.634 132.081 168.444 133.604C168.427 133.749 168.421 133.897 168.406 134.092H179.912C179.912 134.092 179.916 134.08 179.922 134.08Z" fill="#F9DF7E"/>
<path d="M159.929 126.232C159.903 126.236 159.877 126.236 159.851 126.232C158.808 126.369 157.996 126.909 157.226 127.481C156.258 128.202 155.774 129.23 155.455 130.383C155.179 131.384 155.305 132.392 155.239 133.394C155.206 133.903 155.305 133.923 154.795 133.923H144.001V99.3171C144.073 99.1951 144.156 99.1197 144.214 99.0291C144.584 98.4522 145.09 98.1541 145.795 98.1549C156.588 98.1617 167.381 98.1639 178.174 98.1617C179.195 98.1617 179.92 98.8563 179.924 99.8804C179.934 104.099 179.934 108.318 179.924 112.537C179.924 113.237 179.57 113.749 178.946 114.047C178.303 114.354 177.686 114.249 177.108 113.847C176.82 113.646 176.546 113.409 176.229 113.271C174.653 112.585 173.096 113.13 172.122 114.691C172.043 114.755 171.977 114.834 171.927 114.922C171.414 116.118 171.731 117.195 172.411 118.213C172.449 118.27 172.575 118.269 172.659 118.298C172.659 118.298 172.659 118.305 172.659 118.333C172.679 118.364 172.709 118.387 172.744 118.399C172.744 118.399 172.733 118.399 172.739 118.425C172.785 118.459 172.835 118.486 172.889 118.505C172.889 118.505 172.889 118.505 172.889 118.538C172.918 118.622 172.932 118.707 172.979 118.741C173.759 119.319 174.652 119.456 175.582 119.34C175.932 119.297 176.364 119.301 176.532 118.853C176.532 118.853 176.532 118.847 176.566 118.848C176.664 118.79 176.756 118.724 176.842 118.65C176.853 118.65 176.865 118.65 176.877 118.65C176.964 118.579 177.045 118.5 177.118 118.415C177.118 118.415 177.122 118.42 177.154 118.42C177.314 118.375 177.442 118.329 177.572 118.285C177.77 118.218 177.982 118.071 178.164 118.101C179.083 118.256 179.817 118.758 179.823 119.845C179.846 124.344 179.833 128.845 179.832 133.344C179.832 133.891 179.799 133.921 179.259 133.921H168.647C168.647 133.151 168.647 132.441 168.647 131.732C168.652 131.605 168.644 131.479 168.624 131.354C168.38 130.125 167.826 128.979 167.014 128.024C166.876 127.859 166.634 127.779 166.44 127.661C166.44 127.661 166.444 127.654 166.435 127.629C166.33 127.16 165.927 127.062 165.599 126.897C164.984 126.587 164.357 126.293 163.72 126.031C162.788 125.646 161.806 125.897 160.848 125.896C160.54 125.897 160.235 126.114 159.929 126.232Z" fill="#F05F5A"/>
<path d="M144.001 133.95C147.598 133.922 151.195 133.922 154.793 133.921C155.301 133.921 155.205 133.9 155.238 133.393C155.303 132.39 155.177 131.382 155.454 130.381C155.772 129.228 156.256 128.2 157.224 127.479C157.996 126.904 158.808 126.367 159.837 126.226C159.433 126.442 158.99 126.65 158.551 126.861C156.688 127.748 155.671 129.233 155.515 131.283C155.454 132.091 155.504 132.908 155.503 133.72V134.089C151.687 134.089 147.88 134.089 144.041 134.089C144.001 134.054 144.001 134.016 144.001 133.95Z" fill="#DD7755"/>
<path d="M166.446 127.689C166.634 127.78 166.875 127.859 167.014 128.028C167.825 128.983 168.379 130.129 168.623 131.358C168.644 131.483 168.651 131.609 168.647 131.736C168.647 132.446 168.647 133.155 168.647 133.925H179.253C179.794 133.925 179.827 133.895 179.827 133.349C179.827 128.849 179.841 124.349 179.817 119.849C179.811 118.762 179.077 118.26 178.159 118.106C177.977 118.075 177.764 118.223 177.566 118.29C177.437 118.334 177.312 118.379 177.143 118.422C177.619 117.939 178.215 117.897 178.837 118.13C179.538 118.396 179.888 118.95 179.949 119.685C179.974 119.979 179.957 120.278 179.957 120.572C179.957 124.575 179.957 128.578 179.957 132.58C179.957 133.06 179.936 133.538 179.919 134.056C176.096 134.095 172.28 134.095 168.409 134.095C168.424 133.899 168.429 133.752 168.447 133.606C168.637 132.081 168.464 130.62 167.634 129.298C167.283 128.741 166.846 128.242 166.446 127.689Z" fill="#DD7755"/>
<path d="M176.494 118.854C176.358 119.298 175.926 119.294 175.576 119.337C174.645 119.453 173.753 119.316 172.974 118.738C172.926 118.704 172.913 118.624 172.885 118.533C173.45 118.738 173.996 119.048 174.583 119.189C175.224 119.343 175.869 119.154 176.494 118.854Z" fill="#DD7755"/>
<path d="M172.653 118.269C172.575 118.269 172.45 118.269 172.412 118.213C171.734 117.197 171.415 116.118 171.927 114.922C171.97 114.842 172.028 114.77 172.097 114.71C171.616 115.98 171.735 117.169 172.653 118.269Z" fill="#DD7755"/>
<path d="M176.809 118.649C176.739 118.728 176.656 118.795 176.563 118.846C176.633 118.767 176.716 118.7 176.809 118.649Z" fill="#DD7755"/>
<path d="M177.085 118.421C177.027 118.51 176.954 118.589 176.87 118.654C176.928 118.565 177 118.486 177.085 118.421Z" fill="#DD7755"/>
<path d="M172.877 118.478C172.851 118.478 172.825 118.473 172.801 118.463C172.777 118.452 172.756 118.437 172.738 118.417C172.764 118.417 172.79 118.422 172.814 118.432C172.838 118.443 172.86 118.458 172.877 118.478Z" fill="#DD7755"/>
<path d="M172.738 118.373C172.712 118.384 172.684 118.373 172.653 118.333C172.682 118.322 172.713 118.336 172.738 118.373Z" fill="#DD7755"/>
<path d="M159.957 126.239C160.235 126.114 160.54 125.9 160.845 125.9C161.803 125.9 162.782 125.65 163.717 126.035C164.353 126.298 164.98 126.592 165.596 126.902C165.921 127.066 166.327 127.164 166.432 127.637C166.341 127.637 166.253 127.609 166.178 127.558C164.389 126.027 162.344 125.71 160.111 126.26C160.059 126.261 160.007 126.254 159.957 126.239Z" fill="#DD7755"/>
</g>
</g>
</svg>
