<svg width="211" height="155" viewBox="0 0 211 155" fill="none" xmlns="http://www.w3.org/2000/svg">
    <defs>
        <filter id="filter0_d_1157_22725" x="0" y="0" width="211" height="155" filterUnits="userSpaceOnUse" color-interpolation-filters="sRGB">
            <feFlood flood-opacity="0" result="BackgroundImageFix"/>
            <feColorMatrix in="SourceAlpha" type="matrix" values="0 0 0 0 0 0 0 0 0 0 0 0 0 0 0 0 0 0 127 0" result="hardAlpha"/>
            <feOffset dy="4"/>
            <feGaussianBlur stdDeviation="2"/>
            <feComposite in2="hardAlpha" operator="out"/>
            <feColorMatrix type="matrix" values="0 0 0 0 0 0 0 0 0 0 0 0 0 0 0 0 0 0 0.25 0"/>
            <feBlend mode="normal" in2="BackgroundImageFix" result="effect1_dropShadow_1157_22725"/>
            <feBlend mode="normal" in="SourceGraphic" in2="effect1_dropShadow_1157_22725" result="shape"/>
        </filter>
        <clipPath id="clip0_1157_22725">
            <rect x="4" width="203" height="147" rx="10" fill="white"/>
        </clipPath>
    </defs>
    <g filter="url(#filter0_d_1157_22725)">
<g clip-path="url(#clip0_1157_22725)">
<rect x="4" width="203" height="147" rx="10" fill="#F86F6F"/>
<path d="M94.4277 22.7158C94.4277 22.001 94.3486 21.3594 94.1904 20.791C94.0381 20.2168 93.8213 19.7305 93.54 19.332C93.2588 18.9336 92.9248 18.6289 92.5381 18.418C92.1514 18.207 91.7266 18.1016 91.2637 18.1016C90.8008 18.1016 90.373 18.2041 89.9805 18.4092C89.5879 18.6084 89.248 18.8984 88.9609 19.2793C88.6797 19.6543 88.457 20.1113 88.293 20.6504C88.1348 21.1836 88.0557 21.7842 88.0557 22.4521C88.0557 23.1611 88.1318 23.7998 88.2842 24.3682C88.4424 24.9365 88.6621 25.4229 88.9434 25.8271C89.2305 26.2256 89.5703 26.5332 89.9629 26.75C90.3555 26.9609 90.7891 27.0664 91.2637 27.0664C91.709 27.0664 92.125 26.9697 92.5117 26.7764C92.8984 26.5771 93.2324 26.29 93.5137 25.915C93.8008 25.54 94.0234 25.0859 94.1816 24.5527C94.3457 24.0137 94.4277 23.4014 94.4277 22.7158ZM96.9326 22.4961C96.9326 23.0879 96.8828 23.6357 96.7832 24.1396C96.6895 24.6436 96.5518 25.1123 96.3701 25.5459C96.1885 25.9795 95.9658 26.3779 95.7021 26.7412C95.4443 27.1045 95.1543 27.4414 94.832 27.752C95.1191 27.916 95.4004 28.0742 95.6758 28.2266C95.9512 28.373 96.2266 28.5078 96.502 28.6309C96.7832 28.7539 97.0674 28.8594 97.3545 28.9473C97.6416 29.0352 97.9404 29.0967 98.251 29.1318C98.1807 29.249 98.0869 29.4102 97.9697 29.6152C97.8525 29.8262 97.7207 30.0342 97.5742 30.2393C97.4277 30.4443 97.2725 30.623 97.1084 30.7754C96.9502 30.9277 96.7891 31.0039 96.625 31.0039C96.502 31.0039 96.3291 30.957 96.1064 30.8633C95.8896 30.7695 95.6465 30.6523 95.377 30.5117C95.1133 30.377 94.8379 30.2275 94.5508 30.0635C94.2637 29.9053 93.9883 29.7559 93.7246 29.6152C93.4668 29.4805 93.2354 29.3662 93.0303 29.2725C92.8252 29.1787 92.6729 29.1318 92.5732 29.1318C92.4678 29.1494 92.3652 29.1641 92.2656 29.1758C92.1719 29.1875 92.0723 29.1963 91.9668 29.2021C91.8613 29.208 91.7441 29.2109 91.6152 29.2109C91.4922 29.2168 91.3457 29.2197 91.1758 29.2197C90.4199 29.2197 89.6992 29.0762 89.0137 28.7891C88.334 28.502 87.7363 28.0801 87.2207 27.5234C86.7109 26.9668 86.3037 26.2842 85.999 25.4756C85.7002 24.6611 85.5508 23.7266 85.5508 22.6719C85.5508 21.6172 85.709 20.6738 86.0254 19.8418C86.3477 19.0098 86.7754 18.3066 87.3086 17.7324C87.8477 17.1523 88.4658 16.71 89.1631 16.4053C89.8604 16.1006 90.5898 15.9482 91.3516 15.9482C92.1016 15.9482 92.8135 16.0918 93.4873 16.3789C94.1611 16.666 94.7529 17.0879 95.2627 17.6445C95.7725 18.2012 96.1768 18.8867 96.4756 19.7012C96.7803 20.5098 96.9326 21.4414 96.9326 22.4961ZM106.214 29C106.173 28.9062 106.129 28.7979 106.082 28.6748C106.035 28.5459 105.988 28.4111 105.941 28.2705C105.9 28.1299 105.859 27.9834 105.818 27.8311C105.783 27.6787 105.754 27.5264 105.73 27.374C105.209 27.9775 104.67 28.4375 104.113 28.7539C103.557 29.0645 102.977 29.2197 102.373 29.2197C100.539 29.2197 99.6221 27.96 99.6221 25.4404V22.8477C99.6221 22.5664 99.6191 22.3115 99.6133 22.083C99.6133 21.8545 99.6074 21.6348 99.5957 21.4238C99.584 21.207 99.5664 20.9873 99.543 20.7646C99.5195 20.542 99.4873 20.2988 99.4463 20.0352H102.083V24.9131C102.083 25.3115 102.101 25.6543 102.136 25.9414C102.177 26.2285 102.244 26.4658 102.338 26.6533C102.432 26.835 102.555 26.9697 102.707 27.0576C102.859 27.1455 103.047 27.1895 103.27 27.1895C103.469 27.1895 103.68 27.1309 103.902 27.0137C104.131 26.8965 104.348 26.7471 104.553 26.5654C104.764 26.3779 104.954 26.1758 105.124 25.959C105.294 25.7422 105.423 25.5312 105.511 25.3262V22.8477C105.511 22.5605 105.508 22.3027 105.502 22.0742C105.502 21.8398 105.496 21.6172 105.484 21.4062C105.473 21.1953 105.455 20.9814 105.432 20.7646C105.408 20.5479 105.376 20.3047 105.335 20.0352H107.972V25.0449C107.972 25.9004 108.019 26.6504 108.112 27.2949C108.212 27.9336 108.355 28.502 108.543 29H106.214ZM110.573 16.8271C110.573 16.6045 110.611 16.3994 110.688 16.2119C110.764 16.0244 110.869 15.8633 111.004 15.7285C111.145 15.5879 111.309 15.4795 111.496 15.4033C111.684 15.3271 111.889 15.2891 112.111 15.2891C112.334 15.2891 112.539 15.3271 112.727 15.4033C112.914 15.4795 113.075 15.5879 113.21 15.7285C113.351 15.8633 113.459 16.0244 113.535 16.2119C113.611 16.3994 113.649 16.6045 113.649 16.8271C113.649 17.0557 113.611 17.2637 113.535 17.4512C113.459 17.6387 113.351 17.8027 113.21 17.9434C113.075 18.0781 112.914 18.1836 112.727 18.2598C112.539 18.3301 112.334 18.3652 112.111 18.3652C111.889 18.3652 111.684 18.3301 111.496 18.2598C111.309 18.1836 111.145 18.0781 111.004 17.9434C110.869 17.8027 110.764 17.6387 110.688 17.4512C110.611 17.2637 110.573 17.0557 110.573 16.8271ZM113.342 20.0352V24.8252C113.342 25.1064 113.345 25.4404 113.351 25.8271C113.362 26.208 113.374 26.5947 113.386 26.9873C113.403 27.3799 113.421 27.7549 113.438 28.1123C113.462 28.4697 113.488 28.7656 113.518 29H110.881V24.3418C110.881 23.9141 110.878 23.4922 110.872 23.0762C110.872 22.6602 110.866 22.2676 110.854 21.8984C110.849 21.5234 110.837 21.1777 110.819 20.8613C110.802 20.5391 110.778 20.2637 110.749 20.0352H113.342ZM123.361 20.0352V21.3008L118.703 27.1104H121.56C121.876 27.1104 122.195 27.1045 122.518 27.0928C122.846 27.0811 123.171 27.043 123.493 26.9785V29H115.759V27.6025L120.329 21.9248H117.385C117.121 21.9248 116.869 21.9307 116.629 21.9424C116.389 21.9541 116.187 21.9922 116.022 22.0566V20.0352H123.361Z" fill="white"/>
<rect x="29" y="47" width="159" height="71" rx="10" fill="#F75555"/>
<path d="M81.3741 145.605L61.0267 134.639C59.8781 134 59.0075 132.955 58.584 131.708C58.1605 130.461 58.2143 129.101 58.735 127.892L69.6308 103.295C71.0781 100.031 74.5569 98.528 77.3595 100.04L101.581 113.094C104.386 114.605 105.024 118.322 103.063 121.313L88.3083 143.83C86.8174 146.107 83.7297 146.875 81.3741 145.605Z" fill="#EB933B"/>
<path d="M79.1108 144.389L58.7634 133.419C56.4094 132.151 55.3469 129.143 56.4172 126.642L67.0108 101.881C68.4129 98.592 71.862 97.0754 74.6662 98.5873L98.8866 111.642C101.691 113.152 102.362 116.887 100.444 119.9L85.9889 142.58C85.2705 143.683 84.1687 144.479 82.8976 144.813C81.6265 145.148 80.2768 144.996 79.1108 144.389Z" fill="#FFC131"/>
<path d="M73.3793 126.816V121.691C73.3793 121.463 73.4696 121.245 73.6303 121.084C73.7909 120.923 74.0089 120.832 74.2361 120.832H77.6635C78.3445 120.832 78.9977 120.561 79.4794 120.078C79.9612 119.596 80.232 118.941 80.2324 118.258C80.2324 117.92 80.166 117.585 80.0369 117.272C79.9078 116.96 79.7185 116.676 79.48 116.437C79.2414 116.198 78.9582 116.008 78.6466 115.878C78.3349 115.749 78.0008 115.682 77.6635 115.682H72.5225C71.8414 115.682 71.1884 115.41 70.707 114.927C70.2255 114.445 69.9551 113.79 69.9551 113.107C69.9551 112.424 70.2257 111.769 70.7075 111.286C71.1893 110.803 71.8427 110.531 72.524 110.531H78.5172C83.087 110.531 85.3719 112.822 85.3719 117.404V119.122C85.3719 123.703 83.087 125.994 78.5172 125.994V126.827C78.5172 127.062 78.4241 127.287 78.2585 127.453C78.0928 127.619 77.8681 127.712 77.6339 127.712H74.2626C74.1457 127.712 74.0299 127.689 73.922 127.644C73.8142 127.599 73.7163 127.532 73.6341 127.449C73.552 127.366 73.4871 127.267 73.4434 127.158C73.3996 127.049 73.3779 126.933 73.3793 126.816ZM78.5203 130.277V133.713C78.5205 133.826 78.4985 133.938 78.4556 134.042C78.4128 134.146 78.3498 134.241 78.2703 134.32C78.1909 134.4 78.0966 134.464 77.9927 134.507C77.8888 134.55 77.7775 134.572 77.665 134.572H74.2377C74.0104 134.572 73.7925 134.482 73.6318 134.321C73.4711 134.159 73.3809 133.941 73.3809 133.713V130.277C73.3809 130.049 73.4711 129.831 73.6318 129.669C73.7925 129.508 74.0104 129.418 74.2377 129.418H77.665C77.8916 129.419 78.1086 129.51 78.2683 129.671C78.4281 129.832 78.5176 130.05 78.5172 130.277H78.5203Z" fill="white"/>
<path d="M159.192 107.84L136.117 100.187C134.798 99.7672 133.372 99.8547 132.114 100.432C130.857 101.01 129.859 102.036 129.315 103.311L118.446 129.443C117.001 132.915 118.374 136.664 121.561 137.721L149.031 146.838C152.211 147.894 155.506 145.695 156.367 142.029L162.859 114.438C163.507 111.65 161.862 108.724 159.192 107.84Z" fill="#45ABBD"/>
<path d="M156.623 106.986L133.547 99.3278C130.877 98.4406 127.816 99.7964 126.683 102.431L115.471 128.457C113.982 131.914 115.316 135.652 118.497 136.706L145.967 145.823C149.146 146.877 152.479 144.69 153.387 141.04L160.221 113.563C160.544 112.214 160.354 110.794 159.689 109.578C159.024 108.362 157.931 107.438 156.623 106.986Z" fill="#51C7DB"/>
<path d="M140.895 129.526C141.354 129.526 141.821 129.546 142.297 129.587L142.66 129.619C142.983 129.65 143.285 129.794 143.513 130.025C143.741 130.257 143.88 130.562 143.906 130.886V130.897C143.962 131.56 143.927 132.228 143.804 132.882V132.909C143.748 133.208 143.596 133.48 143.371 133.684C143.146 133.887 142.86 134.011 142.557 134.035L142.188 134.063C141.748 134.091 141.313 134.104 140.884 134.102C140.456 134.102 140.021 134.082 139.582 134.049C139.46 134.04 139.337 134.03 139.211 134.018C138.909 133.99 138.624 133.864 138.401 133.658C138.178 133.452 138.028 133.178 137.976 132.879V132.854C137.918 132.528 137.882 132.199 137.866 131.868C137.854 131.534 137.862 131.199 137.891 130.866V130.856C137.921 130.535 138.061 130.234 138.289 130.006C138.517 129.777 138.817 129.636 139.138 129.607L139.502 129.577C139.97 129.54 140.437 129.524 140.895 129.526ZM137.12 111.503C137.098 111.141 137.219 110.785 137.455 110.511C137.692 110.237 138.026 110.067 138.387 110.038C138.628 110.017 138.865 110.003 139.1 109.994C139.769 109.967 140.4 109.955 140.992 109.958C141.584 109.961 142.207 109.979 142.861 110.013C143.107 110.025 143.358 110.044 143.615 110.069C143.972 110.105 144.3 110.28 144.53 110.555C144.761 110.83 144.875 111.185 144.849 111.543L143.841 125.722C143.818 126.045 143.683 126.35 143.459 126.583C143.235 126.816 142.936 126.963 142.615 126.998C142.459 127.014 142.322 127.028 142.186 127.039C141.736 127.075 141.309 127.091 140.906 127.089C140.338 127.08 139.77 127.041 139.206 126.972C138.884 126.935 138.585 126.786 138.362 126.55C138.139 126.314 138.006 126.006 137.986 125.682L137.12 111.503Z" fill="white"/>
<path d="M112.325 143.624C123.455 143.624 132.477 134.082 132.477 122.311C132.477 110.541 123.455 100.999 112.325 100.999C101.195 100.999 92.1719 110.541 92.1719 122.311C92.1719 134.082 101.195 143.624 112.325 143.624Z" fill="#86B026"/>
<path d="M108.657 143.624C119.787 143.624 128.81 134.082 128.81 122.311C128.81 110.541 119.787 100.999 108.657 100.999C97.5271 100.999 88.5044 110.541 88.5044 122.311C88.5044 134.082 97.5271 143.624 108.657 143.624Z" fill="#A4D72E"/>
<path d="M97.3168 120.245C96.6693 120.901 96.3062 121.788 96.3062 122.711C96.3062 123.634 96.6693 124.521 97.3168 125.177L103.586 131.392C103.874 131.684 104.218 131.916 104.598 132.073C104.977 132.23 105.383 132.309 105.794 132.306C106.204 132.303 106.609 132.218 106.986 132.056C107.363 131.893 107.704 131.657 107.988 131.361L121.542 117.557C122.175 116.897 122.526 116.015 122.52 115.1C122.514 114.184 122.152 113.307 121.511 112.655C121.221 112.363 120.875 112.131 120.495 111.974C120.114 111.817 119.706 111.739 119.294 111.743C118.883 111.747 118.476 111.833 118.099 111.997C117.721 112.161 117.38 112.399 117.096 112.698L106.493 123.598C106.403 123.693 106.295 123.768 106.176 123.82C106.057 123.872 105.929 123.899 105.799 123.901C105.669 123.902 105.54 123.877 105.419 123.828C105.299 123.778 105.19 123.705 105.098 123.612L101.696 120.239C101.409 119.948 101.068 119.718 100.692 119.561C100.316 119.405 99.9124 119.324 99.5051 119.325C99.0978 119.325 98.6946 119.407 98.319 119.565C97.9433 119.723 97.6027 119.954 97.3168 120.245Z" fill="white"/>
</g>
</g>
</svg>
