<svg width="211" height="155" viewBox="0 0 211 155" fill="none" xmlns="http://www.w3.org/2000/svg">

    <defs>
        <filter id="filter0_d_1157_22726" x="0" y="0" width="211" height="155" filterUnits="userSpaceOnUse" color-interpolation-filters="sRGB">
            <feFlood flood-opacity="0" result="BackgroundImageFix"/>
            <feColorMatrix in="SourceAlpha" type="matrix" values="0 0 0 0 0 0 0 0 0 0 0 0 0 0 0 0 0 0 127 0" result="hardAlpha"/>
            <feOffset dy="4"/>
            <feGaussianBlur stdDeviation="2"/>
            <feComposite in2="hardAlpha" operator="out"/>
            <feColorMatrix type="matrix" values="0 0 0 0 0 0 0 0 0 0 0 0 0 0 0 0 0 0 0.25 0"/>
            <feBlend mode="normal" in2="BackgroundImageFix" result="effect1_dropShadow_1157_22726"/>
            <feBlend mode="normal" in="SourceGraphic" in2="effect1_dropShadow_1157_22726" result="shape"/>
        </filter>
        <clipPath id="clip0_1157_22726">
            <rect x="4" width="203" height="147" rx="10" fill="white"/>
        </clipPath>
    </defs>
    <g filter="url(#filter0_d_1157_22726)">
<g clip-path="url(#clip0_1157_22726)">
<rect x="4" width="203" height="147" rx="10" fill="#827DF5"/>
<path d="M73.6289 25.1768C73.6289 25.6104 73.6289 26.0205 73.6289 26.4072C73.6348 26.7939 73.6406 27.1514 73.6465 27.4795C73.6582 27.8076 73.6729 28.1006 73.6904 28.3584C73.708 28.6162 73.7314 28.8301 73.7607 29H70.9922C71.0566 28.6484 71.0947 28.1416 71.1064 27.4795C71.1182 26.8115 71.124 26.0439 71.124 25.1768V18.9541C71.124 18.5439 71.1182 18.1631 71.1064 17.8115C71.1006 17.4541 71.0889 17.1348 71.0713 16.8535C71.0537 16.5723 71.0273 16.3438 70.9922 16.168C71.4492 16.1562 71.9238 16.1416 72.416 16.124C72.8379 16.1123 73.3096 16.1035 73.8311 16.0977C74.3525 16.0859 74.8711 16.0801 75.3867 16.0801C76.0723 16.0801 76.6963 16.1592 77.2588 16.3174C77.8271 16.4697 78.3135 16.7041 78.7178 17.0205C79.1221 17.3311 79.4355 17.7236 79.6582 18.1982C79.8867 18.6729 80.001 19.2266 80.001 19.8594C80.001 20.3457 79.9336 20.7852 79.7988 21.1777C79.6641 21.5645 79.4766 21.9102 79.2363 22.2148C79.002 22.5195 78.7207 22.7803 78.3926 22.9971C78.0703 23.208 77.7158 23.3809 77.3291 23.5156C77.4932 23.7441 77.6953 24.0283 77.9355 24.3682C78.1758 24.7021 78.4307 25.0566 78.7002 25.4316C78.9756 25.8066 79.2539 26.1875 79.5352 26.5742C79.8164 26.9609 80.0771 27.3213 80.3174 27.6553C80.5635 27.9834 80.7773 28.2676 80.959 28.5078C81.1465 28.748 81.2812 28.9121 81.3633 29H78.2432L74.8506 23.8584H73.6289V25.1768ZM73.6289 21.9688H74.9912C75.3779 21.9688 75.7236 21.9336 76.0283 21.8633C76.3389 21.793 76.6025 21.6787 76.8193 21.5205C77.0361 21.3564 77.2031 21.1426 77.3203 20.8789C77.4375 20.6152 77.4961 20.29 77.4961 19.9033C77.4961 19.2412 77.2881 18.7695 76.8721 18.4883C76.4561 18.2012 75.8584 18.0576 75.0791 18.0576C74.9092 18.0576 74.7598 18.0605 74.6309 18.0664C74.502 18.0664 74.3818 18.0693 74.2705 18.0752C74.1592 18.0752 74.0537 18.0781 73.9541 18.084C73.8545 18.0898 73.7461 18.0957 73.6289 18.1016V21.9688ZM85.002 25.0449C85.0605 25.8066 85.2744 26.3574 85.6436 26.6973C86.0186 27.0312 86.5371 27.1982 87.1992 27.1982C87.7793 27.1982 88.3418 27.1338 88.8867 27.0049C89.4375 26.8701 89.9883 26.6387 90.5391 26.3105L90.7236 28.3408C90.4072 28.499 90.0967 28.6338 89.792 28.7451C89.4932 28.8564 89.1914 28.9473 88.8867 29.0176C88.5879 29.0879 88.2803 29.1377 87.9639 29.167C87.6475 29.2021 87.3193 29.2197 86.9795 29.2197C86.3994 29.2197 85.8428 29.123 85.3096 28.9297C84.7822 28.7305 84.3164 28.4404 83.9121 28.0596C83.5078 27.6729 83.1855 27.1953 82.9453 26.627C82.7109 26.0586 82.5938 25.3994 82.5938 24.6494C82.5938 23.9229 82.6934 23.2666 82.8926 22.6807C83.0977 22.0889 83.3906 21.585 83.7715 21.1689C84.1523 20.7471 84.6123 20.4248 85.1514 20.2021C85.6904 19.9736 86.2998 19.8594 86.9795 19.8594C87.4717 19.8594 87.9023 19.9209 88.2715 20.0439C88.6465 20.1611 88.9688 20.3252 89.2383 20.5361C89.5137 20.7412 89.7422 20.9873 89.9238 21.2744C90.1113 21.5557 90.2578 21.8633 90.3633 22.1973C90.4746 22.5254 90.5537 22.8711 90.6006 23.2344C90.6475 23.5977 90.6709 23.9609 90.6709 24.3242V24.4824C90.6709 24.5469 90.6709 24.6143 90.6709 24.6846C90.6768 24.7549 90.6797 24.8223 90.6797 24.8867V25.0449H85.002ZM86.8564 21.7051C86.3467 21.7051 85.9424 21.8428 85.6436 22.1182C85.3506 22.3877 85.1543 22.8359 85.0547 23.4629H88.4385C88.4385 22.8418 88.3037 22.3936 88.0342 22.1182C87.7705 21.8428 87.3779 21.7051 86.8564 21.7051ZM99.2754 22.6982C99.0762 22.5635 98.8857 22.4463 98.7041 22.3467C98.5283 22.2412 98.3496 22.1562 98.168 22.0918C97.9922 22.0215 97.8076 21.9688 97.6143 21.9336C97.4209 21.8984 97.21 21.8809 96.9814 21.8809C96.6768 21.8809 96.3926 21.9424 96.1289 22.0654C95.8652 22.1885 95.6338 22.3672 95.4346 22.6016C95.2412 22.8359 95.0889 23.123 94.9775 23.4629C94.8662 23.7969 94.8105 24.1777 94.8105 24.6055C94.8105 24.9922 94.8604 25.3467 94.96 25.6689C95.0654 25.9854 95.2119 26.2578 95.3994 26.4863C95.5869 26.709 95.8154 26.8848 96.085 27.0137C96.3545 27.1367 96.6533 27.1982 96.9814 27.1982C97.2451 27.1982 97.4883 27.1777 97.7109 27.1367C97.9336 27.0898 98.1445 27.0254 98.3438 26.9434C98.543 26.8613 98.7334 26.7617 98.915 26.6445C99.1025 26.5273 99.293 26.3926 99.4863 26.2402L99.75 28.3848C99.5273 28.5195 99.3018 28.6396 99.0732 28.7451C98.8447 28.8506 98.6045 28.9385 98.3525 29.0088C98.1006 29.0791 97.834 29.1318 97.5527 29.167C97.2715 29.2021 96.9668 29.2197 96.6387 29.2197C96.0469 29.2197 95.4902 29.1201 94.9688 28.9209C94.4473 28.7217 93.9932 28.4287 93.6064 28.042C93.2197 27.6553 92.9121 27.1807 92.6836 26.6182C92.4609 26.0557 92.3496 25.4141 92.3496 24.6934C92.3496 24.0078 92.458 23.3721 92.6748 22.7861C92.8916 22.1943 93.1992 21.6816 93.5977 21.248C93.9961 20.8145 94.4766 20.4746 95.0391 20.2285C95.6074 19.9824 96.2402 19.8594 96.9375 19.8594C97.5234 19.8594 98.042 19.9209 98.4932 20.0439C98.9502 20.167 99.3398 20.3135 99.6621 20.4834L99.2754 22.6982ZM106.737 29C106.427 29.8496 106.116 30.541 105.806 31.0742C105.501 31.6133 105.185 32.0352 104.856 32.3398C104.528 32.6445 104.186 32.8525 103.828 32.9639C103.471 33.0752 103.093 33.1309 102.694 33.1309C102.29 33.1309 101.895 33.0664 101.508 32.9375C101.127 32.8086 100.775 32.624 100.453 32.3838L101.068 30.4678C101.162 30.5439 101.271 30.6201 101.394 30.6963C101.522 30.7783 101.657 30.8486 101.798 30.9072C101.944 30.9717 102.094 31.0244 102.246 31.0654C102.398 31.1064 102.548 31.127 102.694 31.127C102.823 31.127 102.955 31.1035 103.09 31.0566C103.225 31.0098 103.362 30.916 103.503 30.7754C103.649 30.6348 103.799 30.4355 103.951 30.1777C104.109 29.9199 104.276 29.5801 104.452 29.1582L102.123 23.1553C101.965 22.751 101.774 22.3027 101.552 21.8105C101.335 21.3125 101.057 20.7207 100.717 20.0352H103.468L105.577 26.4248C105.653 26.1436 105.738 25.8389 105.832 25.5107C105.926 25.1768 106.022 24.834 106.122 24.4824C106.222 24.1309 106.321 23.7764 106.421 23.4189C106.521 23.0615 106.617 22.7188 106.711 22.3906C106.928 21.6172 107.147 20.832 107.37 20.0352H110.121C109.969 20.375 109.831 20.6914 109.708 20.9844C109.585 21.2715 109.471 21.5439 109.365 21.8018C109.26 22.0537 109.163 22.291 109.075 22.5137C108.993 22.7363 108.917 22.9502 108.847 23.1553L106.737 29ZM117.926 22.6982C117.727 22.5635 117.536 22.4463 117.354 22.3467C117.179 22.2412 117 22.1562 116.818 22.0918C116.643 22.0215 116.458 21.9688 116.265 21.9336C116.071 21.8984 115.86 21.8809 115.632 21.8809C115.327 21.8809 115.043 21.9424 114.779 22.0654C114.516 22.1885 114.284 22.3672 114.085 22.6016C113.892 22.8359 113.739 23.123 113.628 23.4629C113.517 23.7969 113.461 24.1777 113.461 24.6055C113.461 24.9922 113.511 25.3467 113.61 25.6689C113.716 25.9854 113.862 26.2578 114.05 26.4863C114.237 26.709 114.466 26.8848 114.735 27.0137C115.005 27.1367 115.304 27.1982 115.632 27.1982C115.896 27.1982 116.139 27.1777 116.361 27.1367C116.584 27.0898 116.795 27.0254 116.994 26.9434C117.193 26.8613 117.384 26.7617 117.565 26.6445C117.753 26.5273 117.943 26.3926 118.137 26.2402L118.4 28.3848C118.178 28.5195 117.952 28.6396 117.724 28.7451C117.495 28.8506 117.255 28.9385 117.003 29.0088C116.751 29.0791 116.484 29.1318 116.203 29.167C115.922 29.2021 115.617 29.2197 115.289 29.2197C114.697 29.2197 114.141 29.1201 113.619 28.9209C113.098 28.7217 112.644 28.4287 112.257 28.042C111.87 27.6553 111.562 27.1807 111.334 26.6182C111.111 26.0557 111 25.4141 111 24.6934C111 24.0078 111.108 23.3721 111.325 22.7861C111.542 22.1943 111.85 21.6816 112.248 21.248C112.646 20.8145 113.127 20.4746 113.689 20.2285C114.258 19.9824 114.891 19.8594 115.588 19.8594C116.174 19.8594 116.692 19.9209 117.144 20.0439C117.601 20.167 117.99 20.3135 118.312 20.4834L117.926 22.6982ZM123.234 24.8252C123.234 25.1064 123.237 25.4375 123.243 25.8184C123.255 26.1992 123.267 26.5859 123.278 26.9785C123.296 27.3711 123.313 27.7461 123.331 28.1035C123.354 28.4609 123.381 28.7598 123.41 29H120.773V19.0684C120.773 18.2129 120.759 17.4395 120.729 16.748C120.7 16.0508 120.656 15.4473 120.598 14.9375H123.234V24.8252ZM128.016 25.0449C128.074 25.8066 128.288 26.3574 128.657 26.6973C129.032 27.0312 129.551 27.1982 130.213 27.1982C130.793 27.1982 131.355 27.1338 131.9 27.0049C132.451 26.8701 133.002 26.6387 133.553 26.3105L133.737 28.3408C133.421 28.499 133.11 28.6338 132.806 28.7451C132.507 28.8564 132.205 28.9473 131.9 29.0176C131.602 29.0879 131.294 29.1377 130.978 29.167C130.661 29.2021 130.333 29.2197 129.993 29.2197C129.413 29.2197 128.856 29.123 128.323 28.9297C127.796 28.7305 127.33 28.4404 126.926 28.0596C126.521 27.6729 126.199 27.1953 125.959 26.627C125.725 26.0586 125.607 25.3994 125.607 24.6494C125.607 23.9229 125.707 23.2666 125.906 22.6807C126.111 22.0889 126.404 21.585 126.785 21.1689C127.166 20.7471 127.626 20.4248 128.165 20.2021C128.704 19.9736 129.313 19.8594 129.993 19.8594C130.485 19.8594 130.916 19.9209 131.285 20.0439C131.66 20.1611 131.982 20.3252 132.252 20.5361C132.527 20.7412 132.756 20.9873 132.938 21.2744C133.125 21.5557 133.271 21.8633 133.377 22.1973C133.488 22.5254 133.567 22.8711 133.614 23.2344C133.661 23.5977 133.685 23.9609 133.685 24.3242V24.4824C133.685 24.5469 133.685 24.6143 133.685 24.6846C133.69 24.7549 133.693 24.8223 133.693 24.8867V25.0449H128.016ZM129.87 21.7051C129.36 21.7051 128.956 21.8428 128.657 22.1182C128.364 22.3877 128.168 22.8359 128.068 23.4629H131.452C131.452 22.8418 131.317 22.3936 131.048 22.1182C130.784 21.8428 130.392 21.7051 129.87 21.7051ZM135.847 29V23.5947C135.847 22.7275 135.797 21.9951 135.697 21.3975C135.604 20.7939 135.507 20.3398 135.407 20.0352H137.824C137.859 20.1289 137.895 20.252 137.93 20.4043C137.965 20.5508 137.997 20.7061 138.026 20.8701C138.056 21.0342 138.082 21.1953 138.105 21.3535L138.176 21.749C138.387 21.4443 138.612 21.1748 138.853 20.9404C139.093 20.7061 139.333 20.5098 139.573 20.3516C139.819 20.1875 140.06 20.0645 140.294 19.9824C140.528 19.9004 140.745 19.8594 140.944 19.8594C141.354 19.8594 141.703 19.9473 141.99 20.123C142.283 20.2988 142.521 20.5391 142.702 20.8438C142.89 21.1426 143.024 21.4912 143.106 21.8896C143.188 22.2881 143.229 22.71 143.229 23.1553L141.27 23.4629C141.24 23.0645 141.144 22.7451 140.979 22.5049C140.815 22.2588 140.546 22.1357 140.171 22.1357C140.024 22.1357 139.857 22.2002 139.67 22.3291C139.488 22.458 139.31 22.625 139.134 22.8301C138.958 23.0352 138.794 23.2725 138.642 23.542C138.495 23.8057 138.384 24.0723 138.308 24.3418V29H135.847Z" fill="white"/>
<rect x="23" y="47" width="159" height="71" rx="10" fill="#6059F2"/>
<path d="M65.3601 103.476C65.3601 103.51 65.3514 103.538 65.2628 103.573C65.1392 103.584 65.035 103.564 65.0195 103.593C64.7781 104.039 64.3206 104.053 63.9118 104.177C63.7911 104.213 63.7045 104.356 63.5565 104.451H30.2684C30.0847 104.458 29.9009 104.446 29.7194 104.416C28.8707 103.992 28.4677 103.295 28.348 102.408C28.1816 101.184 28.056 99.953 27.8555 98.7333C27.6861 97.6761 27.7805 96.7591 28.823 96.172C28.895 96.1321 28.9067 95.9832 28.9846 95.88C29.4518 95.88 29.88 95.88 30.3375 95.9131C30.4878 95.9535 30.6423 95.9757 30.7979 95.9793C41.3748 95.9793 51.9485 95.9793 62.5189 95.9793C62.6873 95.9793 62.8557 95.916 63.0601 95.8878C63.6938 96.0494 64.2904 96.21 64.8881 96.3599C65.5859 96.5352 66.1602 97.1777 66.1145 97.8971C66.0531 98.8589 65.9101 99.8158 65.7777 100.772C65.6609 101.673 65.5032 102.574 65.3601 103.476Z" fill="#9ACB46"/>
<path d="M0.987837 120.984C2.02541 118.894 2.87806 116.737 3.37349 114.449C3.41204 114.243 3.46772 114.041 3.53993 113.845C3.80954 113.831 4.03243 113.872 4.2563 113.873C5.34936 113.881 6.44242 113.873 7.53645 113.915C7.69705 114.299 7.81969 114.668 8.02312 114.985C8.62155 115.953 9.12795 116.974 9.53568 118.036C9.66611 118.366 9.91918 118.65 10.1323 118.943C10.2375 119.089 10.4399 119.185 10.4964 119.341C10.9169 120.509 11.3247 121.684 11.7091 122.865C11.8912 123.424 12.0255 124 12.1608 124.572C12.3506 125.38 12.5657 126.185 12.6874 127.006C12.8042 127.785 13.174 128.417 13.6607 129.004C14.1688 129.621 14.8083 130.172 15.1655 130.864C15.7086 131.918 16.2585 133.041 16.4366 134.191C16.6469 135.541 16.5155 136.954 16.4298 138.333C16.3695 139.296 15.9801 140.191 15.5538 141.059C15.0202 142.123 14.2553 143.055 13.3152 143.785C12.9716 144.058 12.6494 144.358 12.2756 144.645C12.055 144.65 11.8343 144.641 11.6147 144.619C10.5596 144.314 9.65054 143.739 8.54775 143.613C7.41381 143.478 6.31589 143.434 5.20725 143.649C5.47103 143.296 5.72994 142.975 6.00052 142.663C6.31491 142.303 6.69159 141.982 6.94953 141.593C7.71494 140.419 8.19741 139.083 8.35892 137.691C8.54644 136.277 8.29571 134.841 7.6406 133.574C6.95926 132.253 6.02388 131.09 4.75952 130.217C4.32729 129.91 3.99378 129.484 3.79981 128.991C3.46498 128.069 3.29075 127.09 3.03768 126.138C3.00946 126.034 2.90531 125.951 2.77099 125.769C2.57632 126.182 2.4712 126.523 2.27945 126.81C2.04408 127.135 1.77562 127.433 1.4784 127.702C1.24383 127.077 1.03553 126.475 0.853516 125.852C1.11145 125.421 1.35089 125.014 1.57184 124.597C1.7558 124.248 1.91835 123.889 2.11691 123.558C2.36414 124.121 2.58411 124.661 2.80408 125.2H3.03184C3.31606 124.463 3.61585 123.732 3.88254 122.989C4.2271 122.031 4.60476 121.078 4.86172 120.094C5.11187 119.137 5.22769 118.147 5.40387 117.168C5.47687 116.76 5.2092 116.616 4.89384 116.54C4.30497 116.399 3.91174 116.747 3.84069 117.402C3.79891 117.898 3.71391 118.391 3.58665 118.873C3.22359 120.113 2.82063 121.342 2.41864 122.572C2.33185 122.804 2.21292 123.023 2.06532 123.222C1.73731 122.437 1.07544 121.847 0.987837 120.984Z" fill="#4A575D"/>
<path d="M69.2329 113.805C70.4418 115.692 71.6507 117.58 72.8343 119.505C72.8068 119.536 72.7761 119.563 72.7428 119.587L72.882 119.617C72.882 119.617 72.8713 119.622 72.8761 119.642C72.8992 119.675 72.9259 119.706 72.9559 119.733C72.9682 119.759 72.9729 119.787 72.9696 119.815C72.9962 119.887 73.0372 119.954 73.0903 120.01C73.1328 120.058 73.1566 120.12 73.1574 120.185C73.3745 120.988 73.6207 121.742 73.8719 122.497C73.9108 122.614 73.9964 122.718 74.0198 122.836C74.1687 123.571 74.3118 124.306 74.4432 125.044C74.5405 125.61 74.6749 126.18 74.6943 126.75C74.7323 127.859 75.1245 128.794 75.9178 129.552C76.7111 130.309 77.5102 131.066 77.9277 132.108C78.248 132.907 78.6178 133.711 78.7629 134.548C78.9079 135.384 78.7755 136.245 78.7989 137.095C78.8388 138.501 78.2207 139.71 77.5336 140.833C77.0255 141.666 76.2371 142.338 75.5256 143.031C74.8957 143.643 74.112 144.073 73.2577 144.275C72.734 144.402 72.2006 144.507 71.6925 144.683C70.9714 144.946 70.1775 144.925 69.4714 144.624C70.7961 144.001 71.7821 143.031 72.5403 141.847C73.1185 140.941 73.5906 139.969 73.7405 138.878C73.8602 138.007 74.0782 137.141 74.0967 136.27C74.102 135.45 74.0065 134.632 73.8125 133.836C73.4046 132.074 72.6386 130.489 71.3042 129.213C70.9742 128.896 70.6053 128.531 70.47 128.12C70.1586 127.167 69.9736 126.173 69.7468 125.192C69.559 124.381 69.4383 123.548 69.192 122.759C68.8533 121.67 68.4328 120.607 68.024 119.541C67.9715 119.404 67.7827 119.319 67.6551 119.21C67.589 119.154 67.4887 119.113 67.4605 119.041C67.0799 118.201 66.7276 117.347 66.3285 116.516C66.0793 115.996 65.763 115.509 65.4758 115.007C65.3346 115.793 65.2372 116.586 65.1838 117.383C65.0865 118.539 64.9746 119.693 64.8743 120.849C64.8003 121.7 64.739 122.551 64.667 123.402C64.5434 124.846 64.412 126.29 64.2903 127.733C64.2144 128.633 64.157 129.533 64.0781 130.433C63.9594 131.796 63.826 133.158 63.7073 134.521C63.6255 135.447 63.5632 136.371 63.4834 137.3C63.4007 138.261 63.3014 139.222 63.2206 140.184C63.1457 141.068 63.0873 141.952 63.0162 142.836C62.9961 142.913 62.972 142.99 62.9442 143.065C62.9189 143.2 62.9062 143.337 62.8877 143.473C63.0349 143.502 63.1839 143.52 63.3335 143.528C64.0781 143.528 64.8325 143.431 65.5634 143.528C66.8492 143.691 68.0474 144.203 69.2281 144.687C68.8631 144.824 68.5234 144.934 68.1837 145.043C66.0063 145.048 63.8299 145.052 61.6127 145.014C61.9963 144.587 62.4018 144.179 62.8274 143.793L62.7301 143.607L60.1021 144.483C60.2734 144.108 60.4739 143.845 60.507 143.563C60.6315 142.492 60.6909 141.421 60.799 140.35C60.8243 140.115 60.9683 139.893 61.0403 139.659C61.0993 139.504 61.13 139.339 61.1309 139.173C61.1104 138.815 61.0092 138.459 61.018 138.102C61.0413 137.12 61.1046 136.139 61.1464 135.118C61.2438 133.708 61.3479 132.338 61.4628 130.969C61.6088 129.229 61.7723 127.492 61.9173 125.753C62.0166 124.435 62.1139 123.111 62.2249 121.755C62.2268 121.683 62.2363 121.612 62.2531 121.542C62.4254 119.743 62.5656 117.975 62.7271 116.209C62.8021 115.394 62.9218 114.583 63.0552 113.785C63.8796 113.798 64.668 113.797 65.4953 113.801C65.8954 113.812 66.2545 113.819 66.6575 113.842C67.5442 113.84 68.389 113.824 69.2329 113.805Z" fill="#3D4B4F"/>
<path d="M28.9547 95.8829C28.9158 95.9803 28.9041 96.1302 28.8321 96.175C27.7896 96.7591 27.6952 97.679 27.8646 98.7362C28.0592 99.956 28.1906 101.186 28.3571 102.411C28.4768 103.298 28.8798 103.995 29.6828 104.419C22.7945 104.454 15.946 104.456 9.06942 104.456L8.92926 104.451C8.92926 104.451 8.91271 104.451 8.90493 104.412C8.65186 104.235 8.3803 104.132 8.16909 103.957C7.84399 103.688 7.37971 103.412 7.29308 103.062C7.05948 102.089 7.00108 101.08 6.85508 100.087C6.77916 99.5568 6.63608 99.0331 6.60007 98.5016C6.56211 97.9457 6.37425 97.3441 6.9894 96.908C7.2814 96.7007 7.49067 96.3726 7.7379 96.099C7.86481 96.0547 7.99775 96.0301 8.1321 96.026C8.82122 96.0426 9.45584 96.2772 10.1148 95.9832C16.1709 95.9832 22.1842 95.9832 28.1906 95.9832C28.4472 95.9657 28.7023 95.9322 28.9547 95.8829Z" fill="#AED24D"/>
<path d="M-15.3639 144.98C-14.5191 144.986 -13.7024 145.019 -12.7963 145.051C-9.9142 145.051 -7.1217 145.043 -4.28442 145.046C-2.71248 145.046 -1.18532 145.039 0.387592 145.041C1.09521 145.051 1.75708 145.054 2.41992 145.053C5.16765 145.053 7.91441 145.043 10.7069 145.046C12.3441 145.034 13.9355 145.015 15.5658 145.004C15.8374 144.982 16.071 144.954 16.324 144.959C16.6083 145.04 16.872 145.131 17.1358 145.131C30.4446 145.139 43.7524 145.141 57.0592 145.137C57.43 145.137 57.8018 145.095 58.1727 145.073C58.4034 145.449 58.7294 145.788 58.5532 146.297C58.4063 146.721 58.1561 146.994 57.6772 146.998C57.3366 146.998 56.9959 146.998 56.6552 146.998C29.8625 146.998 3.06914 146.998 -23.7249 146.998C-23.9789 146.998 -24.2554 146.998 -24.4841 146.91C-24.9221 146.728 -25.0769 146.344 -24.9649 145.754C-24.8832 145.326 -24.5697 145.103 -24.1493 145.041C-24.0039 145.028 -23.8579 145.025 -23.7122 145.034C-21.1167 145.034 -18.5211 145.034 -15.9255 145.034C-15.7371 145.033 -15.5491 145.016 -15.3639 144.98Z" fill="#C9C5BF"/>
<path d="M75.1987 119.639C75.2763 119.251 75.3767 118.867 75.4994 118.491C76.6674 118.464 77.779 118.471 78.8944 118.513C79.6439 120.088 80.3904 121.628 81.1389 123.173L81.3648 123.091C81.4563 123.338 81.5458 123.559 81.6198 123.785C81.9235 124.709 82.2388 125.628 82.5162 126.561C82.7294 127.277 82.9124 128.004 83.0691 128.734C83.2375 129.513 83.3075 130.333 83.8039 130.996C84.1797 131.499 84.6858 131.915 85.0041 132.447C85.519 133.306 86.0747 134.189 86.3395 135.138C86.5965 136.048 86.5244 137.052 86.5741 138.016C86.6403 139.298 86.3035 140.512 85.7214 141.624C85.0839 142.842 84.2857 143.96 82.9562 144.555C82.8832 144.587 82.8384 144.683 82.7401 144.75C82.589 144.757 82.4376 144.745 82.2894 144.715C81.329 144.185 80.2722 143.854 79.1816 143.741C79.2273 143.627 79.2526 143.516 79.3208 143.475C80.1616 142.967 80.883 142.283 81.4358 141.471C82.304 140.205 83.0778 138.893 83.0759 137.285C83.0815 137.188 83.0939 137.093 83.1129 136.998C83.3182 135.572 83.0593 134.215 82.4714 132.917C82.2437 132.423 81.9886 131.943 81.7074 131.477C81.2207 130.666 80.6192 129.966 79.8133 129.449C78.9022 128.865 78.2413 128.087 78.0097 127.002C77.9192 126.582 77.9007 126.142 77.777 125.737C77.5279 124.916 77.2291 124.11 76.9234 123.22C76.8164 123.364 76.7025 123.459 76.6655 123.577C76.4553 124.246 76.2839 124.928 76.0552 125.59C75.9579 125.868 75.9073 126.241 75.4829 126.226C75.4449 126.017 75.4089 125.846 75.369 125.676C75.2464 125.159 75.1208 124.642 75.0332 124.119C75.3038 123.924 75.0838 123.498 75.5501 123.387C76.3151 123.205 76.4261 122.582 75.8761 122.013C75.8238 121.952 75.7857 121.881 75.7645 121.804C75.7433 121.727 75.7395 121.646 75.7535 121.567C76.0328 120.689 75.8674 120.313 75.1987 119.639Z" fill="#4A575D"/>
<path d="M-3.16439 144.654C-2.28175 144.158 -1.5246 143.465 -0.951016 142.63C-0.376747 141.765 0.174161 140.791 0.371749 139.792C0.729938 137.979 0.785418 136.114 -0.0175858 134.354C-0.321267 133.691 -0.601589 133.008 -0.997737 132.407C-1.32673 131.903 -1.89321 131.549 -2.19494 131.035C-2.51809 130.486 -2.68745 129.837 -2.8607 129.213C-3.02325 128.629 -3.06413 128.008 -3.22668 127.422C-3.50408 126.422 -3.82041 125.433 -4.1494 124.45C-4.32934 123.911 -4.56794 123.393 -4.86091 122.907C-5.03222 122.675 -5.23954 122.462 -5.36899 122.21C-5.953 121.073 -6.50391 119.921 -7.08401 118.784C-7.13755 118.68 -7.30788 118.635 -7.3877 118.522C-6.80369 118.469 -6.25181 118.454 -5.6571 118.45C-4.93294 118.436 -4.2555 118.41 -3.57708 118.385C-2.53269 120.007 -1.48733 121.629 -0.433201 123.319C-0.26676 123.695 -0.108106 124.001 0.028161 124.326C0.0241456 124.387 0.0317392 124.449 0.0505462 124.507C0.0494356 124.52 0.0494356 124.534 0.0505462 124.547C0.0559039 124.657 0.069242 124.766 0.0904531 124.873C0.489522 126.431 1.01026 127.952 1.05309 129.59C1.06574 130.076 1.29739 130.592 1.56117 131.014C1.88042 131.523 2.33984 131.947 2.73891 132.404C3.4544 133.228 4.00314 134.182 4.35464 135.215C4.69531 136.177 4.67877 137.162 4.68558 138.126C4.69337 139.165 4.29625 140.186 3.78232 141.077C2.90333 142.612 1.53127 143.805 -0.111027 144.462C-0.475055 144.612 -0.853683 144.781 -1.23718 144.817C-1.84551 144.873 -2.46261 144.828 -3.07581 144.817C-3.09917 144.808 -3.13324 144.708 -3.16439 144.654Z" fill="#3D4A4F"/>
<path d="M82.7797 144.75C82.8381 144.683 82.8829 144.587 82.9559 144.555C84.2855 143.962 85.0836 142.842 85.7212 141.624C86.3052 140.512 86.64 139.298 86.5738 138.016C86.5242 137.052 86.5962 136.048 86.3393 135.138C86.0706 134.189 85.5187 133.306 85.0038 132.447C84.6856 131.915 84.1794 131.499 83.8037 130.996C83.3073 130.333 83.2372 129.516 83.0688 128.734C82.9121 128.004 82.7291 127.274 82.516 126.561C82.2386 125.629 81.9232 124.712 81.6195 123.785C81.5456 123.559 81.456 123.338 81.3645 123.091L81.1387 123.173C80.3902 121.629 79.6437 120.088 78.939 118.508C79.419 118.461 79.9012 118.441 80.3834 118.446C81.1105 118.431 81.7918 118.403 82.4732 118.377C83.6159 120.198 84.7586 122.021 85.8798 123.894C85.8518 123.971 85.8193 124.046 85.7825 124.119C85.7825 124.119 85.7825 124.119 85.8214 124.133C85.7786 124.487 85.8896 124.651 86.2487 124.583C86.286 124.636 86.303 124.701 86.2964 124.766C86.0579 125.416 86.4473 125.921 86.5407 126.473C86.7042 127.446 86.8921 128.412 87.0605 129.382C87.1783 130.064 87.189 130.771 87.6902 131.323C88.1915 131.875 88.7492 132.412 89.2067 133.01C89.9417 133.946 90.4153 135.061 90.5791 136.239C90.8565 138.317 90.5402 140.222 89.1756 141.908C88.3794 142.892 87.4897 143.728 86.3285 144.233C85.8356 144.461 85.3135 144.621 84.777 144.708C84.122 144.793 83.4475 144.742 82.7797 144.75Z" fill="#3D4A4F"/>
<path d="M86.2836 144.944C86.57 144.989 86.8585 145.019 87.1479 145.035C88.6721 145.044 90.1964 145.035 91.7226 145.035C93.7341 145.035 95.7457 145.035 97.7573 145.035C98.4931 145.035 98.8552 145.364 98.8532 146.018C98.8513 146.672 98.496 146.992 97.7524 146.992C89.6289 146.992 81.5058 146.992 73.383 146.992C72.8866 146.992 72.4262 146.949 72.2325 146.4C72.0485 145.879 72.214 145.454 72.6929 145.08C73.3022 145.034 73.8609 145.029 74.4507 145.033C74.5607 145.033 74.6347 145.033 74.7525 145.033C75.2868 145.033 75.7745 145.027 76.3098 145.033C78.0122 145.039 79.6698 145.033 81.3711 145.039C83.0404 145.015 84.66 144.975 86.2836 144.944Z" fill="#C9C5BF"/>
<path d="M76.2585 145.029C75.7719 145.035 75.2852 145.041 74.747 145.005C74.6496 144.899 74.5971 144.833 74.5455 144.768C74.4997 144.857 74.4549 144.946 74.4102 145.035C73.8534 145.035 73.2976 145.044 72.6961 145.058C71.1913 145.058 69.7313 145.058 68.2266 145.047C68.5186 144.929 68.8612 144.819 69.2593 144.682C69.3199 144.664 69.3828 144.654 69.4462 144.654C70.1645 144.932 70.9586 144.944 71.6848 144.687C72.1929 144.511 72.7263 144.406 73.25 144.278C74.1043 144.076 74.888 143.647 75.5178 143.035C76.2293 142.342 77.0177 141.672 77.5258 140.837C78.213 139.714 78.8311 138.501 78.7912 137.099C78.7678 136.249 78.8982 135.378 78.7551 134.551C78.6121 133.725 78.2403 132.911 77.92 132.112C77.5025 131.07 76.7014 130.315 75.9101 129.556C75.1188 128.796 74.7246 127.863 74.6866 126.754C74.6671 126.183 74.5357 125.614 74.4355 125.048C74.306 124.309 74.161 123.574 74.0121 122.839C73.9887 122.722 73.9031 122.618 73.8641 122.501C73.613 121.747 73.3668 120.992 73.1487 120.219C73.4952 120.833 73.8116 121.465 74.1162 122.141C74.1188 122.16 74.1257 122.178 74.1365 122.194C74.1474 122.21 74.1617 122.223 74.1785 122.233C74.1986 122.253 74.2107 122.28 74.2126 122.308C74.3995 122.765 74.5825 123.169 74.7635 123.573C74.8423 123.752 74.9163 123.932 74.9932 124.111C75.1168 124.628 75.2424 125.145 75.365 125.662C75.4049 125.831 75.4409 126.002 75.4828 126.246C75.512 126.4 75.5509 126.475 75.5616 126.554C75.6205 127.069 75.7902 127.565 76.059 128.008C76.3279 128.451 76.6895 128.831 77.119 129.12C77.5068 129.383 77.8692 129.681 78.2013 130.011C79.0743 130.89 79.7539 131.943 80.1967 133.1C80.5957 134.126 80.7981 135.219 80.7933 136.32C80.7828 137.301 80.6142 138.274 80.294 139.201C79.6623 141.004 78.5177 142.474 76.9029 143.59C76.4444 143.871 76.0171 144.137 75.5889 144.404L75.6239 144.518L76.5136 144.584L76.2585 145.029Z" fill="#334148"/>
<path d="M3.38603 111.638C3.05899 110.486 2.72611 109.336 2.40588 108.184C2.06132 106.949 2.7485 106.186 4.02162 106.381C4.24528 106.426 4.47688 106.409 4.69191 106.333C4.90694 106.257 5.0974 106.124 5.24316 105.949C5.43783 105.729 5.61498 105.5 5.8038 105.279C6.59415 104.348 7.52077 104.438 8.16998 105.461C8.39191 105.812 8.74523 106.081 9.07324 106.412C9.08677 106.424 9.09719 106.439 9.10363 106.456C9.11006 106.473 9.11233 106.491 9.11023 106.509C9.61052 106.813 9.79935 107.276 9.86359 107.796C9.93493 108.274 9.9691 108.756 9.96579 109.239C9.93757 110.041 9.84802 110.841 9.7429 111.646C9.5638 111.655 9.42559 111.662 9.2426 111.665C7.90037 111.652 6.60291 111.644 5.30545 111.598C5.32005 111.403 5.37943 111.235 5.34147 111.092C5.1322 110.302 4.86453 109.526 4.68641 108.73C4.59394 108.315 4.44113 107.847 4.83728 107.457C4.90736 107.389 4.90249 107.212 4.88011 107.095C4.87037 107.045 4.72924 106.99 4.6465 106.987C4.08391 106.967 3.3325 107.81 3.4785 108.35C3.77537 109.434 4.11701 110.506 4.40317 111.597C4.03914 111.616 3.71405 111.627 3.38603 111.638Z" fill="#4A575D"/>
<path d="M28.9939 95.878C28.7284 95.9264 28.4603 95.9589 28.1909 95.9753C22.1815 95.9812 16.1712 95.9753 10.116 95.9393C10.0485 95.7232 9.99778 95.5022 9.9642 95.2783C9.96117 95.1948 9.97889 95.1119 10.0158 95.0369C10.1978 94.776 10.3302 94.5502 10.5083 94.3253H29.6694C29.6979 94.3205 29.7272 94.3216 29.7553 94.3285C29.7834 94.3354 29.8098 94.3478 29.8329 94.3652C29.8703 94.5819 29.9207 94.7961 29.9838 95.0067C30.0811 95.2988 30.2057 95.5908 30.3186 95.8828C29.8894 95.879 29.4611 95.876 28.9939 95.878Z" fill="#93C844"/>
<path d="M75.3689 116.627C75.0701 115.587 74.7577 114.55 74.4774 113.506C74.235 112.604 74.8667 111.907 75.7894 112.074C76.3355 112.171 76.7336 112.009 77.0548 111.575C77.1996 111.381 77.3549 111.194 77.52 111.017C78.0894 110.403 78.9284 110.488 79.3518 111.211C79.6 111.638 79.8307 112.064 80.4225 112.196C80.622 112.867 80.8644 113.489 80.9092 114.125C80.9666 114.922 80.8615 115.732 80.7943 116.548C80.624 116.579 80.4848 116.599 80.3008 116.615C78.6267 116.618 76.9983 116.622 75.3689 116.627Z" fill="#4D5A5F"/>
<path d="M86.32 144.932C84.6654 144.979 83.036 145.015 81.3755 145.007C81.6749 144.896 81.9829 144.81 82.2963 144.75H82.7401C83.4477 144.742 84.1222 144.793 84.7792 144.708C85.3157 144.621 85.8378 144.461 86.3308 144.233C87.4919 143.728 88.3816 142.892 89.1778 141.908C90.5404 140.222 90.8587 138.317 90.5813 136.24C90.4175 135.061 89.9439 133.946 89.2089 133.01C88.7514 132.412 88.2005 131.884 87.6924 131.323C87.1844 130.763 87.1805 130.058 87.0627 129.382C86.8943 128.409 86.7065 127.444 86.5429 126.473C86.4456 125.921 86.0563 125.416 86.3015 124.792C87.0678 126.22 87.6095 127.757 87.9076 129.349C88.0847 130.298 88.5947 130.983 89.3452 131.57C91.7006 133.413 92.7421 135.853 92.2399 138.804C91.7201 141.852 89.8698 143.836 86.9186 144.777C86.7395 144.835 86.5449 144.872 86.32 144.932Z" fill="#334148"/>
<path d="M63.9861 104.705C64.7404 104.55 65.1833 104.741 65.5745 105.392C65.6582 105.531 65.7303 105.676 65.8159 105.812C66.1907 106.409 66.7445 106.603 67.4054 106.359C67.6974 106.253 67.9651 106.102 68.2541 106.001C69.2596 105.649 70.2008 106.462 69.9808 107.503C69.6888 108.866 69.3657 110.215 69.0075 111.612C68.4105 111.647 67.8118 111.641 67.2156 111.594C67.4472 110.084 67.5076 108.62 67.1183 107.161C67.0287 106.822 66.8078 106.666 66.5002 106.587C66.4029 106.561 66.2929 106.553 66.1439 106.531C65.9765 108.257 65.812 109.948 65.6514 111.644C65.6514 111.649 65.6602 111.663 65.6145 111.658C64.8173 111.645 64.0659 111.636 63.3154 111.584C63.3524 110.948 63.3816 110.352 63.4254 109.757C63.5471 108.121 63.6736 106.486 63.8147 104.835C63.8839 104.781 63.9354 104.743 63.9861 104.705Z" fill="#3D4B4F"/>
<path d="M65.3909 103.463C65.5029 102.574 65.6606 101.673 65.7861 100.768C65.9185 99.8118 66.0616 98.8549 66.1229 97.8931C66.1686 97.1737 65.5944 96.5302 64.8965 96.356C64.2989 96.2061 63.7022 96.0454 63.0627 95.8478C62.8262 95.3124 62.6315 94.8179 62.4369 94.2903C62.1838 93.5358 61.9414 92.8154 61.6709 92.1048C61.5735 91.8429 61.3711 91.6181 61.2815 91.3552C61.0869 90.8013 60.9593 90.225 60.7569 89.675C60.5934 89.2321 60.3257 88.8281 60.1641 88.3842C59.8984 87.654 59.693 86.9015 59.439 86.1666C59.1986 85.4705 58.9309 84.7842 58.6681 84.096C58.6126 83.9509 58.5095 83.8234 58.4559 83.6774C58.0997 82.7127 57.8213 81.7109 57.3853 80.7861C56.8412 79.6413 55.7306 79.0514 54.6716 78.4878C54.2433 78.26 53.6885 78.184 53.1911 78.1831C42.7096 78.1649 32.2148 78.1597 21.7066 78.1675C21.0496 78.1675 20.4315 78.1081 19.83 78.1821C19.2285 78.2561 18.6386 78.4478 18.0517 78.6143C17.7539 78.698 17.4726 78.8372 17.1757 78.9433L17.1572 78.92C17.9962 78.1636 19.0358 78.0292 20.0948 78.0137C21.7494 77.9893 23.4041 78.0049 25.0588 78.0049H52.7765C54.7232 78.0049 56.3428 78.7379 57.394 80.3841C57.941 81.2398 58.2544 82.2542 58.6175 83.2179C59.8303 86.443 61.0187 89.6769 62.2188 92.9079C62.5274 93.7393 62.8466 94.5677 63.1445 95.4039C63.2769 95.7748 63.4861 95.9296 63.9008 95.9072C64.8274 95.8566 65.6645 96.1019 66.0859 97.0102C66.2622 97.4073 66.3332 97.8431 66.2923 98.2757C66.1589 99.5948 65.9642 100.909 65.7628 102.22C65.6966 102.636 65.5379 103.04 65.3909 103.463Z" fill="#A4C968"/>
<path d="M3.36963 111.669C3.71322 111.627 4.03929 111.616 4.4403 111.598C4.77805 111.605 5.0428 111.619 5.30657 111.634C6.60305 111.644 7.90051 111.652 9.24859 111.698C9.33229 111.79 9.3576 111.851 9.39848 111.893C9.93868 112.513 9.94063 112.895 9.41211 113.534C9.35371 113.604 9.33327 113.704 9.25443 113.795C8.65485 113.823 8.09713 113.848 7.53843 113.873C6.44538 113.873 5.35232 113.873 4.25926 113.868C4.03539 113.868 3.8125 113.826 3.55359 113.8C2.60069 113.26 2.54619 112.581 3.36963 111.669Z" fill="#8DA0A9"/>
<path d="M75.3516 116.647C77.0063 116.62 78.6308 116.616 80.3098 116.647C80.7964 117.241 80.8665 117.67 80.5774 118.083C80.4976 118.198 80.4207 118.316 80.3429 118.433C79.8893 118.442 79.4367 118.452 78.9393 118.469C77.783 118.469 76.6714 118.46 75.5132 118.451C74.6518 117.86 74.607 117.276 75.3516 116.647Z" fill="#8DA0A9"/>
<path d="M58.2075 145.073C57.7987 145.097 57.4288 145.139 57.056 145.139C43.7486 145.139 30.4408 145.137 17.1327 145.133C16.8612 145.119 16.5949 145.053 16.3481 144.938C17.304 144.652 18.2393 144.39 19.0316 143.782C19.0316 143.782 19.0316 143.782 19.0638 143.782C19.1723 143.739 19.2858 143.711 19.4015 143.697C19.2635 143.873 19.0994 144.026 18.9148 144.152C18.5742 144.347 18.2121 144.511 17.8597 144.687C18.136 144.84 18.4439 144.926 18.7591 144.938C23.7484 144.946 28.7378 144.938 33.7719 144.944C41.579 144.944 49.3394 144.954 57.1008 144.937C57.6939 144.943 58.2833 144.844 58.8421 144.645C59.2752 144.482 59.6208 144.081 60.0101 143.818C60.0173 143.862 60.0202 143.907 60.0189 143.951C59.7181 144.657 59.0261 144.755 58.4693 145.049C58.3924 145.053 58.3184 145.061 58.2075 145.073Z" fill="#B1C877"/>
<path d="M80.8279 116.538C80.8619 115.734 80.9671 114.924 80.9096 114.127C80.8649 113.491 80.6225 112.869 80.458 112.209C80.8162 112.057 81.188 111.952 81.5491 111.815C81.993 111.647 82.4086 111.651 82.7804 111.968C83.1522 112.284 83.234 112.693 83.1259 113.158C82.866 114.279 82.6139 115.397 82.3073 116.566C81.7808 116.585 81.3038 116.562 80.8279 116.538Z" fill="#3D4B4F"/>
<path d="M67.213 111.634C67.797 111.641 68.3713 111.646 68.9952 111.649C69.7164 112.277 69.8537 112.693 69.5558 113.263C69.4692 113.43 69.3446 113.576 69.2346 113.768C68.3888 113.822 67.5439 113.84 66.667 113.815C67.3065 113.113 67.4057 112.525 66.9337 111.987C66.8321 111.887 66.7405 111.778 66.6602 111.66C66.8723 111.647 67.0427 111.641 67.213 111.634Z" fill="#758A90"/>
<path d="M75.0339 124.106C74.9307 123.937 74.8418 123.759 74.7682 123.576C74.5872 123.17 74.4042 122.765 74.2183 122.326C74.3759 121.936 74.5609 121.586 74.6923 121.218C74.8704 120.719 75.0086 120.206 75.1789 119.669C75.8603 120.313 76.0345 120.689 75.7513 121.555C75.7373 121.633 75.7411 121.714 75.7623 121.791C75.7835 121.868 75.8216 121.94 75.8739 122C76.4238 122.57 76.3129 123.192 75.5478 123.374C75.0845 123.485 75.3045 123.913 75.0339 124.106Z" fill="#435056"/>
<path d="M10.4624 94.3233C10.3301 94.5491 10.1977 94.775 10.0312 95.0047C10.4391 93.8142 10.88 92.6187 11.32 91.4233C11.904 89.8482 12.4734 88.2692 13.0622 86.697C13.7854 84.7647 14.4833 82.8216 15.2717 80.9165C15.6221 80.0696 16.1934 79.3268 17.121 78.9267C17.1551 78.9199 17.1678 78.9355 17.158 78.9725C16.866 79.2889 16.6168 79.6023 16.3054 79.8379C15.6717 80.3169 15.4294 81.0324 15.1432 81.707C14.8064 82.4975 14.5709 83.3308 14.2672 84.1339C13.7942 85.3721 13.2783 86.5939 12.8179 87.8331C12.5103 88.6625 12.2787 89.5201 11.9945 90.3641C11.8251 90.8635 11.6168 91.3503 11.4338 91.8458C11.3715 92.0132 11.3316 92.1904 11.2839 92.3637C11.2689 92.4507 11.2478 92.5366 11.2207 92.6207C10.9705 93.1863 10.7155 93.7558 10.4624 94.3233Z" fill="#A4C968"/>
<path d="M58.5132 145.048C59.0261 144.756 59.7182 144.658 60.0491 143.928C60.163 143.703 60.2905 143.539 60.3119 143.355C60.4199 142.46 60.4988 141.562 60.5922 140.663C60.5922 140.663 60.5922 140.652 60.6117 140.631C60.6157 140.514 60.6105 140.396 60.5961 140.279C60.5929 140.264 60.5953 140.247 60.6029 140.233C60.7003 139.364 60.7927 138.532 60.8803 137.702C60.9699 136.853 61.0591 136.006 61.148 135.16C61.1013 136.14 61.038 137.121 61.0147 138.103C61.0059 138.458 61.112 138.814 61.1276 139.174C61.1267 139.34 61.096 139.505 61.037 139.66C60.965 139.894 60.821 140.116 60.7957 140.351C60.6857 141.422 60.6263 142.499 60.5037 143.564C60.4706 143.846 60.2701 144.109 60.0987 144.484L62.7268 143.608L62.8241 143.794C62.4056 144.183 61.987 144.579 61.5646 145.006C60.5572 145.038 59.5566 145.044 58.5132 145.048Z" fill="#334148"/>
<path d="M80.794 116.55C81.303 116.562 81.7799 116.585 82.2939 116.603C83.0501 117.285 83.0852 117.624 82.4885 118.346C81.7897 118.403 81.1083 118.431 80.3813 118.443C80.4249 118.313 80.4907 118.192 80.5759 118.084C80.8679 117.671 80.7988 117.242 80.353 116.652C80.4962 116.603 80.6439 116.569 80.794 116.55Z" fill="#758A90"/>
<path d="M63.9576 104.688C63.9353 104.743 63.8837 104.785 63.7815 104.854C63.6364 105.819 63.5352 106.75 63.4544 107.677C63.3396 108.997 63.2393 110.318 63.1284 111.683C63.0884 112.409 63.0534 113.087 63.0184 113.766C62.921 114.579 62.8023 115.39 62.7264 116.204C62.5648 117.97 62.4246 119.738 62.2261 121.508C62.1619 121.257 62.1363 120.998 62.1501 120.739C62.2397 119.519 62.3448 118.305 62.4422 117.083C62.5044 116.33 62.5667 115.577 62.6368 114.825C62.7585 113.584 62.8967 112.344 63.0135 111.103C63.1517 109.631 63.2744 108.158 63.4028 106.639C63.469 105.877 63.5342 105.159 63.5975 104.443C63.7007 104.345 63.7873 104.205 63.908 104.169C64.3168 104.045 64.7743 104.03 65.0157 103.585C65.0312 103.556 65.1354 103.576 65.2395 103.579C64.9903 104.163 64.4054 104.31 63.8768 104.533C63.8672 104.543 63.8601 104.555 63.8564 104.568C63.8526 104.582 63.8523 104.596 63.8554 104.609C63.871 104.637 63.9051 104.652 63.9576 104.688Z" fill="#A4C968"/>
<path d="M9.10732 106.474C9.10732 106.474 9.10732 106.436 9.10732 106.418C9.04795 105.775 8.98857 105.152 8.9292 104.486C8.96716 104.447 9.00415 104.448 9.07033 104.492C9.16767 105.01 9.23677 105.485 9.29226 105.962C9.32048 106.205 9.39446 106.325 9.66407 106.223C10.069 106.07 10.4768 105.923 10.8885 105.791C11.1764 105.688 11.4914 105.69 11.7779 105.797C12.0644 105.904 12.3038 106.108 12.4537 106.375C12.5325 106.502 12.6804 106.587 12.7972 106.736C12.8371 107.255 12.6863 107.676 12.5354 108.126C12.2639 108.938 12.1383 109.799 11.9514 110.64C11.8395 111.144 11.7344 111.598 12.2084 112.055C12.4167 112.256 12.3729 112.774 12.3515 113.143C12.33 113.512 12.1938 113.845 12.0799 114.18C11.9718 114.058 11.8798 113.922 11.8064 113.776C11.8813 113.28 12.3038 112.876 12.0322 112.37C11.9008 112.123 11.7402 111.889 11.6049 111.607C11.9076 110.223 12.2055 108.882 12.5013 107.536C12.6152 107.023 12.5198 106.563 12.0935 106.229C11.6468 105.876 11.1737 105.867 10.6335 106.075C10.1488 106.263 9.61832 106.345 9.10732 106.474Z" fill="#A4C968"/>
<path d="M7.70404 96.0912C7.49185 96.3677 7.28356 96.6957 6.99058 96.9031C6.37835 97.3392 6.56621 97.9408 6.60125 98.4967C6.63726 99.0282 6.78034 99.5519 6.85626 100.082C6.99837 101.075 7.06066 102.087 7.29426 103.057C7.37797 103.407 7.84225 103.683 8.17027 103.952C8.38148 104.127 8.65693 104.23 8.90319 104.399C7.96294 104.374 7.2018 103.788 7.05385 102.88C6.79591 101.29 6.56718 99.6911 6.39879 98.0888C6.29562 97.1211 6.78715 96.4416 7.70404 96.0912Z" fill="#A4C968"/>
<path d="M9.93214 95.2949C9.99897 95.504 10.0449 95.7192 10.0694 95.9374C9.4552 96.2723 8.82059 96.0348 8.1665 96.028C8.39718 95.9725 8.66193 95.8985 8.91792 95.9209C9.4153 95.9637 9.78516 95.8586 9.93214 95.2949Z" fill="#A4C968"/>
<path d="M85.7983 124.113C85.8187 124.048 85.8471 123.986 85.883 123.928C86.0211 124.125 86.1422 124.334 86.2451 124.552C85.8918 124.649 85.7808 124.487 85.8236 124.133L85.7983 124.113Z" fill="#334148"/>
<path d="M73.0811 119.979C73.0255 119.945 72.983 119.893 72.9604 119.831C72.9994 119.846 73.0383 119.896 73.0811 119.979Z" fill="#334148"/>
<path d="M72.876 119.596C72.8302 119.603 72.7833 119.6 72.7388 119.587C72.7655 119.567 72.7954 119.551 72.8273 119.54C72.8527 119.538 72.8731 119.575 72.876 119.596Z" fill="#334148"/>
<path d="M72.9548 119.704C72.9276 119.709 72.9032 119.685 72.873 119.636C72.8984 119.632 72.9285 119.653 72.9548 119.704Z" fill="#334148"/>
<path d="M74.1834 122.213C74.1776 122.214 74.1717 122.213 74.1659 122.212C74.1602 122.211 74.1547 122.208 74.1499 122.205C74.1451 122.201 74.1411 122.197 74.138 122.192C74.1349 122.187 74.1328 122.181 74.1318 122.176C74.1494 122.167 74.1834 122.196 74.1834 122.213Z" fill="#435056"/>
<path d="M0.047678 124.542C0.289066 124.943 0.534348 125.384 0.800069 125.846C1.03562 126.468 1.24391 127.069 1.4814 127.735C1.64201 128.417 1.79093 129.023 1.90481 129.639C2.02355 130.28 2.39731 130.747 2.85576 131.17C3.38817 131.662 3.96536 132.117 4.43645 132.663C4.90755 133.209 5.40298 133.793 5.65313 134.45C6.16607 135.793 6.43958 137.191 6.19722 138.664C5.97822 140.002 5.50713 141.208 4.66811 142.266C3.73273 143.441 2.48589 144.188 1.07844 144.755C0.805907 144.853 0.573281 144.942 0.340653 145.036C-1.18651 145.044 -2.71368 145.05 -4.27783 145.015C-4.11682 144.874 -3.93777 144.756 -3.74542 144.662H-3.20424C-3.13221 144.716 -3.10691 144.816 -3.07187 144.817C-2.45867 144.83 -1.84157 144.876 -1.23323 144.817C-0.849739 144.781 -0.47111 144.612 -0.107082 144.461C1.53522 143.805 2.90727 142.612 3.78627 141.077C4.30019 140.186 4.69731 139.165 4.68952 138.126C4.68271 137.161 4.69926 136.179 4.35859 135.215C4.00678 134.18 3.45701 133.224 2.73993 132.399C2.33794 131.943 1.88144 131.523 1.56219 131.009C1.29842 130.587 1.06676 130.067 1.05411 129.585C1.01128 127.947 0.490548 126.424 0.0914793 124.868C0.0689602 124.761 0.0543203 124.652 0.047678 124.542Z" fill="#334148"/>
<path d="M63.5607 104.448C63.5393 105.183 63.4743 105.916 63.3661 106.643C52.32 106.686 41.3047 106.686 30.3203 106.643C30.3203 105.882 30.3203 105.168 30.3203 104.453H63.5607" fill="#84C341"/>
<path d="M62.438 94.3243C62.6327 94.8178 62.8273 95.3123 63.022 95.8419C62.8666 95.9195 62.697 95.9649 62.5236 95.9753C51.9506 95.9798 41.3769 95.9798 30.8026 95.9753C30.647 95.9717 30.4925 95.9495 30.3422 95.9091C30.2011 95.5888 30.0794 95.2997 29.9791 95.0038C29.9104 94.7968 29.8749 94.5803 29.874 94.3622C40.7605 94.3239 51.6151 94.3113 62.438 94.3243Z" fill="#84C341"/>
<path d="M30.277 104.45C30.3188 105.164 30.3188 105.879 30.3188 106.64C30.3188 106.687 30.3188 106.689 30.2721 106.689H12.7968C12.68 106.583 12.5321 106.499 12.4532 106.371C12.3033 106.105 12.064 105.9 11.7775 105.793C11.491 105.686 11.1759 105.684 10.8881 105.787C10.4764 105.92 10.0686 106.067 9.66365 106.219C9.39404 106.322 9.32006 106.201 9.29184 105.958C9.23636 105.481 9.16433 105.006 9.09717 104.489C15.9446 104.448 22.793 104.446 29.6871 104.445L30.277 104.45Z" fill="#93C844"/>
<path d="M11.7988 113.812C11.8835 113.929 11.9692 114.046 12.0811 114.175C12.1093 114.189 12.1083 114.191 12.1142 114.221C12.1732 114.311 12.2382 114.396 12.3089 114.477C12.3089 114.477 12.3089 114.477 12.3166 114.512C12.4558 114.745 12.5892 114.945 12.7216 115.145C13.363 116.119 14.0044 117.099 14.6507 118.105C14.6896 118.179 14.7247 118.225 14.7617 118.3C14.9447 118.611 15.1247 118.884 15.3136 119.164C15.3233 119.164 15.3038 119.164 15.3058 119.193C15.3496 119.349 15.3914 119.471 15.4391 119.621C15.4639 119.664 15.4933 119.705 15.5267 119.742C15.5338 119.769 15.5358 119.797 15.5326 119.825C15.5556 119.891 15.5884 119.954 15.6299 120.011C15.6299 120.011 15.6396 120.007 15.6299 120.048C15.8246 120.812 16.027 121.536 16.2402 122.257C16.3784 122.726 16.5555 123.182 16.6811 123.653C16.7791 124.044 16.8551 124.439 16.9088 124.838C17.013 125.529 17.1288 126.221 17.1843 126.917C17.2437 127.679 17.4763 128.378 17.9503 128.954C18.6112 129.757 19.3831 130.473 20.0031 131.305C20.4116 131.88 20.7309 132.514 20.9501 133.185C21.2421 134.032 21.4573 134.913 21.3716 135.836C21.2928 136.678 21.3969 137.567 21.1555 138.355C20.8314 139.416 20.4654 140.486 19.7043 141.38C18.8584 142.374 17.9571 143.28 16.7697 143.828C15.9219 144.217 15.0439 144.592 14.1417 144.794C13.5674 144.924 12.8899 145.026 12.3069 144.647C12.6388 144.36 12.961 144.063 13.3046 143.787C14.2447 143.057 15.0096 142.125 15.5433 141.061C15.9735 140.185 16.3628 139.293 16.4193 138.335C16.5049 136.956 16.6363 135.542 16.4261 134.193C16.248 133.043 15.698 131.92 15.1549 130.866C14.7977 130.172 14.1582 129.623 13.6501 129.005C13.1634 128.421 12.7965 127.791 12.6768 127.008C12.5551 126.189 12.34 125.384 12.1502 124.574C12.0149 124.002 11.8806 123.425 11.6986 122.867C11.3141 121.686 10.9063 120.512 10.4858 119.343C10.4293 119.187 10.2269 119.091 10.1218 118.945C9.90861 118.653 9.65554 118.368 9.52511 118.038C9.11738 116.976 8.61098 115.955 8.01255 114.987C7.81107 114.669 7.68843 114.3 7.52588 113.917C8.10559 113.856 8.68817 113.826 9.27107 113.828C10.1695 113.836 10.9841 113.824 11.7988 113.812Z" fill="#3D4A4F"/>
<path d="M1.1167 144.75C2.48424 144.183 3.73108 143.436 4.66646 142.261C5.50548 141.208 5.97657 140.002 6.19557 138.659C6.43793 137.186 6.16443 135.788 5.65148 134.445C5.40133 133.788 4.90493 133.202 4.43481 132.658C3.96468 132.114 3.38652 131.657 2.85411 131.165C2.39566 130.742 2.0219 130.275 1.90315 129.634C1.78927 129.018 1.64035 128.407 1.50603 127.753C1.76689 127.409 2.05889 127.128 2.27984 126.798C2.4745 126.51 2.5806 126.17 2.77137 125.756C2.90569 125.938 3.00984 126.021 3.03807 126.125C3.29113 127.077 3.46536 128.056 3.80019 128.978C3.99417 129.471 4.32767 129.897 4.7599 130.204C6.02524 131.08 6.96354 132.24 7.64098 133.561C8.29609 134.828 8.54682 136.265 8.3593 137.678C8.19779 139.07 7.71533 140.406 6.94991 141.58C6.69197 141.976 6.31529 142.293 6.0009 142.651C5.73032 142.962 5.47141 143.283 5.17065 143.652C4.64213 143.827 4.09998 143.863 3.66782 144.092C2.96604 144.461 2.20781 144.585 1.4671 144.801C1.3649 144.839 1.23447 144.772 1.1167 144.75Z" fill="#435056"/>
<path d="M12.2688 144.652C12.8936 145.031 13.5711 144.929 14.1453 144.799C15.0496 144.597 15.9275 144.224 16.7734 143.833C17.9608 143.285 18.8621 142.379 19.708 141.385C20.4691 140.491 20.8351 139.421 21.1592 138.36C21.4006 137.572 21.2965 136.683 21.3753 135.841C21.4609 134.917 21.2488 134.036 20.9538 133.19C20.7346 132.519 20.4153 131.885 20.0068 131.31C19.3868 130.478 18.6149 129.762 17.954 128.959C17.4771 128.375 17.2474 127.684 17.188 126.922C17.1325 126.226 17.0167 125.534 16.9125 124.843C16.8595 124.443 16.7841 124.047 16.6867 123.656C16.5612 123.185 16.384 122.729 16.2458 122.26C16.0326 121.539 15.8341 120.815 15.6618 120.071C16.0025 120.738 16.311 121.425 16.6147 122.147C16.6374 122.217 16.6702 122.282 16.712 122.342C16.712 122.337 16.7189 122.336 16.712 122.376C16.8804 122.96 17.0819 123.504 17.2318 124.059C17.4897 125.016 17.7 125.987 17.9637 126.944C18.0854 127.383 18.0436 127.942 18.6519 128.121C18.6577 128.129 18.6519 128.149 18.6451 128.189C18.7638 128.684 19.0344 128.987 19.5152 129.115C19.7099 129.288 19.9046 129.427 20.107 129.587C20.1362 129.634 20.1606 129.654 20.1946 129.701C20.2599 129.849 20.292 129.993 20.3844 130.069C21.0726 130.609 21.6644 131.237 22.0206 132.037C22.3369 132.744 22.5686 133.489 22.8197 134.223C22.9171 134.508 22.9657 134.807 23.0387 135.1C23.0942 135.325 23.2198 135.555 23.2003 135.774C23.1406 136.518 23.0431 137.258 22.9083 137.992C22.7892 138.553 22.6265 139.103 22.4216 139.639C22.2114 140.214 21.9476 140.77 21.7023 141.335C21.686 141.34 21.6689 141.342 21.6517 141.342C21.2721 141.496 21.022 141.713 21.0736 142.155C21.0736 142.176 21.0736 142.217 21.0736 142.216C21.0736 142.215 21.0736 142.216 21.0541 142.216C21.0259 142.215 20.9977 142.218 20.9704 142.225C20.927 142.258 20.8909 142.3 20.8643 142.347C20.8041 142.415 20.7314 142.472 20.6502 142.513C20.2355 142.707 19.8228 142.858 19.706 143.358C19.6721 143.382 19.6301 143.394 19.5882 143.39C19.3761 143.52 19.1989 143.653 19.0266 143.779C19.0266 143.779 19.0266 143.773 18.9887 143.773C18.8193 143.8 18.6526 143.841 18.4903 143.896C18.1487 144.035 17.8236 144.225 17.4732 144.334C16.9106 144.507 16.3315 144.626 15.764 144.785C15.6667 144.811 15.6015 144.921 15.5207 144.992C13.9283 145.011 12.3369 145.029 10.7075 145.004C11.0037 144.86 11.3114 144.741 11.6273 144.647L12.2688 144.652Z" fill="#334148"/>
<path d="M2.11766 123.552C2.09484 123.461 2.08598 123.367 2.09138 123.274C2.20137 123.015 2.34153 122.802 2.41745 122.567C2.81846 121.337 3.22142 120.108 3.58545 118.868C3.71272 118.386 3.79772 117.894 3.8395 117.397C3.91055 116.743 4.30378 116.394 4.89264 116.535C5.20898 116.611 5.47665 116.755 5.40267 117.163C5.2265 118.137 5.11067 119.132 4.86053 120.089C4.60356 121.073 4.22591 122.026 3.88135 122.985C3.61368 123.727 3.31487 124.458 3.03065 125.195H2.80581C2.58486 124.655 2.36489 124.115 2.11766 123.552Z" fill="#525F64"/>
<path d="M11.6073 144.626C11.3153 144.756 10.9922 144.861 10.6652 145.002C7.91061 145.043 5.16385 145.049 2.41612 145.053C1.75328 145.053 1.09141 145.053 0.383789 145.041C0.606238 144.924 0.838053 144.827 1.0768 144.749C1.23449 144.77 1.36881 144.837 1.46614 144.807C2.2049 144.591 2.96508 144.467 3.66685 144.098C4.10388 143.869 4.64019 143.833 5.16969 143.693C6.3153 143.427 7.40836 143.471 8.54717 143.606C9.65093 143.739 10.56 144.314 11.6073 144.626Z" fill="#3D4B4F"/>
<path d="M30.3198 106.686H63.3637C63.2799 108.159 63.1573 109.633 63.0191 111.105C62.9023 112.346 62.7641 113.586 62.6424 114.827C62.5694 115.579 62.5071 116.332 62.4477 117.085C62.3504 118.303 62.2433 119.519 62.1557 120.741C62.1466 121.009 62.1642 121.277 62.2083 121.542C62.2376 121.617 62.2376 121.7 62.2083 121.776C62.1041 122.029 61.9844 122.219 61.9689 122.419C61.9144 123.126 61.9056 123.835 61.8589 124.543C61.7985 125.442 61.7275 126.34 61.6457 127.236C61.5289 128.531 61.4004 129.824 61.2758 131.118C61.2544 131.342 61.2213 131.565 61.2009 131.788C61.0958 132.925 60.9877 134.061 60.8894 135.195C60.7921 136.348 60.6889 137.501 60.612 138.656C60.577 139.189 60.5974 139.727 60.5916 140.263C60.5916 140.263 60.6013 140.269 60.6003 140.31C60.6003 140.45 60.6003 140.548 60.6003 140.646C60.6003 140.646 60.6003 140.655 60.5721 140.683C60.4641 141.25 60.3979 141.791 60.3064 142.329C60.2237 142.815 60.1117 143.293 60.0144 143.775C59.6309 144.067 59.2873 144.472 58.8542 144.636C58.2954 144.835 57.706 144.934 57.1129 144.928C49.3515 144.944 41.5911 144.938 33.783 144.899C33.6545 144.757 33.5883 144.632 33.491 144.55C33.0043 144.146 32.6354 143.655 32.577 143.017C32.4265 141.365 32.2967 139.71 32.1877 138.052C32.0709 136.283 31.993 134.511 31.8898 132.74C31.7925 131.132 31.6952 129.527 31.5978 127.914C31.4937 126.078 31.4031 124.242 31.3058 122.407C31.2182 120.879 31.1004 119.352 31.0206 117.823C30.9097 115.713 30.826 113.6 30.7228 111.489C30.7179 111.391 30.7228 111.294 30.7121 111.197C30.5862 109.69 30.46 108.183 30.3335 106.675M42.981 120.276C43.0334 120.32 43.0898 120.358 43.1494 120.391C43.1494 120.391 43.1689 120.409 43.1669 120.482C43.2754 120.578 43.3733 120.686 43.4589 120.803C43.4589 120.803 43.4823 120.781 43.4735 120.856C43.5991 120.963 43.7081 121.122 43.8531 121.168C44.2921 121.305 45.0474 120.733 45.1837 120.195C45.1837 120.195 45.1837 120.189 45.2674 120.211C45.6567 120.263 45.8387 120.114 45.7618 119.704H45.8222C45.8338 119.673 45.8465 119.643 45.8601 119.607C45.8601 119.607 45.8601 119.598 45.938 119.623C46.3711 119.638 46.4441 119.353 46.449 118.98C46.4574 118.97 46.4681 118.963 46.48 118.959C46.4919 118.955 46.5046 118.953 46.5171 118.955L46.5862 118.919C46.5258 118.899 46.4674 118.873 46.412 118.841C46.3953 118.813 46.3854 118.781 46.3832 118.749C46.381 118.716 46.3866 118.683 46.3994 118.653C46.4286 118.543 46.4568 118.433 46.487 118.315C46.7877 118.694 47.0826 119.061 47.3717 119.43C47.4148 119.479 47.4396 119.541 47.4418 119.606C47.36 120.287 47.7815 120.493 48.3451 120.613C49.1237 120.783 49.9024 121.003 50.6811 121.18C51.2193 121.3 51.4393 121.174 51.4344 120.736C51.4228 119.762 51.3945 118.781 51.3371 117.805C51.306 117.299 50.9643 117.14 50.4835 117.287C50.2723 117.351 50.025 117.3 49.7885 117.304C49.7921 117.277 49.7921 117.248 49.7885 117.221C49.7567 117.01 49.6514 116.816 49.4911 116.675C49.3308 116.534 49.1259 116.454 48.9125 116.45C48.8581 116.41 48.8194 116.352 48.8035 116.287C48.6896 115.841 48.3168 115.898 47.9917 115.88C47.2452 115.831 46.4977 115.783 45.7531 115.755C45.4367 115.744 45.2323 115.94 45.1233 116.311C45.1267 116.399 45.1003 116.486 45.0484 116.557C44.9082 116.585 44.7671 116.609 44.6269 116.64C44.149 116.748 43.6253 117.235 43.5708 117.605C43.5708 117.605 43.5777 117.617 43.5017 117.605C43.3927 117.734 43.2837 117.863 43.1552 118.034C43.1367 118.061 43.1114 118.078 43.0073 118.085C42.9314 118.182 42.8564 118.274 42.7454 118.404C42.7029 118.441 42.6504 118.464 42.5946 118.471C42.0962 118.581 42.252 119.001 42.2052 119.316C42.1644 119.582 42.2744 119.758 42.5994 119.769C42.6047 119.804 42.6047 119.839 42.5994 119.873C42.6656 119.921 42.7318 119.971 42.7941 120.026C42.7941 120.026 42.7941 120.017 42.7941 120.084C42.8595 120.126 42.9213 120.174 42.979 120.227C42.979 120.227 42.9859 120.216 42.9859 120.283M54.0683 127.765C54.5734 127.334 54.9336 126.837 54.8693 126.116C53.5767 126.116 52.3318 126.128 51.0889 126.105C50.8806 126.105 50.6811 125.932 50.4679 125.869C50.2547 125.806 49.989 125.687 49.8586 125.772C49.0439 126.291 48.2565 126.852 47.471 127.416C47.2111 127.602 47.1917 127.883 47.4379 128.078C48.2166 128.686 49.0011 129.274 49.7982 129.851C50.0601 130.045 50.3881 129.941 50.4095 129.649C50.4543 129.056 50.8582 129.058 51.2291 129.088C52.4058 129.186 53.2789 128.652 54.0683 127.767M39.5081 123.127C39.5256 123.301 39.4819 123.58 39.5714 123.633C40.0269 123.902 39.9169 124.197 39.7086 124.551C39.5854 124.779 39.48 125.016 39.3933 125.26C38.9864 126.283 39.4244 128.157 40.2255 128.917C40.5175 129.192 40.7024 129.238 40.899 128.814C41.3536 127.831 41.8402 126.862 42.3172 125.893C42.4427 125.637 42.5274 125.358 42.9187 125.356C43.0238 125.356 43.2282 125.081 43.2156 124.949C43.128 124 43.0063 123.053 42.8739 122.108C42.8185 121.719 42.5634 121.587 42.2033 121.761C41.3156 122.19 40.4367 122.637 39.5081 123.131M53.4891 123.471C53.2711 123.037 53.0618 122.595 52.8341 122.17C52.5927 121.716 52.2374 121.601 51.7839 121.828C51.364 122.037 50.9491 122.256 50.539 122.485C50.1156 122.72 50.0075 123.077 50.2187 123.504C50.3832 123.838 50.6022 124.154 50.7054 124.505C50.9624 125.346 51.4617 125.643 52.3464 125.51C53.019 125.408 53.7198 125.489 54.5335 125.489C54.153 124.752 53.8386 124.142 53.4852 123.471M42.9236 129.181C43.6536 129.181 44.3836 129.19 45.1126 129.181C45.6246 129.174 45.8621 128.944 45.8757 128.441C45.8874 127.954 45.8845 127.467 45.8611 126.981C45.8397 126.525 45.5691 126.277 45.1107 126.27C44.4624 126.26 43.8132 126.255 43.164 126.27C43.0238 126.27 42.8126 126.342 42.7591 126.445C42.3036 127.316 41.8772 128.198 41.3964 129.182L42.9236 129.181Z" fill="#9BCA47"/>
<path d="M69.4679 144.628C69.4099 144.651 69.3472 144.66 69.2849 144.655C68.0459 144.198 66.8516 143.682 65.5619 143.523C64.831 143.426 64.0766 143.523 63.332 143.523C63.1824 143.515 63.0334 143.497 62.8862 143.469C62.9047 143.332 62.9174 143.195 62.9427 143.061C62.9705 142.985 62.9946 142.909 63.0147 142.831C63.0858 141.947 63.1442 141.063 63.2191 140.179C63.2999 139.217 63.3992 138.257 63.4819 137.295C63.5617 136.369 63.624 135.445 63.7058 134.516C63.8245 133.154 63.9579 131.791 64.0766 130.428C64.1555 129.528 64.2129 128.628 64.2888 127.728C64.4105 126.285 64.5419 124.841 64.6655 123.397C64.7375 122.547 64.7988 121.695 64.8728 120.844C64.9701 119.688 65.0821 118.534 65.1823 117.378C65.2357 116.581 65.3331 115.788 65.4743 115.002C65.7615 115.504 66.0778 115.991 66.327 116.511C66.726 117.342 67.0784 118.196 67.459 119.036C67.4911 119.108 67.5913 119.149 67.6536 119.206C67.7811 119.315 67.97 119.4 68.0225 119.537C68.4304 120.607 68.8508 121.666 69.1905 122.754C69.4368 123.546 69.5575 124.379 69.7453 125.188C69.9721 126.167 70.1571 127.162 70.4685 128.115C70.6038 128.528 70.9727 128.894 71.3027 129.208C72.6371 130.484 73.4031 132.069 73.811 133.831C74.005 134.628 74.1005 135.445 74.0952 136.265C74.0767 137.136 73.8587 138.002 73.7389 138.873C73.589 139.964 73.117 140.937 72.5388 141.842C71.7786 143.035 70.7926 144.002 69.4679 144.628Z" fill="#4A575D"/>
<path d="M63.0552 113.785C63.0552 113.092 63.0883 112.414 63.1574 111.689C63.2018 111.655 63.2545 111.633 63.3102 111.626C64.0616 111.636 64.813 111.644 65.6092 111.7C65.5868 112.429 65.5206 113.112 65.4554 113.796C64.668 113.797 63.8796 113.798 63.0552 113.785Z" fill="#758A90"/>
<path d="M60.5994 140.233C60.5906 139.733 60.5702 139.195 60.6052 138.662C60.6821 137.507 60.7833 136.353 60.8826 135.201C60.9799 134.064 61.089 132.928 61.1941 131.794C61.2145 131.571 61.2476 131.348 61.269 131.124C61.3936 129.83 61.5221 128.536 61.6389 127.242C61.72 126.345 61.7911 125.447 61.8521 124.549C61.8988 123.841 61.9075 123.132 61.962 122.425C61.9776 122.225 62.0973 122.035 62.1927 121.816C62.1149 123.114 62.0204 124.436 61.9105 125.756C61.7654 127.495 61.6019 129.232 61.4559 130.972C61.3411 132.341 61.2408 133.711 61.1396 135.121C61.0549 136.009 60.9663 136.856 60.8768 137.704C60.7892 138.532 60.7006 139.364 60.5994 140.233Z" fill="#A4C968"/>
<path d="M65.4951 113.801C65.5204 113.112 65.5866 112.429 65.6547 111.705C65.6547 111.663 65.6547 111.649 65.6917 111.649L66.6174 111.665C66.7235 111.772 66.8344 111.875 66.9337 111.987C67.4058 112.524 67.3065 113.113 66.6242 113.8C66.2543 113.824 65.8952 113.812 65.4951 113.801Z" fill="#8DA0A9"/>
<path d="M15.563 145.004C15.6058 144.926 15.6749 144.816 15.7684 144.79C16.3358 144.631 16.915 144.512 17.4775 144.339C17.8279 144.23 18.153 144.04 18.4947 143.901C18.6574 143.845 18.8249 143.804 18.995 143.779C18.2397 144.387 17.3043 144.649 16.328 144.902C16.0753 144.952 15.8198 144.986 15.563 145.004Z" fill="#3A4F2C"/>
<path d="M76.9405 143.582C78.5009 142.52 79.6787 140.984 80.3005 139.202C80.6206 138.275 80.7893 137.302 80.7998 136.321C80.8045 135.22 80.6021 134.127 80.2031 133.101C79.7604 131.944 79.0807 130.892 78.2078 130.012C77.8756 129.682 77.5132 129.384 77.1254 129.121C76.6959 128.832 76.3343 128.452 76.0655 128.009C75.7966 127.566 75.627 127.07 75.5681 126.555C75.5574 126.476 75.5185 126.401 75.4893 126.287C75.9097 126.223 75.9613 125.851 76.0577 125.572C76.2864 124.91 76.4577 124.229 76.668 123.56C76.705 123.441 76.8188 123.347 76.9259 123.203C77.2315 124.092 77.5303 124.898 77.7795 125.719C77.9031 126.128 77.9216 126.568 78.0121 126.985C78.2438 128.069 78.9047 128.849 79.8157 129.432C80.6217 129.949 81.2271 130.649 81.7098 131.46C81.9911 131.925 82.2462 132.406 82.4739 132.899C83.0579 134.197 83.3207 135.554 83.1154 136.98C83.0963 137.075 83.084 137.171 83.0784 137.267C83.0784 138.88 82.3065 140.188 81.4383 141.453C80.886 142.268 80.1646 142.953 79.3232 143.463C79.2551 143.504 79.2259 143.615 79.1432 143.724C78.6312 143.746 78.1601 143.742 77.69 143.724C77.4311 143.73 77.1215 143.955 76.9405 143.582Z" fill="#435056"/>
<path d="M76.9092 143.596C77.1214 143.955 77.4309 143.73 77.6879 143.739C78.158 143.755 78.6291 143.759 79.1411 143.772C80.2466 143.854 81.3211 144.176 82.2898 144.715C81.9774 144.821 81.6591 144.892 81.3311 145C79.6647 145.04 78.0071 145.044 76.3048 145.038C76.3529 144.877 76.4255 144.725 76.5199 144.586L75.6303 144.52L75.5952 144.406C76.0245 144.143 76.4518 143.876 76.9092 143.596Z" fill="#3D4A4F"/>
<path d="M85.7994 124.114L85.7847 124.119C85.7985 124.113 85.7985 124.113 85.7994 124.114Z" fill="#334148"/>
<path d="M74.4458 145.043C74.4604 144.946 74.4934 144.853 74.5431 144.768C74.6029 144.839 74.6554 144.916 74.6998 144.998C74.6212 145.037 74.533 145.052 74.4458 145.043Z" fill="#3D4A4F"/>
<path d="M9.10986 106.509C9.61892 106.345 10.1494 106.263 10.637 106.072C11.1733 105.864 11.6464 105.873 12.097 106.226C12.5234 106.563 12.6187 107.021 12.5049 107.534C12.2129 108.878 11.9111 110.22 11.589 111.622C10.9719 111.668 10.3801 111.654 9.78731 111.641C9.85155 110.84 9.94109 110.039 9.96932 109.237C9.97262 108.754 9.93846 108.272 9.86712 107.794C9.79899 107.276 9.61016 106.815 9.10986 106.509Z" fill="#3D4B4F"/>
<path d="M9.74265 111.646C10.3763 111.656 10.9681 111.67 11.5803 111.665C11.7478 111.888 11.8987 112.122 12.0319 112.367C12.3035 112.873 11.8811 113.277 11.8061 113.774C10.9837 113.824 10.169 113.836 9.32412 113.821C9.32398 113.72 9.35453 113.622 9.41172 113.539C9.94024 112.9 9.93829 112.518 9.39809 111.898C9.35396 111.838 9.31857 111.773 9.29297 111.703C9.44005 111.666 9.59101 111.647 9.74265 111.646Z" fill="#758A90"/>
<path d="M5.30488 111.598C5.0288 111.614 4.75189 111.609 4.47656 111.583C4.11643 110.501 3.77479 109.429 3.47792 108.345C3.33192 107.81 4.08334 106.967 4.64592 106.983C4.72866 106.983 4.86979 107.04 4.87953 107.091C4.90191 107.207 4.90678 107.383 4.8367 107.452C4.44055 107.841 4.59336 108.31 4.68583 108.725C4.86395 109.521 5.13162 110.297 5.34089 111.087C5.37885 111.235 5.31948 111.404 5.30488 111.598Z" fill="#525F64"/>
<path d="M62.437 94.2864C51.6005 94.324 40.7474 94.337 29.8779 94.3253C29.8056 94.3325 29.7328 94.3183 29.6686 94.2844C29.3123 93.2496 29.0028 92.2499 28.6602 91.2666C28.3896 90.4879 28.0762 89.7188 27.7842 88.9429C27.319 87.6774 26.8712 86.4119 26.4001 85.1551C25.9135 83.8478 25.3577 82.5628 24.9207 81.2388C24.6968 80.5632 24.2082 80.0989 23.7799 79.6306C23.2991 79.105 22.5846 78.7925 21.9753 78.3836C21.8949 78.3196 21.82 78.2489 21.7515 78.1724C32.2285 78.1724 42.7061 78.1759 53.1844 78.1831C53.6818 78.1831 54.2366 78.26 54.6649 78.4878C55.7268 79.0514 56.8344 79.6413 57.3785 80.7862C57.8175 81.711 58.0959 82.7127 58.4492 83.6774C58.5027 83.8234 58.6059 83.9509 58.6614 84.096C58.9242 84.7842 59.1919 85.4705 59.4323 86.1666C59.6863 86.9016 59.8917 87.6541 60.1574 88.3842C60.319 88.8281 60.5866 89.2321 60.7502 89.675C60.9526 90.225 61.0801 90.8013 61.2748 91.3552C61.3721 91.6181 61.5668 91.842 61.6641 92.1048C61.9347 92.8155 62.1771 93.5358 62.4301 94.2903M54.0945 92.5254C54.1659 92.4637 54.2409 92.4065 54.3193 92.354C54.6113 92.099 54.8459 91.8293 54.6853 91.3942C54.3028 90.3545 53.9378 89.309 53.5523 88.2703C52.8253 86.3077 52.1089 84.3423 51.3429 82.3953C51.1813 81.9855 50.826 81.6506 50.5496 81.2194C50.4669 81.1619 50.3773 81.1152 50.2829 81.0801L47.3551 80.8991L33.7897 80.8923C33.7087 80.8874 33.6274 80.8874 33.5464 80.8923C32.8553 80.9721 32.5156 81.4764 32.7404 82.1344C33.0587 83.0602 33.3935 83.984 33.7381 84.8952C34.143 85.966 34.5791 87.031 34.9762 88.1077C35.3918 89.233 35.7451 90.3818 36.1968 91.4915C36.351 91.8578 36.6304 92.1574 36.9852 92.3365C37.4115 92.5224 37.9283 92.5585 38.4062 92.5594C42.9478 92.5721 47.4884 92.5594 52.1206 92.5653C52.7698 92.538 53.417 92.5049 54.1013 92.5215L54.0945 92.5254Z" fill="#9ACB47"/>
<path d="M21.7065 78.1675C21.8263 78.2396 21.8924 78.3233 21.9762 78.3797C22.5855 78.7886 23.2999 79.1011 23.7807 79.6268C24.209 80.095 24.6976 80.5594 24.9215 81.235C25.3585 82.5589 25.9114 83.8439 26.4009 85.1513C26.872 86.41 27.3198 87.6823 27.785 88.9391C28.077 89.7179 28.3895 90.4811 28.661 91.2628C29.0036 92.2499 29.3132 93.2497 29.6344 94.2806C23.2726 94.3205 16.9119 94.3205 10.5054 94.3205C10.7127 93.752 10.9677 93.1854 11.2179 92.6159C11.245 92.5319 11.2661 92.446 11.2811 92.3589C11.3288 92.1856 11.3687 92.0085 11.431 91.841C11.614 91.3455 11.8203 90.8588 11.9917 90.3594C12.2759 89.5203 12.5075 88.6626 12.8151 87.8332C13.2755 86.5901 13.7884 85.3684 14.2644 84.134C14.572 83.3309 14.8075 82.4976 15.1404 81.7071C15.4266 81.0325 15.6689 80.317 16.3026 79.838C16.614 79.6024 16.8671 79.289 17.162 78.9804C17.4461 78.8344 17.7417 78.712 18.0458 78.6144C18.6298 78.4479 19.2226 78.2551 19.8241 78.1821C20.4256 78.1091 21.0495 78.1666 21.7065 78.1675Z" fill="#AED24D"/>
<path d="M66.6603 111.66C66.3226 111.66 66.0277 111.654 65.687 111.643C65.8067 109.948 65.9712 108.257 66.1386 106.531C66.2876 106.553 66.3937 106.561 66.4949 106.587C66.8025 106.666 67.0234 106.822 67.1129 107.161C67.5023 108.621 67.4419 110.081 67.2103 111.594C67.0298 111.635 66.8455 111.658 66.6603 111.66Z" fill="#4A575D"/>
<path d="M63.3115 111.585C63.2931 111.606 63.27 111.622 63.2441 111.633C63.2182 111.643 63.1903 111.647 63.1626 111.645C63.2395 110.324 63.3397 109.003 63.4546 107.683C63.5354 106.751 63.6366 105.82 63.7622 104.87C63.6697 106.487 63.5432 108.123 63.4215 109.758C63.3796 110.352 63.3485 110.948 63.3115 111.585Z" fill="#3A4F2C"/>
<path d="M30.2727 106.688C30.445 108.195 30.5715 109.706 30.6971 111.21C30.7058 111.308 30.7029 111.405 30.7078 111.502C30.8051 113.614 30.8947 115.726 31.0056 117.837C31.0854 119.365 31.2003 120.893 31.2908 122.421C31.3959 124.256 31.4855 126.092 31.5828 127.928C31.6733 129.537 31.7775 131.14 31.8748 132.753C31.9721 134.524 32.0558 136.297 32.1726 138.066C32.283 139.721 32.4127 141.376 32.562 143.03C32.6204 143.668 32.9864 144.16 33.4759 144.564C33.578 144.664 33.662 144.782 33.7241 144.911C28.7368 144.948 23.7481 144.958 18.7581 144.942C18.4429 144.93 18.135 144.844 17.8588 144.691C18.2111 144.515 18.5732 144.354 18.9138 144.156C19.0972 144.029 19.2611 143.877 19.4005 143.703C19.4005 143.67 19.4005 143.676 19.4375 143.679C19.8414 143.45 20.2314 143.197 20.6055 142.922C20.8274 142.751 21.1652 142.624 21.0727 142.227C21.0727 142.227 21.0727 142.227 21.1087 142.227C21.4426 141.838 21.7385 141.442 22.0324 141.051C22.0324 141.051 22.0324 141.051 22.0636 141.051C22.166 140.9 22.2546 140.739 22.3283 140.571C22.3283 140.571 22.3215 140.571 22.3468 140.564C22.3955 140.533 22.4188 140.509 22.4743 140.477C22.6061 140.284 22.7227 140.081 22.8228 139.871C22.8228 139.846 22.8228 139.798 22.8549 139.78C22.9873 139.415 23.0788 139.064 23.1878 138.718C23.4642 137.835 23.7231 136.911 23.5683 136.012C23.3737 134.916 23.4827 133.744 22.8383 132.738C22.5639 132.309 22.3896 131.818 22.1434 131.369C22.0996 131.288 21.9292 131.278 21.8134 131.224C21.8134 131.212 21.8261 131.197 21.8309 131.158C21.4474 130.548 21.0708 129.965 20.6551 129.412C20.5763 129.308 20.333 129.341 20.185 129.269C20.0604 129.209 19.9758 129.067 19.8521 128.999C19.703 128.93 19.5496 128.871 19.3927 128.822C19.3927 128.817 19.4015 128.822 19.3927 128.792C19.3398 128.753 19.281 128.723 19.2185 128.703C19.2185 128.703 19.2185 128.703 19.2185 128.668C19.1757 128.507 19.1213 128.349 19.056 128.196C18.8516 127.735 18.6102 127.288 18.4418 126.815C18.252 126.284 18.1254 125.73 17.9717 125.186C17.8373 124.71 17.6417 124.24 17.5872 123.755C17.5307 123.244 17.2524 122.916 16.9136 122.57C16.8846 122.513 16.868 122.451 16.865 122.388C16.865 122.236 16.8796 122.113 16.8367 122.017C16.5447 121.335 16.2605 120.654 15.9277 120C15.7748 119.698 15.515 119.45 15.3037 119.177C15.3037 119.177 15.3232 119.177 15.3213 119.142C15.1519 118.817 15.2473 118.351 14.7587 118.283C14.714 118.23 14.685 118.166 14.675 118.098C14.5478 117.71 14.3818 117.336 14.1795 116.981C13.7454 116.28 13.286 115.594 12.8169 114.918C12.6942 114.744 12.483 114.632 12.3136 114.491C12.3146 114.478 12.3146 114.466 12.3136 114.453C12.2547 114.363 12.1869 114.279 12.1112 114.203C12.1968 113.854 12.3341 113.507 12.3545 113.151C12.375 112.796 12.4197 112.265 12.2114 112.064C11.7374 111.606 11.8426 111.153 11.9545 110.649C12.1414 109.808 12.2669 108.947 12.5385 108.135C12.6894 107.684 12.8402 107.264 12.8003 106.745C18.6063 106.688 24.4171 106.688 30.2727 106.688Z" fill="#AED24C"/>
<path d="M60.0063 143.814C60.1037 143.299 60.2127 142.819 60.2983 142.334C60.3898 141.797 60.456 141.256 60.5602 140.691C60.4979 141.567 60.419 142.46 60.311 143.355C60.2896 143.535 60.1621 143.703 60.054 143.896C60.0171 143.893 60.0132 143.871 60.0063 143.814Z" fill="#A4C968"/>
<path d="M19.063 143.78C19.2193 143.638 19.3926 143.517 19.5789 143.418C19.5355 143.511 19.4769 143.597 19.4056 143.671C19.4056 143.671 19.4056 143.665 19.4056 143.663C19.2976 143.699 19.1963 143.738 19.063 143.78Z" fill="#3A4F2C"/>
<path d="M60.6077 140.631C60.5917 140.528 60.5862 140.425 60.5911 140.321C60.6076 140.424 60.6131 140.527 60.6077 140.631Z" fill="#A4C968"/>
<path d="M12.3169 114.512C12.4794 114.62 12.6907 114.732 12.8133 114.907C13.2863 115.582 13.7458 116.269 14.176 116.969C14.3719 117.316 14.5349 117.68 14.6626 118.057C13.9969 117.099 13.3554 116.122 12.716 115.145C12.5894 114.945 12.4561 114.745 12.3169 114.512Z" fill="#A4C968"/>
<path d="M15.3062 119.198C15.5154 119.438 15.7753 119.684 15.9281 119.988C16.261 120.645 16.5442 121.328 16.8372 122.005C16.8708 122.12 16.8735 122.242 16.845 122.359C16.8028 122.366 16.7594 122.358 16.7224 122.336C16.7224 122.336 16.7136 122.336 16.7224 122.309C16.6982 122.24 16.6655 122.175 16.625 122.114C16.3165 121.433 16.0079 120.741 15.6731 120.033C15.6468 120.013 15.639 120.015 15.64 119.985C15.6143 119.919 15.5816 119.856 15.5427 119.796C15.5425 119.771 15.5386 119.745 15.531 119.721C15.5077 119.676 15.4782 119.636 15.4434 119.6C15.3938 119.476 15.35 119.354 15.3062 119.198Z" fill="#A4C968"/>
<path d="M14.7617 118.302C15.2484 118.336 15.1511 118.802 15.3117 119.128C15.1105 118.865 14.9268 118.589 14.7617 118.302Z" fill="#A4C968"/>
<path d="M12.1143 114.221C12.1935 114.281 12.2598 114.356 12.3089 114.442C12.2296 114.383 12.1634 114.307 12.1143 114.221Z" fill="#A4C968"/>
<path d="M15.5332 119.83C15.5818 119.871 15.6159 119.926 15.6305 119.988C15.5817 119.947 15.5475 119.892 15.5332 119.83Z" fill="#334148"/>
<path d="M15.4399 119.626C15.4594 119.626 15.4847 119.651 15.5139 119.705C15.4915 119.706 15.4691 119.68 15.4399 119.626Z" fill="#334148"/>
<path d="M21.8252 131.185C21.8252 131.185 21.8087 131.201 21.8194 131.247C21.8627 131.35 21.9135 131.45 21.9712 131.545C22.8618 132.992 23.3339 134.54 23.329 136.263C23.3232 137.347 23.0983 138.367 22.7878 139.414C22.7129 139.585 22.6603 139.73 22.5844 139.901C22.4919 140.074 22.4228 140.226 22.3391 140.406C22.3278 140.457 22.3216 140.508 22.3206 140.56C22.3206 140.56 22.3206 140.566 22.2953 140.572C22.1961 140.723 22.1067 140.88 22.0277 141.043C22.0277 141.043 22.0277 141.048 22.0014 141.055C21.8989 141.145 21.8014 141.24 21.7094 141.341C21.9498 140.777 22.2136 140.221 22.4238 139.646C22.6287 139.11 22.7914 138.559 22.9105 137.999C23.0453 137.265 23.1427 136.525 23.2025 135.781C23.2219 135.562 23.0964 135.332 23.0409 135.106C22.9679 134.814 22.9202 134.511 22.8219 134.23C22.5708 133.496 22.3352 132.751 22.0228 132.044C21.6666 131.247 21.0748 130.616 20.3866 130.075C20.2951 130.003 20.262 129.855 20.2085 129.694C20.2163 129.647 20.2396 129.62 20.2688 129.632C20.8061 130.154 21.3152 130.67 21.8252 131.185Z" fill="#3A4F2C"/>
<path d="M16.9277 122.576C17.2528 122.905 17.5312 123.233 17.5877 123.744C17.6422 124.231 17.8378 124.699 17.9721 125.175C18.1259 125.719 18.2524 126.273 18.4422 126.804C18.6106 127.278 18.852 127.724 19.0564 128.185C19.1227 128.331 19.1679 128.485 19.1907 128.643C18.9972 128.494 18.8159 128.328 18.6486 128.15C18.6559 128.129 18.6559 128.106 18.6486 128.086C18.5162 127.777 18.3654 127.523 18.2836 127.248C17.8213 125.693 17.3774 124.133 16.9277 122.576Z" fill="#A4C968"/>
<path d="M16.9139 122.558C17.3772 124.133 17.821 125.693 18.2814 127.247C18.3632 127.522 18.5141 127.776 18.6396 128.076C18.0439 127.943 18.0858 127.383 17.9641 126.944C17.7003 125.987 17.4901 125.016 17.2322 124.059C17.0823 123.504 16.8808 122.963 16.7124 122.376C16.7533 122.352 16.7844 122.366 16.837 122.4C16.8654 122.451 16.891 122.504 16.9139 122.558Z" fill="#3A4F2C"/>
<path d="M19.4404 143.673C19.4855 143.58 19.5438 143.494 19.6137 143.418C19.6546 143.39 19.6976 143.366 19.7422 143.345C20.0887 143.053 20.3894 142.782 20.6902 142.513C20.7437 142.466 20.7973 142.415 20.8897 142.34C20.9279 142.304 20.9633 142.265 20.9958 142.224C20.9958 142.224 21.0338 142.224 21.0523 142.224C21.1642 142.62 20.8265 142.747 20.6045 142.919C20.2316 143.193 19.8429 143.445 19.4404 143.673Z" fill="#B1C877"/>
<path d="M21.7046 141.339C21.8019 141.241 21.8857 141.152 22.0044 141.047C21.7377 141.43 21.4418 141.825 21.1089 142.215C21.0729 142.215 21.0749 142.174 21.1041 142.136C21.3201 141.844 21.5061 141.593 21.6881 141.339C21.6935 141.338 21.6991 141.338 21.7046 141.339Z" fill="#B1C877"/>
<path d="M20.6499 142.513C20.3861 142.782 20.0853 143.051 19.7515 143.332C19.8264 142.858 20.2391 142.703 20.6499 142.513Z" fill="#3A4F2C"/>
<path d="M18.646 128.189C18.8193 128.321 18.9896 128.495 19.1891 128.68C19.2183 128.694 19.2193 128.69 19.2319 128.717C19.2837 128.757 19.3407 128.79 19.4013 128.815C19.4013 128.815 19.3935 128.809 19.3955 128.842C19.4422 128.939 19.4879 128.999 19.5269 129.067L19.5113 129.085C19.0353 128.987 18.7647 128.684 18.646 128.189Z" fill="#3A4F2C"/>
<path d="M21.6535 141.346C21.4889 141.618 21.3055 141.879 21.1045 142.125C21.0237 141.717 21.2739 141.5 21.6535 141.346Z" fill="#3A4F2C"/>
<path d="M20.0983 129.565C19.8962 129.425 19.7012 129.275 19.5143 129.115C19.5094 129.082 19.5201 129.069 19.5561 129.074C19.7599 129.211 19.9531 129.364 20.1343 129.53L20.0983 129.565Z" fill="#3A4F2C"/>
<path d="M16.6147 122.149C16.6686 122.189 16.7063 122.247 16.7208 122.313C16.6672 122.273 16.6297 122.215 16.6147 122.149Z" fill="#3A4F2C"/>
<path d="M20.9695 142.231C20.9743 142.252 20.9519 142.28 20.9033 142.316C20.8994 142.296 20.9208 142.267 20.9695 142.231Z" fill="#3A4F2C"/>
<path d="M20.2025 129.653C20.1607 129.653 20.1364 129.634 20.1052 129.587C20.0955 129.565 20.1198 129.542 20.149 129.545C20.1844 129.558 20.2147 129.582 20.2356 129.613L20.2025 129.653Z" fill="#3A4F2C"/>
<path d="M54.0439 127.787C53.274 128.643 52.4009 129.173 51.2213 129.08C50.8504 129.049 50.4426 129.047 50.4017 129.64C50.3803 129.932 50.0523 130.03 49.7905 129.842C48.9933 129.266 48.2039 128.674 47.4301 128.069C47.1839 127.874 47.2033 127.593 47.4632 127.407C48.2487 126.843 49.0361 126.282 49.8508 125.763C49.9812 125.68 50.2596 125.803 50.4601 125.86C50.6606 125.918 50.8728 126.092 51.0811 126.096C52.3241 126.119 53.569 126.108 54.8615 126.108C54.9287 126.83 54.5686 127.327 54.0439 127.787Z" fill="#E8F3EC"/>
<path d="M39.5329 123.101C40.4381 122.635 41.3171 122.186 42.2047 121.757C42.5649 121.583 42.8199 121.712 42.8754 122.105C43.0077 123.049 43.1294 123.996 43.217 124.945C43.2297 125.078 43.0223 125.351 42.9201 125.352C42.5308 125.352 42.4442 125.633 42.3186 125.889C41.8417 126.863 41.355 127.831 40.9005 128.81C40.7058 129.234 40.5179 129.189 40.2269 128.913C39.4259 128.153 38.9879 126.279 39.3947 125.256C39.4814 125.012 39.5869 124.775 39.7101 124.547C39.9184 124.193 40.0284 123.898 39.5728 123.629C39.4823 123.58 39.5261 123.301 39.5329 123.101Z" fill="#E8F3EC"/>
<path d="M48.7954 116.355L48.9502 116.477C49.2568 116.769 49.5225 117.033 49.7882 117.295C49.7882 117.295 49.7882 117.3 49.7882 117.333C49.9206 117.591 50.0422 117.778 50.3576 117.599C50.9251 117.277 51.11 117.399 51.145 118.055C51.1859 118.812 51.2326 119.57 51.3037 120.324C51.3621 120.947 51.218 121.125 50.6155 120.987C49.7833 120.792 48.9609 120.558 48.1345 120.338C47.8162 120.253 47.677 120.077 47.7753 119.727C47.7874 119.66 47.785 119.592 47.7682 119.526C47.7514 119.46 47.7206 119.399 47.678 119.346C46.8273 118.398 45.964 117.462 45.1035 116.523C45.1028 116.435 45.119 116.348 45.1512 116.267C45.4627 116.126 45.7284 115.954 46.0029 115.941C46.9607 115.89 47.9126 115.914 48.7954 116.355Z" fill="#E8F3EC"/>
<path d="M53.5086 123.498C53.8425 124.138 54.1568 124.749 54.5374 125.485C53.7237 125.485 53.0229 125.404 52.3503 125.506C51.4656 125.639 50.9662 125.342 50.7093 124.501C50.6022 124.15 50.3832 123.834 50.2226 123.501C50.0114 123.073 50.1194 122.716 50.5428 122.481C50.9662 122.247 51.3682 122.034 51.7877 121.824C52.2413 121.597 52.5966 121.712 52.838 122.166C53.0618 122.595 53.2711 123.033 53.5086 123.498Z" fill="#E8F3EC"/>
<path d="M42.8755 129.181H41.395C41.8817 128.2 42.3061 127.315 42.7577 126.444C42.8112 126.341 43.0224 126.273 43.1626 126.269C43.8099 126.253 44.4591 126.258 45.1093 126.269C45.5687 126.276 45.8383 126.524 45.8597 126.98C45.8831 127.467 45.886 127.953 45.8743 128.44C45.8607 128.943 45.6232 129.173 45.1112 129.18C44.3832 129.19 43.6541 129.181 42.8755 129.181Z" fill="#E8F3EC"/>
<path d="M42.6643 118.463C42.7019 118.43 42.743 118.401 42.787 118.377C42.8899 118.287 42.9859 118.189 43.0741 118.085C43.1053 118.076 43.1306 118.059 43.188 118C43.3418 117.851 43.4566 117.734 43.5715 117.611C43.5715 117.611 43.5647 117.599 43.5997 117.592C43.9404 117.333 44.2441 117.079 44.5487 116.827L44.429 117L46.3455 118.678C46.3689 118.73 46.3922 118.783 46.4428 118.873C46.4574 118.896 46.4679 118.921 46.474 118.948C46.46 118.967 46.444 118.986 46.4263 119.002C46.22 119.218 46.0447 119.405 45.8686 119.592C45.8686 119.592 45.8686 119.601 45.8442 119.61C45.7907 119.639 45.7761 119.665 45.7761 119.7L45.7352 119.707C45.5318 119.87 45.3624 120.028 45.1931 120.186C45.1931 120.186 45.1931 120.192 45.158 120.2C45.0135 120.29 44.8802 120.397 44.7609 120.519C44.4008 120.937 43.9822 121.04 43.4897 120.781C43.4897 120.781 43.4664 120.803 43.4722 120.761C43.3869 120.634 43.2891 120.516 43.1802 120.409C43.1649 120.394 43.1508 120.378 43.1384 120.361C43.0751 120.291 43.0342 120.25 42.9924 120.209C42.9924 120.209 42.9855 120.22 42.9807 120.188C42.9289 120.122 42.8695 120.062 42.8035 120.011V119.984C42.7487 119.914 42.6857 119.851 42.6157 119.795C42.6077 119.768 42.5979 119.74 42.5865 119.714C42.1981 119.228 42.3821 118.84 42.6643 118.463Z" fill="#E8F3EC"/>
<path d="M46.3702 118.662C45.7035 118.118 45.0669 117.559 44.4294 117L44.5491 116.827C44.2445 117.079 43.9408 117.333 43.606 117.596C43.6196 117.229 44.1432 116.742 44.6212 116.635C44.7613 116.603 44.9024 116.579 45.0767 116.537C45.9712 117.462 46.8345 118.398 47.6852 119.346C47.7278 119.399 47.7586 119.46 47.7754 119.526C47.7922 119.592 47.7946 119.66 47.7825 119.727C47.6852 120.077 47.8234 120.253 48.1417 120.338C48.9681 120.558 49.7905 120.795 50.6227 120.987C51.2252 121.125 51.3693 120.947 51.3109 120.324C51.2398 119.57 51.1931 118.812 51.1522 118.055C51.1172 117.399 50.9323 117.276 50.3648 117.599C50.0494 117.778 49.9278 117.591 49.7983 117.331C50.0261 117.296 50.2733 117.346 50.4845 117.282C50.9654 117.135 51.307 117.295 51.3381 117.8C51.3975 118.773 51.4257 119.754 51.4355 120.731C51.4355 121.169 51.2204 121.296 50.6821 121.175C49.9034 121 49.1296 120.778 48.3461 120.608C47.7825 120.488 47.3611 120.284 47.4429 119.601C47.4407 119.536 47.4159 119.474 47.3728 119.426C47.0808 119.056 46.7888 118.689 46.488 118.31C46.46 118.431 46.4205 118.549 46.3702 118.662Z" fill="#A4C968"/>
<path d="M48.7985 116.317C47.9128 115.914 46.9608 115.89 46.0099 115.939C45.7354 115.953 45.4697 116.125 45.165 116.232C45.2264 115.939 45.4308 115.745 45.749 115.751C46.4966 115.776 47.2441 115.827 47.9877 115.876C48.3118 115.896 48.6866 115.835 48.7985 116.317Z" fill="#A4C968"/>
<path d="M43.4766 120.819C43.9769 121.041 44.3925 120.937 44.7526 120.519C44.8698 120.398 45.0005 120.292 45.1419 120.201C45.0446 120.733 44.2874 121.305 43.8484 121.168C43.7072 121.125 43.5982 120.963 43.4766 120.819Z" fill="#A4C968"/>
<path d="M42.6273 118.464C42.383 118.84 42.1991 119.228 42.5621 119.7C42.2701 119.751 42.1582 119.575 42.1991 119.311C42.2467 118.994 42.091 118.574 42.6273 118.464Z" fill="#A4C968"/>
<path d="M49.7883 117.255C49.5041 117.009 49.2325 116.749 48.9746 116.476C49.3455 116.439 49.7426 116.804 49.7883 117.255Z" fill="#A4C968"/>
<path d="M45.8994 119.605C46.0529 119.394 46.2266 119.198 46.4182 119.021C46.4435 119.347 46.3705 119.632 45.8994 119.605Z" fill="#A4C968"/>
<path d="M45.2256 120.197C45.372 120.016 45.5389 119.852 45.723 119.71C45.8378 120.108 45.6577 120.26 45.2256 120.197Z" fill="#A4C968"/>
<path d="M43.5336 117.604C43.44 117.743 43.3269 117.868 43.1978 117.974C43.2918 117.836 43.4049 117.711 43.5336 117.604Z" fill="#A4C968"/>
<path d="M43.168 120.444C43.2856 120.529 43.3893 120.632 43.4755 120.748C43.3577 120.664 43.2539 120.561 43.168 120.444Z" fill="#A4C968"/>
<path d="M43.0363 118.079C42.9796 118.188 42.9007 118.283 42.8047 118.36C42.8612 118.251 42.9401 118.155 43.0363 118.079Z" fill="#A4C968"/>
<path d="M42.5981 119.831C42.6771 119.858 42.7453 119.91 42.7928 119.978C42.7136 119.952 42.6452 119.9 42.5981 119.831Z" fill="#A4C968"/>
<path d="M42.79 120.044C42.8632 120.071 42.9269 120.119 42.973 120.182C42.8998 120.155 42.8361 120.107 42.79 120.044Z" fill="#A4C968"/>
<path d="M42.981 120.243C43.0228 120.25 43.0637 120.291 43.1143 120.36C43.0574 120.338 43.0101 120.297 42.981 120.243Z" fill="#A4C968"/>
<path d="M46.4911 118.949C46.4658 118.949 46.458 118.909 46.458 118.889C46.5018 118.888 46.5454 118.896 46.5855 118.914C46.556 118.93 46.5242 118.942 46.4911 118.949Z" fill="#A4C968"/>
<path d="M45.7952 119.7C45.7679 119.665 45.7825 119.639 45.8351 119.614C45.8458 119.639 45.8331 119.665 45.7952 119.7Z" fill="#A4C968"/>
<path d="M52.0275 92.5642C47.4859 92.5642 42.9453 92.575 38.4008 92.5642C37.9229 92.5642 37.406 92.5273 36.9797 92.3413C36.6249 92.1622 36.3455 91.8627 36.1913 91.4963C35.7397 90.3866 35.3863 89.2379 34.9707 88.1125C34.5736 87.0359 34.1375 85.9709 33.7326 84.9C33.3881 83.985 33.0513 83.065 32.735 82.1392C32.5101 81.4821 32.8498 80.9769 33.5409 80.8971C33.6219 80.8922 33.7032 80.8922 33.7842 80.8971C38.3093 80.8971 42.8363 80.8971 47.4109 80.936C47.533 81.1284 47.6445 81.3273 47.7448 81.5318C48.031 82.0993 48.3736 82.6474 48.5926 83.2403C49.2136 84.9253 49.7606 86.6358 50.3816 88.3228C50.9023 89.7441 51.4766 91.1498 52.0275 92.5642Z" fill="#76BF43"/>
<path d="M52.0716 92.5662C51.4759 91.1498 50.9036 89.7431 50.3809 88.3179C49.7638 86.6309 49.2129 84.9205 48.5919 83.2354C48.3729 82.6425 48.0303 82.0945 47.7441 81.5269C47.6468 81.34 47.5495 81.1541 47.4521 80.9331C48.3943 80.9584 49.3404 81.0178 50.3293 81.1132C50.4354 81.193 50.4987 81.2359 50.562 81.2777C50.8287 81.6467 51.1839 81.9815 51.3406 82.3914C52.1066 84.3383 52.823 86.3038 53.5501 88.2663C53.9394 89.305 54.3005 90.3506 54.6831 91.3902C54.8437 91.8254 54.6091 92.095 54.2577 92.3637C54.1891 92.3942 54.1239 92.4317 54.0631 92.4757C53.4168 92.5049 52.7695 92.538 52.0716 92.5662Z" fill="#64B746"/>
<path d="M50.5614 81.2465C50.4865 81.2251 50.4202 81.1808 50.3716 81.12C50.4465 81.1414 50.5128 81.1856 50.5614 81.2465Z" fill="#76BF43"/>
<path d="M54.084 92.5049C54.1195 92.4489 54.1736 92.4072 54.2368 92.3871C54.2014 92.4432 54.1473 92.4849 54.084 92.5049Z" fill="#76BF43"/>
<path d="M22.8102 139.39C23.1022 138.367 23.3241 137.345 23.33 136.263C23.3387 134.54 22.8628 132.992 21.9722 131.545C21.9161 131.452 21.8667 131.354 21.8242 131.253C21.9293 131.262 22.0997 131.273 22.1435 131.351C22.3897 131.799 22.564 132.291 22.8384 132.719C23.4828 133.726 23.3786 134.898 23.5684 135.993C23.7232 136.893 23.4643 137.817 23.1879 138.699C23.0789 139.045 22.9874 139.396 22.8579 139.729C22.8293 139.618 22.8133 139.504 22.8102 139.39Z" fill="#A4C968"/>
<path d="M20.2671 129.626C20.2214 129.589 20.2019 129.567 20.1649 129.528C19.9634 129.367 19.7756 129.22 19.5624 129.063C19.494 128.998 19.4371 128.922 19.394 128.838C19.5533 128.861 19.7079 128.91 19.8515 128.982C19.9751 129.05 20.0598 129.192 20.1844 129.253C20.3323 129.325 20.5737 129.292 20.6545 129.396C21.0701 129.949 21.4468 130.531 21.8303 131.141C21.3154 130.67 20.8064 130.154 20.2671 129.626Z" fill="#A4C968"/>
<path d="M22.3545 140.375C22.4246 140.207 22.5141 140.047 22.6212 139.9C22.6872 139.887 22.7544 139.881 22.8217 139.882C22.7215 140.081 22.6018 140.27 22.4645 140.445C22.4296 140.419 22.3929 140.395 22.3545 140.375Z" fill="#A4C968"/>
<path d="M22.8222 139.859C22.765 139.88 22.7035 139.887 22.6431 139.879C22.6681 139.718 22.7169 139.561 22.7881 139.414C22.8156 139.525 22.8284 139.639 22.8261 139.754C22.8231 139.786 22.8222 139.834 22.8222 139.859Z" fill="#B1C877"/>
<path d="M22.0635 141.04C22.1158 140.871 22.195 140.711 22.2981 140.567C22.2462 140.736 22.167 140.896 22.0635 141.04Z" fill="#B1C877"/>
<path d="M19.3925 128.781C19.3326 128.782 19.2745 128.76 19.231 128.718C19.2909 128.717 19.3488 128.74 19.3925 128.781Z" fill="#A4C968"/>
<path d="M22.3393 140.4C22.3821 140.384 22.4045 140.4 22.4308 140.449C22.4242 140.47 22.4133 140.49 22.3987 140.506C22.3841 140.523 22.3662 140.537 22.3461 140.546C22.3352 140.524 22.329 140.499 22.3278 140.474C22.3267 140.449 22.3306 140.424 22.3393 140.4Z" fill="#B1C877"/>
</g>
</g>
</svg>
