<svg width="211" height="155" viewBox="0 0 211 155" fill="none" xmlns="http://www.w3.org/2000/svg">

    <defs>
        <filter id="filter0_d_1157_22728" x="0" y="0" width="211" height="155" filterUnits="userSpaceOnUse" color-interpolation-filters="sRGB">
            <feFlood flood-opacity="0" result="BackgroundImageFix"/>
            <feColorMatrix in="SourceAlpha" type="matrix" values="0 0 0 0 0 0 0 0 0 0 0 0 0 0 0 0 0 0 127 0" result="hardAlpha"/>
            <feOffset dy="4"/>
            <feGaussianBlur stdDeviation="2"/>
            <feComposite in2="hardAlpha" operator="out"/>
            <feColorMatrix type="matrix" values="0 0 0 0 0 0 0 0 0 0 0 0 0 0 0 0 0 0 0.25 0"/>
            <feBlend mode="normal" in2="BackgroundImageFix" result="effect1_dropShadow_1157_22728"/>
            <feBlend mode="normal" in="SourceGraphic" in2="effect1_dropShadow_1157_22728" result="shape"/>
        </filter>
        <radialGradient id="paint0_radial_1157_22728" cx="0" cy="0" r="1" gradientUnits="userSpaceOnUse" gradientTransform="translate(205.882 119.292) scale(18.4363 18.4945)">
            <stop stop-color="#004156"/>
            <stop offset="0.376" stop-color="#064B62"/>
            <stop offset="1" stop-color="#14637E"/>
        </radialGradient>
        <radialGradient id="paint1_radial_1157_22728" cx="0" cy="0" r="1" gradientUnits="userSpaceOnUse" gradientTransform="translate(205.881 119.292) scale(18.4365 18.4946)">
            <stop stop-color="#004156"/>
            <stop offset="0.376" stop-color="#064B62"/>
            <stop offset="1" stop-color="#14637E"/>
        </radialGradient>
        <radialGradient id="paint2_radial_1157_22728" cx="0" cy="0" r="1" gradientUnits="userSpaceOnUse" gradientTransform="translate(205.881 119.293) scale(20.5599 20.6246)">
            <stop stop-color="#004DCD"/>
            <stop offset="0.3057" stop-color="#0459CE"/>
            <stop offset="0.8511" stop-color="#1077D0"/>
            <stop offset="1" stop-color="#1481D1"/>
        </radialGradient>
        <linearGradient id="paint3_linear_1157_22728" x1="205.881" y1="133.565" x2="205.881" y2="112.939" gradientUnits="userSpaceOnUse">
            <stop stop-color="#FF8C29"/>
            <stop offset="0.1705" stop-color="#FF912A"/>
            <stop offset="0.3859" stop-color="#FFA12B"/>
            <stop offset="0.6253" stop-color="#FFBB2E"/>
            <stop offset="0.8804" stop-color="#FFDF32"/>
            <stop offset="1" stop-color="#FFF234"/>
        </linearGradient>
        <linearGradient id="paint4_linear_1157_22728" x1="205.536" y1="131.332" x2="205.536" y2="112.997" gradientUnits="userSpaceOnUse">
            <stop stop-color="#FF8C29"/>
            <stop offset="0.1705" stop-color="#FF912A"/>
            <stop offset="0.3859" stop-color="#FFA12B"/>
            <stop offset="0.6253" stop-color="#FFBB2E"/>
            <stop offset="0.8804" stop-color="#FFDF32"/>
            <stop offset="1" stop-color="#FFF234"/>
        </linearGradient>
        <linearGradient id="paint5_linear_1157_22728" x1="207.286" y1="133.565" x2="207.286" y2="112.939" gradientUnits="userSpaceOnUse">
            <stop stop-color="#FF8C29"/>
            <stop offset="0.1705" stop-color="#FF912A"/>
            <stop offset="0.3859" stop-color="#FFA12B"/>
            <stop offset="0.6253" stop-color="#FFBB2E"/>
            <stop offset="0.8804" stop-color="#FFDF32"/>
            <stop offset="1" stop-color="#FFF234"/>
        </linearGradient>
        <linearGradient id="paint6_linear_1157_22728" x1="204.179" y1="120.151" x2="204.179" y2="109.174" gradientUnits="userSpaceOnUse">
            <stop stop-color="#FF8C29"/>
            <stop offset="0.1705" stop-color="#FF912A"/>
            <stop offset="0.3859" stop-color="#FFA12B"/>
            <stop offset="0.6253" stop-color="#FFBB2E"/>
            <stop offset="0.8804" stop-color="#FFDF32"/>
            <stop offset="1" stop-color="#FFF234"/>
        </linearGradient>
        <linearGradient id="paint7_linear_1157_22728" x1="194.778" y1="128.383" x2="198.179" y2="128.383" gradientUnits="userSpaceOnUse">
            <stop stop-color="#FF8C29"/>
            <stop offset="0.1705" stop-color="#FF912A"/>
            <stop offset="0.3859" stop-color="#FFA12B"/>
            <stop offset="0.6253" stop-color="#FFBB2E"/>
            <stop offset="0.8804" stop-color="#FFDF32"/>
            <stop offset="1" stop-color="#FFF234"/>
        </linearGradient>
        <linearGradient id="paint8_linear_1157_22728" x1="197.132" y1="133.089" x2="199.348" y2="133.089" gradientUnits="userSpaceOnUse">
            <stop stop-color="#FF8C29"/>
            <stop offset="0.1705" stop-color="#FF912A"/>
            <stop offset="0.3859" stop-color="#FFA12B"/>
            <stop offset="0.6253" stop-color="#FFBB2E"/>
            <stop offset="0.8804" stop-color="#FFDF32"/>
            <stop offset="1" stop-color="#FFF234"/>
        </linearGradient>
        <clipPath id="clip0_1157_22728">
            <rect x="4" width="203" height="147" rx="10" fill="white"/>
        </clipPath>
        <clipPath id="clip1_1157_22728">
            <rect width="66" height="98" fill="white" transform="translate(2 50)"/>
        </clipPath>
    </defs>
    <g filter="url(#filter0_d_1157_22728)">
<g clip-path="url(#clip0_1157_22728)">
<rect x="4" width="203" height="147" rx="10" fill="#00DBCD"/>
<path d="M78.709 25.1768C78.709 25.6104 78.709 26.0205 78.709 26.4072C78.7148 26.7939 78.7207 27.1514 78.7266 27.4795C78.7383 27.8076 78.7529 28.1006 78.7705 28.3584C78.7881 28.6162 78.8115 28.8301 78.8408 29H76.0723C76.1367 28.6484 76.1748 28.1416 76.1865 27.4795C76.1982 26.8115 76.2041 26.0439 76.2041 25.1768V18.9541C76.2041 18.5439 76.1982 18.1631 76.1865 17.8115C76.1807 17.4541 76.1689 17.1348 76.1514 16.8535C76.1338 16.5723 76.1074 16.3438 76.0723 16.168C76.5293 16.1562 77.0039 16.1416 77.4961 16.124C77.918 16.1123 78.3896 16.1035 78.9111 16.0977C79.4326 16.0859 79.9512 16.0801 80.4668 16.0801C81.1523 16.0801 81.7764 16.1592 82.3389 16.3174C82.9072 16.4697 83.3936 16.7041 83.7979 17.0205C84.2021 17.3311 84.5156 17.7236 84.7383 18.1982C84.9668 18.6729 85.0811 19.2266 85.0811 19.8594C85.0811 20.3457 85.0137 20.7852 84.8789 21.1777C84.7441 21.5645 84.5566 21.9102 84.3164 22.2148C84.082 22.5195 83.8008 22.7803 83.4727 22.9971C83.1504 23.208 82.7959 23.3809 82.4092 23.5156C82.5732 23.7441 82.7754 24.0283 83.0156 24.3682C83.2559 24.7021 83.5107 25.0566 83.7803 25.4316C84.0557 25.8066 84.334 26.1875 84.6152 26.5742C84.8965 26.9609 85.1572 27.3213 85.3975 27.6553C85.6436 27.9834 85.8574 28.2676 86.0391 28.5078C86.2266 28.748 86.3613 28.9121 86.4434 29H83.3232L79.9307 23.8584H78.709V25.1768ZM78.709 21.9688H80.0713C80.458 21.9688 80.8037 21.9336 81.1084 21.8633C81.4189 21.793 81.6826 21.6787 81.8994 21.5205C82.1162 21.3564 82.2832 21.1426 82.4004 20.8789C82.5176 20.6152 82.5762 20.29 82.5762 19.9033C82.5762 19.2412 82.3682 18.7695 81.9521 18.4883C81.5361 18.2012 80.9385 18.0576 80.1592 18.0576C79.9893 18.0576 79.8398 18.0605 79.7109 18.0664C79.582 18.0664 79.4619 18.0693 79.3506 18.0752C79.2393 18.0752 79.1338 18.0781 79.0342 18.084C78.9346 18.0898 78.8262 18.0957 78.709 18.1016V21.9688ZM94.749 29C94.708 28.9062 94.6641 28.7979 94.6172 28.6748C94.5703 28.5459 94.5234 28.4111 94.4766 28.2705C94.4355 28.1299 94.3945 27.9834 94.3535 27.8311C94.3184 27.6787 94.2891 27.5264 94.2656 27.374C93.7441 27.9775 93.2051 28.4375 92.6484 28.7539C92.0918 29.0645 91.5117 29.2197 90.9082 29.2197C89.0742 29.2197 88.1572 27.96 88.1572 25.4404V22.8477C88.1572 22.5664 88.1543 22.3115 88.1484 22.083C88.1484 21.8545 88.1426 21.6348 88.1309 21.4238C88.1191 21.207 88.1016 20.9873 88.0781 20.7646C88.0547 20.542 88.0225 20.2988 87.9814 20.0352H90.6182V24.9131C90.6182 25.3115 90.6357 25.6543 90.6709 25.9414C90.7119 26.2285 90.7793 26.4658 90.873 26.6533C90.9668 26.835 91.0898 26.9697 91.2422 27.0576C91.3945 27.1455 91.582 27.1895 91.8047 27.1895C92.0039 27.1895 92.2148 27.1309 92.4375 27.0137C92.666 26.8965 92.8828 26.7471 93.0879 26.5654C93.2988 26.3779 93.4893 26.1758 93.6592 25.959C93.8291 25.7422 93.958 25.5312 94.0459 25.3262V22.8477C94.0459 22.5605 94.043 22.3027 94.0371 22.0742C94.0371 21.8398 94.0312 21.6172 94.0195 21.4062C94.0078 21.1953 93.9902 20.9814 93.9668 20.7646C93.9434 20.5479 93.9111 20.3047 93.8701 20.0352H96.5068V25.0449C96.5068 25.9004 96.5537 26.6504 96.6475 27.2949C96.7471 27.9336 96.8906 28.502 97.0781 29H94.749ZM105.217 29V24.166C105.217 23.7617 105.19 23.4219 105.138 23.1465C105.085 22.8711 105.003 22.6514 104.892 22.4873C104.78 22.3174 104.637 22.1973 104.461 22.127C104.291 22.0508 104.089 22.0127 103.854 22.0127C103.603 22.0127 103.356 22.0684 103.116 22.1797C102.876 22.291 102.653 22.4375 102.448 22.6191C102.243 22.8008 102.064 23.0029 101.912 23.2256C101.76 23.4482 101.646 23.6738 101.569 23.9023V29H99.1084V23.5947C99.1084 22.7275 99.0586 21.9951 98.959 21.3975C98.8652 20.7939 98.7686 20.3398 98.6689 20.0352H101.086C101.121 20.123 101.156 20.2402 101.191 20.3867C101.227 20.5273 101.259 20.6768 101.288 20.835C101.317 20.9873 101.344 21.1396 101.367 21.292L101.438 21.6611C101.719 21.3447 101.994 21.0723 102.264 20.8438C102.533 20.6152 102.806 20.4277 103.081 20.2812C103.356 20.1348 103.638 20.0293 103.925 19.9648C104.212 19.8945 104.511 19.8594 104.821 19.8594C105.267 19.8594 105.665 19.9355 106.017 20.0879C106.374 20.2402 106.676 20.4688 106.922 20.7734C107.168 21.0781 107.355 21.459 107.484 21.916C107.613 22.373 107.678 22.9033 107.678 23.5068V29H105.217ZM116.168 29V24.166C116.168 23.7617 116.142 23.4219 116.089 23.1465C116.036 22.8711 115.954 22.6514 115.843 22.4873C115.731 22.3174 115.588 22.1973 115.412 22.127C115.242 22.0508 115.04 22.0127 114.806 22.0127C114.554 22.0127 114.308 22.0684 114.067 22.1797C113.827 22.291 113.604 22.4375 113.399 22.6191C113.194 22.8008 113.016 23.0029 112.863 23.2256C112.711 23.4482 112.597 23.6738 112.521 23.9023V29H110.06V23.5947C110.06 22.7275 110.01 21.9951 109.91 21.3975C109.816 20.7939 109.72 20.3398 109.62 20.0352H112.037C112.072 20.123 112.107 20.2402 112.143 20.3867C112.178 20.5273 112.21 20.6768 112.239 20.835C112.269 20.9873 112.295 21.1396 112.318 21.292L112.389 21.6611C112.67 21.3447 112.945 21.0723 113.215 20.8438C113.484 20.6152 113.757 20.4277 114.032 20.2812C114.308 20.1348 114.589 20.0293 114.876 19.9648C115.163 19.8945 115.462 19.8594 115.772 19.8594C116.218 19.8594 116.616 19.9355 116.968 20.0879C117.325 20.2402 117.627 20.4688 117.873 20.7734C118.119 21.0781 118.307 21.459 118.436 21.916C118.564 22.373 118.629 22.9033 118.629 23.5068V29H116.168ZM122.936 25.0449C122.994 25.8066 123.208 26.3574 123.577 26.6973C123.952 27.0312 124.471 27.1982 125.133 27.1982C125.713 27.1982 126.275 27.1338 126.82 27.0049C127.371 26.8701 127.922 26.6387 128.473 26.3105L128.657 28.3408C128.341 28.499 128.03 28.6338 127.726 28.7451C127.427 28.8564 127.125 28.9473 126.82 29.0176C126.521 29.0879 126.214 29.1377 125.897 29.167C125.581 29.2021 125.253 29.2197 124.913 29.2197C124.333 29.2197 123.776 29.123 123.243 28.9297C122.716 28.7305 122.25 28.4404 121.846 28.0596C121.441 27.6729 121.119 27.1953 120.879 26.627C120.645 26.0586 120.527 25.3994 120.527 24.6494C120.527 23.9229 120.627 23.2666 120.826 22.6807C121.031 22.0889 121.324 21.585 121.705 21.1689C122.086 20.7471 122.546 20.4248 123.085 20.2021C123.624 19.9736 124.233 19.8594 124.913 19.8594C125.405 19.8594 125.836 19.9209 126.205 20.0439C126.58 20.1611 126.902 20.3252 127.172 20.5361C127.447 20.7412 127.676 20.9873 127.857 21.2744C128.045 21.5557 128.191 21.8633 128.297 22.1973C128.408 22.5254 128.487 22.8711 128.534 23.2344C128.581 23.5977 128.604 23.9609 128.604 24.3242V24.4824C128.604 24.5469 128.604 24.6143 128.604 24.6846C128.61 24.7549 128.613 24.8223 128.613 24.8867V25.0449H122.936ZM124.79 21.7051C124.28 21.7051 123.876 21.8428 123.577 22.1182C123.284 22.3877 123.088 22.8359 122.988 23.4629H126.372C126.372 22.8418 126.237 22.3936 125.968 22.1182C125.704 21.8428 125.312 21.7051 124.79 21.7051ZM130.767 29V23.5947C130.767 22.7275 130.717 21.9951 130.617 21.3975C130.523 20.7939 130.427 20.3398 130.327 20.0352H132.744C132.779 20.1289 132.814 20.252 132.85 20.4043C132.885 20.5508 132.917 20.7061 132.946 20.8701C132.976 21.0342 133.002 21.1953 133.025 21.3535L133.096 21.749C133.307 21.4443 133.532 21.1748 133.772 20.9404C134.013 20.7061 134.253 20.5098 134.493 20.3516C134.739 20.1875 134.979 20.0645 135.214 19.9824C135.448 19.9004 135.665 19.8594 135.864 19.8594C136.274 19.8594 136.623 19.9473 136.91 20.123C137.203 20.2988 137.44 20.5391 137.622 20.8438C137.81 21.1426 137.944 21.4912 138.026 21.8896C138.108 22.2881 138.149 22.71 138.149 23.1553L136.189 23.4629C136.16 23.0645 136.063 22.7451 135.899 22.5049C135.735 22.2588 135.466 22.1357 135.091 22.1357C134.944 22.1357 134.777 22.2002 134.59 22.3291C134.408 22.458 134.229 22.625 134.054 22.8301C133.878 23.0352 133.714 23.2725 133.562 23.542C133.415 23.8057 133.304 24.0723 133.228 24.3418V29H130.767Z" fill="white"/>
<rect x="26" y="50" width="159" height="71" rx="10" fill="#00AA9F"/>
<path d="M214.163 139.592C212.948 139.592 211.776 139.298 210.687 138.724L205.885 136.189L201.084 138.724C199.981 139.298 198.823 139.592 197.608 139.592C195.403 139.592 193.309 138.612 191.872 136.904C190.462 135.223 189.862 132.997 190.239 130.813L191.16 125.45L187.266 121.641C185.214 119.639 184.488 116.685 185.367 113.954C186.247 111.224 188.564 109.263 191.397 108.857L196.771 108.073L199.172 103.187C200.442 100.596 203.01 99 205.885 99C208.747 99 211.315 100.596 212.585 103.187L214.986 108.073L220.36 108.857C223.193 109.277 225.51 111.224 226.39 113.954C227.269 116.685 226.557 119.639 224.505 121.641L220.611 125.45L221.532 130.813C221.909 132.997 221.309 135.223 219.899 136.904C218.462 138.598 216.368 139.592 214.163 139.592Z" fill="#1481D1"/>
<path d="M214.163 137.45C213.297 137.45 212.46 137.24 211.678 136.819L205.886 133.767L200.093 136.819C199.311 137.24 198.46 137.45 197.609 137.45C196.031 137.45 194.538 136.75 193.505 135.517C192.486 134.299 192.067 132.759 192.346 131.163L193.449 124.694L188.759 120.115C187.294 118.673 186.777 116.573 187.405 114.612C188.033 112.652 189.694 111.252 191.732 110.958L198.209 110.02L201.112 104.125C202.019 102.276 203.862 101.128 205.914 101.128C207.965 101.128 209.808 102.276 210.715 104.125L213.618 110.02L220.095 110.958C222.119 111.252 223.78 112.652 224.422 114.612C225.05 116.573 224.534 118.673 223.068 120.115L218.336 124.694L219.439 131.163C219.704 132.759 219.299 134.299 218.266 135.517C217.247 136.75 215.74 137.45 214.163 137.45Z" fill="url(#paint0_radial_1157_22728)"/>
<path opacity="0.43" d="M224.38 114.612C223.751 112.652 222.091 111.252 220.053 110.958L213.576 110.02L210.673 104.125C209.766 102.276 207.923 101.128 205.871 101.128C203.82 101.128 201.977 102.276 201.07 104.125L198.167 110.02L191.69 110.958C189.652 111.252 188.005 112.652 187.363 114.612C186.721 116.573 187.251 118.673 188.717 120.115L191.62 122.957C192.541 121.571 193.658 120.311 194.914 119.261C198.837 115.984 203.317 114.976 208.314 115.732C213.004 116.447 217.415 118.827 220.011 122.887C220.025 122.916 220.039 122.943 220.067 122.972L222.998 120.115C224.491 118.673 225.008 116.573 224.38 114.612Z" fill="url(#paint1_radial_1157_22728)"/>
<path opacity="0.45" d="M226.39 113.954C225.51 111.224 223.193 109.263 220.36 108.857L214.986 108.059L212.585 103.173C211.315 100.596 208.747 99 205.885 99C203.024 99 200.456 100.596 199.186 103.187L196.785 108.073L191.397 108.843C188.564 109.263 186.247 111.21 185.367 113.94C184.488 116.671 185.214 119.625 187.266 121.627L191.16 125.436L190.239 130.799C189.862 132.983 190.462 135.209 191.872 136.889C193.309 138.598 195.403 139.578 197.608 139.578C198.823 139.578 199.995 139.284 201.084 138.71L205.885 136.175L210.687 138.71C211.79 139.284 212.948 139.578 214.163 139.578C216.368 139.578 218.462 138.598 219.899 136.889C221.309 135.209 221.909 132.983 221.532 130.799L220.611 125.436L224.505 121.627C226.557 119.625 227.283 116.685 226.39 113.954ZM219.634 125.128L220.639 130.967C220.96 132.885 220.444 134.831 219.201 136.315C217.931 137.814 216.103 138.682 214.163 138.682C213.102 138.682 212.069 138.416 211.106 137.912L205.872 135.153L200.637 137.912C199.674 138.416 198.641 138.682 197.581 138.682C195.64 138.682 193.812 137.814 192.542 136.315C191.299 134.845 190.783 132.899 191.104 130.967L192.109 125.128L187.88 120.983C186.079 119.219 185.437 116.629 186.219 114.234C187 111.84 189.024 110.118 191.523 109.754L197.371 108.899L199.981 103.579C201.098 101.31 203.345 99.9101 205.872 99.9101C208.384 99.9101 210.645 101.31 211.762 103.579L214.372 108.899L220.22 109.754C222.705 110.118 224.743 111.84 225.524 114.234C226.306 116.629 225.664 119.219 223.863 120.983L219.634 125.128Z" fill="url(#paint2_radial_1157_22728)"/>
<path d="M209.863 104.531L212.976 110.846L219.927 111.854C223.57 112.386 225.022 116.881 222.384 119.457L217.359 124.372L218.545 131.317C219.173 134.957 215.363 137.73 212.097 136.021L205.885 132.745L199.674 136.021C196.422 137.744 192.611 134.957 193.225 131.317L194.412 124.372L189.387 119.457C186.749 116.881 188.201 112.386 191.844 111.854L198.795 110.846L201.907 104.531C203.526 101.212 208.23 101.212 209.863 104.531Z" fill="url(#paint3_linear_1157_22728)"/>
<path opacity="0.39" d="M189.694 114.976C189.834 116.166 191.132 117.287 192.193 117.805C196.869 120.087 202.242 120.563 207.351 120.171C211.231 119.877 218.587 119.541 220.918 115.9C223.501 111.84 214.791 111.854 212.502 111.518L209.598 105.623C208.077 102.528 203.68 102.528 202.159 105.623L199.255 111.518C197.287 111.812 195.291 112.022 193.323 112.386C192.374 112.568 191.006 112.68 190.308 113.38C189.792 113.912 189.624 114.458 189.694 114.976Z" fill="url(#paint4_linear_1157_22728)"/>
<path opacity="0.41" d="M223.417 117.917C223.068 118.785 220.639 120.339 219.844 121.053C218.574 122.173 217.108 123.321 215.489 123.854C215.978 126.192 218.992 131.779 216.117 133.711C213.13 135.713 207.896 131.555 206.151 129.426C203.82 131.289 200.065 135.419 196.66 134.383C192.891 133.235 194.217 126.864 195.892 124.568C194.608 123.825 193.784 122.649 192.514 121.963C192.067 121.725 191.607 121.459 191.16 121.179L194.412 124.357L193.212 131.317C192.584 134.957 196.394 137.73 199.661 136.021L205.872 132.745L212.083 136.021C215.349 137.744 219.146 134.957 218.532 131.317L217.345 124.372L222.37 119.457C222.859 118.995 223.208 118.463 223.417 117.917Z" fill="url(#paint5_linear_1157_22728)"/>
<path opacity="0.39" d="M200.874 111.182C201.838 111.994 203.75 110.342 204.434 109.782C205.676 108.759 207.211 107.289 207.714 105.693C208.872 101.94 203.275 103.355 202.159 105.623C201.74 106.491 199.632 110.132 200.874 111.182Z" fill="url(#paint6_linear_1157_22728)"/>
<path opacity="0.39" d="M196.115 131.891C198.334 131.54 199.004 124.68 196.911 124.862C195.026 125.03 193.854 131.148 195.724 131.849C195.85 131.905 195.989 131.919 196.115 131.891Z" fill="url(#paint7_linear_1157_22728)"/>
<path opacity="0.39" d="M198.935 132.437C198.404 132.171 197.497 132.297 197.218 132.941C196.687 134.145 198.921 134.047 199.256 133.389C199.479 132.941 199.284 132.605 198.935 132.437Z" fill="url(#paint8_linear_1157_22728)"/>
<g clip-path="url(#clip1_1157_22728)">
<path d="M36.3724 63.3705C37.9591 63.7809 39.5458 64.1697 41.1326 64.5801C41.8831 59.936 44.3704 56.2208 47.7369 53.0456C49.8811 51.0152 52.4757 49.8271 55.4991 50.0215C56.2495 50.0647 57.0644 50.2808 57.7076 50.6696C60.0234 52.0304 62.4464 53.4344 63.0468 56.3504C63.3041 57.6248 63.154 59.0288 62.8967 60.3248C62.4893 62.5497 61.0741 64.2777 59.7447 66.0273C59.0585 66.9561 58.2223 67.7769 57.4718 68.6193C59.1014 69.0081 60.7954 69.2457 62.3607 69.8073C64.4406 70.5633 66.4776 71.5353 67.4425 73.7601C68.4503 76.0714 68 78.2746 66.7564 80.3914C65.4698 82.5514 63.5185 83.2426 61.1384 83.0698C60.6881 83.0266 60.2378 83.0698 59.7876 83.0698C60.1735 84.3442 60.6453 85.489 60.8382 86.677C61.2242 88.9883 61.5673 91.3643 59.9162 93.3947C58.5439 95.0579 55.8207 95.6627 53.9552 94.7339C49.538 92.9411 46.0858 90.1115 43.1482 86.5906C43.0838 86.5258 42.9766 86.5042 42.7622 86.4178C42.9338 87.4547 43.0839 88.3835 43.2339 89.4419C43.2339 90.1547 43.2339 90.7595 43.2339 91.3427C43.2125 92.7899 42.8051 94.0859 41.3685 94.8851C38.6238 95.3387 36.3509 94.3235 34.2067 92.9411C31.0332 90.9107 28.2242 88.4483 26.23 85.057C24.5361 89.4419 22.9279 93.7835 17.9104 95.2955C18.0819 95.6627 18.2749 95.9435 18.3178 96.2459C18.5107 97.5419 18.7681 98.8379 18.7466 100.134C18.7252 101.171 17.8889 101.754 16.924 102.035C15.9591 102.316 15.1657 101.97 14.5224 101.236C13.4074 99.9396 13 98.4275 13.2573 96.7211C13.3217 96.3539 13.4289 95.8355 13.2359 95.6195C12.4211 94.6907 11.4991 93.8483 10.5985 92.9843C9.07605 90.6515 8.04681 88.1459 8.21835 85.2946C8.34701 83.1994 8.51855 81.1042 8.69009 79.009C8.73297 78.6418 8.9474 78.2746 9.16182 77.7994C11.6063 73.9977 14.2437 70.5201 17.5887 67.5609C17.7388 67.4745 17.8246 67.4097 17.9104 67.3449C17.9104 67.3449 17.8889 67.3449 17.9747 67.3449C18.9182 66.8481 19.7759 66.3081 20.655 65.8545C25.3295 63.4785 30.2184 62.3336 35.4503 63.5865C35.7291 63.5649 36.0507 63.4137 36.3724 63.3705Z" fill="#756861"/>
<path d="M41.4755 94.8419C42.8264 94.0427 43.2124 92.7683 43.2338 91.3211C43.2553 90.7163 43.2338 90.1115 43.2981 89.4419C44.3059 90.3923 45.228 91.4507 46.2143 92.4227C48.2728 94.4963 50.7601 95.5979 53.6763 95.5547C53.3761 98.4276 53.3332 101.365 52.69 104.152C52.0038 107.132 49.7952 109.12 46.9219 110.027C44.3917 110.826 41.7543 111.15 39.0525 110.74C37.4229 110.502 35.7289 110.567 34.0779 110.459C32.8342 110.372 31.5691 110.221 30.1539 110.07C29.6822 110.005 29.4034 109.984 29.0389 109.94C26.6373 109.508 24.3215 109.12 21.9414 108.688C21.6412 108.558 21.3839 108.472 21.1052 108.299C20.7406 107.564 20.3332 106.916 20.0545 106.225C19.304 104.346 19.5399 102.402 19.8401 100.48C20.3976 96.9156 22.0701 93.8915 24.5574 91.3643C26.3371 89.5499 27.8167 89.7443 29.3391 91.6451C31.9765 94.9067 35.4502 96.2459 39.5457 95.9219C40.2104 95.8787 40.8323 95.2091 41.4755 94.8419ZM31.805 104.8C32.0194 102.402 32.2338 100.026 32.4482 97.6284C32.5555 96.4187 31.7406 95.1227 30.6042 94.9499C29.4892 94.7771 28.3313 94.7123 27.1948 94.6907C26.0584 94.6907 25.1578 95.4035 25.0291 96.5267C24.7504 99.1188 24.5145 101.732 24.3644 104.346C24.3001 105.448 25.265 106.42 26.3371 106.549C27.1948 106.657 28.0311 106.744 28.8888 106.765C30.5827 106.852 31.0545 106.528 31.805 104.8ZM43.4054 107.867C44.7348 108.018 46.0642 108.256 47.4151 108.32C48.5516 108.385 49.4521 107.629 49.5808 106.506C49.8595 103.979 50.0954 101.452 50.2455 98.9028C50.3313 97.5852 49.4307 96.6348 48.1442 96.462C47.3079 96.354 46.4502 96.2675 45.5925 96.2243C43.7913 96.1595 42.8907 97.0452 42.7621 98.8164C42.612 100.847 42.4619 102.899 42.2046 104.929C42.0759 106.096 42.2904 107.068 43.4054 107.867Z" fill="#FECE91"/>
<path d="M21.1268 108.385C21.3841 108.472 21.6414 108.558 21.9845 108.752C23.8928 110.265 25.9728 110.783 28.2242 110.632C28.5244 110.61 28.8246 110.2 29.1248 109.984C29.4036 110.005 29.7037 110.027 30.0683 110.07C30.1755 110.459 30.1755 110.805 30.1755 111.345C30.0897 112.749 30.0468 114.001 29.9396 115.233C29.8324 116.615 29.6609 117.976 29.5108 119.358C29.1248 120.849 28.7388 122.317 28.2242 123.808C24.4289 124.326 21.1053 123.311 17.9747 121.497C17.3314 121.129 16.6667 120.762 16.0234 120.395C16.3665 118.451 16.7096 116.485 17.0956 114.39C17.6316 113.872 18.1034 113.44 18.6609 113.116C20.6979 111.928 21.1053 109.919 19.733 108.083C20.2262 108.169 20.6765 108.277 21.1268 108.385Z" fill="#69D1E6"/>
<path d="M21.1055 108.299C20.6766 108.277 20.2264 108.169 19.6474 108.061C19.2614 107.91 19.0041 107.759 18.7683 107.608C17.6318 106.722 16.4954 105.815 15.1445 104.756C13.9008 105.037 12.2497 105.08 10.7059 104.411C8.13278 103.266 6.65325 100.825 7.06066 97.8876C7.25364 96.4836 7.63961 95.2956 8.58308 94.3236C9.11914 93.7836 9.82674 93.4164 10.5343 92.9628C11.4993 93.8052 12.4213 94.6476 13.2361 95.5764C13.4291 95.7924 13.3219 96.3108 13.2575 96.678C13.0002 98.3844 13.4291 99.8964 14.5226 101.192C15.1445 101.927 15.9593 102.272 16.9242 101.992C17.8891 101.711 18.7254 101.128 18.7468 100.091C18.7683 98.7948 18.511 97.4988 18.318 96.2028C18.2751 95.9004 18.0607 95.6196 17.9106 95.2524C22.9495 93.7404 24.5363 89.3988 26.2302 85.0139C28.2244 88.4051 31.0119 90.8676 34.2069 92.898C36.3511 94.2588 38.624 95.2956 41.3687 94.842C40.8326 95.2092 40.2108 95.8788 39.546 95.9436C35.4505 96.2676 31.9768 94.9284 29.3394 91.6668C27.817 89.7876 26.3375 89.5932 24.5577 91.386C22.0704 93.9132 20.3979 96.9372 19.8404 100.501C19.5402 102.424 19.3043 104.368 20.0548 106.247C20.3336 106.938 20.7624 107.564 21.1055 108.299Z" fill="#FCB561"/>
<path d="M17.5458 67.4962C14.2651 70.4338 11.6277 73.9114 9.18321 77.6483C8.53994 76.2443 7.70368 74.8403 7.46781 73.3498C7.16762 71.3194 7.2105 69.2242 7.96099 67.237C8.69004 65.3362 9.89082 63.8242 11.4347 62.485C13.4288 60.7353 15.8518 60.1953 18.3177 59.7417C19.1754 59.5905 20.1189 59.8497 21.0409 59.9361C21.77 60.0009 22.499 60.0873 23.3353 60.2385C23.1637 60.6489 22.9279 60.9945 22.6491 61.3185C21.2125 63.0034 19.7329 64.6666 18.3177 66.3514C18.1033 66.589 18.039 66.9562 17.8889 67.2802C17.8889 67.2802 17.9103 67.2802 17.846 67.2586C17.6959 67.3018 17.6101 67.4098 17.5458 67.4962Z" fill="#69D1E6"/>
<path d="M17.9746 67.2585C18.0389 66.9561 18.1033 66.5889 18.3177 66.3513C19.7543 64.6665 21.2124 63.0033 22.6491 61.3184C22.9278 60.9944 23.1637 60.6488 23.421 60.2384C24.7933 59.2016 26.0799 58.1648 27.5165 57.3224C29.1461 56.3504 30.9473 55.94 32.8343 56.4584C33.692 56.696 34.6783 56.7608 35.4074 57.2144C36.9727 58.1864 36.8226 59.8928 36.7368 61.4696C36.6939 62.0528 36.4795 62.6144 36.3508 63.2841C36.0506 63.4137 35.7076 63.5865 35.4288 63.5001C30.2183 62.2472 25.3294 63.3921 20.6549 65.7681C19.7758 66.2217 18.9181 66.7401 17.9746 67.2585Z" fill="#FD6666"/>
<path d="M15.9805 120.46C16.6666 120.762 17.3313 121.108 17.9746 121.475C21.1267 123.289 24.4288 124.305 28.1598 123.829C27.6023 125.125 27.0877 126.465 25.7368 127.156C25.9512 128.128 26.9161 128.97 26.0584 130.093C24.6647 131.065 23.421 132.016 22.1774 132.945C22.0916 132.945 21.9844 132.945 21.7485 132.923C21.1481 132.772 20.6978 132.642 20.2475 132.426C19.3041 130.677 18.3606 128.992 17.3957 127.307C17.3313 127.199 17.1598 127.177 17.0312 127.113C17.0526 127.005 17.0526 126.918 17.0955 126.724C17.1598 126.551 17.1384 126.508 17.074 126.465C16.8596 125.73 16.6023 124.996 16.4522 124.24C16.2592 123.009 16.1091 121.777 15.9805 120.46Z" fill="#756861"/>
<path d="M13.8792 113.872C11.7778 115.103 9.84802 116.55 8.23983 118.408C8.02541 118.645 7.93964 119.164 8.04685 119.466C8.51858 120.741 8.3256 121.669 7.3178 122.533C7.08194 122.749 6.86751 122.987 6.63164 123.225C5.195 124.672 4.85192 124.542 3.26517 123.462C1.59266 122.339 2.00006 120.827 2.12872 119.401C2.23593 118.321 3.24373 117.911 4.1872 117.587C4.72326 117.393 5.34509 117.177 5.68817 116.788C7.618 114.52 9.69792 112.403 12.3139 110.718C12.9357 111.777 13.4075 112.835 13.8792 113.872Z" fill="#FECE91"/>
<path d="M33.5205 117.371C34.3996 118.667 35.772 119.056 37.2086 119.315C37.8519 119.445 38.1306 119.099 38.3451 118.537C38.731 117.544 39.4601 116.658 40.5536 116.982C41.7973 117.371 42.9337 118.149 44.0916 118.818C44.2846 118.926 44.4776 119.38 44.3918 119.553C43.8558 120.762 43.8558 122.231 42.3977 123.009C41.2612 123.613 40.232 123.635 39.31 122.944C38.1092 122.058 36.8012 121.864 35.4074 121.648C33.6706 121.41 32.2554 120.46 31.0117 119.077C31.848 118.429 32.6842 117.911 33.5205 117.371Z" fill="#FDC178"/>
<path d="M13.9434 113.893C13.4074 112.813 12.9356 111.755 12.3996 110.675C12.1637 109.616 12.9785 109.076 13.6004 108.709C15.1228 107.824 16.7953 107.327 18.6822 107.629C19.0039 107.759 19.2397 107.91 19.5614 108.083C21.0838 109.94 20.6764 111.928 18.6394 113.137C18.1033 113.461 17.6101 113.872 17.074 114.325C16.6023 114.52 16.1091 114.844 15.7232 114.757C15.1228 114.606 14.5867 114.196 13.9434 113.893Z" fill="#34C2DE"/>
<path d="M22.2202 133.009C23.421 131.994 24.6647 131.065 25.9941 130.115C27.4522 132.275 28.4171 134.629 29.0604 137.135C29.1033 137.329 29.189 137.524 29.1676 137.783C27.2378 137.373 25.458 137.653 23.7426 138.388C23.2495 136.617 22.7563 134.867 22.2202 133.009Z" fill="#FECE91"/>
<path d="M23.7212 138.474C25.458 137.653 27.2163 137.373 29.1461 137.869C29.5535 139.014 29.8537 140.159 30.2397 141.412C30.2397 141.563 30.1754 141.606 30.1111 141.606C28.4814 141.822 27.1734 142.319 27.0662 144.35C27.0233 145.3 25.8654 146.078 24.9863 146.078C24.7075 144.371 24.4073 142.686 24.1286 140.98C23.9999 140.181 23.8498 139.381 23.7212 138.474Z" fill="#F9FCFB"/>
<path d="M8.71143 134.025C9.76211 133.441 10.8342 133.441 12.0136 133.679C12.7641 133.83 13.6432 133.333 14.6081 133.204C15.9375 134.457 16.9668 135.753 17.2884 137.481C16.1305 137.977 14.9726 138.474 13.8362 138.993C13.5574 139.122 13.3644 139.403 13.0214 139.554C12.8927 139.403 12.8713 139.295 12.8713 139.187C12.7212 137.157 12.3781 136.789 10.4483 136.12C9.48336 135.796 8.77575 135.148 8.71143 134.025Z" fill="#E4E3E1"/>
<path d="M53.6979 95.49C50.7388 95.598 48.2729 94.4964 46.2144 92.4228C45.2281 91.4292 44.3061 90.3924 43.2983 89.334C43.0838 88.362 42.9337 87.4116 42.7622 86.3748C42.9552 86.4612 43.0838 86.4828 43.1482 86.5476C46.0858 90.0684 49.538 92.898 53.8909 94.6692C53.8694 94.95 53.8051 95.1876 53.6979 95.49Z" fill="#FCB561"/>
<path d="M17.3742 137.459C16.9668 135.731 15.9375 134.457 14.6938 133.204C15.4443 132.686 16.2163 132.232 17.1383 131.692C18.2747 131.886 19.2611 132.189 20.2689 132.469C20.7192 132.621 21.1695 132.75 21.7055 132.901C20.805 134.91 19.304 136.358 17.3742 137.459Z" fill="#FDC178"/>
<path d="M33.5421 117.285C32.6844 117.911 31.8481 118.429 30.9904 119.034C30.5401 119.185 30.1113 119.25 29.5967 119.337C29.661 117.976 29.8325 116.593 29.9398 115.233C30.047 114.001 30.0684 112.749 30.1542 111.409C31.698 111.517 32.2341 112.857 32.8988 113.937C33.4778 114.887 33.7136 116.032 33.5421 117.285Z" fill="#34C2DE"/>
<path d="M12.1421 140.937C11.606 141.563 11.0914 142.211 10.5339 142.816C10.3409 143.032 9.99784 143.118 9.61187 143.205C9.09725 141.002 8.71129 138.885 8.38965 136.746C10.5768 137.351 11.8848 138.669 12.1421 140.937Z" fill="#C6C6C6"/>
<path d="M31.6337 142.125C32.8988 142.427 33.6707 143.291 34.1425 144.609C32.0411 145.278 29.9397 145.818 27.8384 146.272C28.2243 144.004 29.6181 142.751 31.6337 142.125Z" fill="#E4E3E1"/>
<path d="M31.5907 142.06C29.6179 142.751 28.2242 144.004 27.7739 146.315C26.8733 146.618 26.0371 146.79 25.2008 146.942C25.1365 146.704 25.0721 146.466 25.0078 146.164C25.887 146.078 27.0448 145.3 27.0877 144.35C27.1949 142.319 28.4815 141.822 30.1326 141.606C30.1969 141.606 30.2612 141.563 30.347 141.434C30.7544 141.563 31.1618 141.779 31.5907 142.06Z" fill="#595959"/>
<path d="M12.2068 140.894C11.9066 138.647 10.5986 137.351 8.34718 136.681C8.11131 135.731 7.98266 134.867 7.854 133.981C8.08987 133.981 8.3043 134.003 8.62593 134.003C8.77603 135.126 9.48363 135.774 10.4271 136.098C12.3569 136.768 12.7 137.135 12.8501 139.165C12.8501 139.273 12.893 139.381 12.9359 139.554C12.7429 140.073 12.507 140.461 12.2068 140.894Z" fill="#595959"/>
<path d="M20.2476 132.405C19.2613 132.189 18.2535 131.908 17.1599 131.627C15.5088 130.201 16.388 128.689 16.9669 127.134C17.1599 127.156 17.3314 127.199 17.3958 127.285C18.3607 128.97 19.3042 130.655 20.2476 132.405Z" fill="#595959"/>
<path d="M25.1151 146.985C26.0371 146.79 26.8734 146.618 27.774 146.402C29.9182 145.818 32.0196 145.278 34.1638 144.674C34.3997 144.89 34.5927 145.17 34.85 145.559C31.505 146.402 28.3958 147.179 25.1151 148C25.0936 147.654 25.0722 147.33 25.1151 146.985Z" fill="#F9FCFB"/>
<path d="M7.81115 133.917C7.96124 134.867 8.0899 135.731 8.24 136.682C8.66885 138.885 9.07625 141.023 9.5051 143.226C8.88327 143.723 8.58308 143.594 8.45442 142.773C7.96124 139.878 7.40374 137.006 6.86768 134.068C7.14643 134.003 7.46807 133.917 7.81115 133.917Z" fill="#E4E3E1"/>
<path d="M17.0957 126.508C17.1815 126.486 17.2029 126.551 17.1386 126.637C17.1171 126.659 17.0742 126.551 17.0957 126.508Z" fill="#595959"/>
<path d="M17.5889 67.4745C17.6103 67.3881 17.6961 67.3017 17.8462 67.2153C17.8247 67.3233 17.739 67.3881 17.5889 67.4745Z" fill="#FD6666"/>
<path d="M31.7835 104.886C31.0544 106.528 30.5827 106.852 28.8887 106.787C28.031 106.744 27.1948 106.657 26.3371 106.571C25.265 106.441 24.3 105.469 24.3644 104.368C24.5145 101.754 24.7289 99.1404 25.0291 96.5484C25.1577 95.4252 26.0583 94.6908 27.1948 94.7124C28.3312 94.7124 29.4677 94.7988 30.6041 94.9716C31.7406 95.1444 32.5554 96.4188 32.4482 97.65C32.2338 100.026 32.0193 102.402 31.7835 104.886ZM31.4618 98.1468C31.3761 97.326 30.8829 96.7212 30.111 96.6996C28.9531 96.6564 27.688 95.9436 26.6802 97.0884C26.5086 97.2828 26.3371 97.5852 26.3156 97.8444C26.1441 99.6372 25.9511 101.43 25.8653 103.223C25.8225 104.13 26.38 104.692 27.2806 104.843C27.8381 104.929 28.417 104.994 28.9745 105.037C30.2825 105.124 30.9043 104.605 31.0544 103.288C31.226 101.646 31.3332 99.9828 31.4618 98.1468Z" fill="#F9FCFB"/>
<path d="M43.341 107.824C42.2903 107.068 42.0759 106.096 42.226 104.929C42.4619 102.899 42.6334 100.868 42.7835 98.8164C42.9122 97.0452 43.8342 96.138 45.6139 96.2244C46.4716 96.2676 47.3293 96.3324 48.1656 96.462C49.4521 96.6348 50.3313 97.5852 50.2669 98.9028C50.1168 101.452 49.881 103.979 49.6022 106.506C49.4736 107.651 48.573 108.385 47.4365 108.32C46.0856 108.234 44.7562 108.018 43.341 107.824ZM48.6373 105.836C48.8303 104.411 49.0876 103.007 49.1948 101.581C49.4521 98.4276 49.2377 98.2116 46.1071 98.0604C46.0428 98.0604 45.957 98.0388 45.8927 98.0388C44.9063 98.0388 44.2201 98.5572 44.1129 99.5292C43.92 101.171 43.7484 102.834 43.7055 104.476C43.6841 104.972 43.9628 105.642 44.3274 105.988C45.1207 106.808 47.6509 106.7 48.6373 105.836Z" fill="#F9FCFB"/>
<path d="M29.039 109.94C28.8246 110.2 28.5244 110.61 28.2242 110.632C25.9728 110.783 23.8928 110.264 22.0273 108.796C24.3002 109.12 26.6375 109.508 29.039 109.94Z" fill="#34C2DE"/>
<path d="M31.462 98.2549C31.3334 100.004 31.2047 101.646 31.0332 103.288C30.9045 104.605 30.2613 105.102 28.9533 105.037C28.3743 104.994 27.8168 104.951 27.2593 104.843C26.3587 104.692 25.8012 104.13 25.8441 103.223C25.9299 101.43 26.1229 99.6373 26.2944 97.8444C26.3158 97.5852 26.4874 97.2828 26.6589 97.0884C27.6667 95.9436 28.9533 96.6564 30.0897 96.6996C30.8831 96.7212 31.3763 97.326 31.462 98.2549Z" fill="#06CDFF"/>
<path d="M48.5945 105.923C47.651 106.722 45.1208 106.809 44.3274 106.031C43.9629 105.664 43.7056 105.016 43.7056 104.519C43.7485 102.877 43.92 101.214 44.113 99.5725C44.2202 98.6004 44.9063 98.0604 45.8927 98.082C45.957 98.082 46.0428 98.1036 46.1071 98.1036C49.2377 98.2548 49.4522 98.4708 49.1948 101.624C49.0876 103.028 48.8303 104.432 48.5945 105.923Z" fill="#06CDFF"/>
</g>
</g>
</g>
</svg>
