<svg width="211" height="155" viewBox="0 0 211 155" fill="none" xmlns="http://www.w3.org/2000/svg">
    <defs>
        <filter id="filter0_d_1157_22728" x="0" y="0" width="211" height="155" filterUnits="userSpaceOnUse" color-interpolation-filters="sRGB">
            <feFlood flood-opacity="0" result="BackgroundImageFix"/>
            <feColorMatrix in="SourceAlpha" type="matrix" values="0 0 0 0 0 0 0 0 0 0 0 0 0 0 0 0 0 0 127 0" result="hardAlpha"/>
            <feOffset dy="4"/>
            <feGaussianBlur stdDeviation="2"/>
            <feComposite in2="hardAlpha" operator="out"/>
            <feColorMatrix type="matrix" values="0 0 0 0 0 0 0 0 0 0 0 0 0 0 0 0 0 0 0.25 0"/>
            <feBlend mode="normal" in2="BackgroundImageFix" result="effect1_dropShadow_1157_22728"/>
            <feBlend mode="normal" in="SourceGraphic" in2="effect1_dropShadow_1157_22728" result="shape"/>
        </filter>
        <radialGradient id="paint0_radial_1157_22728" cx="0" cy="0" r="1" gradientUnits="userSpaceOnUse" gradientTransform="translate(205.882 119.292) scale(18.4363 18.4945)">
            <stop stop-color="#004156"/>
            <stop offset="0.376" stop-color="#064B62"/>
            <stop offset="1" stop-color="#14637E"/>
        </radialGradient>
        <radialGradient id="paint1_radial_1157_22728" cx="0" cy="0" r="1" gradientUnits="userSpaceOnUse" gradientTransform="translate(205.881 119.292) scale(18.4365 18.4946)">
            <stop stop-color="#004156"/>
            <stop offset="0.376" stop-color="#064B62"/>
            <stop offset="1" stop-color="#14637E"/>
        </radialGradient>
        <radialGradient id="paint2_radial_1157_22728" cx="0" cy="0" r="1" gradientUnits="userSpaceOnUse" gradientTransform="translate(205.881 119.293) scale(20.5599 20.6246)">
            <stop stop-color="#004DCD"/>
            <stop offset="0.3057" stop-color="#0459CE"/>
            <stop offset="0.8511" stop-color="#1077D0"/>
            <stop offset="1" stop-color="#1481D1"/>
        </radialGradient>
        <linearGradient id="paint3_linear_1157_22728" x1="205.881" y1="133.565" x2="205.881" y2="112.939" gradientUnits="userSpaceOnUse">
            <stop stop-color="#FF8C29"/>
            <stop offset="0.1705" stop-color="#FF912A"/>
            <stop offset="0.3859" stop-color="#FFA12B"/>
            <stop offset="0.6253" stop-color="#FFBB2E"/>
            <stop offset="0.8804" stop-color="#FFDF32"/>
            <stop offset="1" stop-color="#FFF234"/>
        </linearGradient>
        <linearGradient id="paint4_linear_1157_22728" x1="205.536" y1="131.332" x2="205.536" y2="112.997" gradientUnits="userSpaceOnUse">
            <stop stop-color="#FF8C29"/>
            <stop offset="0.1705" stop-color="#FF912A"/>
            <stop offset="0.3859" stop-color="#FFA12B"/>
            <stop offset="0.6253" stop-color="#FFBB2E"/>
            <stop offset="0.8804" stop-color="#FFDF32"/>
            <stop offset="1" stop-color="#FFF234"/>
        </linearGradient>
        <linearGradient id="paint5_linear_1157_22728" x1="207.286" y1="133.565" x2="207.286" y2="112.939" gradientUnits="userSpaceOnUse">
            <stop stop-color="#FF8C29"/>
            <stop offset="0.1705" stop-color="#FF912A"/>
            <stop offset="0.3859" stop-color="#FFA12B"/>
            <stop offset="0.6253" stop-color="#FFBB2E"/>
            <stop offset="0.8804" stop-color="#FFDF32"/>
            <stop offset="1" stop-color="#FFF234"/>
        </linearGradient>
        <linearGradient id="paint6_linear_1157_22728" x1="204.179" y1="120.151" x2="204.179" y2="109.174" gradientUnits="userSpaceOnUse">
            <stop stop-color="#FF8C29"/>
            <stop offset="0.1705" stop-color="#FF912A"/>
            <stop offset="0.3859" stop-color="#FFA12B"/>
            <stop offset="0.6253" stop-color="#FFBB2E"/>
            <stop offset="0.8804" stop-color="#FFDF32"/>
            <stop offset="1" stop-color="#FFF234"/>
        </linearGradient>
        <linearGradient id="paint7_linear_1157_22728" x1="194.778" y1="128.383" x2="198.179" y2="128.383" gradientUnits="userSpaceOnUse">
            <stop stop-color="#FF8C29"/>
            <stop offset="0.1705" stop-color="#FF912A"/>
            <stop offset="0.3859" stop-color="#FFA12B"/>
            <stop offset="0.6253" stop-color="#FFBB2E"/>
            <stop offset="0.8804" stop-color="#FFDF32"/>
            <stop offset="1" stop-color="#FFF234"/>
        </linearGradient>
        <linearGradient id="paint8_linear_1157_22728" x1="197.132" y1="133.089" x2="199.348" y2="133.089" gradientUnits="userSpaceOnUse">
            <stop stop-color="#FF8C29"/>
            <stop offset="0.1705" stop-color="#FF912A"/>
            <stop offset="0.3859" stop-color="#FFA12B"/>
            <stop offset="0.6253" stop-color="#FFBB2E"/>
            <stop offset="0.8804" stop-color="#FFDF32"/>
            <stop offset="1" stop-color="#FFF234"/>
        </linearGradient>
        <clipPath id="clip0_1157_22728">
            <rect x="4" width="203" height="147" rx="10" fill="white"/>
        </clipPath>
        <clipPath id="clip1_1157_22728">
            <rect width="66" height="98" fill="white" transform="translate(2 50)"/>
        </clipPath>
    </defs>
<g filter="url(#filter0_d_1157_22728)">
<g clip-path="url(#clip0_1157_22728)">
<rect x="4" width="203" height="147" rx="10" fill="#00DBCD"/>
<path d="M65.1641 25.3096V27.2871H60.3564V30.9785H62.624C63.4678 30.9785 64.168 30.9727 64.7246 30.9609C65.2871 30.9492 65.7412 30.9111 66.0869 30.8467V33H57.7197C57.7842 32.6484 57.8223 32.1416 57.834 31.4795C57.8457 30.8115 57.8516 30.0439 57.8516 29.1768V23.9912C57.8516 23.124 57.8457 22.3594 57.834 21.6973C57.8223 21.0293 57.7842 20.5195 57.7197 20.168H65.8232V22.1895H60.3564V25.3096H65.1641ZM65.4541 15.1582L61.9385 18.6738H59.8291L62.3779 15.1582H65.4541ZM74.7705 26.6982C74.5713 26.5635 74.3809 26.4463 74.1992 26.3467C74.0234 26.2412 73.8447 26.1562 73.6631 26.0918C73.4873 26.0215 73.3027 25.9688 73.1094 25.9336C72.916 25.8984 72.7051 25.8809 72.4766 25.8809C72.1719 25.8809 71.8877 25.9424 71.624 26.0654C71.3604 26.1885 71.1289 26.3672 70.9297 26.6016C70.7363 26.8359 70.584 27.123 70.4727 27.4629C70.3613 27.7969 70.3057 28.1777 70.3057 28.6055C70.3057 28.9922 70.3555 29.3467 70.4551 29.6689C70.5605 29.9854 70.707 30.2578 70.8945 30.4863C71.082 30.709 71.3105 30.8848 71.5801 31.0137C71.8496 31.1367 72.1484 31.1982 72.4766 31.1982C72.7402 31.1982 72.9834 31.1777 73.2061 31.1367C73.4287 31.0898 73.6396 31.0254 73.8389 30.9434C74.0381 30.8613 74.2285 30.7617 74.4102 30.6445C74.5977 30.5273 74.7881 30.3926 74.9814 30.2402L75.2451 32.3848C75.0225 32.5195 74.7969 32.6396 74.5684 32.7451C74.3398 32.8506 74.0996 32.9385 73.8477 33.0088C73.5957 33.0791 73.3291 33.1318 73.0479 33.167C72.7666 33.2021 72.4619 33.2197 72.1338 33.2197C71.542 33.2197 70.9854 33.1201 70.4639 32.9209C69.9424 32.7217 69.4883 32.4287 69.1016 32.042C68.7148 31.6553 68.4072 31.1807 68.1787 30.6182C67.9561 30.0557 67.8447 29.4141 67.8447 28.6934C67.8447 28.0078 67.9531 27.3721 68.1699 26.7861C68.3867 26.1943 68.6943 25.6816 69.0928 25.248C69.4912 24.8145 69.9717 24.4746 70.5342 24.2285C71.1025 23.9824 71.7354 23.8594 72.4326 23.8594C73.0186 23.8594 73.5371 23.9209 73.9883 24.0439C74.4453 24.167 74.835 24.3135 75.1572 24.4834L74.7705 26.6982ZM79.2881 28.5439C79.2881 28.9658 79.3262 29.3438 79.4023 29.6777C79.4844 30.0059 79.6016 30.2871 79.7539 30.5215C79.9121 30.7559 80.1055 30.9346 80.334 31.0576C80.5684 31.1807 80.835 31.2422 81.1338 31.2422C81.415 31.2422 81.6699 31.1807 81.8984 31.0576C82.127 30.9346 82.3203 30.7559 82.4785 30.5215C82.6426 30.2871 82.7656 30.0059 82.8477 29.6777C82.9355 29.3438 82.9795 28.9658 82.9795 28.5439C82.9795 27.7002 82.8213 27.0381 82.5049 26.5576C82.1943 26.0771 81.7373 25.8369 81.1338 25.8369C80.8525 25.8369 80.5977 25.8984 80.3691 26.0215C80.1406 26.1445 79.9443 26.3232 79.7803 26.5576C79.6221 26.792 79.499 27.0762 79.4111 27.4102C79.3291 27.7441 79.2881 28.1221 79.2881 28.5439ZM76.8271 28.5439C76.8271 27.7881 76.9443 27.1201 77.1787 26.54C77.4131 25.9541 77.7295 25.4648 78.1279 25.0723C78.5322 24.6738 79.001 24.3721 79.5342 24.167C80.0674 23.9619 80.6299 23.8594 81.2217 23.8594C81.8428 23.8594 82.4111 23.9619 82.9268 24.167C83.4482 24.3721 83.8936 24.6738 84.2627 25.0723C84.6377 25.4648 84.9277 25.9541 85.1328 26.54C85.3379 27.1201 85.4404 27.7881 85.4404 28.5439C85.4404 29.2998 85.3232 29.9707 85.0889 30.5566C84.8545 31.1367 84.5352 31.626 84.1309 32.0244C83.7324 32.417 83.2666 32.7158 82.7334 32.9209C82.2002 33.1201 81.6377 33.2197 81.0459 33.2197C80.4248 33.2197 79.8564 33.1201 79.3408 32.9209C78.8252 32.7158 78.3799 32.417 78.0049 32.0244C77.6357 31.626 77.3457 31.1367 77.1348 30.5566C76.9297 29.9707 76.8271 29.2998 76.8271 28.5439ZM86.9346 26.54H93.3945V28.3857H86.9346V26.54ZM98.0615 29.1768C98.0615 29.6104 98.0615 30.0205 98.0615 30.4072C98.0674 30.7939 98.0732 31.1514 98.0791 31.4795C98.0908 31.8076 98.1055 32.1006 98.123 32.3584C98.1406 32.6162 98.1641 32.8301 98.1934 33H95.4248C95.4893 32.6484 95.5273 32.1416 95.5391 31.4795C95.5508 30.8115 95.5566 30.0439 95.5566 29.1768V22.9541C95.5566 22.5439 95.5508 22.1631 95.5391 21.8115C95.5332 21.4541 95.5215 21.1348 95.5039 20.8535C95.4863 20.5723 95.46 20.3438 95.4248 20.168C95.8818 20.1562 96.3564 20.1416 96.8486 20.124C97.2705 20.1123 97.7422 20.1035 98.2637 20.0977C98.7852 20.0859 99.3037 20.0801 99.8193 20.0801C100.505 20.0801 101.129 20.1592 101.691 20.3174C102.26 20.4697 102.746 20.7041 103.15 21.0205C103.555 21.3311 103.868 21.7236 104.091 22.1982C104.319 22.6729 104.434 23.2266 104.434 23.8594C104.434 24.3457 104.366 24.7852 104.231 25.1777C104.097 25.5645 103.909 25.9102 103.669 26.2148C103.435 26.5195 103.153 26.7803 102.825 26.9971C102.503 27.208 102.148 27.3809 101.762 27.5156C101.926 27.7441 102.128 28.0283 102.368 28.3682C102.608 28.7021 102.863 29.0566 103.133 29.4316C103.408 29.8066 103.687 30.1875 103.968 30.5742C104.249 30.9609 104.51 31.3213 104.75 31.6553C104.996 31.9834 105.21 32.2676 105.392 32.5078C105.579 32.748 105.714 32.9121 105.796 33H102.676L99.2832 27.8584H98.0615V29.1768ZM98.0615 25.9688H99.4238C99.8105 25.9688 100.156 25.9336 100.461 25.8633C100.771 25.793 101.035 25.6787 101.252 25.5205C101.469 25.3564 101.636 25.1426 101.753 24.8789C101.87 24.6152 101.929 24.29 101.929 23.9033C101.929 23.2412 101.721 22.7695 101.305 22.4883C100.889 22.2012 100.291 22.0576 99.5117 22.0576C99.3418 22.0576 99.1924 22.0605 99.0635 22.0664C98.9346 22.0664 98.8145 22.0693 98.7031 22.0752C98.5918 22.0752 98.4863 22.0781 98.3867 22.084C98.2871 22.0898 98.1787 22.0957 98.0615 22.1016V25.9688ZM114.102 33C114.061 32.9062 114.017 32.7979 113.97 32.6748C113.923 32.5459 113.876 32.4111 113.829 32.2705C113.788 32.1299 113.747 31.9834 113.706 31.8311C113.671 31.6787 113.642 31.5264 113.618 31.374C113.097 31.9775 112.558 32.4375 112.001 32.7539C111.444 33.0645 110.864 33.2197 110.261 33.2197C108.427 33.2197 107.51 31.96 107.51 29.4404V26.8477C107.51 26.5664 107.507 26.3115 107.501 26.083C107.501 25.8545 107.495 25.6348 107.483 25.4238C107.472 25.207 107.454 24.9873 107.431 24.7646C107.407 24.542 107.375 24.2988 107.334 24.0352H109.971V28.9131C109.971 29.3115 109.988 29.6543 110.023 29.9414C110.064 30.2285 110.132 30.4658 110.226 30.6533C110.319 30.835 110.442 30.9697 110.595 31.0576C110.747 31.1455 110.935 31.1895 111.157 31.1895C111.356 31.1895 111.567 31.1309 111.79 31.0137C112.019 30.8965 112.235 30.7471 112.44 30.5654C112.651 30.3779 112.842 30.1758 113.012 29.959C113.182 29.7422 113.311 29.5312 113.398 29.3262V26.8477C113.398 26.5605 113.396 26.3027 113.39 26.0742C113.39 25.8398 113.384 25.6172 113.372 25.4062C113.36 25.1953 113.343 24.9814 113.319 24.7646C113.296 24.5479 113.264 24.3047 113.223 24.0352H115.859V29.0449C115.859 29.9004 115.906 30.6504 116 31.2949C116.1 31.9336 116.243 32.502 116.431 33H114.102ZM124.569 33V28.166C124.569 27.7617 124.543 27.4219 124.49 27.1465C124.438 26.8711 124.355 26.6514 124.244 26.4873C124.133 26.3174 123.989 26.1973 123.813 26.127C123.644 26.0508 123.441 26.0127 123.207 26.0127C122.955 26.0127 122.709 26.0684 122.469 26.1797C122.229 26.291 122.006 26.4375 121.801 26.6191C121.596 26.8008 121.417 27.0029 121.265 27.2256C121.112 27.4482 120.998 27.6738 120.922 27.9023V33H118.461V27.5947C118.461 26.7275 118.411 25.9951 118.312 25.3975C118.218 24.7939 118.121 24.3398 118.021 24.0352H120.438C120.474 24.123 120.509 24.2402 120.544 24.3867C120.579 24.5273 120.611 24.6768 120.641 24.835C120.67 24.9873 120.696 25.1396 120.72 25.292L120.79 25.6611C121.071 25.3447 121.347 25.0723 121.616 24.8438C121.886 24.6152 122.158 24.4277 122.434 24.2812C122.709 24.1348 122.99 24.0293 123.277 23.9648C123.564 23.8945 123.863 23.8594 124.174 23.8594C124.619 23.8594 125.018 23.9355 125.369 24.0879C125.727 24.2402 126.028 24.4688 126.274 24.7734C126.521 25.0781 126.708 25.459 126.837 25.916C126.966 26.373 127.03 26.9033 127.03 27.5068V33H124.569ZM135.521 33V28.166C135.521 27.7617 135.494 27.4219 135.441 27.1465C135.389 26.8711 135.307 26.6514 135.195 26.4873C135.084 26.3174 134.94 26.1973 134.765 26.127C134.595 26.0508 134.393 26.0127 134.158 26.0127C133.906 26.0127 133.66 26.0684 133.42 26.1797C133.18 26.291 132.957 26.4375 132.752 26.6191C132.547 26.8008 132.368 27.0029 132.216 27.2256C132.063 27.4482 131.949 27.6738 131.873 27.9023V33H129.412V27.5947C129.412 26.7275 129.362 25.9951 129.263 25.3975C129.169 24.7939 129.072 24.3398 128.973 24.0352H131.39C131.425 24.123 131.46 24.2402 131.495 24.3867C131.53 24.5273 131.562 24.6768 131.592 24.835C131.621 24.9873 131.647 25.1396 131.671 25.292L131.741 25.6611C132.022 25.3447 132.298 25.0723 132.567 24.8438C132.837 24.6152 133.109 24.4277 133.385 24.2812C133.66 24.1348 133.941 24.0293 134.229 23.9648C134.516 23.8945 134.814 23.8594 135.125 23.8594C135.57 23.8594 135.969 23.9355 136.32 24.0879C136.678 24.2402 136.979 24.4688 137.226 24.7734C137.472 25.0781 137.659 25.459 137.788 25.916C137.917 26.373 137.981 26.9033 137.981 27.5068V33H135.521ZM142.288 29.0449C142.347 29.8066 142.561 30.3574 142.93 30.6973C143.305 31.0312 143.823 31.1982 144.485 31.1982C145.065 31.1982 145.628 31.1338 146.173 31.0049C146.724 30.8701 147.274 30.6387 147.825 30.3105L148.01 32.3408C147.693 32.499 147.383 32.6338 147.078 32.7451C146.779 32.8564 146.478 32.9473 146.173 33.0176C145.874 33.0879 145.566 33.1377 145.25 33.167C144.934 33.2021 144.605 33.2197 144.266 33.2197C143.686 33.2197 143.129 33.123 142.596 32.9297C142.068 32.7305 141.603 32.4404 141.198 32.0596C140.794 31.6729 140.472 31.1953 140.231 30.627C139.997 30.0586 139.88 29.3994 139.88 28.6494C139.88 27.9229 139.979 27.2666 140.179 26.6807C140.384 26.0889 140.677 25.585 141.058 25.1689C141.438 24.7471 141.898 24.4248 142.438 24.2021C142.977 23.9736 143.586 23.8594 144.266 23.8594C144.758 23.8594 145.188 23.9209 145.558 24.0439C145.933 24.1611 146.255 24.3252 146.524 24.5361C146.8 24.7412 147.028 24.9873 147.21 25.2744C147.397 25.5557 147.544 25.8633 147.649 26.1973C147.761 26.5254 147.84 26.8711 147.887 27.2344C147.934 27.5977 147.957 27.9609 147.957 28.3242V28.4824C147.957 28.5469 147.957 28.6143 147.957 28.6846C147.963 28.7549 147.966 28.8223 147.966 28.8867V29.0449H142.288ZM144.143 25.7051C143.633 25.7051 143.229 25.8428 142.93 26.1182C142.637 26.3877 142.44 26.8359 142.341 27.4629H145.725C145.725 26.8418 145.59 26.3936 145.32 26.1182C145.057 25.8428 144.664 25.7051 144.143 25.7051ZM150.119 33V27.5947C150.119 26.7275 150.069 25.9951 149.97 25.3975C149.876 24.7939 149.779 24.3398 149.68 24.0352H152.097C152.132 24.1289 152.167 24.252 152.202 24.4043C152.237 24.5508 152.27 24.7061 152.299 24.8701C152.328 25.0342 152.354 25.1953 152.378 25.3535L152.448 25.749C152.659 25.4443 152.885 25.1748 153.125 24.9404C153.365 24.7061 153.605 24.5098 153.846 24.3516C154.092 24.1875 154.332 24.0645 154.566 23.9824C154.801 23.9004 155.018 23.8594 155.217 23.8594C155.627 23.8594 155.976 23.9473 156.263 24.123C156.556 24.2988 156.793 24.5391 156.975 24.8438C157.162 25.1426 157.297 25.4912 157.379 25.8896C157.461 26.2881 157.502 26.71 157.502 27.1553L155.542 27.4629C155.513 27.0645 155.416 26.7451 155.252 26.5049C155.088 26.2588 154.818 26.1357 154.443 26.1357C154.297 26.1357 154.13 26.2002 153.942 26.3291C153.761 26.458 153.582 26.625 153.406 26.8301C153.23 27.0352 153.066 27.2725 152.914 27.542C152.768 27.8057 152.656 28.0723 152.58 28.3418V33H150.119Z" fill="white"/>
<rect x="26" y="50" width="159" height="71" rx="10" fill="#00AA9F"/>
<path d="M214.163 139.592C212.948 139.592 211.776 139.298 210.687 138.724L205.885 136.189L201.084 138.724C199.981 139.298 198.823 139.592 197.608 139.592C195.403 139.592 193.309 138.612 191.872 136.904C190.462 135.223 189.862 132.997 190.239 130.813L191.16 125.45L187.266 121.641C185.214 119.639 184.488 116.685 185.367 113.954C186.247 111.224 188.564 109.263 191.397 108.857L196.771 108.073L199.172 103.187C200.442 100.596 203.01 99 205.885 99C208.747 99 211.315 100.596 212.585 103.187L214.986 108.073L220.36 108.857C223.193 109.277 225.51 111.224 226.39 113.954C227.269 116.685 226.557 119.639 224.505 121.641L220.611 125.45L221.532 130.813C221.909 132.997 221.309 135.223 219.899 136.904C218.462 138.598 216.368 139.592 214.163 139.592Z" fill="#1481D1"/>
<path d="M214.163 137.45C213.297 137.45 212.46 137.24 211.678 136.819L205.886 133.767L200.093 136.819C199.311 137.24 198.46 137.45 197.609 137.45C196.031 137.45 194.538 136.75 193.505 135.517C192.486 134.299 192.067 132.759 192.346 131.163L193.449 124.694L188.759 120.115C187.294 118.673 186.777 116.573 187.405 114.612C188.033 112.652 189.694 111.252 191.732 110.958L198.209 110.02L201.112 104.125C202.019 102.276 203.862 101.128 205.914 101.128C207.965 101.128 209.808 102.276 210.715 104.125L213.618 110.02L220.095 110.958C222.119 111.252 223.78 112.652 224.422 114.612C225.05 116.573 224.534 118.673 223.068 120.115L218.336 124.694L219.439 131.163C219.704 132.759 219.299 134.299 218.266 135.517C217.247 136.75 215.74 137.45 214.163 137.45Z" fill="url(#paint0_radial_1157_22728)"/>
<path opacity="0.43" d="M224.38 114.612C223.751 112.652 222.091 111.252 220.053 110.958L213.576 110.02L210.673 104.125C209.766 102.276 207.923 101.128 205.871 101.128C203.82 101.128 201.977 102.276 201.07 104.125L198.167 110.02L191.69 110.958C189.652 111.252 188.005 112.652 187.363 114.612C186.721 116.573 187.251 118.673 188.717 120.115L191.62 122.957C192.541 121.571 193.658 120.311 194.914 119.261C198.837 115.984 203.317 114.976 208.314 115.732C213.004 116.447 217.415 118.827 220.011 122.887C220.025 122.916 220.039 122.943 220.067 122.972L222.998 120.115C224.491 118.673 225.008 116.573 224.38 114.612Z" fill="url(#paint1_radial_1157_22728)"/>
<path opacity="0.45" d="M226.39 113.954C225.51 111.224 223.193 109.263 220.36 108.857L214.986 108.059L212.585 103.173C211.315 100.596 208.747 99 205.885 99C203.024 99 200.456 100.596 199.186 103.187L196.785 108.073L191.397 108.843C188.564 109.263 186.247 111.21 185.367 113.94C184.488 116.671 185.214 119.625 187.266 121.627L191.16 125.436L190.239 130.799C189.862 132.983 190.462 135.209 191.872 136.889C193.309 138.598 195.403 139.578 197.608 139.578C198.823 139.578 199.995 139.284 201.084 138.71L205.885 136.175L210.687 138.71C211.79 139.284 212.948 139.578 214.163 139.578C216.368 139.578 218.462 138.598 219.899 136.889C221.309 135.209 221.909 132.983 221.532 130.799L220.611 125.436L224.505 121.627C226.557 119.625 227.283 116.685 226.39 113.954ZM219.634 125.128L220.639 130.967C220.96 132.885 220.444 134.831 219.201 136.315C217.931 137.814 216.103 138.682 214.163 138.682C213.102 138.682 212.069 138.416 211.106 137.912L205.872 135.153L200.637 137.912C199.674 138.416 198.641 138.682 197.581 138.682C195.64 138.682 193.812 137.814 192.542 136.315C191.299 134.845 190.783 132.899 191.104 130.967L192.109 125.128L187.88 120.983C186.079 119.219 185.437 116.629 186.219 114.234C187 111.84 189.024 110.118 191.523 109.754L197.371 108.899L199.981 103.579C201.098 101.31 203.345 99.9101 205.872 99.9101C208.384 99.9101 210.645 101.31 211.762 103.579L214.372 108.899L220.22 109.754C222.705 110.118 224.743 111.84 225.524 114.234C226.306 116.629 225.664 119.219 223.863 120.983L219.634 125.128Z" fill="url(#paint2_radial_1157_22728)"/>
<path d="M209.863 104.531L212.976 110.846L219.927 111.854C223.57 112.386 225.022 116.881 222.384 119.457L217.359 124.372L218.545 131.317C219.173 134.957 215.363 137.73 212.097 136.021L205.885 132.745L199.674 136.021C196.422 137.744 192.611 134.957 193.225 131.317L194.412 124.372L189.387 119.457C186.749 116.881 188.201 112.386 191.844 111.854L198.795 110.846L201.907 104.531C203.526 101.212 208.23 101.212 209.863 104.531Z" fill="url(#paint3_linear_1157_22728)"/>
<path opacity="0.39" d="M189.694 114.976C189.834 116.166 191.132 117.287 192.193 117.805C196.869 120.087 202.242 120.563 207.351 120.171C211.231 119.877 218.587 119.541 220.918 115.9C223.501 111.84 214.791 111.854 212.502 111.518L209.598 105.623C208.077 102.528 203.68 102.528 202.159 105.623L199.255 111.518C197.287 111.812 195.291 112.022 193.323 112.386C192.374 112.568 191.006 112.68 190.308 113.38C189.792 113.912 189.624 114.458 189.694 114.976Z" fill="url(#paint4_linear_1157_22728)"/>
<path opacity="0.41" d="M223.417 117.917C223.068 118.785 220.639 120.339 219.844 121.053C218.574 122.173 217.108 123.321 215.489 123.854C215.978 126.192 218.992 131.779 216.117 133.711C213.13 135.713 207.896 131.555 206.151 129.426C203.82 131.289 200.065 135.419 196.66 134.383C192.891 133.235 194.217 126.864 195.892 124.568C194.608 123.825 193.784 122.649 192.514 121.963C192.067 121.725 191.607 121.459 191.16 121.179L194.412 124.357L193.212 131.317C192.584 134.957 196.394 137.73 199.661 136.021L205.872 132.745L212.083 136.021C215.349 137.744 219.146 134.957 218.532 131.317L217.345 124.372L222.37 119.457C222.859 118.995 223.208 118.463 223.417 117.917Z" fill="url(#paint5_linear_1157_22728)"/>
<path opacity="0.39" d="M200.874 111.182C201.838 111.994 203.75 110.342 204.434 109.782C205.676 108.759 207.211 107.289 207.714 105.693C208.872 101.94 203.275 103.355 202.159 105.623C201.74 106.491 199.632 110.132 200.874 111.182Z" fill="url(#paint6_linear_1157_22728)"/>
<path opacity="0.39" d="M196.115 131.891C198.334 131.54 199.004 124.68 196.911 124.862C195.026 125.03 193.854 131.148 195.724 131.849C195.85 131.905 195.989 131.919 196.115 131.891Z" fill="url(#paint7_linear_1157_22728)"/>
<path opacity="0.39" d="M198.935 132.437C198.404 132.171 197.497 132.297 197.218 132.941C196.687 134.145 198.921 134.047 199.256 133.389C199.479 132.941 199.284 132.605 198.935 132.437Z" fill="url(#paint8_linear_1157_22728)"/>
<g clip-path="url(#clip1_1157_22728)">
<path d="M36.3724 63.3705C37.9591 63.7809 39.5458 64.1697 41.1326 64.5801C41.8831 59.936 44.3704 56.2208 47.7369 53.0456C49.8811 51.0152 52.4757 49.8271 55.4991 50.0215C56.2495 50.0647 57.0644 50.2808 57.7076 50.6696C60.0234 52.0304 62.4464 53.4344 63.0468 56.3504C63.3041 57.6248 63.154 59.0288 62.8967 60.3248C62.4893 62.5497 61.0741 64.2777 59.7447 66.0273C59.0585 66.9561 58.2223 67.7769 57.4718 68.6193C59.1014 69.0081 60.7954 69.2457 62.3607 69.8073C64.4406 70.5633 66.4776 71.5353 67.4425 73.7601C68.4503 76.0714 68 78.2746 66.7564 80.3914C65.4698 82.5514 63.5185 83.2426 61.1384 83.0698C60.6881 83.0266 60.2378 83.0698 59.7876 83.0698C60.1735 84.3442 60.6453 85.489 60.8382 86.677C61.2242 88.9883 61.5673 91.3643 59.9162 93.3947C58.5439 95.0579 55.8207 95.6627 53.9552 94.7339C49.538 92.9411 46.0858 90.1115 43.1482 86.5906C43.0839 86.5258 42.9766 86.5042 42.7622 86.4178C42.9338 87.4547 43.0839 88.3835 43.2339 89.4419C43.2339 90.1547 43.2339 90.7595 43.2339 91.3427C43.2125 92.7899 42.8051 94.0859 41.3685 94.8851C38.6238 95.3387 36.3509 94.3235 34.2067 92.9411C31.0332 90.9107 28.2242 88.4483 26.23 85.057C24.5361 89.4419 22.9279 93.7835 17.9104 95.2955C18.0819 95.6627 18.2749 95.9435 18.3178 96.2459C18.5107 97.5419 18.7681 98.8379 18.7466 100.134C18.7252 101.171 17.8889 101.754 16.924 102.035C15.9591 102.316 15.1657 101.97 14.5224 101.236C13.4074 99.9396 13 98.4275 13.2573 96.7211C13.3217 96.3539 13.4289 95.8355 13.2359 95.6195C12.4211 94.6907 11.4991 93.8483 10.5985 92.9843C9.07605 90.6515 8.04681 88.1459 8.21835 85.2946C8.34701 83.1994 8.51855 81.1042 8.69009 79.009C8.73297 78.6418 8.9474 78.2746 9.16182 77.7994C11.6063 73.9977 14.2437 70.5201 17.5887 67.5609C17.7388 67.4745 17.8246 67.4097 17.9104 67.3449C17.9104 67.3449 17.8889 67.3449 17.9747 67.3449C18.9182 66.8481 19.7759 66.3081 20.655 65.8545C25.3295 63.4785 30.2184 62.3336 35.4503 63.5865C35.7291 63.5649 36.0507 63.4137 36.3724 63.3705Z" fill="#756861"/>
<path d="M41.4755 94.8419C42.8264 94.0427 43.2124 92.7683 43.2338 91.3211C43.2553 90.7163 43.2338 90.1115 43.2981 89.4419C44.3059 90.3923 45.228 91.4507 46.2143 92.4227C48.2728 94.4963 50.7601 95.5979 53.6763 95.5547C53.3761 98.4276 53.3332 101.365 52.69 104.152C52.0038 107.132 49.7952 109.12 46.9219 110.027C44.3917 110.826 41.7543 111.15 39.0525 110.74C37.4229 110.502 35.7289 110.567 34.0779 110.459C32.8342 110.372 31.5691 110.221 30.1539 110.07C29.6822 110.005 29.4034 109.984 29.0389 109.94C26.6373 109.508 24.3215 109.12 21.9414 108.688C21.6412 108.558 21.3839 108.472 21.1052 108.299C20.7406 107.564 20.3332 106.916 20.0545 106.225C19.304 104.346 19.5399 102.402 19.8401 100.48C20.3976 96.9156 22.0701 93.8915 24.5574 91.3643C26.3371 89.5499 27.8167 89.7443 29.3391 91.6451C31.9765 94.9067 35.4502 96.2459 39.5457 95.9219C40.2104 95.8787 40.8323 95.2091 41.4755 94.8419ZM31.805 104.8C32.0194 102.402 32.2338 100.026 32.4482 97.6284C32.5555 96.4187 31.7406 95.1227 30.6042 94.9499C29.4892 94.7771 28.3313 94.7123 27.1948 94.6907C26.0584 94.6907 25.1578 95.4035 25.0291 96.5267C24.7504 99.1188 24.5145 101.732 24.3644 104.346C24.3001 105.448 25.265 106.42 26.3371 106.549C27.1948 106.657 28.0311 106.744 28.8888 106.765C30.5827 106.852 31.0545 106.528 31.805 104.8ZM43.4054 107.867C44.7348 108.018 46.0642 108.256 47.4151 108.32C48.5516 108.385 49.4521 107.629 49.5808 106.506C49.8596 103.979 50.0954 101.452 50.2455 98.9028C50.3313 97.5852 49.4307 96.6348 48.1442 96.462C47.3079 96.354 46.4502 96.2675 45.5925 96.2243C43.7913 96.1595 42.8907 97.0452 42.7621 98.8164C42.612 100.847 42.4619 102.899 42.2046 104.929C42.0759 106.096 42.2904 107.068 43.4054 107.867Z" fill="#FECE91"/>
<path d="M21.1268 108.385C21.3841 108.472 21.6414 108.558 21.9845 108.752C23.8928 110.265 25.9728 110.783 28.2242 110.632C28.5244 110.61 28.8246 110.2 29.1248 109.984C29.4036 110.005 29.7037 110.027 30.0683 110.07C30.1755 110.459 30.1755 110.805 30.1755 111.345C30.0897 112.749 30.0468 114.001 29.9396 115.233C29.8324 116.615 29.6609 117.976 29.5108 119.358C29.1248 120.849 28.7388 122.317 28.2242 123.808C24.4289 124.326 21.1053 123.311 17.9747 121.497C17.3314 121.129 16.6667 120.762 16.0234 120.395C16.3665 118.451 16.7096 116.485 17.0956 114.39C17.6316 113.872 18.1034 113.44 18.6609 113.116C20.6979 111.928 21.1053 109.919 19.733 108.083C20.2262 108.169 20.6765 108.277 21.1268 108.385Z" fill="#69D1E6"/>
<path d="M21.1055 108.299C20.6766 108.277 20.2264 108.169 19.6474 108.061C19.2614 107.91 19.0041 107.759 18.7683 107.608C17.6318 106.722 16.4954 105.815 15.1445 104.756C13.9008 105.037 12.2497 105.08 10.7059 104.411C8.13278 103.266 6.65325 100.825 7.06066 97.8876C7.25364 96.4836 7.63961 95.2956 8.58308 94.3236C9.11914 93.7836 9.82674 93.4164 10.5343 92.9628C11.4993 93.8052 12.4213 94.6476 13.2361 95.5764C13.4291 95.7924 13.3219 96.3108 13.2575 96.678C13.0002 98.3844 13.4291 99.8964 14.5226 101.192C15.1445 101.927 15.9593 102.272 16.9242 101.992C17.8891 101.711 18.7254 101.128 18.7468 100.091C18.7683 98.7948 18.511 97.4988 18.318 96.2028C18.2751 95.9004 18.0607 95.6196 17.9106 95.2524C22.9495 93.7404 24.5363 89.3988 26.2302 85.0139C28.2244 88.4051 31.0119 90.8676 34.2069 92.898C36.3511 94.2588 38.624 95.2956 41.3687 94.842C40.8326 95.2092 40.2108 95.8788 39.546 95.9436C35.4505 96.2676 31.9768 94.9284 29.3394 91.6668C27.817 89.7876 26.3375 89.5932 24.5577 91.386C22.0704 93.9132 20.3979 96.9372 19.8404 100.501C19.5402 102.424 19.3043 104.368 20.0548 106.247C20.3336 106.938 20.7624 107.564 21.1055 108.299Z" fill="#FCB561"/>
<path d="M17.5458 67.4962C14.2651 70.4338 11.6277 73.9114 9.18321 77.6483C8.53994 76.2443 7.70368 74.8403 7.46781 73.3498C7.16762 71.3194 7.2105 69.2242 7.96099 67.237C8.69004 65.3362 9.89082 63.8242 11.4347 62.485C13.4288 60.7353 15.8518 60.1953 18.3177 59.7417C19.1754 59.5905 20.1189 59.8497 21.0409 59.9361C21.77 60.0009 22.499 60.0873 23.3353 60.2385C23.1637 60.6489 22.9279 60.9945 22.6491 61.3185C21.2125 63.0034 19.7329 64.6666 18.3177 66.3514C18.1033 66.589 18.039 66.9562 17.8889 67.2802C17.8889 67.2802 17.9103 67.2802 17.846 67.2586C17.6959 67.3018 17.6101 67.4098 17.5458 67.4962Z" fill="#69D1E6"/>
<path d="M17.9746 67.2585C18.0389 66.9561 18.1033 66.5889 18.3177 66.3513C19.7543 64.6665 21.2124 63.0033 22.6491 61.3184C22.9278 60.9944 23.1637 60.6488 23.421 60.2384C24.7933 59.2016 26.0799 58.1648 27.5165 57.3224C29.1461 56.3504 30.9473 55.94 32.8343 56.4584C33.692 56.696 34.6783 56.7608 35.4074 57.2144C36.9727 58.1864 36.8226 59.8928 36.7368 61.4696C36.6939 62.0528 36.4795 62.6144 36.3508 63.2841C36.0506 63.4137 35.7076 63.5865 35.4288 63.5001C30.2183 62.2472 25.3294 63.3921 20.6549 65.7681C19.7758 66.2217 18.9181 66.7401 17.9746 67.2585Z" fill="#FD6666"/>
<path d="M15.9805 120.46C16.6666 120.762 17.3313 121.108 17.9746 121.475C21.1267 123.289 24.4288 124.305 28.1598 123.829C27.6023 125.125 27.0877 126.465 25.7368 127.156C25.9512 128.128 26.9161 128.97 26.0584 130.093C24.6647 131.065 23.421 132.016 22.1774 132.945C22.0916 132.945 21.9844 132.945 21.7485 132.923C21.1481 132.772 20.6978 132.642 20.2475 132.426C19.3041 130.677 18.3606 128.992 17.3957 127.307C17.3313 127.199 17.1598 127.177 17.0312 127.113C17.0526 127.005 17.0526 126.918 17.0955 126.724C17.1598 126.551 17.1384 126.508 17.074 126.465C16.8596 125.73 16.6023 124.996 16.4522 124.24C16.2592 123.009 16.1091 121.777 15.9805 120.46Z" fill="#756861"/>
<path d="M13.8792 113.872C11.7778 115.103 9.84802 116.55 8.23983 118.408C8.02541 118.645 7.93964 119.164 8.04685 119.466C8.51858 120.741 8.3256 121.669 7.3178 122.533C7.08194 122.749 6.86751 122.987 6.63164 123.225C5.195 124.672 4.85192 124.542 3.26517 123.462C1.59266 122.339 2.00006 120.827 2.12872 119.401C2.23593 118.321 3.24373 117.911 4.1872 117.587C4.72326 117.393 5.34509 117.177 5.68817 116.788C7.618 114.52 9.69792 112.403 12.3139 110.718C12.9357 111.777 13.4075 112.835 13.8792 113.872Z" fill="#FECE91"/>
<path d="M33.5205 117.371C34.3996 118.667 35.772 119.056 37.2086 119.315C37.8519 119.445 38.1306 119.099 38.3451 118.537C38.731 117.544 39.4601 116.658 40.5536 116.982C41.7973 117.371 42.9337 118.149 44.0916 118.818C44.2846 118.926 44.4776 119.38 44.3918 119.553C43.8558 120.762 43.8558 122.231 42.3977 123.009C41.2612 123.613 40.232 123.635 39.31 122.944C38.1092 122.058 36.8012 121.864 35.4074 121.648C33.6706 121.41 32.2554 120.46 31.0117 119.077C31.848 118.429 32.6842 117.911 33.5205 117.371Z" fill="#FDC178"/>
<path d="M13.9434 113.893C13.4074 112.813 12.9356 111.755 12.3996 110.675C12.1637 109.616 12.9785 109.076 13.6004 108.709C15.1228 107.824 16.7953 107.327 18.6822 107.629C19.0039 107.759 19.2397 107.91 19.5614 108.083C21.0838 109.94 20.6764 111.928 18.6394 113.137C18.1033 113.461 17.6101 113.872 17.074 114.325C16.6023 114.52 16.1091 114.844 15.7232 114.757C15.1228 114.606 14.5867 114.196 13.9434 113.893Z" fill="#34C2DE"/>
<path d="M22.2202 133.009C23.421 131.994 24.6647 131.065 25.9941 130.115C27.4522 132.275 28.4171 134.629 29.0604 137.135C29.1033 137.329 29.189 137.524 29.1676 137.783C27.2378 137.373 25.458 137.653 23.7426 138.388C23.2495 136.617 22.7563 134.867 22.2202 133.009Z" fill="#FECE91"/>
<path d="M23.7212 138.474C25.458 137.653 27.2163 137.373 29.1461 137.869C29.5535 139.014 29.8537 140.159 30.2397 141.412C30.2397 141.563 30.1754 141.606 30.1111 141.606C28.4814 141.822 27.1734 142.319 27.0662 144.35C27.0233 145.3 25.8654 146.078 24.9863 146.078C24.7075 144.371 24.4074 142.686 24.1286 140.98C23.9999 140.181 23.8498 139.381 23.7212 138.474Z" fill="#F9FCFB"/>
<path d="M8.71143 134.025C9.76211 133.441 10.8342 133.441 12.0136 133.679C12.7641 133.83 13.6432 133.333 14.6081 133.204C15.9375 134.457 16.9668 135.753 17.2884 137.481C16.1305 137.977 14.9726 138.474 13.8362 138.993C13.5574 139.122 13.3644 139.403 13.0214 139.554C12.8927 139.403 12.8713 139.295 12.8713 139.187C12.7212 137.157 12.3781 136.789 10.4483 136.12C9.48336 135.796 8.77575 135.148 8.71143 134.025Z" fill="#E4E3E1"/>
<path d="M53.6979 95.49C50.7388 95.598 48.2729 94.4964 46.2144 92.4228C45.2281 91.4292 44.3061 90.3924 43.2983 89.334C43.0838 88.362 42.9337 87.4116 42.7622 86.3748C42.9552 86.4612 43.0838 86.4828 43.1482 86.5476C46.0858 90.0684 49.538 92.898 53.8909 94.6692C53.8694 94.95 53.8051 95.1876 53.6979 95.49Z" fill="#FCB561"/>
<path d="M17.3742 137.459C16.9668 135.731 15.9375 134.457 14.6938 133.204C15.4443 132.686 16.2163 132.232 17.1383 131.692C18.2747 131.886 19.2611 132.189 20.2689 132.469C20.7192 132.621 21.1695 132.75 21.7055 132.901C20.805 134.91 19.304 136.358 17.3742 137.459Z" fill="#FDC178"/>
<path d="M33.5421 117.285C32.6844 117.911 31.8481 118.429 30.9904 119.034C30.5401 119.185 30.1113 119.25 29.5967 119.337C29.661 117.976 29.8325 116.593 29.9398 115.233C30.047 114.001 30.0684 112.749 30.1542 111.409C31.698 111.517 32.2341 112.857 32.8988 113.937C33.4778 114.887 33.7136 116.032 33.5421 117.285Z" fill="#34C2DE"/>
<path d="M12.1421 140.937C11.606 141.563 11.0914 142.211 10.5339 142.816C10.3409 143.032 9.99784 143.118 9.61187 143.205C9.09725 141.002 8.71129 138.885 8.38965 136.746C10.5768 137.351 11.8848 138.669 12.1421 140.937Z" fill="#C6C6C6"/>
<path d="M31.6337 142.125C32.8988 142.427 33.6707 143.291 34.1425 144.609C32.0411 145.278 29.9397 145.818 27.8384 146.272C28.2243 144.004 29.6181 142.751 31.6337 142.125Z" fill="#E4E3E1"/>
<path d="M31.5907 142.06C29.6179 142.751 28.2242 144.004 27.7739 146.315C26.8733 146.618 26.0371 146.79 25.2008 146.942C25.1365 146.704 25.0721 146.466 25.0078 146.164C25.887 146.078 27.0448 145.3 27.0877 144.35C27.1949 142.319 28.4815 141.822 30.1326 141.606C30.1969 141.606 30.2612 141.563 30.347 141.434C30.7544 141.563 31.1618 141.779 31.5907 142.06Z" fill="#595959"/>
<path d="M12.2068 140.894C11.9066 138.647 10.5986 137.351 8.34718 136.681C8.11131 135.731 7.98266 134.867 7.854 133.981C8.08987 133.981 8.3043 134.003 8.62593 134.003C8.77603 135.126 9.48363 135.774 10.4271 136.098C12.3569 136.768 12.7 137.135 12.8501 139.165C12.8501 139.273 12.893 139.381 12.9359 139.554C12.7429 140.073 12.507 140.461 12.2068 140.894Z" fill="#595959"/>
<path d="M20.2476 132.405C19.2613 132.189 18.2535 131.908 17.1599 131.627C15.5088 130.201 16.388 128.689 16.9669 127.134C17.1599 127.156 17.3314 127.199 17.3958 127.285C18.3607 128.97 19.3042 130.655 20.2476 132.405Z" fill="#595959"/>
<path d="M25.1151 146.985C26.0371 146.79 26.8734 146.618 27.774 146.402C29.9182 145.818 32.0196 145.278 34.1638 144.674C34.3997 144.89 34.5927 145.17 34.85 145.559C31.505 146.402 28.3958 147.179 25.1151 148C25.0936 147.654 25.0722 147.33 25.1151 146.985Z" fill="#F9FCFB"/>
<path d="M7.81115 133.917C7.96124 134.867 8.0899 135.731 8.24 136.682C8.66885 138.885 9.07625 141.023 9.5051 143.226C8.88327 143.723 8.58308 143.594 8.45442 142.773C7.96124 139.878 7.40374 137.006 6.86768 134.068C7.14643 134.003 7.46807 133.917 7.81115 133.917Z" fill="#E4E3E1"/>
<path d="M17.0957 126.508C17.1815 126.486 17.2029 126.551 17.1386 126.637C17.1171 126.659 17.0742 126.551 17.0957 126.508Z" fill="#595959"/>
<path d="M17.5889 67.4745C17.6103 67.3881 17.6961 67.3017 17.8462 67.2153C17.8247 67.3233 17.739 67.3881 17.5889 67.4745Z" fill="#FD6666"/>
<path d="M31.7835 104.886C31.0544 106.528 30.5827 106.852 28.8887 106.787C28.031 106.744 27.1948 106.657 26.3371 106.571C25.265 106.441 24.3 105.469 24.3644 104.368C24.5145 101.754 24.7289 99.1404 25.0291 96.5484C25.1577 95.4252 26.0583 94.6908 27.1948 94.7124C28.3312 94.7124 29.4677 94.7988 30.6041 94.9716C31.7406 95.1444 32.5554 96.4188 32.4482 97.65C32.2338 100.026 32.0193 102.402 31.7835 104.886ZM31.4618 98.1468C31.3761 97.326 30.8829 96.7212 30.111 96.6996C28.9531 96.6564 27.688 95.9436 26.6802 97.0884C26.5086 97.2828 26.3371 97.5852 26.3156 97.8444C26.1441 99.6372 25.9511 101.43 25.8653 103.223C25.8225 104.13 26.38 104.692 27.2806 104.843C27.8381 104.929 28.417 104.994 28.9745 105.037C30.2825 105.124 30.9043 104.605 31.0544 103.288C31.226 101.646 31.3332 99.9828 31.4618 98.1468Z" fill="#F9FCFB"/>
<path d="M43.341 107.824C42.2903 107.068 42.0759 106.096 42.226 104.929C42.4619 102.899 42.6334 100.868 42.7835 98.8164C42.9122 97.0452 43.8342 96.138 45.6139 96.2244C46.4716 96.2676 47.3293 96.3324 48.1656 96.462C49.4521 96.6348 50.3313 97.5852 50.2669 98.9028C50.1168 101.452 49.881 103.979 49.6022 106.506C49.4736 107.651 48.573 108.385 47.4365 108.32C46.0856 108.234 44.7562 108.018 43.341 107.824ZM48.6373 105.836C48.8303 104.411 49.0876 103.007 49.1948 101.581C49.4521 98.4276 49.2377 98.2116 46.1071 98.0604C46.0428 98.0604 45.957 98.0388 45.8927 98.0388C44.9063 98.0388 44.2201 98.5572 44.1129 99.5292C43.92 101.171 43.7484 102.834 43.7055 104.476C43.6841 104.972 43.9628 105.642 44.3274 105.988C45.1207 106.808 47.6509 106.7 48.6373 105.836Z" fill="#F9FCFB"/>
<path d="M29.039 109.94C28.8246 110.2 28.5244 110.61 28.2242 110.632C25.9728 110.783 23.8928 110.264 22.0273 108.796C24.3002 109.12 26.6375 109.508 29.039 109.94Z" fill="#34C2DE"/>
<path d="M31.462 98.2549C31.3334 100.004 31.2047 101.646 31.0332 103.288C30.9045 104.605 30.2613 105.102 28.9533 105.037C28.3743 104.994 27.8168 104.951 27.2593 104.843C26.3587 104.692 25.8012 104.13 25.8441 103.223C25.9299 101.43 26.1229 99.6373 26.2944 97.8444C26.3158 97.5852 26.4874 97.2828 26.6589 97.0884C27.6667 95.9436 28.9533 96.6564 30.0897 96.6996C30.8831 96.7212 31.3763 97.326 31.462 98.2549Z" fill="#06CDFF"/>
<path d="M48.5945 105.923C47.651 106.722 45.1208 106.809 44.3274 106.031C43.9629 105.664 43.7056 105.016 43.7056 104.519C43.7485 102.877 43.92 101.214 44.113 99.5725C44.2202 98.6004 44.9063 98.0604 45.8927 98.082C45.957 98.082 46.0428 98.1036 46.1071 98.1036C49.2377 98.2548 49.4522 98.4708 49.1948 101.624C49.0876 103.028 48.8303 104.432 48.5945 105.923Z" fill="#06CDFF"/>
</g>
</g>
</g>
</svg>
