<svg width="211" height="155" viewBox="0 0 211 155" fill="none" xmlns="http://www.w3.org/2000/svg">

    <defs>
        <filter id="filter0_d_1157_22729" x="0" y="0" width="211" height="155" filterUnits="userSpaceOnUse" color-interpolation-filters="sRGB">
            <feFlood flood-opacity="0" result="BackgroundImageFix"/>
            <feColorMatrix in="SourceAlpha" type="matrix" values="0 0 0 0 0 0 0 0 0 0 0 0 0 0 0 0 0 0 127 0" result="hardAlpha"/>
            <feOffset dy="4"/>
            <feGaussianBlur stdDeviation="2"/>
            <feComposite in2="hardAlpha" operator="out"/>
            <feColorMatrix type="matrix" values="0 0 0 0 0 0 0 0 0 0 0 0 0 0 0 0 0 0 0.25 0"/>
            <feBlend mode="normal" in2="BackgroundImageFix" result="effect1_dropShadow_1157_22729"/>
            <feBlend mode="normal" in="SourceGraphic" in2="effect1_dropShadow_1157_22729" result="shape"/>
        </filter>
        <clipPath id="clip0_1157_22729">
            <rect x="4" width="203" height="147" rx="10" fill="white"/>
        </clipPath>
        <clipPath id="clip1_1157_22729">
            <rect width="55" height="67" fill="white" transform="translate(147 81)"/>
        </clipPath>
    </defs>
    <g filter="url(#filter0_d_1157_22729)">
<g clip-path="url(#clip0_1157_22729)">
<rect x="4" width="203" height="147" rx="10" fill="#6891FB"/>
<path d="M43.7031 20.0684C43.3574 19.8926 43.0381 19.7432 42.7451 19.6201C42.4521 19.4912 42.168 19.3857 41.8926 19.3037C41.6172 19.2217 41.3418 19.1602 41.0664 19.1191C40.791 19.0781 40.498 19.0576 40.1875 19.0576C39.9121 19.0576 39.6602 19.1016 39.4316 19.1895C39.2031 19.2715 39.0039 19.3799 38.834 19.5146C38.6699 19.6494 38.541 19.8047 38.4473 19.9805C38.3535 20.1504 38.3066 20.3262 38.3066 20.5078C38.3066 20.6953 38.3389 20.8652 38.4033 21.0176C38.4736 21.1641 38.6084 21.3076 38.8076 21.4482C39.0068 21.583 39.2822 21.7236 39.6338 21.8701C39.9912 22.0107 40.46 22.1719 41.04 22.3535C41.626 22.5352 42.1445 22.7402 42.5957 22.9688C43.0469 23.1973 43.4248 23.4609 43.7295 23.7598C44.0342 24.0527 44.2627 24.3838 44.415 24.7529C44.5732 25.1221 44.6523 25.5381 44.6523 26.001C44.6523 26.6279 44.5264 27.2021 44.2744 27.7236C44.0283 28.2393 43.6885 28.6816 43.2549 29.0508C42.8271 29.4199 42.3262 29.707 41.752 29.9121C41.1836 30.1172 40.5742 30.2197 39.9238 30.2197C39.4668 30.2197 39.0215 30.1904 38.5879 30.1318C38.1543 30.0732 37.7441 29.9912 37.3574 29.8857C36.9766 29.7803 36.6221 29.6572 36.2939 29.5166C35.9717 29.3701 35.6875 29.209 35.4414 29.0332L35.8809 26.6162C36.5137 27.126 37.167 27.4951 37.8408 27.7236C38.5205 27.9521 39.2148 28.0664 39.9238 28.0664C40.2109 28.0664 40.4863 28.0283 40.75 27.9521C41.0137 27.8701 41.248 27.7559 41.4531 27.6094C41.6582 27.457 41.8223 27.2725 41.9453 27.0557C42.0684 26.8389 42.1299 26.5898 42.1299 26.3086C42.1299 26.127 42.0918 25.9541 42.0156 25.79C41.9453 25.626 41.8018 25.4648 41.585 25.3066C41.3682 25.1426 41.0635 24.9756 40.6709 24.8057C40.2842 24.6357 39.7715 24.4482 39.1328 24.2432C38.4414 24.0264 37.8789 23.792 37.4453 23.54C37.0117 23.2881 36.6719 23.0156 36.4258 22.7227C36.1797 22.4297 36.0127 22.1162 35.9248 21.7822C35.8369 21.4424 35.793 21.0762 35.793 20.6836C35.793 20.4199 35.8311 20.1445 35.9072 19.8574C35.9834 19.5703 36.0977 19.2891 36.25 19.0137C36.4082 18.7383 36.6074 18.4775 36.8477 18.2314C37.0879 17.9795 37.3721 17.7598 37.7002 17.5723C38.0342 17.3789 38.415 17.2266 38.8428 17.1152C39.2705 17.0039 39.748 16.9482 40.2754 16.9482C40.6504 16.9482 40.999 16.9629 41.3213 16.9922C41.6494 17.0215 41.9658 17.0684 42.2705 17.1328C42.5811 17.1973 42.8828 17.2793 43.1758 17.3789C43.4746 17.4785 43.7822 17.5986 44.0986 17.7393L43.7031 20.0684ZM52.791 23.0039C52.668 22.9746 52.4893 22.9395 52.2549 22.8984C52.0205 22.8516 51.7158 22.8281 51.3408 22.8281C50.8779 22.8281 50.4912 22.9277 50.1807 23.127C49.8701 23.3262 49.6211 23.5928 49.4336 23.9268C49.252 24.2607 49.1201 24.6416 49.0381 25.0693C48.9619 25.4971 48.9238 25.9395 48.9238 26.3965C48.9238 26.6543 48.9473 26.8887 48.9941 27.0996C49.0469 27.3105 49.1172 27.4922 49.2051 27.6445C49.293 27.7969 49.3955 27.917 49.5127 28.0049C49.6299 28.0869 49.7559 28.1279 49.8906 28.1279C50.1074 28.1279 50.3301 28.04 50.5586 27.8643C50.7871 27.6826 51.0068 27.4512 51.2178 27.1699C51.4346 26.8887 51.6367 26.5752 51.8242 26.2295C52.0176 25.8838 52.1846 25.5439 52.3252 25.21C52.4717 24.8701 52.5859 24.5566 52.668 24.2695C52.75 23.9824 52.791 23.7539 52.791 23.584V23.0039ZM53.5381 30C53.4736 29.8945 53.4121 29.7334 53.3535 29.5166C53.2949 29.2939 53.2422 29.0566 53.1953 28.8047C53.1543 28.5469 53.1191 28.2949 53.0898 28.0488C53.0664 27.7969 53.0547 27.5889 53.0547 27.4248V26.9238C52.8672 27.3047 52.6416 27.6914 52.3779 28.084C52.1201 28.4707 51.8242 28.8223 51.4902 29.1387C51.1562 29.4551 50.7871 29.7158 50.3828 29.9209C49.9844 30.1201 49.5566 30.2197 49.0996 30.2197C48.7305 30.2197 48.3848 30.1377 48.0625 29.9736C47.7402 29.8096 47.459 29.5664 47.2188 29.2441C46.9844 28.9219 46.7998 28.5234 46.665 28.0488C46.5303 27.5684 46.4629 27.0176 46.4629 26.3965C46.4629 25.6992 46.5654 25.0195 46.7705 24.3574C46.9756 23.6895 47.292 23.0977 47.7197 22.582C48.1475 22.0605 48.6924 21.6445 49.3545 21.334C50.0166 21.0176 50.8018 20.8594 51.71 20.8594C52.3486 20.8594 52.9814 20.8975 53.6084 20.9736C54.2354 21.0439 54.8008 21.1377 55.3047 21.2549V25.3418C55.3047 26.4492 55.3574 27.3809 55.4629 28.1367C55.5684 28.8867 55.7061 29.5078 55.876 30H53.5381ZM64.4893 30C64.4482 29.9062 64.4043 29.7979 64.3574 29.6748C64.3105 29.5459 64.2637 29.4111 64.2168 29.2705C64.1758 29.1299 64.1348 28.9834 64.0938 28.8311C64.0586 28.6787 64.0293 28.5264 64.0059 28.374C63.4844 28.9775 62.9453 29.4375 62.3887 29.7539C61.832 30.0645 61.252 30.2197 60.6484 30.2197C58.8145 30.2197 57.8975 28.96 57.8975 26.4404V23.8477C57.8975 23.5664 57.8945 23.3115 57.8887 23.083C57.8887 22.8545 57.8828 22.6348 57.8711 22.4238C57.8594 22.207 57.8418 21.9873 57.8184 21.7646C57.7949 21.542 57.7627 21.2988 57.7217 21.0352H60.3584V25.9131C60.3584 26.3115 60.376 26.6543 60.4111 26.9414C60.4521 27.2285 60.5195 27.4658 60.6133 27.6533C60.707 27.835 60.8301 27.9697 60.9824 28.0576C61.1348 28.1455 61.3223 28.1895 61.5449 28.1895C61.7441 28.1895 61.9551 28.1309 62.1777 28.0137C62.4062 27.8965 62.623 27.7471 62.8281 27.5654C63.0391 27.3779 63.2295 27.1758 63.3994 26.959C63.5693 26.7422 63.6982 26.5312 63.7861 26.3262V23.8477C63.7861 23.5605 63.7832 23.3027 63.7773 23.0742C63.7773 22.8398 63.7715 22.6172 63.7598 22.4062C63.748 22.1953 63.7305 21.9814 63.707 21.7646C63.6836 21.5479 63.6514 21.3047 63.6104 21.0352H66.2471V26.0449C66.2471 26.9004 66.2939 27.6504 66.3877 28.2949C66.4873 28.9336 66.6309 29.502 66.8184 30H64.4893ZM77.1895 21.0352C77.0664 21.2871 76.9375 21.5596 76.8027 21.8525C76.6738 22.1455 76.5479 22.4326 76.4248 22.7139C76.3076 22.9951 76.1963 23.2617 76.0908 23.5137C75.9854 23.7656 75.8975 23.9795 75.8271 24.1553C75.7686 24.2959 75.6895 24.4893 75.5898 24.7354C75.4961 24.9756 75.3877 25.248 75.2646 25.5527C75.1475 25.8516 75.0215 26.1709 74.8867 26.5107C74.752 26.8447 74.6201 27.1758 74.4912 27.5039C74.1807 28.2773 73.8496 29.1094 73.498 30H71.3535C71.0137 29.1504 70.6943 28.3477 70.3955 27.5918C70.2666 27.2695 70.1348 26.9414 70 26.6074C69.8652 26.2734 69.7363 25.9541 69.6133 25.6494C69.4961 25.3389 69.3848 25.0547 69.2793 24.7969C69.1797 24.5391 69.0947 24.3252 69.0244 24.1553C68.9541 23.9795 68.8662 23.7656 68.7607 23.5137C68.6553 23.2559 68.541 22.9863 68.418 22.7051C68.2949 22.4238 68.1689 22.1396 68.04 21.8525C67.9111 21.5596 67.7852 21.2871 67.6621 21.0352H70.4043L72.4609 27.4512L74.4824 21.0352H77.1895ZM80.4766 26.0449C80.5352 26.8066 80.749 27.3574 81.1182 27.6973C81.4932 28.0312 82.0117 28.1982 82.6738 28.1982C83.2539 28.1982 83.8164 28.1338 84.3613 28.0049C84.9121 27.8701 85.4629 27.6387 86.0137 27.3105L86.1982 29.3408C85.8818 29.499 85.5713 29.6338 85.2666 29.7451C84.9678 29.8564 84.666 29.9473 84.3613 30.0176C84.0625 30.0879 83.7549 30.1377 83.4385 30.167C83.1221 30.2021 82.7939 30.2197 82.4541 30.2197C81.874 30.2197 81.3174 30.123 80.7842 29.9297C80.2568 29.7305 79.791 29.4404 79.3867 29.0596C78.9824 28.6729 78.6602 28.1953 78.4199 27.627C78.1855 27.0586 78.0684 26.3994 78.0684 25.6494C78.0684 24.9229 78.168 24.2666 78.3672 23.6807C78.5723 23.0889 78.8652 22.585 79.2461 22.1689C79.627 21.7471 80.0869 21.4248 80.626 21.2021C81.165 20.9736 81.7744 20.8594 82.4541 20.8594C82.9463 20.8594 83.377 20.9209 83.7461 21.0439C84.1211 21.1611 84.4434 21.3252 84.7129 21.5361C84.9883 21.7412 85.2168 21.9873 85.3984 22.2744C85.5859 22.5557 85.7324 22.8633 85.8379 23.1973C85.9492 23.5254 86.0283 23.8711 86.0752 24.2344C86.1221 24.5977 86.1455 24.9609 86.1455 25.3242V25.4824C86.1455 25.5469 86.1455 25.6143 86.1455 25.6846C86.1514 25.7549 86.1543 25.8223 86.1543 25.8867V26.0449H80.4766ZM82.3311 22.7051C81.8213 22.7051 81.417 22.8428 81.1182 23.1182C80.8252 23.3877 80.6289 23.8359 80.5293 24.4629H83.9131C83.9131 23.8418 83.7783 23.3936 83.5088 23.1182C83.2451 22.8428 82.8525 22.7051 82.3311 22.7051ZM88.3076 30V24.5947C88.3076 23.7275 88.2578 22.9951 88.1582 22.3975C88.0645 21.7939 87.9678 21.3398 87.8682 21.0352H90.2852C90.3203 21.1289 90.3555 21.252 90.3906 21.4043C90.4258 21.5508 90.458 21.7061 90.4873 21.8701C90.5166 22.0342 90.543 22.1953 90.5664 22.3535L90.6367 22.749C90.8477 22.4443 91.0732 22.1748 91.3135 21.9404C91.5537 21.7061 91.7939 21.5098 92.0342 21.3516C92.2803 21.1875 92.5205 21.0645 92.7549 20.9824C92.9893 20.9004 93.2061 20.8594 93.4053 20.8594C93.8154 20.8594 94.1641 20.9473 94.4512 21.123C94.7441 21.2988 94.9814 21.5391 95.1631 21.8438C95.3506 22.1426 95.4854 22.4912 95.5674 22.8896C95.6494 23.2881 95.6904 23.71 95.6904 24.1553L93.7305 24.4629C93.7012 24.0645 93.6045 23.7451 93.4404 23.5049C93.2764 23.2588 93.0068 23.1357 92.6318 23.1357C92.4854 23.1357 92.3184 23.2002 92.1309 23.3291C91.9492 23.458 91.7705 23.625 91.5947 23.8301C91.4189 24.0352 91.2549 24.2725 91.1025 24.542C90.9561 24.8057 90.8447 25.0723 90.7686 25.3418V30H88.3076ZM104.664 25.8252C104.664 26.1064 104.667 26.4375 104.673 26.8184C104.685 27.1992 104.696 27.5859 104.708 27.9785C104.726 28.3711 104.743 28.7461 104.761 29.1035C104.784 29.4609 104.811 29.7598 104.84 30H102.203V20.0684C102.203 19.2129 102.188 18.4395 102.159 17.748C102.13 17.0508 102.086 16.4473 102.027 15.9375H104.664V25.8252ZM113.453 23.0039C113.33 22.9746 113.151 22.9395 112.917 22.8984C112.683 22.8516 112.378 22.8281 112.003 22.8281C111.54 22.8281 111.153 22.9277 110.843 23.127C110.532 23.3262 110.283 23.5928 110.096 23.9268C109.914 24.2607 109.782 24.6416 109.7 25.0693C109.624 25.4971 109.586 25.9395 109.586 26.3965C109.586 26.6543 109.609 26.8887 109.656 27.0996C109.709 27.3105 109.779 27.4922 109.867 27.6445C109.955 27.7969 110.058 27.917 110.175 28.0049C110.292 28.0869 110.418 28.1279 110.553 28.1279C110.77 28.1279 110.992 28.04 111.221 27.8643C111.449 27.6826 111.669 27.4512 111.88 27.1699C112.097 26.8887 112.299 26.5752 112.486 26.2295C112.68 25.8838 112.847 25.5439 112.987 25.21C113.134 24.8701 113.248 24.5566 113.33 24.2695C113.412 23.9824 113.453 23.7539 113.453 23.584V23.0039ZM114.2 30C114.136 29.8945 114.074 29.7334 114.016 29.5166C113.957 29.2939 113.904 29.0566 113.857 28.8047C113.816 28.5469 113.781 28.2949 113.752 28.0488C113.729 27.7969 113.717 27.5889 113.717 27.4248V26.9238C113.529 27.3047 113.304 27.6914 113.04 28.084C112.782 28.4707 112.486 28.8223 112.152 29.1387C111.818 29.4551 111.449 29.7158 111.045 29.9209C110.646 30.1201 110.219 30.2197 109.762 30.2197C109.393 30.2197 109.047 30.1377 108.725 29.9736C108.402 29.8096 108.121 29.5664 107.881 29.2441C107.646 28.9219 107.462 28.5234 107.327 28.0488C107.192 27.5684 107.125 27.0176 107.125 26.3965C107.125 25.6992 107.228 25.0195 107.433 24.3574C107.638 23.6895 107.954 23.0977 108.382 22.582C108.81 22.0605 109.354 21.6445 110.017 21.334C110.679 21.0176 111.464 20.8594 112.372 20.8594C113.011 20.8594 113.644 20.8975 114.271 20.9736C114.897 21.0439 115.463 21.1377 115.967 21.2549V25.3418C115.967 26.4492 116.02 27.3809 116.125 28.1367C116.23 28.8867 116.368 29.5078 116.538 30H114.2ZM126.514 22.9248V25.9395C126.514 26.4375 126.534 26.8359 126.575 27.1348C126.616 27.4277 126.681 27.6533 126.769 27.8115C126.862 27.9697 126.979 28.0723 127.12 28.1191C127.261 28.166 127.431 28.1895 127.63 28.1895C127.853 28.1895 128.102 28.1338 128.377 28.0225C128.658 27.9111 128.975 27.7471 129.326 27.5303V29.499C128.904 29.7627 128.5 29.9473 128.113 30.0527C127.732 30.1641 127.384 30.2197 127.067 30.2197C126.651 30.2197 126.259 30.1787 125.89 30.0967C125.526 30.0205 125.207 29.8828 124.932 29.6836C124.662 29.4844 124.448 29.2207 124.29 28.8926C124.132 28.5586 124.053 28.1367 124.053 27.627V22.9248H122.383V21.167H124.053V18.3984H126.514V21.167H129.194V22.9248H126.514ZM133.158 25.5439C133.158 25.9658 133.196 26.3438 133.272 26.6777C133.354 27.0059 133.472 27.2871 133.624 27.5215C133.782 27.7559 133.976 27.9346 134.204 28.0576C134.438 28.1807 134.705 28.2422 135.004 28.2422C135.285 28.2422 135.54 28.1807 135.769 28.0576C135.997 27.9346 136.19 27.7559 136.349 27.5215C136.513 27.2871 136.636 27.0059 136.718 26.6777C136.806 26.3438 136.85 25.9658 136.85 25.5439C136.85 24.7002 136.691 24.0381 136.375 23.5576C136.064 23.0771 135.607 22.8369 135.004 22.8369C134.723 22.8369 134.468 22.8984 134.239 23.0215C134.011 23.1445 133.814 23.3232 133.65 23.5576C133.492 23.792 133.369 24.0762 133.281 24.4102C133.199 24.7441 133.158 25.1221 133.158 25.5439ZM130.697 25.5439C130.697 24.7881 130.814 24.1201 131.049 23.54C131.283 22.9541 131.6 22.4648 131.998 22.0723C132.402 21.6738 132.871 21.3721 133.404 21.167C133.938 20.9619 134.5 20.8594 135.092 20.8594C135.713 20.8594 136.281 20.9619 136.797 21.167C137.318 21.3721 137.764 21.6738 138.133 22.0723C138.508 22.4648 138.798 22.9541 139.003 23.54C139.208 24.1201 139.311 24.7881 139.311 25.5439C139.311 26.2998 139.193 26.9707 138.959 27.5566C138.725 28.1367 138.405 28.626 138.001 29.0244C137.603 29.417 137.137 29.7158 136.604 29.9209C136.07 30.1201 135.508 30.2197 134.916 30.2197C134.295 30.2197 133.727 30.1201 133.211 29.9209C132.695 29.7158 132.25 29.417 131.875 29.0244C131.506 28.626 131.216 28.1367 131.005 27.5566C130.8 26.9707 130.697 26.2998 130.697 25.5439ZM141.376 30V24.5947C141.376 23.7275 141.326 22.9951 141.227 22.3975C141.133 21.7939 141.036 21.3398 140.937 21.0352H143.354C143.389 21.1289 143.424 21.252 143.459 21.4043C143.494 21.5508 143.526 21.7061 143.556 21.8701C143.585 22.0342 143.611 22.1953 143.635 22.3535L143.705 22.749C143.916 22.4443 144.142 22.1748 144.382 21.9404C144.622 21.7061 144.862 21.5098 145.103 21.3516C145.349 21.1875 145.589 21.0645 145.823 20.9824C146.058 20.9004 146.274 20.8594 146.474 20.8594C146.884 20.8594 147.232 20.9473 147.52 21.123C147.812 21.2988 148.05 21.5391 148.231 21.8438C148.419 22.1426 148.554 22.4912 148.636 22.8896C148.718 23.2881 148.759 23.71 148.759 24.1553L146.799 24.4629C146.77 24.0645 146.673 23.7451 146.509 23.5049C146.345 23.2588 146.075 23.1357 145.7 23.1357C145.554 23.1357 145.387 23.2002 145.199 23.3291C145.018 23.458 144.839 23.625 144.663 23.8301C144.487 24.0352 144.323 24.2725 144.171 24.542C144.024 24.8057 143.913 25.0723 143.837 25.3418V30H141.376ZM153.25 22.9248V25.9395C153.25 26.4375 153.271 26.8359 153.312 27.1348C153.353 27.4277 153.417 27.6533 153.505 27.8115C153.599 27.9697 153.716 28.0723 153.856 28.1191C153.997 28.166 154.167 28.1895 154.366 28.1895C154.589 28.1895 154.838 28.1338 155.113 28.0225C155.395 27.9111 155.711 27.7471 156.062 27.5303V29.499C155.641 29.7627 155.236 29.9473 154.85 30.0527C154.469 30.1641 154.12 30.2197 153.804 30.2197C153.388 30.2197 152.995 30.1787 152.626 30.0967C152.263 30.0205 151.943 29.8828 151.668 29.6836C151.398 29.4844 151.185 29.2207 151.026 28.8926C150.868 28.5586 150.789 28.1367 150.789 27.627V22.9248H149.119V21.167H150.789V18.3984H153.25V21.167H155.931V22.9248H153.25ZM164.509 30C164.468 29.9062 164.424 29.7979 164.377 29.6748C164.33 29.5459 164.283 29.4111 164.236 29.2705C164.195 29.1299 164.154 28.9834 164.113 28.8311C164.078 28.6787 164.049 28.5264 164.025 28.374C163.504 28.9775 162.965 29.4375 162.408 29.7539C161.852 30.0645 161.271 30.2197 160.668 30.2197C158.834 30.2197 157.917 28.96 157.917 26.4404V23.8477C157.917 23.5664 157.914 23.3115 157.908 23.083C157.908 22.8545 157.902 22.6348 157.891 22.4238C157.879 22.207 157.861 21.9873 157.838 21.7646C157.814 21.542 157.782 21.2988 157.741 21.0352H160.378V25.9131C160.378 26.3115 160.396 26.6543 160.431 26.9414C160.472 27.2285 160.539 27.4658 160.633 27.6533C160.727 27.835 160.85 27.9697 161.002 28.0576C161.154 28.1455 161.342 28.1895 161.564 28.1895C161.764 28.1895 161.975 28.1309 162.197 28.0137C162.426 27.8965 162.643 27.7471 162.848 27.5654C163.059 27.3779 163.249 27.1758 163.419 26.959C163.589 26.7422 163.718 26.5312 163.806 26.3262V23.8477C163.806 23.5605 163.803 23.3027 163.797 23.0742C163.797 22.8398 163.791 22.6172 163.779 22.4062C163.768 22.1953 163.75 21.9814 163.727 21.7646C163.703 21.5479 163.671 21.3047 163.63 21.0352H166.267V26.0449C166.267 26.9004 166.313 27.6504 166.407 28.2949C166.507 28.9336 166.65 29.502 166.838 30H164.509ZM170.793 26.0449C170.852 26.8066 171.065 27.3574 171.435 27.6973C171.81 28.0312 172.328 28.1982 172.99 28.1982C173.57 28.1982 174.133 28.1338 174.678 28.0049C175.229 27.8701 175.779 27.6387 176.33 27.3105L176.515 29.3408C176.198 29.499 175.888 29.6338 175.583 29.7451C175.284 29.8564 174.982 29.9473 174.678 30.0176C174.379 30.0879 174.071 30.1377 173.755 30.167C173.438 30.2021 173.11 30.2197 172.771 30.2197C172.19 30.2197 171.634 30.123 171.101 29.9297C170.573 29.7305 170.107 29.4404 169.703 29.0596C169.299 28.6729 168.977 28.1953 168.736 27.627C168.502 27.0586 168.385 26.3994 168.385 25.6494C168.385 24.9229 168.484 24.2666 168.684 23.6807C168.889 23.0889 169.182 22.585 169.562 22.1689C169.943 21.7471 170.403 21.4248 170.942 21.2021C171.481 20.9736 172.091 20.8594 172.771 20.8594C173.263 20.8594 173.693 20.9209 174.062 21.0439C174.438 21.1611 174.76 21.3252 175.029 21.5361C175.305 21.7412 175.533 21.9873 175.715 22.2744C175.902 22.5557 176.049 22.8633 176.154 23.1973C176.266 23.5254 176.345 23.8711 176.392 24.2344C176.438 24.5977 176.462 24.9609 176.462 25.3242V25.4824C176.462 25.5469 176.462 25.6143 176.462 25.6846C176.468 25.7549 176.471 25.8223 176.471 25.8867V26.0449H170.793ZM172.647 22.7051C172.138 22.7051 171.733 22.8428 171.435 23.1182C171.142 23.3877 170.945 23.8359 170.846 24.4629H174.229C174.229 23.8418 174.095 23.3936 173.825 23.1182C173.562 22.8428 173.169 22.7051 172.647 22.7051Z" fill="white"/>
<rect x="26" y="48" width="159" height="71" rx="10" fill="#3580FD"/>
<path d="M2.51602 83.4773C2.54546 83.4798 2.57511 83.4781 2.60408 83.4723C2.74249 83.3914 2.87659 83.3035 3.00584 83.2087C3.00584 83.2087 2.99842 83.1997 3.03312 83.2099C3.17763 83.172 3.325 83.1458 3.47377 83.1316C3.54182 83.3425 3.57427 83.5412 3.68137 83.6838C4.2752 84.4703 5.20363 84.6026 6.07003 84.77C6.84445 84.9199 7.65246 84.8788 8.43399 84.9999C9.805 85.2243 11.2066 85.1822 12.5613 84.876C14.0004 84.549 15.1711 83.7684 16.0907 82.6533C16.584 82.0535 16.9597 81.3504 17.3308 80.6656C17.5154 80.3227 17.6347 79.908 17.3433 79.5339C18.3019 79.5314 19.2183 79.5358 20.1277 79.5875C20.0641 80.0921 20.1085 80.6023 19.9214 81.0054C19.5136 81.8849 19.7742 82.7027 20.0918 83.4676C20.8447 85.2776 22.4636 86.0585 24.2228 86.5054C25.1797 86.7487 26.2141 86.7319 27.2148 86.7496C28.2286 86.7616 29.2315 86.5406 30.1454 86.1039C31.4463 85.496 32.5952 84.6541 33.6556 83.6918C33.8588 83.5062 33.9982 83.2371 34.2042 83.0098C34.6382 83.2077 35.0614 83.4283 35.472 83.6708C35.3044 84.1194 35.2095 84.5789 34.963 84.9318C34.0999 86.164 34.0814 87.5704 34.0917 88.9665C34.098 89.9319 34.4192 90.8631 35.1532 91.5205C36.2389 92.4914 37.3776 93.4083 38.5415 94.2844C39.3471 94.8914 40.2228 95.4092 41.0875 95.9342C42.1491 96.5795 43.2583 97.1383 44.529 97.2104C44.9606 97.2351 45.3931 97.1805 45.8049 97.0495C47.104 96.6194 47.7278 95.616 48.0244 94.3488L48.1547 94.3826C48.1589 94.3983 48.163 94.415 48.1856 94.4811C48.4709 94.8821 48.7386 95.2415 49.0035 95.596C49.0209 95.6443 49.0383 95.6947 49.0789 95.7936C49.2532 96.0985 49.4042 96.3557 49.5527 96.6488C49.4977 96.7699 49.4635 96.9054 49.3891 96.9333C49.0321 97.0641 48.705 97.2648 48.427 97.5234C48.149 97.782 47.9258 98.0934 47.7705 98.4392C47.3916 99.3073 47.1823 100.27 47.0354 101.213C46.8226 102.577 47.0473 103.935 47.3935 105.259C47.5217 105.751 47.6271 106.252 47.785 106.734C47.986 107.349 48.2612 107.941 48.4494 108.559C48.7769 109.637 49.4531 110.483 50.2987 111.156C51.8091 112.352 53.6103 112.821 55.5054 113.082C55.5626 113.286 55.5916 113.495 55.5918 113.706C55.0009 113.828 54.4463 113.9 53.917 114.066C52.6427 114.465 51.3847 114.913 50.1165 115.329C49.2057 115.628 48.2956 115.931 47.3721 116.183C46.5098 116.42 45.6256 116.578 44.7591 116.798C43.7655 117.047 42.7835 117.344 41.7896 117.598C41.2142 117.746 40.6272 117.846 40.0476 117.978C39.5488 118.093 39.0603 118.24 38.5562 118.341C37.8611 118.48 37.1588 118.581 36.4631 118.714C35.3323 118.928 34.2071 119.174 33.0732 119.371C32.2501 119.513 31.4165 119.604 30.5862 119.709C29.5184 119.846 28.4509 119.996 27.3796 120.1C26.2416 120.21 25.0978 120.274 23.9571 120.359C22.3502 120.479 20.7451 120.647 19.135 120.705C17.5249 120.763 15.93 120.762 14.3302 120.693C11.785 120.592 9.24287 120.421 6.70043 120.278C6.63515 120.276 6.57009 120.268 6.50604 120.259C4.98568 120.069 3.46288 119.89 1.94324 119.682C0.873827 119.537 -0.192704 119.371 -1.25635 119.182C-2.38879 118.982 -3.51701 118.752 -4.64443 118.526C-5.47863 118.359 -6.31483 118.192 -7.14295 117.997C-8.00103 117.795 -8.85185 117.561 -9.70605 117.336C-10.4521 117.14 -11.2004 116.949 -11.9429 116.738C-12.67 116.531 -13.3885 116.306 -14.1146 116.078C-14.2667 116.021 -14.407 115.937 -14.5286 115.83C-14.4774 115.365 -14.4201 114.941 -14.3366 114.541C-14.153 114.653 -14.0023 114.805 -13.8399 114.817C-13.1288 114.874 -12.4099 114.953 -11.7028 114.898C-11.2465 114.851 -10.8092 114.691 -10.4305 114.433C-9.2475 113.639 -8.8306 112.364 -8.46687 111.077C-8.2575 110.339 -8.16857 109.564 -7.93611 108.834C-7.59718 107.761 -7.54974 106.657 -7.43877 105.55C-7.38593 105.025 -7.26307 104.505 -7.219 103.98C-7.14789 103.12 -7.08249 102.257 -7.09038 101.395C-7.09215 101.164 -7.31745 100.864 -7.52588 100.717C-8.29329 100.177 -9.18219 99.9884 -10.1109 99.9086C-10.4931 99.8757 -10.8638 99.712 -11.2374 99.5686C-11.0081 99.0031 -10.7823 98.4734 -10.521 97.9589C-10.1651 98.0791 -9.85009 98.2453 -9.52158 98.2778C-8.23183 98.4061 -6.95865 98.3977 -5.71861 97.8882C-4.88201 97.5452 -4.08134 97.1753 -3.37808 96.5961C-2.06871 95.5182 -1.08716 94.1871 -0.182005 92.7711C0.586017 91.5708 1.11507 90.2757 1.61081 88.9606C1.78594 88.4968 1.92747 88.0198 2.12175 87.5646C2.42797 86.844 2.23321 85.6976 1.17452 85.621C0.820279 85.5952 0.467976 85.5476 0.119641 85.4784C-0.00579086 85.4672 -0.116854 85.3487 -0.22278 85.247C0.70039 84.6384 1.60656 84.0622 2.51297 83.4801M14.4055 117.17C14.868 117.627 15.4215 117.966 16.0562 118.053C17.0091 118.182 17.9733 118.232 18.9356 118.28C20.7305 118.375 22.5062 118.346 24.2248 117.673C25.0695 117.349 25.7876 116.764 26.274 116.004C26.8725 115.092 26.8582 113.994 26.9545 112.979C27.0967 111.463 26.996 109.923 26.9846 108.394C26.9867 107.912 26.9578 107.431 26.8981 106.953C26.7807 106.097 26.63 105.244 26.4782 104.393C26.3214 103.545 25.9018 102.768 25.2784 102.17C24.1227 101.035 22.6447 100.516 21.0845 100.323C19.3698 100.112 17.639 100.161 15.9589 100.668C14.4665 101.12 13.3315 101.98 12.9613 103.552C12.7106 104.614 12.5339 105.691 12.4324 106.777C12.3103 108.096 12.2932 109.426 12.2507 110.753C12.2276 111.22 12.2467 111.687 12.3079 112.15C12.4193 112.954 12.5774 113.751 12.7812 114.537C13.0555 115.537 13.4638 116.482 14.4025 117.172M8.78747 107.395C8.65997 106.364 8.55501 105.331 8.39701 104.306C8.32034 103.722 8.18139 103.148 7.98253 102.594C7.61542 101.642 7.04699 100.832 5.98966 100.52C5.20493 100.292 4.42983 99.9532 3.62825 99.8672C2.20967 99.7159 0.775039 99.6883 -0.657894 99.6665C-2.29953 99.6407 -3.34474 100.681 -3.84279 101.959C-4.16533 102.787 -4.35258 103.669 -4.58194 104.532C-4.82297 105.439 -5.10191 106.343 -5.2519 107.267C-5.40188 108.19 -5.41917 109.16 -5.49306 110.108C-5.50822 110.301 -5.52532 110.495 -5.52879 110.689C-5.54441 111.553 -5.60307 112.418 -5.54825 113.278C-5.512 113.788 -5.38332 114.287 -5.16845 114.752C-4.61665 115.948 -3.60028 116.692 -2.44536 117.255C-1.12229 117.902 0.320427 118.105 1.76528 118.213C2.99134 118.302 4.22758 118.244 5.45709 118.298C6.87662 118.359 8.01257 117.273 8.21541 116.028C8.35991 115.141 8.5336 114.257 8.62274 113.364C8.7479 112.064 8.82742 110.758 8.88158 109.452C8.90972 108.797 8.83365 108.137 8.79234 107.395M41.3815 99.5185C40.2973 98.9461 39.1289 98.7871 37.917 98.7777C37.1806 98.7782 36.4454 98.8366 35.7182 98.9525C34.2151 99.1795 32.7856 99.5311 31.5437 100.425C30.752 100.995 30.2266 101.729 30.2566 102.779C30.2912 104.018 30.278 105.258 30.3009 106.497C30.3175 107.403 30.3586 108.311 30.389 109.217C30.3882 109.233 30.3925 109.249 30.3947 109.266C30.5651 110.389 30.7815 111.508 30.892 112.638C30.9839 113.567 31.396 114.312 31.9747 114.997C32.5896 115.723 33.4802 115.964 34.3366 116.204C34.9038 116.363 35.5223 116.391 36.1169 116.388C37.3578 116.381 38.5974 116.292 39.8387 116.275C40.8863 116.261 41.9154 115.999 42.8417 115.512C44.346 114.735 45.0134 113.378 45.1857 111.778C45.3088 110.638 45.3018 109.484 45.3491 108.337C45.4277 106.476 45.158 104.617 44.554 102.854C44.0209 101.289 42.9575 100.21 41.3786 99.5193M0.284712 97.0383C0.597064 97.765 1.13611 98.35 1.89043 98.4679C3.30889 98.6902 4.75093 98.7725 6.18663 98.8663C6.63935 98.8889 7.09261 98.8344 7.52688 98.7052C9.2693 98.2028 10.411 97.0516 11.0214 95.3634C11.1078 95.1242 11.2458 94.8871 11.2728 94.6463C11.3665 93.7815 11.4156 92.9128 11.4958 92.0464C11.6146 90.942 11.439 89.8259 10.9867 88.8105C10.6476 88.0393 10.0906 87.3828 9.38364 86.9211C8.67664 86.4593 7.85013 86.2121 7.00475 86.2097C5.5852 86.1944 4.46676 86.986 3.61608 88.0428C2.98168 88.8337 2.44601 89.6984 2.02082 90.6178C1.41522 91.9198 0.89938 93.2615 0.476873 94.6333C0.250336 95.3622 0.325416 96.1818 0.284879 97.0344M19.7337 87.5089C19.2825 87.264 18.8577 86.928 18.3754 86.7935C17.3661 86.5002 16.2955 86.4878 15.2799 86.7577C14.6943 86.9143 14.319 87.2675 14.141 87.8206C13.8112 88.8395 13.4679 89.8559 13.2019 90.8903C12.9729 91.7901 12.8239 92.7118 12.6771 93.6298C12.5181 94.6269 12.2924 95.6328 12.2972 96.6341C12.3037 98.0504 12.9599 98.8619 14.2877 99.0113C15.6339 99.1663 16.9999 99.225 18.3476 98.9136C19.5788 98.6322 20.5761 98.0696 20.9622 96.7848C21.214 95.9452 21.4894 95.1008 21.6182 94.2394C21.8072 92.9764 21.9819 91.7029 21.6113 90.4245C21.2807 89.281 20.7292 88.3049 19.7337 87.5089ZM23.8295 93.3879C23.8708 94.517 23.7747 95.6403 24.1325 96.7636C24.4543 97.7697 24.8961 98.5953 25.9118 98.9918C26.3073 99.1458 26.7453 99.2881 27.1605 99.2806C28.2966 99.2595 29.4362 99.2006 30.5634 99.0682C31.2123 99.0041 31.8461 98.8343 32.4396 98.5657C34.5473 97.5571 34.5982 95.7146 33.7512 93.9833C33.2004 92.8546 32.4476 91.8154 31.7139 90.7857C31.3334 90.2459 30.8648 89.7734 30.3274 89.3879C29.214 88.6072 27.9919 88.268 26.5857 88.5565C25.4808 88.7821 24.7609 89.3615 24.4572 90.3865C24.1783 91.3357 24.0362 92.3248 23.8295 93.3879Z" fill="#144A05"/>
<path d="M68.7757 117.316C68.7413 117.349 68.7012 117.375 68.6572 117.393C68.4179 117.534 68.2291 117.656 68.0431 117.784C67.3373 118.262 66.6334 118.742 65.9315 119.222C65.8839 119.24 65.8323 119.258 65.7416 119.302C65.2496 119.599 64.8066 119.869 64.3625 120.141C64.289 120.159 64.2169 120.182 64.1467 120.21C63.8777 120.382 63.6587 120.528 63.4435 120.674C63.4125 120.674 63.3814 120.675 63.3506 120.679C62.5726 121.067 61.8486 121.448 61.1245 121.829C61.0706 121.829 61.0169 121.836 60.9645 121.849C60.4888 122.062 60.0685 122.258 59.6521 122.453C59.6219 122.454 59.5918 122.456 59.562 122.461C58.8275 122.721 58.1432 122.974 57.4625 123.232C56.867 123.46 56.2712 123.697 55.6754 123.933L55.5051 123.945C54.8055 124.119 54.1663 124.276 53.5306 124.464C53.1351 124.582 52.7523 124.745 52.3422 124.862C52.1986 124.849 52.0542 124.85 51.9107 124.863C50.7621 125.061 49.6487 125.258 48.5363 125.41C48.4314 123.559 48.4306 121.76 49.0268 120.015C49.1183 119.748 49.1185 119.449 49.1854 119.141C49.247 119.095 49.3142 119.058 49.3853 119.031C51.3586 118.403 53.3344 117.784 55.3033 117.147C55.9892 116.924 56.7072 116.731 57.1073 116.051C57.1291 116.086 57.1531 116.12 57.1791 116.151C57.1905 116.114 57.2029 116.076 57.2141 116.041C57.2141 116.041 57.2073 116.041 57.2412 116.047C57.5586 115.769 57.8797 115.521 58.1156 115.21C58.4988 114.698 58.8251 114.144 59.212 113.614C59.7684 113.841 60.2671 114.048 60.8636 113.794C61.5595 113.5 61.8202 112.817 61.4599 112.16C61.1403 111.581 60.6075 111.555 60.0526 111.474C60.2832 110.788 60.5151 110.139 60.7817 109.498C61.0214 109.666 61.3087 109.752 61.6013 109.744C61.8939 109.737 62.1763 109.636 62.4068 109.456C62.8489 109.138 62.8963 108.603 62.7172 108.092C62.6416 107.876 62.435 107.709 62.3318 107.499C62.2546 107.341 62.2492 107.148 62.212 106.971C62.369 106.95 62.5266 106.916 62.6841 106.91C63.1621 106.893 63.6862 107.008 64.1107 106.852C65.2016 106.451 65.4048 105.515 64.9199 104.488C64.4815 103.561 63.6128 103.105 62.6441 102.82C62.7576 102.446 62.894 102.08 63.0524 101.723C63.4662 101.655 63.8574 101.638 64.2047 101.506C64.6948 101.321 64.9045 100.803 64.7895 100.277C64.6996 99.8691 64.3889 99.4232 63.7936 99.488C64.1519 98.7143 64.5097 97.9745 64.8665 97.2356C64.8781 97.2169 64.8923 97.1998 64.9087 97.185C64.9404 97.1643 64.9761 97.1504 65.0134 97.1439C65.0508 97.1375 65.0891 97.1388 65.126 97.1477C65.0801 97.3741 65.0263 97.5584 64.9754 97.7438C64.7445 98.5745 65.198 99.3793 66.0303 99.6357C66.4145 99.7637 66.8223 99.8059 67.2246 99.7592C67.627 99.7125 68.014 99.578 68.3582 99.3654C69.6831 98.5622 69.6588 96.9916 68.525 96.1867C68.1585 95.9261 67.6725 95.8313 67.2637 95.6699C68.2467 95.0766 68.5111 94.6467 68.3292 93.9071C68.5467 93.8062 68.7719 93.7226 69.0027 93.6571C68.9975 93.7426 69.0172 93.8278 69.0595 93.9025C69.1606 94.0244 69.2871 94.1251 69.3953 94.2425C69.5538 94.4155 69.6706 94.6489 69.8659 94.7622C70.555 95.1699 71.2816 95.1623 72.0422 94.9277C72.4192 94.8107 72.8429 94.8532 73.1857 94.5988C73.215 94.5767 73.3088 94.6186 73.3601 94.651C73.7715 94.9126 74.1766 95.1846 74.595 95.4426C75.5134 96.0137 76.5198 95.5808 76.9024 94.7643C77.4442 95.2162 77.9531 95.6608 78.4621 96.1054C78.4619 96.1326 78.4643 96.1597 78.4694 96.1864C78.5816 96.4219 78.6801 96.6637 78.7642 96.9105C77.9003 96.8899 77.5786 97.0403 77.4193 97.4767L79.3193 97.5097C79.3416 97.5579 79.359 97.6081 79.3714 97.6597C79.4517 97.8163 79.5431 97.967 79.6448 98.1107C79.647 98.173 79.6483 98.2343 79.6554 98.3639C80.2048 100.208 80.1602 101.995 79.7012 103.772C79.4975 104.562 79.1894 105.325 78.9277 106.1C78.9171 106.125 78.9019 106.147 78.8829 106.166C78.5656 106.735 78.279 107.272 77.9924 107.809C77.9784 107.835 77.9602 107.858 77.9386 107.879C77.752 108.134 77.5999 108.357 77.4506 108.582C77.1437 109.048 76.8395 109.516 76.5334 109.983C76.5175 110.006 76.4982 110.026 76.4762 110.043C76.0985 110.474 75.7524 110.873 75.4186 111.282C75.2197 111.525 75.0398 111.783 74.8513 112.035C74.8513 112.035 74.8635 112.047 74.8265 112.045C74.6953 112.16 74.5734 112.285 74.462 112.419C74.4483 112.439 74.4314 112.457 74.4119 112.472C74.2014 112.689 74.0243 112.881 73.8463 113.072C73.815 113.108 73.7761 113.137 73.7324 113.156C73.6598 113.212 73.5953 113.278 73.5405 113.351L73.3231 113.527C73.1357 113.709 72.9898 113.855 72.8449 114.002C72.7971 114.052 72.7469 114.098 72.6944 114.143C72.5128 114.303 72.3755 114.431 72.2372 114.559C72.2206 114.581 72.2011 114.6 72.1792 114.616C71.9337 114.832 71.7255 115.019 71.5173 115.208C71.481 115.24 71.4396 115.267 71.3949 115.287C71.2882 115.375 71.1893 115.471 71.0994 115.576C71.0994 115.576 71.0994 115.576 71.0699 115.579C70.9616 115.659 70.8599 115.746 70.7658 115.842C70.7039 115.868 70.6439 115.898 70.5863 115.932C70.5514 115.965 70.5201 116.002 70.4928 116.041C70.4596 116.075 70.4212 116.103 70.3789 116.124C70.2326 116.24 70.0924 116.364 69.9589 116.495C69.8937 116.519 69.83 116.546 69.7679 116.578C69.5268 116.782 69.3309 116.957 69.1349 117.134C69.111 117.131 69.0869 117.133 69.0635 117.138C68.9644 117.195 68.8703 117.259 68.7819 117.331M71.451 103.19C71.2787 102.885 71.1074 102.578 70.8834 102.18C70.6269 102.946 70.9048 103.498 71.1737 104.01C72.5573 106.633 75.8667 107.418 78.1565 105.67C78.3362 105.533 78.4642 105.325 78.6122 105.15C77.833 105.295 77.1515 105.527 76.4512 105.674C75.4002 105.894 74.3889 105.692 73.4531 105.185C72.6166 104.732 71.9665 104.074 71.451 103.189M67.3276 101.611C66.4231 101.307 65.6868 101.587 65.4561 102.413C65.29 103.007 65.3423 103.608 65.7631 104.151C66.1328 104.633 66.9761 104.747 67.4777 104.385C68.2755 103.81 68.4896 102.281 67.3276 101.611ZM67.7863 107.789C67.6622 107.59 67.5782 107.34 67.4046 107.202C66.9195 106.814 65.9415 106.836 65.4378 107.2C64.6582 107.762 64.7341 108.835 65.4835 109.34C66.3712 109.943 68.001 108.904 67.7865 107.786M73.8766 99.9417C73.8911 99.4671 73.9735 98.9818 73.8996 98.5208C73.8686 98.3102 73.7653 98.1168 73.6071 97.9735C73.449 97.8303 73.2459 97.746 73.0324 97.7352C72.551 97.6951 72.1633 97.97 72.0712 98.3878C71.9626 98.9136 71.9523 99.4548 72.0407 99.9843C72.1024 100.365 72.3659 100.752 72.8612 100.742C73.3566 100.731 73.6552 100.438 73.8717 99.9415M65.2215 111.894C65.1996 111.699 65.2397 111.47 65.1486 111.318C64.7067 110.586 63.4016 110.406 62.7336 110.959C62.5897 111.09 62.4999 111.269 62.4819 111.462C62.4639 111.655 62.5189 111.847 62.6361 112.002C63.083 112.594 64.3112 112.771 64.9144 112.316C65.0326 112.224 65.1108 112.084 65.2254 111.894M77.4104 98.9331C77.4655 99.3097 77.4601 99.7079 77.5865 100.059C77.8071 100.673 78.5326 100.756 78.945 100.246C79.3347 99.7632 79.3874 99.1959 79.1973 98.6445C79.0741 98.2864 78.8241 97.9481 78.3565 97.9504C77.9053 97.9553 77.6507 98.2233 77.5134 98.6266C77.4866 98.7032 77.4609 98.7788 77.4153 98.9333M74.0258 96.7176C73.6989 96.2176 73.1059 96.024 72.5045 96.2314C71.9635 96.4191 71.753 96.6394 71.7919 97.0502C72.4898 96.5505 73.2448 96.6772 74.0258 96.7176ZM77.1744 101.858C77.206 101.736 77.283 101.602 77.2583 101.496C77.2104 101.316 77.0944 101.154 77.008 100.984C76.903 101.155 76.7162 101.322 76.7077 101.498C76.699 101.701 76.7072 102.055 77.1744 101.858ZM75.0609 101.068C74.838 101.599 74.859 101.793 75.1652 102.004C75.4587 101.51 75.4459 101.242 75.059 101.068L75.0609 101.068Z" fill="#B4CA79"/>
<path d="M4.12819 133.924C4.0859 133.908 4.04264 133.893 3.936 133.853C3.31856 133.707 2.76162 133.584 2.19717 133.432C2.10934 133.39 2.01527 133.362 1.9186 133.35C1.58811 133.288 1.26201 133.206 0.942434 133.102C1.06387 132.547 1.16911 132.029 1.30329 131.518C1.51905 130.7 1.75607 129.886 2.01625 129.055C2.29669 128.776 2.59291 128.538 2.7845 128.236C3.72659 126.755 4.26732 125.143 4.32395 123.371C6.12952 123.512 7.88734 123.718 9.65024 123.784C12.403 123.894 15.1587 123.957 17.9133 123.954C19.7679 123.953 21.6275 123.835 23.4873 123.714C25.164 123.604 26.8359 123.426 28.5089 123.267C29.391 123.183 30.274 123.079 31.1546 123.028C31.3348 124.174 31.411 125.307 31.7354 126.366C31.958 127.092 32.5249 127.712 32.9463 128.42C33.1013 129.358 33.3 130.252 33.4008 131.156C33.5098 132.139 33.5315 133.134 33.5531 134.13C33.4038 134.152 33.2533 134.166 33.1023 134.172C33.0223 134.185 32.9434 134.205 32.8665 134.231C31.7192 134.376 30.6164 134.578 29.505 134.659C26.6175 134.87 23.73 135.034 20.8363 135.207C20.0652 135.253 19.2917 135.262 18.5195 135.289L17.4409 135.242L12.6661 135.057L12.0935 135.004C12.0247 135.001 11.9558 135.004 11.8872 135.01C11.8437 135.002 11.7992 134.992 11.6939 134.966C11.0141 134.885 10.403 134.843 9.79368 134.757C7.90314 134.482 6.01454 134.206 4.12819 133.924Z" fill="#A8A442"/>
<path d="M33.5972 134.128C33.5373 133.139 33.5156 132.145 33.4065 131.161C33.3058 130.257 33.1119 129.363 32.9537 128.388C32.8632 127.723 32.7479 127.136 32.7021 126.543C32.6477 125.854 32.587 125.155 32.9428 124.506C33.519 123.456 34.5652 123.095 35.6049 122.819C37.6409 122.276 39.432 122.912 41.058 124.143C41.1658 124.224 41.3098 124.257 41.4396 124.347C41.4634 124.434 41.5059 124.515 41.5642 124.584C43.08 125.924 44.1986 127.56 45.1396 129.332C45.3319 129.694 45.579 130.031 45.797 130.41C46.1028 131.244 46.4101 132.042 46.7214 132.839C46.7549 132.968 46.7894 133.096 46.8278 133.293C46.9977 133.883 47.154 134.401 47.3103 134.922C47.4314 135.329 47.5466 135.737 47.6647 136.145C47.6617 136.217 47.6663 136.29 47.6698 136.437C47.8251 137.366 47.9835 138.221 48.136 139.081C48.1341 139.125 48.1322 139.169 48.1271 139.287C48.1544 139.788 48.1849 140.215 48.2104 140.641C48.2133 140.847 48.2162 141.052 48.2246 141.334C48.1861 142.05 48.1402 142.686 48.0568 143.308C47.9424 143.267 47.8461 143.26 47.7936 143.209C47.4375 142.864 47.0789 142.806 46.6752 143.137C46.6262 143.162 46.5725 143.176 46.5176 143.18C46.4627 143.183 46.4078 143.175 46.3562 143.156C45.8749 142.999 45.7655 143.091 45.676 143.562C45.6014 143.965 45.459 144.354 45.2548 144.71C45.0021 145.139 44.5315 145.165 44.3726 144.795C43.6061 143.054 41.626 143.204 40.8394 144.449C40.6666 144.724 40.4729 144.984 40.2699 145.277C40.1185 145.076 40.0121 144.941 39.8999 144.803C38.9486 143.612 37.565 143.351 36.6406 144.784C36.2694 145.359 36.1289 146.083 35.884 146.739C35.7948 146.726 35.7071 146.705 35.6223 146.674C35.6003 146.653 35.5742 146.636 35.5455 146.625C35.5167 146.614 35.486 146.609 35.4552 146.61C34.2989 146.262 33.6992 145.407 33.734 144.258C33.8009 142.094 33.8591 139.93 33.9084 137.767C33.8976 137.613 33.8715 137.46 33.8304 137.311C33.8337 137.234 33.8369 137.159 33.8501 137.011C33.8319 136.8 33.8105 136.661 33.7892 136.522C33.791 136.479 33.7929 136.436 33.8039 136.316C33.811 135.967 33.8444 135.691 33.8139 135.424C33.7606 134.982 33.6678 134.554 33.5972 134.128Z" fill="#B4CA79"/>
<path d="M31.158 122.985C30.2755 123.079 29.3925 123.184 28.5104 123.267C26.8374 123.426 25.1655 123.605 23.4888 123.714C21.629 123.836 19.7694 123.953 17.9148 123.954C15.1601 123.957 12.4044 123.894 9.65172 123.785C7.88899 123.715 6.13099 123.512 4.30215 123.345C2.7911 123.119 1.35283 122.926 -0.0826053 122.713C-1.16685 122.55 -2.24722 122.365 -3.32644 122.175C-4.18288 122.026 -5.03547 121.855 -5.92813 121.685C-6.05824 121.647 -6.14943 121.611 -6.24314 121.588C-7.53098 121.279 -8.82229 120.983 -10.1077 120.662C-11.3148 120.361 -12.515 120.034 -13.7533 119.708C-14.235 119.559 -14.6725 119.405 -15.1213 119.286C-15.96 119.066 -16.546 118.597 -16.7447 117.724C-16.738 117.68 -16.7312 117.637 -16.7188 117.531C-16.4613 116.558 -15.8628 116.077 -14.9169 116.007C-14.7803 115.979 -14.6474 115.935 -14.5209 115.877C-14.3909 115.957 -14.2541 116.027 -14.112 116.084C-13.3906 116.309 -12.6673 116.535 -11.9403 116.744C-11.1978 116.955 -10.4495 117.146 -9.70343 117.342C-8.84923 117.566 -7.99854 117.804 -7.14034 118.003C-6.31221 118.198 -5.4761 118.366 -4.64181 118.532C-3.51342 118.758 -2.3852 118.988 -1.25374 119.188C-0.190062 119.376 0.876468 119.543 1.94585 119.688C3.46355 119.895 4.98635 120.075 6.50865 120.265C6.5727 120.274 6.63781 120.281 6.70305 120.284C9.24549 120.427 11.7876 120.6 14.3329 120.699C15.9329 120.762 17.5383 120.767 19.1376 120.711C20.7369 120.655 22.3528 120.485 23.9597 120.365C25.1005 120.28 26.2442 120.216 27.3822 120.106C28.4535 120.002 29.521 119.852 30.5889 119.715C31.4191 119.61 32.2566 119.519 33.0758 119.377C34.2097 119.18 35.3349 118.934 36.4657 118.72C37.1615 118.587 37.8636 118.488 38.5588 118.347C39.06 118.246 39.5514 118.098 40.0502 117.984C40.6298 117.852 41.2169 117.752 41.7923 117.604C42.7851 117.35 43.768 117.057 44.7617 116.804C45.6282 116.583 46.5125 116.426 47.3748 116.189C48.2982 115.937 49.2084 115.632 50.1191 115.335C51.3874 114.919 52.6452 114.472 53.9196 114.072C54.446 113.906 55.0035 113.834 55.6255 113.716C56.365 113.86 56.9406 114.162 57.1501 114.829C57.2688 115.201 57.1916 115.636 57.2024 116.043C57.2024 116.043 57.2102 116.043 57.181 116.02C57.166 116.015 57.15 116.013 57.1343 116.014C57.1185 116.016 57.1033 116.021 57.0898 116.029C56.7004 116.732 55.9776 116.925 55.2965 117.148C53.3276 117.786 51.3518 118.405 49.3785 119.031C49.3182 119.05 49.2629 119.089 49.1415 119.143C48.5629 119.296 48.048 119.421 47.5349 119.551C45.5049 120.066 43.4749 120.584 41.4164 121.104C40.6284 121.27 39.8798 121.427 39.1281 121.589C38.4386 121.735 37.7486 121.892 37.0599 122.018C36.0486 122.202 35.0342 122.367 34.0197 122.533C33.0654 122.685 32.1113 122.833 31.158 122.985Z" fill="#216B0D"/>
<path d="M55.4891 113.049C53.6092 112.822 51.8031 112.353 50.2996 111.157C49.45 110.484 48.7779 109.634 48.4502 108.56C48.262 107.942 47.9868 107.35 47.7858 106.735C47.628 106.252 47.5226 105.751 47.3943 105.26C47.0483 103.931 46.8263 102.577 47.0362 101.214C47.1831 100.271 47.3924 99.3081 47.7713 98.44C47.9266 98.0942 48.1498 97.7828 48.4278 97.5242C48.7058 97.2656 49.0329 97.065 49.39 96.9341C49.4644 96.9053 49.4946 96.7695 49.5834 96.6567C49.7417 96.8566 49.8818 97.0702 50.0021 97.2948C50.4557 98.0969 50.9092 98.8994 51.3628 99.7023C51.3547 99.7277 51.3535 99.7548 51.3594 99.7808C51.9948 101.234 52.7167 102.608 53.2085 104.065C53.9095 106.128 54.4707 108.241 55.0303 110.347C55.265 111.223 55.3435 112.145 55.4891 113.049Z" fill="#216B0D"/>
<path d="M34.1618 83.0069C33.9938 83.2368 33.8584 83.5041 33.6512 83.6915C32.591 84.6509 31.4419 85.4956 30.141 86.1035C29.2271 86.5403 28.2243 86.7613 27.2104 86.7493C26.2097 86.7315 25.1753 86.7483 24.2185 86.505C22.4641 86.0584 20.8453 85.2755 20.0962 83.4677C19.7787 82.7028 19.5179 81.8878 19.9258 81.0054C20.1129 80.6023 20.0685 80.0921 20.1766 79.5758C20.7134 79.5507 21.2512 79.5534 21.7877 79.5838C21.863 79.6046 21.9382 79.6253 22.0773 79.6594C22.6059 79.7142 23.0697 79.7565 23.5354 79.7989C23.5779 79.8095 23.6204 79.821 23.7287 79.8441C24.0316 79.8824 24.2696 79.9101 24.5056 79.9368C24.548 79.9493 24.5894 79.9618 24.6938 79.9857L25.473 80.1397C25.5454 80.1583 25.6178 80.176 25.758 80.2083L27.7886 80.6542C27.8299 80.6686 27.8723 80.683 27.9745 80.7108C28.3381 80.8129 28.6418 80.9017 28.9454 80.9906L29.1303 81.05C29.9242 81.3135 30.6715 81.5274 31.3874 81.8118C32.3271 82.1816 33.2402 82.6028 34.1618 83.0069Z" fill="#216B0D"/>
<path d="M17.3 79.5367C17.6347 79.902 17.5154 80.3167 17.3308 80.6596C16.9596 81.3473 16.5878 82.0505 16.0907 82.6473C15.1718 83.7701 14.0015 84.5411 12.5622 84.8729C11.2075 85.1791 9.80588 85.2212 8.43487 84.9968C7.65335 84.8757 6.84436 84.9168 6.07091 84.7669C5.19964 84.5993 4.27608 84.4672 3.68226 83.6807C3.57516 83.5381 3.5427 83.3395 3.48577 83.097C4.82806 82.4568 6.15438 81.8704 7.4955 81.3255C8.17606 81.0476 8.88289 80.8399 9.57643 80.6005C9.57643 80.6005 9.56427 80.5883 9.60469 80.6017C9.97227 80.5203 10.2957 80.4214 10.6268 80.3259C10.7405 80.3142 10.8533 80.3016 11.0322 80.2723L12.107 79.9978C12.1743 80.0045 12.242 80.0074 12.3096 80.0065C12.4772 79.9904 12.5742 79.9819 12.6705 79.9666C14.2065 79.7245 15.7351 79.4287 17.3 79.5367Z" fill="#216B0D"/>
<path d="M47.2472 145.843C46.6662 146.144 46.1054 146.496 45.499 146.73C43.5844 147.469 41.5835 147.604 39.5134 147.462C39.3388 147.458 39.1649 147.439 38.9937 147.404C38.0739 147.231 37.2212 147.084 36.3676 146.939C36.3055 146.931 36.2446 146.916 36.1859 146.895C36.0863 146.863 35.9846 146.838 35.8817 146.82C35.8814 146.797 35.8824 146.775 35.8845 146.754C36.1313 146.076 36.2717 145.352 36.643 144.777C37.5674 143.345 38.951 143.605 39.9023 144.796C40.0125 144.934 40.1187 145.074 40.2723 145.27C40.4753 144.977 40.669 144.717 40.8418 144.443C41.6285 143.193 43.6086 143.043 44.375 144.789C44.535 145.153 45.0054 145.133 45.2571 144.703C45.4614 144.347 45.6038 143.959 45.6784 143.555C45.7679 143.085 45.8724 142.992 46.3586 143.149C46.4102 143.168 46.4651 143.176 46.52 143.173C46.5749 143.17 46.6285 143.155 46.6776 143.131C47.0822 142.799 47.4399 142.857 47.796 143.202C47.8485 143.253 47.9448 143.26 48.0597 143.334C48.0565 143.888 48.0142 144.394 47.9738 144.902C47.9654 144.954 47.9484 145.004 47.9235 145.05C47.8188 145.217 47.7362 145.343 47.6576 145.47C47.6576 145.47 47.6576 145.47 47.6287 145.483C47.4856 145.611 47.3722 145.728 47.2578 145.846C47.2531 145.843 47.2473 145.84 47.2472 145.843Z" fill="#D6E898"/>
<path d="M60.7801 109.488C61.1934 107.866 61.6415 106.251 62.0886 104.637C62.166 104.358 62.2404 104.079 62.3136 103.762C62.324 103.657 62.3458 103.553 62.3786 103.452C62.4798 103.211 62.5579 103.029 62.636 102.847C63.6111 103.096 64.4798 103.551 64.9182 104.478C65.4032 105.505 65.197 106.441 64.109 106.842C63.6845 106.998 63.1604 106.883 62.6824 106.9C62.525 106.906 62.3674 106.94 62.2103 106.961C62.2476 107.138 62.253 107.331 62.3301 107.489C62.4333 107.699 62.6399 107.867 62.7155 108.083C62.8948 108.589 62.8473 109.128 62.4051 109.446C62.1746 109.626 61.8922 109.727 61.5996 109.735C61.3071 109.742 61.0197 109.656 60.7801 109.488Z" fill="#9BB257"/>
<path d="M73.193 93.2229C73.8679 93.419 74.5299 93.5719 75.1504 93.8299C75.7259 94.0655 76.2628 94.4054 76.8406 94.7228C76.5113 95.5726 75.5078 96.0057 74.5895 95.4346C74.175 95.1768 73.7699 94.9047 73.3546 94.6429C73.3032 94.6106 73.2094 94.5687 73.1801 94.5907C72.8373 94.8452 72.4136 94.8027 72.0367 94.9197C71.276 95.1542 70.5495 95.1619 69.8603 94.7542C69.6699 94.6411 69.5482 94.4075 69.3897 94.2345C69.2815 94.1171 69.155 94.0164 69.0539 93.8944C69.0311 93.8571 69.0173 93.8151 69.0136 93.7716C69.0099 93.7281 69.0163 93.6843 69.0325 93.6438C69.2967 93.5247 69.5685 93.4227 69.846 93.3386C70.8957 93.0561 71.9635 93.1477 73.0281 93.2002C73.0824 93.212 73.1375 93.2196 73.193 93.2229Z" fill="#9BB257"/>
<path d="M63.7905 99.5141C64.3873 99.4134 64.6981 99.8593 64.7879 100.267C64.9029 100.793 64.6933 101.311 64.2031 101.496C63.8558 101.628 63.4647 101.645 63.0486 101.675C63.1508 101.2 63.2795 100.732 63.4339 100.271C63.4595 100.168 63.4906 100.066 63.5271 99.9654C63.6335 99.7834 63.7125 99.6488 63.7905 99.5141Z" fill="#9BB257"/>
<path d="M79.3304 97.4753C78.6729 97.4888 78.0321 97.4778 77.4138 97.4668C77.5731 97.0304 77.8948 96.88 78.7796 96.9151C78.8712 96.919 78.9033 96.9204 78.9364 96.9218C78.9364 96.9218 78.953 96.9226 78.97 96.9583C79.1148 97.087 79.2425 97.1828 79.3701 97.2787C79.3625 97.3452 79.3492 97.411 79.3304 97.4753Z" fill="#0E110A"/>
<path d="M65.2735 96.5922C65.581 96.1971 65.9133 95.8219 66.2686 95.4687C66.5463 95.5701 66.7747 95.6596 66.9025 95.7088C66.3535 96.1032 65.7614 96.5277 65.1657 96.92C65.1632 96.8421 65.1641 96.7984 65.166 96.7538C65.2072 96.7037 65.2432 96.6496 65.2735 96.5922Z" fill="#B4CA79"/>
<path d="M35.5229 146.693C35.4964 146.698 35.4964 146.651 35.4935 146.629C35.5229 146.604 35.5508 146.614 35.59 146.655C35.5821 146.678 35.5653 146.683 35.5229 146.693Z" fill="#D6E898"/>
<path d="M14.3768 117.151C13.4676 116.482 13.0591 115.54 12.7849 114.537C12.5811 113.751 12.4231 112.954 12.3116 112.15C12.2504 111.687 12.2313 111.22 12.2545 110.753C12.2968 109.428 12.3139 108.098 12.4361 106.777C12.5376 105.691 12.7143 104.614 12.9651 103.552C13.3353 101.978 14.4704 101.118 15.9626 100.668C17.6439 100.157 19.3735 100.112 21.0882 100.323C22.6417 100.515 24.1264 101.036 25.2783 102.17C25.9016 102.768 26.3212 103.545 26.478 104.392C26.6298 105.243 26.7806 106.096 26.898 106.953C26.9576 107.431 26.9865 107.912 26.9844 108.394C26.9958 109.923 27.0966 111.463 26.9543 112.979C26.858 113.993 26.8723 115.092 26.2739 116.003C25.7888 116.764 25.072 117.349 24.2284 117.675C22.5099 118.348 20.7341 118.377 18.9393 118.282C17.9771 118.231 17.0128 118.184 16.0598 118.054C15.4223 117.968 14.8688 117.629 14.3768 117.151Z" fill="#206A0C"/>
<path d="M8.79531 107.437C8.82964 108.137 8.90376 108.797 8.87758 109.452C8.82147 110.758 8.74389 112.063 8.61873 113.363C8.53349 114.257 8.3598 115.141 8.2114 116.028C8.00856 117.273 6.87257 118.359 5.45308 118.298C4.22353 118.245 2.98733 118.301 1.76127 118.213C0.316252 118.109 -1.12647 117.906 -2.44936 117.254C-3.5965 116.692 -4.61579 115.948 -5.16759 114.752C-5.38246 114.287 -5.51113 113.788 -5.54738 113.277C-5.60025 112.418 -5.54354 111.552 -5.52792 110.689C-5.51959 110.495 -5.51125 110.301 -5.49219 110.108C-5.4183 109.16 -5.40347 108.202 -5.25103 107.266C-5.0986 106.331 -4.82206 105.438 -4.58108 104.532C-4.34871 103.667 -4.16447 102.787 -3.84193 101.959C-3.34379 100.679 -2.29859 99.6387 -0.657031 99.6664C0.772979 99.688 2.20761 99.7157 3.62911 99.8671C4.43069 99.9531 5.20596 100.288 5.99053 100.52C7.05078 100.832 7.61628 101.642 7.98339 102.594C8.18225 103.148 8.3212 103.722 8.39788 104.306C8.55587 105.331 8.66083 106.364 8.79531 107.437Z" fill="#206A0C"/>
<path d="M41.4141 99.5294C42.9535 100.209 44.0169 101.288 44.5499 102.853C45.154 104.616 45.4237 106.475 45.3451 108.335C45.2958 109.483 45.3048 110.637 45.1816 111.777C45.0094 113.377 44.342 114.734 42.8377 115.511C41.9102 115.999 40.8796 116.26 39.8308 116.274C38.5894 116.291 37.3499 116.379 36.109 116.386C35.5144 116.39 34.8958 116.361 34.3287 116.203C33.4722 115.963 32.5817 115.721 31.9667 114.995C31.388 114.311 30.9759 113.566 30.8841 112.637C30.7736 111.506 30.5571 110.387 30.3867 109.264C30.3874 109.248 30.3823 109.232 30.381 109.215C30.3507 108.309 30.3096 107.402 30.2929 106.495C30.27 105.256 30.2833 104.016 30.2487 102.778C30.2185 101.732 30.7441 100.993 31.5358 100.424C32.7777 99.5306 34.2071 99.178 35.7103 98.951C36.4375 98.8351 37.1727 98.7767 37.9091 98.7763C39.1249 98.7867 40.2934 98.9419 41.4141 99.5294Z" fill="#206A0C"/>
<path d="M0.272508 96.9987C0.324127 96.1836 0.252902 95.3651 0.471644 94.6359C0.894152 93.264 1.40999 91.9224 2.01558 90.6204C2.44078 89.7009 2.97645 88.8363 3.61085 88.0454C4.46153 86.9886 5.57998 86.1969 6.99952 86.2123C7.8449 86.2147 8.67141 86.4619 9.37841 86.9236C10.0854 87.3854 10.6424 88.0419 10.9815 88.8131C11.4337 89.8275 11.6096 90.9426 11.4916 92.0461C11.4115 92.9125 11.3624 93.7812 11.2686 94.646C11.2415 94.8917 11.1036 95.1248 11.0172 95.3631C10.4069 97.0513 9.26513 98.2035 7.52275 98.7049C7.08848 98.8341 6.63523 98.8886 6.1825 98.866C4.7468 98.7722 3.30476 98.6899 1.8863 98.4676C1.13494 98.3488 0.5959 97.7639 0.272508 96.9987Z" fill="#206A0C"/>
<path d="M41.9575 87.8145C43.2942 89.1003 44.6358 90.3388 45.8919 91.6582C46.6614 92.4687 47.2987 93.401 47.9975 94.3115C47.7296 95.6179 47.1056 96.6242 45.8066 97.0514C45.3948 97.1824 44.9624 97.2369 44.5308 97.2123C43.265 97.1404 42.1509 96.5813 41.0893 95.9361C40.2245 95.413 39.349 94.8894 38.5433 94.2862C37.3794 93.4101 36.2406 92.4933 35.155 91.5224C34.4199 90.8649 34.0988 89.9337 34.0934 88.9684C34.0831 87.5723 34.1016 86.1658 34.9647 84.9336C35.2112 84.5807 35.3061 84.1212 35.4737 83.6726C36.5351 84.2324 37.6262 84.7807 38.6442 85.4416C39.7722 86.1753 40.8344 87.011 41.9575 87.8145Z" fill="#216B0D"/>
<path d="M19.7594 87.5342C20.7297 88.3048 21.2812 89.2809 21.6145 90.4284C21.9851 91.7078 21.8104 92.9803 21.6214 94.2434C21.4926 95.1047 21.2172 95.9491 20.9654 96.7887C20.5793 98.0735 19.582 98.6361 18.3508 98.9175C17.0031 99.227 15.6373 99.1663 14.2909 99.0152C12.963 98.8658 12.3068 98.0552 12.3004 96.638C12.2955 95.6367 12.5213 94.6308 12.6803 93.6337C12.8271 92.7157 12.976 91.794 13.205 90.8942C13.4702 89.8579 13.8145 88.8415 14.1442 87.8245C14.3221 87.2714 14.6975 86.9182 15.283 86.7616C16.2987 86.4917 17.3693 86.5041 18.3786 86.7974C18.8581 86.9279 19.2829 87.2639 19.7594 87.5342Z" fill="#206A0C"/>
<path d="M23.8322 93.3421C24.0369 92.3245 24.179 91.3354 24.4589 90.3863C24.7616 89.3613 25.4817 88.778 26.5873 88.5563C27.9936 88.2679 29.2157 88.6071 30.329 89.3877C30.8648 89.7726 31.3322 90.2441 31.7118 90.7825C32.4484 91.8113 33.1983 92.8504 33.7491 93.98C34.5961 95.7114 34.5452 97.5538 32.4375 98.5625C31.844 98.8311 31.2102 99.0008 30.5613 99.065C29.4341 99.1973 28.2943 99.2591 27.1584 99.2774C26.7432 99.2848 26.3052 99.1435 25.9097 98.9885C24.894 98.5921 24.4522 97.7664 24.1304 96.7603C23.7754 95.6401 23.8715 94.5168 23.8322 93.3421Z" fill="#206A0C"/>
<path d="M52.3394 124.859C51.534 126.147 50.4885 127.271 49.2591 128.169C48.1841 128.972 47.0003 129.627 45.8296 130.362C45.571 130.035 45.3385 129.689 45.1342 129.327C44.1933 127.555 43.0747 125.919 41.5588 124.579C41.5015 124.528 41.4748 124.444 41.4314 124.297C41.4346 123.176 41.4413 122.136 41.4479 121.095L47.5369 119.547C48.05 119.417 48.5649 119.292 49.1151 119.163C49.1118 119.445 49.1115 119.746 49.0201 120.012C48.4238 121.757 48.4247 123.554 48.5314 125.434C48.5959 125.789 48.6785 126.141 48.7789 126.488C48.9424 126.999 49.3705 127.28 49.7453 127.099C50.7421 126.616 51.5101 125.895 51.9449 124.861C52.076 124.847 52.2082 124.846 52.3394 124.859Z" fill="#A8A442"/>
<path d="M65.1241 97.1379C65.1259 97.0814 65.1389 97.0258 65.1624 96.9743C65.7673 96.526 66.3576 96.1014 66.9065 95.7071C66.7788 95.6579 66.5503 95.5684 66.2987 95.4487C66.7999 94.7559 67.4656 94.2791 68.2712 93.9318C68.5092 94.6389 68.2448 95.0687 67.2617 95.6621C67.6706 95.8235 68.1565 95.9183 68.5231 96.1789C69.6597 96.9849 69.6811 98.5544 68.3562 99.3576C68.0121 99.5702 67.625 99.7047 67.2227 99.7514C66.8203 99.7981 66.4126 99.7559 66.0284 99.6278C65.1952 99.3695 64.7417 98.5647 64.9735 97.7359C65.0245 97.5486 65.0783 97.3643 65.1241 97.1379Z" fill="#9BB257"/>
<path d="M71.4629 103.207C71.9261 104.034 72.6136 104.715 73.4468 105.171C74.3825 105.678 75.3939 105.88 76.4448 105.66C77.1451 105.513 77.8276 105.281 78.6059 105.137C78.4549 105.311 78.3298 105.519 78.1502 105.656C75.8603 107.405 72.551 106.618 71.1674 103.996C70.8965 103.485 70.6206 102.931 70.877 102.166C71.1011 102.563 71.2724 102.87 71.4629 103.207Z" fill="#667228"/>
<path d="M67.3576 101.607C68.483 102.267 68.2689 103.796 67.4712 104.371C66.9676 104.733 66.1291 104.619 65.7565 104.137C65.3357 103.594 65.2834 102.994 65.4495 102.399C65.6802 101.573 66.4165 101.293 67.3576 101.607Z" fill="#9BB257"/>
<path d="M67.791 107.814C67.9946 108.892 66.3647 109.933 65.4809 109.33C64.7316 108.822 64.6557 107.748 65.4352 107.19C65.939 106.823 66.9159 106.804 67.4019 107.192C67.5718 107.326 67.6558 107.577 67.791 107.814Z" fill="#9BB257"/>
<path d="M73.8569 99.9661C73.6487 100.427 73.3364 100.721 72.8548 100.731C72.3732 100.74 72.096 100.354 72.0343 99.9733C71.9459 99.4438 71.9562 98.9026 72.0648 98.3769C72.1569 97.959 72.5445 97.6841 73.026 97.7243C73.2395 97.7351 73.4426 97.8193 73.6007 97.9626C73.7589 98.1058 73.8622 98.2993 73.8931 98.5099C73.9709 98.971 73.8847 99.4561 73.8569 99.9661ZM72.8124 99.8095C72.7527 99.6373 72.6765 99.4713 72.5848 99.3138C72.5683 99.2897 72.2896 99.3691 72.2479 99.4538C72.1941 99.571 72.2108 99.841 72.277 99.8671C72.4128 99.9332 72.6005 99.8791 72.8124 99.8095Z" fill="#0E110A"/>
<path d="M51.9077 124.86C51.5107 125.899 50.7438 126.62 49.7461 127.1C49.3714 127.278 48.9432 127 48.7797 126.489C48.6782 126.17 48.6183 125.838 48.5389 125.481C49.6477 125.255 50.7592 125.058 51.9077 124.86Z" fill="#464719"/>
<path d="M65.2119 111.93C65.1318 112.073 65.0301 112.203 64.9103 112.316C64.3051 112.77 63.0789 112.594 62.632 112.002C62.5147 111.847 62.4598 111.654 62.4778 111.461C62.4958 111.269 62.5856 111.089 62.7295 110.959C63.3975 110.405 64.6977 110.586 65.1445 111.317C65.2365 111.47 65.1993 111.7 65.2119 111.93Z" fill="#9BB257"/>
<path d="M59.2093 113.604C59.4534 112.921 59.7354 112.242 60.0343 111.532C60.6009 111.545 61.1385 111.571 61.4582 112.15C61.8204 112.807 61.5588 113.49 60.8619 113.784C60.2665 114.034 59.7657 113.831 59.2093 113.604Z" fill="#9BB257"/>
<path d="M77.4197 98.8937C77.4558 98.7786 77.4816 98.702 77.5083 98.6264C77.6456 98.2231 77.9002 97.9551 78.3514 97.9502C78.8191 97.945 79.069 98.2862 79.1922 98.6443C79.3822 99.1977 79.3296 99.763 78.9399 100.246C78.5275 100.756 77.8068 100.673 77.5814 100.059C77.455 99.7077 77.4604 99.3095 77.4148 98.8935M78.1632 99.9209C78.105 99.7616 78.0497 99.6021 77.9973 99.4424C77.8981 99.4809 77.7354 99.4972 77.713 99.5623C77.6729 99.6782 77.6697 99.8656 77.7396 99.9425C77.8096 100.019 77.9904 99.9669 78.1681 99.9211L78.1632 99.9209Z" fill="#0E110A"/>
<path d="M74.0065 96.7499C73.2395 96.6771 72.4846 96.5504 71.7867 97.05C71.7477 96.6392 71.9583 96.4189 72.4993 96.2312C73.1007 96.0238 73.6938 96.2126 74.0065 96.7499Z" fill="#0E110A"/>
<path d="M77.1437 101.886C76.7018 102.061 76.6938 101.702 76.7025 101.5C76.71 101.324 76.8958 101.157 77.0028 100.986C77.0931 101.156 77.2052 101.318 77.2531 101.498C77.2809 101.6 77.2009 101.736 77.1437 101.886Z" fill="#A8A442"/>
<path d="M75.0874 101.045C75.4459 101.242 75.4578 101.51 75.1633 102.004C74.8571 101.793 74.8361 101.599 75.0874 101.045Z" fill="#667228"/>
<path d="M41.4133 121.1C41.441 122.136 41.4344 123.176 41.4306 124.263C41.296 124.256 41.1658 124.213 41.0544 124.138C39.4284 122.907 37.6372 122.271 35.6012 122.814C34.5596 123.09 33.5153 123.451 32.9372 124.501C32.5814 125.15 32.6421 125.849 32.6965 126.538C32.7423 127.13 32.8576 127.718 32.941 128.343C32.525 127.712 31.9582 127.092 31.7356 126.366C31.4111 125.307 31.3349 124.174 31.1548 123.028C32.1099 122.833 33.0641 122.684 34.0166 122.529C35.0311 122.363 36.0455 122.198 37.0568 122.014C37.7454 121.888 38.4355 121.73 39.125 121.585C39.8766 121.426 40.6272 121.266 41.4133 121.1Z" fill="#464719"/>
<path d="M-5.95614 124.234C-5.98229 123.594 -5.97787 122.946 -5.96274 122.298C-5.95528 122.124 -5.92049 121.951 -5.89561 121.735C-5.03886 121.855 -4.18627 122.025 -3.32983 122.175C-2.25061 122.364 -1.17024 122.55 -0.0859929 122.713C1.34936 122.928 2.78771 123.119 4.25277 123.347C4.2732 125.143 3.7315 126.756 2.78746 128.236C2.59587 128.538 2.29977 128.773 2.01921 129.055C2.09695 128.473 2.2114 127.896 2.36188 127.328C2.82058 125.739 2.30127 124.604 0.855116 123.777C-0.438784 123.041 -1.80697 122.807 -3.21541 123.101C-4.04964 123.275 -4.82126 123.742 -5.62055 124.08C-5.72489 124.123 -5.82194 124.178 -5.95614 124.234Z" fill="#464719"/>
<path d="M33.1075 134.172C33.0606 134.21 33.0024 134.231 32.9419 134.233C32.9887 134.195 33.047 134.173 33.1075 134.172Z" fill="#B4CA79"/>
<g clip-path="url(#clip1_1157_22729)">
<path d="M183.785 127.668C182.979 125.712 181.249 124.12 180.987 122.02C180.787 120.397 181.522 118.795 182.483 117.47C183.443 116.146 184.634 114.997 185.544 113.639C187.447 110.803 187.981 107.091 186.955 103.834C186.317 101.808 185.099 99.8504 185.325 97.739C185.563 95.5129 187.354 93.7491 187.91 91.5802C188.236 90.3066 188.117 88.9571 187.843 87.6701C187.319 85.2421 186.256 82.9627 184.733 81C186.505 83.9028 186.035 87.9826 183.652 90.4085C182.505 91.5762 180.987 92.3802 180.048 93.721C179.125 95.0384 178.885 96.8076 179.423 98.3231C179.783 99.3367 180.454 100.209 180.902 101.187C182.36 104.373 181.23 108.204 179.255 111.097C177.28 113.991 174.543 116.275 172.325 118.988C170.895 120.737 169.643 122.786 169.559 125.043C169.438 128.31 171.723 131.102 173.734 133.68C176.576 137.307 175.955 143.934 175.955 143.934L178.596 141.06C180.312 139.193 182.052 137.293 183.177 135.021C184.303 132.749 184.751 130.012 183.785 127.668Z" fill="#7D972A"/>
<path d="M183.178 135.019C182.053 137.291 180.312 139.191 178.597 141.059C177.794 141.931 176.993 142.803 176.192 143.675C177.685 140.87 178.488 137.697 178.482 134.518C178.473 130.092 176.955 125.602 178.058 121.315C179.273 116.605 183.494 112.917 183.943 108.075C184.292 104.295 182.235 100.488 183.098 96.7932C183.451 95.2864 184.068 93.835 184.875 92.5156C187.115 88.8575 186.739 85.5226 185.654 82.3228C186.692 83.9641 187.432 85.7757 187.84 87.6742C188.116 88.9608 188.236 90.3083 187.909 91.5822C187.352 93.7508 185.561 95.5143 185.324 97.742C185.097 99.8528 186.316 101.812 186.953 103.836C187.979 107.093 187.447 110.805 185.544 113.642C184.633 115.001 183.44 116.149 182.482 117.473C181.523 118.798 180.784 120.4 180.986 122.023C181.249 124.121 182.978 125.712 183.785 127.671C184.752 130.013 184.304 132.749 183.178 135.019Z" fill="#6A8023"/>
<path d="M176.254 131.651C176.08 132.59 175.544 133.279 175.055 133.189C174.567 133.099 174.312 132.264 174.487 131.325C174.661 130.386 175.197 129.698 175.685 129.788C176.174 129.877 176.428 130.712 176.254 131.651Z" fill="#6A8023"/>
<path d="M177.075 120.552C176.988 121.021 176.72 121.365 176.476 121.32C176.232 121.275 176.104 120.858 176.191 120.388C176.278 119.919 176.546 119.575 176.791 119.62C177.035 119.665 177.162 120.082 177.075 120.552Z" fill="#6A8023"/>
<path d="M182.706 108.492C182.619 108.96 182.351 109.305 182.107 109.261C181.863 109.216 181.735 108.798 181.822 108.328C181.909 107.859 182.178 107.515 182.422 107.56C182.666 107.605 182.793 108.022 182.706 108.492Z" fill="#6A8023"/>
<path d="M182.342 99.2589C182.255 99.7267 181.986 100.073 181.742 100.027C181.498 99.9824 181.371 99.565 181.457 99.0954C181.544 98.6259 181.813 98.282 182.057 98.3268C182.301 98.3716 182.43 98.7893 182.342 99.2589Z" fill="#6A8023"/>
<path d="M183.441 92.0952C183.397 92.3291 183.263 92.5019 183.14 92.4795C183.017 92.4571 182.954 92.2483 182.998 92.0133C183.041 91.7784 183.175 91.6066 183.299 91.6293C183.422 91.6521 183.484 91.8613 183.441 92.0952Z" fill="#6A8023"/>
<path d="M176.644 126.102C176.531 126.713 176.181 127.162 175.863 127.104C175.545 127.046 175.379 126.503 175.492 125.89C175.606 125.277 175.955 124.83 176.273 124.887C176.592 124.945 176.758 125.49 176.644 126.102Z" fill="#6A8023"/>
<path d="M181.194 114.194C181.081 114.805 180.731 115.254 180.413 115.196C180.094 115.139 179.929 114.595 180.042 113.982C180.155 113.369 180.505 112.922 180.823 112.979C181.141 113.037 181.307 113.584 181.194 114.194Z" fill="#6A8023"/>
<path d="M172.97 122.571C172.856 123.183 172.507 123.631 172.189 123.574C171.87 123.516 171.705 122.972 171.818 122.359C171.931 121.747 172.281 121.299 172.599 121.357C172.917 121.414 173.083 121.959 172.97 122.571Z" fill="#6A8023"/>
<path d="M181.748 96.058C181.634 96.67 181.285 97.1184 180.967 97.0606C180.649 97.0028 180.482 96.4591 180.596 95.8462C180.709 95.2333 181.059 94.7861 181.377 94.8436C181.695 94.9011 181.861 95.4465 181.748 96.058Z" fill="#6A8023"/>
<path d="M176.409 143.697C177.479 141.679 178.19 139.491 178.512 137.23C178.821 135.032 178.682 132.845 178.417 130.65C178.157 128.491 177.812 126.323 177.889 124.14C177.964 122.012 178.564 120.047 179.539 118.164C181.328 114.706 184.103 111.48 184.201 107.405C184.249 105.384 183.713 103.412 183.374 101.435C183.207 100.45 183.082 99.4517 183.11 98.4507C183.14 97.3703 183.396 96.3256 183.759 95.311C184.16 94.1901 184.736 93.1896 185.317 92.1569C185.842 91.2212 186.253 90.2246 186.487 89.1779C186.906 87.3235 186.752 85.417 186.266 83.5919C186.147 83.1455 186.01 82.704 185.863 82.2662C185.805 82.0934 185.376 82.1703 185.445 82.3765C186.053 84.1811 186.44 86.0817 186.245 87.9929C186.133 89.0293 185.862 90.0423 185.442 90.9963C184.984 92.0486 184.318 92.9894 183.835 94.0297C183.367 95.0377 182.982 96.1158 182.793 97.2136C182.629 98.1583 182.637 99.1215 182.735 100.073C182.941 102.061 183.511 103.992 183.701 105.983C183.797 106.986 183.784 107.998 183.591 108.991C183.406 109.946 183.08 110.868 182.678 111.753C181.845 113.591 180.706 115.265 179.71 117.014C178.718 118.754 177.876 120.576 177.588 122.575C177.283 124.686 177.496 126.822 177.755 128.924C178.025 131.11 178.348 133.302 178.238 135.511C178.119 137.798 177.597 140.046 176.695 142.151C176.477 142.662 176.236 143.162 175.977 143.653C175.886 143.83 176.323 143.861 176.409 143.697Z" fill="#53661B"/>
<path d="M175.695 143.136C175.649 143.184 175.603 143.23 175.556 143.275L175.569 143.277L175.695 143.136Z" fill="#7D972A"/>
<path d="M164.039 140.252C161.368 139.183 158.547 137.598 157.681 134.855C156.883 132.325 158.005 129.626 158.125 126.976C158.259 124.055 157.088 121.099 154.997 119.056C152.905 117.013 149.919 115.914 147 116.116C149.376 116.483 150.718 119.18 150.731 121.583C150.743 123.986 149.85 126.302 149.611 128.693C149.076 134.04 152.042 139.423 156.527 142.388C161.011 145.352 166.78 146.038 172.028 144.87C173.302 144.587 174.619 144.157 175.556 143.275C171.606 142.748 167.738 141.732 164.039 140.252Z" fill="#7D972A"/>
<path d="M175.557 143.276C175.446 143.38 175.33 143.477 175.209 143.568C174.309 144.256 173.151 144.62 172.028 144.869C166.779 146.037 161.011 145.353 156.527 142.388C152.042 139.423 149.076 134.04 149.611 128.694C149.85 126.301 150.744 123.985 150.731 121.583C150.718 119.181 149.376 116.483 147 116.115C147.252 116.097 147.506 116.09 147.76 116.092C150.429 116.111 153.084 117.188 154.996 119.055C157.09 121.097 158.256 124.053 158.124 126.975C158.004 129.626 156.882 132.325 157.68 134.855C158.546 137.595 161.367 139.181 164.039 140.252C167.738 141.732 171.607 142.747 175.557 143.276Z" fill="#7D972A"/>
<path d="M175.557 143.276C175.447 143.38 175.33 143.478 175.209 143.568C174.669 143.552 174.129 143.538 173.588 143.522C169.659 143.408 165.64 143.278 161.972 141.858C158.305 140.437 154.998 137.455 154.299 133.588C153.649 129.993 155.297 126.195 154.266 122.69C153.639 120.559 152.07 118.803 150.246 117.533C149.457 116.983 148.622 116.514 147.761 116.092C150.43 116.111 153.085 117.188 154.996 119.055C157.09 121.097 158.257 124.053 158.125 126.975C158.005 129.626 156.883 132.325 157.68 134.855C158.547 137.595 161.368 139.181 164.039 140.252C167.739 141.732 171.607 142.747 175.557 143.276Z" fill="#6A8023"/>
<path d="M175.47 143.183C175.398 143.249 175.321 143.345 175.229 143.383C175.138 143.421 175.008 143.399 174.906 143.396L174.237 143.377C173.827 143.366 173.416 143.354 173.005 143.341C172.232 143.318 171.46 143.291 170.688 143.251C169.134 143.172 167.581 143.04 166.047 142.775C163.067 142.259 160.162 141.191 157.864 139.174C156.782 138.224 155.851 137.087 155.218 135.79C154.595 134.514 154.317 133.136 154.307 131.721C154.288 129.003 155.098 126.285 154.646 123.57C154.116 120.385 151.696 118.05 148.986 116.524C148.621 116.318 148.249 116.125 147.873 115.94C147.726 115.868 147.477 116.16 147.646 116.241C150.562 117.678 153.436 119.883 154.215 123.208C154.856 125.939 154.027 128.742 153.978 131.489C153.953 132.892 154.154 134.282 154.71 135.579C155.276 136.899 156.146 138.078 157.181 139.068C159.37 141.159 162.188 142.348 165.123 142.949C168.253 143.59 171.47 143.622 174.652 143.712C174.818 143.717 175.032 143.763 175.19 143.718C175.354 143.672 175.522 143.478 175.642 143.367C175.818 143.209 175.645 143.021 175.47 143.183Z" fill="#53661B"/>
<path d="M152.994 123.973C153.384 124.712 153.388 125.475 153.004 125.678C152.62 125.88 151.993 125.444 151.603 124.707C151.214 123.969 151.209 123.205 151.593 123.002C151.977 122.799 152.605 123.234 152.994 123.973Z" fill="#6A8023"/>
<path d="M155.355 138.695C155.744 139.434 155.749 140.197 155.365 140.4C154.98 140.603 154.353 140.166 153.964 139.429C153.574 138.691 153.569 137.927 153.953 137.724C154.337 137.522 154.965 137.957 155.355 138.695Z" fill="#6A8023"/>
<path d="M151.828 128.074C152.025 128.447 152.027 128.832 151.833 128.934C151.639 129.036 151.322 128.817 151.125 128.444C150.928 128.071 150.926 127.685 151.12 127.583C151.314 127.481 151.631 127.7 151.828 128.074Z" fill="#6A8023"/>
<path d="M152.279 120.916C152.476 121.289 152.48 121.674 152.284 121.776C152.089 121.879 151.773 121.659 151.577 121.286C151.38 120.912 151.376 120.527 151.572 120.425C151.767 120.323 152.082 120.543 152.279 120.916Z" fill="#6A8023"/>
<path d="M151.908 133.847C152.105 134.22 152.109 134.605 151.913 134.708C151.718 134.81 151.403 134.59 151.206 134.217C151.009 133.844 151.005 133.459 151.201 133.356C151.396 133.254 151.712 133.474 151.908 133.847Z" fill="#6A8023"/>
<path d="M161.252 142.999C161.449 143.372 161.452 143.757 161.257 143.86C161.061 143.962 160.746 143.742 160.549 143.369C160.352 142.996 160.349 142.611 160.544 142.509C160.74 142.406 161.055 142.625 161.252 142.999Z" fill="#6A8023"/>
<path d="M165.363 144.019C165.56 144.392 165.562 144.777 165.368 144.88C165.174 144.982 164.857 144.762 164.66 144.389C164.463 144.016 164.461 143.63 164.655 143.529C164.849 143.427 165.166 143.646 165.363 144.019Z" fill="#6A8023"/>
<path d="M174.791 128.482C173.467 127.212 171.536 126.553 170.593 124.978C169.864 123.761 169.891 122.231 170.187 120.844C170.482 119.457 171.028 118.129 171.276 116.733C171.793 113.816 170.917 110.684 168.962 108.457C167.746 107.072 166.094 105.944 165.534 104.189C164.943 102.338 165.747 100.312 165.429 98.396C165.242 97.2708 164.675 96.2415 164.006 95.3174C162.741 93.5725 161.1 92.1337 159.204 91.1073C161.626 92.792 162.681 96.1944 161.641 98.9538C161.137 100.283 160.214 101.453 159.94 102.843C159.669 104.214 160.098 105.7 161.055 106.715C161.696 107.394 162.534 107.851 163.232 108.471C165.506 110.489 165.949 113.926 165.394 116.914C164.84 119.901 163.468 122.672 162.657 125.601C162.134 127.489 161.858 129.553 162.582 131.375C163.63 134.01 166.421 135.427 168.92 136.77C172.445 138.654 174.272 144.132 174.272 144.132L175.363 140.926C176.071 138.843 176.786 136.726 176.884 134.529C176.982 132.332 176.379 130.004 174.791 128.482Z" fill="#7D972A"/>
<path d="M176.884 134.528C176.786 136.726 176.07 138.843 175.363 140.925C175.031 141.898 174.7 142.87 174.371 143.843C174.573 141.094 174.1 138.295 172.981 135.774C171.425 132.265 168.648 129.231 168.022 125.441C167.337 121.278 169.396 116.874 168.055 112.876C167.009 109.754 164.043 107.451 163.435 104.216C163.187 102.897 163.167 101.529 163.347 100.199C163.845 96.5115 162.378 93.9964 160.396 91.8352C161.795 92.7747 163.017 93.9538 164.007 95.3181C164.675 96.2429 165.244 97.2702 165.43 98.396C165.747 100.312 164.943 102.34 165.535 104.19C166.094 105.945 167.747 107.073 168.962 108.457C170.917 110.683 171.794 113.816 171.277 116.733C171.03 118.13 170.485 119.458 170.188 120.844C169.89 122.23 169.865 123.761 170.594 124.978C171.537 126.552 173.467 127.21 174.792 128.481C176.379 130.005 176.982 132.332 176.884 134.528Z" fill="#6A8023"/>
<path d="M170.208 134.278C170.399 135.084 170.214 135.818 169.795 135.916C169.376 136.013 168.881 135.441 168.691 134.635C168.502 133.829 168.685 133.095 169.105 132.998C169.524 132.901 170.017 133.472 170.208 134.278Z" fill="#6A8023"/>
<path d="M166.973 125.18C167.069 125.583 166.976 125.949 166.767 125.999C166.557 126.05 166.31 125.763 166.214 125.36C166.119 124.956 166.212 124.589 166.421 124.54C166.63 124.49 166.878 124.777 166.973 125.18Z" fill="#6A8023"/>
<path d="M167.22 113.638C167.316 114.041 167.223 114.406 167.014 114.458C166.804 114.509 166.557 114.22 166.461 113.817C166.366 113.414 166.458 113.049 166.668 112.998C166.878 112.947 167.125 113.235 167.22 113.638Z" fill="#6A8023"/>
<path d="M163.699 106.437C163.795 106.84 163.702 107.205 163.492 107.256C163.283 107.307 163.036 107.019 162.94 106.616C162.844 106.212 162.937 105.847 163.147 105.796C163.356 105.746 163.604 106.033 163.699 106.437Z" fill="#6A8023"/>
<path d="M162.061 100.366C162.109 100.567 162.061 100.751 161.958 100.776C161.854 100.8 161.729 100.657 161.682 100.456C161.634 100.254 161.68 100.071 161.785 100.046C161.89 100.021 162.012 100.165 162.061 100.366Z" fill="#6A8023"/>
<path d="M168.574 129.736C168.699 130.262 168.578 130.739 168.307 130.806C168.036 130.873 167.711 130.497 167.587 129.97C167.463 129.444 167.583 128.968 167.857 128.901C168.13 128.834 168.45 129.211 168.574 129.736Z" fill="#6A8023"/>
<path d="M168.017 118.693C168.141 119.218 168.02 119.696 167.747 119.761C167.474 119.826 167.152 119.452 167.028 118.925C166.903 118.399 167.024 117.923 167.295 117.856C167.566 117.789 167.892 118.168 168.017 118.693Z" fill="#6A8023"/>
<path d="M164.422 128.221C164.546 128.747 164.425 129.224 164.154 129.291C163.883 129.357 163.559 128.982 163.434 128.455C163.31 127.928 163.431 127.453 163.704 127.386C163.977 127.319 164.297 127.694 164.422 128.221Z" fill="#6A8023"/>
<path d="M162.105 104.104C162.23 104.629 162.109 105.107 161.838 105.173C161.566 105.24 161.243 104.865 161.118 104.338C160.994 103.811 161.115 103.335 161.387 103.269C161.66 103.202 161.981 103.579 162.105 104.104Z" fill="#6A8023"/>
<path d="M174.549 143.785C174.692 141.809 174.491 139.823 173.954 137.916C173.43 136.064 172.554 134.376 171.575 132.727C170.612 131.104 169.579 129.504 168.876 127.744C168.191 126.029 167.978 124.259 168.093 122.423C168.302 119.052 169.376 115.522 168.026 112.253C167.357 110.631 166.24 109.254 165.279 107.803C164.8 107.08 164.352 106.332 164.024 105.527C163.67 104.658 163.508 103.74 163.44 102.808C163.366 101.777 163.474 100.782 163.572 99.7592C163.662 98.8338 163.639 97.8984 163.458 96.9854C163.141 95.3669 162.352 93.9075 161.327 92.6289C161.076 92.3157 160.813 92.0133 160.543 91.7172C160.436 91.6006 160.122 91.8118 160.25 91.9511C161.365 93.1713 162.337 94.5438 162.851 96.1285C163.126 96.9899 163.266 97.8883 163.267 98.7924C163.272 99.7879 163.073 100.768 163.053 101.763C163.035 102.726 163.107 103.717 163.341 104.654C163.542 105.461 163.886 106.223 164.297 106.944C165.156 108.45 166.285 109.785 167.133 111.297C167.561 112.061 167.904 112.868 168.099 113.723C168.286 114.545 168.35 115.392 168.341 116.234C168.323 117.984 168.007 119.712 167.827 121.448C167.649 123.176 167.619 124.916 168.09 126.603C168.587 128.386 169.504 130.007 170.447 131.586C171.426 133.226 172.45 134.854 173.136 136.646C173.843 138.503 174.216 140.471 174.237 142.458C174.243 142.939 174.227 143.421 174.193 143.901C174.181 144.073 174.538 143.946 174.549 143.785Z" fill="#53661B"/>
<path d="M197.82 130.297C197.705 129.793 197.57 129.269 197.693 128.782C197.818 128.288 198.189 127.902 198.52 127.512C201.496 123.998 201.731 119.042 201.848 114.417C201.518 117.743 198.713 120.572 195.22 121.102C194.066 121.277 192.732 121.28 191.988 122.098C191.003 123.181 191.676 124.998 191.013 126.289C190.152 127.964 187.462 128.09 186.466 129.692C185.473 131.287 186.516 133.811 185.04 135.021C184.596 135.386 183.997 135.546 183.517 135.869C182.437 136.596 182.156 137.974 181.891 139.22C181.626 140.466 181.189 141.839 179.98 142.373C179.148 142.741 178.147 142.614 177.216 142.705C176.277 142.794 175.378 143.124 174.605 143.665C177.188 144.074 179.009 146.912 181.613 147.719C182.572 148.016 183.586 148.017 184.572 147.986C186.629 147.925 188.821 147.689 190.289 146.416C192.913 144.138 192.156 139.534 194.949 137.438C195.483 137.037 196.119 136.759 196.634 136.335C198.319 134.956 198.311 132.447 197.82 130.297Z" fill="#7D972A"/>
<path d="M196.635 136.337C198.319 134.956 198.311 132.447 197.82 130.297C197.705 129.793 197.57 129.269 197.693 128.782C197.818 128.288 198.189 127.902 198.52 127.512C201.209 124.337 201.661 119.981 201.809 115.758C200.86 119.52 198.81 123.01 195.939 125.625C194.526 126.911 192.847 128.106 192.263 129.925C191.717 131.628 192.173 133.758 190.899 135.014C189.994 135.905 188.491 136.006 187.666 136.97C186.734 138.058 187.064 139.707 186.696 141.09C186.25 142.758 184.739 143.99 183.085 144.493C181.431 144.996 179.655 144.874 177.952 144.584C177.423 144.494 176.88 144.391 176.335 144.308C178.096 145.307 179.627 147.103 181.613 147.719C182.572 148.016 183.585 148.017 184.571 147.986C186.628 147.925 188.821 147.689 190.289 146.416C192.913 144.138 192.155 139.534 194.948 137.438C195.484 137.038 196.12 136.759 196.635 136.337Z" fill="#6A8023"/>
<path d="M201.62 115.745C200.898 118.586 199.566 121.259 197.71 123.532C196.796 124.651 195.743 125.604 194.663 126.556C193.683 127.42 192.693 128.36 192.192 129.594C191.676 130.864 191.839 132.267 191.49 133.574C191.322 134.207 191.008 134.786 190.476 135.184C189.992 135.547 189.412 135.753 188.865 136C188.349 136.233 187.835 136.516 187.468 136.96C187.039 137.478 186.876 138.137 186.794 138.791C186.705 139.502 186.706 140.228 186.544 140.927C186.396 141.558 186.103 142.146 185.689 142.645C184.824 143.7 183.554 144.338 182.226 144.583C180.688 144.868 179.12 144.668 177.595 144.4C177.204 144.331 176.814 144.262 176.422 144.199C176.345 144.188 176.21 144.187 176.164 144.266C176.122 144.337 176.167 144.403 176.248 144.416C177.793 144.656 179.314 144.989 180.888 144.946C182.288 144.909 183.688 144.575 184.86 143.785C185.94 143.057 186.748 141.976 186.974 140.68C187.208 139.351 186.961 137.662 188.141 136.718C189.103 135.95 190.46 135.833 191.266 134.838C192.117 133.785 192.043 132.314 192.214 131.045C192.309 130.347 192.488 129.675 192.837 129.059C193.184 128.449 193.652 127.916 194.15 127.426C195.178 126.416 196.324 125.543 197.3 124.48C199.306 122.3 200.814 119.661 201.695 116.835C201.805 116.482 201.905 116.127 201.996 115.77C202.039 115.601 201.657 115.601 201.62 115.745Z" fill="#53661B"/>
<path d="M194.874 123.189C194.851 123.329 194.787 123.459 194.69 123.562C194.593 123.666 194.468 123.738 194.33 123.77C194.192 123.802 194.047 123.793 193.914 123.743C193.782 123.693 193.667 123.605 193.584 123.49C193.502 123.375 193.455 123.237 193.451 123.096C193.446 122.954 193.483 122.814 193.558 122.694C193.633 122.574 193.742 122.478 193.871 122.42C194 122.361 194.144 122.342 194.284 122.366C194.377 122.381 194.466 122.414 194.546 122.464C194.626 122.514 194.695 122.579 194.75 122.655C194.805 122.732 194.844 122.818 194.865 122.91C194.887 123.001 194.89 123.096 194.874 123.189Z" fill="#6A8023"/>
<path d="M189.162 133.9C189.139 134.04 189.075 134.17 188.978 134.273C188.881 134.377 188.756 134.449 188.618 134.481C188.48 134.513 188.335 134.504 188.203 134.454C188.07 134.404 187.955 134.316 187.872 134.201C187.79 134.085 187.743 133.948 187.739 133.807C187.734 133.665 187.772 133.525 187.846 133.405C187.921 133.285 188.03 133.189 188.159 133.131C188.288 133.072 188.432 133.053 188.572 133.076C188.665 133.092 188.754 133.125 188.834 133.175C188.914 133.224 188.983 133.289 189.038 133.366C189.093 133.442 189.132 133.529 189.153 133.621C189.175 133.712 189.178 133.807 189.162 133.9Z" fill="#6A8023"/>
<path d="M190.083 129.484C190.06 129.624 189.996 129.753 189.899 129.857C189.802 129.96 189.677 130.033 189.539 130.065C189.401 130.097 189.256 130.088 189.124 130.038C188.991 129.988 188.876 129.9 188.793 129.785C188.711 129.669 188.664 129.532 188.66 129.391C188.655 129.249 188.692 129.109 188.767 128.989C188.842 128.869 188.951 128.773 189.08 128.715C189.209 128.656 189.353 128.637 189.493 128.66C189.68 128.691 189.848 128.795 189.959 128.95C190.069 129.104 190.114 129.296 190.083 129.484Z" fill="#6A8023"/>
<path d="M185.248 140.602C185.029 141.927 184.116 142.881 183.209 142.731C182.301 142.581 181.743 141.385 181.962 140.059C182.181 138.734 183.094 137.78 184.002 137.93C184.909 138.08 185.467 139.276 185.248 140.602Z" fill="#6A8023"/>
</g>
</g>
</g>
</svg>
