<svg width="72" height="46" viewBox="0 0 72 46" fill="none" xmlns="http://www.w3.org/2000/svg">
<g clip-path="url(#clip0_1088_21856)">
<path d="M65.1563 7.60908H63.3075C63.1834 7.60164 63.0589 7.60164 62.9348 7.60908C60.251 2.95199 56.3595 0 52.0282 0H8.89377C3.98095 0 0 10.2982 0 23C0 35.7018 3.98095 46 8.89377 46H52.0282C56.3595 46 60.2286 43.048 62.9348 38.3534C63.0588 38.3644 63.1835 38.3644 63.3075 38.3534H65.1563C68.444 38.3534 71.1203 31.4579 71.1203 22.9624C71.1203 14.467 68.444 7.60908 65.1563 7.60908Z" fill="#A2BCB1"/>
<path d="M8.89301 1.50195C5.38918 1.50195 1.49023 10.6884 1.49023 22.9997C1.49023 35.3109 5.39663 44.5049 8.90046 44.5049H52.0274C55.6356 44.5049 59.1469 41.9961 61.6518 37.6094L62.1587 36.723L63.1651 36.8808H63.3068H65.1556C66.9821 36.8808 69.6286 31.465 69.6286 22.9846C69.6286 14.5042 66.9821 9.0885 65.1556 9.0885H63.3068H63.1651L62.1587 9.24624L61.6518 8.35989C59.1469 4.00326 55.6356 1.50195 52.0274 1.50195H8.89301Z" fill="#D7E2DE"/>
<path d="M8.89421 3.00488C7.17211 3.00488 2.98242 9.99802 2.98242 23.0003C2.98242 36.0026 7.19447 43.0108 8.94639 43.0108C10.6983 43.0108 14.9104 36.0026 14.9104 23.0003C14.9104 9.99802 10.6088 3.00488 8.89421 3.00488Z" fill="#A2BCB1"/>
<path d="M66.0428 38.3912C69.3284 38.3912 71.9919 31.5005 71.9919 23.0003C71.9919 14.5001 69.3284 7.60938 66.0428 7.60938C62.7572 7.60938 60.0938 14.5001 60.0938 23.0003C60.0938 31.5005 62.7572 38.3912 66.0428 38.3912Z" fill="#BAD1C8"/>
<path d="M23.1776 9.34393C18.0634 9.34393 12.9643 9.34393 7.9918 9.26882C7.69463 9.24502 7.41726 9.10926 7.21499 8.88862C7.01272 8.66797 6.90039 8.37863 6.90039 8.07826C6.90039 7.77789 7.01272 7.48855 7.21499 7.2679C7.41726 7.04725 7.69463 6.9115 7.9918 6.8877C13.8365 6.94028 19.8526 6.97032 25.8837 6.9553C26.1981 6.9553 26.4996 7.08113 26.7219 7.30511C26.9442 7.52908 27.069 7.83286 27.069 8.14962C27.069 8.46637 26.9442 8.77015 26.7219 8.99413C26.4996 9.2181 26.1981 9.34393 25.8837 9.34393H23.1776Z" fill="white"/>
<path d="M32.5486 9.32125C32.2342 9.32125 31.9328 9.19542 31.7105 8.97144C31.4882 8.74746 31.3633 8.44368 31.3633 8.12693C31.3633 7.81018 31.4882 7.5064 31.7105 7.28242C31.9328 7.05844 32.2342 6.93261 32.5486 6.93261L38.3486 6.88754C38.5116 6.87448 38.6756 6.89557 38.8302 6.94948C38.9848 7.00338 39.1266 7.08894 39.2468 7.20077C39.3669 7.3126 39.4628 7.44828 39.5284 7.59927C39.594 7.75026 39.6278 7.91329 39.6278 8.07811C39.6278 8.24292 39.594 8.40595 39.5284 8.55694C39.4628 8.70793 39.3669 8.84361 39.2468 8.95544C39.1266 9.06727 38.9848 9.15283 38.8302 9.20674C38.6756 9.26064 38.5116 9.28173 38.3486 9.26867L32.5412 9.32125H32.5486Z" fill="white"/>
<path d="M55.5845 11.335C55.3538 11.3366 55.1279 11.2685 54.9359 11.1397C52.0732 9.23928 48.6141 9.26181 44.9612 9.28435C44.1486 9.28435 43.3136 9.28435 42.4936 9.28435C42.3306 9.29325 42.1675 9.26811 42.0145 9.21053C41.8616 9.15295 41.7221 9.06415 41.6049 8.94971C41.4876 8.83527 41.395 8.69765 41.333 8.54548C41.271 8.39331 41.2408 8.22987 41.2444 8.06541C41.248 7.90095 41.2853 7.73901 41.3539 7.58975C41.4226 7.44049 41.5211 7.30712 41.6432 7.19801C41.7654 7.08889 41.9087 7.00639 42.064 6.95566C42.2193 6.90494 42.3833 6.88708 42.5458 6.90322C43.336 6.90322 44.1561 6.90322 44.9463 6.90322C48.793 6.90322 52.774 6.85816 56.2405 9.15665C56.4545 9.29787 56.6174 9.50504 56.7049 9.74721C56.7923 9.98938 56.7997 10.2536 56.7259 10.5003C56.6521 10.7471 56.5011 10.9631 56.2954 11.1163C56.0896 11.2694 55.8403 11.3514 55.5845 11.35V11.335Z" fill="white"/>
<path d="M66.0444 7.60938H61.5714C58.2838 7.60938 55.6074 14.4974 55.6074 23.0003C55.6074 31.5032 58.2688 38.3912 61.5714 38.3912H66.0444C69.332 38.3912 72.0083 31.4957 72.0083 23.0003C72.0083 14.5049 69.332 7.60938 66.0444 7.60938Z" fill="#A2BCB1"/>
<path d="M66.0433 9.10352C64.2243 9.10352 61.5703 14.5117 61.5703 22.9997C61.5703 31.4876 64.2168 36.8958 66.0433 36.8958C67.8698 36.8958 70.5163 31.4801 70.5163 22.9997C70.5163 14.5193 67.8399 9.10352 66.0433 9.10352Z" fill="#D7E2DE"/>
<path d="M63.5092 37.5572C63.469 37.5576 63.4291 37.5499 63.3919 37.5344C63.3548 37.5189 63.3211 37.496 63.293 37.4671C60.9894 35.0409 59.5059 29.3622 59.5059 23.0076C59.5059 16.6529 60.9969 10.9893 63.293 8.54806C63.318 8.51322 63.3502 8.4842 63.3873 8.46297C63.4245 8.44174 63.4657 8.42879 63.5082 8.425C63.5507 8.42121 63.5936 8.42666 63.6338 8.44099C63.6741 8.45533 63.7108 8.4782 63.7416 8.50807C63.7723 8.53794 63.7963 8.57411 63.8119 8.61414C63.8276 8.65416 63.8345 8.6971 63.8323 8.74006C63.83 8.78302 63.8187 8.825 63.7989 8.86314C63.7792 8.90129 63.7516 8.93473 63.7179 8.96119C61.4814 11.2822 60.0948 16.7956 60.0948 23.0076C60.0948 29.2195 61.5187 34.7329 63.7179 37.0539C63.7459 37.0812 63.7681 37.1139 63.7833 37.1501C63.7984 37.1862 63.8063 37.225 63.8063 37.2643C63.8063 37.3035 63.7984 37.3423 63.7833 37.3785C63.7681 37.4146 63.7459 37.4473 63.7179 37.4746C63.6911 37.5027 63.6585 37.5247 63.6225 37.5389C63.5865 37.5532 63.5478 37.5594 63.5092 37.5572Z" fill="#D7E2DE"/>
<path d="M64.9773 37.459L64.5449 37.0459C66.7814 34.7249 68.168 29.2115 68.168 22.9995C68.168 16.7876 66.7516 11.2667 64.5449 8.95317L64.9773 8.54004C67.2734 10.9662 68.7644 16.6374 68.7644 22.9995C68.7644 29.3617 67.2734 35.0329 64.9773 37.459Z" fill="#A2BCB1"/>
<path d="M61.7802 12.7696H59.8047C59.6416 12.7827 59.4776 12.7616 59.323 12.7077C59.1685 12.6538 59.0266 12.5682 58.9065 12.4564C58.7863 12.3446 58.6904 12.2089 58.6248 12.0579C58.5592 11.9069 58.5254 11.7439 58.5254 11.5791C58.5254 11.4143 58.5592 11.2512 58.6248 11.1002C58.6904 10.9493 58.7863 10.8136 58.9065 10.7018C59.0266 10.5899 59.1685 10.5044 59.323 10.4505C59.4776 10.3965 59.6416 10.3755 59.8047 10.3885H61.7802C61.9433 10.3755 62.1073 10.3965 62.2618 10.4505C62.4164 10.5044 62.5583 10.5899 62.6784 10.7018C62.7986 10.8136 62.8945 10.9493 62.96 11.1002C63.0256 11.2512 63.0595 11.4143 63.0595 11.5791C63.0595 11.7439 63.0256 11.9069 62.96 12.0579C62.8945 12.2089 62.7986 12.3446 62.6784 12.4564C62.5583 12.5682 62.4164 12.6538 62.2618 12.7077C62.1073 12.7616 61.9433 12.7827 61.7802 12.7696Z" fill="white"/>
</g>
<defs>
<clipPath id="clip0_1088_21856">
<rect width="72" height="46" fill="white"/>
</clipPath>
</defs>
</svg>
