<svg width="18" height="61" viewBox="0 0 18 61" fill="none" xmlns="http://www.w3.org/2000/svg">
<path d="M11.7729 19.5566V3.89906C11.8915 3.86866 11.9965 3.79973 12.0716 3.7031C12.1467 3.60646 12.1875 3.48761 12.1877 3.36524V3.17046C12.1871 3.04778 12.1462 2.9287 12.0712 2.83158C11.9963 2.73446 11.8914 2.6647 11.7729 2.63304V2.6114C11.9765 2.59367 12.1664 2.50142 12.3062 2.35232C12.446 2.20322 12.5258 2.00777 12.5304 1.80345V0.82598C12.5303 0.618528 12.4524 0.418648 12.3122 0.265751C12.172 0.112855 11.9796 0.0180393 11.7729 0L5.89367 0C5.68763 0.0179828 5.49573 0.112287 5.3556 0.26442C5.21548 0.416554 5.13724 0.615544 5.13623 0.822373V1.80345C5.13724 2.01028 5.21548 2.20927 5.3556 2.3614C5.49573 2.51354 5.68763 2.60784 5.89367 2.62582V2.63304C5.77515 2.6647 5.67032 2.73446 5.59536 2.83158C5.52041 2.9287 5.47947 3.04778 5.47888 3.17046V3.36524C5.47905 3.48761 5.51988 3.60646 5.59497 3.7031C5.67006 3.79973 5.77513 3.86866 5.89367 3.89906V19.5566C4.17025 20.1654 2.67799 21.2936 1.62246 22.7858C0.566937 24.278 8.78433e-05 26.0608 0 27.8885L0 58.5472C0 59.1049 0.221547 59.6398 0.615902 60.0341C1.01026 60.4285 1.54512 60.65 2.10282 60.65H15.5638C16.1202 60.6519 16.6548 60.4332 17.0503 60.0418C17.4458 59.6503 17.67 59.1181 17.6738 58.5616V27.903C17.6762 26.0719 17.1097 24.2852 16.0526 22.79C14.9955 21.2949 13.5 20.165 11.7729 19.5566Z" fill="#507C04"/>
<path d="M11.4266 20.5593C11.2161 20.4849 11.0338 20.3472 10.9047 20.1651C10.7755 19.983 10.7059 19.7654 10.7052 19.5422V0H6.96849V19.5566C6.96786 19.7799 6.8982 19.9974 6.76905 20.1795C6.6399 20.3616 6.45759 20.4993 6.24711 20.5738C4.73668 21.1111 3.42947 22.1026 2.50475 23.4122C1.58002 24.7218 1.08307 26.2854 1.08203 27.8885V58.5472C1.08298 58.8195 1.19159 59.0804 1.38417 59.273C1.57674 59.4656 1.83766 59.5742 2.11 59.5752C3.73381 59.5907 5.32948 59.1508 6.71601 58.3055C7.3539 57.9097 8.08972 57.6999 8.84047 57.6999C9.59122 57.6999 10.327 57.9097 10.9649 58.3055C12.3515 59.1508 13.9471 59.5907 15.5709 59.5752C15.8396 59.5724 16.0965 59.4649 16.2871 59.2757C16.4777 59.0864 16.587 58.8302 16.5917 58.5616V27.903C16.5966 26.2949 16.1024 24.7249 15.1773 23.4095C14.2522 22.0942 12.9417 21.0983 11.4266 20.5593Z" fill="#96CC1F"/>
<path d="M9.67701 21.0282C9.52491 21.0282 9.37904 20.9678 9.27149 20.8602C9.16394 20.7527 9.10352 20.6068 9.10352 20.4547V5.02076C9.10352 4.86866 9.16394 4.72279 9.27149 4.61524C9.37904 4.50769 9.52491 4.44727 9.67701 4.44727C9.82911 4.44727 9.97498 4.50769 10.0825 4.61524C10.1901 4.72279 10.2505 4.86866 10.2505 5.02076V20.4547C10.2505 20.6068 10.1901 20.7527 10.0825 20.8602C9.97498 20.9678 9.82911 21.0282 9.67701 21.0282Z" fill="white"/>
<path d="M13.7998 32.0549C13.7244 32.0539 13.6501 32.0382 13.5808 32.0085C13.5116 31.9788 13.4489 31.9357 13.3963 31.8818C13.3438 31.8279 13.3023 31.7641 13.2744 31.6942C13.2464 31.6242 13.2325 31.5495 13.2335 31.4742V31.0594C13.2804 28.0693 13.3273 24.9745 11.6032 22.4894C11.5558 22.4278 11.5215 22.3572 11.5023 22.282C11.483 22.2067 11.4793 22.1283 11.4912 22.0516C11.5032 21.9749 11.5306 21.9013 11.5718 21.8355C11.6131 21.7697 11.6672 21.7129 11.7311 21.6686C11.7949 21.6244 11.867 21.5935 11.9431 21.578C12.0192 21.5625 12.0977 21.5625 12.1738 21.5782C12.2499 21.5939 12.322 21.6249 12.3857 21.6693C12.4494 21.7137 12.5035 21.7706 12.5446 21.8365C14.4779 24.6247 14.4274 28.0512 14.3805 31.0774V31.4922C14.3795 31.5674 14.3637 31.6416 14.334 31.7106C14.3043 31.7796 14.2612 31.8421 14.2072 31.8944C14.1532 31.9467 14.0894 31.9878 14.0195 32.0153C13.9496 32.0429 13.8749 32.0563 13.7998 32.0549Z" fill="white"/>
<path d="M13.8098 36.1773C13.7347 36.1778 13.6602 36.1634 13.5906 36.135C13.5211 36.1066 13.4578 36.0647 13.4045 36.0117C13.3512 35.9587 13.3089 35.8957 13.2801 35.8264C13.2512 35.757 13.2363 35.6826 13.2363 35.6074V33.7138C13.2363 33.562 13.2961 33.4163 13.4028 33.3083C13.5095 33.2003 13.6544 33.1386 13.8062 33.1367C13.9577 33.1367 14.103 33.1966 14.2105 33.3034C14.3179 33.4102 14.3788 33.5551 14.3797 33.7066V35.6038C14.3797 35.6791 14.3649 35.7537 14.3361 35.8233C14.3072 35.8929 14.265 35.9561 14.2117 36.0094C14.1585 36.0626 14.0953 36.1049 14.0257 36.1337C13.9561 36.1625 13.8815 36.1773 13.8062 36.1773H13.8098Z" fill="white"/>
<path d="M13.8001 57.5553C13.6495 57.5544 13.5052 57.4947 13.3981 57.3889C13.2909 57.2831 13.2294 57.1396 13.2266 56.989C13.2662 51.6508 13.2735 46.0313 13.2518 39.3152C13.2455 39.2363 13.2557 39.157 13.2816 39.0822C13.3074 39.0074 13.3485 38.9388 13.4022 38.8807C13.4559 38.8225 13.5211 38.7761 13.5936 38.7444C13.6661 38.7127 13.7444 38.6963 13.8235 38.6963C13.9026 38.6963 13.9809 38.7127 14.0534 38.7444C14.1259 38.7761 14.1911 38.8225 14.2448 38.8807C14.2985 38.9388 14.3396 39.0074 14.3655 39.0822C14.3913 39.157 14.4015 39.2363 14.3952 39.3152C14.4204 46.0421 14.4132 51.6653 14.3736 57.0107C14.3653 57.1574 14.3014 57.2955 14.1948 57.3967C14.0882 57.4979 13.947 57.5546 13.8001 57.5553Z" fill="white"/>
<path d="M10.3958 4.11945C10.2437 4.11945 10.0978 4.05903 9.99024 3.95148C9.88269 3.84392 9.82227 3.69805 9.82227 3.54595V2.99049C9.82227 2.83839 9.88269 2.69252 9.99024 2.58497C10.0978 2.47741 10.2437 2.41699 10.3958 2.41699C10.5479 2.41699 10.6937 2.47741 10.8013 2.58497C10.9088 2.69252 10.9693 2.83839 10.9693 2.99049V3.54595C10.9693 3.69805 10.9088 3.84392 10.8013 3.95148C10.6937 4.05903 10.5479 4.11945 10.3958 4.11945Z" fill="white"/>
<path d="M10.6803 2.6763C10.6044 2.67725 10.5291 2.66312 10.4586 2.63473C10.3882 2.60634 10.3241 2.56424 10.2701 2.51089C10.2161 2.45754 10.1732 2.394 10.1439 2.32395C10.1147 2.25389 10.0996 2.17872 10.0996 2.1028V0.89088C10.0996 0.738779 10.16 0.592908 10.2676 0.485356C10.3751 0.377805 10.521 0.317383 10.6731 0.317383C10.8252 0.317383 10.9711 0.377805 11.0786 0.485356C11.1862 0.592908 11.2466 0.738779 11.2466 0.89088V2.1028C11.2466 2.25366 11.1872 2.39845 11.0812 2.50579C10.9752 2.61314 10.8312 2.6744 10.6803 2.6763Z" fill="white"/>
</svg>
