<svg width="71" height="33" viewBox="0 0 71 33" fill="none" xmlns="http://www.w3.org/2000/svg">
<path d="M70.0828 11.8926C69.9941 11.2797 69.8812 10.6507 69.736 10.0136C68.4296 4.02985 65.5103 -0.461977 63.2281 0.0380113C60.9459 0.537999 60.1636 5.82013 61.4701 11.82C61.9531 14.1423 62.7679 16.3829 63.8894 18.4731C65.2775 15.7292 67.428 13.4443 70.0828 11.8926Z" fill="#A2BCB1"/>
<path d="M62.4219 20.3999C62.6074 23.0288 63.3896 24.8594 64.6799 25.1659C66.704 25.6417 69.3088 22.1498 70.841 17.1016C67.7758 17.3682 64.8525 18.5134 62.4219 20.3999Z" fill="#A2BCB1"/>
<path d="M69.2266 12.4166C69.1379 11.715 69.0008 10.9731 68.8395 10.207C67.5089 4.11839 64.7428 0.650735 63.4203 0.932986C62.0977 1.21524 61.001 5.52965 62.3719 11.6182C62.7972 13.6671 63.4885 15.6516 64.4283 17.5213C65.6303 15.4857 67.2692 13.7422 69.2266 12.4166Z" fill="#D7E2DE"/>
<path d="M63.3184 19.7715C63.4071 22.4085 64.1248 24.0778 64.8909 24.2633C66.036 24.5375 68.3344 21.9488 69.8424 17.2393C67.507 17.5897 65.2787 18.4546 63.3184 19.7715Z" fill="#D7E2DE"/>
<path d="M11.5918 32.481C15.3175 31.6746 18.8497 30.6988 22.0754 29.6504C24.8384 27.5232 26.8225 24.5441 27.7204 21.1748C21.0109 21.5941 14.3498 26.3682 11.5918 32.481Z" fill="#A2BCB1"/>
<path d="M27.3084 14.9171C28.1907 12.5579 29.5652 10.4136 31.3405 8.62692C24.7036 5.78828 15.6796 3.36898 5.56696 1.99805L2.42188 24.9975C4.78203 25.3201 7.09381 25.5701 9.35719 25.7475C13.7845 20.7073 21.5585 18.1025 28.0584 19.6589C28.5376 18.8373 28.9064 17.9561 29.1551 17.038C28.7035 16.038 27.4858 15.8767 27.3084 14.9171Z" fill="#A2BCB1"/>
<path d="M63.2188 8.30375C63.1059 8.30375 63.001 8.44891 62.9123 8.65051C62.6366 9.26795 62.2165 9.81005 61.6874 10.2311C61.1582 10.6521 60.5356 10.9398 59.8721 11.0698L47.582 13.7068C48.2331 14.2611 48.8348 14.8709 49.3804 15.5294L60.2995 13.1101C60.9563 12.9523 61.6413 12.9534 62.2977 13.1133C62.9541 13.2732 63.5628 13.5873 64.0736 14.0294C64.1248 14.0901 64.1892 14.1383 64.2619 14.1704C64.3345 14.2026 64.4135 14.2178 64.4929 14.2149C64.88 14.1262 65.2026 12.844 64.8074 10.9892C64.4123 9.13437 63.6058 8.22311 63.2188 8.30375Z" fill="#A2BCB1"/>
<path d="M47.5831 16.6503C47.057 16.6602 46.5361 16.5447 46.0635 16.3133C45.5909 16.0819 45.1802 15.7413 44.8654 15.3197C43.1719 12.9569 39.0752 10.8602 33.3737 9.27148C31.87 11.2847 30.8091 13.5932 30.2609 16.0455C30.5673 16.9326 31.8012 16.9326 32.4141 17.86C31.8818 22.118 28.5916 25.9243 24.7207 28.0533C34.8737 26.4808 42.4058 23.6099 44.8815 20.1744C45.1913 19.7492 45.5979 19.4037 46.0677 19.1667C46.5375 18.9297 47.0569 18.808 47.5831 18.8116H53.5103C53.1165 18.0548 52.6606 17.3319 52.1475 16.6503H47.5831Z" fill="#A2BCB1"/>
<path d="M41.8502 17.7393C41.8502 14.8684 38.3745 12.2555 32.673 10.2959C31.5132 12.0351 30.6923 13.9777 30.2537 16.0216C30.5682 16.9328 31.802 16.9328 32.4149 17.8602C31.9714 21.3924 29.6247 24.6101 26.6328 26.8278C35.8181 24.8439 41.8502 21.5134 41.8502 17.7393Z" fill="#D7E2DE"/>
<path d="M27.3088 14.916C28.0179 12.9531 29.0872 11.1398 30.4619 9.56939C24.4459 6.54527 15.5671 3.92436 5.46251 2.59375L2.53516 24.4077C5.06735 24.7464 7.5431 24.9964 9.9382 25.1497C14.4381 20.5046 21.8492 18.1579 28.091 19.6579C28.5738 18.838 28.9428 17.9563 29.1877 17.037C28.7039 16.037 27.4862 15.8757 27.3088 14.916Z" fill="#D7E2DE"/>
<path d="M11.9395 31.7552C15.9449 30.8285 19.8794 29.6185 23.7134 28.1343C25.6392 26.2146 27.0101 23.8099 27.681 21.1748C21.2779 21.57 14.8829 25.9892 11.9395 31.7552Z" fill="#D7E2DE"/>
<path d="M5.56822 1.99819C4.036 1.79658 1.23768 5.9739 0.286092 12.9979C-0.665498 20.022 0.939303 24.796 2.42314 24.9976C3.90697 25.1992 6.75368 21.0219 7.70527 14.006C8.65686 6.99001 7.09238 2.20786 5.56822 1.99819Z" fill="#A2BCB1"/>
<path d="M5.56822 1.99819C4.036 1.79658 1.23768 5.9739 0.286092 12.9979C-0.665498 20.022 0.939303 24.796 2.42314 24.9976C3.90697 25.1992 6.75368 21.0219 7.70527 14.006C8.65686 6.99001 7.09238 2.20786 5.56822 1.99819Z" fill="#A2BCB1"/>
<path d="M5.56822 1.99819C4.036 1.79658 1.23768 5.9739 0.286092 12.9979C-0.665498 20.022 0.939303 24.796 2.42314 24.9976C3.90697 25.1992 6.75368 21.0219 7.70527 14.006C8.65686 6.99001 7.09238 2.20786 5.56822 1.99819Z" fill="#A2BCB1"/>
<path d="M5.44742 2.91699C4.72163 3.01376 2.14105 6.18304 1.20558 13.1184C0.270122 20.0537 1.90718 23.7955 2.58458 24.0778C3.31037 23.981 5.89096 20.8117 6.82642 13.8764C7.76188 6.94109 6.11676 3.22344 5.44742 2.91699Z" fill="#D7E2DE"/>
<path d="M15.2291 8.27137H15.0598C13.2776 7.9246 11.455 7.63429 9.68088 7.39236C9.55591 7.37541 9.43551 7.33402 9.32654 7.27054C9.21757 7.20707 9.12218 7.12275 9.04579 7.02241C8.96941 6.92206 8.91354 6.80765 8.88138 6.68572C8.84921 6.56378 8.84137 6.4367 8.85832 6.31174C8.89254 6.05936 9.02561 5.83091 9.22827 5.67665C9.32861 5.60027 9.44302 5.5444 9.56496 5.51223C9.68689 5.48007 9.81397 5.47223 9.93894 5.48918C11.7776 5.73917 13.6243 6.02949 15.4388 6.36012C15.6682 6.4117 15.871 6.54507 16.0093 6.73529C16.1476 6.92551 16.2119 7.15957 16.1901 7.39372C16.1684 7.62788 16.0621 7.84611 15.8912 8.00763C15.7203 8.16915 15.4964 8.2629 15.2614 8.27137H15.2291Z" fill="white"/>
<path d="M29.4155 11.8765C29.308 11.8774 29.2014 11.8582 29.1009 11.82C26.1575 10.7878 23.0446 10.0297 20.0447 9.29588L19.2383 9.09427C19.0993 9.08368 18.9644 9.04296 18.8428 8.97494C18.7211 8.90692 18.6158 8.81323 18.5341 8.70039C18.4523 8.58754 18.3961 8.45825 18.3694 8.3215C18.3427 8.18474 18.346 8.04381 18.3793 7.90849C18.4125 7.77317 18.4748 7.64671 18.5619 7.5379C18.6489 7.42909 18.7586 7.34054 18.8833 7.27841C19.008 7.21628 19.1448 7.18206 19.2841 7.17812C19.4234 7.17418 19.5618 7.20062 19.6899 7.2556L20.4963 7.44915C23.5527 8.19913 26.7058 8.96524 29.738 10.0297C29.9566 10.1017 30.142 10.2498 30.2606 10.447C30.3791 10.6443 30.4228 10.8775 30.3837 11.1043C30.3446 11.3311 30.2253 11.5362 30.0476 11.6824C29.8698 11.8286 29.6455 11.906 29.4155 11.9007V11.8765Z" fill="white"/>
<path d="M43.0755 18.6907C42.8633 18.6904 42.6572 18.6198 42.4894 18.49C42.3216 18.3601 42.2016 18.1783 42.1481 17.973C42.0396 17.2788 41.6776 16.6495 41.132 16.2069C38.1876 14.5065 34.975 13.3202 31.6322 12.6989C31.5057 12.6768 31.3849 12.6295 31.277 12.5598C31.1691 12.4901 31.0762 12.3995 31.004 12.2933C30.9318 12.1871 30.8816 12.0674 30.8565 11.9415C30.8313 11.8155 30.8317 11.6858 30.8576 11.56C30.8835 11.4342 30.9345 11.3148 31.0073 11.2091C31.0802 11.1033 31.1736 11.0132 31.2819 10.9442C31.3903 10.8752 31.5113 10.8287 31.638 10.8073C31.7647 10.7859 31.8943 10.7902 32.0193 10.8199C35.582 11.4879 39.0047 12.7588 42.14 14.5779C43.0945 15.2745 43.7511 16.3054 43.9787 17.4649C44.0425 17.7109 44.0062 17.9721 43.8777 18.1913C43.7492 18.4105 43.539 18.5698 43.2932 18.6342C43.2233 18.6622 43.1502 18.6812 43.0755 18.6907Z" fill="white"/>
</svg>
