<svg width="96" height="42" viewBox="0 0 96 42" fill="none" xmlns="http://www.w3.org/2000/svg">
<g clip-path="url(#clip0_1088_21820)">
<path d="M70.6606 0.204102H25.2795C22.6385 2.02535 20.2187 4.1412 18.068 6.50979C14.013 10.7705 10.36 15.388 7.15468 20.3049C4.42407 24.5654 2.08267 29.0576 0.158203 33.7282V40.7168H80.7982C81.8888 26.3678 79.8766 11.738 70.6606 0.204102Z" fill="#C0EDDA"/>
<path d="M80.6676 40.7168H0.158203V41.9992H80.6676V40.7168Z" fill="#8ACEAF"/>
<path d="M54.5328 33.9862C54.5089 33.9868 54.4851 33.9816 54.4637 33.971C54.4423 33.9604 54.4238 33.9448 54.4099 33.9255C45.9864 21.9439 35.2934 11.6881 22.922 3.72492C22.9052 3.71353 22.8909 3.69898 22.8799 3.6821C22.8689 3.66523 22.8614 3.64636 22.8579 3.6266C22.8543 3.60684 22.8547 3.58658 22.8591 3.56698C22.8635 3.54739 22.8718 3.52885 22.8836 3.51245C22.8971 3.49891 22.9133 3.48817 22.9311 3.48084C22.9489 3.4735 22.9679 3.46973 22.9872 3.46973C23.0065 3.46973 23.0256 3.4735 23.0434 3.48084C23.0612 3.48817 23.0773 3.49891 23.0909 3.51245C35.4961 11.4943 46.2179 21.776 54.6634 33.7889C54.6751 33.8053 54.6834 33.8238 54.6878 33.8434C54.6922 33.863 54.6927 33.8833 54.6891 33.903C54.6855 33.9228 54.678 33.9417 54.667 33.9585C54.656 33.9754 54.6417 33.99 54.625 34.0013C54.5934 34.0059 54.5612 34.0006 54.5328 33.9862Z" fill="#8ACEAF"/>
<path d="M0.157555 39.0024C0.121984 39.0017 0.0876343 38.9895 0.0598533 38.9675C0.0320722 38.9455 0.0124195 38.9151 0.00395513 38.881C-0.000596446 38.8616 -0.0012265 38.8414 0.002101 38.8218C0.00542849 38.8021 0.0126483 38.7832 0.0233475 38.7663C0.0340467 38.7494 0.0480154 38.7348 0.0644549 38.7232C0.0808943 38.7116 0.0994821 38.7033 0.119155 38.6989C13.4824 35.7319 32.26 29.7981 44.8014 22.0506C44.8185 22.0391 44.8379 22.0312 44.8582 22.0272C44.8786 22.0233 44.8995 22.0235 44.9198 22.0278C44.9401 22.032 44.9592 22.0403 44.9762 22.0521C44.9931 22.0639 45.0075 22.079 45.0184 22.0964C45.0293 22.1139 45.0365 22.1333 45.0396 22.1535C45.0427 22.1738 45.0416 22.1944 45.0364 22.2143C45.0312 22.2341 45.022 22.2527 45.0093 22.2689C44.9966 22.2851 44.9808 22.2986 44.9627 22.3086C32.3675 30.0788 13.5745 36.0203 0.188275 39.0024H0.157555Z" fill="#8ACEAF"/>
<path d="M43.4961 20.6087C43.4715 20.6085 43.4473 20.6022 43.4258 20.5902C43.4043 20.5783 43.3862 20.5612 43.3732 20.5405C43.3617 20.5247 43.3536 20.5067 43.3492 20.4877C43.3449 20.4687 43.3446 20.4491 43.3481 20.4299C43.3517 20.4108 43.3592 20.3925 43.3701 20.3763C43.381 20.3601 43.3952 20.3462 43.4116 20.3356C50.7315 15.1597 56.5515 8.17974 60.2923 0.0905904C60.2997 0.0721699 60.311 0.0554699 60.3253 0.0415356C60.3396 0.0276012 60.3566 0.0167326 60.3754 0.0096098C60.3941 0.00248704 60.4141 -0.00073645 60.4342 0.000141076C60.4543 0.0010186 60.4739 0.00597826 60.492 0.0147096C60.5106 0.0220839 60.5275 0.0331811 60.5416 0.0473065C60.5557 0.0614319 60.5667 0.0782815 60.5739 0.0968007C60.5811 0.11532 60.5844 0.13511 60.5835 0.154932C60.5826 0.174754 60.5776 0.194182 60.5688 0.212C56.806 8.34954 50.9516 15.3714 43.5883 20.5784C43.562 20.5986 43.5294 20.6093 43.4961 20.6087Z" fill="#8ACEAF"/>
<path d="M43.3269 23.2648C32.1615 22.3618 21.2565 19.4535 11.1477 14.6827C11.1115 14.6662 11.0832 14.6363 11.0688 14.5995C11.0545 14.5626 11.0552 14.5217 11.0709 14.4854C11.0792 14.4668 11.0912 14.4499 11.1062 14.4359C11.1212 14.4219 11.1389 14.4111 11.1583 14.404C11.1776 14.3969 11.1982 14.3937 11.2189 14.3947C11.2395 14.3957 11.2597 14.4007 11.2783 14.4096C21.3503 19.1648 32.2165 22.0629 43.3423 22.9613C43.3621 22.9622 43.3816 22.9672 43.3995 22.9758C43.4174 22.9844 43.4333 22.9966 43.4462 23.0115C43.4592 23.0264 43.4689 23.0438 43.4748 23.0626C43.4807 23.0814 43.4826 23.1011 43.4805 23.1207C43.4785 23.1596 43.4615 23.1963 43.4329 23.2231C43.4043 23.25 43.3664 23.2649 43.3269 23.2648Z" fill="#8ACEAF"/>
<path d="M40.4704 38.7896C40.4504 38.7878 40.4311 38.7819 40.4135 38.7724C40.396 38.7628 40.3806 38.7498 40.3683 38.7342C40.3561 38.7185 40.3472 38.7005 40.3423 38.6813C40.3374 38.6622 40.3366 38.6422 40.3398 38.6226C41.187 33.207 43.0631 27.9986 45.8694 23.272C45.8928 23.2445 45.9252 23.2261 45.961 23.22C45.9968 23.2139 46.0336 23.2205 46.0649 23.2387C46.0962 23.2569 46.12 23.2855 46.132 23.3194C46.144 23.3532 46.1435 23.3902 46.1305 23.4237C43.3321 28.1253 41.461 33.3084 40.6163 38.6985C40.6049 38.7271 40.5847 38.7513 40.5584 38.7676C40.5322 38.784 40.5013 38.7917 40.4704 38.7896Z" fill="#8ACEAF"/>
<path d="M69.0164 24.8654C66.9984 24.8442 64.9831 24.7125 62.9799 24.4708C57.6039 23.8789 50.6919 22.809 44.6401 19.7586C44.6221 19.7505 44.606 19.7389 44.5927 19.7244C44.5794 19.71 44.5692 19.693 44.5627 19.6746C44.5563 19.6561 44.5536 19.6366 44.5551 19.6171C44.5565 19.5976 44.5619 19.5787 44.5709 19.5613C44.5799 19.5433 44.5924 19.5272 44.6077 19.514C44.6231 19.5008 44.6409 19.4907 44.6602 19.4844C44.6795 19.478 44.6998 19.4755 44.7201 19.477C44.7404 19.4785 44.7602 19.4839 44.7783 19.493C50.8071 22.5282 57.6884 23.583 63.0106 24.1749C67.7953 24.706 72.841 24.9337 77.3031 23.1884C77.3211 23.1799 77.3407 23.1753 77.3606 23.175C77.3805 23.1747 77.4003 23.1786 77.4185 23.1866C77.4367 23.1945 77.453 23.2062 77.4662 23.2209C77.4795 23.2357 77.4893 23.253 77.4951 23.2719C77.5037 23.2896 77.5083 23.309 77.5087 23.3287C77.509 23.3484 77.505 23.3679 77.497 23.3859C77.4889 23.4039 77.4771 23.42 77.4622 23.4331C77.4473 23.4461 77.4297 23.4559 77.4106 23.4616C74.7299 24.4585 71.8798 24.9351 69.0164 24.8654Z" fill="#8ACEAF"/>
<path d="M45.8987 27.9313C45.1922 27.9361 44.4894 27.8285 43.8175 27.6126C43.7967 27.608 43.7771 27.5992 43.7599 27.5868C43.7428 27.5743 43.7284 27.5585 43.7178 27.5402C43.7072 27.522 43.7005 27.5018 43.6982 27.4809C43.6959 27.46 43.698 27.4388 43.7044 27.4188C43.7108 27.3987 43.7214 27.3802 43.7354 27.3644C43.7495 27.3485 43.7667 27.3358 43.786 27.3269C43.8053 27.318 43.8262 27.3132 43.8475 27.3127C43.8688 27.3123 43.89 27.3162 43.9096 27.3242C45.6923 27.8075 47.5885 27.6764 49.2856 26.9524C49.3233 26.9374 49.3655 26.9378 49.4029 26.9534C49.4403 26.969 49.47 26.9987 49.4853 27.0359C49.5005 27.0731 49.5001 27.1148 49.4843 27.1518C49.4685 27.1888 49.4385 27.218 49.4008 27.2332C48.2889 27.6835 47.1004 27.9204 45.8987 27.9313Z" fill="#8ACEAF"/>
<path d="M48.2122 25.7985C48.18 25.7985 48.1485 25.7885 48.1224 25.7699C48.0962 25.7513 48.0767 25.725 48.0665 25.6948C48.0563 25.6646 48.056 25.6319 48.0656 25.6015C48.0752 25.5711 48.0942 25.5445 48.12 25.5254C49.3045 24.6226 50.1983 23.3995 50.6928 22.0045C50.6975 21.984 50.7064 21.9646 50.719 21.9477C50.7316 21.9307 50.7476 21.9165 50.7661 21.906C50.7845 21.8955 50.805 21.8889 50.8261 21.8866C50.8473 21.8844 50.8687 21.8865 50.889 21.8928C50.9093 21.8991 50.9281 21.9096 50.9441 21.9234C50.9601 21.9373 50.973 21.9543 50.982 21.9734C50.991 21.9925 50.9959 22.0132 50.9963 22.0342C50.9968 22.0552 50.9928 22.0761 50.9847 22.0956C50.4751 23.5634 49.5404 24.851 48.2967 25.7985C48.2695 25.8091 48.2393 25.8091 48.2122 25.7985Z" fill="#8ACEAF"/>
<path d="M57.8427 23.8188C57.802 23.8188 57.7629 23.8028 57.7341 23.7743C57.7053 23.7459 57.6891 23.7073 57.6891 23.667C57.7284 21.5304 57.2352 19.417 56.2529 17.5131C55.2764 15.6033 54.03 13.8404 52.5512 12.2773C52.5363 12.2638 52.5244 12.2474 52.5162 12.2291C52.5081 12.2108 52.5039 12.1911 52.5039 12.1711C52.5039 12.1511 52.5081 12.1314 52.5162 12.1131C52.5244 12.0948 52.5363 12.0784 52.5512 12.0649C52.5799 12.0371 52.6185 12.0215 52.6587 12.0215C52.6989 12.0215 52.7375 12.0371 52.7662 12.0649C54.2661 13.6509 55.5306 15.4393 56.5217 17.3765C57.5182 19.3281 58.0215 21.489 57.9886 23.6746C57.9886 23.7129 57.9732 23.7495 57.9459 23.7766C57.9185 23.8036 57.8814 23.8188 57.8427 23.8188Z" fill="#8ACEAF"/>
<path d="M47.6198 21.0341C47.6 21.0342 47.5803 21.0302 47.5621 21.0225C47.5439 21.0148 47.5274 21.0035 47.5138 20.9893C47.5001 20.9751 47.4896 20.9583 47.4827 20.9399C47.4758 20.9215 47.4728 20.9019 47.4739 20.8824C47.5304 19.8225 47.3331 18.7644 46.8979 17.794C46.8827 17.7568 46.883 17.7151 46.8989 17.6781C46.9147 17.6412 46.9447 17.6119 46.9823 17.5967C47.0004 17.588 47.02 17.583 47.0401 17.5822C47.0602 17.5813 47.0802 17.5845 47.0989 17.5916C47.1177 17.5988 47.1347 17.6096 47.149 17.6236C47.1633 17.6375 47.1746 17.6542 47.182 17.6726C47.6315 18.6847 47.8366 19.7861 47.7811 20.89C47.7812 20.9102 47.777 20.9303 47.7687 20.9489C47.7604 20.9674 47.7483 20.9841 47.733 20.9977C47.7178 21.0113 47.6999 21.0216 47.6804 21.0278C47.6608 21.0341 47.6402 21.0363 47.6198 21.0341Z" fill="#8ACEAF"/>
<path d="M39.2171 22.7635C39.1886 22.7629 39.1609 22.7548 39.1366 22.7401C39.1123 22.7255 39.0924 22.7047 39.0788 22.68C38.6283 21.7243 38.4097 20.678 38.4403 19.6241C38.471 18.5703 38.7501 17.5381 39.2555 16.6096C39.2763 16.5759 39.309 16.551 39.3473 16.5398C39.3857 16.5286 39.4268 16.5318 39.4628 16.5488C39.4984 16.5681 39.5247 16.6004 39.5362 16.6388C39.5478 16.6772 39.5435 16.7185 39.5243 16.7537C39.0362 17.6428 38.7666 18.6328 38.7373 19.6438C38.7079 20.6549 38.9197 21.6585 39.3553 22.5738C39.3645 22.5917 39.37 22.6112 39.3716 22.6313C39.3731 22.6513 39.3705 22.6714 39.3641 22.6905C39.3577 22.7095 39.3475 22.7272 39.3341 22.7423C39.3207 22.7574 39.3044 22.7698 39.2862 22.7787L39.2171 22.7635Z" fill="#8ACEAF"/>
<path d="M37.6743 14.9023C37.6486 14.902 37.6234 14.8957 37.6006 14.8838C37.5779 14.8719 37.5584 14.8549 37.5437 14.834C37.5253 14.7982 37.5206 14.7569 37.5304 14.7179C37.5403 14.6788 37.5641 14.6446 37.5975 14.6216C39.6398 13.4265 41.9303 12.7057 44.2959 12.5138C46.6615 12.3219 49.0403 12.6638 51.2525 13.5137C51.2878 13.5304 51.3153 13.5597 51.3295 13.5958C51.3436 13.6318 51.3433 13.6718 51.3286 13.7076C51.3139 13.7434 51.2859 13.7723 51.2504 13.7885C51.2148 13.8046 51.1744 13.8068 51.1373 13.7945C48.9704 12.9596 46.6394 12.6235 44.3213 12.8115C42.0032 12.9995 39.759 13.7068 37.7588 14.8796C37.733 14.894 37.704 14.9019 37.6743 14.9023Z" fill="#8ACEAF"/>
<path d="M63.2406 24.5313C63.1998 24.5313 63.1608 24.5153 63.132 24.4869C63.1032 24.4584 63.087 24.4198 63.087 24.3796C63.0259 23.4672 62.7384 22.5838 62.2499 21.8072C60.4623 18.5902 57.7168 15.9942 54.3855 14.3709C54.3507 14.353 54.324 14.3226 54.3112 14.2859C54.2983 14.2492 54.3002 14.209 54.3164 14.1736C54.3254 14.1556 54.3379 14.1395 54.3532 14.1263C54.3685 14.1131 54.3864 14.103 54.4057 14.0967C54.4249 14.0903 54.4453 14.0878 54.4656 14.0893C54.4859 14.0908 54.5056 14.0962 54.5238 14.1053C57.9137 15.7641 60.7049 18.4134 62.5187 21.6934C63.0333 22.513 63.3317 23.447 63.3865 24.4099C63.3784 24.4429 63.3599 24.4724 63.3336 24.4942C63.3074 24.5161 63.2748 24.5291 63.2406 24.5313Z" fill="#8ACEAF"/>
<path d="M50.8384 28.8344C50.812 28.8333 50.7863 28.8258 50.7635 28.8126C50.7407 28.7993 50.7216 28.7808 50.7078 28.7585C50.6873 28.7251 50.6806 28.6851 50.6892 28.647C50.6978 28.6088 50.721 28.5754 50.7539 28.5537C52.7899 27.3345 54.3695 25.4941 55.2543 23.3103C55.2697 23.2731 55.2993 23.2435 55.3367 23.2278C55.3742 23.2122 55.4163 23.2118 55.454 23.2268C55.4727 23.2342 55.4896 23.2453 55.5037 23.2594C55.5178 23.2736 55.5288 23.2904 55.536 23.3089C55.5432 23.3274 55.5465 23.3472 55.5456 23.3671C55.5447 23.3869 55.5397 23.4063 55.5308 23.4241C54.628 25.6669 53.0104 27.5581 50.9228 28.8117C50.8977 28.8276 50.8682 28.8356 50.8384 28.8344Z" fill="#8ACEAF"/>
<path d="M53.9094 22.9383C53.8878 22.9374 53.8666 22.9321 53.8472 22.9226C53.8278 22.9132 53.8107 22.8997 53.7969 22.8833C53.7831 22.8668 53.773 22.8476 53.7673 22.827C53.7615 22.8064 53.7602 22.7849 53.7635 22.7637C53.8169 20.3804 54.3386 18.0301 55.2995 15.8434C55.3196 15.8138 55.3497 15.7922 55.3844 15.7823C55.4192 15.7724 55.4563 15.775 55.4893 15.7894C55.5223 15.8039 55.5491 15.8295 55.5649 15.8615C55.5808 15.8936 55.5847 15.9302 55.576 15.9648C54.6321 18.1231 54.1259 20.4433 54.086 22.7941C54.0865 22.8159 54.082 22.8375 54.0728 22.8573C54.0637 22.8771 54.0501 22.8946 54.0331 22.9085C54.0161 22.9223 53.9961 22.9322 53.9747 22.9374C53.9533 22.9426 53.931 22.9428 53.9094 22.9383Z" fill="#8ACEAF"/>
<path d="M31.5837 21.6333C31.5637 21.6314 31.5444 21.6256 31.5268 21.616C31.5093 21.6065 31.4939 21.5935 31.4816 21.5778C31.4694 21.5622 31.4605 21.5442 31.4556 21.525C31.4507 21.5058 31.4499 21.4858 31.4531 21.4663C31.6948 19.9173 32.2557 18.4338 33.1012 17.1077C33.9466 15.7816 35.0586 14.6411 36.3683 13.7568C36.4017 13.7406 36.44 13.7369 36.476 13.7464C36.512 13.756 36.5433 13.7781 36.564 13.8088C36.5847 13.8394 36.5934 13.8765 36.5884 13.913C36.5835 13.9495 36.5653 13.983 36.5373 14.0072C35.2636 14.8675 34.1819 15.9766 33.359 17.2661C32.536 18.5555 31.9893 19.9979 31.7526 21.5043C31.7508 21.524 31.7448 21.5431 31.7352 21.5604C31.7256 21.5778 31.7124 21.593 31.6965 21.6051C31.6807 21.6172 31.6625 21.6259 31.6431 21.6308C31.6237 21.6356 31.6034 21.6365 31.5837 21.6333Z" fill="#8ACEAF"/>
<path d="M62.4579 22.0425C62.4361 22.0419 62.4146 22.0368 62.3948 22.0277C62.375 22.0185 62.3573 22.0055 62.3427 21.9894C62.3146 21.9611 62.2988 21.9229 62.2988 21.8832C62.2988 21.8435 62.3146 21.8053 62.3427 21.777C66.8559 17.9382 72.3357 15.3766 78.2019 14.3634C78.239 14.3619 78.2753 14.3738 78.3043 14.3967C78.3332 14.4196 78.3527 14.4522 78.3593 14.4882C78.3659 14.5243 78.359 14.5615 78.3399 14.593C78.3209 14.6244 78.291 14.648 78.2557 14.6593C72.4486 15.6649 67.0246 18.2028 62.5578 22.0046C62.5298 22.0281 62.4946 22.0415 62.4579 22.0425Z" fill="#8ACEAF"/>
<path d="M31.9289 19.7964C31.9064 19.8034 31.8823 19.8034 31.8598 19.7964C28.6 18.1388 25.7779 15.7507 23.6192 12.8229C21.8696 10.4696 20.4031 7.9231 19.2493 5.23485C19.2404 5.21703 19.2354 5.19761 19.2345 5.17778C19.2336 5.15796 19.2369 5.13817 19.2441 5.11965C19.2513 5.10113 19.2623 5.08428 19.2764 5.07016C19.2905 5.05603 19.3074 5.04494 19.3261 5.03756C19.3628 5.02208 19.4042 5.02134 19.4415 5.03551C19.4787 5.04967 19.509 5.07763 19.5257 5.11344C20.665 7.80265 22.1215 10.3496 23.8649 12.7015C25.9955 15.5931 28.7806 17.9525 31.9981 19.5915C32.0329 19.6094 32.0596 19.6398 32.0724 19.6765C32.0853 19.7132 32.0834 19.7534 32.0672 19.7888C32.0462 19.8001 32.0228 19.8067 31.9989 19.808C31.975 19.8093 31.9511 19.8053 31.9289 19.7964Z" fill="#8ACEAF"/>
<path d="M42.2817 19.3184C42.2412 19.3178 42.2026 19.3014 42.1742 19.2728C42.1593 19.2593 42.1474 19.2429 42.1393 19.2246C42.1312 19.2064 42.127 19.1866 42.127 19.1666C42.127 19.1466 42.1312 19.1269 42.1393 19.1086C42.1474 19.0903 42.1593 19.0739 42.1742 19.0604C42.6725 18.5172 43.313 18.1206 44.0251 17.9146C44.378 17.7939 44.7603 17.7854 45.1184 17.8902C45.4765 17.9949 45.7924 18.2078 46.0219 18.4989C46.0429 18.5335 46.0497 18.5746 46.0412 18.6141C46.0326 18.6535 46.0093 18.6882 45.9758 18.7113C45.9594 18.7224 45.9408 18.73 45.9213 18.7337C45.9017 18.7374 45.8816 18.7371 45.8622 18.7328C45.8428 18.7285 45.8244 18.7204 45.8083 18.7089C45.7922 18.6973 45.7786 18.6827 45.7685 18.6658C45.5685 18.4319 45.3015 18.2632 45.0027 18.182C44.7039 18.1007 44.3872 18.1107 44.0942 18.2105C43.4358 18.4026 42.8451 18.7733 42.3893 19.2804C42.3597 19.3063 42.3212 19.3198 42.2817 19.3184Z" fill="#8ACEAF"/>
<path d="M46.5055 23.8569C46.4706 23.8579 46.4364 23.8473 46.4085 23.8266C46.3806 23.8059 46.3606 23.7764 46.3519 23.743C46.345 23.7029 46.3538 23.6617 46.3767 23.6278C46.3995 23.594 46.4346 23.57 46.4748 23.5609C47.6902 23.2456 48.7686 22.5477 49.5468 21.5728C49.5586 21.5552 49.574 21.5402 49.592 21.5289C49.61 21.5175 49.6302 21.5099 49.6514 21.5067C49.6725 21.5034 49.6941 21.5046 49.7147 21.5101C49.7354 21.5156 49.7546 21.5252 49.7713 21.5385C49.7879 21.5518 49.8016 21.5683 49.8114 21.5871C49.8212 21.6059 49.8269 21.6265 49.8282 21.6476C49.8295 21.6686 49.8263 21.6898 49.8188 21.7096C49.8114 21.7294 49.7998 21.7474 49.7849 21.7625C48.9574 22.7869 47.8185 23.5212 46.5362 23.8569H46.5055Z" fill="#8ACEAF"/>
<path d="M47.5123 19.3942C47.4839 19.3936 47.4561 19.3856 47.4318 19.3709C47.4075 19.3562 47.3876 19.3355 47.3741 19.3108C47.3649 19.2929 47.3593 19.2733 47.3578 19.2533C47.3563 19.2333 47.3589 19.2131 47.3653 19.1941C47.3717 19.175 47.3819 19.1574 47.3953 19.1423C47.4087 19.1271 47.4249 19.1148 47.4432 19.1059C49.6944 17.9917 52.1615 17.368 54.6778 17.2772C54.6982 17.275 54.7188 17.2772 54.7383 17.2835C54.7578 17.2897 54.7758 17.3 54.791 17.3136C54.8062 17.3272 54.8184 17.3439 54.8267 17.3624C54.8349 17.381 54.8391 17.4011 54.839 17.4213C54.8401 17.4413 54.8371 17.4612 54.8303 17.48C54.8236 17.4988 54.8131 17.5161 54.7995 17.5309C54.786 17.5457 54.7696 17.5577 54.7513 17.5663C54.7331 17.5748 54.7133 17.5797 54.6931 17.5807C52.2324 17.674 49.8205 18.2872 47.6198 19.3791L47.5123 19.3942Z" fill="#8ACEAF"/>
<path d="M48.2184 12.9597C48.1982 12.9587 48.1784 12.9538 48.1602 12.9453C48.1419 12.9368 48.1255 12.9247 48.112 12.9099C48.0984 12.8951 48.0879 12.8778 48.0812 12.859C48.0744 12.8402 48.0714 12.8203 48.0725 12.8004C48.1357 11.4433 48.448 10.1089 48.9941 8.86214C49.0142 8.79492 49.0506 8.73356 49.1001 8.68333C49.1496 8.63309 49.2108 8.59551 49.2782 8.5738H49.355C51.0375 8.33198 52.648 7.73687 54.0782 6.82854C54.1069 6.80073 54.1455 6.78516 54.1857 6.78516C54.226 6.78516 54.2646 6.80073 54.2933 6.82854C54.3182 6.85844 54.3319 6.896 54.3319 6.93477C54.3319 6.97354 54.3182 7.0111 54.2933 7.041C52.8214 7.96403 51.1662 8.56435 49.4395 8.80144H49.3627C49.3627 8.80144 49.3627 8.80144 49.2936 8.91526C48.7506 10.149 48.4433 11.4713 48.3873 12.8155C48.3834 12.8565 48.3637 12.8943 48.3322 12.9212C48.3007 12.948 48.2599 12.9618 48.2184 12.9597Z" fill="#8ACEAF"/>
<path d="M58.8554 17.5131C58.8316 17.5126 58.8083 17.5069 58.787 17.4964C58.7658 17.4859 58.7472 17.4709 58.7325 17.4524C58.706 17.4232 58.6914 17.3854 58.6914 17.3462C58.6914 17.307 58.706 17.2692 58.7325 17.24C60.2947 16.0892 61.7968 14.8609 63.233 13.5598C63.1834 12.0167 63.5248 10.4859 64.2263 9.10633C64.9277 7.72681 65.967 6.54235 67.2496 5.66057C67.2783 5.63276 67.3169 5.61719 67.3571 5.61719C67.3973 5.61719 67.4359 5.63276 67.4646 5.66057C67.4783 5.67398 67.4892 5.68993 67.4966 5.70751C67.5041 5.7251 67.5079 5.74396 67.5079 5.76301C67.5079 5.78206 67.5041 5.80092 67.4966 5.8185C67.4892 5.83609 67.4783 5.85204 67.4646 5.86545C66.2221 6.7315 65.2194 7.89183 64.5485 9.24011C63.8776 10.5884 63.5599 12.0815 63.6246 13.5825C63.6244 13.6042 63.6195 13.6256 63.6102 13.6452C63.601 13.6648 63.5875 13.6823 63.5709 13.6963C62.106 15.0288 60.5676 16.2802 58.9629 17.4449C58.953 17.4649 58.9378 17.4819 58.9188 17.4939C58.8998 17.5059 58.8779 17.5126 58.8554 17.5131Z" fill="#8ACEAF"/>
<path d="M32.8044 39.3739C32.7797 39.3737 32.7555 39.3673 32.734 39.3554C32.7126 39.3434 32.6945 39.3263 32.6815 39.3056C32.6598 39.2719 32.6516 39.2313 32.6588 39.192C32.6659 39.1526 32.6877 39.1173 32.7199 39.0931C35.1176 37.4592 37.0875 35.2852 38.4669 32.7507C39.8464 30.2161 40.5958 27.3937 40.6534 24.5164C40.6533 24.4969 40.6573 24.4775 40.6651 24.4595C40.673 24.4415 40.6844 24.4252 40.6988 24.4117C40.7131 24.3982 40.7301 24.3878 40.7487 24.381C40.7673 24.3742 40.7872 24.3712 40.807 24.3723C40.8268 24.3722 40.8464 24.3762 40.8646 24.3839C40.8829 24.3916 40.8993 24.4029 40.9129 24.4171C40.9266 24.4313 40.9372 24.4482 40.944 24.4665C40.9509 24.4849 40.9539 24.5045 40.9529 24.524C40.8957 27.4493 40.1345 30.319 38.7322 32.896C37.33 35.4729 35.327 37.6831 32.8889 39.3435C32.8776 39.3539 32.8643 39.362 32.8498 39.3672C32.8352 39.3724 32.8198 39.3747 32.8044 39.3739Z" fill="#8ACEAF"/>
<path d="M92.0573 18.9695C91.436 15.9419 90.0845 13.1072 88.1175 10.7061C84.9242 13.4997 82.6439 17.1685 81.5664 21.2459C85.2528 21.041 88.6934 20.5857 92.0573 18.9695Z" fill="#C0EDDA"/>
<path d="M87.7242 10.2362C87.4016 9.40148 87.0407 8.71856 86.7181 7.85352C84.9517 8.05081 83.3389 8.20257 81.5725 8.40744C81.0322 9.89695 80.5834 11.4173 80.2285 12.9603C82.5415 11.6155 85.0805 10.6928 87.7242 10.2362Z" fill="#C0EDDA"/>
<path d="M73.1794 7.98947C74.8366 7.22514 76.2927 6.09291 77.4342 4.68107C78.5867 3.27889 79.6145 1.78101 80.5062 0.204102H65.3535C67.4194 1.7976 69.1167 3.78567 71.0598 5.51575C71.6281 6.01657 73.1257 7.23825 73.1794 7.98947Z" fill="#C0EDDA"/>
<path d="M76.3516 7.77705C77.1213 8.85652 78.0507 9.81572 79.1087 10.6226C79.7767 9.34851 80.0084 7.89475 79.7692 6.47949C78.5736 6.75029 77.423 7.18716 76.3516 7.77705Z" fill="#C0EDDA"/>
<path d="M83.1316 3.55859C82.1639 3.55859 81.1962 3.55859 80.2285 3.63447C80.5828 4.63932 81.0355 5.60759 81.5802 6.52553C82.0288 6.18579 82.418 5.77565 82.7322 5.31144C83.0692 4.79149 83.2106 4.17107 83.1316 3.55859Z" fill="#C0EDDA"/>
<path d="M95.9119 9.62908C96.1019 7.79324 95.9983 5.93929 95.6047 4.13531C95.7199 4.13531 95.6047 3.94561 95.5202 3.90008C94.0303 3.24751 92.5634 2.68599 91.0351 2.13965C89.6093 3.21911 88.3495 4.49708 87.2949 5.93369C88.0183 8.0189 89.1306 9.95178 90.5743 11.6323C91.2522 10.9207 92.085 10.3706 93.0097 10.0236C93.9343 9.67652 94.9267 9.54163 95.9119 9.62908Z" fill="#C0EDDA"/>
<path d="M6.50188 14.8945C4.60317 13.7018 2.40785 13.0506 0.158203 13.0127V22.6723C3.66028 22.6723 5.81836 18.294 6.50188 14.8945Z" fill="#C0EDDA"/>
</g>
<defs>
<clipPath id="clip0_1088_21820">
<rect width="96" height="42" fill="white"/>
</clipPath>
</defs>
</svg>
