<svg width="19" height="19" viewBox="0 0 19 19" fill="none" xmlns="http://www.w3.org/2000/svg">
<path d="M18.5627 9.31001C18.5627 9.47467 18.512 9.65201 18.4234 9.80401C18.17 10.2093 17.79 10.3993 16.5487 10.2727V15.8333C16.5487 17.0873 15.5227 18.1133 14.2687 18.1133C13.6227 18.1133 13.0147 17.8347 12.584 17.366C12.1534 16.8847 11.938 16.2513 12.0014 15.6053C12.2167 13.5027 11.9634 12.7933 11.8747 12.6287C11.5707 12.0207 10.6967 11.628 9.68337 11.628C8.67004 11.628 7.79604 12.0333 7.49204 12.6287C7.41604 12.7933 7.16271 13.49 7.36537 15.6053C7.42871 16.2387 7.22604 16.8847 6.78271 17.366C6.35204 17.8473 5.73137 18.1133 5.09804 18.1133C3.84404 18.1133 2.81804 17.0873 2.81804 15.8333V10.26C1.57671 10.3993 1.19671 10.1967 0.943373 9.79134C0.740706 9.46201 0.76604 9.03134 1.00671 8.70201C2.45071 6.76401 4.19871 4.73734 5.80737 3.11601C8.58137 0.36734 9.35404 0.36734 9.69604 0.36734C10.0254 0.36734 10.8107 0.36734 13.5594 3.12867C15.168 4.73734 16.916 6.77667 18.36 8.71467C18.4867 8.89201 18.5627 9.09467 18.5627 9.31001Z" fill="white"/>
</svg>
