<svg width="300" height="114" viewBox="0 0 300 114" fill="none" xmlns="http://www.w3.org/2000/svg">
    <defs>
        <linearGradient id="paint0_linear_740_3968" x1="145.756" y1="-11.0214" x2="148.754" y2="74.0691" gradientUnits="userSpaceOnUse">
            <stop offset="0.2291" stop-color="#9CF0FF"/>
            <stop offset="0.4448" stop-color="#A0F1FF"/>
            <stop offset="0.6383" stop-color="#AAF2FF"/>
            <stop offset="0.8225" stop-color="#BDF6FF"/>
            <stop offset="1" stop-color="#D6FAFF"/>
        </linearGradient>
        <radialGradient id="paint1_radial_740_3968" cx="0" cy="0" r="1" gradientUnits="userSpaceOnUse" gradientTransform="translate(169.134 76.7375) scale(74.2434 78.855)">
            <stop stop-color="#D8E36B"/>
            <stop offset="0.8625" stop-color="#A0C74E"/>
            <stop offset="1" stop-color="#97C249"/>
        </radialGradient>
        <linearGradient id="paint2_linear_740_3968" x1="115.419" y1="69.9733" x2="118.03" y2="46.4444" gradientUnits="userSpaceOnUse">
            <stop stop-color="#4F9A9E"/>
            <stop offset="0.0860614" stop-color="#5CA195"/>
            <stop offset="0.2973" stop-color="#75AF82"/>
            <stop offset="0.516" stop-color="#88B975"/>
            <stop offset="0.7448" stop-color="#92BF6D"/>
            <stop offset="1" stop-color="#96C16A"/>
        </linearGradient>
        <linearGradient id="paint3_linear_740_3968" x1="121.064" y1="59.1015" x2="116.398" y2="44.9153" gradientUnits="userSpaceOnUse">
            <stop stop-color="#407F54"/>
            <stop offset="0.00646067" stop-color="#417F54"/>
            <stop offset="0.2364" stop-color="#5A8F53"/>
            <stop offset="0.4734" stop-color="#6D9952"/>
            <stop offset="0.7223" stop-color="#77A052"/>
            <stop offset="1" stop-color="#7BA252"/>
        </linearGradient>
        <linearGradient id="paint4_linear_740_3968" x1="102.069" y1="61.3029" x2="57.2043" y2="61.3029" gradientUnits="userSpaceOnUse">
            <stop stop-color="#4F9A9E"/>
            <stop offset="0.0860614" stop-color="#5CA195"/>
            <stop offset="0.2973" stop-color="#75AF82"/>
            <stop offset="0.516" stop-color="#88B975"/>
            <stop offset="0.7448" stop-color="#92BF6D"/>
            <stop offset="1" stop-color="#96C16A"/>
        </linearGradient>
        <linearGradient id="paint5_linear_740_3968" x1="273.599" y1="73.8146" x2="228.362" y2="71.7136" gradientUnits="userSpaceOnUse">
            <stop stop-color="#4F9A9E"/>
            <stop offset="0.0860614" stop-color="#5CA195"/>
            <stop offset="0.2973" stop-color="#75AF82"/>
            <stop offset="0.516" stop-color="#88B975"/>
            <stop offset="0.7448" stop-color="#92BF6D"/>
            <stop offset="1" stop-color="#96C16A"/>
        </linearGradient>
        <linearGradient id="paint6_linear_740_3968" x1="79.4239" y1="75.1129" x2="28.2268" y2="6.63522" gradientUnits="userSpaceOnUse">
            <stop stop-color="#547F37"/>
            <stop offset="0.098417" stop-color="#5C8638"/>
            <stop offset="0.3783" stop-color="#6F963C"/>
            <stop offset="0.6722" stop-color="#799F3D"/>
            <stop offset="1" stop-color="#7DA23E"/>
        </linearGradient>
        <linearGradient id="paint7_linear_740_3968" x1="158.356" y1="83.6829" x2="144.429" y2="51.76" gradientUnits="userSpaceOnUse">
            <stop stop-color="#407F54"/>
            <stop offset="0.00646067" stop-color="#417F54"/>
            <stop offset="0.2364" stop-color="#5A8F53"/>
            <stop offset="0.4734" stop-color="#6D9952"/>
            <stop offset="0.7223" stop-color="#77A052"/>
            <stop offset="1" stop-color="#7BA252"/>
        </linearGradient>
        <linearGradient id="paint8_linear_740_3968" x1="174.418" y1="79.9097" x2="46.8856" y2="79.9097" gradientUnits="userSpaceOnUse">
            <stop stop-color="#747D25"/>
            <stop offset="1" stop-color="#485609"/>
        </linearGradient>
        <radialGradient id="paint9_radial_740_3968" cx="0" cy="0" r="1" gradientUnits="userSpaceOnUse" gradientTransform="translate(172.263 85.4296) scale(169.346 179.865)">
            <stop stop-color="#95C14A"/>
            <stop offset="0.3142" stop-color="#91BE4A"/>
            <stop offset="0.5958" stop-color="#87B648"/>
            <stop offset="0.8641" stop-color="#74A846"/>
            <stop offset="1" stop-color="#689E45"/>
        </radialGradient>
        <radialGradient id="paint10_radial_740_3968" cx="0" cy="0" r="1" gradientUnits="userSpaceOnUse" gradientTransform="translate(169.7 74.1943) scale(74.4846 99.8149)">
            <stop stop-color="#D8E36B"/>
            <stop offset="0.8625" stop-color="#A0C74E"/>
            <stop offset="1" stop-color="#97C249"/>
        </radialGradient>
        <linearGradient id="paint11_linear_740_3968" x1="29.919" y1="58.1494" x2="19.5599" y2="22.9616" gradientUnits="userSpaceOnUse">
            <stop stop-color="#5C8639"/>
            <stop offset="0.2726" stop-color="#6B933C"/>
            <stop offset="0.6161" stop-color="#759C3D"/>
            <stop offset="1" stop-color="#799F3E"/>
        </linearGradient>
        <linearGradient id="paint12_linear_740_3968" x1="11.2715" y1="75.2445" x2="2.1899" y2="44.3962" gradientUnits="userSpaceOnUse">
            <stop stop-color="#5C8639"/>
            <stop offset="0.2726" stop-color="#6B933C"/>
            <stop offset="0.6161" stop-color="#759C3D"/>
            <stop offset="1" stop-color="#799F3E"/>
        </linearGradient>
        <linearGradient id="paint13_linear_740_3968" x1="133.361" y1="104.434" x2="133.262" y2="104.072" gradientUnits="userSpaceOnUse">
            <stop stop-color="#60802D"/>
            <stop offset="0.4089" stop-color="#628934"/>
            <stop offset="1" stop-color="#689E45"/>
        </linearGradient>
        <linearGradient id="paint14_linear_740_3968" x1="21.7167" y1="91.0666" x2="24.3372" y2="72.0749" gradientUnits="userSpaceOnUse">
            <stop stop-color="#689E45"/>
            <stop offset="0.1359" stop-color="#74A846"/>
            <stop offset="0.4042" stop-color="#87B648"/>
            <stop offset="0.6858" stop-color="#91BE4A"/>
            <stop offset="1" stop-color="#95C14A"/>
        </linearGradient>
        <linearGradient id="paint15_linear_740_3968" x1="9.10375" y1="83.1185" x2="8.92642" y2="83.1185" gradientUnits="userSpaceOnUse">
            <stop stop-color="#689E45"/>
            <stop offset="0.1359" stop-color="#74A846"/>
            <stop offset="0.4042" stop-color="#87B648"/>
            <stop offset="0.6858" stop-color="#91BE4A"/>
            <stop offset="1" stop-color="#95C14A"/>
        </linearGradient>
        <linearGradient id="paint16_linear_740_3968" x1="165.407" y1="86.3786" x2="165.384" y2="86.3786" gradientUnits="userSpaceOnUse">
            <stop stop-color="#D8E36B"/>
            <stop offset="0.8625" stop-color="#A0C74E"/>
            <stop offset="1" stop-color="#97C249"/>
        </linearGradient>
        <linearGradient id="paint17_linear_740_3968" x1="3.23955" y1="79.8554" x2="13.5639" y2="70.3852" gradientUnits="userSpaceOnUse">
            <stop stop-color="#92BE4A"/>
            <stop offset="0.3982" stop-color="#9CC44E"/>
            <stop offset="1" stop-color="#A8CB52"/>
        </linearGradient>
        <linearGradient id="paint18_linear_740_3968" x1="38.2356" y1="132.336" x2="66.4479" y2="105.463" gradientUnits="userSpaceOnUse">
            <stop stop-color="#D8E36B"/>
            <stop offset="0.8625" stop-color="#A0C74E"/>
            <stop offset="1" stop-color="#97C249"/>
        </linearGradient>
        <linearGradient id="paint19_linear_740_3968" x1="188.827" y1="91.4003" x2="4.64445" y2="61.5089" gradientUnits="userSpaceOnUse">
            <stop stop-color="#A8CB52"/>
            <stop offset="0.3201" stop-color="#B4D158"/>
            <stop offset="0.8912" stop-color="#D2E167"/>
            <stop offset="1" stop-color="#D9E56A"/>
        </linearGradient>
        <linearGradient id="paint20_linear_740_3968" x1="64.4719" y1="93.1895" x2="66.181" y2="121.796" gradientUnits="userSpaceOnUse">
            <stop stop-color="#566F17"/>
            <stop offset="0.4089" stop-color="#5D781C"/>
            <stop offset="1" stop-color="#6E8D29"/>
        </linearGradient>
        <linearGradient id="paint21_linear_740_3968" x1="235.028" y1="112.987" x2="231.107" y2="98.6707" gradientUnits="userSpaceOnUse">
            <stop stop-color="#566F17"/>
            <stop offset="0.4089" stop-color="#5D781C"/>
            <stop offset="1" stop-color="#6E8D29"/>
        </linearGradient>
        <linearGradient id="paint22_linear_740_3968" x1="143.736" y1="112.2" x2="144.092" y2="103.617" gradientUnits="userSpaceOnUse">
            <stop stop-color="#566F17"/>
            <stop offset="0.4089" stop-color="#5D781C"/>
            <stop offset="1" stop-color="#6E8D29"/>
        </linearGradient>
        <linearGradient id="paint23_linear_740_3968" x1="141.122" y1="84.1871" x2="187.221" y2="24.409" gradientUnits="userSpaceOnUse">
            <stop stop-color="#407F54"/>
            <stop offset="0.00646067" stop-color="#417F54"/>
            <stop offset="0.2364" stop-color="#5A8F53"/>
            <stop offset="0.4734" stop-color="#6D9952"/>
            <stop offset="0.7223" stop-color="#77A052"/>
            <stop offset="1" stop-color="#7BA252"/>
        </linearGradient>
        <linearGradient id="paint24_linear_740_3968" x1="136.333" y1="80.5507" x2="182.543" y2="20.6289" gradientUnits="userSpaceOnUse">
            <stop stop-color="#407F54"/>
            <stop offset="0.00646067" stop-color="#417F54"/>
            <stop offset="0.2364" stop-color="#5A8F53"/>
            <stop offset="0.4734" stop-color="#6D9952"/>
            <stop offset="0.7223" stop-color="#77A052"/>
            <stop offset="1" stop-color="#7BA252"/>
        </linearGradient>
        <linearGradient id="paint25_linear_740_3968" x1="129.449" y1="74.98" x2="175.456" y2="15.3213" gradientUnits="userSpaceOnUse">
            <stop stop-color="#407F54"/>
            <stop offset="0.00646067" stop-color="#417F54"/>
            <stop offset="0.2364" stop-color="#5A8F53"/>
            <stop offset="0.4734" stop-color="#6D9952"/>
            <stop offset="0.7223" stop-color="#77A052"/>
            <stop offset="1" stop-color="#7BA252"/>
        </linearGradient>
        <linearGradient id="paint26_linear_740_3968" x1="96.5749" y1="96.9706" x2="30.9331" y2="123.067" gradientUnits="userSpaceOnUse">
            <stop stop-color="#566F17"/>
            <stop offset="0.4089" stop-color="#5D781C"/>
            <stop offset="1" stop-color="#6E8D29"/>
        </linearGradient>
        <linearGradient id="paint27_linear_740_3968" x1="97.5467" y1="99.5063" x2="32.0022" y2="125.564" gradientUnits="userSpaceOnUse">
            <stop stop-color="#566F17"/>
            <stop offset="0.4089" stop-color="#5D781C"/>
            <stop offset="1" stop-color="#6E8D29"/>
        </linearGradient>
        <linearGradient id="paint28_linear_740_3968" x1="90.925" y1="86.1048" x2="27.2485" y2="111.42" gradientUnits="userSpaceOnUse">
            <stop stop-color="#566F17"/>
            <stop offset="0.4089" stop-color="#5D781C"/>
            <stop offset="1" stop-color="#6E8D29"/>
        </linearGradient>
        <linearGradient id="paint29_linear_740_3968" x1="92.9609" y1="86.0185" x2="26.4855" y2="112.446" gradientUnits="userSpaceOnUse">
            <stop stop-color="#566F17"/>
            <stop offset="0.4089" stop-color="#5D781C"/>
            <stop offset="1" stop-color="#6E8D29"/>
        </linearGradient>
        <linearGradient id="paint30_linear_740_3968" x1="108.19" y1="127.541" x2="42.3208" y2="153.728" gradientUnits="userSpaceOnUse">
            <stop stop-color="#566F17"/>
            <stop offset="0.4089" stop-color="#5D781C"/>
            <stop offset="1" stop-color="#6E8D29"/>
        </linearGradient>
        <linearGradient id="paint31_linear_740_3968" x1="108.915" y1="129.004" x2="43.2281" y2="155.119" gradientUnits="userSpaceOnUse">
            <stop stop-color="#566F17"/>
            <stop offset="0.4089" stop-color="#5D781C"/>
            <stop offset="1" stop-color="#6E8D29"/>
        </linearGradient>
        <linearGradient id="paint32_linear_740_3968" x1="220.086" y1="84.5341" x2="373.782" y2="97.3843" gradientUnits="userSpaceOnUse">
            <stop stop-color="#547F37"/>
            <stop offset="0.098417" stop-color="#5C8638"/>
            <stop offset="0.3783" stop-color="#6F963C"/>
            <stop offset="0.6722" stop-color="#799F3D"/>
            <stop offset="1" stop-color="#7DA23E"/>
        </linearGradient>
        <linearGradient id="paint33_linear_740_3968" x1="173.36" y1="82.7081" x2="310.274" y2="97.8619" gradientUnits="userSpaceOnUse">
            <stop stop-color="#A8CB52"/>
            <stop offset="0.3201" stop-color="#B4D158"/>
            <stop offset="0.8912" stop-color="#D2E167"/>
            <stop offset="1" stop-color="#D9E56A"/>
        </linearGradient>
        <linearGradient id="paint34_linear_740_3968" x1="206.699" y1="90.9715" x2="183.476" y2="37.744" gradientUnits="userSpaceOnUse">
            <stop stop-color="#407F54"/>
            <stop offset="0.00646067" stop-color="#417F54"/>
            <stop offset="0.2364" stop-color="#5A8F53"/>
            <stop offset="0.4734" stop-color="#6D9952"/>
            <stop offset="0.7223" stop-color="#77A052"/>
            <stop offset="1" stop-color="#7BA252"/>
        </linearGradient>
        <radialGradient id="paint35_radial_740_3968" cx="0" cy="0" r="1" gradientUnits="userSpaceOnUse" gradientTransform="translate(172.262 85.4296) scale(169.347 179.866)">
            <stop stop-color="#95C14A"/>
            <stop offset="0.3142" stop-color="#91BE4A"/>
            <stop offset="0.5958" stop-color="#87B648"/>
            <stop offset="0.8641" stop-color="#74A846"/>
            <stop offset="1" stop-color="#689E45"/>
        </radialGradient>
        <linearGradient id="paint36_linear_740_3968" x1="152.419" y1="96.903" x2="181.416" y2="73.2452" gradientUnits="userSpaceOnUse">
            <stop stop-color="#407F54"/>
            <stop offset="0.111" stop-color="#498555"/>
            <stop offset="0.6996" stop-color="#74A257"/>
            <stop offset="1" stop-color="#84AD58"/>
        </linearGradient>
        <linearGradient id="paint37_linear_740_3968" x1="165.167" y1="90.112" x2="163.288" y2="43.4105" gradientUnits="userSpaceOnUse">
            <stop stop-color="#407F54"/>
            <stop offset="0.00646067" stop-color="#417F54"/>
            <stop offset="0.2364" stop-color="#5A8F53"/>
            <stop offset="0.4734" stop-color="#6D9952"/>
            <stop offset="0.7223" stop-color="#77A052"/>
            <stop offset="1" stop-color="#7BA252"/>
        </linearGradient>
        <linearGradient id="paint38_linear_740_3968" x1="170.28" y1="89.9" x2="168.401" y2="43.2113" gradientUnits="userSpaceOnUse">
            <stop stop-color="#407F54"/>
            <stop offset="0.00646067" stop-color="#417F54"/>
            <stop offset="0.2364" stop-color="#5A8F53"/>
            <stop offset="0.4734" stop-color="#6D9952"/>
            <stop offset="0.7223" stop-color="#77A052"/>
            <stop offset="1" stop-color="#7BA252"/>
        </linearGradient>
        <linearGradient id="paint39_linear_740_3968" x1="180.737" y1="89.4777" x2="178.858" y2="42.7794" gradientUnits="userSpaceOnUse">
            <stop stop-color="#407F54"/>
            <stop offset="0.00646067" stop-color="#417F54"/>
            <stop offset="0.2364" stop-color="#5A8F53"/>
            <stop offset="0.4734" stop-color="#6D9952"/>
            <stop offset="0.7223" stop-color="#77A052"/>
            <stop offset="1" stop-color="#7BA252"/>
        </linearGradient>
        <linearGradient id="paint40_linear_740_3968" x1="187.834" y1="89.1827" x2="185.956" y2="42.5033" gradientUnits="userSpaceOnUse">
            <stop stop-color="#407F54"/>
            <stop offset="0.00646067" stop-color="#417F54"/>
            <stop offset="0.2364" stop-color="#5A8F53"/>
            <stop offset="0.4734" stop-color="#6D9952"/>
            <stop offset="0.7223" stop-color="#77A052"/>
            <stop offset="1" stop-color="#7BA252"/>
        </linearGradient>
        <linearGradient id="paint41_linear_740_3968" x1="174.638" y1="89.7254" x2="172.759" y2="43.0325" gradientUnits="userSpaceOnUse">
            <stop stop-color="#407F54"/>
            <stop offset="0.00646067" stop-color="#417F54"/>
            <stop offset="0.2364" stop-color="#5A8F53"/>
            <stop offset="0.4734" stop-color="#6D9952"/>
            <stop offset="0.7223" stop-color="#77A052"/>
            <stop offset="1" stop-color="#7BA252"/>
        </linearGradient>
        <linearGradient id="paint42_linear_740_3968" x1="166.03" y1="90.0794" x2="164.152" y2="43.3788" gradientUnits="userSpaceOnUse">
            <stop stop-color="#407F54"/>
            <stop offset="0.00646067" stop-color="#417F54"/>
            <stop offset="0.2364" stop-color="#5A8F53"/>
            <stop offset="0.4734" stop-color="#6D9952"/>
            <stop offset="0.7223" stop-color="#77A052"/>
            <stop offset="1" stop-color="#7BA252"/>
        </linearGradient>
        <linearGradient id="paint43_linear_740_3968" x1="158.963" y1="90.3638" x2="157.084" y2="43.6655" gradientUnits="userSpaceOnUse">
            <stop stop-color="#407F54"/>
            <stop offset="0.00646067" stop-color="#417F54"/>
            <stop offset="0.2364" stop-color="#5A8F53"/>
            <stop offset="0.4734" stop-color="#6D9952"/>
            <stop offset="0.7223" stop-color="#77A052"/>
            <stop offset="1" stop-color="#7BA252"/>
        </linearGradient>
        <linearGradient id="paint44_linear_740_3968" x1="200.015" y1="62.9791" x2="180.685" y2="37.5707" gradientUnits="userSpaceOnUse">
            <stop stop-color="#407F54"/>
            <stop offset="0.111" stop-color="#498555"/>
            <stop offset="0.6996" stop-color="#74A257"/>
            <stop offset="1" stop-color="#84AD58"/>
        </linearGradient>
        <linearGradient id="paint45_linear_740_3968" x1="231.646" y1="92.7645" x2="212.105" y2="54.7869" gradientUnits="userSpaceOnUse">
            <stop stop-color="#407F54"/>
            <stop offset="0.111" stop-color="#498555"/>
            <stop offset="0.6996" stop-color="#74A257"/>
            <stop offset="1" stop-color="#84AD58"/>
        </linearGradient>
        <linearGradient id="paint46_linear_740_3968" x1="285.575" y1="80.6446" x2="280.735" y2="104.166" gradientUnits="userSpaceOnUse">
            <stop stop-color="#6E8D29"/>
            <stop offset="0.0310006" stop-color="#6F8F29"/>
            <stop offset="0.3319" stop-color="#77A22A"/>
            <stop offset="0.6477" stop-color="#7BAC2A"/>
            <stop offset="1" stop-color="#7DB02A"/>
        </linearGradient>
        <linearGradient id="paint47_linear_740_3968" x1="119.704" y1="94.2867" x2="101.6" y2="94.2867" gradientUnits="userSpaceOnUse">
            <stop stop-color="#95C14A"/>
            <stop offset="0.3142" stop-color="#91BE4A"/>
            <stop offset="0.5958" stop-color="#87B648"/>
            <stop offset="0.8641" stop-color="#74A846"/>
            <stop offset="1" stop-color="#689E45"/>
        </linearGradient>
    </defs>
<path d="M174.416 -12H-6.99365V39.0054C-4.03966 40.527 5.02499 30.3723 14.2125 33.048C25.402 36.3039 35.3326 47.0388 44.7166 51.6423C44.7903 51.681 44.8701 51.7132 44.9438 51.7519C44.9868 51.7712 45.0237 51.7906 45.0667 51.8099C45.1526 51.8486 45.2386 51.8873 45.3307 51.926C45.4167 51.9646 45.5027 52.0033 45.5948 52.0356C45.8466 52.1387 46.1168 52.2419 46.4116 52.3515C46.5774 52.416 46.7555 52.4804 46.9398 52.5449C47.0135 52.5707 47.081 52.5965 47.1547 52.6223C47.2591 52.661 47.3697 52.6996 47.4802 52.7383C47.5601 52.7641 47.646 52.7899 47.7259 52.8222C47.7873 52.8479 47.8548 52.8673 47.9224 52.8866C47.9961 52.9124 48.0698 52.9382 48.1435 52.964C48.4997 53.08 48.8743 53.2025 49.2612 53.325C49.427 53.3766 49.5929 53.4282 49.7648 53.4862C49.9122 53.5314 50.0596 53.5765 50.207 53.6216C50.2193 53.6216 50.2254 53.6281 50.2377 53.6281C50.7413 53.7828 51.2694 53.9375 51.816 54.0987C52.1845 54.2083 52.5591 54.3179 52.946 54.4211C53.0443 54.4469 53.1364 54.4727 53.2347 54.5049C53.4312 54.5565 53.6277 54.6145 53.8304 54.6725C54.0146 54.7241 54.1989 54.7757 54.3831 54.8273C54.6042 54.8853 54.8253 54.9498 55.0525 55.0143C56.1457 55.3173 57.3064 55.6203 58.5101 55.9427C58.6452 55.9749 58.7742 56.0136 58.9093 56.0458C59.8428 56.2908 60.807 56.5359 61.7957 56.7873C62.0782 56.8582 62.3607 56.9291 62.6494 57.0065C65.0629 57.6126 67.6116 58.2444 70.2524 58.8827C71.2596 59.1277 72.279 59.3727 73.3046 59.6113C74.4654 59.8885 75.6322 60.1593 76.8114 60.4365C77.3764 60.5719 77.9475 60.7009 78.5187 60.8363C81.3683 61.5003 84.2486 62.158 87.1043 62.8092C87.3806 62.8736 87.657 62.9317 87.9272 62.9961C88.3633 63.0928 88.8055 63.1896 89.2353 63.2927C89.61 63.3765 89.9846 63.4604 90.3592 63.5442C90.4083 63.5571 90.4575 63.57 90.5066 63.5764C90.783 63.6409 91.0593 63.6989 91.3295 63.7634C91.655 63.8343 91.9744 63.9117 92.2937 63.9826C92.5394 64.0342 92.7789 64.0922 93.0246 64.1438C93.1044 64.1631 93.1781 64.176 93.2579 64.1954C93.8721 64.3372 94.4923 64.4726 95.1003 64.608C95.1188 64.6144 95.1433 64.6144 95.1618 64.6209C95.6899 64.7369 96.2181 64.853 96.7339 64.969C97.0042 65.0271 97.2744 65.0851 97.5446 65.1496C97.9008 65.2269 98.257 65.3043 98.6071 65.3817C98.8343 65.4333 99.0554 65.4784 99.2826 65.53C99.3686 65.5493 99.4546 65.5687 99.5405 65.588C99.8046 65.646 100.069 65.704 100.327 65.7621C100.591 65.8201 100.849 65.8781 101.107 65.9297C101.493 66.0135 101.88 66.0973 102.261 66.1812C102.587 66.2521 102.912 66.323 103.225 66.3939C103.281 66.4068 103.336 66.4197 103.391 66.4326C103.754 66.51 104.116 66.5938 104.472 66.6712C104.49 66.6776 104.509 66.6776 104.521 66.6841C104.718 66.7227 104.914 66.7679 105.105 66.813C105.387 66.871 105.67 66.9355 105.946 66.9935C106.425 67.0967 106.892 67.1998 107.352 67.2966C107.408 67.3095 107.457 67.3223 107.512 67.3288C107.807 67.3933 108.095 67.4513 108.378 67.5158C108.943 67.6383 109.49 67.7543 110.03 67.8704C111.215 68.1218 112.339 68.3668 113.389 68.5925C113.408 68.5989 113.426 68.5989 113.438 68.6054C113.61 68.6441 113.782 68.6827 113.954 68.715C114.329 68.7924 114.685 68.8697 115.041 68.9471C115.054 68.9471 115.066 68.9535 115.072 68.9535C115.219 68.9858 115.367 69.018 115.514 69.0502C115.588 69.0696 115.662 69.0825 115.729 69.0954C115.84 69.1212 115.95 69.1405 116.061 69.1663C117.301 69.4306 118.388 69.6628 119.297 69.8562C119.359 69.8691 119.414 69.882 119.475 69.8949C119.537 69.9078 119.592 69.9207 119.647 69.9335C119.703 69.9464 119.758 69.9593 119.819 69.9722C119.832 69.9722 119.844 69.9787 119.862 69.9787C119.948 69.998 120.034 70.0109 120.114 70.0303C120.255 70.0625 120.397 70.0883 120.526 70.1141C120.648 70.1399 120.765 70.1656 120.876 70.185C121.183 70.2495 121.447 70.3075 121.668 70.3526C121.699 70.3591 121.729 70.3655 121.76 70.372C121.834 70.3913 121.907 70.4042 121.969 70.4171C121.993 70.4235 122.024 70.43 122.049 70.43C122.264 70.4751 122.386 70.5009 122.429 70.5074C122.436 70.5138 122.442 70.5138 122.442 70.5138L125.033 71.0103L174.391 80.4428H300.074V-12H174.416Z" fill="url(#paint0_linear_740_3968)"/>
<path d="M300.074 79.0373H174.416V116.948H300.074V79.0373Z" fill="url(#paint1_radial_740_3968)"/>
<path d="M74.6494 57.0259C62.1333 58.4507 49.6172 59.8821 37.1011 61.3069V56.884C47.7318 55.7686 58.3625 54.6532 68.9932 53.5314C77.9411 52.59 86.8891 51.6487 95.8309 50.7139C85.9679 51.0749 76.1049 51.4295 66.2418 51.7841C59.9101 52.0162 53.5845 52.2419 47.2527 52.474C43.918 52.5965 40.1595 52.532 37.1011 51.6165V47.8061C44.0347 47.1291 50.999 46.6069 57.9694 46.2265C86.5943 44.6791 115.422 45.6591 143.789 49.1536C120.74 51.7712 97.6979 54.3953 74.6494 57.0259Z" fill="#D6FAFF"/>
<path d="M-6.99365 56.6326V59.8111C5.75581 61.0361 18.5667 61.5132 31.3653 61.6293C47.5846 61.784 63.7978 61.365 80.0172 61.1715C93.3439 61.0103 106.665 61.0039 119.985 61.5906C125.506 61.8356 131.027 62.1773 136.542 62.6609C145.625 63.4539 154.678 64.6144 163.65 66.2908C167.212 66.9549 170.78 67.6512 174.293 68.528C174.336 68.5409 174.379 68.5474 174.422 68.5602V60.688C163.675 59.7789 152.915 59.0374 142.149 58.4185C113.469 56.768 84.7337 55.9943 56.0167 55.2722C54.3278 55.227 52.6328 55.1883 50.9378 55.1432C31.6109 54.6468 12.149 54.1761 -6.99365 56.6326Z" fill="#D6FAFF"/>
<path d="M93.6019 64.8014L88.1668 70.6685L143.789 75.2978L125.248 53.6861L122.233 55.5945C122.233 55.5945 116.902 46.0524 114.587 44.8209C107.285 50.4173 87.2148 63.0155 87.2148 63.0155L93.6019 64.8014Z" fill="url(#paint2_linear_740_3968)"/>
<path d="M114.587 44.8274L118.702 58.1864L122.239 55.601C122.233 55.5945 116.902 46.0588 114.587 44.8274Z" fill="url(#paint3_linear_740_3968)"/>
<path d="M-3.05713 43.2994L-2.92202 45.4205C1.25411 44.879 5.46094 44.1311 7.15595 43.9763C14.7651 43.2607 22.3804 42.6353 29.9957 42.0679C38.6734 41.4232 47.3512 40.8622 56.035 40.3593C62.6124 39.9789 69.196 39.6243 75.7734 39.2891C84.5371 38.8442 93.3008 38.4251 102.065 38.0125C77.3271 33.7765 51.9695 31.0493 26.3968 30.4432H26.3907C18.1674 30.2498 9.92571 30.2692 1.66558 30.5335C13.543 32.1067 27.6558 33.164 41.3633 34.3181C50.8395 35.1176 60.1313 35.9558 68.3423 37.0454C65.0567 37.4773 58.0863 38.1221 51.9879 38.6185C48.5364 38.8958 45.3736 39.1279 43.3101 39.2439C36.9661 39.5921 30.6159 40.0499 24.2842 40.6172C15.6249 41.3909 5.98295 41.9261 -3.05713 43.2994Z" fill="#D6FAFF"/>
<path d="M102.07 66.8775C102.07 66.8775 84.586 56.2973 81.8224 53.4991C78.5429 53.9118 57.2017 69.1147 57.2017 69.1147L102.07 66.8775Z" fill="url(#paint4_linear_740_3968)"/>
<path d="M273.353 79.0373C273.353 79.0373 255.943 67.9026 253.314 64.9626C250.022 65.2012 228.012 79.2887 228.012 79.2887L273.353 79.0373Z" fill="url(#paint5_linear_740_3968)"/>
<path d="M-6.99365 39.0054V82.4479C4.15292 81.8612 18.2473 78.8567 31.5004 75.4074C38.9929 73.4538 46.2151 71.3584 52.4793 69.4758C58.2952 69.6176 65.1059 69.9916 72.5001 70.5331C86.9385 71.5905 103.6 73.2733 119.402 75.0463H119.42C142.849 77.6769 164.381 80.5073 173.968 81.7968H173.974C174.121 81.8161 174.269 81.8354 174.416 81.8548V80.417L125.058 70.9845L122.466 70.488C122.466 70.488 122.46 70.488 122.454 70.4816C122.417 70.4751 122.288 70.4493 122.073 70.4042C122.049 70.3978 122.024 70.3913 121.993 70.3913C121.932 70.3784 121.858 70.3655 121.785 70.3462C121.754 70.3397 121.723 70.3333 121.692 70.3268C121.471 70.2817 121.207 70.2237 120.9 70.1592C120.79 70.1334 120.673 70.1141 120.55 70.0883C120.421 70.0625 120.28 70.0303 120.139 70.0045C120.059 69.9851 119.973 69.9722 119.887 69.9529C119.875 69.9464 119.862 69.9464 119.844 69.9464C119.789 69.9335 119.733 69.9207 119.672 69.9078C119.617 69.8949 119.555 69.882 119.5 69.8691C119.439 69.8562 119.383 69.8433 119.322 69.8304C118.413 69.637 117.326 69.4049 116.085 69.1405C115.975 69.1147 115.864 69.0954 115.754 69.0696C115.68 69.0567 115.612 69.0374 115.539 69.0245C115.391 68.9922 115.244 68.96 115.097 68.9277C115.084 68.9277 115.072 68.9213 115.066 68.9213C114.98 68.902 114.888 68.8826 114.802 68.8633C114.624 68.8246 114.439 68.7859 114.255 68.7472C114.163 68.7279 114.071 68.7085 113.979 68.6892C113.807 68.6505 113.635 68.6183 113.463 68.5796C113.445 68.5796 113.432 68.5731 113.414 68.5667C113.15 68.5087 112.886 68.4506 112.609 68.3926C111.793 68.2185 110.939 68.0316 110.055 67.8446C109.514 67.7285 108.961 67.6125 108.403 67.49C108.114 67.432 107.825 67.3675 107.537 67.303C107.481 67.2901 107.432 67.2772 107.377 67.2708C107.033 67.1934 106.677 67.1225 106.327 67.0451C106.21 67.0193 106.093 66.9935 105.971 66.9677C105.688 66.9097 105.412 66.8452 105.129 66.7872C104.939 66.7485 104.742 66.7034 104.546 66.6583C104.527 66.6518 104.509 66.6518 104.497 66.6454C104.14 66.568 103.778 66.4906 103.416 66.4068C103.36 66.3939 103.305 66.381 103.25 66.3681C102.931 66.2972 102.605 66.2263 102.286 66.1554C101.905 66.0715 101.518 65.9877 101.131 65.9039C100.873 65.8459 100.615 65.7879 100.351 65.7363C100.087 65.6783 99.8292 65.6202 99.5651 65.5622C99.4791 65.5429 99.3932 65.5235 99.3072 65.5042C99.0861 65.459 98.8588 65.4075 98.6316 65.3559C98.2816 65.2785 97.9254 65.2011 97.5692 65.1238C97.2989 65.0658 97.0287 65.0077 96.7585 64.9433C96.2365 64.8272 95.7145 64.7112 95.1863 64.5951C95.1679 64.5886 95.1433 64.5887 95.1249 64.5822C94.5169 64.4468 84.2178 62.1257 83.7204 62.0161C83.1492 61.8872 71.5359 55.962 70.9709 55.8266C69.7918 55.5494 56.8274 55.472 56.0167 55.2528C55.6974 55.169 55.3842 55.0852 55.0709 54.9949C54.8437 54.9369 54.6226 54.8724 54.4015 54.8079C54.2173 54.7564 54.0331 54.7048 53.8488 54.6532C53.6461 54.5952 53.4496 54.5436 53.2531 54.4856C53.1548 54.4598 53.0566 54.4276 52.9645 54.4018C52.5775 54.2922 52.2029 54.1826 51.8344 54.0794C51.423 53.9569 51.0238 53.8408 50.6369 53.7248C50.5079 53.6861 50.3789 53.6474 50.2561 53.6087C50.2438 53.6023 50.2377 53.6023 50.2254 53.6023C50.078 53.5572 49.9306 53.512 49.7832 53.4669C49.6113 53.4153 49.4455 53.3637 49.2796 53.3057C48.9849 53.2154 48.7024 53.1252 48.426 53.0349C48.3339 53.0027 48.2479 52.9769 48.1558 52.9446C48.0821 52.9189 48.0022 52.8931 47.9347 52.8673C47.8671 52.8479 47.8057 52.8221 47.7382 52.8028C47.6583 52.777 47.5723 52.7448 47.4925 52.719C47.382 52.6803 47.2714 52.6416 47.167 52.6029C47.0933 52.5771 47.0196 52.5514 46.9521 52.5256C46.7678 52.4611 46.5959 52.3966 46.4239 52.3321C46.1291 52.2225 45.8589 52.1194 45.6071 52.0162C45.515 51.9775 45.429 51.9389 45.343 51.9066C45.2509 51.8679 45.1649 51.8293 45.079 51.7906C45.036 51.7712 44.993 51.7519 44.9561 51.7325C44.8763 51.6939 44.7964 51.6616 44.7289 51.6229C41.4187 49.9982 38.0471 47.6191 34.5711 45.0659C33.6622 44.4018 32.741 43.7184 31.8198 43.0414C29.4553 41.3006 27.0356 39.5534 24.5668 37.9867C23.1113 37.0647 21.6374 36.2008 20.1389 35.4335L19.4756 35.1047C18.8615 34.8017 18.2412 34.518 17.6209 34.2536C16.5093 33.783 15.3855 33.3703 14.2493 33.0415H14.2432C14.237 33.0415 14.2309 33.0351 14.2248 33.0351C5.02499 30.3723 -4.03966 40.5205 -6.99365 39.0054Z" fill="url(#paint6_linear_740_3968)"/>
<path d="M174.416 34.2021V81.8483L173.974 81.7903H173.968L171.265 81.455L121.183 75.2526L119.42 75.0334H119.402L119.279 75.0141C119.279 75.0141 121.527 73.4796 125.058 70.978C125.764 70.4751 137.341 57.9478 139.238 56.4907C139.263 56.4714 139.281 56.4585 139.312 56.4391C140.178 55.8718 143.758 54.795 146.546 53.7957C148.045 53.2606 149.31 52.7448 149.801 52.345C150.501 51.7712 157.619 41.507 158.516 41.4941L158.559 41.507C162.084 43.4863 163.613 43.8732 163.613 43.8732C163.613 43.8732 172.5 34.634 174.416 34.2021Z" fill="url(#paint7_linear_740_3968)"/>
<path d="M46.8843 75.8007L115.36 83.4924L166.923 89.2886C166.936 89.2886 166.942 89.2886 166.954 89.2886C167.28 89.2757 170.903 89.1017 174.422 88.4827V81.8612C174.275 81.8419 174.127 81.8226 173.974 81.8032L119.426 75.0528C118.929 74.9948 118.425 74.9367 117.921 74.8852C117.424 74.8336 116.933 74.7755 116.435 74.7175C115.514 74.6144 114.587 74.5177 113.659 74.4145C113.586 74.408 113.518 74.3952 113.444 74.3887C111.448 74.1695 109.446 73.9567 107.438 73.744C106.867 73.6859 106.296 73.6215 105.725 73.5634C104.294 73.4151 102.857 73.2669 101.426 73.1186C100.216 72.9961 98.9999 72.8736 97.79 72.7511C95.7572 72.5512 93.7367 72.3513 91.7285 72.1644C91.4399 72.1386 91.1573 72.1128 90.8748 72.0805C90.5678 72.0547 90.2607 72.0225 89.9475 71.9967C89.5606 71.958 89.1737 71.9258 88.7868 71.8871C88.2955 71.842 87.8103 71.7968 87.3251 71.7517C86.84 71.7066 86.3548 71.6615 85.8696 71.6228C85.6301 71.6034 85.3845 71.5776 85.145 71.5583C84.4203 71.4938 83.7017 71.4293 82.9832 71.3713C82.9279 71.3649 82.8727 71.3584 82.8174 71.3584C81.6751 71.2617 80.5451 71.165 79.4212 71.0747C78.9483 71.0361 78.4693 70.9974 77.9964 70.9587C77.7692 70.9393 77.542 70.92 77.3147 70.9071C77.1919 70.8942 77.0691 70.8878 76.9462 70.8749C76.3751 70.8297 75.8039 70.7846 75.2389 70.7395C75.0117 70.7201 74.7783 70.7072 74.5511 70.6879C74.3239 70.6686 74.0966 70.6557 73.8694 70.6363C73.8571 70.6363 73.8387 70.6299 73.8264 70.6299C73.6115 70.617 73.3965 70.5976 73.1816 70.5847C72.9544 70.5654 72.7271 70.5525 72.4999 70.5332C59.4802 73.4409 46.8843 75.8007 46.8843 75.8007Z" fill="url(#paint8_linear_740_3968)"/>
<path d="M174.416 86.1745V104.105C174.416 104.105 -4.53711 99.9591 -6.99365 99.9526V86.1745C13.715 84.4982 33.4963 83.5118 52.0248 82.9573C95.7882 81.6485 132.421 83.4924 156.581 84.9366C159.818 85.1301 162.827 85.3235 165.603 85.5169C168.876 85.7426 171.824 85.9682 174.416 86.1745Z" fill="url(#paint9_radial_740_3968)"/>
<path d="M-7 102.438V122C-7 122 128.901 107.718 175 121.551V90C172.862 90.0082 170.693 90.0326 168.506 90.0653C163.817 90.1387 159.017 90.2856 154.15 90.4815C81.6186 93.4277 -7 102.438 -7 102.438Z" fill="url(#paint10_radial_740_3968)"/>
<path d="M78.8502 10.4369C80.0969 5.5885 84.23 1.72651 88.9159 1.04309C93.6017 0.359663 98.5701 2.8806 101.002 7.19391C102.758 5.07916 105.547 4.00244 108.169 4.42152C110.791 4.84061 113.162 6.74259 114.255 9.30865C117.799 6.25259 123.602 6.80706 126.575 10.4821C132.096 8.64457 137.433 7.5872 142.432 10.6884C143.758 11.5072 144.735 13.19 144.735 13.19C144.735 13.19 98.4472 12.6162 68.459 13.4995C70.6944 10.0952 75.3005 8.74128 78.8502 10.4369Z" fill="white"/>
<path d="M38.1695 24.8985C39.0723 22.6419 41.2402 21.0107 43.5432 20.856C45.8524 20.7012 48.1922 22.0229 49.3591 24.1441C50.5259 22.5323 52.3929 21.5265 54.3029 21.4685C56.2128 21.4169 58.1289 22.3195 59.3756 23.8604C61.3224 21.9133 64.9336 22.4291 66.3215 24.8598C69.8098 22.7515 74.6431 23.6219 77.2839 26.8327C65.4617 27.3743 31.5123 27.7805 31.5 27.8836C32.3107 25.0919 35.7253 23.5639 38.1695 24.8985Z" fill="white"/>
<path d="M117.59 31.8745C119.531 29.921 122.626 29.3923 125.045 30.598C126.034 28.4574 128.257 27.039 130.499 27.1099C132.741 27.1808 134.878 28.754 135.738 30.9526C137.402 29.244 140.466 29.4826 141.873 31.4361C144.679 30.1982 149.273 31.017 151.742 32.8223C150.348 32.9706 117.848 31.6167 117.59 31.8745Z" fill="white"/>
<path d="M29.2402 1.40414C29.5842 0.346766 30.665 -0.897582 32.3908 -1.34245C33.7664 -1.69706 34.8289 -1.03298 34.8289 -1.03298C34.8289 -1.03298 35.4062 -3.0897 37.5434 -4.12773C38.7102 -4.6951 40.0306 -4.96589 41.222 -4.46299C42.4135 -3.9601 43.3838 -2.98009 44.1699 -1.90338C45.8158 -3.54746 48.911 -2.9672 49.9305 -0.82666C53.6214 -0.897582 57.8958 -0.169026 60.8191 2.22941C60.7454 1.84256 34.7429 1.24295 29.2402 1.40414Z" fill="white"/>
<path d="M265.388 27.5419C265.941 25.7237 267.261 24.4149 268.668 24.286C270.074 24.1635 271.505 25.2273 272.217 26.9294C272.93 25.6335 274.066 24.8211 275.233 24.776C276.4 24.7308 277.566 25.4594 278.328 26.7037C279.519 25.137 281.718 25.5497 282.565 27.5097C284.69 25.814 287.644 26.5168 289.253 29.0957C282.043 29.5277 261.335 29.8565 261.329 29.9403C261.814 27.6966 263.896 26.4652 265.388 27.5419Z" fill="white"/>
<path d="M214.494 41.2104C217.896 37.7804 223.332 36.8519 227.575 38.9731C229.307 35.2207 233.213 32.7256 237.15 32.8546C241.086 32.9835 244.839 35.7365 246.349 39.5921C249.267 36.5876 254.646 37.0131 257.115 40.4431C262.041 38.2704 270.104 39.7146 274.44 42.8738C271.977 43.1253 214.942 40.7591 214.494 41.2104Z" fill="white"/>
<path d="M216.282 22.197C215.84 20.8237 214.433 19.2119 212.192 18.6316C210.411 18.1674 209.029 19.0313 209.029 19.0313C209.029 19.0313 208.28 16.3621 205.51 15.0146C203.993 14.2796 202.286 13.925 200.738 14.5826C199.19 15.2403 197.937 16.5104 196.912 17.903C194.775 15.7689 190.764 16.5233 189.444 19.3021C184.654 19.2119 179.114 20.1532 175.319 23.2673C175.411 22.7708 209.145 21.9907 216.282 22.197Z" fill="white"/>
<path d="M-3.05698 57.0001C-7.43577 58.5732 14.4398 61.6486 25.4328 52.2999C26.5567 51.3457 28.0183 50.4753 30.1801 51.4617L30.2599 51.4875C30.7881 51.6423 31.2855 51.8808 31.7523 52.1774C33.9079 53.5572 41.6828 56.1877 42.9357 56.3811C49.0156 57.3095 57.1406 55.962 62.5758 55.5107C61.63 55.4462 59.7446 55.601 59.0506 55.4204C58.9155 55.3882 58.3443 55.4011 58.2092 55.3947C57.0792 55.3624 56.809 55.3366 56.0045 55.2593C55.6729 55.227 55.3719 55.0916 55.0587 55.0014C54.8315 54.9433 54.6104 54.8789 54.3893 54.8144C54.2051 54.7628 54.0208 54.7112 53.8366 54.6597C53.6339 54.6016 53.4374 54.5501 53.2409 54.492C53.1426 54.4662 53.0444 54.434 52.9522 54.4082C52.5653 54.2986 52.1907 54.189 51.8222 54.0858C51.4108 53.9633 51.0116 53.8473 50.6247 53.7312C50.4957 53.6925 50.3667 53.6539 50.2439 53.6152C50.2316 53.6087 50.2255 53.6087 50.2132 53.6087C50.0658 53.5636 49.9184 53.5185 49.771 53.4733C49.5991 53.4218 49.4332 53.3702 49.2674 53.3121C48.9726 53.2219 48.6901 53.1316 48.4138 53.0414C48.3217 53.0091 48.2357 52.9833 48.1435 52.9511C48.0699 52.9253 47.99 52.8995 47.9225 52.8737C47.8549 52.8544 47.7935 52.8286 47.7259 52.8093C47.6461 52.7835 47.5601 52.7512 47.4803 52.7254C47.3697 52.6868 47.2592 52.6481 47.1548 52.6094C47.0811 52.5836 47.0074 52.5578 46.9398 52.532C46.7556 52.4675 46.5836 52.4031 46.4117 52.3386C46.1169 52.229 45.8467 52.1258 45.5949 52.0227C45.5028 51.984 45.4168 51.9453 45.3308 51.9131C45.2387 51.8744 45.1527 51.8357 45.0667 51.797C45.0237 51.7777 44.9808 51.7583 44.9439 51.739C44.8641 51.7003 44.7842 51.6681 44.7167 51.6294C41.4065 50.0046 38.0349 47.6255 34.5589 45.0724C33.6499 44.4083 32.7287 43.7249 31.8075 43.0479C29.4431 41.3071 27.0234 39.5598 24.5546 37.9931C23.0991 37.0712 21.6252 36.2072 20.1267 35.44L19.4634 35.1111L17.6087 34.2601L24.53 43.6475C25.0582 45.2271 14.5135 39.9209 13.887 41.4618C13.8809 41.4683 15.2381 50.4237 -3.05698 57.0001Z" fill="url(#paint11_linear_740_3968)"/>
<path d="M-6.99365 56.5036V82.4479C4.15292 81.8612 18.2473 78.8567 31.5004 75.4074C28.7675 73.5312 23.1359 70.4364 14.7775 69.4822C2.50089 68.0767 -3.03247 61.6551 -3.03247 61.6551L-6.99365 56.5036Z" fill="url(#paint12_linear_740_3968)"/>
<path d="M133.208 104.092C133.281 104.201 133.349 104.305 133.423 104.414C133.362 104.298 133.288 104.189 133.208 104.092Z" fill="url(#paint13_linear_740_3968)"/>
<path d="M-6.99365 82.4479C-1.82877 82.132 3.50808 81.9193 9.109 81.6743C19.1808 81.2423 29.7317 80.9264 39.9386 80.6943H39.9571C39.9571 80.6943 64.7743 74.5886 47.1179 74.0147C33.3121 73.5699 21.0724 73.3313 16.4602 72.6479C15.9136 72.9509 15.3118 73.2604 14.6608 73.5892C9.45292 76.1875 1.21735 79.4177 -6.99365 82.4479Z" fill="url(#paint14_linear_740_3968)"/>
<path d="M8.9307 82.8477C8.91221 83.0411 8.96767 83.2345 9.10323 83.3828C9.03545 83.2087 8.97383 83.0347 8.9307 82.8477Z" fill="url(#paint15_linear_740_3968)"/>
<path d="M165.382 86.2648C165.382 86.3422 165.388 86.4131 165.407 86.4905C165.4 86.4195 165.394 86.3422 165.382 86.2648Z" fill="url(#paint16_linear_740_3968)"/>
<path d="M-6.99365 82.448C-1.82877 82.132 3.50808 81.9193 9.109 81.6743C12.192 77.3029 16.4663 72.6544 16.4663 72.6544C15.9198 72.9574 15.3179 73.2669 14.6669 73.5957C9.45291 76.1875 1.21735 79.4177 -6.99365 82.448Z" fill="url(#paint17_linear_740_3968)"/>
<path d="M174.416 81.8548V86.7355C153.707 85.0591 133.889 84.0405 115.354 83.4924C111.547 83.3764 107.8 83.2861 104.103 83.2087C71.8858 82.5511 44.0531 83.2603 22.9084 84.279C10.4722 84.8786 0.345068 85.5814 -7 86.1681V82.4415C10.4476 81.526 35.1175 74.6853 52.4729 69.4693H52.4791C58.295 69.6112 65.1057 69.9851 72.4999 70.5267C72.7272 70.546 72.9544 70.5589 73.1816 70.5783C73.3966 70.5976 73.6115 70.6105 73.8265 70.6234C73.8387 70.6234 73.851 70.6234 73.8694 70.6299C74.0967 70.6492 74.3239 70.6621 74.5511 70.6814C74.7784 70.7008 75.0117 70.7137 75.239 70.733C75.804 70.7782 76.3751 70.8233 76.9463 70.8684C77.0691 70.8813 77.1919 70.8878 77.3148 70.9007C77.542 70.92 77.7692 70.9393 77.9964 70.9522C78.4693 70.9909 78.9422 71.0296 79.4212 71.0683C80.5451 71.1586 81.6751 71.2553 82.8174 71.352C82.8727 71.3584 82.928 71.3584 82.9832 71.3649C83.7018 71.4229 84.4203 71.4874 85.145 71.5518C85.3845 71.5712 85.624 71.597 85.8697 71.6163C86.3548 71.6614 86.84 71.7066 87.3252 71.7453C87.8103 71.7904 88.2955 71.8355 88.7868 71.8807C89.1737 71.9129 89.5606 71.9516 89.9475 71.9903C90.2546 72.0161 90.5617 72.0483 90.8749 72.0741C91.1574 72.0999 91.446 72.1257 91.7285 72.1579C93.7368 72.3449 95.7573 72.5447 97.79 72.7446C98.9999 72.8607 100.21 72.9832 101.42 73.1121C102.851 73.2604 104.288 73.4087 105.719 73.557C106.29 73.615 106.861 73.673 107.432 73.7375C109.434 73.9503 111.442 74.163 113.438 74.3823C113.512 74.3887 113.579 74.3951 113.653 74.408C114.581 74.5112 115.502 74.6079 116.429 74.7111C116.927 74.7691 117.424 74.8207 117.915 74.8787C118.419 74.9303 118.922 74.9883 119.42 75.0463C142.849 77.6769 164.381 80.5073 173.968 81.7968C174.121 81.8161 174.275 81.8354 174.416 81.8548Z" fill="url(#paint18_linear_740_3968)"/>
<path d="M174.416 81.8548V86.7355C153.707 85.0591 133.889 84.0405 115.354 83.4924C111.547 83.3764 107.8 83.2861 104.103 83.2087C84.9729 76.3036 52.479 69.4693 52.479 69.4693C58.2949 69.6112 65.1056 69.9851 72.4998 70.5267C72.7271 70.546 72.9543 70.5589 73.1815 70.5783C73.3965 70.5976 73.6114 70.6105 73.8264 70.6234C73.8387 70.6234 73.8509 70.6234 73.8694 70.6299C74.0966 70.6492 74.3238 70.6621 74.5511 70.6814C74.7783 70.7008 75.0117 70.7137 75.2389 70.733C75.8039 70.7782 76.375 70.8233 76.9462 70.8684C77.069 70.8813 77.1918 70.8878 77.3147 70.9007C77.5419 70.92 77.7691 70.9393 77.9964 70.9522C78.4692 70.9909 78.9421 71.0296 79.4212 71.0683C80.545 71.1586 81.675 71.2553 82.8173 71.352C82.8726 71.3584 82.9279 71.3584 82.9831 71.3649C83.7017 71.4229 84.4202 71.4874 85.1449 71.5518C85.3844 71.5712 85.6239 71.597 85.8696 71.6163C86.3548 71.6614 86.8399 71.7066 87.3251 71.7453C87.8103 71.7904 88.2954 71.8355 88.7867 71.8807C89.1736 71.9129 89.5605 71.9516 89.9474 71.9903C90.2545 72.0161 90.5616 72.0483 90.8748 72.0741C91.1573 72.0999 91.4459 72.1257 91.7284 72.1579C93.7367 72.3449 95.7572 72.5447 97.79 72.7446C98.9998 72.8607 100.21 72.9832 101.42 73.1121C102.85 73.2604 104.288 73.4087 105.718 73.557C106.29 73.615 106.861 73.673 107.432 73.7375C109.434 73.9503 111.442 74.163 113.438 74.3823C113.512 74.3887 113.579 74.3951 113.653 74.408C114.58 74.5112 115.502 74.6079 116.429 74.7111C116.926 74.7691 117.424 74.8207 117.915 74.8787C118.419 74.9303 118.922 74.9883 119.42 75.0463C142.849 77.6769 164.381 80.5073 173.967 81.7968C174.121 81.8161 174.274 81.8354 174.416 81.8548Z" fill="url(#paint19_linear_740_3968)"/>
<path d="M52.9277 109.437C60.5061 108.908 68.7171 108.379 77.5484 107.851C78.2178 106.813 78.5556 105.465 78.4389 103.718C78.2853 101.7 76.9035 99.6303 74.9997 99.5207C73.6425 99.4433 72.4265 100.829 72.3344 102.158C72.4633 102.661 72.6169 103.144 72.8073 103.621C72.4326 103.209 72.2914 102.686 72.3344 102.158C71.7325 99.8301 71.6834 97.3285 70.8482 95.0655C69.841 92.3254 66.7273 89.9721 64.3936 91.5517C62.1274 93.0797 62.6187 96.6774 63.3741 99.4111C63.0241 98.1022 61.3045 97.6122 60.199 98.3086C59.0936 99.0049 58.6146 100.501 58.7128 101.861C58.805 103.221 59.3577 104.492 59.9104 105.723C58.4856 104.885 56.9871 104.027 55.3596 104.008C53.7322 103.995 51.9758 105.149 51.8406 106.871C51.767 107.864 52.2337 108.779 52.9277 109.437Z" fill="url(#paint20_linear_740_3968)"/>
<path d="M228.018 110.327C228.042 110.352 228.073 110.378 228.097 110.397C228.736 110.436 239.821 111.442 240.38 111.519C240.644 110.204 240.552 108.74 240.214 107.451C240.061 106.851 239.803 106.22 239.293 105.923C238.832 105.652 238.206 105.736 237.819 106.116C237.592 106.336 237.457 106.645 237.426 106.967C237.469 107.193 237.5 107.425 237.524 107.657C237.432 107.445 237.402 107.2 237.426 106.967C236.861 103.705 234.853 100.797 232.255 98.9339C231.979 98.7341 231.659 98.5407 231.334 98.6051C230.916 98.6889 230.683 99.1596 230.554 99.5851C230.167 100.894 230.265 102.325 230.609 103.647C230.953 104.969 231.524 106.213 232.095 107.445C231.702 106.813 231.07 106.348 230.376 106.174C229.952 106.071 229.455 106.091 229.148 106.426C228.883 106.716 228.84 107.167 228.945 107.554C229.031 107.889 229.215 108.186 229.405 108.476C229.436 108.515 229.467 108.56 229.491 108.605C229.461 108.56 229.436 108.521 229.405 108.476C229.037 108.012 228.239 108.018 227.852 108.495C227.434 109.011 227.539 109.875 228.018 110.327Z" fill="url(#paint21_linear_740_3968)"/>
<path d="M132.857 111.165C140.571 111.268 147.848 111.526 154.432 111.971C155.273 109.83 154.223 106.735 151.73 105.916C150.428 105.491 148.788 106.155 148.377 107.541C148.585 106.639 148.788 105.704 148.665 104.782C148.542 103.86 148.014 102.938 147.173 102.661C146.522 102.448 145.76 102.68 145.318 103.234C144.876 103.789 144.79 104.627 145.097 105.272C144.508 104.04 142.868 103.576 141.75 104.279C140.632 104.988 140.233 106.69 140.866 107.896C140.123 106.929 138.649 106.716 137.691 107.438C136.733 108.16 136.438 109.714 137.064 110.778C136.254 110.198 135.357 109.591 134.38 109.675C133.637 109.733 132.925 110.436 132.857 111.165Z" fill="url(#paint22_linear_740_3968)"/>
<path d="M174.416 34.2021V35.859L171.413 49.0569L167.04 48.6765L163.613 43.8861C163.613 43.8796 172.5 34.634 174.416 34.2021Z" fill="url(#paint23_linear_740_3968)"/>
<path d="M158.559 41.5199L156.09 64.4661L152.417 52.9962L146.54 53.8215C148.039 53.2864 149.304 52.7706 149.795 52.3708C150.495 51.797 157.613 41.5327 158.51 41.5199H158.559Z" fill="url(#paint24_linear_740_3968)"/>
<path d="M140.687 73.4087L137.918 67.2708L129.915 73.4087L121.231 75.2462L119.426 75.0463H119.407L119.285 75.027C119.285 75.027 121.532 73.4925 125.064 70.9909C125.77 70.488 137.346 57.9607 139.244 56.5036C139.269 56.4843 139.287 56.4714 139.318 56.452L140.687 73.4087Z" fill="url(#paint25_linear_740_3968)"/>
<path d="M77.6221 109.437C77.6221 109.437 80.8094 100.746 84.7215 97.9991C78.5863 108.276 77.6221 109.437 77.6221 109.437Z" fill="url(#paint26_linear_740_3968)"/>
<path d="M75.5767 111.403C75.5767 111.403 80.9565 104.027 85.4397 102.57C76.8111 110.578 75.5767 111.403 75.5767 111.403Z" fill="url(#paint27_linear_740_3968)"/>
<path d="M47.1978 97.8572C47.1978 97.8572 52.3933 105.381 52.4793 110.359C47.6092 99.3401 47.1978 97.8572 47.1978 97.8572Z" fill="url(#paint28_linear_740_3968)"/>
<path d="M50.8149 97.3156C50.8149 97.3156 53.7874 106.091 52.5407 110.894C50.8088 98.863 50.8149 97.3156 50.8149 97.3156Z" fill="url(#paint29_linear_740_3968)"/>
<path d="M156.858 100.024C156.858 100.024 157.048 109.353 154.426 113.479C156.385 101.487 156.858 100.024 156.858 100.024Z" fill="url(#paint30_linear_740_3968)"/>
<path d="M160.107 101.784C160.107 101.784 157.797 110.784 154.18 113.956C159.265 103.047 160.107 101.784 160.107 101.784Z" fill="url(#paint31_linear_740_3968)"/>
<path d="M300.074 94.1629L198.859 86.7419L174.416 81.8548V76.1617L300.074 89.5078V94.0984V94.1629Z" fill="url(#paint32_linear_740_3968)"/>
<path d="M300.074 94.1629V102.229L174.416 86.7419V81.8548L300.074 94.0984V94.1629Z" fill="url(#paint33_linear_740_3968)"/>
<path d="M234.061 87.6639L225.42 86.8193L174.416 81.8483L173.372 40.4496L174.416 34.1956C174.674 34.2536 175.054 34.4664 175.515 34.7952C178.543 36.9293 185.218 43.8732 185.218 43.8732C185.218 43.8732 198.33 51.7777 199.03 52.3515C199.319 52.5836 199.859 52.8544 200.566 53.1445C201.069 53.3573 199.429 58.5345 200.056 58.7602C202.838 59.7596 208.654 55.8782 209.52 56.4456C209.544 56.4649 209.569 56.4778 209.593 56.4972C209.728 56.6003 209.913 56.7615 210.134 56.9678C213.075 59.6757 223.117 70.5203 223.774 70.9845C227.311 73.4925 234.061 87.6639 234.061 87.6639Z" fill="url(#paint34_linear_740_3968)"/>
<path d="M300.074 98.747V111.003C213.155 90.9843 173.9 89.2242 173.9 89.2242L174.422 86.7419C174.416 86.7419 237.727 91.9514 300.074 98.747Z" fill="url(#paint35_radial_740_3968)"/>
<path d="M194.019 83.7632L196.095 84.653L185.587 86.2648L180.692 85.2655L173.126 87.9863L170.903 84.653L162.44 82.4479L164.086 81.0876L155.648 79.9141L154.727 79.0437L162.962 65.156L163.619 70.5396L163.785 67.3868L171.069 56.4649L172.193 57.5288L174.428 48.6249L182.381 63.3701L183.505 62.0032L187.276 66.7743C187.276 66.7743 193.933 75.7233 194.259 77.0837C194.578 78.4441 199.559 83.0347 199.559 83.0347L194.019 83.7632Z" fill="url(#paint36_linear_740_3968)"/>
<path d="M164.08 81.0811L169.017 70.0883L160.235 80.5524L164.08 81.0811Z" fill="url(#paint37_linear_740_3968)"/>
<path d="M167.138 83.673C167.096 83.6601 171.48 74.6273 171.48 74.6273L173.12 87.9863L170.897 84.653L167.138 83.673Z" fill="url(#paint38_linear_740_3968)"/>
<path d="M183.64 85.8651L180.926 75.5879L177.591 86.3809L180.686 85.2655L183.64 85.8651Z" fill="url(#paint39_linear_740_3968)"/>
<path d="M199.546 83.0282L194.019 83.7568L190.555 76.3487L189.775 77.6898L184.18 64.7176L182.915 66.381L174.422 48.612L182.498 63.0993L183.499 61.9904L187.27 66.7614C187.27 66.7614 193.927 75.7104 194.252 77.0708C194.566 78.4441 199.546 83.0282 199.546 83.0282Z" fill="url(#paint40_linear_740_3968)"/>
<path d="M172.18 57.5223L173.709 59.1406L174.416 48.6184L172.18 57.5223Z" fill="url(#paint41_linear_740_3968)"/>
<path d="M165.579 64.6725L163.779 67.3739L163.613 70.5267L164.842 68.1283L166.745 62.9252L165.579 64.6725Z" fill="url(#paint42_linear_740_3968)"/>
<path d="M162.956 65.1496L158.27 80.2752L155.642 79.9077L153.64 79.1404L162.956 65.1496Z" fill="url(#paint43_linear_740_3968)"/>
<path d="M200.572 53.151L193.282 51.4231L186.465 47.1613L180.613 45.5043L174.416 34.2021L175.515 34.8017C178.543 36.9358 185.219 43.8796 185.219 43.8796C185.219 43.8796 198.33 51.7841 199.031 52.3579C199.325 52.59 199.872 52.8608 200.572 53.151Z" fill="url(#paint44_linear_740_3968)"/>
<path d="M234.061 87.6639L226.304 86.9095L223.535 78.6569L217.037 66.7292L216.638 70.0947L210.146 56.9807C213.088 59.6886 223.129 70.5331 223.786 70.9974C227.312 73.4925 234.061 87.6639 234.061 87.6639Z" fill="url(#paint45_linear_740_3968)"/>
<path d="M272.156 95.7618C272.26 96.052 272.444 96.2841 272.665 96.4646C279.36 97.1416 285.949 97.8637 292.385 98.6374C293.835 96.8063 294.215 93.8018 291.777 92.7315C290.813 92.3125 289.505 92.9894 289.358 94.0275C289.358 94.1306 289.352 94.2402 289.352 94.3434C289.345 94.2338 289.345 94.1306 289.358 94.0275C289.395 92.6477 289.364 91.21 288.707 90.0236C288 88.7471 286.275 87.9992 285.169 88.8953C284.101 89.7593 284.224 91.4743 284.451 92.8863C284.039 91.9127 282.903 91.3582 281.939 91.6677C280.981 91.9772 280.318 93.1055 280.483 94.1564C280.158 92.9314 278.881 92.0868 277.701 92.3254C276.528 92.5575 275.619 93.8405 275.736 95.1042C275.405 94.15 274.465 93.4085 273.513 93.531C272.561 93.66 271.8 94.8141 272.156 95.7618Z" fill="url(#paint46_linear_740_3968)"/>
<path d="M102.089 98.7663C102.15 98.8244 102.206 98.8759 102.273 98.9275C105.866 98.8115 112.13 98.6374 119.702 98.5278C119.119 97.6638 118.05 97.1867 117.062 97.3672C116.705 96.3679 115.36 95.9617 114.562 96.6065C114.943 96.1874 114.943 95.4459 114.568 95.0268C114.187 94.6078 113.487 94.5755 113.082 94.9688C113.174 93.8405 113.254 92.6735 112.898 91.6033C112.542 90.533 111.62 89.5917 110.552 89.6433C109.52 89.6884 108.722 90.591 108.083 91.4485C107.383 92.3834 106.695 93.5439 106.726 94.6787C106.646 94.4079 106.541 94.1564 106.376 93.9372C106.044 93.5053 105.393 93.2925 104.975 93.6342C104.576 93.9695 104.588 94.6013 104.681 95.13C104.81 95.865 105.068 97.1029 105.547 97.8701C105.719 98.0313 105.878 98.2054 106.013 98.3924C105.841 98.2699 105.682 98.0894 105.547 97.8701C105.135 97.4833 104.631 97.1545 104.177 96.8901C103.397 96.4324 102.243 96.2067 101.757 96.9997C101.426 97.5542 101.647 98.3215 102.089 98.7663ZM106.732 94.6787C106.812 94.9495 106.855 95.2332 106.898 95.5039C106.787 95.2332 106.738 94.9559 106.732 94.6787Z" fill="url(#paint47_linear_740_3968)"/>

</svg>
