<svg width="20" height="21" viewBox="0 0 20 21" fill="none" xmlns="http://www.w3.org/2000/svg">
<path d="M19.9756 5.49643C19.8428 4.20814 19.2408 3.06514 18.2678 2.29629C17.697 1.845 17.0376 1.57629 16.3566 1.38857C16.1304 0.586286 15.4459 0 14.6261 0H5.37391C4.55413 0 3.86838 0.587572 3.64339 1.38857C2.96124 1.57629 2.30302 1.845 1.73216 2.29629C0.759193 3.06514 0.157222 4.20814 0.0243813 5.49643C-0.238907 8.04729 1.67232 10.0761 3.72118 10.9363C4.15441 11.1189 4.6032 11.2513 5.05797 11.3554C5.84065 12.3609 6.88064 13.1271 8.07261 13.5283V17.658H6.74062C6.01418 17.658 5.35237 18.2199 5.27937 18.9964C5.19559 19.89 5.84663 20.6421 6.66163 20.6421H13.2606C13.987 20.6421 14.6488 20.0803 14.7218 19.3037C14.8044 18.4101 14.1546 17.658 13.3396 17.658H11.9286V13.5283C13.1206 13.1271 14.1605 12.3609 14.9432 11.3554C15.398 11.2513 15.8468 11.1189 16.28 10.9363C18.3277 10.0749 20.2389 8.046 19.9756 5.49643ZM1.94638 6.99557C1.56102 6.07629 1.70105 4.98471 2.3114 4.21586C2.6429 3.798 3.08091 3.53443 3.55603 3.34672V6.921C3.55603 7.641 3.66254 8.33271 3.85163 8.98457C3.03544 8.56929 2.3473 7.94957 1.94638 6.99557ZM18.0524 6.99557C17.6515 7.94957 16.9634 8.56929 16.1472 8.98586C16.3375 8.334 16.4428 7.641 16.4428 6.92229V3.348C16.9179 3.53443 17.3559 3.79929 17.6874 4.21714C18.2978 4.98472 18.4378 6.07629 18.0524 6.99557Z" fill="white"/>
</svg>
