<svg width="49" height="58" viewBox="0 0 49 58" fill="none" xmlns="http://www.w3.org/2000/svg">
<path fill-rule="evenodd" clip-rule="evenodd" d="M24.6053 1C35.579 1 44.4211 10.8031 44.4211 22.8988H38.2632C38.3422 14.5187 32.1843 7.71983 24.6053 7.71983C17.0264 7.71983 10.9474 14.5187 10.9474 22.8197H4.78955C4.78955 10.8031 13.6317 1 24.6053 1Z" stroke="#989898" stroke-width="0.9601" stroke-miterlimit="22.9256"/>
<path fill-rule="evenodd" clip-rule="evenodd" d="M24.6053 1C35.579 1 44.4211 10.8031 44.4211 22.8988H38.2632C38.3422 14.5187 32.1843 7.71983 24.6053 7.71983C17.0264 7.71983 10.9474 14.5187 10.9474 22.8197H4.78955C4.78955 10.8031 13.6317 1 24.6053 1Z" fill="#E5E5E5"/>
<path fill-rule="evenodd" clip-rule="evenodd" d="M24.6053 1C35.579 1 44.4211 10.8031 44.4211 22.8988H44.3422C43.3948 11.8308 34.9474 3.13454 24.6053 3.13454C14.2632 3.13454 5.81587 11.8308 4.8685 22.8988H4.78955C4.78955 10.8031 13.6317 1 24.6053 1Z" fill="white"/>
<path fill-rule="evenodd" clip-rule="evenodd" d="M44.3422 20.527C44.4211 21.3176 44.4211 22.1082 44.4211 22.8987H38.2632C38.3422 14.5187 32.1843 7.71982 24.6053 7.71982C17.0264 7.71982 10.9474 14.5187 10.9474 22.8197H4.78955C4.78955 22.0291 4.78955 21.2385 4.8685 20.448H10.8685C10.8685 12.0679 17.0264 5.34811 24.5264 5.34811C32.1053 5.34811 38.1843 12.147 38.1843 20.448H44.3422V20.527Z" fill="#CBCBCB"/>
<path d="M48.2895 22.3454H1V57.2094H48.2895V22.3454Z" stroke="#DBAF00" stroke-width="0.9601" stroke-miterlimit="22.9256"/>
<path fill-rule="evenodd" clip-rule="evenodd" d="M1 22.3454H48.2895V57.2094H1V22.3454Z" fill="#F6C500"/>
<path fill-rule="evenodd" clip-rule="evenodd" d="M5.02637 22.3454H44.2632V57.2094H5.02637V22.3454Z" fill="#FFD11F"/>
<path fill-rule="evenodd" clip-rule="evenodd" d="M14.5789 22.3454H34.6315V57.2094H14.5789V22.3454Z" fill="#FFE00F"/>
<path fill-rule="evenodd" clip-rule="evenodd" d="M24.5263 31.1997C27.6052 31.1997 30.1315 33.7296 30.1315 36.8128C30.1315 38.7892 29.1052 40.5284 27.6052 41.4771L28.5526 47.6436H20.1052L21.1315 41.319C19.7894 40.2913 18.842 38.6311 18.842 36.8128C18.921 33.7296 21.4473 31.1997 24.5263 31.1997Z" fill="#F6C500"/>
<path fill-rule="evenodd" clip-rule="evenodd" d="M24.5263 32.939C27.6052 32.939 30.1315 35.4688 30.1315 38.552C30.1315 40.5284 29.1052 42.2677 27.6052 43.2164L28.5526 48.5922V49.3828H20.1052V48.5922L21.1315 43.0582C19.7894 42.0305 18.842 40.3703 18.842 38.552C18.921 35.4688 21.4473 32.939 24.5263 32.939Z" fill="white"/>
<path fill-rule="evenodd" clip-rule="evenodd" d="M24.5263 32.1484C27.6052 32.1484 30.1315 34.6782 30.1315 37.7614C30.1315 39.7379 29.1052 41.4771 27.6052 42.4258L28.5526 48.5922H20.1052L21.1315 42.2677C19.7894 41.2399 18.842 39.5798 18.842 37.7614C18.921 34.6782 21.4473 32.1484 24.5263 32.1484Z" fill="#7A5500"/>
<path d="M48.2895 22.9778H1V23.6103H48.2895V22.9778Z" fill="white"/>
<path fill-rule="evenodd" clip-rule="evenodd" d="M24.5263 34.5992C26.7368 34.5992 28.4737 36.4175 28.4737 38.552C28.4737 39.896 27.7632 41.1609 26.7368 41.8724L27.3684 46.2205H21.3684L22.0789 41.7143C21.1316 41.0028 20.5 39.8169 20.5 38.552C20.5789 36.4175 22.3947 34.5992 24.5263 34.5992Z" fill="black"/>
</svg>
