<svg xmlns="http://www.w3.org/2000/svg" xmlns:xlink="http://www.w3.org/1999/xlink" viewBox="0 0 164 231"><defs><linearGradient id="linear-gradient" x1="82" y1="140.36" x2="82" y2="-90.64" gradientTransform="matrix(1, 0, 0, -1, 0, 140.36)" gradientUnits="userSpaceOnUse"><stop offset="0" stop-color="#00a9c5"/><stop offset="0.75" stop-color="#fff"/></linearGradient><mask id="mask" x="0" y="0.18" width="164" height="230.82" maskUnits="userSpaceOnUse"><g id="mask0_292_12492"><path d="M162.94,2.19a5.08,5.08,0,0,0-4.07-2H5.12A5.11,5.11,0,0,0,0,5.3V225.88A5.12,5.12,0,0,0,5.12,231H158.88a6.33,6.33,0,0,0,.76-.05,5.14,5.14,0,0,0,4.36-5.07V5.29A5.13,5.13,0,0,0,162.94,2.19Z" fill="#fff"/></g></mask></defs><g id="Layer_2"><g id="Layer_1-2" ><rect width="164" height="231" rx="5.19" fill="url(#linear-gradient)"/><g mask="url(#mask)"><path d="M164,116v30.18H110.8v-1.51c1.14-1.87,4.31-3.17,6.14-4.13s3.81.4,5.55-.59c.91-.52,1.34-1.44,2.22-1.93,1.77-1,3.06.49,4.9.37a7.55,7.55,0,0,0,4.6-2.19c.69-.15,1.32-.77,2-.92,1.05-.23,2.31.06,3.31-.22.84-.24,1-1.27,1.79-1.93.49-.43,1.44-.92,1.44-1.86s-1.17-2.14-1.38-3.2a13,13,0,0,0,3.74-3.28c.49-.52,1.48-.72,1.78-1.43s-.44-1.5-.14-2.29c.37-1,1.11-1,2-1.22,2.29-.51,3.64-.12,5.76.24,1.49.25,4.62-1.75,4.83-2a10.74,10.74,0,0,1,1.42-1.72A4.47,4.47,0,0,1,164,116Z" fill="#00a9c5"/><path d="M78.55,146H0V110.12a17.14,17.14,0,0,0,6.17-3.38c1.18-1.08,2.94.65,4.18,1.05s2.57,1,3.89,1.53c.73.3,1.69.39,2.11,1.15a6.23,6.23,0,0,1,.67,2.85,3.52,3.52,0,0,0,1.26,3.24,19.8,19.8,0,0,0,4.3,2.93c1.88.94,4.69,1.23,6.52,2.3a3.9,3.9,0,0,1,1.56,1.89,6,6,0,0,0,3.06,2.71c.54,1.18,1.69,2.16,2.26,3.34,1.05,2.19,3,3.4,5.32,4.25,1,.37,2,2.93,3,3.69.6.46,1.27,1.05,1.91,1.45,1.13.68,2.93.43,4.16.43a28,28,0,0,1,5.26,0c1.39.26,2,1.47,3.31,1.92a8,8,0,0,0,3.69.42c1.2-.11,2.38,0,3.58,0,.8,0,2.71.46,3.34.1s1.29.42,1.93.58a12.63,12.63,0,0,1,2.59.75C75.64,144.13,77,145.1,78.55,146Z" fill="#00a9c5"/></g><g mask="url(#mask)"><path d="M164,144.29v82.86c0,1.93-1.89,3.53-4.37,3.81a6.06,6.06,0,0,1-.75,0H5.12C2.29,231,0,229.28,0,227.15V144.29Z" fill="#00bfe6"/><path d="M118.6,149.79a104.39,104.39,0,0,0-11.33-.1.54.54,0,0,0,0,1.07,101.93,101.93,0,0,0,11.33-.1A.44.44,0,0,0,118.6,149.79Z" fill="#eee"/><path d="M160.31,149.43c-2.13-.15-4.21-.11-6.34-.05a.35.35,0,0,0,0,.69,61,61,0,0,0,6.34,0A.3.3,0,0,0,160.31,149.43Z" fill="#eee"/><path d="M139.41,152.11a64,64,0,0,0-12.68.1.32.32,0,0,0,0,.63,64,64,0,0,0,12.68.1A.42.42,0,0,0,139.41,152.11Z" fill="#eee"/><path d="M155.15,159.37a105.49,105.49,0,0,0-15,.07.19.19,0,0,0,0,.38,104,104,0,0,0,15,.08A.27.27,0,0,0,155.15,159.37Z" fill="#eee"/><path d="M23.63,158.26a103.89,103.89,0,0,0-15,.07.19.19,0,0,0,0,.38,102.47,102.47,0,0,0,15,.07A.26.26,0,0,0,23.63,158.26Z" fill="#eee"/><path d="M95.44,182.54c-8.18-.28-16.39-.36-24.57,0a.35.35,0,0,0,0,.7c8.18.31,16.39.24,24.57,0A.31.31,0,0,0,95.44,182.54Z" fill="#eee"/><path d="M34.77,170.9c-8.18-.28-16.39-.36-24.57,0a.35.35,0,0,0,0,.69c8.18.32,16.39.24,24.57,0A.31.31,0,0,0,34.77,170.9Z" fill="#eee"/><path d="M42.59,164.45a64.88,64.88,0,0,0-8.25,0,.32.32,0,0,0,0,.64,64.88,64.88,0,0,0,8.25,0A.27.27,0,0,0,42.59,164.45Z" fill="#eee"/><path d="M62.25,158.64c-3-.17-6-.13-9-.09a.31.31,0,0,0,0,.61c3,.05,6,.09,9-.08A.22.22,0,0,0,62.25,158.64Z" fill="#eee"/><path d="M44,149.11A79.91,79.91,0,0,0,33.06,149a.37.37,0,0,0,0,.73A79.91,79.91,0,0,0,44,149.54.22.22,0,0,0,44,149.11Z" fill="#eee"/><path d="M7.59,151.86a11.07,11.07,0,0,0-3.35,0,.3.3,0,0,0,0,.59,11.75,11.75,0,0,0,3.35,0A.3.3,0,0,0,7.59,151.86Z" fill="#eee"/><path d="M43,182.31a83.43,83.43,0,0,0-14.4,0,.18.18,0,0,0,0,.36,84.45,84.45,0,0,0,14.4,0A.16.16,0,0,0,43,182.31Z" fill="#eee"/><path d="M58.38,192.46c-3-.16-5.88-.24-8.83-.25a.53.53,0,0,0,0,1.06c3,0,5.88-.1,8.83-.25A.28.28,0,0,0,58.38,192.46Z" fill="#eee"/><path d="M139,171.6a156.61,156.61,0,0,0-19-.18.35.35,0,0,0,0,.69,156.62,156.62,0,0,0,19-.17A.17.17,0,0,0,139,171.6Z" fill="#eee"/><path d="M159.43,177.65a49.3,49.3,0,0,0-8.06,0,.37.37,0,0,0,0,.74,48.21,48.21,0,0,0,8.06,0A.37.37,0,0,0,159.43,177.65Z" fill="#eee"/><path d="M119.38,164.73a24,24,0,0,0-7,.05.38.38,0,0,0,0,.75,25.09,25.09,0,0,0,7,.05A.45.45,0,0,0,119.38,164.73Z" fill="#eee"/></g><g mask="url(#mask)"><path d="M126.34,211.57V231H5.12A5.12,5.12,0,0,1,0,225.88V192.21C32.68,194.45,95,202,126.34,211.57Z" fill="#ffd199"/><path d="M164,192.14v33.74a5.13,5.13,0,0,1-4.37,5.07,6,6,0,0,1-.75.05H5.12A5.12,5.12,0,0,1,0,225.88V207.77C38.36,202.28,114.76,192.64,164,192.14Z" fill="#faa863"/><path d="M164,213.91v12a5.13,5.13,0,0,1-4.37,5.07,6,6,0,0,1-.75.05H5.12A5.12,5.12,0,0,1,0,225.87v-5.7C26.78,216.79,120.24,206,164,213.91Z" fill="#e28d4d"/></g><g mask="url(#mask)"><path d="M164,64.64V103.4H116.84c-1.32-4.75.28-11.07,4.41-13.75a12.05,12.05,0,0,1,13.81.79,5.85,5.85,0,0,1,3.53-3.34,5.51,5.51,0,0,1,4.64,1c-1-3.74,0-8.59,2.67-11.36a11.57,11.57,0,0,1,10.62-3.16,8.39,8.39,0,0,1,3.32-7A11.25,11.25,0,0,1,164,64.64Z" fill="#fff"/><path d="M32.65,76H0V49.64a14.65,14.65,0,0,1,6,6.47,4.29,4.29,0,0,1,4-.75,4.18,4.18,0,0,1,2.56,3.11,6.2,6.2,0,0,1,6.28.82,7,7,0,0,1,2.43,6.29c2.52-1.58,6-.63,8.11,1.48S32.12,73.13,32.65,76Z" fill="#fff"/></g><g mask="url(#mask)"><path d="M105.07,107.86s3.49-3.25,5.58.86c0,0,1.95-4.64,5.74-1,0,0-4.72-.68-5.65,2.81C110.73,110.5,108.63,106.09,105.07,107.86Z" fill="#00516d"/></g><g mask="url(#mask)"><path d="M100.6,89.22s-2.66-2.49-4.25.65c0,0-1.48-3.53-4.38-.8,0,0,3.61-.5,4.32,2.15C96.29,91.23,97.89,87.85,100.6,89.22Z" fill="#00516d"/></g><g mask="url(#mask)"><path d="M32.65,95s-2.66-2.48-4.25.65c0,0-1.47-3.52-4.37-.79,0,0,3.6-.51,4.31,2.15C28.34,97,29.94,93.63,32.65,95Z" fill="#00516d"/></g><g mask="url(#mask)"><path d="M43.79,72.18s4.32-4,6.91,1c0,0,2.41-5.73,7.11-1.29,0,0-5.86-.82-7,3.5C50.8,75.44,48.21,70,43.79,72.18Z" fill="#00516d"/></g><g mask="url(#mask)"><path d="M90.23,31.07s0-.05,0-.08a8.45,8.45,0,0,0-.59-7.3C87.37,19.76,81.44,18,77.8,20.32,75,22.1,73,27.32,73.94,31.07Z" fill="#fff700"/><path d="M70.65,27.75c-1.32-.64-3-.5-4.46-.52s-3.37-.34-4.79.25a.77.77,0,0,0,0,1.48c1.42.58,3.29.27,4.79.24s3.14.12,4.46-.51A.55.55,0,0,0,70.65,27.75Z" fill="#fff700"/><path d="M103,27.52c-1.07-.83-2.64-.53-3.92-.5a28.21,28.21,0,0,0-4.5.22.74.74,0,0,0,0,1.41,26.05,26.05,0,0,0,4.5.22c1.28,0,2.85.33,3.92-.51A.6.6,0,0,0,103,27.52Z" fill="#fff700"/><path d="M83.26,9.53a.67.67,0,0,0-1.27,0,9.93,9.93,0,0,0-.23,3.65,15.67,15.67,0,0,0,.37,3.62.52.52,0,0,0,1,0,15.67,15.67,0,0,0,.37-3.62A9.73,9.73,0,0,0,83.26,9.53Z" fill="#fff700"/><path d="M92,14.41a30.91,30.91,0,0,0-4,3,.45.45,0,0,0,.54.7,29.89,29.89,0,0,0,4-2.75C93.15,15,92.56,14,92,14.41Z" fill="#fff700"/><path d="M97.23,19.42a11.92,11.92,0,0,0-3.78,2.22c-.57.44.2,1.44.77,1a31.61,31.61,0,0,1,3.49-2.06A.64.64,0,0,0,97.23,19.42Z" fill="#fff700"/><path d="M71.46,21.25c-.81-.45-1.6-.89-2.42-1.32a9.57,9.57,0,0,0-2.3-1.11c-.48-.1-.93.51-.51.89A9.38,9.38,0,0,0,68.43,21l2.48,1.22C71.53,22.49,72.08,21.6,71.46,21.25Z" fill="#fff700"/><path d="M75.73,17.54c-.19-.94-1.1-1.68-1.71-2.36-.76-.83-1.51-1.7-2.31-2.49a.74.74,0,0,0-1,1c.75.84,1.56,1.64,2.37,2.43.65.65,1.34,1.59,2.27,1.82A.36.36,0,0,0,75.73,17.54Z" fill="#fff700"/></g><path d="M164,83.6a107.79,107.79,0,0,1-8.3-15.34l4,4.84.44-2.84L164,76.93l0-.23V56.54a41.94,41.94,0,0,0-7,4.55l7-7.31v-.3l-2.25.68L164,52.37V51l-.65.13.65-.41V41.52c-12.23,4.23-12.28,16.35-11.68,21.59l-.21-.24h0C149,59.45,133.79,44.75,118.44,66c-.49.66-1,1.37-1.46,2.11l7.7-4.08-2,2.42,6.48-2.91-3,2.65,8.57-3.13-2.28,2,5.66-1.37-2.26,1.59,5.31-.55c-10.52,1.66-25.26,5.57-31.22,14.68a16.59,16.59,0,0,0-2,4.33l9.44-6.2-1.21,6.07,5.21-6.21.38,5.47,4.9-6.92,0,4,3.36-4.79.86,3.14,3-5.49,1.6,4.57,2.6-5.74.62,2.23L140,72.9c-5.48,6.26-9.51,15.73-4.42,28.88L137,95.62l3.2,3.18-1-5.69,4.77,2.37-2.32-6.12,3.16,1.25-1.62-5.87,3,.91-1.6-5.39,3.76,1.18L147,76.83l3.44,2.09-1.52-5.51,3.81,2.69-1.89-6.85,3.65,3.4-.15-1.14A176.22,176.22,0,0,0,164,91.14Z" fill="#00516d"/><path d="M57.33,32.83c-8-7.4-23.23-7.63-33.84-6.69l5.29-.75-2.58-1L32,24.34,29.33,23l9.08,1-3.54-1.83,7,1.24L39.33,21.5l8.46,2.1c-.65-.61-1.29-1.18-1.92-1.7C25.82,5,14.63,22.94,12.46,27h0c-.05.1-.11.19-.15.28C11.7,22.71,9.32,13.06,0,10V20.45l1,.45-1,0v1l7.26,4.58A42.55,42.55,0,0,0,0,23.88v8l.93-.58-.31.92c-.21.11-.41.24-.62.36v9.3l1.56,1.61,1-4.81,1.72,4.89,2.17-7.41,1.13,2.65,2.65-5.64A117.47,117.47,0,0,1,0,64.43V79.49A184.89,184.89,0,0,0,12.44,35.93l.13,1.16,2.71-4.19L15.11,40l3-3.54L18,42.17l2.83-2.85-.23,4.79,3.36-2-.24,5.61,2.71-1.62-.15,6.1,2.76-2-.77,6.5,4.05-3.46L32.71,59,35,55.13l2.86,5.65c1.74-14-4.46-22.21-11.29-26.95L28,34.4l.06-2.31L32,37l.45-4.83,4.23,4.6.08-3.25,4.42,3.83-.92-3.87L46.69,39l-.95-5.4,6.56,4.77-2.64-5.59,10.66,3.72A15.82,15.82,0,0,0,57.33,32.83Z" fill="#00516d"/><path d="M160.84,230.59a5.19,5.19,0,0,0,3.16-4.78V198.13l-3.77,6.55s.59-5.39,1.42-10.4a58.62,58.62,0,0,0-6.11-6.69l-2.37,8.81L153,185.19c-2.31-2.19-4-3.65-6.19-5.44l-1.05,5.8L144.49,178a107.51,107.51,0,0,0-9.65-7s.18,6.55.85,13l7,4.29L136.28,187a52.18,52.18,0,0,0,1.37,8.07l8.34,4.41-7.55-.52a50.51,50.51,0,0,0,2,6.75l8.44,3.88-7.26-.42q.87,2.21,1.92,4.28l9.23,2-7.43,1.27c1.23,2.31,1.23,1.92,2.81,3.76.49.57,1,1.12,1.47,1.64l7.14,1.41-5.33,1A52.33,52.33,0,0,0,160.84,230.59Z" fill="#4c8206"/><path d="M22.69,207.25l1.06-4.16c-2,.52-3.55,1-5.74,1.73L14.5,212.2l1.08-6.54a43,43,0,0,0-6.05,2.59c-1,3.57-2.19,7.31-2.19,7.31l-.56-5.84A29.42,29.42,0,0,0,0,215v10.84A5.19,5.19,0,0,0,5.19,231H6.71l-2.77-1.92,5.15,1.22,1.47-.65a9.49,9.49,0,0,0,3-1.64L9,224.93l6.73,1.43c.87-.71,1.72-1.47,2.56-2.26l-5-1.91,6.76,0a35.5,35.5,0,0,0,3.39-3.85l-5.16-1.93,6.85-.4A38.62,38.62,0,0,0,28.54,211L23.93,210l5.92-.74c2.38-4.07,4.48-8.35,4.48-8.35a79.07,79.07,0,0,0-8.52,1.74Z" fill="#84b82f"/><path d="M158.63,221.75l-1.21,2.75-.26-5.24c-.22-.36,0,0-.24-.38a29.8,29.8,0,0,0-6-6.41l-1.48,5.67s-.62-3.89-1-7.57a43,43,0,0,0-5.58-3.52l0,6.64-2.28-7.85c-2-1.09-3.5-1.78-5.38-2.63l.38,4.27-2.33-5.08a78,78,0,0,0-8.14-3.09s1.39,4.56,3.09,8.95l5.72,1.68-4.72.34a37.24,37.24,0,0,0,2.52,5.4l6.7,1.49-5.4,1.09a35.15,35.15,0,0,0,2.72,4.34l6.67,1.11-5.18,1.09c.69.92,1.42,1.8,2.17,2.63l6.87-.34-5,2.31a6.62,6.62,0,0,0,1.92,1.6h15.57a5.16,5.16,0,0,0,3-1A28.27,28.27,0,0,0,158.63,221.75Z" fill="#84b82f"/><path d="M17.75,221.59A25,25,0,0,0,0,220.19v1.95A32.17,32.17,0,0,0,17.75,221.59Z" fill="#4c8206"/><path d="M15.94,185.57c.8-1.21,1.52-2.28,2.15-3.22A12.15,12.15,0,0,0,27,182a16.17,16.17,0,0,0-8.62,0l1-1.51a12.13,12.13,0,0,0,5.4-7,15.76,15.76,0,0,0-5.72,6.88l-.64.82a15.6,15.6,0,0,0-.76-8.18,12.12,12.12,0,0,0,.25,8.86c-.11.13-.21.27-.31.41h0c-.66.89-1.42,1.93-2.24,3.1-.1.12-.18.26-.27.38a12.73,12.73,0,0,0-3-8.59,9.92,9.92,0,0,0,2.54,9.22c-.18.25-.36.49-.53.75-.42.61-.84,1.26-1.28,1.93-.84,1.25-1.67,2.6-2.55,4a25,25,0,0,0-3.66-13.78,19.26,19.26,0,0,0,3,14.86c-1.06,1.79-2.15,3.67-3.22,5.63a22,22,0,0,0-6.45-12v4.89a27.29,27.29,0,0,0,5.88,8.16c-.45.83-.9,1.69-1.34,2.54-1,1.91-1.86,3.77-2.66,5.56A25.26,25.26,0,0,0,0,201.19v6.9c.47.56,1,1.1,1.47,1.62C.94,210.89.45,212,0,213.12v2.51l.59-1.42A34,34,0,0,0,21.52,212a26,26,0,0,0-20.7,1.67l.27-.67c1.18-2.71,2.54-5.69,4.1-8.82a28.61,28.61,0,0,0,17.27.55,21.81,21.81,0,0,0-16.9-1.3l.1-.19c.32-.62.64-1.24,1-1.84l0,0s0-.06,0-.09q1.39-2.67,2.81-5.16A19.24,19.24,0,0,0,24.81,196a25.71,25.71,0,0,0-15-.46l1.2-2.08c.9-1.48,1.74-2.92,2.58-4.23.18-.27.34-.53.51-.8a16,16,0,0,0,12.56,1.29,21.09,21.09,0,0,0-12.43-1.51c.19-.3.37-.6.56-.89Z" fill="#4c8206"/><path d="M38.44,218.62a9.33,9.33,0,0,0-4.7,1.26l-.54.16a8.51,8.51,0,0,0,2.18-3.89,6.59,6.59,0,0,0-2.61,4l-.27.09h0c-.57.2-1.23.42-1.95.69l-.24.09a6.81,6.81,0,0,0,1.32-4.74,5.39,5.39,0,0,0-1.7,4.89l-.47.17-1.16.47c-.77.3-1.55.65-2.38,1a13.61,13.61,0,0,0,2.61-7.28,10.35,10.35,0,0,0-3.23,7.56c-1,.47-2.09,1-3.17,1.52a11.88,11.88,0,0,0,.36-8.94,15.71,15.71,0,0,0-.94,9.23c-.47.24-.92.49-1.38.74-1,.55-2,1.11-2.9,1.66a14.12,14.12,0,0,0,1.22-11,18.67,18.67,0,0,0-1.69,11.24c-.62.38-1.21.75-1.76,1.11l-1.24.84a14.1,14.1,0,0,0-.88-10.91,18.75,18.75,0,0,0,.4,11.24l-.34.24-.89.65-.24.19h.77l0,0,.92-.62c.44-.31.94-.63,1.46-1A19.21,19.21,0,0,0,16.8,231h3.92a14.08,14.08,0,0,0-5.43-1.78l.33-.21c1.37-.85,2.88-1.76,4.55-2.67A16.06,16.06,0,0,0,25.58,231h1.61a11.91,11.91,0,0,0-6.62-4.89l.09-.05,1-.53a0,0,0,0,1,0,0s0,0,0,0c1-.5,1.92-1,2.85-1.43a10.5,10.5,0,0,0,6.91,4.64,14,14,0,0,0-6.55-4.82c.41-.18.8-.38,1.18-.56.87-.38,1.67-.76,2.46-1.09.16-.07.32-.13.47-.21a8.64,8.64,0,0,0,5.21,4.44A11.46,11.46,0,0,0,29.14,222l.53-.23,1-.43,2-.77a6.61,6.61,0,0,0,4.11,2.57A8.77,8.77,0,0,0,33,220.46l.92-.36A6.58,6.58,0,0,0,38.44,218.62Z" fill="#4c8206"/><path d="M8.7,223.45A15,15,0,0,0,9.76,231h1A11.09,11.09,0,0,0,8.7,223.45Z" fill="#4c8206"/><path d="M145.13,231h1.45a17.59,17.59,0,0,0,.95-8.08A12.92,12.92,0,0,0,145.13,231Z" fill="#4c8206"/><path d="M141.85,231l.05,0h.95l-.33-.24-.39-.28a21.85,21.85,0,0,0,.47-13.1,16.45,16.45,0,0,0-1,12.71l-1.43-1c-.65-.42-1.33-.85-2-1.29a21.89,21.89,0,0,0-2-13.1,16.4,16.4,0,0,0,1.42,12.77c-1.06-.64-2.19-1.29-3.38-1.94-.53-.29-1.07-.58-1.61-.84a18.37,18.37,0,0,0-1.09-10.78,13.87,13.87,0,0,0,.42,10.44c-1.26-.64-2.51-1.23-3.69-1.78a12.18,12.18,0,0,0-3.77-8.81,15.74,15.74,0,0,0,3,8.48c-1-.42-1.88-.82-2.77-1.18l-1.36-.54-.55-.21a6.27,6.27,0,0,0-2-5.7,7.93,7.93,0,0,0,1.54,5.53l-.28-.11c-.85-.31-1.61-.58-2.28-.8h0l-.31-.11a7.64,7.64,0,0,0-3-4.69A10,10,0,0,0,119,219l-.63-.2a10,10,0,0,0-5.44-1.52,7.74,7.74,0,0,0,5.34,1.73l1.07.42a10.39,10.39,0,0,0-4.47,3.12,7.67,7.67,0,0,0,4.79-3c.66.25,1.43.55,2.27.91.4.15.8.32,1.23.5l.61.26a13.31,13.31,0,0,0-5.92,5.24,10,10,0,0,0,6.06-5.17l.55.24c.91.38,1.86.82,2.86,1.28.45.2.91.42,1.37.65a16.27,16.27,0,0,0-7.63,5.61,12.19,12.19,0,0,0,8-5.42c1.09.53,2.19,1.09,3.32,1.68l0,0a0,0,0,0,1,0,0l1.17.61.11.07a13.94,13.94,0,0,0-7.2,5h2.61a18.94,18.94,0,0,0,5.05-4.73c1.93,1.08,3.72,2.13,5.3,3.12.12.08.26.16.38.25a15.94,15.94,0,0,0-4.94,1.36h4.05c.42-.37.82-.76,1.21-1.16C140.75,230.23,141.33,230.6,141.85,231Z" fill="#4c8206"/></g></g></svg>