<svg width="45" height="45" viewBox="0 0 45 45" fill="none" xmlns="http://www.w3.org/2000/svg">

    <defs>
        <linearGradient id="paint0_linear_560_9231" x1="22.5" y1="28.9695" x2="22.5" y2="6.08824" gradientUnits="userSpaceOnUse">
            <stop stop-color="white" stop-opacity="0"/>
            <stop offset="1" stop-color="white"/>
        </linearGradient>
        <clipPath id="clip0_560_9231">
            <rect width="45" height="45" fill="white"/>
        </clipPath>
    </defs>
<g clip-path="url(#clip0_560_9231)">
<path d="M22.5 45C34.9264 45 45 34.9264 45 22.5C45 10.0736 34.9264 0 22.5 0C10.0736 0 0 10.0736 0 22.5C0 34.9264 10.0736 45 22.5 45Z" fill="white"/>
<path d="M22.4999 41.7857C33.1512 41.7857 41.7857 33.1512 41.7857 22.5C41.7857 11.8488 33.1512 3.21429 22.4999 3.21429C11.8487 3.21429 3.21423 11.8488 3.21423 22.5C3.21423 33.1512 11.8487 41.7857 22.4999 41.7857Z" fill="#31A442"/>
<g opacity="0.1">
<path d="M22.4999 40.1271C32.2351 40.1271 40.1271 32.2352 40.1271 22.5C40.1271 12.7648 32.2351 4.87286 22.4999 4.87286C12.7647 4.87286 4.8728 12.7648 4.8728 22.5C4.8728 32.2352 12.7647 40.1271 22.4999 40.1271Z" fill="white"/>
</g>
<g opacity="0.5">
<path d="M38.6743 22.2686C38.6743 31.2043 6.31287 31.2043 6.31287 22.2686C6.31287 13.3329 13.5643 6.0943 22.5 6.0943C31.4357 6.0943 38.6743 13.3329 38.6743 22.2686Z" fill="url(#paint0_linear_560_9231)"/>
</g>
<path d="M18.6814 9.48856C18.6942 11.2628 17.3057 11.3271 15.7885 12.5357C14.1557 13.8343 12.4585 15.4543 11.3271 14.3486C10.2342 13.2814 11.9957 10.71 14.6057 9.19284C16.2385 8.24141 18.6685 8.00999 18.6814 9.48856Z" fill="white"/>
<path d="M9.38569 15.3257C10.4143 14.8114 11.7514 16.5728 11.1986 17.55C10.6457 18.5271 8.69141 18.6686 8.40855 17.6914C8.12569 16.7143 8.54998 15.75 9.38569 15.3257Z" fill="white"/>
<path d="M31.7133 25.5052C32.2466 26.8385 32.0333 28.1319 31.1666 28.9585C29.1133 30.9052 24.14 31.0519 22.6733 31.0519C21.2066 31.0519 16.2333 30.9052 14.18 28.9585C13.62 28.4385 13.34 27.7185 13.34 26.9319C13.34 26.4785 13.4333 25.9852 13.6333 25.5052C14.3266 23.7719 16.22 22.0385 19.14 21.2385C18.1533 20.3052 17.54 18.9852 17.54 17.5185C17.54 14.6919 19.8466 12.3852 22.6733 12.3852C25.5 12.3852 27.8066 14.6919 27.8066 17.5185C27.8066 18.9852 27.1933 20.3052 26.2066 21.2385C29.14 22.0385 31.0333 23.7719 31.7133 25.5052Z" fill="white"/>
</g>
</svg>
