<svg width="45" height="45" viewBox="0 0 45 45" fill="none" xmlns="http://www.w3.org/2000/svg">

    <defs>
        <linearGradient id="paint0_linear_487_8636" x1="22.5" y1="30.3936" x2="22.5" y2="5.68821" gradientUnits="userSpaceOnUse">
            <stop stop-color="white" stop-opacity="0"/>
            <stop offset="1" stop-color="white"/>
        </linearGradient>
        <clipPath id="clip0_487_8636">
            <rect width="45" height="45" fill="white"/>
        </clipPath>
    </defs>
<g clip-path="url(#clip0_487_8636)">
<path d="M29.9996 45L15.0004 45C6.71529 45 1.92941e-08 38.2847 1.51187e-08 29.9996L7.55965e-09 15.0004C3.38425e-09 6.71529 6.71529 -3.38425e-09 15.0004 -7.55965e-09L30.0009 -1.51193e-08C38.2847 -1.92941e-08 45 6.71529 45 15.0004L45 30.0009C45 38.2847 38.2847 45 29.9996 45Z" fill="white"/>
<path d="M28.9285 41.7857L16.0714 41.7857C8.97038 41.7857 3.21423 36.0296 3.21423 28.9286L3.21423 16.0714C3.21423 8.97044 8.97038 3.21429 16.0714 3.21429L28.9285 3.21429C36.0295 3.21429 41.7857 8.97044 41.7857 16.0714L41.7857 28.9286C41.7857 36.0296 36.0295 41.7857 28.9285 41.7857Z" fill="#31A442"/>
<g opacity="0.1">
<path d="M28.4593 40.3791L16.5395 40.3791C9.95663 40.3791 4.61963 35.0421 4.61963 28.4593L4.61963 16.5394C4.61963 9.95657 9.95663 4.61957 16.5395 4.61957L28.4593 4.61957C35.0422 4.61957 40.3792 9.95657 40.3792 16.5394L40.3792 28.4593C40.3792 35.0421 35.0422 40.3791 28.4593 40.3791Z" fill="white"/>
</g>
<g opacity="0.5">
<path d="M31.8626 30.393L13.1374 30.393C9.19287 30.393 5.99658 27.1954 5.99658 23.2521L5.99658 16.4173C5.99658 10.4914 10.8 5.68799 16.7259 5.68799L28.2742 5.68799C34.2 5.68799 39.0034 10.4914 39.0034 16.4173L39.0034 23.2521C39.0034 27.1967 35.8059 30.393 31.8626 30.393Z" fill="url(#paint0_linear_487_8636)"/>
</g>
<path d="M18.1247 7.87113C17.8071 9.61199 16.4263 9.42556 14.715 10.3256C12.8623 11.2988 10.8977 12.5678 9.99897 11.2783C9.12854 10.0273 11.331 7.82099 14.184 6.82199C15.9673 6.19842 18.3883 6.42213 18.1247 7.87113Z" fill="white"/>
<path d="M7.9843 12.6128C8.94859 11.9893 10.4747 13.6003 10.0273 14.6301C9.57988 15.66 7.65773 16.0123 7.2733 15.0737C6.89016 14.1338 7.19873 13.1194 7.9843 12.6128Z" fill="white"/>
<path d="M9 23C9.00133 23.0139 9.00133 23.0262 9.00399 23.04C9.00533 23.0662 9.00266 23.0923 9.01065 23.117C9.45534 24.5006 17.2841 31.8374 19.6087 31.9959C21.9334 32.1545 21.5912 27.6126 21.5912 27.6126C22.2063 26.9801 30.8219 29.9136 32.5314 29.281C33.5899 28.8885 34 25.6426 34 23C34 20.3574 33.5899 17.1115 32.5314 16.719C30.8219 16.0864 22.2063 19.0199 21.5912 18.3874C21.5912 18.3874 21.9334 13.8455 19.6087 14.0041C17.2841 14.1626 9.45401 21.4994 9.01065 22.883C9.00266 22.9077 9.00533 22.9338 9.00399 22.96C9.00133 22.9738 9.00133 22.9877 9 23Z" fill="white"/>
</g>
</svg>
