<svg width="45" height="45" viewBox="0 0 45 45" fill="none" xmlns="http://www.w3.org/2000/svg">
    <defs>
        <linearGradient id="paint0_linear_1358_21278" x1="22.5" y1="28.9695" x2="22.5" y2="6.0882" gradientUnits="userSpaceOnUse">
            <stop stop-color="white" stop-opacity="0"/>
            <stop offset="1" stop-color="white"/>
        </linearGradient>
        <clipPath id="clip0_1358_21278">
            <rect width="45" height="45" fill="white"/>
        </clipPath>
    </defs>
<g clip-path="url(#clip0_1358_21278)">
<path d="M22.5 45C34.9264 45 45 34.9264 45 22.5C45 10.0736 34.9264 0 22.5 0C10.0736 0 0 10.0736 0 22.5C0 34.9264 10.0736 45 22.5 45Z" fill="white"/>
<path d="M22.4999 41.7857C33.1512 41.7857 41.7857 33.1512 41.7857 22.5C41.7857 11.8488 33.1512 3.21429 22.4999 3.21429C11.8487 3.21429 3.21423 11.8488 3.21423 22.5C3.21423 33.1512 11.8487 41.7857 22.4999 41.7857Z" fill="#29ABE2"/>
<g opacity="0.1">
<path d="M22.5001 40.122C32.2324 40.122 40.1221 32.2324 40.1221 22.5C40.1221 12.7676 32.2324 4.87799 22.5001 4.87799C12.7677 4.87799 4.87805 12.7676 4.87805 22.5C4.87805 32.2324 12.7677 40.122 22.5001 40.122Z" fill="white"/>
</g>
<g opacity="0.5">
<path d="M38.6794 22.2673C38.6794 31.203 6.32056 31.203 6.32056 22.2673C6.32056 13.3315 13.5643 6.08783 22.5 6.08783C31.4357 6.08783 38.6794 13.3315 38.6794 22.2673Z" fill="url(#paint0_linear_1358_21278)"/>
</g>
<path d="M18.675 9.486C18.6879 11.2551 17.2955 11.3297 15.7822 12.5319C14.1442 13.833 12.4496 15.4453 11.3272 14.346C10.2382 13.2801 11.9919 10.7023 14.6083 9.189C16.2438 8.24528 18.6635 8.01257 18.675 9.486Z" fill="white"/>
<path d="M9.38571 15.3283C10.413 14.814 11.754 16.5819 11.196 17.5564C10.638 18.531 8.68885 18.6712 8.40985 17.6953C8.13214 16.7207 8.55 15.7462 9.38571 15.3283Z" fill="white"/>
</g>
<path d="M28 12H16C14.9 12 14 12.9 14 14V30C14 31.1 14.9 32 16 32H28C29.1 32 30 31.1 30 30V14C30 12.9 29.1 12 28 12ZM16 14H21V22L18.5 20.5L16 22V14Z" fill="white"/>

</svg>
