<svg width="45" height="45" viewBox="0 0 45 45" fill="none" xmlns="http://www.w3.org/2000/svg">

    <defs>
        <linearGradient id="paint0_linear_294_21747" x1="22.5" y1="28.9695" x2="22.5" y2="6.08823" gradientUnits="userSpaceOnUse">
            <stop stop-color="white" stop-opacity="0"/>
            <stop offset="1" stop-color="white"/>
        </linearGradient>
        <clipPath id="clip0_294_21747">
            <rect width="45" height="45" fill="white"/>
        </clipPath>
    </defs>
<g clip-path="url(#clip0_294_21747)">
<path d="M22.5 45C34.9264 45 45 34.9264 45 22.5C45 10.0736 34.9264 0 22.5 0C10.0736 0 0 10.0736 0 22.5C0 34.9264 10.0736 45 22.5 45Z" fill="white"/>
<path d="M22.4999 41.7857C33.1512 41.7857 41.7857 33.1512 41.7857 22.5C41.7857 11.8488 33.1512 3.21429 22.4999 3.21429C11.8487 3.21429 3.21423 11.8488 3.21423 22.5C3.21423 33.1512 11.8487 41.7857 22.4999 41.7857Z" fill="#D75C32"/>
<g opacity="0.1">
<path d="M22.5001 40.122C32.2324 40.122 40.1221 32.2324 40.1221 22.5C40.1221 12.7676 32.2324 4.87799 22.5001 4.87799C12.7677 4.87799 4.87805 12.7676 4.87805 22.5C4.87805 32.2324 12.7677 40.122 22.5001 40.122Z" fill="white"/>
</g>
<g opacity="0.5">
<path d="M38.6794 22.2673C38.6794 31.203 6.32056 31.203 6.32056 22.2673C6.32056 13.3316 13.5643 6.08786 22.5 6.08786C31.4357 6.08786 38.6794 13.3316 38.6794 22.2673Z" fill="url(#paint0_linear_294_21747)"/>
</g>
<path d="M18.675 9.486C18.6879 11.2551 17.2955 11.3297 15.7822 12.5319C14.1442 13.833 12.4496 15.4453 11.3272 14.346C10.2382 13.2801 11.9919 10.7023 14.6083 9.189C16.2438 8.24528 18.6635 8.01257 18.675 9.486Z" fill="white"/>
<path d="M9.38571 15.3283C10.413 14.814 11.754 16.5818 11.196 17.5564C10.638 18.531 8.68885 18.6711 8.40985 17.6953C8.13214 16.7207 8.55 15.7461 9.38571 15.3283Z" fill="white"/>
<path d="M32.1401 29.0411C32.2494 29.6424 31.9854 30.3317 31.4294 30.8864C30.9574 31.3584 30.3867 31.6224 29.8561 31.6224C29.7627 31.6224 29.6721 31.6144 29.5814 31.5984C28.5601 31.4104 27.4481 30.2397 26.6641 29.2424C26.2081 29.5637 25.7787 29.7984 25.4281 29.8917C25.2641 29.9344 25.1161 29.9531 24.9827 29.9531C24.5294 29.9531 24.2401 29.7437 24.0907 29.5944C23.9427 29.4464 23.7321 29.1557 23.7321 28.7024C23.7321 28.5677 23.7507 28.4184 23.7947 28.2557C23.8641 27.9984 24.0081 27.6971 24.2094 27.3731L22.7174 26.1811L21.3587 27.2691C21.9441 28.2371 21.9827 28.9824 21.4694 29.4957C21.2307 29.7357 20.9401 29.8557 20.6001 29.8557C20.1814 29.8557 19.6881 29.6731 19.1201 29.3104C18.3347 30.3157 17.2094 31.5091 16.1787 31.6984C16.0894 31.7157 15.9961 31.7224 15.9027 31.7224C15.3734 31.7224 14.8041 31.4597 14.3307 30.9877C13.7747 30.4317 13.5094 29.7411 13.6201 29.1411C13.8067 28.1251 14.9694 27.0171 15.9654 26.2331C15.1641 25.0904 15.0481 24.2251 15.6227 23.6517C15.8614 23.4131 16.1521 23.2917 16.4907 23.2917C16.8787 23.2917 17.3334 23.4477 17.8494 23.7624L18.5681 22.8637L13.8441 19.0851C13.6241 18.9077 13.4934 18.6397 13.4934 18.3557V14.0904C13.4934 13.5744 13.9107 13.1571 14.4267 13.1571H18.6934C18.9774 13.1571 19.2441 13.2851 19.4214 13.5077L22.7374 17.6517L26.1361 13.4064C26.3134 13.1851 26.5814 13.0557 26.8654 13.0557H31.1321C31.6467 13.0557 32.0654 13.4731 32.0654 13.9891V18.2544C32.0654 18.5384 31.9361 18.8064 31.7147 18.9837L26.8934 22.8411L27.7161 23.8691C28.0387 23.6691 28.3401 23.5237 28.5987 23.4544C29.3147 23.2624 29.7441 23.5571 29.9387 23.7504C30.1307 23.9424 30.4267 24.3731 30.2334 25.0891C30.1561 25.3784 29.9827 25.7224 29.7427 26.0917C30.7494 26.8771 31.9494 28.0064 32.1401 29.0411Z" fill="white"/>
</g>
</svg>
