<svg width="45" height="45" viewBox="0 0 45 45" fill="none" xmlns="http://www.w3.org/2000/svg">

    <defs>
        <linearGradient id="paint0_linear_1426_21505" x1="22.5" y1="30.3936" x2="22.5" y2="5.68821" gradientUnits="userSpaceOnUse">
            <stop stop-color="white" stop-opacity="0"/>
            <stop offset="1" stop-color="white"/>
        </linearGradient>
        <clipPath id="clip0_1426_21505">
            <rect width="45" height="45" fill="white" transform="matrix(-1 -5.03962e-10 -5.03962e-10 1 45 0)"/>
        </clipPath>
    </defs>
<g clip-path="url(#clip0_1426_21505)">

<path d="M15.0004 45L29.9996 45C38.2847 45 45 38.2847 45 29.9996L45 15.0004C45 6.71529 38.2847 -3.38425e-09 29.9996 -7.55965e-09L14.9991 -1.51193e-08C6.71528 -1.92941e-08 -2.53658e-06 6.71529 -2.54076e-06 15.0004L-2.54832e-06 30.0009C-2.55249e-06 38.2847 6.71528 45 15.0004 45Z" fill="white"/>
<path d="M16.0715 41.7857L28.9286 41.7857C36.0296 41.7857 41.7858 36.0296 41.7858 28.9286L41.7858 16.0714C41.7858 8.97044 36.0296 3.21429 28.9286 3.21429L16.0715 3.21429C8.97048 3.21429 3.21434 8.97044 3.21434 16.0714L3.21434 28.9286C3.21434 36.0296 8.97048 41.7857 16.0715 41.7857Z" fill="#31A442"/>
<g opacity="0.1">
<path d="M16.5407 40.3791L28.4605 40.3791C35.0434 40.3791 40.3804 35.0421 40.3804 28.4593L40.3804 16.5394C40.3804 9.95657 35.0434 4.61957 28.4605 4.61957L16.5407 4.61957C9.9578 4.61957 4.6208 9.95657 4.6208 16.5394L4.6208 28.4593C4.6208 35.0421 9.9578 40.3791 16.5407 40.3791Z" fill="white"/>
</g>
<g opacity="0.5">
<path d="M13.1374 30.393L31.8626 30.393C35.8071 30.393 39.0034 27.1954 39.0034 23.2521L39.0034 16.4173C39.0034 10.4914 34.2 5.68799 28.2741 5.68799L16.7258 5.68799C10.8 5.68799 5.99656 10.4914 5.99656 16.4173L5.99656 23.2521C5.99656 27.1967 9.19413 30.393 13.1374 30.393Z" fill="url(#paint0_linear_1426_21505)"/>
</g>
<path d="M26.8753 7.87113C27.1929 9.61199 28.5737 9.42556 30.285 10.3256C32.1377 11.2988 34.1023 12.5678 35.001 11.2783C35.8715 10.0273 33.669 7.82099 30.816 6.82199C29.0327 6.19842 26.6117 6.42213 26.8753 7.87113Z" fill="white"/>
<path d="M37.0157 12.6128C36.0514 11.9893 34.5253 13.6003 34.9727 14.6301C35.4201 15.66 37.3423 16.0123 37.7267 15.0737C38.1098 14.1338 37.8013 13.1194 37.0157 12.6128Z" fill="white"/>
<path d="M36 23C35.9987 23.0139 35.9987 23.0262 35.996 23.04C35.9947 23.0662 35.9973 23.0923 35.9893 23.117C35.5447 24.5006 27.7159 31.8374 25.3913 31.9959C23.0666 32.1545 23.4088 27.6126 23.4088 27.6126C22.7937 26.9801 14.1781 29.9136 12.4686 29.281C11.4101 28.8885 11 25.6426 11 23C11 20.3574 11.4101 17.1115 12.4686 16.719C14.1781 16.0864 22.7937 19.0199 23.4088 18.3874C23.4088 18.3874 23.0666 13.8455 25.3913 14.0041C27.7159 14.1626 35.546 21.4994 35.9893 22.883C35.9973 22.9077 35.9947 22.9338 35.996 22.96C35.9987 22.9738 35.9987 22.9877 36 23Z" fill="white"/>
</g>
</svg>
