<svg width="45" height="45" viewBox="0 0 45 45" fill="none" xmlns="http://www.w3.org/2000/svg">
    <defs>
        <linearGradient id="paint0_linear_294_21693" x1="22.5" y1="30.3936" x2="22.5" y2="5.68821" gradientUnits="userSpaceOnUse">
            <stop stop-color="white" stop-opacity="0"/>
            <stop offset="1" stop-color="white"/>
        </linearGradient>
        <clipPath id="clip0_294_21693">
            <rect width="45" height="45" fill="white"/>
        </clipPath>
    </defs>
<g clip-path="url(#clip0_294_21693)">
<path d="M29.9996 45H15.0004C6.71529 45 0 38.2847 0 29.9996V15.0004C0 6.71529 6.71529 0 15.0004 0H30.0009C38.2847 0 45 6.71529 45 15.0004V30.0009C45 38.2847 38.2847 45 29.9996 45Z" fill="white"/>
<path d="M28.9285 41.7857H16.0714C8.97038 41.7857 3.21423 36.0296 3.21423 28.9286V16.0714C3.21423 8.97044 8.97038 3.21429 16.0714 3.21429H28.9285C36.0295 3.21429 41.7857 8.97044 41.7857 16.0714V28.9286C41.7857 36.0296 36.0295 41.7857 28.9285 41.7857Z" fill="#31A442"/>
<g opacity="0.1">
<path d="M28.4593 40.3791H16.5395C9.95663 40.3791 4.61963 35.0421 4.61963 28.4593V16.5394C4.61963 9.95657 9.95663 4.61957 16.5395 4.61957H28.4593C35.0422 4.61957 40.3792 9.95657 40.3792 16.5394V28.4593C40.3792 35.0421 35.0422 40.3791 28.4593 40.3791Z" fill="white"/>
</g>
<g opacity="0.5">
<path d="M31.8626 30.393H13.1374C9.19287 30.393 5.99658 27.1954 5.99658 23.2521V16.4173C5.99658 10.4914 10.8 5.68799 16.7259 5.68799H28.2742C34.2 5.68799 39.0034 10.4914 39.0034 16.4173V23.2521C39.0034 27.1967 35.8059 30.393 31.8626 30.393Z" fill="url(#paint0_linear_294_21693)"/>
</g>
<path d="M18.1247 7.87113C17.8071 9.61199 16.4263 9.42556 14.715 10.3256C12.8623 11.2988 10.8977 12.5678 9.99897 11.2783C9.12854 10.0273 11.331 7.82099 14.184 6.82199C15.9673 6.19842 18.3883 6.42213 18.1247 7.87113Z" fill="white"/>
<path d="M7.9843 12.6128C8.94859 11.9893 10.4747 13.6003 10.0273 14.6301C9.57988 15.66 7.65773 16.0123 7.2733 15.0737C6.89016 14.1338 7.19873 13.1194 7.9843 12.6128Z" fill="white"/>
<path d="M30.3326 14.8063C31.6659 17.7994 31.6659 27.432 30.3326 30.4252C29.9083 31.3766 28.4516 31.6234 27.3677 31.6234C27.117 31.6234 26.8856 31.6106 26.6914 31.59C25.1447 31.4242 24.6883 30.7659 24.579 30.2439C23.8037 26.55 23.7047 17.0267 24.6291 14.8243C25.0586 13.8022 26.5474 13.6337 27.3973 13.6234C28.1186 13.6183 29.8466 13.716 30.3326 14.8063Z" fill="white"/>
<path d="M20.1073 15.0043C20.8826 18.6982 20.9816 28.2215 20.0572 30.4239C19.6291 31.446 18.1389 31.6145 17.2891 31.6247H17.2158C16.4572 31.6247 14.8256 31.4975 14.3551 30.4419C13.0205 27.4487 13.0205 17.8162 14.3551 14.823C14.8771 13.6505 16.9638 13.5489 17.9949 13.6582C19.5416 13.824 19.9981 14.4823 20.1073 15.0043Z" fill="white"/>
</g>
</svg>
