<svg width="45" height="45" viewBox="0 0 45 45" fill="none" xmlns="http://www.w3.org/2000/svg">

    <defs>
        <linearGradient id="paint0_linear_339_6650" x1="22.5" y1="28.9695" x2="22.5" y2="6.08823" gradientUnits="userSpaceOnUse">
            <stop stop-color="white" stop-opacity="0"/>
            <stop offset="1" stop-color="white"/>
        </linearGradient>
        <clipPath id="clip0_339_6650">
            <rect width="45" height="45" fill="white"/>
        </clipPath>
    </defs>
<g clip-path="url(#clip0_339_6650)">
<path d="M22.5 45C34.9264 45 45 34.9264 45 22.5C45 10.0736 34.9264 0 22.5 0C10.0736 0 0 10.0736 0 22.5C0 34.9264 10.0736 45 22.5 45Z" fill="white"/>
<path d="M22.4999 41.7857C33.1512 41.7857 41.7857 33.1512 41.7857 22.5C41.7857 11.8488 33.1512 3.21429 22.4999 3.21429C11.8487 3.21429 3.21423 11.8488 3.21423 22.5C3.21423 33.1512 11.8487 41.7857 22.4999 41.7857Z" fill="#31A442"/>
<g opacity="0.1">
<path d="M22.5001 40.122C32.2324 40.122 40.1221 32.2324 40.1221 22.5C40.1221 12.7676 32.2324 4.87799 22.5001 4.87799C12.7677 4.87799 4.87805 12.7676 4.87805 22.5C4.87805 32.2324 12.7677 40.122 22.5001 40.122Z" fill="white"/>
</g>
<g opacity="0.5">
<path d="M38.6794 22.2673C38.6794 31.203 6.32056 31.203 6.32056 22.2673C6.32056 13.3316 13.5643 6.08786 22.5 6.08786C31.4357 6.08786 38.6794 13.3316 38.6794 22.2673Z" fill="url(#paint0_linear_339_6650)"/>
</g>
<path d="M18.675 9.486C18.6879 11.2551 17.2955 11.3297 15.7822 12.5319C14.1442 13.833 12.4496 15.4453 11.3272 14.346C10.2382 13.2801 11.9919 10.7023 14.6083 9.189C16.2438 8.24528 18.6635 8.01257 18.675 9.486Z" fill="white"/>
<path d="M9.38571 15.3283C10.413 14.814 11.754 16.5818 11.196 17.5564C10.638 18.531 8.68885 18.6711 8.40985 17.6953C8.13214 16.7207 8.55 15.7461 9.38571 15.3283Z" fill="white"/>
<path d="M31.954 24.4857C31.8953 24.28 31.7433 23.7442 30.3887 23.3036C30.126 23.1309 29.9713 22.8452 29.9727 22.5202V22.4516C29.97 22.1418 30.1273 21.8535 30.3873 21.6808C31.7407 21.239 31.8927 20.7019 31.95 20.4962C32.226 19.5108 31.5807 18.2957 31.29 17.8195C30.994 17.3332 30.1887 16.1726 29.13 15.9072C28.914 15.8526 28.3527 15.7142 27.278 16.598C26.9847 16.7262 26.6287 16.7085 26.3313 16.5459L26.3033 16.532C26.0073 16.3707 25.8207 16.1041 25.7913 15.8069C26.0647 14.4762 25.6487 14.0826 25.4887 13.9328C24.3633 12.8712 21.0113 12.8712 19.886 13.9328C19.7273 14.0826 19.31 14.4762 19.5833 15.8057C19.554 16.1015 19.3633 16.3732 19.0753 16.5294L19.0313 16.5536C18.734 16.7174 18.378 16.7364 18.0847 16.6082C17.0087 15.7269 16.4473 15.8679 16.2313 15.9225C15.1727 16.1891 14.3713 17.351 14.0767 17.8373C13.7873 18.316 13.1447 19.5324 13.4247 20.5177C13.4833 20.7234 13.6353 21.2593 14.9887 21.6999C15.2527 21.8726 15.406 22.1583 15.4047 22.4833V22.5519C15.4073 22.8617 15.2513 23.15 14.9913 23.3226C13.638 23.7645 13.486 24.3016 13.4287 24.5073C13.1513 25.4927 13.7967 26.7078 14.0887 27.184C14.3847 27.6703 15.1887 28.8309 16.2487 29.0962C16.4647 29.1496 17.026 29.2893 18.0993 28.4055C18.3927 28.2773 18.7513 28.2963 19.0593 28.4626C19.0607 28.4639 19.0713 28.4703 19.0727 28.4715C19.3647 28.6302 19.5553 28.9032 19.5847 29.1978C19.3127 30.5273 19.7287 30.9209 19.8873 31.0707C20.4513 31.6015 21.57 31.8669 22.6887 31.8669C23.8073 31.8669 24.9273 31.6015 25.49 31.0707C25.65 30.9209 26.066 30.5273 25.7927 29.1978C25.8233 28.902 26.0127 28.6302 26.3047 28.4715L26.3447 28.4499C26.6433 28.2861 26.998 28.2671 27.2927 28.3953C28.37 29.2766 28.9313 29.1356 29.146 29.081C30.2047 28.8144 31.006 27.6525 31.3007 27.1662C31.59 26.6875 32.234 25.4711 31.954 24.4857ZM25.862 22.5011C25.862 24.1455 24.4393 25.4825 22.6887 25.4825C20.9393 25.4825 19.5153 24.1455 19.5153 22.5011C19.5153 20.8568 20.9393 19.5197 22.6887 19.5197C24.4393 19.5197 25.862 20.8568 25.862 22.5011Z" fill="white"/>
</g>
</svg>
