<svg width="45" height="45" viewBox="0 0 45 45" fill="none" xmlns="http://www.w3.org/2000/svg">

    <defs>
        <filter id="filter0_d_294_21711" x="9" y="12" width="28" height="28.6422" filterUnits="userSpaceOnUse" color-interpolation-filters="sRGB">
            <feFlood flood-opacity="0" result="BackgroundImageFix"/>
            <feColorMatrix in="SourceAlpha" type="matrix" values="0 0 0 0 0 0 0 0 0 0 0 0 0 0 0 0 0 0 127 0" result="hardAlpha"/>
            <feOffset dy="4"/>
            <feGaussianBlur stdDeviation="2"/>
            <feComposite in2="hardAlpha" operator="out"/>
            <feColorMatrix type="matrix" values="0 0 0 0 0 0 0 0 0 0 0 0 0 0 0 0 0 0 0.25 0"/>
            <feBlend mode="normal" in2="BackgroundImageFix" result="effect1_dropShadow_294_21711"/>
            <feBlend mode="normal" in="SourceGraphic" in2="effect1_dropShadow_294_21711" result="shape"/>
        </filter>
        <linearGradient id="paint0_linear_294_21711" x1="22.5" y1="28.9695" x2="22.5" y2="6.08823" gradientUnits="userSpaceOnUse">
            <stop stop-color="white" stop-opacity="0"/>
            <stop offset="1" stop-color="white"/>
        </linearGradient>
        <clipPath id="clip0_294_21711">
            <rect width="45" height="45" fill="white"/>
        </clipPath>
    </defs>
<g clip-path="url(#clip0_294_21711)">
<path d="M22.5 45C34.9264 45 45 34.9264 45 22.5C45 10.0736 34.9264 0 22.5 0C10.0736 0 0 10.0736 0 22.5C0 34.9264 10.0736 45 22.5 45Z" fill="white"/>
<path d="M22.4999 41.7857C33.1512 41.7857 41.7857 33.1512 41.7857 22.5C41.7857 11.8488 33.1512 3.21429 22.4999 3.21429C11.8487 3.21429 3.21423 11.8488 3.21423 22.5C3.21423 33.1512 11.8487 41.7857 22.4999 41.7857Z" fill="#29ABE2"/>
<g opacity="0.1">
<path d="M22.5001 40.122C32.2324 40.122 40.1221 32.2324 40.1221 22.5C40.1221 12.7676 32.2324 4.87799 22.5001 4.87799C12.7677 4.87799 4.87805 12.7676 4.87805 22.5C4.87805 32.2324 12.7677 40.122 22.5001 40.122Z" fill="white"/>
</g>
<g opacity="0.5">
<path d="M38.6794 22.2673C38.6794 31.203 6.32056 31.203 6.32056 22.2673C6.32056 13.3316 13.5643 6.08786 22.5 6.08786C31.4357 6.08786 38.6794 13.3316 38.6794 22.2673Z" fill="url(#paint0_linear_294_21711)"/>
</g>
<path d="M18.675 9.486C18.6879 11.2551 17.2955 11.3297 15.7822 12.5319C14.1442 13.833 12.4496 15.4453 11.3272 14.346C10.2382 13.2801 11.9919 10.7023 14.6083 9.189C16.2438 8.24528 18.6635 8.01257 18.675 9.486Z" fill="white"/>
<path d="M9.38571 15.3283C10.413 14.814 11.754 16.5818 11.196 17.5564C10.638 18.531 8.68885 18.6711 8.40985 17.6953C8.13214 16.7207 8.55 15.7461 9.38571 15.3283Z" fill="white"/>
<g filter="url(#filter0_d_294_21711)">
<path d="M32.9756 17.4964C32.8428 16.2081 32.2408 15.0651 31.2678 14.2963C30.697 13.845 30.0376 13.5763 29.3566 13.3886C29.1304 12.5863 28.4459 12 27.6261 12H18.3739C17.5541 12 16.8684 12.5876 16.6434 13.3886C15.9612 13.5763 15.303 13.845 14.7322 14.2963C13.7592 15.0651 13.1572 16.2081 13.0244 17.4964C12.7611 20.0473 14.6723 22.0761 16.7212 22.9363C17.1544 23.1189 17.6032 23.2513 18.058 23.3554C18.8407 24.3609 19.8806 25.1271 21.0726 25.5283V29.658H19.7406C19.0142 29.658 18.3524 30.2199 18.2794 30.9964C18.1956 31.89 18.8466 32.6421 19.6616 32.6421H26.2606C26.987 32.6421 27.6488 32.0803 27.7218 31.3037C27.8044 30.4101 27.1546 29.658 26.3396 29.658H24.9286V25.5283C26.1206 25.1271 27.1605 24.3609 27.9432 23.3554C28.398 23.2513 28.8468 23.1189 29.28 22.9363C31.3277 22.0749 33.2389 20.046 32.9756 17.4964ZM14.9464 18.9956C14.561 18.0763 14.701 16.9847 15.3114 16.2159C15.6429 15.798 16.0809 15.5344 16.556 15.3467V18.921C16.556 19.641 16.6625 20.3327 16.8516 20.9846C16.0354 20.5693 15.3473 19.9496 14.9464 18.9956ZM31.0524 18.9956C30.6515 19.9496 29.9634 20.5693 29.1472 20.9859C29.3375 20.334 29.4428 19.641 29.4428 18.9223V15.348C29.9179 15.5344 30.3559 15.7993 30.6874 16.2171C31.2978 16.9847 31.4378 18.0763 31.0524 18.9956Z" fill="white"/>
</g>
</g>
</svg>
