<svg width="15" height="15" viewBox="0 0 15 15" fill="none" xmlns="http://www.w3.org/2000/svg">
    <defs>
        <clipPath id="clip0_823_12664">
            <rect width="15" height="15" fill="white"/>
        </clipPath>
    </defs>
<g clip-path="url(#clip0_823_12664)">
<path d="M7.5 0.46875C3.60938 0.46875 0.46875 3.60938 0.46875 7.5C0.46875 11.3906 3.60938 14.5312 7.5 14.5312C11.3906 14.5312 14.5312 11.3906 14.5312 7.5C14.5312 3.60938 11.3906 0.46875 7.5 0.46875ZM7.5 13.5938C4.125 13.5938 1.40625 10.875 1.40625 7.5C1.40625 4.125 4.125 1.40625 7.5 1.40625C10.875 1.40625 13.5938 4.125 13.5938 7.5C13.5938 10.875 10.875 13.5938 7.5 13.5938Z" fill="white"/>
<path d="M6.9375 10.3125C6.9375 10.4617 6.99676 10.6048 7.10225 10.7102C7.20774 10.8157 7.35082 10.875 7.5 10.875C7.64918 10.875 7.79226 10.8157 7.89775 10.7102C8.00324 10.6048 8.0625 10.4617 8.0625 10.3125C8.0625 10.1633 8.00324 10.0202 7.89775 9.91475C7.79226 9.80926 7.64918 9.75 7.5 9.75C7.35082 9.75 7.20774 9.80926 7.10225 9.91475C6.99676 10.0202 6.9375 10.1633 6.9375 10.3125Z" fill="white"/>
<path d="M7.5 3.75C7.07812 3.75 6.79688 4.03125 6.79688 4.40625L7.03125 9.09375C7.03125 9.23438 7.26562 9.375 7.5 9.375C7.78125 9.375 7.96875 9.23438 7.96875 9.09375L8.20312 4.40625C8.20312 4.03125 7.92188 3.75 7.5 3.75Z" fill="white"/>
</g>
</svg>
