<svg width="47" height="47" viewBox="0 0 47 47" fill="none" xmlns="http://www.w3.org/2000/svg">
<linearGradient id="paint1_linear_235_7246" x1="25.0077" y1="47.6759" x2="15.9618" y2="-4.41891" gradientUnits="userSpaceOnUse">
<stop stop-color="#00F787"/>
<stop offset="0.1186" stop-color="#27F894"/>
<stop offset="0.3648" stop-color="#73FBAF"/>
<stop offset="0.5849" stop-color="#AFFCC3"/>
<stop offset="0.7707" stop-color="#DAFED2"/>
<stop offset="0.9149" stop-color="#F5FFDC"/>
<stop offset="1" stop-color="#FFFFDF"/>
</linearGradient>
<linearGradient id="paint0_linear_235_7246" x1="3.56" y1="1.31309" x2="44.6891" y2="43.7163" gradientUnits="userSpaceOnUse">
<stop stop-color="#9CB488"/>
<stop offset="1" stop-color="#6BA639"/>
</linearGradient>
<clipPath id="clip0_235_7246">
<rect width="47" height="47" fill="white"/>
</clipPath>
<g clip-path="url(#clip0_235_7246)">
<path d="M39.0729 46.4047C28.8348 47.1152 18.298 47.3407 8.06169 46.2289C4.42927 45.8169 1.05092 42.1422 0.699006 38.5563C-0.231415 28.4097 -0.231415 18.4672 0.699006 8.31881C1.05263 4.73294 4.42927 1.05649 8.06169 0.64444C18.2963 -0.469153 28.5344 0.0512343 38.7725 0.76166C42.4032 1.04405 45.7798 3.9941 46.1351 7.53735C47.0656 17.4798 47.3643 29.6849 46.4356 39.6273C46.0802 43.1705 42.7053 46.1206 39.0729 46.4047Z" fill="url(#paint0_linear_235_7246)"/>
<path opacity="0.35" d="M37.8245 3.56456C32.3862 3.19159 26.6045 2.85947 20.895 2.85947C16.3493 2.85947 12.2448 3.06549 8.36348 3.48819C6.11125 3.74217 3.67705 6.27839 3.44873 8.58727C2.55779 18.3059 2.53548 27.7634 3.37663 37.4501C17.3347 29.3317 29.3615 17.6168 37.8245 3.56456Z" fill="url(#paint1_linear_235_7246)"/>
<path d="M7.38156 24.9182C7.38328 24.9342 7.38328 24.9484 7.38671 24.9644C7.38843 24.9946 7.38499 25.0247 7.39529 25.0532C7.96865 26.6498 18.0625 35.1163 21.0598 35.2993C24.057 35.4822 23.6159 30.2411 23.6159 30.2411C24.409 29.5111 35.5174 32.8963 37.7215 32.1663C39.0863 31.7134 39.615 27.9677 39.615 24.9182C39.615 21.8687 39.0863 18.123 37.7215 17.6701C35.5174 16.9401 24.409 20.3253 23.6159 19.5953C23.6159 19.5953 24.057 14.3542 21.0598 14.5371C18.0625 14.72 7.96694 23.1865 7.39529 24.7832C7.38499 24.8116 7.38843 24.8418 7.38671 24.872C7.38328 24.888 7.38328 24.904 7.38156 24.9182Z" fill="white"/>
</g>
<defs>
</defs>
</svg>
