<svg width="19" height="17" viewBox="0 0 19 17" fill="none" xmlns="http://www.w3.org/2000/svg">
<path d="M1.53999 1.85492L2.60421 0.763161L16.5057 15.1365L15.4498 16.2368L12.889 13.5891C11.9328 13.9158 10.9185 14.0877 9.85427 14.0877C5.69713 14.0877 2.14693 11.4142 0.708557 7.64035C1.28224 6.12737 2.19681 4.79492 3.36081 3.73755L1.53999 1.85492ZM9.85427 5.06141C10.5158 5.06141 11.1502 5.33312 11.618 5.81676C12.0858 6.30041 12.3486 6.95637 12.3486 7.64035C12.349 7.93312 12.3012 8.22383 12.2072 8.5L9.02284 5.20755C9.28995 5.11039 9.57111 5.06097 9.85427 5.06141ZM9.85427 1.19299C14.0114 1.19299 17.5616 3.86649 19 7.64035C18.3214 9.42258 17.1683 10.9695 15.6743 12.1019L14.4936 10.8726C15.6434 10.0503 16.5707 8.93761 17.1875 7.64035C16.5153 6.22188 15.4718 5.02682 14.1754 4.19102C12.8791 3.35521 11.382 2.91218 9.85427 2.91228C8.94801 2.91228 8.05839 3.06702 7.22696 3.34211L5.94656 2.02684C7.14381 1.49386 8.46579 1.19299 9.85427 1.19299ZM2.52107 7.64035C3.19323 9.05883 4.23678 10.2539 5.53311 11.0897C6.82944 11.9255 8.32655 12.3685 9.85427 12.3684C10.428 12.3684 10.9933 12.3082 11.5171 12.1879L9.62147 10.2193C9.04293 10.1552 8.50305 9.88823 8.09162 9.46283C7.68019 9.03743 7.422 8.47923 7.35999 7.88106L4.53313 4.94965C3.71001 5.68035 3.01993 6.59158 2.52107 7.64035Z" fill="#545454" fill-opacity="0.6"/>
</svg>
