<svg width="133" height="130" viewBox="0 0 133 130" fill="none" xmlns="http://www.w3.org/2000/svg">
<g clip-path="url(#clip0_163_4986)">
<path d="M0.836188 111.507C0.640116 111.507 0.449811 111.438 0.294107 111.31C0.109569 111.148 0 110.911 0 110.663V102.252C0 101.789 0.374843 101.413 0.836188 101.413C1.29753 101.413 1.67238 101.789 1.67238 102.252V109.662L53.2219 100.858C53.6775 100.777 54.11 101.089 54.1907 101.546C54.2715 102.003 53.9601 102.437 53.5045 102.518L0.980358 111.495C0.934224 111.501 0.882322 111.507 0.836188 111.507Z" fill="#2B3333"/>
<path d="M117.339 104.339C136.765 84.8535 136.765 53.2609 117.339 33.7751C97.9126 14.2894 66.4164 14.2894 46.9901 33.7752C27.5639 53.2609 27.5639 84.8534 46.9901 104.339C66.4164 123.825 97.9126 123.825 117.339 104.339Z" fill="#35B9D0"/>
<path d="M71.2431 25.3244C71.0182 25.4054 70.7991 25.4863 70.5742 25.5673C68.7749 25.2434 67.5524 27.5977 65.6205 26.6374C65.6493 26.3771 65.6839 26.1226 65.7128 25.8623C66.8776 25.1393 67.3967 23.9708 67.8407 22.7503C70.7991 21.3504 74.2995 22.3165 77.1887 20.6158C81.658 19.9101 86.133 18.8805 90.6023 20.6158C91.0233 21.0439 91.1213 21.6107 90.4812 21.7207C86.825 22.328 83.463 24.1906 79.6223 24.0981C76.7908 24.0287 73.9305 24.1848 71.2431 25.3244Z" fill="#B2DA89"/>
<path d="M51.5379 33.2896C51.1112 33.1912 50.6844 33.0871 50.2577 32.983C51.3015 29.8189 54.2599 29.1421 56.9299 27.187C57.1836 31.8088 53.441 31.6468 51.5379 33.2896Z" fill="#B2DA89"/>
<path d="M131.385 77.3035C130.388 82.284 128.75 87.0446 126.501 91.597V91.649C125.745 90.6772 126.547 89.7575 126.789 88.7973C126.916 88.2767 126.276 87.9123 125.884 88.2767C123.485 90.4979 121.363 92.9042 119.696 95.6923C119.517 95.9931 119.114 96.0568 118.86 95.8196L118.687 95.6576C118.514 95.4957 118.462 95.2354 118.571 95.0156C120.619 90.816 122.118 86.5356 120.498 81.7634C120.457 80.6817 119.742 80.7684 119.044 80.8321C118.952 80.8379 118.86 80.8263 118.779 80.7858C118.41 80.6238 118.041 80.4561 117.672 80.2941C117.591 80.2594 117.522 80.2073 117.47 80.1379C116.074 78.3621 114.114 77.0548 112.753 75.198C112.464 74.8047 111.859 74.9608 111.778 75.441C111.438 77.5812 110.682 79.9123 115.048 79.7099C115.25 79.6983 115.486 80.4156 115.711 80.8436C115.734 80.8841 115.751 80.9246 115.763 80.9709C116.392 83.5045 115.002 84.4821 113.451 85.3324C111.617 85.9802 109.817 86.6165 107.984 87.2644C107.055 87.4321 106.121 87.5999 105.192 87.7676C104.483 87.7503 103.803 87.7329 103.093 87.7214C102.77 87.6462 102.58 87.2991 102.707 86.9925C104.598 82.4054 102.759 77.8646 102.24 73.3123C102.165 72.6644 101.68 72.1438 100.977 72.1612C100.752 72.1669 100.296 72.757 100.36 72.9305C102.073 77.5581 99.714 82.793 102.361 87.2702C102.459 87.4379 102.471 87.652 102.372 87.8197C102.073 88.3461 101.715 88.8725 102.713 89.2543C103.791 89.4683 104.864 89.6765 106.121 89.9252C106.525 90.0062 106.698 90.4863 106.444 90.8045C104.46 93.3207 102.136 94.9346 99.2296 95.8948C95.4984 97.1269 92.0153 98.6251 90.6601 102.981C90.0546 104.913 88.4514 106.197 86.0754 106.232C84.5991 106.255 83.342 106.966 82.8403 108.493C82.7826 108.673 82.65 108.812 82.4712 108.864C81.191 109.234 79.8588 109.494 78.9477 110.634C78.8266 110.639 78.6939 110.622 78.5786 110.657C71.52 112.687 71.4277 111.964 72.0448 105.289C72.0506 105.237 72.0621 105.185 72.0794 105.138C72.7253 103.559 71.4969 101.662 72.8867 100.216C75.9259 97.0401 75.2396 93.6331 73.6595 90.174C73.5788 89.9947 73.6018 89.7806 73.7172 89.6187C75.528 87.1256 75.0262 85.2456 72.1486 83.9962C72.0217 83.9441 71.9237 83.84 71.8603 83.7127C71.1798 82.2551 69.8246 82.417 68.504 82.4575C63.8329 82.5963 60.4362 80.7106 58.6889 76.2276C58.6831 76.2045 58.6716 76.1814 58.6658 76.1582C58.0545 73.7114 56.7051 71.334 57.9795 68.7078C58.7177 65.0521 60.6092 62.102 63.4349 59.7246C63.4638 59.7014 63.4926 59.6783 63.5272 59.6609L64.5595 59.0767L64.5133 59.1519C67.3102 58.3132 68.7808 55.5713 71.3009 54.3392C71.4623 54.2583 71.6526 54.2756 71.8084 54.3682C74.9686 56.1671 78.6132 54.9871 81.9176 55.8953C81.9868 55.9126 82.0502 55.9531 82.1136 55.9936C83.2382 56.8381 85.8909 56.3291 85.0951 58.7643C84.5069 60.5749 85.568 61.0492 86.358 62.154C88.3995 65.0174 91.0234 65.2661 94.0106 64.6587C94.1721 64.624 94.3451 64.6703 94.4719 64.7744C96.202 66.2552 97.9954 67.4989 100.314 68.1294C103.041 68.8756 103.67 67.0361 104.362 65.376C105.458 62.7614 102.73 64.0803 101.975 63.3052C101.594 62.9118 100.815 62.9465 100.296 62.6457C99.1315 61.9574 98.4626 60.9104 98.7451 59.5279C99.0219 58.1743 100.296 58.4636 101.185 58.3826C103.353 58.1917 105.406 58.6718 107.263 59.8865C107.88 60.2914 108.653 60.8988 109.287 60.2162C110.106 59.337 109.062 58.6892 108.704 57.9719C107.955 56.4621 105.758 56.5431 105.169 55.4325C102.724 50.8049 101.79 54.9408 100.441 56.1324C99.8927 56.6183 100.112 58.2206 98.8316 57.6075C96.0059 56.2655 96.225 58.4346 95.7637 59.8229C95.6599 60.1295 95.3023 60.2857 95.014 60.1353C93.7914 59.499 94.4316 57.7983 93.6761 56.896C93.5665 56.7687 93.5319 56.5952 93.5665 56.4332C94.0625 53.9112 92.1767 52.7601 90.7466 51.233C90.4352 50.9033 89.8931 51.071 89.8181 51.5164C89.7201 52.0717 89.5182 52.5403 89.1319 52.9047C88.8435 53.1823 88.3476 53.0609 88.238 52.6733C87.5402 50.2959 85.5795 49.9373 83.2843 50.1108C83.2382 50.1166 83.192 50.1108 83.1459 50.0992C81.1794 49.677 79.3744 50.614 78.3018 51.8288C76.3987 53.9806 74.3631 53.9517 72.0275 53.3906C71.9352 53.3674 71.843 53.3212 71.7738 53.2518C69.7496 51.3313 71.2086 49.6654 72.1659 47.8375C73.3135 45.6394 74.6629 47.1202 75.9547 47.421C76.8832 47.6408 77.7712 48.3234 78.7112 47.3805C79.6628 46.4319 79.8069 45.327 79.0515 44.3495C77.333 42.1282 79.9569 43.4587 80.2856 42.9612C80.3836 42.8108 80.5797 42.7645 80.7584 42.7761C82.4366 42.8686 84.0167 42.5679 85.4526 41.7118C86.1792 41.5035 87.2807 41.1912 88.0073 40.9887C88.2957 40.9829 88.5898 40.9829 88.8781 40.9771L89.1434 41.0697L89.4087 40.9829C90.0891 41.0176 90.0719 40.711 89.9104 40.3351C89.8585 40.2078 89.8527 40.069 89.8931 39.9417C89.9508 39.7682 90.0084 39.5889 90.0719 39.4211C90.2737 38.8889 91.0407 38.9931 91.1156 39.5541C91.502 42.4001 94.1086 42.4406 96.5653 42.6778C99.0911 42.9207 100.308 40.0343 100.054 39.3054C99.4372 37.518 99.887 36.1471 100.521 34.7588C100.729 34.3076 100.279 33.8391 99.8235 34.0242C98.3126 34.6374 96.8363 35.2042 97.1535 37.7263C97.2573 38.5477 95.9886 40.2656 94.4085 40.3408C92.788 40.4218 93.5031 38.8889 93.1052 38.1138C92.8053 37.5354 92.5516 36.7603 91.7039 37.09C91.0061 36.8355 90.389 36.6099 89.6912 36.3553L89.6393 36.2744C89.5701 36.1702 89.5413 36.043 89.5586 35.9157C89.7893 34.0069 91.1041 33.1392 92.8053 32.6533C92.8572 32.6359 92.9149 32.6301 92.9726 32.6359C93.9933 32.6706 94.9333 32.2831 95.5676 31.5889C98.6875 28.1819 101.836 28.7777 105.054 31.2187C105.146 31.2882 105.233 31.3807 105.267 31.4964C105.688 32.8442 110.186 32.9541 106.513 35.6439C106.155 35.9042 107.165 36.6561 107.747 36.4768C108.549 36.2223 109.264 35.6901 110.019 35.2736L109.939 35.2679C110.227 35.3315 110.515 35.3951 110.804 35.4645C110.925 35.4935 111.057 35.4761 111.167 35.4183C111.415 35.291 111.663 35.1695 111.905 35.0423C111.98 35.0018 112.066 34.9844 112.147 34.9844C112.839 34.9844 113.531 34.9844 114.223 34.9844C114.264 34.9844 114.304 34.9844 114.344 34.996C115.688 35.2679 116.686 37.8824 118.277 36.4305C118.958 36.4826 119.298 36.5057 119.979 36.5578C121.518 38.5708 123.058 40.5838 124.598 42.5968C126.034 45.6047 128.271 50.2901 129.707 53.298C130.37 56.0225 131.028 58.7528 131.691 61.4773C131.697 61.5062 131.702 61.5409 131.708 61.5698C132.014 66.8279 132.17 72.0744 131.385 77.3035ZM116.715 66.4461C116.726 66.3883 116.732 66.3246 116.726 66.2668C116.691 66.0007 116.565 65.6016 116.715 65.376C118.162 63.1952 115.371 61.4773 116.069 59.551C116.449 58.504 117.706 57.5901 115.705 57.2488C114.523 57.0464 113.376 57.8099 113.554 59.1924C113.848 61.483 114.425 63.7216 114.148 66.0817C114.085 66.6081 114.673 67.5278 115.538 67.6204C116.259 67.6956 116.547 67.1634 116.715 66.4461Z" fill="#B2DA89"/>
<path d="M38.3839 89.8095C36.6711 85.5406 35.2756 81.1791 34.399 76.6615C34.301 73.3701 33.4532 70.0788 34.301 66.1916C36.0541 69.5119 37.5477 72.3463 39.0413 75.1806C39.0586 76.4474 39.0586 77.72 40.4599 78.3679C40.8059 78.7034 41.1519 79.0331 41.5037 79.3686L41.6075 79.3281C41.5268 80.6296 42.8013 80.7511 43.4125 81.4452C44.7735 83.007 46.74 84.5399 46.0191 86.871C45.0964 89.8616 46.0595 92.482 46.815 95.2065C45.898 96.936 46.3651 98.44 47.2936 100.065C47.7953 100.945 49.4965 102.188 47.3455 103.258C45.3386 100.499 43.3318 97.7343 41.3192 94.9751C40.7137 93.0373 39.716 91.3251 38.3839 89.8095Z" fill="#B2DA89"/>
<path d="M86.0062 109.899C88.3648 108.412 90.0776 105.509 93.7857 106.446C92.4362 108.592 89.9392 109.008 88.3129 110.53C88.0304 110.663 87.7478 110.801 87.4652 110.934C87.223 111.004 86.9808 111.073 86.7386 111.143C86.2081 110.9 86.0005 110.46 86.0062 109.899Z" fill="#B2DA89"/>
<path d="M67.4083 54.883C65.1189 54.883 63.1754 54.3103 61.5896 53.1592C58.0891 50.6198 57.7489 46.2468 57.7373 46.0617C57.7027 45.5989 58.0545 45.1998 58.5159 45.1651C58.9714 45.1362 59.3751 45.4832 59.4097 45.946C59.4155 45.998 59.7269 49.7464 62.5815 51.8056C64.6863 53.3269 67.6678 53.6046 71.4508 52.6328C71.9006 52.5171 72.3562 52.789 72.4715 53.2402C72.5869 53.6914 72.3158 54.1483 71.866 54.264C70.2686 54.6747 68.775 54.883 67.4083 54.883Z" fill="#2B3333"/>
<path d="M98.2146 67.4989C95.9251 67.4989 93.9817 66.9262 92.3958 65.7751C88.8954 63.2357 88.5551 58.8627 88.5436 58.6776C88.509 58.2148 88.8608 57.8157 89.3221 57.781C89.7835 57.7521 90.1814 58.0991 90.216 58.5619C90.2218 58.6139 90.5332 62.3623 93.3877 64.4216C95.4926 65.9429 98.4741 66.2205 102.257 65.2487C102.707 65.133 103.162 65.4049 103.278 65.8561C103.393 66.3073 103.122 66.7643 102.672 66.8799C101.069 67.2964 99.5813 67.4989 98.2146 67.4989Z" fill="#2B3333"/>
<path d="M61.7452 13.6166C61.8317 13.7786 61.8952 13.9232 61.9413 14.0447C61.9874 14.1661 62.0105 14.2703 62.022 14.3512C62.0278 14.438 62.022 14.5074 61.9932 14.5537C61.9644 14.6058 61.924 14.6405 61.8779 14.6694L55.419 18.0475C55.1941 18.1632 54.9865 18.1921 54.7962 18.1227C54.6059 18.0533 54.4502 17.8971 54.3176 17.6484L54.1215 17.2724C54.0638 17.1567 54.0177 17.0526 53.9831 16.9485C53.9485 16.8501 53.9254 16.7402 53.9081 16.6245C53.8908 16.5089 53.885 16.3816 53.8908 16.2312C53.8966 16.0866 53.9081 15.9073 53.9196 15.699L54.6578 6.71576L50.4423 8.91964C50.3731 8.95434 50.3096 8.9717 50.2462 8.96591C50.1828 8.96013 50.1193 8.93121 50.0501 8.87915C49.9867 8.82709 49.9117 8.7461 49.8425 8.64198C49.7675 8.53786 49.6926 8.40482 49.6118 8.24286C49.5253 8.07511 49.4561 7.92471 49.41 7.80324C49.3639 7.68176 49.3408 7.57764 49.335 7.48509C49.3293 7.39832 49.3408 7.32891 49.3754 7.27685C49.41 7.22479 49.4619 7.17851 49.5253 7.14381L55.5805 3.97971C55.8112 3.85823 56.013 3.82931 56.186 3.88716C56.359 3.95078 56.4974 4.08961 56.6127 4.30364L56.8319 4.72012C56.9126 4.8763 56.9761 5.00934 57.0164 5.12503C57.0568 5.24072 57.0914 5.36219 57.1087 5.48945C57.126 5.61093 57.1318 5.74975 57.126 5.88858C57.1202 6.03319 57.1087 6.20673 57.0972 6.40918L56.3821 15.2652L60.9609 12.8704C61.0705 12.8126 61.1858 12.8415 61.3127 12.9456C61.4165 13.0613 61.5722 13.2811 61.7452 13.6166Z" fill="black"/>
<path d="M72.6791 10.7765C72.7252 10.9558 72.7598 11.1062 72.7771 11.2334C72.7944 11.3607 72.8002 11.4648 72.7887 11.5516C72.7771 11.6383 72.7541 11.702 72.7195 11.7425C72.6849 11.7887 72.633 11.8177 72.581 11.8292L65.5455 13.7323C65.2976 13.8017 65.09 13.7786 64.9227 13.6745C64.7497 13.5703 64.6286 13.3795 64.5594 13.1076L64.4498 12.7027C64.4152 12.5812 64.3922 12.4655 64.3806 12.3614C64.3691 12.2573 64.3691 12.1474 64.3749 12.0317C64.3864 11.916 64.4095 11.7887 64.4441 11.6441C64.4787 11.4995 64.5306 11.3318 64.5882 11.1293L67.2352 2.51624L62.6448 3.7599C62.5699 3.77725 62.5007 3.78304 62.443 3.7599C62.3796 3.74255 62.3219 3.69627 62.27 3.63264C62.2181 3.56901 62.1662 3.47646 62.1143 3.35499C62.0681 3.23351 62.0162 3.0889 61.9701 2.91537C61.9182 2.73027 61.8836 2.57408 61.8663 2.44104C61.849 2.308 61.8432 2.20388 61.8605 2.11711C61.8778 2.03035 61.9009 1.96672 61.947 1.92044C61.9932 1.87417 62.0509 1.84524 62.1258 1.82211L68.7173 0.0347065C68.971 -0.034707 69.1729 -0.0173536 69.3286 0.0751977C69.4843 0.173534 69.5938 0.335499 69.6573 0.572661L69.7784 1.02385C69.8245 1.1916 69.8533 1.33621 69.8707 1.45768C69.8879 1.58494 69.8937 1.70642 69.8822 1.83367C69.8706 1.96093 69.8533 2.08819 69.813 2.22702C69.7784 2.36584 69.7322 2.53359 69.6688 2.72448L67.068 11.2161L72.0563 9.86829C72.1716 9.83937 72.2812 9.88564 72.385 10.0187C72.483 10.1633 72.581 10.412 72.6791 10.7765Z" fill="black"/>
<path d="M81.6638 10.6087C81.6638 10.7591 81.6638 10.8806 81.6523 10.9847C81.6408 11.0888 81.6235 11.1698 81.6004 11.2334C81.5773 11.2971 81.5427 11.3433 81.5081 11.3665C81.4677 11.3954 81.4274 11.407 81.3812 11.407L75.5568 11.5111C75.3549 11.5169 75.1935 11.459 75.0839 11.3433C74.9743 11.2276 74.9166 11.0599 74.9109 10.8343L74.9051 10.4988C74.9051 10.3947 74.9109 10.3021 74.9167 10.2211C74.9282 10.1344 74.9455 10.0534 74.9743 9.96084C75.0032 9.87407 75.0435 9.77574 75.1012 9.6774C75.1589 9.57328 75.2281 9.45181 75.3146 9.3072L79.0399 3.14096L75.2396 3.21038C75.1762 3.21038 75.1243 3.19881 75.0839 3.16988C75.0378 3.14096 75.0032 3.10047 74.9743 3.03684C74.9455 2.97321 74.9224 2.89223 74.9109 2.79389C74.8936 2.68977 74.8878 2.5683 74.8878 2.42369C74.8878 2.27329 74.8878 2.14025 74.8994 2.03613C74.9109 1.93201 74.9282 1.84524 74.957 1.78161C74.9859 1.71798 75.0205 1.67171 75.0608 1.64279C75.1012 1.61386 75.1531 1.6023 75.2165 1.6023L80.6777 1.50396C80.8853 1.49817 81.041 1.55024 81.1448 1.65436C81.2486 1.75848 81.3005 1.90887 81.3005 2.10554L81.3063 2.48153C81.3063 2.62036 81.3063 2.73605 81.2947 2.84017C81.2832 2.93851 81.2601 3.03684 81.2313 3.13518C81.2025 3.22773 81.1563 3.32606 81.1044 3.43018C81.0525 3.52852 80.9833 3.64999 80.8968 3.78882L77.2291 9.86829L81.3582 9.79309C81.4562 9.79309 81.5312 9.85094 81.5831 9.97241C81.6292 10.0939 81.6638 10.3079 81.6638 10.6087Z" fill="black"/>
<path d="M90.637 11.8871C90.6197 12.0143 90.6024 12.1184 90.5793 12.2052C90.5562 12.292 90.5332 12.3614 90.5043 12.4135C90.4755 12.4655 90.4467 12.5002 90.4063 12.5176C90.3717 12.5349 90.3313 12.5407 90.2967 12.5349L85.3084 11.9218C85.1354 11.8986 85.0085 11.835 84.9278 11.7193C84.8471 11.6094 84.8182 11.4532 84.8413 11.2623L84.8759 10.9731C84.8874 10.8864 84.9047 10.8054 84.922 10.736C84.9393 10.6665 84.9682 10.5971 85.0028 10.5219C85.0374 10.4525 85.0835 10.3773 85.1469 10.2906C85.2104 10.2096 85.2854 10.1112 85.3719 10.0013L89.2933 5.18866L86.0408 4.78953C85.9889 4.78375 85.9428 4.7664 85.9139 4.73747C85.8793 4.70855 85.8563 4.66806 85.839 4.61022C85.8217 4.55237 85.8101 4.48296 85.8101 4.39619C85.8101 4.30942 85.8159 4.19952 85.8332 4.07804C85.8505 3.945 85.8678 3.8351 85.8909 3.74833C85.9139 3.66156 85.937 3.59215 85.9716 3.54009C86.0004 3.48803 86.035 3.45332 86.0754 3.43597C86.1158 3.41862 86.1619 3.41283 86.2138 3.41862L90.8849 3.99706C91.0637 4.0202 91.1906 4.08383 91.2655 4.18216C91.3405 4.28629 91.3636 4.41933 91.3463 4.58708L91.3059 4.91101C91.2886 5.0267 91.2713 5.13082 91.254 5.2118C91.2309 5.29857 91.2021 5.37376 91.1617 5.45475C91.1214 5.52994 91.0752 5.61093 91.0176 5.69191C90.9599 5.77289 90.8849 5.86544 90.7984 5.97535L86.9404 10.7244L90.4755 11.1582C90.5562 11.1698 90.6139 11.2276 90.6427 11.3375C90.6716 11.4474 90.6716 11.6326 90.637 11.8871Z" fill="black"/>
<path d="M79.1611 65.7404C80.2913 67.1518 80.0664 69.2111 78.6593 70.3391C77.2522 71.4728 75.13 71.0563 74.7494 69.2921C74.2362 66.9089 73.1693 66.3709 74.5707 65.2372C75.9778 64.1092 78.0308 64.3348 79.1611 65.7404Z" fill="#880000"/>
<path d="M28.7764 130C28.4188 130 28.0959 129.769 27.9805 129.427L24.63 119.339C24.4859 118.9 24.7223 118.425 25.1606 118.275C25.5989 118.13 26.0717 118.367 26.2217 118.807L29.3588 128.253C36.0656 127.507 91.0406 121.051 110.59 108.985C110.982 108.742 111.501 108.864 111.743 109.263C111.986 109.656 111.865 110.177 111.467 110.42C90.4121 123.417 31.3657 129.74 28.8629 130C28.8398 130 28.8052 130 28.7764 130Z" fill="#2B3333"/>
<path d="M131.685 118.234C127.014 118.234 123.537 116.621 121.34 113.439C113.998 102.813 123.71 78.31 124.125 77.2746C124.298 76.8466 124.788 76.6383 125.215 76.8061C125.642 76.9796 125.855 77.4713 125.682 77.8993C125.584 78.1481 115.896 102.599 122.724 112.479C124.655 115.279 127.833 116.638 132.152 116.54C132.625 116.522 133 116.898 133.012 117.361C133.023 117.824 132.654 118.211 132.193 118.223C132.014 118.234 131.847 118.234 131.685 118.234Z" fill="#2B3333"/>
</g>
<defs>
<clipPath id="clip0_163_4986">
<rect width="133" height="130" fill="white"/>
</clipPath>
</defs>
</svg>
