<svg xmlns="http://www.w3.org/2000/svg" xmlns:xlink="http://www.w3.org/1999/xlink" viewBox="0 0 83.53 62.14"><defs><linearGradient id="Dégradé_sans_nom_67" x1="55.14" y1="-15.97" x2="26.22" y2="-15.97" gradientTransform="translate(69 42)" gradientUnits="userSpaceOnUse"><stop offset="0" stop-color="#7cb038"/><stop offset="0.13" stop-color="#8cc63f"/><stop offset="0.25" stop-color="#7cb038"/><stop offset="0.39" stop-color="#7cb038"/><stop offset="0.75" stop-color="#7cb038"/><stop offset="0.8" stop-color="#7cb038"/></linearGradient><linearGradient id="Dégradé_sans_nom_68" x1="-82.78" y1="-18.15" x2="-111.66" y2="-19.29" gradientTransform="translate(69 42)" gradientUnits="userSpaceOnUse"><stop offset="0" stop-color="#7cb038"/><stop offset="0.13" stop-color="#8cc63f"/><stop offset="0.25" stop-color="#7cb038"/><stop offset="0.95" stop-color="#7cb038"/></linearGradient><linearGradient id="Dégradé_sans_nom_69" x1="-22.74" y1="29.29" x2="-18.53" y2="71.99" gradientTransform="translate(69 42)" gradientUnits="userSpaceOnUse"><stop offset="0" stop-color="#7cb038"/><stop offset="0.13" stop-color="#8cc63f"/><stop offset="0.25" stop-color="#7cb038"/><stop offset="0.52" stop-color="#7cb038"/></linearGradient><linearGradient id="Dégradé_sans_nom_70" x1="-25.45" y1="78.59" x2="-25.53" y2="33.52" gradientTransform="translate(69 42)" gradientUnits="userSpaceOnUse"><stop offset="0.05" stop-color="#dde108"/><stop offset="0.15" stop-color="#d7db1f"/><stop offset="0.25" stop-color="#b6ba08"/><stop offset="0.89" stop-color="#b6ba08"/></linearGradient><linearGradient id="Dégradé_sans_nom_76" x1="-27.24" y1="-33.81" x2="-27.24" y2="22.64" gradientTransform="translate(69 42)" gradientUnits="userSpaceOnUse"><stop offset="0" stop-color="#8cc63f"/><stop offset="0.99" stop-color="#dde108"/></linearGradient><linearGradient id="Dégradé_sans_nom_15" x1="211.9" y1="5.23" x2="211.97" y2="36.83" gradientTransform="translate(-170 16)" gradientUnits="userSpaceOnUse"><stop offset="0" stop-color="#7cb038"/><stop offset="0.13" stop-color="#8cc63f"/><stop offset="0.25" stop-color="#7cb038"/></linearGradient><linearGradient id="Dégradé_sans_nom_15-5" x1="99.64" y1="69.69" x2="99.7" y2="101.4" gradientTransform="translate(-58 -49)" xlink:href="#Dégradé_sans_nom_15"/><linearGradient id="Dégradé_sans_nom_15-10" x1="213.53" y1="26.09" x2="213.59" y2="57.34" xlink:href="#Dégradé_sans_nom_15"/><linearGradient id="Dégradé_sans_nom_19" x1="213.59" y1="37.72" x2="213.51" y2="-8.49" gradientTransform="translate(-170 16)" gradientUnits="userSpaceOnUse"><stop offset="0.05" stop-color="#dde108"/><stop offset="0.15" stop-color="#d7db1f"/><stop offset="0.25" stop-color="#b6ba08"/></linearGradient></defs><g id="Calque_2" ><g id="Calque_1-2" ><g><path fill="url(#Dégradé_sans_nom_67)" d="M19.48,18.09q-7,.9-14,2.32c.32,1.82.63,3.64,1,5.45,1.22-.31,2.44-.61,3.67-.9q1,5.47,2,10.94,2.45-.59,4.9-1.09-.39-5.55-.73-11.12c1.24-.23,2.48-.45,3.72-.65C19.81,21.39,19.64,19.74,19.48,18.09Z"/><path fill="url(#Dégradé_sans_nom_67)" d="M22.14,34.64q5.06-.73,10.14-1.18c0-.85,0-1.7,0-2.55V28.35l-2.14.14-3,.25,0-1.71c1.22-.15,2.45-.29,3.67-.42,0-1.21,0-2.43,0-3.64-1.24.09-2.48.18-3.73.29V21.78c1.77-.24,3.55-.46,5.34-.65,0-.74,0-1.46,0-2.19s0-1.44,0-2.18q-6,.34-11.92,1.06Q21.3,26.24,22.14,34.64Z"/><path fill="url(#Dégradé_sans_nom_67)" d="M45.68,17.66a7.33,7.33,0,0,0-2.43-1.12,10.06,10.06,0,0,0-2.86-.35c-.64,0-1.27,0-1.88.08s-1.21.11-1.8.2-1.17.23-1.75.38a18.18,18.18,0,0,0-1.76.59c0,.9,0,1.8,0,2.68s.06,1.77.09,2.67c.05,1.78.11,3.55.17,5.32s.12,3.54.18,5.32c1.69-.1,3.38-.17,5.08-.21l.09-4.88,1.51-.08q1,2.47,1.9,5,2.66-.52,5.35-1-1.36-2.52-2.79-5a7.93,7.93,0,0,0,1.37-1,5.05,5.05,0,0,0,1-1.13,5.41,5.41,0,0,0,.56-1.35,7.45,7.45,0,0,0,.2-1.65,5,5,0,0,0-.56-2.58A5.52,5.52,0,0,0,45.68,17.66ZM42,23.44a2.23,2.23,0,0,1-.71.69,3.65,3.65,0,0,1-1,.42,5.19,5.19,0,0,1-1.09.15h-.29L39,20.34l.47-.1.5,0a2.8,2.8,0,0,1,1,.16,1.94,1.94,0,0,1,.71.46,2,2,0,0,1,.44.71,2.57,2.57,0,0,1,.15.9A1.78,1.78,0,0,1,42,23.44Z"/><path fill="url(#Dégradé_sans_nom_67)" d="M76.18,19.43c-2.39-.31-4.79-.58-7.18-.79q-3.54,7.23-6.68,14.57Q61.2,30.6,60,28a8.55,8.55,0,0,0,1.45-.87,4.92,4.92,0,0,0,1-1.05,4.7,4.7,0,0,0,.67-1.3,6.88,6.88,0,0,0,.35-1.63,4.92,4.92,0,0,0-.35-2.62,5.5,5.5,0,0,0-1.49-2,7.45,7.45,0,0,0-2.33-1.32,10.56,10.56,0,0,0-2.82-.59c-.64,0-1.27-.07-1.88-.08s-1.21,0-1.81.06a15.48,15.48,0,0,0-1.78.23,15.7,15.7,0,0,0-1.8.44c-.08.89-.14,1.78-.19,2.66S49,21.7,48.91,22.6c-.1,1.78-.2,3.55-.29,5.32s-.18,3.53-.27,5.31c1.69.05,3.39.12,5.08.22l.51-4.85,1.5,0c.51,1.7,1,3.41,1.48,5.11,1.79-.2,3.59-.37,5.39-.52l-.12.29q3,.61,5.93,1.34c.32-.85.65-1.69,1-2.54l2.72.43c.09.91.19,1.82.27,2.73q3,.12,6,.34Q77.31,27.64,76.18,19.43ZM57.84,23a1.76,1.76,0,0,1-.36,1,2.06,2.06,0,0,1-.77.63,3.39,3.39,0,0,1-1,.33A5.06,5.06,0,0,1,54.6,25l-.3,0c.15-1.44.31-2.89.47-4.34a3.55,3.55,0,0,1,.47-.06,4.21,4.21,0,0,1,.5,0,2.4,2.4,0,0,1,1,.24,1.87,1.87,0,0,1,.68.52,1.91,1.91,0,0,1,.37.74A2.46,2.46,0,0,1,57.84,23Zm12.29,5.86c.5-1.3,1-2.59,1.53-3.89.1,1.39.2,2.79.29,4.18Z"/><path  d="M19.48,18.09q-7,.9-14,2.32c.32,1.82.63,3.64,1,5.45,1.22-.31,2.44-.61,3.67-.9q1,5.47,2,10.94,2.45-.59,4.9-1.09-.39-5.55-.73-11.12c1.24-.23,2.48-.45,3.72-.65C19.81,21.39,19.64,19.74,19.48,18.09Z"/><path  d="M22.14,34.64q5.06-.73,10.14-1.18c0-.85,0-1.7,0-2.55V28.35l-2.14.14-3,.25,0-1.71c1.22-.15,2.45-.29,3.67-.42,0-1.21,0-2.43,0-3.64-1.24.09-2.48.18-3.73.29V21.78c1.77-.24,3.55-.46,5.34-.65,0-.74,0-1.46,0-2.19s0-1.44,0-2.18q-6,.34-11.92,1.06Q21.3,26.24,22.14,34.64Z"/><path  d="M45.68,17.66a7.33,7.33,0,0,0-2.43-1.12,10.06,10.06,0,0,0-2.86-.35c-.64,0-1.27,0-1.88.08s-1.21.11-1.8.2-1.17.23-1.75.38a18.18,18.18,0,0,0-1.76.59c0,.9,0,1.8,0,2.68s.06,1.77.09,2.67c.05,1.78.11,3.55.17,5.32s.12,3.54.18,5.32c1.69-.1,3.38-.17,5.08-.21l.09-4.88,1.51-.08q1,2.47,1.9,5,2.66-.52,5.35-1-1.36-2.52-2.79-5a7.93,7.93,0,0,0,1.37-1,5.05,5.05,0,0,0,1-1.13,5.41,5.41,0,0,0,.56-1.35,7.45,7.45,0,0,0,.2-1.65,5,5,0,0,0-.56-2.58A5.52,5.52,0,0,0,45.68,17.66ZM42,23.44a2.23,2.23,0,0,1-.71.69,3.65,3.65,0,0,1-1,.42,5.19,5.19,0,0,1-1.09.15h-.29L39,20.34l.47-.1.5,0a2.8,2.8,0,0,1,1,.16,1.94,1.94,0,0,1,.71.46,2,2,0,0,1,.44.71,2.57,2.57,0,0,1,.15.9A1.78,1.78,0,0,1,42,23.44Z"/><path  d="M76.18,19.43c-2.39-.31-4.79-.58-7.18-.79q-3.54,7.23-6.68,14.57Q61.2,30.6,60,28a8.55,8.55,0,0,0,1.45-.87,4.92,4.92,0,0,0,1-1.05,4.7,4.7,0,0,0,.67-1.3,6.88,6.88,0,0,0,.35-1.63,4.92,4.92,0,0,0-.35-2.62,5.5,5.5,0,0,0-1.49-2,7.45,7.45,0,0,0-2.33-1.32,10.56,10.56,0,0,0-2.82-.59c-.64,0-1.27-.07-1.88-.08s-1.21,0-1.81.06a15.48,15.48,0,0,0-1.78.23,15.7,15.7,0,0,0-1.8.44c-.08.89-.14,1.78-.19,2.66S49,21.7,48.91,22.6c-.1,1.78-.2,3.55-.29,5.32s-.18,3.53-.27,5.31c1.69.05,3.39.12,5.08.22l.51-4.85,1.5,0c.51,1.7,1,3.41,1.48,5.11,1.79-.2,3.59-.37,5.39-.52l-.12.29q3,.61,5.93,1.34c.32-.85.65-1.69,1-2.54l2.72.43c.09.91.19,1.82.27,2.73q3,.12,6,.34Q77.31,27.64,76.18,19.43ZM57.84,23a1.76,1.76,0,0,1-.36,1,2.06,2.06,0,0,1-.77.63,3.39,3.39,0,0,1-1,.33A5.06,5.06,0,0,1,54.6,25l-.3,0c.15-1.44.31-2.89.47-4.34a3.55,3.55,0,0,1,.47-.06,4.21,4.21,0,0,1,.5,0,2.4,2.4,0,0,1,1,.24,1.87,1.87,0,0,1,.68.52,1.91,1.91,0,0,1,.37.74A2.46,2.46,0,0,1,57.84,23Zm12.29,5.86c.5-1.3,1-2.59,1.53-3.89.1,1.39.2,2.79.29,4.18Z"/><path stroke="#000000" fill="none" stroke-width="6" d="M12.09,36.9a1,1,0,0,1-.55-.17,1,1,0,0,1-.43-.65l-1.79-9.9-2.62.65a1,1,0,0,1-.25,0,1,1,0,0,1-.54-.16A1,1,0,0,1,5.47,26l-1-5.46a1,1,0,0,1,.78-1.15c4.63-.94,9.36-1.73,14.05-2.33h.13a1,1,0,0,1,.62.22,1,1,0,0,1,.37.68l.5,4.94A1,1,0,0,1,20.14,24l-2.83.49q.32,5.11.68,10.23a1,1,0,0,1-.79,1c-1.64.34-3.28.7-4.88,1.08A.85.85,0,0,1,12.09,36.9Z"/><path stroke="#000000" fill="none" stroke-width="6" d="M22.14,35.64a1,1,0,0,1-1-.9q-.84-8.4-1.65-16.82a1,1,0,0,1,.87-1.09c4-.48,8-.84,12-1.07h.06a1,1,0,0,1,.69.28,1,1,0,0,1,.31.73c0,.74,0,1.46,0,2.18s0,1.46,0,2.21a1,1,0,0,1-.9,1l-1,.12h0a1,1,0,0,1,.31.74c0,1.21,0,2.42,0,3.64a1,1,0,0,1-.38.78l.9,0a1,1,0,0,1,.68.27,1,1,0,0,1,.32.72v2.57c0,.84,0,1.69,0,2.54a1,1,0,0,1-.91,1c-3.37.29-6.76.69-10.08,1.17Z"/><path stroke="#000000" fill="none" stroke-width="6" d="M33.68,34.43a1,1,0,0,1-.68-.27,1,1,0,0,1-.32-.7l-.18-5.32c-.06-1.77-.12-3.54-.16-5.32l-.1-2.67c0-.89,0-1.8,0-2.71a1,1,0,0,1,.63-.93,19.48,19.48,0,0,1,1.87-.62,17.12,17.12,0,0,1,1.86-.4c.62-.1,1.25-.18,1.88-.22s1.27-.07,1.93-.08h.19a11.58,11.58,0,0,1,2.95.38,8.27,8.27,0,0,1,2.75,1.27,6.46,6.46,0,0,1,2,2.21,6,6,0,0,1,.69,3.08A7.77,7.77,0,0,1,48.66,24,5.6,5.6,0,0,1,48,25.63,6.29,6.29,0,0,1,46.86,27a8.82,8.82,0,0,1-.71.57q1.2,2.1,2.34,4.22a1,1,0,0,1,0,.91,1,1,0,0,1-.73.55c-1.77.29-3.56.62-5.31,1a.71.71,0,0,1-.2,0,1,1,0,0,1-.94-.65c-.49-1.31-1-2.63-1.5-3.94l-.06,3.6a1,1,0,0,1-1,1c-1.67,0-3.37.11-5.05.2Z"/><path stroke="#000000" fill="none" stroke-width="6" d="M78,36.83c-2-.15-3.94-.26-5.91-.34a1,1,0,0,1-1-.91c-.07-.65-.13-1.3-.2-2l-1.15-.18-.69,1.78a1,1,0,0,1-.93.65l-.24,0c-1.94-.48-3.93-.93-5.9-1.33a1.25,1.25,0,0,1-.42-.2c-1.53.13-3.05.28-4.53.45h-.11A1,1,0,0,1,56,34c-.38-1.35-.77-2.7-1.16-4.05-.13,1.19-.25,2.38-.37,3.57a1,1,0,0,1-1,.9h-.06c-1.68-.1-3.38-.17-5-.22a1,1,0,0,1-.7-.32,1,1,0,0,1-.27-.73l.27-5.31c.09-1.77.19-3.54.29-5.33L48,19.88c.05-.89.11-1.79.19-2.7a1,1,0,0,1,.71-.87c.64-.19,1.28-.35,1.91-.47s1.26-.19,1.89-.24,1-.06,1.56-.06h.34c.62,0,1.27,0,1.93.08a11.81,11.81,0,0,1,3.09.65,8.33,8.33,0,0,1,2.64,1.5,6.56,6.56,0,0,1,1.76,2.36,6.09,6.09,0,0,1,.43,3.13,8.86,8.86,0,0,1-.4,1.85A5.93,5.93,0,0,1,62,27.93c-.24.17-.49.34-.76.51.35.75.7,1.51,1,2.27,1.84-4.24,3.78-8.44,5.78-12.51a1,1,0,0,1,.9-.56h.09c2.4.22,4.83.48,7.22.79a1,1,0,0,1,.86.86c.76,5.46,1.38,11,1.85,16.45a1,1,0,0,1-1,1.09ZM55.41,24l.12,0a2.53,2.53,0,0,0,.72-.22,1.49,1.49,0,0,0,.45-.37.88.88,0,0,0,.15-.44,1.8,1.8,0,0,0-.05-.58.77.77,0,0,0-.18-.36.91.91,0,0,0-.34-.25,1.44,1.44,0,0,0-.61-.14h0Z"/></g><rect opacity="0.96" x="32.22" y="19.56" width="41" height="14"/><path fill="url(#Dégradé_sans_nom_76)" d="M19.27,17.56l.51,4.94c-1.24.21-2.48.43-3.71.66.23,3.71.49,7.42.76,11.12-1.64.35-3.26.71-4.89,1.1q-1-5.46-2-10.93c-1.22.29-2.44.6-3.66.91l-1-5.45C9.94,19,14.6,18.17,19.27,17.56Z"/><path fill="url(#Dégradé_sans_nom_76)" d="M32.19,16.22c0,.73,0,1.46,0,2.18s0,1.45,0,2.19c-1.79.19-3.56.41-5.33.65v1.48c1.24-.11,2.48-.21,3.73-.29,0,1.21,0,2.43,0,3.64-1.22.13-2.45.26-3.66.41l0,1.72c1-.09,2-.18,3-.25L32,27.8c0,.86,0,1.72,0,2.57s0,1.7,0,2.55Q27,33.36,22,34.11q-.86-8.41-1.68-16.82Q26.22,16.56,32.19,16.22Z"/><path fill="url(#Dégradé_sans_nom_76)" d="M47.66,21.56a8.26,8.26,0,0,1-.21,1.66,5.06,5.06,0,0,1-.56,1.35,5.28,5.28,0,0,1-1,1.13,9.15,9.15,0,0,1-1.37,1c1,1.66,1.88,3.34,2.78,5-1.79.3-3.56.62-5.33,1q-.93-2.49-1.9-5l-1.5.08-.09,4.88q-2.53.07-5.07.21l-.18-5.32c-.06-1.76-.12-3.54-.17-5.32L33,19.57c0-.88-.05-1.77,0-2.67a15.67,15.67,0,0,1,1.75-.59,15.33,15.33,0,0,1,1.76-.38,17.17,17.17,0,0,1,1.79-.21c.61,0,1.24-.07,1.88-.08A10.48,10.48,0,0,1,43,16a7.58,7.58,0,0,1,2.42,1.12A5.47,5.47,0,0,1,47.09,19,5.06,5.06,0,0,1,47.66,21.56ZM42,21.88a2.57,2.57,0,0,0-.15-.9,2,2,0,0,0-.43-.71,2,2,0,0,0-.72-.46,2.57,2.57,0,0,0-1-.15,2.63,2.63,0,0,0-.49,0,3.55,3.55,0,0,0-.47.09l-.09,4.37H39A5,5,0,0,0,40.05,24a3.38,3.38,0,0,0,1-.41,2.4,2.4,0,0,0,.72-.7A1.84,1.84,0,0,0,42,21.88Z"/><path fill="url(#Dégradé_sans_nom_76)" d="M63.22,22.63a7.4,7.4,0,0,1-.36,1.63,4.7,4.7,0,0,1-.67,1.3,4.92,4.92,0,0,1-1,1.05,8.55,8.55,0,0,1-1.45.87q1.21,2.61,2.34,5.23c-1.81.15-3.61.32-5.4.52-.47-1.71-1-3.41-1.47-5.12l-1.5-.05-.51,4.86c-1.69-.11-3.38-.18-5.07-.23.09-1.78.19-3.55.28-5.32s.18-3.53.29-5.31c0-.9.09-1.79.13-2.67s.11-1.77.19-2.67a17.2,17.2,0,0,1,3.58-.66c.6,0,1.2-.06,1.81,0s1.24,0,1.87.08a10.64,10.64,0,0,1,2.83.59A7.33,7.33,0,0,1,61.39,18a5.61,5.61,0,0,1,1.49,2A5.13,5.13,0,0,1,63.22,22.63Zm-5.64-.16a3.07,3.07,0,0,0-.07-.92,2,2,0,0,0-.38-.74,2,2,0,0,0-.67-.52,2.77,2.77,0,0,0-1-.24,4.17,4.17,0,0,0-.5,0,3.55,3.55,0,0,0-.47.06c-.16,1.44-.32,2.89-.47,4.34h.29a4.45,4.45,0,0,0,1.09-.05,3.22,3.22,0,0,0,1-.33,2.41,2.41,0,0,0,.78-.63A1.76,1.76,0,0,0,57.58,22.47Z"/><path fill="url(#Dégradé_sans_nom_76)" d="M77.68,35.34q-3-.23-5.93-.35c-.08-.91-.17-1.82-.26-2.73-.9-.16-1.81-.3-2.71-.43-.33.84-.65,1.68-1,2.53q-2.94-.73-5.91-1.36,3.21-7.5,6.83-14.87,3.6.33,7.18.81Q77,27.15,77.68,35.34Zm-6-6.69c-.08-1.4-.18-2.79-.28-4.18-.52,1.29-1,2.59-1.53,3.89Z"/><path fill="url(#Dégradé_sans_nom_69)" d="M23.12,39.86a7.34,7.34,0,0,0-2.61-1.58,9.61,9.61,0,0,0-3.33-.55A7.74,7.74,0,0,0,15,38a7.81,7.81,0,0,0-3.53,2.19,7.91,7.91,0,0,0-1.24,1.69,8.68,8.68,0,0,0-1.06,4.14,8,8,0,0,0,1.11,4.09,8.27,8.27,0,0,0,1.27,1.61A7.86,7.86,0,0,0,13.2,53a8.68,8.68,0,0,0,1.94.79,8,8,0,0,0,2.15.28,9.1,9.1,0,0,0,.91,0c.3,0,.6-.08.9-.15l1,2.77,4.29-2.77L22.78,52a7.81,7.81,0,0,0,2-2.83,8.74,8.74,0,0,0,.67-3.4,8.89,8.89,0,0,0-.61-3.35A7.29,7.29,0,0,0,23.12,39.86Zm-3.57,7.26A2.69,2.69,0,0,1,19,48a2.54,2.54,0,0,1-.8.61,2.45,2.45,0,0,1-1.05.23,2.16,2.16,0,0,1-1.06-.26,2.45,2.45,0,0,1-.76-.67A3,3,0,0,1,14.9,47a3.49,3.49,0,0,1-.16-1.06,3.12,3.12,0,0,1,.18-1.07,2.47,2.47,0,0,1,.52-.85,2.43,2.43,0,0,1,.8-.57,2.52,2.52,0,0,1,1.05-.21,2.27,2.27,0,0,1,1.06.24,2.11,2.11,0,0,1,.76.63,2.74,2.74,0,0,1,.46.9,3.39,3.39,0,0,1,.16,1A3.21,3.21,0,0,1,19.55,47.12Z"/><path fill="url(#Dégradé_sans_nom_69)" d="M34.65,38.12c0,.61.07,1.21.09,1.82s0,1.21,0,1.82c0,.16,0,.41,0,.75s0,.72,0,1.16-.06.91-.1,1.42-.1,1-.17,1.52-.16,1-.26,1.46a8.18,8.18,0,0,1-.36,1.25,3.13,3.13,0,0,1-.47.86.81.81,0,0,1-.61.32.63.63,0,0,1-.51-.27,2.25,2.25,0,0,1-.37-.69,5.73,5.73,0,0,1-.24-.93c-.06-.34-.11-.67-.14-1s0-.62-.06-.88,0-.46,0-.59a31,31,0,0,1,.23-3.73c.15-1.24.33-2.47.54-3.7l-5.48-.21c-.2,1.09-.36,2.17-.47,3.26A32.74,32.74,0,0,0,26.05,45c0,.71,0,1.45.1,2.22a15.41,15.41,0,0,0,.35,2.26,11.06,11.06,0,0,0,.72,2.1,6,6,0,0,0,1.17,1.73,5.4,5.4,0,0,0,1.72,1.19,5.88,5.88,0,0,0,2.36.44,5.33,5.33,0,0,0,2.11-.4,6.27,6.27,0,0,0,1.72-1.07,7.85,7.85,0,0,0,1.35-1.61,11.9,11.9,0,0,0,1-2,16.28,16.28,0,0,0,.75-2.2c.2-.76.36-1.52.48-2.26a21.4,21.4,0,0,0,.27-2.15c.06-.7.08-1.34.08-1.91,0-1.11,0-2.21-.14-3.29Z"/><path fill="url(#Dégradé_sans_nom_69)" d="M41.13,54.44l10.1-.24c0-.85.09-1.7.14-2.55s.1-1.7.14-2.56h-5l.12-1.71,3.52-.11.25-3.64H46.94l.12-1.47,5-.26c.06-.74.11-1.46.15-2.18s.08-1.45.13-2.18H41.5Z"/><path fill="url(#Dégradé_sans_nom_69)" d="M63.64,45.14a4.1,4.1,0,0,0-1.28-.9,4.93,4.93,0,0,0-1.68-.4,3.59,3.59,0,0,0-.48,0h-.64l-.68,0a4,4,0,0,1-.64-.13,1.33,1.33,0,0,1-.46-.24.56.56,0,0,1-.2-.42.54.54,0,0,1,.12-.39,1,1,0,0,1,.34-.26,2.08,2.08,0,0,1,.48-.16l.53-.09.51,0H60a8.4,8.4,0,0,1,1.7.18,15.6,15.6,0,0,1,1.67.46l.45-4.76a6.45,6.45,0,0,0-1.09-.41,11.25,11.25,0,0,0-1.18-.27,12.12,12.12,0,0,0-1.21-.15c-.41,0-.8,0-1.18,0a7.8,7.8,0,0,0-2.5.41,6.76,6.76,0,0,0-2.14,1.18A5.75,5.75,0,0,0,53,40.52a5.76,5.76,0,0,0-.23,4.35,4.62,4.62,0,0,0,.92,1.49,4.3,4.3,0,0,0,1.42,1,4.71,4.71,0,0,0,1.84.35h.37l.51,0c.17,0,.36,0,.55.08a1.94,1.94,0,0,1,.5.15,1,1,0,0,1,.36.26.51.51,0,0,1,.14.38.61.61,0,0,1-.2.5,1.25,1.25,0,0,1-.48.27,2.88,2.88,0,0,1-.61.1l-.53,0a9.45,9.45,0,0,1-2.39-.31,8.36,8.36,0,0,1-2.21-.91l-.51,4.83,1.15.5c.43.17.89.34,1.35.49s.94.28,1.39.38a6,6,0,0,0,1.26.15,9.36,9.36,0,0,0,2.79-.4A6.52,6.52,0,0,0,62.63,53a5.63,5.63,0,0,0,1.52-2,6.65,6.65,0,0,0,.56-2.81,5,5,0,0,0-.28-1.71A3.94,3.94,0,0,0,63.64,45.14Z"/><polygon fill="url(#Dégradé_sans_nom_69)" points="64.79 37.7 64.65 43.23 68.14 43.05 68.12 54.16 73.06 53.9 73.95 42.79 77.45 42.65 77.56 37.68 64.79 37.7"/><path  d="M23.12,39.86a7.34,7.34,0,0,0-2.61-1.58,9.61,9.61,0,0,0-3.33-.55A7.74,7.74,0,0,0,15,38a7.81,7.81,0,0,0-3.53,2.19,7.91,7.91,0,0,0-1.24,1.69,8.68,8.68,0,0,0-1.06,4.14,8,8,0,0,0,1.11,4.09,8.27,8.27,0,0,0,1.27,1.61A7.86,7.86,0,0,0,13.2,53a8.68,8.68,0,0,0,1.94.79,8,8,0,0,0,2.15.28,9.1,9.1,0,0,0,.91,0c.3,0,.6-.08.9-.15l1,2.77,4.29-2.77L22.78,52a7.81,7.81,0,0,0,2-2.83,8.74,8.74,0,0,0,.67-3.4,8.89,8.89,0,0,0-.61-3.35A7.29,7.29,0,0,0,23.12,39.86Zm-3.57,7.26A2.69,2.69,0,0,1,19,48a2.54,2.54,0,0,1-.8.61,2.45,2.45,0,0,1-1.05.23,2.16,2.16,0,0,1-1.06-.26,2.45,2.45,0,0,1-.76-.67A3,3,0,0,1,14.9,47a3.49,3.49,0,0,1-.16-1.06,3.12,3.12,0,0,1,.18-1.07,2.47,2.47,0,0,1,.52-.85,2.43,2.43,0,0,1,.8-.57,2.52,2.52,0,0,1,1.05-.21,2.27,2.27,0,0,1,1.06.24,2.11,2.11,0,0,1,.76.63,2.74,2.74,0,0,1,.46.9,3.39,3.39,0,0,1,.16,1A3.21,3.21,0,0,1,19.55,47.12Z"/><path  d="M34.65,38.12c0,.61.07,1.21.09,1.82s0,1.21,0,1.82c0,.16,0,.41,0,.75s0,.72,0,1.16-.06.91-.1,1.42-.1,1-.17,1.52-.16,1-.26,1.46a8.18,8.18,0,0,1-.36,1.25,3.13,3.13,0,0,1-.47.86.81.81,0,0,1-.61.32.63.63,0,0,1-.51-.27,2.25,2.25,0,0,1-.37-.69,5.73,5.73,0,0,1-.24-.93c-.06-.34-.11-.67-.14-1s0-.62-.06-.88,0-.46,0-.59a31,31,0,0,1,.23-3.73c.15-1.24.33-2.47.54-3.7l-5.48-.21c-.2,1.09-.36,2.17-.47,3.26A32.74,32.74,0,0,0,26.05,45c0,.71,0,1.45.1,2.22a15.41,15.41,0,0,0,.35,2.26,11.06,11.06,0,0,0,.72,2.1,6,6,0,0,0,1.17,1.73,5.4,5.4,0,0,0,1.72,1.19,5.88,5.88,0,0,0,2.36.44,5.33,5.33,0,0,0,2.11-.4,6.27,6.27,0,0,0,1.72-1.07,7.85,7.85,0,0,0,1.35-1.61,11.9,11.9,0,0,0,1-2,16.28,16.28,0,0,0,.75-2.2c.2-.76.36-1.52.48-2.26a21.4,21.4,0,0,0,.27-2.15c.06-.7.08-1.34.08-1.91,0-1.11,0-2.21-.14-3.29Z"/><path  d="M41.13,54.44l10.1-.24c0-.85.09-1.7.14-2.55s.1-1.7.14-2.56h-5l.12-1.71,3.52-.11.25-3.64H46.94l.12-1.47,5-.26c.06-.74.11-1.46.15-2.18s.08-1.45.13-2.18H41.5Z"/><path  d="M63.64,45.14a4.1,4.1,0,0,0-1.28-.9,4.93,4.93,0,0,0-1.68-.4,3.59,3.59,0,0,0-.48,0h-.64l-.68,0a4,4,0,0,1-.64-.13,1.33,1.33,0,0,1-.46-.24.56.56,0,0,1-.2-.42.54.54,0,0,1,.12-.39,1,1,0,0,1,.34-.26,2.08,2.08,0,0,1,.48-.16l.53-.09.51,0H60a8.4,8.4,0,0,1,1.7.18,15.6,15.6,0,0,1,1.67.46l.45-4.76a6.45,6.45,0,0,0-1.09-.41,11.25,11.25,0,0,0-1.18-.27,12.12,12.12,0,0,0-1.21-.15c-.41,0-.8,0-1.18,0a7.8,7.8,0,0,0-2.5.41,6.76,6.76,0,0,0-2.14,1.18A5.75,5.75,0,0,0,53,40.52a5.76,5.76,0,0,0-.23,4.35,4.62,4.62,0,0,0,.92,1.49,4.3,4.3,0,0,0,1.42,1,4.71,4.71,0,0,0,1.84.35h.37l.51,0c.17,0,.36,0,.55.08a1.94,1.94,0,0,1,.5.15,1,1,0,0,1,.36.26.51.51,0,0,1,.14.38.61.61,0,0,1-.2.5,1.25,1.25,0,0,1-.48.27,2.88,2.88,0,0,1-.61.1l-.53,0a9.45,9.45,0,0,1-2.39-.31,8.36,8.36,0,0,1-2.21-.91l-.51,4.83,1.15.5c.43.17.89.34,1.35.49s.94.28,1.39.38a6,6,0,0,0,1.26.15,9.36,9.36,0,0,0,2.79-.4A6.52,6.52,0,0,0,62.63,53a5.63,5.63,0,0,0,1.52-2,6.65,6.65,0,0,0,.56-2.81,5,5,0,0,0-.28-1.71A3.94,3.94,0,0,0,63.64,45.14Z"/><polygon  points="64.79 37.7 64.65 43.23 68.14 43.05 68.12 54.16 73.06 53.9 73.95 42.79 77.45 42.65 77.56 37.68 64.79 37.7"/><path stroke="#000000" fill="none" stroke-width="6" d="M20.11,57.64a1.13,1.13,0,0,1-.32,0,1,1,0,0,1-.62-.61l-.73-2-.13,0c-.34,0-.68.05-1,.05a9.23,9.23,0,0,1-2.42-.31,9.54,9.54,0,0,1-2.16-.89,9,9,0,0,1-1.85-1.39,9.64,9.64,0,0,1-1.43-1.82,8.69,8.69,0,0,1-.92-2.17,9,9,0,0,1-.33-2.43,9.53,9.53,0,0,1,1.19-4.62,9.23,9.23,0,0,1,1.38-1.9A9,9,0,0,1,12.56,38a8.87,8.87,0,0,1,2.17-1,8.58,8.58,0,0,1,2.45-.34,10.63,10.63,0,0,1,3.67.61,8.45,8.45,0,0,1,3,1.79A8.3,8.3,0,0,1,25.74,42a9.68,9.68,0,0,1,.69,3.73,10,10,0,0,1-.74,3.78A9,9,0,0,1,24.13,52l1,1.23a1,1,0,0,1,.22.79,1,1,0,0,1-.44.7l-4.29,2.76A1,1,0,0,1,20.11,57.64ZM17.29,44.23a1.6,1.6,0,0,0-.65.13,1.31,1.31,0,0,0-.47.32,1.55,1.55,0,0,0-.31.53,2.05,2.05,0,0,0-.12.72,2.87,2.87,0,0,0,.11.77,2.26,2.26,0,0,0,.32.64,1.38,1.38,0,0,0,.44.39,1.12,1.12,0,0,0,.57.13,1.33,1.33,0,0,0,.61-.13,1.48,1.48,0,0,0,.49-.37,1.72,1.72,0,0,0,.33-.58,2.19,2.19,0,0,0,.12-.73,2.79,2.79,0,0,0-.11-.76,1.88,1.88,0,0,0-.3-.58,1.15,1.15,0,0,0-.43-.35A1.33,1.33,0,0,0,17.29,44.23Z"/><path stroke="#000000" fill="none" stroke-width="6" d="M32.47,56a6.79,6.79,0,0,1-2.76-.53,6.39,6.39,0,0,1-2-1.4,7.42,7.42,0,0,1-1.36-2,12.35,12.35,0,0,1-.78-2.29,17.39,17.39,0,0,1-.38-2.4c-.07-.8-.1-1.57-.1-2.31a31.88,31.88,0,0,1,.17-3.38c.11-1.11.27-2.24.48-3.34a1,1,0,0,1,1-.82l5.52.21a1,1,0,0,1,.95,1.17c-.21,1.21-.39,2.43-.54,3.65a31.09,31.09,0,0,0-.22,3.61c0,.12,0,.31,0,.55s0,.52.06.83.07.6.12.92a4.69,4.69,0,0,0,.19.74l.1-.22a8.84,8.84,0,0,0,.31-1.1c.1-.44.18-.91.25-1.39s.12-1,.16-1.47.08-1,.1-1.39,0-.8,0-1.13,0-.56,0-.72c0-.6,0-1.2,0-1.79s-.05-1.19-.09-1.78a1,1,0,0,1,.27-.75,1,1,0,0,1,.73-.32h5.48a1,1,0,0,1,1,.92c.1,1.1.14,2.23.14,3.37,0,.6,0,1.27-.08,2s-.15,1.48-.28,2.25-.3,1.56-.51,2.34a16,16,0,0,1-.79,2.33,13.4,13.4,0,0,1-1.11,2.13A8.77,8.77,0,0,1,37,54.25a7.19,7.19,0,0,1-2,1.26A6.5,6.5,0,0,1,32.47,56Z"/><path stroke="#000000" fill="none" stroke-width="6" d="M41.13,55.44a1,1,0,0,1-.71-.3,1,1,0,0,1-.29-.73l.37-16.89a1,1,0,0,1,1-1H52.31a1,1,0,0,1,.73.31,1.05,1.05,0,0,1,.27.75c-.05.73-.09,1.46-.13,2.17S53.09,41.24,53,42a1,1,0,0,1-.94.92l-.92.05h0a1,1,0,0,1,.26.75l-.26,3.64a1,1,0,0,1-.43.75h.77a1,1,0,0,1,.73.32,1,1,0,0,1,.27.74c0,.86-.09,1.71-.15,2.56s-.09,1.69-.13,2.54a1,1,0,0,1-1,1Z"/><path stroke="#000000" fill="none" stroke-width="6" d="M57.58,55.6a7.22,7.22,0,0,1-1.47-.17c-.49-.11-1-.25-1.48-.41s-1-.33-1.42-.52S52.35,54.15,52,54a1,1,0,0,1-.57-1L52,48.14a1,1,0,0,1,.55-.79,1.13,1.13,0,0,1,.44-.1,1.07,1.07,0,0,1,.25,0L53,47a5.28,5.28,0,0,1-1.13-1.81A6.3,6.3,0,0,1,51.43,43a6.41,6.41,0,0,1,.66-2.93,6.64,6.64,0,0,1,1.75-2.18,7.61,7.61,0,0,1,2.45-1.36,8.91,8.91,0,0,1,2.82-.46c.4,0,.82,0,1.25,0s.88.09,1.31.16.87.18,1.29.3A7.38,7.38,0,0,1,64.2,37a1,1,0,0,1,.57,1l-.45,4.76a1,1,0,0,1-.88.9,4.69,4.69,0,0,1,1.94,2.46,6.21,6.21,0,0,1,.33,2.05,7.66,7.66,0,0,1-.65,3.23,6.66,6.66,0,0,1-1.8,2.35,7.55,7.55,0,0,1-2.6,1.38A10.57,10.57,0,0,1,57.58,55.6Z"/><path stroke="#000000" fill="none" stroke-width="6" d="M68.12,55.16a1,1,0,0,1-.69-.28,1,1,0,0,1-.31-.73l0-10-2.49.13A1,1,0,0,1,64,44a1,1,0,0,1-.3-.74l.14-5.53a1,1,0,0,1,1-1l12.77,0a1,1,0,0,1,.72.3,1,1,0,0,1,.28.72l-.11,5a1,1,0,0,1-1,1l-2.61.1L74.06,54a1,1,0,0,1-.94.92Z"/><rect x="24.22" y="38.56" width="38" height="14"/><path fill="url(#Dégradé_sans_nom_70)" d="M25.47,46.33a8.86,8.86,0,0,1-.66,3.39,7.88,7.88,0,0,1-2,2.84l1.62,1.92-4.29,2.77-1-2.77c-.3.06-.59.11-.89.14s-.61.05-.91.05a8.1,8.1,0,0,1-2.16-.28,8.42,8.42,0,0,1-1.93-.79,7.61,7.61,0,0,1-1.64-1.24,7.39,7.39,0,0,1-1.27-1.62,7.85,7.85,0,0,1-.83-1.92,8.23,8.23,0,0,1-.28-2.17,8.64,8.64,0,0,1,.27-2.16,8.73,8.73,0,0,1,.79-2,8.56,8.56,0,0,1,1.23-1.7,8.15,8.15,0,0,1,1.61-1.32,7.56,7.56,0,0,1,1.92-.86,7.74,7.74,0,0,1,2.17-.31,9.86,9.86,0,0,1,3.33.55,7.42,7.42,0,0,1,2.61,1.59A7.06,7.06,0,0,1,24.86,43,8.66,8.66,0,0,1,25.47,46.33Zm-5.7.32a3.63,3.63,0,0,0-.15-1,2.81,2.81,0,0,0-.47-.91,2.1,2.1,0,0,0-.76-.62,2.2,2.2,0,0,0-1.05-.24,2.57,2.57,0,0,0-1.06.21,2.17,2.17,0,0,0-.8.57,2.7,2.7,0,0,0-.52.85,3.08,3.08,0,0,0-.18,1.07,3.84,3.84,0,0,0,.16,1.06,3.29,3.29,0,0,0,.46.94,2.49,2.49,0,0,0,.77.67,2.1,2.1,0,0,0,1,.26,2.41,2.41,0,0,0,1.86-.85,2.69,2.69,0,0,0,.51-.89A3.22,3.22,0,0,0,19.77,46.65Z"/><path fill="url(#Dégradé_sans_nom_70)" d="M40.32,42c0,.58,0,1.22-.08,1.91s-.15,1.42-.27,2.16-.29,1.49-.49,2.26a17.07,17.07,0,0,1-.74,2.19,13.74,13.74,0,0,1-1,2,7.87,7.87,0,0,1-1.36,1.6,5.94,5.94,0,0,1-1.72,1.08,5.47,5.47,0,0,1-2.11.39,5.75,5.75,0,0,1-2.36-.44A5.22,5.22,0,0,1,28.43,54a6.58,6.58,0,0,1-1.17-1.73,11,11,0,0,1-.71-2.1,16.89,16.89,0,0,1-.36-2.26c-.07-.77-.1-1.51-.1-2.22,0-1.1.06-2.19.16-3.28s.27-2.18.47-3.26l5.49.21c-.21,1.22-.39,2.46-.55,3.7a30.87,30.87,0,0,0-.23,3.73c0,.13,0,.33,0,.59s0,.55.07.88.07.65.13,1a5.86,5.86,0,0,0,.24.94,2.48,2.48,0,0,0,.37.69.66.66,0,0,0,.51.27.79.79,0,0,0,.61-.32,3,3,0,0,0,.47-.87,8,8,0,0,0,.36-1.24c.1-.47.19-1,.26-1.46s.13-1,.17-1.53.08-1,.11-1.41,0-.83,0-1.16,0-.59,0-.75q0-.91,0-1.83c0-.6-.05-1.21-.09-1.81h5.49C40.27,39.81,40.32,40.9,40.32,42Z"/><path fill="url(#Dégradé_sans_nom_70)" d="M52.35,38.15c0,.73-.09,1.46-.13,2.18s-.09,1.44-.15,2.18l-5,.25L47,44.24h3.49l-.26,3.63L46.7,48l-.11,1.71h5l-.15,2.56c0,.85-.1,1.7-.14,2.55L41.17,55l.38-16.89Z"/><path fill="url(#Dégradé_sans_nom_70)" d="M64.75,48.81a6.5,6.5,0,0,1-.56,2.81,5.6,5.6,0,0,1-1.52,2,6.6,6.6,0,0,1-2.26,1.19,9.25,9.25,0,0,1-2.78.4,5.83,5.83,0,0,1-1.26-.15c-.46-.11-.92-.23-1.39-.38s-.92-.32-1.36-.5-.81-.34-1.15-.49L53,48.86a8.29,8.29,0,0,0,2.2.91,10,10,0,0,0,2.39.31l.54,0a2.36,2.36,0,0,0,.6-.11,1.28,1.28,0,0,0,.49-.26.65.65,0,0,0,.2-.5.6.6,0,0,0-.14-.39,1.1,1.1,0,0,0-.37-.25,2.26,2.26,0,0,0-.5-.16,5.52,5.52,0,0,0-.55-.07l-.51,0H57a4.52,4.52,0,0,1-1.83-.35,4.06,4.06,0,0,1-1.42-1,4.31,4.31,0,0,1-.92-1.48,5.22,5.22,0,0,1-.33-1.87A5.42,5.42,0,0,1,53,41.13a5.72,5.72,0,0,1,1.48-1.86,6.67,6.67,0,0,1,2.14-1.18,7.58,7.58,0,0,1,2.5-.41c.38,0,.78,0,1.18,0a10.16,10.16,0,0,1,1.22.15c.4.07.79.16,1.17.26a7,7,0,0,1,1.09.41l-.44,4.76a14.07,14.07,0,0,0-1.67-.45A8.43,8.43,0,0,0,60,42.67H59.6l-.5,0a5.07,5.07,0,0,0-.54.09,2.08,2.08,0,0,0-.48.16.88.88,0,0,0-.34.26.58.58,0,0,0-.11.39.52.52,0,0,0,.19.41,1.24,1.24,0,0,0,.47.25,2.94,2.94,0,0,0,.63.12,5.32,5.32,0,0,0,.69,0h.63l.48,0a4.77,4.77,0,0,1,1.69.4,4.06,4.06,0,0,1,1.27.9,3.92,3.92,0,0,1,.8,1.34A5.26,5.26,0,0,1,64.75,48.81Z"/><path fill="url(#Dégradé_sans_nom_70)" d="M77.61,38.29l-.12,5L74,43.4l-.89,11.11-5,.25,0-11.11-3.49.19.14-5.53Z"/><path stroke="url(#Dégradé_sans_nom_76)" fill="none"  d="M12.09,39.9a4,4,0,0,1-2.19-.66,4,4,0,0,1-1.74-2.63L6.93,29.84l-.48,0a4,4,0,0,1-2.16-.63,4.06,4.06,0,0,1-1.78-2.67L1.56,21.1A4,4,0,0,1,4.7,16.49c4.7-1,9.5-1.76,14.27-2.37l.51,0a4,4,0,0,1,4,3.6L24,22.63A4,4,0,0,1,20.63,27l-.15,0q.24,3.75.5,7.52a4,4,0,0,1-3.18,4.2c-1.6.33-3.21.69-4.79,1.06A4.06,4.06,0,0,1,12.09,39.9Z"/><path stroke="url(#Dégradé_sans_nom_76)" fill="none"  d="M22.14,38.64a4,4,0,0,1-4-3.6q-.84-8.41-1.65-16.83A4,4,0,0,1,20,13.85c4-.49,8.13-.85,12.17-1.08h.23a4,4,0,0,1,4,4c0,.72,0,1.44,0,2.14s0,1.53,0,2.31a4,4,0,0,1-1.61,3.08v.88l.24.2a4,4,0,0,1,1.27,2.9V30.9c0,.83,0,1.66,0,2.49a4,4,0,0,1-3.65,4.06c-3.31.29-6.64.67-9.91,1.15A3.69,3.69,0,0,1,22.14,38.64Z"/><path stroke="url(#Dégradé_sans_nom_76)" fill="none"  d="M33.68,37.43a4,4,0,0,1-2.7-1,4,4,0,0,1-1.3-2.82l-.18-5.32c-.06-1.77-.12-3.55-.16-5.35l-.1-2.63c0-.94,0-1.88,0-2.83a4,4,0,0,1,2.52-3.7A20.9,20.9,0,0,1,33.91,13c.71-.19,1.45-.35,2.18-.47s1.42-.19,2.14-.24,1.38-.08,2.09-.09h.24a14.51,14.51,0,0,1,3.73.48A11.26,11.26,0,0,1,48,14.41a9.48,9.48,0,0,1,2.84,3.2,8.94,8.94,0,0,1,1,4.59,11.21,11.21,0,0,1-.33,2.53,9,9,0,0,1-1,2.46c-.2.32-.42.63-.65.93.41.74.82,1.49,1.22,2.24a4,4,0,0,1-2.86,5.84c-1.75.29-3.5.61-5.23.95a3.44,3.44,0,0,1-.78.08,3.92,3.92,0,0,1-1.76-.41,4.08,4.08,0,0,1-1.64.4c-1.65,0-3.32.11-5,.2Z"/><path stroke="url(#Dégradé_sans_nom_76)" fill="none"  d="M78,39.83h-.3c-1.92-.15-3.87-.26-5.81-.34a4,4,0,0,1-2.35-.88,4.19,4.19,0,0,1-1.45.27,3.93,3.93,0,0,1-1-.12c-1.91-.46-3.86-.9-5.8-1.31l-.32-.08c-1.24.11-2.47.24-3.68.38l-.45,0a4,4,0,0,1-2.06-.57,4,4,0,0,1-1.42.26H53.2c-1.66-.1-3.33-.17-5-.22A4,4,0,0,1,44.36,33l.27-5.32c.08-1.77.18-3.55.29-5.34l.13-2.64c0-.93.11-1.87.19-2.82a4,4,0,0,1,2.83-3.47,19.55,19.55,0,0,1,4.44-.83c.6,0,1.19-.07,1.79-.07h.39c.67,0,1.37,0,2.08.09a14.64,14.64,0,0,1,3.91.82,11.53,11.53,0,0,1,3.57,2,9,9,0,0,1,1.22,1.25A4,4,0,0,1,69,14.64h.37c2.43.22,4.9.5,7.33.81a4,4,0,0,1,3.45,3.42C80.9,24.39,81.53,30,82,35.48a4,4,0,0,1-4,4.35Z"/><path stroke="url(#Dégradé_sans_nom_76)" fill="none"  d="M12.09,39.9a4,4,0,0,1-2.19-.66,4,4,0,0,1-1.74-2.63L6.93,29.84l-.48,0a4,4,0,0,1-2.16-.63,4.06,4.06,0,0,1-1.78-2.67L1.56,21.1A4,4,0,0,1,4.7,16.49c4.7-1,9.5-1.76,14.27-2.37l.51,0a4,4,0,0,1,4,3.6L24,22.63A4,4,0,0,1,20.63,27l-.15,0q.24,3.75.5,7.52a4,4,0,0,1-3.18,4.2c-1.6.33-3.21.69-4.79,1.06A4.06,4.06,0,0,1,12.09,39.9Z"/><path stroke="url(#Dégradé_sans_nom_76)" fill="none"  d="M22.14,38.64a4,4,0,0,1-4-3.6q-.84-8.41-1.65-16.83A4,4,0,0,1,20,13.85c4-.49,8.13-.85,12.17-1.08h.23a4,4,0,0,1,4,4c0,.72,0,1.44,0,2.14s0,1.53,0,2.31a4,4,0,0,1-1.61,3.08v.88l.24.2a4,4,0,0,1,1.27,2.9V30.9c0,.83,0,1.66,0,2.49a4,4,0,0,1-3.65,4.06c-3.31.29-6.64.67-9.91,1.15A3.69,3.69,0,0,1,22.14,38.64Z"/><path stroke="url(#Dégradé_sans_nom_76)" fill="none"  d="M33.68,37.43a4,4,0,0,1-2.7-1,4,4,0,0,1-1.3-2.82l-.18-5.32c-.06-1.77-.12-3.55-.16-5.35l-.1-2.63c0-.94,0-1.88,0-2.83a4,4,0,0,1,2.52-3.7A20.9,20.9,0,0,1,33.91,13c.71-.19,1.45-.35,2.18-.47s1.42-.19,2.14-.24,1.38-.08,2.09-.09h.24a14.51,14.51,0,0,1,3.73.48A11.26,11.26,0,0,1,48,14.41a9.48,9.48,0,0,1,2.84,3.2,8.94,8.94,0,0,1,1,4.59,11.21,11.21,0,0,1-.33,2.53,9,9,0,0,1-1,2.46c-.2.32-.42.63-.65.93.41.74.82,1.49,1.22,2.24a4,4,0,0,1-2.86,5.84c-1.75.29-3.5.61-5.23.95a3.44,3.44,0,0,1-.78.08,3.92,3.92,0,0,1-1.76-.41,4.08,4.08,0,0,1-1.64.4c-1.65,0-3.32.11-5,.2Z"/><path stroke="url(#Dégradé_sans_nom_76)" fill="none"  d="M78,39.83h-.3c-1.92-.15-3.87-.26-5.81-.34a4,4,0,0,1-2.35-.88,4.19,4.19,0,0,1-1.45.27,3.93,3.93,0,0,1-1-.12c-1.91-.46-3.86-.9-5.8-1.31l-.32-.08c-1.24.11-2.47.24-3.68.38l-.45,0a4,4,0,0,1-2.06-.57,4,4,0,0,1-1.42.26H53.2c-1.66-.1-3.33-.17-5-.22A4,4,0,0,1,44.36,33l.27-5.32c.08-1.77.18-3.55.29-5.34l.13-2.64c0-.93.11-1.87.19-2.82a4,4,0,0,1,2.83-3.47,19.55,19.55,0,0,1,4.44-.83c.6,0,1.19-.07,1.79-.07h.39c.67,0,1.37,0,2.08.09a14.64,14.64,0,0,1,3.91.82,11.53,11.53,0,0,1,3.57,2,9,9,0,0,1,1.22,1.25A4,4,0,0,1,69,14.64h.37c2.43.22,4.9.5,7.33.81a4,4,0,0,1,3.45,3.42C80.9,24.39,81.53,30,82,35.48a4,4,0,0,1-4,4.35Z"/><path stroke="url(#Dégradé_sans_nom_76)" fill="none"  d="M12.09,39.9a4,4,0,0,1-2.19-.66,4,4,0,0,1-1.74-2.63L6.93,29.84l-.48,0a4,4,0,0,1-2.16-.63,4.06,4.06,0,0,1-1.78-2.67L1.56,21.1A4,4,0,0,1,4.7,16.49c4.7-1,9.5-1.76,14.27-2.37l.51,0a4,4,0,0,1,4,3.6L24,22.63A4,4,0,0,1,20.63,27l-.15,0q.24,3.75.5,7.52a4,4,0,0,1-3.18,4.2c-1.6.33-3.21.69-4.79,1.06A4.06,4.06,0,0,1,12.09,39.9Z"/><path stroke="url(#Dégradé_sans_nom_76)" fill="none"  d="M22.14,38.64a4,4,0,0,1-4-3.6q-.84-8.41-1.65-16.83A4,4,0,0,1,20,13.85c4-.49,8.13-.85,12.17-1.08h.23a4,4,0,0,1,4,4c0,.72,0,1.44,0,2.14s0,1.53,0,2.31a4,4,0,0,1-1.61,3.08v.88l.24.2a4,4,0,0,1,1.27,2.9V30.9c0,.83,0,1.66,0,2.49a4,4,0,0,1-3.65,4.06c-3.31.29-6.64.67-9.91,1.15A3.69,3.69,0,0,1,22.14,38.64Z"/><path stroke="url(#Dégradé_sans_nom_76)" fill="none"  d="M33.68,37.43a4,4,0,0,1-2.7-1,4,4,0,0,1-1.3-2.82l-.18-5.32c-.06-1.77-.12-3.55-.16-5.35l-.1-2.63c0-.94,0-1.88,0-2.83a4,4,0,0,1,2.52-3.7A20.9,20.9,0,0,1,33.91,13c.71-.19,1.45-.35,2.18-.47s1.42-.19,2.14-.24,1.38-.08,2.09-.09h.24a14.51,14.51,0,0,1,3.73.48A11.26,11.26,0,0,1,48,14.41a9.48,9.48,0,0,1,2.84,3.2,8.94,8.94,0,0,1,1,4.59,11.21,11.21,0,0,1-.33,2.53,9,9,0,0,1-1,2.46c-.2.32-.42.63-.65.93.41.74.82,1.49,1.22,2.24a4,4,0,0,1-2.86,5.84c-1.75.29-3.5.61-5.23.95a3.44,3.44,0,0,1-.78.08,3.92,3.92,0,0,1-1.76-.41,4.08,4.08,0,0,1-1.64.4c-1.65,0-3.32.11-5,.2Z"/><path stroke="url(#Dégradé_sans_nom_76)" fill="none"  d="M78,39.83h-.3c-1.92-.15-3.87-.26-5.81-.34a4,4,0,0,1-2.35-.88,4.19,4.19,0,0,1-1.45.27,3.93,3.93,0,0,1-1-.12c-1.91-.46-3.86-.9-5.8-1.31l-.32-.08c-1.24.11-2.47.24-3.68.38l-.45,0a4,4,0,0,1-2.06-.57,4,4,0,0,1-1.42.26H53.2c-1.66-.1-3.33-.17-5-.22A4,4,0,0,1,44.36,33l.27-5.32c.08-1.77.18-3.55.29-5.34l.13-2.64c0-.93.11-1.87.19-2.82a4,4,0,0,1,2.83-3.47,19.55,19.55,0,0,1,4.44-.83c.6,0,1.19-.07,1.79-.07h.39c.67,0,1.37,0,2.08.09a14.64,14.64,0,0,1,3.91.82,11.53,11.53,0,0,1,3.57,2,9,9,0,0,1,1.22,1.25A4,4,0,0,1,69,14.64h.37c2.43.22,4.9.5,7.33.81a4,4,0,0,1,3.45,3.42C80.9,24.39,81.53,30,82,35.48a4,4,0,0,1-4,4.35Z"/><path stroke="url(#Dégradé_sans_nom_76)" fill="none"  d="M12.09,40.9a5,5,0,0,1-2.74-.82,5,5,0,0,1-2.18-3.29L6.1,30.85a5,5,0,0,1-4.57-4.12L.58,21.27A5,5,0,0,1,4.5,15.51c4.73-1,9.55-1.77,14.34-2.38a5,5,0,0,1,5.61,4.46l.5,4.94a5,5,0,0,1-3.42,5.26c.14,2.22.29,4.45.45,6.67a5,5,0,0,1-4,5.25c-1.62.33-3.22.69-4.77,1A4.77,4.77,0,0,1,12.09,40.9Z"/><path stroke="url(#Dégradé_sans_nom_76)" fill="none"  d="M22.14,39.64a5,5,0,0,1-5-4.5q-.84-8.41-1.66-16.84a5,5,0,0,1,4.38-5.44c4.06-.49,8.17-.86,12.23-1.09h.29a5,5,0,0,1,5,5.06c0,.72,0,1.43,0,2.13s0,1.55,0,2.34a5,5,0,0,1-1.59,3.5,5,5,0,0,1,1.49,3.53v2.57c0,.84,0,1.66,0,2.49a5,5,0,0,1-4.57,5.06c-3.28.29-6.59.68-9.84,1.15A4.64,4.64,0,0,1,22.14,39.64Z"/><path stroke="url(#Dégradé_sans_nom_76)" fill="none"  d="M33.68,38.43a5,5,0,0,1-5-4.83l-.18-5.32c-.06-1.78-.12-3.57-.16-5.36l-.1-2.63c0-.95,0-1.9,0-2.87a5,5,0,0,1,3.15-4.62,22.17,22.17,0,0,1,2.3-.77,20.14,20.14,0,0,1,2.28-.49c.73-.12,1.49-.21,2.24-.26s1.4-.08,2.14-.09h.22a15.28,15.28,0,0,1,4,.52,12.33,12.33,0,0,1,4.05,1.88,10.64,10.64,0,0,1,3.13,3.54,10,10,0,0,1,1.17,5.1A12.09,12.09,0,0,1,52.54,25a9.66,9.66,0,0,1-1.13,2.73l-.32.49c.31.56.62,1.12.92,1.68a5,5,0,0,1-3.57,7.3c-1.75.29-3.49.61-5.2,1a4.4,4.4,0,0,1-1,.1,5,5,0,0,1-1.76-.32,5.29,5.29,0,0,1-1.61.31c-1.64,0-3.3.11-4.93.2Z"/><path stroke="url(#Dégradé_sans_nom_76)" fill="none"  d="M78,40.83l-.39,0c-1.87-.14-3.82-.25-5.76-.33a4.91,4.91,0,0,1-2.48-.78,4.94,4.94,0,0,1-1.28.17,4.79,4.79,0,0,1-1.19-.15c-1.91-.46-3.84-.9-5.76-1.3L61,38.37c-1.17.11-2.33.23-3.47.36a4.79,4.79,0,0,1-.57,0,4.91,4.91,0,0,1-2.15-.49,4.93,4.93,0,0,1-1.34.18h-.25c-1.7-.1-3.36-.17-5-.22A5,5,0,0,1,43.36,33l.27-5.32c.09-1.77.18-3.56.29-5.35l.13-2.62c0-1,.11-1.91.2-2.87a5,5,0,0,1,3.54-4.34,20.77,20.77,0,0,1,2.33-.57,23,23,0,0,1,2.32-.3c.63,0,1.25-.07,1.86-.07h.37c.71,0,1.43,0,2.17.09a15.41,15.41,0,0,1,4.18.88,12.5,12.5,0,0,1,3.88,2.22c.17.14.33.29.49.45A5,5,0,0,1,69,13.64l.47,0c2.45.22,4.93.49,7.35.81a5,5,0,0,1,4.31,4.27c.77,5.53,1.4,11.13,1.88,16.65a5,5,0,0,1-1.42,4A5,5,0,0,1,78,40.83Z"/><rect stroke="url(#Dégradé_sans_nom_76)" fill="none"  x="28.22" y="15.56" width="49" height="22" rx="4"/><path stroke="url(#Dégradé_sans_nom_76)" fill="none"  d="M11.94,39.38A4,4,0,0,1,8,36.1L6.77,29.33a3.91,3.91,0,0,1-.49,0,4,4,0,0,1-2.15-.63,4,4,0,0,1-1.78-2.67l-1-5.45A4,4,0,0,1,4.5,16c4.7-1,9.5-1.79,14.25-2.41l.52,0a4,4,0,0,1,4,3.59l.51,4.94a4,4,0,0,1-3.33,4.36l-.14,0c.17,2.51.34,5,.53,7.52a4,4,0,0,1-3.17,4.21c-1.61.34-3.22.7-4.77,1.07A4.31,4.31,0,0,1,11.94,39.38Z"/><path stroke="url(#Dégradé_sans_nom_76)" fill="none"  d="M22,38.11a4,4,0,0,1-2.45-.84A4.06,4.06,0,0,1,18,34.52q-.86-8.42-1.68-16.84a4,4,0,0,1,3.5-4.36c4-.49,8.1-.86,12.15-1.1h.24a4,4,0,0,1,4,4c0,.72,0,1.43,0,2.13s0,1.53,0,2.31a4,4,0,0,1-1.6,3.08v.88l.24.21A4,4,0,0,1,36,27.78v2.57c0,.83,0,1.66,0,2.5a4,4,0,0,1-3.65,4c-3.3.29-6.62.68-9.87,1.17A5.65,5.65,0,0,1,22,38.11Z"/><path stroke="url(#Dégradé_sans_nom_76)" fill="none"  d="M33.46,36.88a4,4,0,0,1-4-3.86l-.18-5.32c-.06-1.77-.12-3.56-.17-5.35L29,19.71c0-.93-.05-1.87,0-2.82a4,4,0,0,1,2.51-3.71c.72-.28,1.46-.53,2.18-.73s1.45-.35,2.17-.47,1.43-.2,2.16-.25,1.38-.08,2.09-.09h.23a14.09,14.09,0,0,1,3.73.49,11.31,11.31,0,0,1,3.73,1.74,9.56,9.56,0,0,1,2.83,3.2,9.07,9.07,0,0,1,1,4.6,11.8,11.8,0,0,1-.34,2.53,8.74,8.74,0,0,1-1,2.44,8.6,8.6,0,0,1-.65.93l1.22,2.25A4,4,0,0,1,48,35.65c-1.75.29-3.5.62-5.2,1a4.32,4.32,0,0,1-.79.08,4.06,4.06,0,0,1-1.76-.41,3.84,3.84,0,0,1-1.63.39c-1.66,0-3.32.11-4.94.2Z"/><path stroke="url(#Dégradé_sans_nom_76)" fill="none"  d="M56.63,37.23a4,4,0,0,1-2.05-.57,4,4,0,0,1-1.42.26h-.24c-1.62-.1-3.28-.17-5-.22a4,4,0,0,1-2.82-1.29,4,4,0,0,1-1-2.92l.27-5.31c.09-1.78.19-3.56.3-5.35l.13-2.63c.05-.94.11-1.87.2-2.82a4,4,0,0,1,2.83-3.47,21.3,21.3,0,0,1,2.23-.55,20.86,20.86,0,0,1,2.21-.28C52.84,12,53.44,12,54,12h.4c.69,0,1.38,0,2.09.09a14.56,14.56,0,0,1,3.91.82A11.59,11.59,0,0,1,64,15a9.5,9.5,0,0,1,2.55,3.44,9,9,0,0,1,.65,4.67,11.79,11.79,0,0,1-.54,2.49,9,9,0,0,1-1.24,2.36,8.41,8.41,0,0,1-.72.86q.53,1.18,1,2.34a4,4,0,0,1-3.36,5.57c-1.73.14-3.51.31-5.27.5Z"/><path stroke="url(#Dégradé_sans_nom_76)" fill="none"  d="M77.68,39.34h-.31c-1.93-.15-3.87-.27-5.79-.35a3.91,3.91,0,0,1-2.35-.89,3.83,3.83,0,0,1-1.43.27,4,4,0,0,1-1-.12c-1.9-.47-3.84-.91-5.78-1.32a4,4,0,0,1-2.85-5.49c2.16-5.05,4.49-10.12,6.93-15.07a4,4,0,0,1,3.58-2.23,2.23,2.23,0,0,1,.37,0c2.44.22,4.9.5,7.33.82a4,4,0,0,1,3.44,3.43c.75,5.52,1.35,11.11,1.81,16.62a4,4,0,0,1-4,4.32Z"/><path stroke="url(#Dégradé_sans_nom_76)" fill="none"  d="M11.94,39.38A4,4,0,0,1,8,36.1L6.77,29.33a3.91,3.91,0,0,1-.49,0,4,4,0,0,1-2.15-.63,4,4,0,0,1-1.78-2.67l-1-5.45A4,4,0,0,1,4.5,16c4.7-1,9.5-1.79,14.25-2.41l.52,0a4,4,0,0,1,4,3.59l.51,4.94a4,4,0,0,1-3.33,4.36l-.14,0c.17,2.51.34,5,.53,7.52a4,4,0,0,1-3.17,4.21c-1.61.34-3.22.7-4.77,1.07A4.31,4.31,0,0,1,11.94,39.38Z"/><path stroke="url(#Dégradé_sans_nom_76)" fill="none"  d="M22,38.11a4,4,0,0,1-2.45-.84A4.06,4.06,0,0,1,18,34.52q-.86-8.42-1.68-16.84a4,4,0,0,1,3.5-4.36c4-.49,8.1-.86,12.15-1.1h.24a4,4,0,0,1,4,4c0,.72,0,1.43,0,2.13s0,1.53,0,2.31a4,4,0,0,1-1.6,3.08v.88l.24.21A4,4,0,0,1,36,27.78v2.57c0,.83,0,1.66,0,2.5a4,4,0,0,1-3.65,4c-3.3.29-6.62.68-9.87,1.17A5.65,5.65,0,0,1,22,38.11Z"/><path stroke="url(#Dégradé_sans_nom_76)" fill="none"  d="M33.46,36.88a4,4,0,0,1-4-3.86l-.18-5.32c-.06-1.77-.12-3.56-.17-5.35L29,19.71c0-.93-.05-1.87,0-2.82a4,4,0,0,1,2.51-3.71c.72-.28,1.46-.53,2.18-.73s1.45-.35,2.17-.47,1.43-.2,2.16-.25,1.38-.08,2.09-.09h.23a14.09,14.09,0,0,1,3.73.49,11.31,11.31,0,0,1,3.73,1.74,9.56,9.56,0,0,1,2.83,3.2,9.07,9.07,0,0,1,1,4.6,11.8,11.8,0,0,1-.34,2.53,8.74,8.74,0,0,1-1,2.44,8.6,8.6,0,0,1-.65.93l1.22,2.25A4,4,0,0,1,48,35.65c-1.75.29-3.5.62-5.2,1a4.32,4.32,0,0,1-.79.08,4.06,4.06,0,0,1-1.76-.41,3.84,3.84,0,0,1-1.63.39c-1.66,0-3.32.11-4.94.2Z"/><path stroke="url(#Dégradé_sans_nom_76)" fill="none"  d="M56.63,37.23a4,4,0,0,1-2.05-.57,4,4,0,0,1-1.42.26h-.24c-1.62-.1-3.28-.17-5-.22a4,4,0,0,1-2.82-1.29,4,4,0,0,1-1-2.92l.27-5.31c.09-1.78.19-3.56.3-5.35l.13-2.63c.05-.94.11-1.87.2-2.82a4,4,0,0,1,2.83-3.47,21.3,21.3,0,0,1,2.23-.55,20.86,20.86,0,0,1,2.21-.28C52.84,12,53.44,12,54,12h.4c.69,0,1.38,0,2.09.09a14.56,14.56,0,0,1,3.91.82A11.59,11.59,0,0,1,64,15a9.5,9.5,0,0,1,2.55,3.44,9,9,0,0,1,.65,4.67,11.79,11.79,0,0,1-.54,2.49,9,9,0,0,1-1.24,2.36,8.41,8.41,0,0,1-.72.86q.53,1.18,1,2.34a4,4,0,0,1-3.36,5.57c-1.73.14-3.51.31-5.27.5Z"/><path stroke="url(#Dégradé_sans_nom_76)" fill="none"  d="M77.68,39.34h-.31c-1.93-.15-3.87-.27-5.79-.35a3.91,3.91,0,0,1-2.35-.89,3.83,3.83,0,0,1-1.43.27,4,4,0,0,1-1-.12c-1.9-.47-3.84-.91-5.78-1.32a4,4,0,0,1-2.85-5.49c2.16-5.05,4.49-10.12,6.93-15.07a4,4,0,0,1,3.58-2.23,2.23,2.23,0,0,1,.37,0c2.44.22,4.9.5,7.33.82a4,4,0,0,1,3.44,3.43c.75,5.52,1.35,11.11,1.81,16.62a4,4,0,0,1-4,4.32Z"/><path stroke="url(#Dégradé_sans_nom_76)" fill="none"  d="M11.94,39.38A4,4,0,0,1,8,36.1L6.77,29.33a3.91,3.91,0,0,1-.49,0,4,4,0,0,1-2.15-.63,4,4,0,0,1-1.78-2.67l-1-5.45A4,4,0,0,1,4.5,16c4.7-1,9.5-1.79,14.25-2.41l.52,0a4,4,0,0,1,4,3.59l.51,4.94a4,4,0,0,1-3.33,4.36l-.14,0c.17,2.51.34,5,.53,7.52a4,4,0,0,1-3.17,4.21c-1.61.34-3.22.7-4.77,1.07A4.31,4.31,0,0,1,11.94,39.38Z"/><path stroke="url(#Dégradé_sans_nom_76)" fill="none"  d="M22,38.11a4,4,0,0,1-2.45-.84A4.06,4.06,0,0,1,18,34.52q-.86-8.42-1.68-16.84a4,4,0,0,1,3.5-4.36c4-.49,8.1-.86,12.15-1.1h.24a4,4,0,0,1,4,4c0,.72,0,1.43,0,2.13s0,1.53,0,2.31a4,4,0,0,1-1.6,3.08v.88l.24.21A4,4,0,0,1,36,27.78v2.57c0,.83,0,1.66,0,2.5a4,4,0,0,1-3.65,4c-3.3.29-6.62.68-9.87,1.17A5.65,5.65,0,0,1,22,38.11Z"/><path stroke="url(#Dégradé_sans_nom_76)" fill="none"  d="M33.46,36.88a4,4,0,0,1-4-3.86l-.18-5.32c-.06-1.77-.12-3.56-.17-5.35L29,19.71c0-.93-.05-1.87,0-2.82a4,4,0,0,1,2.51-3.71c.72-.28,1.46-.53,2.18-.73s1.45-.35,2.17-.47,1.43-.2,2.16-.25,1.38-.08,2.09-.09h.23a14.09,14.09,0,0,1,3.73.49,11.31,11.31,0,0,1,3.73,1.74,9.56,9.56,0,0,1,2.83,3.2,9.07,9.07,0,0,1,1,4.6,11.8,11.8,0,0,1-.34,2.53,8.74,8.74,0,0,1-1,2.44,8.6,8.6,0,0,1-.65.93l1.22,2.25A4,4,0,0,1,48,35.65c-1.75.29-3.5.62-5.2,1a4.32,4.32,0,0,1-.79.08,4.06,4.06,0,0,1-1.76-.41,3.84,3.84,0,0,1-1.63.39c-1.66,0-3.32.11-4.94.2Z"/><path stroke="url(#Dégradé_sans_nom_76)" fill="none"  d="M56.63,37.23a4,4,0,0,1-2.05-.57,4,4,0,0,1-1.42.26h-.24c-1.62-.1-3.28-.17-5-.22a4,4,0,0,1-2.82-1.29,4,4,0,0,1-1-2.92l.27-5.31c.09-1.78.19-3.56.3-5.35l.13-2.63c.05-.94.11-1.87.2-2.82a4,4,0,0,1,2.83-3.47,21.3,21.3,0,0,1,2.23-.55,20.86,20.86,0,0,1,2.21-.28C52.84,12,53.44,12,54,12h.4c.69,0,1.38,0,2.09.09a14.56,14.56,0,0,1,3.91.82A11.59,11.59,0,0,1,64,15a9.5,9.5,0,0,1,2.55,3.44,9,9,0,0,1,.65,4.67,11.79,11.79,0,0,1-.54,2.49,9,9,0,0,1-1.24,2.36,8.41,8.41,0,0,1-.72.86q.53,1.18,1,2.34a4,4,0,0,1-3.36,5.57c-1.73.14-3.51.31-5.27.5Z"/><path stroke="url(#Dégradé_sans_nom_76)" fill="none"  d="M77.68,39.34h-.31c-1.93-.15-3.87-.27-5.79-.35a3.91,3.91,0,0,1-2.35-.89,3.83,3.83,0,0,1-1.43.27,4,4,0,0,1-1-.12c-1.9-.47-3.84-.91-5.78-1.32a4,4,0,0,1-2.85-5.49c2.16-5.05,4.49-10.12,6.93-15.07a4,4,0,0,1,3.58-2.23,2.23,2.23,0,0,1,.37,0c2.44.22,4.9.5,7.33.82a4,4,0,0,1,3.44,3.43c.75,5.52,1.35,11.11,1.81,16.62a4,4,0,0,1-4,4.32Z"/><path stroke="url(#Dégradé_sans_nom_76)" fill="#000000"  d="M20.11,60.64a4,4,0,0,1-1.28-.21A4,4,0,0,1,16.35,58a12.31,12.31,0,0,1-5.11-1.56A11.62,11.62,0,0,1,8.76,54.6a12.31,12.31,0,0,1-1.9-2.41,11.55,11.55,0,0,1-1.24-2.91,12,12,0,0,1-.44-3.23A12.64,12.64,0,0,1,6.74,40a12.13,12.13,0,0,1,1.82-2.5,11.78,11.78,0,0,1,2.41-2,11.74,11.74,0,0,1,6.21-1.77,13.64,13.64,0,0,1,4.7.79,11.51,11.51,0,0,1,4,2.43,11.29,11.29,0,0,1,2.65,3.9,12.83,12.83,0,0,1,.91,4.87,13,13,0,0,1-1,4.91q-.27.65-.6,1.26a4,4,0,0,1-1.31,5.35L22.27,60A4,4,0,0,1,20.11,60.64Z"/><path stroke="url(#Dégradé_sans_nom_76)" fill="none"  d="M32.47,59a9.77,9.77,0,0,1-4-.78,9.13,9.13,0,0,1-3-2.08,10,10,0,0,1-1.92-2.83,14.4,14.4,0,0,1-1-2.86,19,19,0,0,1-.45-2.83c-.07-.88-.11-1.74-.11-2.56,0-1.22.06-2.46.18-3.68s.3-2.4.52-3.6a4,4,0,0,1,3.93-3.26l5.64.21.22,0a4,4,0,0,1,2.11-.61h5.48a4,4,0,0,1,4,3.66c.1,1.19.15,2.41.15,3.63q0,1-.09,2.22c-.06.81-.17,1.65-.31,2.51s-.34,1.73-.56,2.6a20.53,20.53,0,0,1-.93,2.74A17.08,17.08,0,0,1,41,54.06,11.83,11.83,0,0,1,39,56.49a10.22,10.22,0,0,1-2.85,1.79A9.52,9.52,0,0,1,32.47,59Z"/><path stroke="url(#Dégradé_sans_nom_76)" fill="none"  d="M41.13,58.44a4,4,0,0,1-2.83-1.17,4,4,0,0,1-1.17-2.92l.38-16.9a4,4,0,0,1,4-3.91H52.31a4,4,0,0,1,4,4.25c0,.73-.09,1.44-.13,2.15s-.09,1.52-.16,2.3a4,4,0,0,1-1.67,2.93l-.08,1,.16.15a4,4,0,0,1,1.09,3q-.07,1.3-.15,2.58c0,.83-.09,1.66-.13,2.5a4,4,0,0,1-3.91,3.81Z"/><path stroke="url(#Dégradé_sans_nom_76)" fill="none"  d="M57.58,58.6a9.41,9.41,0,0,1-2.12-.25,17.1,17.1,0,0,1-1.76-.48c-.56-.18-1.1-.38-1.62-.59s-.95-.39-1.34-.58a4,4,0,0,1-2.29-4.05L49,47.83a4,4,0,0,1,.26-1c-.07-.16-.14-.32-.2-.49A9.19,9.19,0,0,1,48.43,43a9.34,9.34,0,0,1,1-4.29,9.71,9.71,0,0,1,2.51-3.14,10.7,10.7,0,0,1,3.39-1.88,11.85,11.85,0,0,1,3.79-.62c.47,0,1,0,1.45,0a15.11,15.11,0,0,1,1.63.2,14.09,14.09,0,0,1,1.59.36,11,11,0,0,1,1.71.65,4,4,0,0,1,2.26,4l-.44,4.76,0,.24a7.92,7.92,0,0,1,.92,1.84,9,9,0,0,1,.51,3.05,10.55,10.55,0,0,1-.93,4.49,9.45,9.45,0,0,1-2.61,3.4A10.5,10.5,0,0,1,61.54,58,13.49,13.49,0,0,1,57.58,58.6Z"/><path stroke="url(#Dégradé_sans_nom_76)" fill="none"  d="M68.12,58.16a4,4,0,0,1-4-4V47.2a4,4,0,0,1-3.48-4.07l.14-5.53a4,4,0,0,1,4-3.9l12.78,0a4,4,0,0,1,4,4.09l-.12,5a4,4,0,0,1-3.78,3.9l-.61,7.58a4,4,0,0,1-3.78,3.67l-4.94.26Z"/><path stroke="url(#Dégradé_sans_nom_76)" fill="none"  d="M20.11,60.64a4,4,0,0,1-1.28-.21A4,4,0,0,1,16.35,58a12.31,12.31,0,0,1-5.11-1.56A11.62,11.62,0,0,1,8.76,54.6a12.31,12.31,0,0,1-1.9-2.41,11.55,11.55,0,0,1-1.24-2.91,12,12,0,0,1-.44-3.23A12.64,12.64,0,0,1,6.74,40a12.13,12.13,0,0,1,1.82-2.5,11.78,11.78,0,0,1,2.41-2,11.74,11.74,0,0,1,6.21-1.77,13.64,13.64,0,0,1,4.7.79,11.51,11.51,0,0,1,4,2.43,11.29,11.29,0,0,1,2.65,3.9,12.83,12.83,0,0,1,.91,4.87,13,13,0,0,1-1,4.91q-.27.65-.6,1.26a4,4,0,0,1-1.31,5.35L22.27,60A4,4,0,0,1,20.11,60.64Z"/><path stroke="url(#Dégradé_sans_nom_76)" fill="none"  d="M32.47,59a9.77,9.77,0,0,1-4-.78,9.13,9.13,0,0,1-3-2.08,10,10,0,0,1-1.92-2.83,14.4,14.4,0,0,1-1-2.86,19,19,0,0,1-.45-2.83c-.07-.88-.11-1.74-.11-2.56,0-1.22.06-2.46.18-3.68s.3-2.4.52-3.6a4,4,0,0,1,3.93-3.26l5.64.21.22,0a4,4,0,0,1,2.11-.61h5.48a4,4,0,0,1,4,3.66c.1,1.19.15,2.41.15,3.63q0,1-.09,2.22c-.06.81-.17,1.65-.31,2.51s-.34,1.73-.56,2.6a20.53,20.53,0,0,1-.93,2.74A17.08,17.08,0,0,1,41,54.06,11.83,11.83,0,0,1,39,56.49a10.22,10.22,0,0,1-2.85,1.79A9.52,9.52,0,0,1,32.47,59Z"/><path stroke="url(#Dégradé_sans_nom_76)" fill="none"  d="M41.13,58.44a4,4,0,0,1-2.83-1.17,4,4,0,0,1-1.17-2.92l.38-16.9a4,4,0,0,1,4-3.91H52.31a4,4,0,0,1,4,4.25c0,.73-.09,1.44-.13,2.15s-.09,1.52-.16,2.3a4,4,0,0,1-1.67,2.93l-.08,1,.16.15a4,4,0,0,1,1.09,3q-.07,1.3-.15,2.58c0,.83-.09,1.66-.13,2.5a4,4,0,0,1-3.91,3.81Z"/><path stroke="url(#Dégradé_sans_nom_76)" fill="none"  d="M57.58,58.6a9.41,9.41,0,0,1-2.12-.25,17.1,17.1,0,0,1-1.76-.48c-.56-.18-1.1-.38-1.62-.59s-.95-.39-1.34-.58a4,4,0,0,1-2.29-4.05L49,47.83a4,4,0,0,1,.26-1c-.07-.16-.14-.32-.2-.49A9.19,9.19,0,0,1,48.43,43a9.34,9.34,0,0,1,1-4.29,9.71,9.71,0,0,1,2.51-3.14,10.7,10.7,0,0,1,3.39-1.88,11.85,11.85,0,0,1,3.79-.62c.47,0,1,0,1.45,0a15.11,15.11,0,0,1,1.63.2,14.09,14.09,0,0,1,1.59.36,11,11,0,0,1,1.71.65,4,4,0,0,1,2.26,4l-.44,4.76,0,.24a7.92,7.92,0,0,1,.92,1.84,9,9,0,0,1,.51,3.05,10.55,10.55,0,0,1-.93,4.49,9.45,9.45,0,0,1-2.61,3.4A10.5,10.5,0,0,1,61.54,58,13.49,13.49,0,0,1,57.58,58.6Z"/><path stroke="url(#Dégradé_sans_nom_76)" fill="none"  d="M68.12,58.16a4,4,0,0,1-4-4V47.2a4,4,0,0,1-3.48-4.07l.14-5.53a4,4,0,0,1,4-3.9l12.78,0a4,4,0,0,1,4,4.09l-.12,5a4,4,0,0,1-3.78,3.9l-.61,7.58a4,4,0,0,1-3.78,3.67l-4.94.26Z"/><path stroke="url(#Dégradé_sans_nom_76)" fill="none"  d="M20.11,60.64a4,4,0,0,1-1.28-.21A4,4,0,0,1,16.35,58a12.31,12.31,0,0,1-5.11-1.56A11.62,11.62,0,0,1,8.76,54.6a12.31,12.31,0,0,1-1.9-2.41,11.55,11.55,0,0,1-1.24-2.91,12,12,0,0,1-.44-3.23A12.64,12.64,0,0,1,6.74,40a12.13,12.13,0,0,1,1.82-2.5,11.78,11.78,0,0,1,2.41-2,11.74,11.74,0,0,1,6.21-1.77,13.64,13.64,0,0,1,4.7.79,11.51,11.51,0,0,1,4,2.43,11.29,11.29,0,0,1,2.65,3.9,12.83,12.83,0,0,1,.91,4.87,13,13,0,0,1-1,4.91q-.27.65-.6,1.26a4,4,0,0,1-1.31,5.35L22.27,60A4,4,0,0,1,20.11,60.64Z"/><path stroke="url(#Dégradé_sans_nom_76)" fill="none"  d="M32.47,59a9.77,9.77,0,0,1-4-.78,9.13,9.13,0,0,1-3-2.08,10,10,0,0,1-1.92-2.83,14.4,14.4,0,0,1-1-2.86,19,19,0,0,1-.45-2.83c-.07-.88-.11-1.74-.11-2.56,0-1.22.06-2.46.18-3.68s.3-2.4.52-3.6a4,4,0,0,1,3.93-3.26l5.64.21.22,0a4,4,0,0,1,2.11-.61h5.48a4,4,0,0,1,4,3.66c.1,1.19.15,2.41.15,3.63q0,1-.09,2.22c-.06.81-.17,1.65-.31,2.51s-.34,1.73-.56,2.6a20.53,20.53,0,0,1-.93,2.74A17.08,17.08,0,0,1,41,54.06,11.83,11.83,0,0,1,39,56.49a10.22,10.22,0,0,1-2.85,1.79A9.52,9.52,0,0,1,32.47,59Z"/><path stroke="url(#Dégradé_sans_nom_76)" fill="none"  d="M41.13,58.44a4,4,0,0,1-2.83-1.17,4,4,0,0,1-1.17-2.92l.38-16.9a4,4,0,0,1,4-3.91H52.31a4,4,0,0,1,4,4.25c0,.73-.09,1.44-.13,2.15s-.09,1.52-.16,2.3a4,4,0,0,1-1.67,2.93l-.08,1,.16.15a4,4,0,0,1,1.09,3q-.07,1.3-.15,2.58c0,.83-.09,1.66-.13,2.5a4,4,0,0,1-3.91,3.81Z"/><path stroke="url(#Dégradé_sans_nom_76)" fill="none"  d="M57.58,58.6a9.41,9.41,0,0,1-2.12-.25,17.1,17.1,0,0,1-1.76-.48c-.56-.18-1.1-.38-1.62-.59s-.95-.39-1.34-.58a4,4,0,0,1-2.29-4.05L49,47.83a4,4,0,0,1,.26-1c-.07-.16-.14-.32-.2-.49A9.19,9.19,0,0,1,48.43,43a9.34,9.34,0,0,1,1-4.29,9.71,9.71,0,0,1,2.51-3.14,10.7,10.7,0,0,1,3.39-1.88,11.85,11.85,0,0,1,3.79-.62c.47,0,1,0,1.45,0a15.11,15.11,0,0,1,1.63.2,14.09,14.09,0,0,1,1.59.36,11,11,0,0,1,1.71.65,4,4,0,0,1,2.26,4l-.44,4.76,0,.24a7.92,7.92,0,0,1,.92,1.84,9,9,0,0,1,.51,3.05,10.55,10.55,0,0,1-.93,4.49,9.45,9.45,0,0,1-2.61,3.4A10.5,10.5,0,0,1,61.54,58,13.49,13.49,0,0,1,57.58,58.6Z"/><path stroke="url(#Dégradé_sans_nom_76)" fill="none"  d="M68.12,58.16a4,4,0,0,1-4-4V47.2a4,4,0,0,1-3.48-4.07l.14-5.53a4,4,0,0,1,4-3.9l12.78,0a4,4,0,0,1,4,4.09l-.12,5a4,4,0,0,1-3.78,3.9l-.61,7.58a4,4,0,0,1-3.78,3.67l-4.94.26Z"/><path stroke="url(#Dégradé_sans_nom_76)" fill="none"  d="M20.11,61.64a4.91,4.91,0,0,1-1.57-.25A5,5,0,0,1,15.68,59a14.54,14.54,0,0,1-1.86-.36,13.41,13.41,0,0,1-3.08-1.27,12.57,12.57,0,0,1-2.68-2A12.73,12.73,0,0,1,6,52.7a12.87,12.87,0,0,1-1.35-3.16,13.12,13.12,0,0,1-.47-3.49,13.63,13.63,0,0,1,.44-3.44A14,14,0,0,1,5.86,39.5a13.81,13.81,0,0,1,2-2.71,13.12,13.12,0,0,1,2.61-2.14,12.69,12.69,0,0,1,6.74-1.92,14.61,14.61,0,0,1,5,.85,12.5,12.5,0,0,1,4.34,2.65,12,12,0,0,1,2.88,4.24A14.19,14.19,0,0,1,29.39,51c-.12.3-.26.6-.4.89a5,5,0,0,1,.35,2.72,5,5,0,0,1-2.23,3.45l-4.29,2.77A4.94,4.94,0,0,1,20.11,61.64Z"/><path stroke="url(#Dégradé_sans_nom_76)" fill="none"  d="M32.47,60a10.82,10.82,0,0,1-4.37-.86,10.35,10.35,0,0,1-3.32-2.3,11.35,11.35,0,0,1-2.1-3.11,15.69,15.69,0,0,1-1.05-3.05,21.09,21.09,0,0,1-.46-3c-.08-.91-.12-1.8-.12-2.65a36.66,36.66,0,0,1,.19-3.78c.12-1.22.3-2.46.53-3.68a5,5,0,0,1,4.91-4.08l5.62.21a5,5,0,0,1,2.35-.59h5.48a5,5,0,0,1,5,4.57c.11,1.21.16,2.46.16,3.72,0,.7,0,1.47-.09,2.3s-.18,1.71-.33,2.59-.34,1.8-.58,2.7a21,21,0,0,1-1,2.87,17.8,17.8,0,0,1-1.44,2.74,12.83,12.83,0,0,1-2.23,2.62,10.94,10.94,0,0,1-3.14,2A10.32,10.32,0,0,1,32.47,60Z"/><path stroke="url(#Dégradé_sans_nom_76)" fill="none"  d="M41.13,59.44A5,5,0,0,1,37.59,58a5,5,0,0,1-1.46-3.65l.38-16.89a5,5,0,0,1,5-4.89H52.31a5,5,0,0,1,5,5.32c0,.72-.09,1.43-.13,2.13s-.09,1.55-.16,2.33a5,5,0,0,1-1.71,3.35v.15a5,5,0,0,1,1.21,3.55c0,.87-.09,1.73-.14,2.58s-.1,1.65-.13,2.48a5,5,0,0,1-4.88,4.77Z"/><path stroke="url(#Dégradé_sans_nom_76)" fill="none"  d="M57.58,59.6a10.85,10.85,0,0,1-2.34-.27c-.61-.14-1.23-.31-1.85-.51s-1.15-.39-1.69-.61-1-.41-1.39-.6a5,5,0,0,1-2.86-5.06L48,47.72a4.49,4.49,0,0,1,.18-.9c0-.06,0-.11-.07-.17A10.31,10.31,0,0,1,47.43,43a10.46,10.46,0,0,1,1.09-4.74,10.86,10.86,0,0,1,2.77-3.46,11.69,11.69,0,0,1,3.71-2,12.74,12.74,0,0,1,4.11-.68c.49,0,1,0,1.51,0a15.92,15.92,0,0,1,1.74.21,15.39,15.39,0,0,1,1.69.39,11.19,11.19,0,0,1,1.88.71,5,5,0,0,1,2.82,5l-.44,4.67a8.82,8.82,0,0,1,.84,1.75,10.16,10.16,0,0,1,.56,3.38,11.69,11.69,0,0,1-1,4.91,10.71,10.71,0,0,1-2.88,3.76,11.75,11.75,0,0,1-4,2.11A14.53,14.53,0,0,1,57.58,59.6Z"/><path stroke="url(#Dégradé_sans_nom_76)" fill="none"  d="M68.12,59.16a5,5,0,0,1-3.44-1.38,5,5,0,0,1-1.56-3.63V48a5,5,0,0,1-3.48-4.9l.14-5.52a5,5,0,0,1,5-4.88l12.78,0a5,5,0,0,1,5,5.12l-.12,5a5,5,0,0,1-3.85,4.75l-.54,6.78a5,5,0,0,1-4.72,4.59Z"/><rect stroke="url(#Dégradé_sans_nom_76)" fill="none"  x="20.22" y="34.56" width="46" height="22" rx="4"/><path stroke="url(#Dégradé_sans_nom_76)" fill="none"  d="M20.15,61.25A3.93,3.93,0,0,1,18.88,61a4,4,0,0,1-2.48-2.41,11.33,11.33,0,0,1-2.27-.38,12.94,12.94,0,0,1-2.85-1.17A11.87,11.87,0,0,1,8.8,55.21,12.31,12.31,0,0,1,6.9,52.8a12,12,0,0,1-1.67-6.15,12.41,12.41,0,0,1,.4-3.17,13,13,0,0,1,1.15-2.89,12.51,12.51,0,0,1,1.82-2.5,12.34,12.34,0,0,1,2.41-2,12.12,12.12,0,0,1,2.91-1.31,11.65,11.65,0,0,1,3.3-.47,13.88,13.88,0,0,1,4.7.79,11.6,11.6,0,0,1,4,2.44,11.16,11.16,0,0,1,2.65,3.9,13.26,13.26,0,0,1,0,9.78,13.08,13.08,0,0,1-.6,1.25,4,4,0,0,1-1.3,5.35l-4.29,2.77A4,4,0,0,1,20.15,61.25Z"/><path stroke="url(#Dégradé_sans_nom_76)" fill="none"  d="M32.51,59.58a9.93,9.93,0,0,1-4-.77,9.4,9.4,0,0,1-3-2.08,10.32,10.32,0,0,1-1.92-2.83,14.4,14.4,0,0,1-1-2.86,20.34,20.34,0,0,1-.44-2.83c-.08-.88-.12-1.74-.12-2.56,0-1.23.06-2.46.18-3.68s.3-2.41.52-3.6a4,4,0,0,1,3.93-3.26l5.64.21.22,0a4,4,0,0,1,2.11-.61h5.49a4,4,0,0,1,4,3.66c.11,1.18.16,2.4.16,3.62,0,.68,0,1.43-.1,2.23s-.17,1.65-.31,2.5-.33,1.74-.56,2.61a21,21,0,0,1-.93,2.74,16.22,16.22,0,0,1-1.36,2.58A11.83,11.83,0,0,1,39,57.1a10.16,10.16,0,0,1-2.85,1.79A9.51,9.51,0,0,1,32.51,59.58Z"/><path stroke="url(#Dégradé_sans_nom_76)" fill="none"  d="M41.17,59a4,4,0,0,1-4-4.08l.38-16.9a4,4,0,0,1,4-3.91h10.8a4,4,0,0,1,4,4.25c0,.72-.08,1.44-.12,2.14s-.1,1.53-.16,2.3a4,4,0,0,1-1.68,2.93l-.07,1,.15.15a4,4,0,0,1,1.09,3q-.07,1.3-.15,2.58c0,.83-.09,1.66-.13,2.49a4,4,0,0,1-3.9,3.82Z"/><path stroke="url(#Dégradé_sans_nom_76)" fill="none"  d="M57.63,59.21A9.5,9.5,0,0,1,55.5,59c-.58-.13-1.17-.29-1.76-.48s-1.1-.38-1.62-.59-.95-.4-1.34-.58a4,4,0,0,1-2.29-4.05L49,48.43a4.05,4.05,0,0,1,.25-1c-.07-.16-.14-.32-.2-.49a9.65,9.65,0,0,1,.4-7.58A9.85,9.85,0,0,1,52,36.18a10.75,10.75,0,0,1,3.4-1.88,11.79,11.79,0,0,1,3.78-.62c.47,0,1,0,1.45,0a14.51,14.51,0,0,1,1.63.19,16,16,0,0,1,1.59.37,12.16,12.16,0,0,1,1.72.64,4,4,0,0,1,2.26,4l-.45,4.76,0,.24a8.36,8.36,0,0,1,.93,1.84,9.25,9.25,0,0,1,.5,3.05,10.55,10.55,0,0,1-.93,4.49,9.54,9.54,0,0,1-2.61,3.4,10.51,10.51,0,0,1-3.62,1.93A13.27,13.27,0,0,1,57.63,59.21Z"/><path stroke="url(#Dégradé_sans_nom_76)" fill="none"  d="M68.16,58.76a4,4,0,0,1-4-4l0-6.94a4,4,0,0,1-3.49-4.07l.14-5.53a4,4,0,0,1,4-3.9l12.78,0a4,4,0,0,1,4,4.09l-.12,5a4,4,0,0,1-3.79,3.9l-.61,7.58a4,4,0,0,1-3.78,3.67l-4.94.26Z"/><path stroke="url(#Dégradé_sans_nom_76)" fill="none"  d="M20.15,61.25A3.93,3.93,0,0,1,18.88,61a4,4,0,0,1-2.48-2.41,11.33,11.33,0,0,1-2.27-.38,12.94,12.94,0,0,1-2.85-1.17A11.87,11.87,0,0,1,8.8,55.21,12.31,12.31,0,0,1,6.9,52.8a12,12,0,0,1-1.67-6.15,12.41,12.41,0,0,1,.4-3.17,13,13,0,0,1,1.15-2.89,12.51,12.51,0,0,1,1.82-2.5,12.34,12.34,0,0,1,2.41-2,12.12,12.12,0,0,1,2.91-1.31,11.65,11.65,0,0,1,3.3-.47,13.88,13.88,0,0,1,4.7.79,11.6,11.6,0,0,1,4,2.44,11.16,11.16,0,0,1,2.65,3.9,13.26,13.26,0,0,1,0,9.78,13.08,13.08,0,0,1-.6,1.25,4,4,0,0,1-1.3,5.35l-4.29,2.77A4,4,0,0,1,20.15,61.25Z"/><path stroke="url(#Dégradé_sans_nom_76)" fill="none"  d="M32.51,59.58a9.93,9.93,0,0,1-4-.77,9.4,9.4,0,0,1-3-2.08,10.32,10.32,0,0,1-1.92-2.83,14.4,14.4,0,0,1-1-2.86,20.34,20.34,0,0,1-.44-2.83c-.08-.88-.12-1.74-.12-2.56,0-1.23.06-2.46.18-3.68s.3-2.41.52-3.6a4,4,0,0,1,3.93-3.26l5.64.21.22,0a4,4,0,0,1,2.11-.61h5.49a4,4,0,0,1,4,3.66c.11,1.18.16,2.4.16,3.62,0,.68,0,1.43-.1,2.23s-.17,1.65-.31,2.5-.33,1.74-.56,2.61a21,21,0,0,1-.93,2.74,16.22,16.22,0,0,1-1.36,2.58A11.83,11.83,0,0,1,39,57.1a10.16,10.16,0,0,1-2.85,1.79A9.51,9.51,0,0,1,32.51,59.58Z"/><path stroke="url(#Dégradé_sans_nom_76)" fill="none"  d="M41.17,59a4,4,0,0,1-4-4.08l.38-16.9a4,4,0,0,1,4-3.91h10.8a4,4,0,0,1,4,4.25c0,.72-.08,1.44-.12,2.14s-.1,1.53-.16,2.3a4,4,0,0,1-1.68,2.93l-.07,1,.15.15a4,4,0,0,1,1.09,3q-.07,1.3-.15,2.58c0,.83-.09,1.66-.13,2.49a4,4,0,0,1-3.9,3.82Z"/><path stroke="url(#Dégradé_sans_nom_76)" fill="none"  d="M57.63,59.21A9.5,9.5,0,0,1,55.5,59c-.58-.13-1.17-.29-1.76-.48s-1.1-.38-1.62-.59-.95-.4-1.34-.58a4,4,0,0,1-2.29-4.05L49,48.43a4.05,4.05,0,0,1,.25-1c-.07-.16-.14-.32-.2-.49a9.65,9.65,0,0,1,.4-7.58A9.85,9.85,0,0,1,52,36.18a10.75,10.75,0,0,1,3.4-1.88,11.79,11.79,0,0,1,3.78-.62c.47,0,1,0,1.45,0a14.51,14.51,0,0,1,1.63.19,16,16,0,0,1,1.59.37,12.16,12.16,0,0,1,1.72.64,4,4,0,0,1,2.26,4l-.45,4.76,0,.24a8.36,8.36,0,0,1,.93,1.84,9.25,9.25,0,0,1,.5,3.05,10.55,10.55,0,0,1-.93,4.49,9.54,9.54,0,0,1-2.61,3.4,10.51,10.51,0,0,1-3.62,1.93A13.27,13.27,0,0,1,57.63,59.21Z"/><path stroke="url(#Dégradé_sans_nom_76)" fill="none"  d="M68.16,58.76a4,4,0,0,1-4-4l0-6.94a4,4,0,0,1-3.49-4.07l.14-5.53a4,4,0,0,1,4-3.9l12.78,0a4,4,0,0,1,4,4.09l-.12,5a4,4,0,0,1-3.79,3.9l-.61,7.58a4,4,0,0,1-3.78,3.67l-4.94.26Z"/><path stroke="url(#Dégradé_sans_nom_76)" fill="none"  d="M20.15,61.25A3.93,3.93,0,0,1,18.88,61a4,4,0,0,1-2.48-2.41,11.33,11.33,0,0,1-2.27-.38,12.94,12.94,0,0,1-2.85-1.17A11.87,11.87,0,0,1,8.8,55.21,12.31,12.31,0,0,1,6.9,52.8a12,12,0,0,1-1.67-6.15,12.41,12.41,0,0,1,.4-3.17,13,13,0,0,1,1.15-2.89,12.51,12.51,0,0,1,1.82-2.5,12.34,12.34,0,0,1,2.41-2,12.12,12.12,0,0,1,2.91-1.31,11.65,11.65,0,0,1,3.3-.47,13.88,13.88,0,0,1,4.7.79,11.6,11.6,0,0,1,4,2.44,11.16,11.16,0,0,1,2.65,3.9,13.26,13.26,0,0,1,0,9.78,13.08,13.08,0,0,1-.6,1.25,4,4,0,0,1-1.3,5.35l-4.29,2.77A4,4,0,0,1,20.15,61.25Z"/><path stroke="url(#Dégradé_sans_nom_76)" fill="none"  d="M32.51,59.58a9.93,9.93,0,0,1-4-.77,9.4,9.4,0,0,1-3-2.08,10.32,10.32,0,0,1-1.92-2.83,14.4,14.4,0,0,1-1-2.86,20.34,20.34,0,0,1-.44-2.83c-.08-.88-.12-1.74-.12-2.56,0-1.23.06-2.46.18-3.68s.3-2.41.52-3.6a4,4,0,0,1,3.93-3.26l5.64.21.22,0a4,4,0,0,1,2.11-.61h5.49a4,4,0,0,1,4,3.66c.11,1.18.16,2.4.16,3.62,0,.68,0,1.43-.1,2.23s-.17,1.65-.31,2.5-.33,1.74-.56,2.61a21,21,0,0,1-.93,2.74,16.22,16.22,0,0,1-1.36,2.58A11.83,11.83,0,0,1,39,57.1a10.16,10.16,0,0,1-2.85,1.79A9.51,9.51,0,0,1,32.51,59.58Z"/><path stroke="url(#Dégradé_sans_nom_76)" fill="none"  d="M41.17,59a4,4,0,0,1-4-4.08l.38-16.9a4,4,0,0,1,4-3.91h10.8a4,4,0,0,1,4,4.25c0,.72-.08,1.44-.12,2.14s-.1,1.53-.16,2.3a4,4,0,0,1-1.68,2.93l-.07,1,.15.15a4,4,0,0,1,1.09,3q-.07,1.3-.15,2.58c0,.83-.09,1.66-.13,2.49a4,4,0,0,1-3.9,3.82Z"/><path stroke="url(#Dégradé_sans_nom_76)" fill="none"  d="M57.63,59.21A9.5,9.5,0,0,1,55.5,59c-.58-.13-1.17-.29-1.76-.48s-1.1-.38-1.62-.59-.95-.4-1.34-.58a4,4,0,0,1-2.29-4.05L49,48.43a4.05,4.05,0,0,1,.25-1c-.07-.16-.14-.32-.2-.49a9.65,9.65,0,0,1,.4-7.58A9.85,9.85,0,0,1,52,36.18a10.75,10.75,0,0,1,3.4-1.88,11.79,11.79,0,0,1,3.78-.62c.47,0,1,0,1.45,0a14.51,14.51,0,0,1,1.63.19,16,16,0,0,1,1.59.37,12.16,12.16,0,0,1,1.72.64,4,4,0,0,1,2.26,4l-.45,4.76,0,.24a8.36,8.36,0,0,1,.93,1.84,9.25,9.25,0,0,1,.5,3.05,10.55,10.55,0,0,1-.93,4.49,9.54,9.54,0,0,1-2.61,3.4,10.51,10.51,0,0,1-3.62,1.93A13.27,13.27,0,0,1,57.63,59.21Z"/><path stroke="url(#Dégradé_sans_nom_76)" fill="none"  d="M68.16,58.76a4,4,0,0,1-4-4l0-6.94a4,4,0,0,1-3.49-4.07l.14-5.53a4,4,0,0,1,4-3.9l12.78,0a4,4,0,0,1,4,4.09l-.12,5a4,4,0,0,1-3.79,3.9l-.61,7.58a4,4,0,0,1-3.78,3.67l-4.94.26Z"/><g ><path fill="url(#Dégradé_sans_nom_15)" d="M19.63,18.45q-7,.9-14,2.32.46,2.73,1,5.46,1.83-.48,3.66-.9l2,10.93c1.62-.39,3.26-.75,4.9-1.09q-.41-5.55-.73-11.12c1.23-.23,2.47-.45,3.71-.65C20,21.75,19.8,20.1,19.63,18.45Z"/><path fill="url(#Dégradé_sans_nom_15)" d="M22.3,35c3.36-.5,6.74-.89,10.13-1.19,0-.85,0-1.7,0-2.55s0-1.7,0-2.56l-2.14.14-3,.25c0-.57,0-1.14,0-1.71,1.23-.15,2.45-.29,3.68-.42,0-1.21,0-2.42,0-3.64-1.25.09-2.49.18-3.73.3,0-.5,0-1,0-1.49,1.78-.24,3.56-.46,5.34-.65,0-.74,0-1.46,0-2.18s0-1.45,0-2.19q-6,.35-11.92,1.06Q21.45,26.6,22.3,35Z"/><path fill="url(#Dégradé_sans_nom_15)" d="M45.84,18a7.33,7.33,0,0,0-2.43-1.12,10.13,10.13,0,0,0-2.87-.35c-.64,0-1.26,0-1.87.08a17.69,17.69,0,0,0-1.8.21,15.33,15.33,0,0,0-1.76.38,14.55,14.55,0,0,0-1.76.59c0,.9,0,1.79,0,2.67s.07,1.77.1,2.67c0,1.78.1,3.55.16,5.32s.12,3.54.18,5.32c1.69-.1,3.39-.17,5.08-.21L39,28.7l1.51-.08c.65,1.66,1.29,3.31,1.9,5,1.77-.35,3.56-.68,5.35-1q-1.35-2.52-2.79-5a8.51,8.51,0,0,0,1.37-1,4.8,4.8,0,0,0,.95-1.13,5.06,5.06,0,0,0,.56-1.35,8.07,8.07,0,0,0,.21-1.65,5,5,0,0,0-.57-2.58A5.49,5.49,0,0,0,45.84,18ZM42.15,23.8a2.53,2.53,0,0,1-.72.7,3.38,3.38,0,0,1-1,.41,5.19,5.19,0,0,1-1.08.15h-.3c0-1.46.06-2.91.1-4.37l.47-.1a3.91,3.91,0,0,1,.49,0,2.57,2.57,0,0,1,1,.15,1.9,1.9,0,0,1,.72.46,2,2,0,0,1,.43.71,2.57,2.57,0,0,1,.15.9A1.84,1.84,0,0,1,42.15,23.8Z"/><path fill="url(#Dégradé_sans_nom_15)" d="M76.33,19.79q-3.58-.46-7.18-.79-3.54,7.23-6.67,14.57Q61.34,31,60.13,28.36a8.66,8.66,0,0,0,1.46-.87,5.39,5.39,0,0,0,1-1,5.15,5.15,0,0,0,.67-1.3,8.35,8.35,0,0,0,.35-1.63,5.1,5.1,0,0,0-.35-2.62,5.56,5.56,0,0,0-1.49-2,7.68,7.68,0,0,0-2.33-1.32A10.64,10.64,0,0,0,56.65,17c-.64,0-1.26-.07-1.88-.08s-1.21,0-1.81.06a15.48,15.48,0,0,0-1.78.23,15.7,15.7,0,0,0-1.8.44c-.08.89-.14,1.78-.18,2.66s-.09,1.78-.14,2.67c-.1,1.78-.2,3.55-.29,5.32s-.18,3.53-.27,5.31c1.7,0,3.39.13,5.09.22.16-1.61.33-3.23.5-4.85L55.6,29c.51,1.7,1,3.41,1.48,5.11,1.78-.2,3.58-.37,5.39-.52,0,.1-.09.19-.13.29q3,.61,5.93,1.34c.33-.85.65-1.69,1-2.53.9.13,1.81.27,2.71.42.1.91.19,1.82.28,2.73,2,.08,4,.19,5.94.34Q77.47,28,76.33,19.79ZM58,23.36a1.76,1.76,0,0,1-.36,1,2.31,2.31,0,0,1-.78.64,3.49,3.49,0,0,1-1,.32,5,5,0,0,1-1.09.06l-.3,0c.16-1.44.31-2.89.47-4.34a2.42,2.42,0,0,1,.47-.05h.5a2.49,2.49,0,0,1,1,.24,1.83,1.83,0,0,1,.67.52,1.91,1.91,0,0,1,.37.74A2.69,2.69,0,0,1,58,23.36Zm12.28,5.86,1.53-3.89c.11,1.39.2,2.79.3,4.18Z"/><path  d="M19.63,18.45q-7,.9-14,2.32.46,2.73,1,5.46,1.83-.48,3.66-.9l2,10.93c1.62-.39,3.26-.75,4.9-1.09q-.41-5.55-.73-11.12c1.23-.23,2.47-.45,3.71-.65C20,21.75,19.8,20.1,19.63,18.45Z"/><path stroke="#000000" d="M22.3,35c3.36-.5,6.74-.89,10.13-1.19,0-.85,0-1.7,0-2.55s0-1.7,0-2.56l-2.14.14-3,.25c0-.57,0-1.14,0-1.71,1.23-.15,2.45-.29,3.68-.42,0-1.21,0-2.42,0-3.64-1.25.09-2.49.18-3.73.3,0-.5,0-1,0-1.49,1.78-.24,3.56-.46,5.34-.65,0-.74,0-1.46,0-2.18s0-1.45,0-2.19q-6,.35-11.92,1.06Q21.45,26.6,22.3,35Z"/><path fill="#000000" d="M45.84,18a7.33,7.33,0,0,0-2.43-1.12,10.13,10.13,0,0,0-2.87-.35c-.64,0-1.26,0-1.87.08a17.69,17.69,0,0,0-1.8.21,15.33,15.33,0,0,0-1.76.38,14.55,14.55,0,0,0-1.76.59c0,.9,0,1.79,0,2.67s.07,1.77.1,2.67c0,1.78.1,3.55.16,5.32s.12,3.54.18,5.32c1.69-.1,3.39-.17,5.08-.21L39,28.7l1.51-.08c.65,1.66,1.29,3.31,1.9,5,1.77-.35,3.56-.68,5.35-1q-1.35-2.52-2.79-5a8.51,8.51,0,0,0,1.37-1,4.8,4.8,0,0,0,.95-1.13,5.06,5.06,0,0,0,.56-1.35,8.07,8.07,0,0,0,.21-1.65,5,5,0,0,0-.57-2.58A5.49,5.49,0,0,0,45.84,18ZM42.15,23.8a2.53,2.53,0,0,1-.72.7,3.38,3.38,0,0,1-1,.41,5.19,5.19,0,0,1-1.08.15h-.3c0-1.46.06-2.91.1-4.37l.47-.1a3.91,3.91,0,0,1,.49,0,2.57,2.57,0,0,1,1,.15,1.9,1.9,0,0,1,.72.46,2,2,0,0,1,.43.71,2.57,2.57,0,0,1,.15.9A1.84,1.84,0,0,1,42.15,23.8Z"/><path fill="#000000" d="M76.33,19.79q-3.58-.46-7.18-.79-3.54,7.23-6.67,14.57Q61.34,31,60.13,28.36a8.66,8.66,0,0,0,1.46-.87,5.39,5.39,0,0,0,1-1,5.15,5.15,0,0,0,.67-1.3,8.35,8.35,0,0,0,.35-1.63,5.1,5.1,0,0,0-.35-2.62,5.56,5.56,0,0,0-1.49-2,7.68,7.68,0,0,0-2.33-1.32A10.64,10.64,0,0,0,56.65,17c-.64,0-1.26-.07-1.88-.08s-1.21,0-1.81.06a15.48,15.48,0,0,0-1.78.23,15.7,15.7,0,0,0-1.8.44c-.08.89-.14,1.78-.18,2.66s-.09,1.78-.14,2.67c-.1,1.78-.2,3.55-.29,5.32s-.18,3.53-.27,5.31c1.7,0,3.39.13,5.09.22.16-1.61.33-3.23.5-4.85L55.6,29c.51,1.7,1,3.41,1.48,5.11,1.78-.2,3.58-.37,5.39-.52,0,.1-.09.19-.13.29q3,.61,5.93,1.34c.33-.85.65-1.69,1-2.53.9.13,1.81.27,2.71.42.1.91.19,1.82.28,2.73,2,.08,4,.19,5.94.34Q77.47,28,76.33,19.79ZM58,23.36a1.76,1.76,0,0,1-.36,1,2.31,2.31,0,0,1-.78.64,3.49,3.49,0,0,1-1,.32,5,5,0,0,1-1.09.06l-.3,0c.16-1.44.31-2.89.47-4.34a2.42,2.42,0,0,1,.47-.05h.5a2.49,2.49,0,0,1,1,.24,1.83,1.83,0,0,1,.67.52,1.91,1.91,0,0,1,.37.74A2.69,2.69,0,0,1,58,23.36Zm12.28,5.86,1.53-3.89c.11,1.39.2,2.79.3,4.18Z"/><path stroke="#000000" fill="none" stroke-width="6" d="M12.25,37.26a1,1,0,0,1-.55-.16,1,1,0,0,1-.44-.66l-1.79-9.9-2.61.65a1.18,1.18,0,0,1-.25,0,1,1,0,0,1-1-.83L4.67,21a1,1,0,0,1,.78-1.16c4.64-.94,9.36-1.73,14.05-2.33h.13a1,1,0,0,1,.62.22,1,1,0,0,1,.38.68l.49,4.95a1,1,0,0,1-.83,1.08l-2.82.49c.21,3.42.43,6.83.68,10.23a1,1,0,0,1-.8,1c-1.63.34-3.27.7-4.87,1.08Z"/><path stroke="#000000" fill="none" stroke-width="6" d="M22.3,36a1,1,0,0,1-.62-.22,1,1,0,0,1-.38-.68q-.84-8.41-1.65-16.83a1,1,0,0,1,.87-1.09c4-.48,8-.84,12-1.07h.05a1,1,0,0,1,.69.28,1,1,0,0,1,.31.74c0,.73,0,1.45,0,2.17s0,1.47,0,2.22a1,1,0,0,1-.89,1l-1,.11h0a1,1,0,0,1,.32.74c0,1.21,0,2.43,0,3.64a1,1,0,0,1-.39.78l.9-.05a1,1,0,0,1,.68.27,1,1,0,0,1,.32.72c0,.86,0,1.72,0,2.57s0,1.69,0,2.54a1,1,0,0,1-.91,1c-3.36.29-6.75.69-10.08,1.17Z"/><path stroke="#000000" fill="none" stroke-width="6" d="M33.83,34.79a1,1,0,0,1-.68-.26,1.06,1.06,0,0,1-.32-.71l-.18-5.32c-.06-1.76-.11-3.54-.16-5.32l-.09-2.67c0-.89,0-1.8,0-2.71a1,1,0,0,1,.63-.92,17.88,17.88,0,0,1,1.87-.63,18.2,18.2,0,0,1,1.86-.4c.61-.1,1.24-.17,1.89-.22s1.27-.07,1.93-.08h.18a11.53,11.53,0,0,1,2.95.38,8.54,8.54,0,0,1,2.76,1.28,6.54,6.54,0,0,1,1.95,2.2,6,6,0,0,1,.69,3.08,9,9,0,0,1-.24,1.88,5.8,5.8,0,0,1-1.81,3c-.21.19-.45.38-.7.57q1.19,2.1,2.33,4.22a1,1,0,0,1,0,.91,1,1,0,0,1-.74.55c-1.77.29-3.56.62-5.31,1a.68.68,0,0,1-.2,0,1,1,0,0,1-.93-.65c-.49-1.31-1-2.63-1.5-3.94,0,1.2,0,2.4-.07,3.6a1,1,0,0,1-1,1c-1.69,0-3.39.11-5,.21Z"/><path stroke="#000000" fill="none" stroke-width="6" d="M78.11,37.19c-2-.15-4-.26-5.91-.34a1,1,0,0,1-1-.91c-.06-.65-.13-1.3-.19-2l-1.16-.18c-.23.6-.46,1.19-.68,1.78a1,1,0,0,1-.94.65l-.23,0c-2-.48-3.94-.92-5.9-1.33a1.22,1.22,0,0,1-.43-.2c-1.53.13-3.05.28-4.52.45h-.12a1,1,0,0,1-1-.73c-.37-1.35-.76-2.7-1.16-4.05-.12,1.19-.25,2.38-.37,3.58a1,1,0,0,1-1,.89h-.06c-1.65-.09-3.35-.17-5.06-.22a1,1,0,0,1-.7-.32,1,1,0,0,1-.26-.73l.27-5.31c.08-1.77.18-3.54.28-5.32l.14-2.67q.06-1.33.18-2.7a1,1,0,0,1,.71-.87c.64-.19,1.29-.35,1.91-.47S52.26,16,52.89,16s1.06-.06,1.6-.06h.3c.63,0,1.27,0,1.93.09a11.48,11.48,0,0,1,3.1.64,8.47,8.47,0,0,1,2.63,1.5,6.56,6.56,0,0,1,1.76,2.36,6,6,0,0,1,.43,3.13,8.26,8.26,0,0,1-.4,1.85A5.57,5.57,0,0,1,63.43,27a5.87,5.87,0,0,1-1.24,1.25q-.34.26-.75.51c.34.75.69,1.51,1,2.27,1.85-4.23,3.79-8.43,5.78-12.51a1,1,0,0,1,.9-.56h.09c2.41.22,4.84.49,7.22.79a1,1,0,0,1,.86.86c.76,5.46,1.38,11,1.86,16.45a1,1,0,0,1-.29.79,1,1,0,0,1-.71.3ZM55.57,24.33h.11a2.41,2.41,0,0,0,.73-.24,1.19,1.19,0,0,0,.44-.36.72.72,0,0,0,.15-.44,1.72,1.72,0,0,0,0-.57,1,1,0,0,0-.18-.37,1.11,1.11,0,0,0-.34-.25,1.48,1.48,0,0,0-.61-.14h0Z"/></g><rect opacity="0.96" x="32.37" y="19.92" width="41" height="14"/><path fill="url(#Dégradé_sans_nom_15-5)" d="M19.42,17.92l.51,4.94c-1.24.21-2.47.43-3.71.66q.36,5.57.76,11.13c-1.63.34-3.26.7-4.88,1.09l-2-10.93c-1.22.29-2.44.6-3.65.91q-.5-2.71-1-5.45Q12.42,18.83,19.42,17.92Z"/><path fill="url(#Dégradé_sans_nom_15-5)" d="M32.34,16.58c0,.73,0,1.46,0,2.18s0,1.45,0,2.19c-1.78.19-3.56.41-5.33.65,0,.5,0,1,0,1.48,1.24-.11,2.48-.21,3.72-.29,0,1.21,0,2.43,0,3.64-1.22.13-2.44.26-3.66.42l0,1.71c1-.09,2-.18,3-.25l2.13-.15c0,.86,0,1.72,0,2.57s0,1.7,0,2.55c-3.38.3-6.75.69-10.1,1.19q-.87-8.4-1.68-16.82Q26.37,16.93,32.34,16.58Z"/><path fill="url(#Dégradé_sans_nom_15-5)" d="M47.81,21.92a7.6,7.6,0,0,1-.21,1.66A4.75,4.75,0,0,1,47,24.93a5,5,0,0,1-.94,1.13,8,8,0,0,1-1.38,1c1,1.67,1.88,3.34,2.78,5-1.78.3-3.56.62-5.33,1q-.91-2.49-1.9-5l-1.5.07L38.68,33q-2.53.07-5.07.21l-.18-5.32c-.06-1.76-.12-3.53-.16-5.32,0-.89-.07-1.78-.1-2.67s0-1.77,0-2.67a18.18,18.18,0,0,1,1.76-.59,15.17,15.17,0,0,1,1.75-.38c.59-.1,1.19-.16,1.8-.21S39.67,16,40.31,16a10.48,10.48,0,0,1,2.86.35,7.38,7.38,0,0,1,2.42,1.12,5.71,5.71,0,0,1,1.66,1.87A5.06,5.06,0,0,1,47.81,21.92Zm-5.63.32a2.57,2.57,0,0,0-.15-.9,1.79,1.79,0,0,0-.43-.7,2,2,0,0,0-.71-.47,2.6,2.6,0,0,0-1-.15,4,4,0,0,0-.5,0,2.36,2.36,0,0,0-.46.1c0,1.45-.07,2.9-.1,4.36h.3a5.19,5.19,0,0,0,1.08-.15,3.44,3.44,0,0,0,1-.41,2.29,2.29,0,0,0,.72-.7A1.76,1.76,0,0,0,42.18,22.24Z"/><path fill="url(#Dégradé_sans_nom_15-5)" d="M63.37,23A8,8,0,0,1,63,24.62,4.95,4.95,0,0,1,61.3,27a8.55,8.55,0,0,1-1.45.87q1.21,2.61,2.34,5.23c-1.81.15-3.61.32-5.4.52-.47-1.71-1-3.41-1.46-5.12l-1.51,0-.51,4.86c-1.69-.1-3.37-.18-5.06-.23q.14-2.67.27-5.31c.09-1.77.19-3.54.29-5.32,0-.9.09-1.79.14-2.67s.1-1.77.18-2.66a15.36,15.36,0,0,1,1.81-.44,15.2,15.2,0,0,1,1.78-.23,17.87,17.87,0,0,1,1.8-.05c.61,0,1.24,0,1.88.08a10.65,10.65,0,0,1,2.82.59,7.41,7.41,0,0,1,2.32,1.33,5.61,5.61,0,0,1,1.49,2A5,5,0,0,1,63.37,23Zm-5.64-.16a2.7,2.7,0,0,0-.07-.91,1.91,1.91,0,0,0-.37-.74,2,2,0,0,0-.68-.53,2.77,2.77,0,0,0-1-.24,4,4,0,0,0-.49,0l-.48.06c-.16,1.44-.31,2.89-.47,4.34l.3,0a5.06,5.06,0,0,0,1.09-.06,3.39,3.39,0,0,0,1-.33,2.35,2.35,0,0,0,.77-.63A1.76,1.76,0,0,0,57.73,22.83Z"/><path fill="url(#Dégradé_sans_nom_15-5)" d="M77.83,35.71q-3-.24-5.92-.36l-.27-2.73c-.9-.15-1.8-.3-2.71-.43-.32.84-.65,1.68-1,2.53Q65,34,62,33.36q3.21-7.48,6.84-14.87,3.59.33,7.17.81Q77.16,27.51,77.83,35.71Zm-6-6.7c-.09-1.39-.18-2.79-.28-4.18-.52,1.29-1,2.59-1.54,3.89Z"/><path fill="url(#Dégradé_sans_nom_15-10)" d="M23.27,40.22a7.4,7.4,0,0,0-2.61-1.58,9.61,9.61,0,0,0-3.33-.55,7.74,7.74,0,0,0-2.17.3,7.93,7.93,0,0,0-1.92.86,8.34,8.34,0,0,0-2.84,3,9,9,0,0,0-.79,2,8.64,8.64,0,0,0-.27,2.16,7.74,7.74,0,0,0,1.11,4.09,8.06,8.06,0,0,0,2.91,2.85,8.42,8.42,0,0,0,1.93.79,8.1,8.1,0,0,0,2.16.28c.3,0,.6,0,.91,0a8.68,8.68,0,0,0,.89-.14l1,2.76,4.29-2.76-1.62-1.93a7.84,7.84,0,0,0,2-2.83,8.91,8.91,0,0,0,.66-3.4A8.7,8.7,0,0,0,25,42.73,7.24,7.24,0,0,0,23.27,40.22ZM19.7,47.48a2.84,2.84,0,0,1-.51.9,2.58,2.58,0,0,1-.81.61,2.45,2.45,0,0,1-1.05.23,2.1,2.1,0,0,1-1-.26,2.36,2.36,0,0,1-.77-.67,3.29,3.29,0,0,1-.46-.94,3.84,3.84,0,0,1-.16-1.06,3.12,3.12,0,0,1,.18-1.07,2.81,2.81,0,0,1,.52-.85,2.43,2.43,0,0,1,.8-.57,2.6,2.6,0,0,1,1.06-.2,2.2,2.2,0,0,1,1.05.23,2.23,2.23,0,0,1,.76.63,2.76,2.76,0,0,1,.47.9,3.7,3.7,0,0,1,.15,1A3.21,3.21,0,0,1,19.7,47.48Z"/><path fill="url(#Dégradé_sans_nom_15-10)" d="M34.8,38.49c0,.6.07,1.2.09,1.81s0,1.21,0,1.82c0,.16,0,.41,0,.75s0,.72,0,1.16-.07.91-.11,1.42-.1,1-.17,1.52-.16,1-.26,1.47A8.37,8.37,0,0,1,34,49.68a2.89,2.89,0,0,1-.47.86.79.79,0,0,1-.61.32.66.66,0,0,1-.51-.27A2.48,2.48,0,0,1,32,49.9a5.73,5.73,0,0,1-.24-.93c-.06-.34-.1-.67-.13-1s-.06-.61-.07-.88,0-.46,0-.59a31,31,0,0,1,.23-3.73c.16-1.24.34-2.47.55-3.7l-5.49-.21c-.2,1.09-.36,2.17-.46,3.26a32.75,32.75,0,0,0-.17,3.28c0,.71,0,1.45.1,2.22a16.89,16.89,0,0,0,.36,2.26,11,11,0,0,0,.71,2.1,6.42,6.42,0,0,0,1.17,1.73,5.24,5.24,0,0,0,1.72,1.19,5.92,5.92,0,0,0,2.36.44A5.47,5.47,0,0,0,34.73,55a6.25,6.25,0,0,0,1.72-1.08,8.22,8.22,0,0,0,1.36-1.61,13.62,13.62,0,0,0,1-2,17.76,17.76,0,0,0,.74-2.2c.2-.76.36-1.51.49-2.26s.21-1.46.27-2.15.08-1.33.08-1.91c0-1.11,0-2.21-.14-3.28Z"/><path fill="url(#Dégradé_sans_nom_15-10)" d="M41.28,54.8l10.1-.24c0-.85.09-1.7.14-2.54l.15-2.57h-5l.11-1.71,3.52-.11L50.59,44H47.1l.11-1.47,5-.26c.06-.73.11-1.46.15-2.18s.09-1.45.13-2.18H41.66Z"/><path fill="url(#Dégradé_sans_nom_15-10)" d="M63.79,45.51a3.93,3.93,0,0,0-1.27-.91,4.93,4.93,0,0,0-1.69-.4,3.54,3.54,0,0,0-.48,0h-.63l-.69,0A3.68,3.68,0,0,1,58.4,44a1.38,1.38,0,0,1-.47-.24.55.55,0,0,1-.19-.42.58.58,0,0,1,.11-.39,1,1,0,0,1,.34-.26,2.08,2.08,0,0,1,.48-.16,5.07,5.07,0,0,1,.54-.09l.5,0h.39a7.79,7.79,0,0,1,1.71.19,14.07,14.07,0,0,1,1.67.45l.44-4.76a6.14,6.14,0,0,0-1.09-.41,11.06,11.06,0,0,0-1.17-.27c-.41-.07-.81-.12-1.22-.15s-.8,0-1.18,0a7.84,7.84,0,0,0-2.5.41A6.87,6.87,0,0,0,54.62,39a5.72,5.72,0,0,0-1.48,1.86,5.42,5.42,0,0,0-.56,2.48,5.18,5.18,0,0,0,.33,1.87,4.45,4.45,0,0,0,.92,1.49,4.2,4.2,0,0,0,1.42,1,4.7,4.7,0,0,0,1.83.35h.38l.5,0c.18,0,.36,0,.55.08a1.73,1.73,0,0,1,.5.15,1.12,1.12,0,0,1,.37.26.56.56,0,0,1,.14.38.63.63,0,0,1-.2.5,1.29,1.29,0,0,1-.49.27,2.35,2.35,0,0,1-.6.1l-.54,0a9.51,9.51,0,0,1-2.39-.31,8.29,8.29,0,0,1-2.2-.91l-.52,4.83c.34.16.72.32,1.15.5s.89.34,1.36.49.93.28,1.39.38a5.83,5.83,0,0,0,1.26.15,9.25,9.25,0,0,0,2.78-.4,6.43,6.43,0,0,0,2.26-1.19,5.52,5.52,0,0,0,1.52-2,6.5,6.5,0,0,0,.56-2.81,5.2,5.2,0,0,0-.27-1.71A3.83,3.83,0,0,0,63.79,45.51Z"/><polygon fill="url(#Dégradé_sans_nom_15-10)" points="64.94 38.06 64.8 43.59 68.3 43.41 68.27 54.52 73.22 54.26 74.11 43.15 77.6 43.01 77.72 38.04 64.94 38.06"/><path fill="#000000" d="M23.27,40.22a7.4,7.4,0,0,0-2.61-1.58,9.61,9.61,0,0,0-3.33-.55,7.74,7.74,0,0,0-2.17.3,7.93,7.93,0,0,0-1.92.86,8.34,8.34,0,0,0-2.84,3,9,9,0,0,0-.79,2,8.64,8.64,0,0,0-.27,2.16,7.74,7.74,0,0,0,1.11,4.09,8.06,8.06,0,0,0,2.91,2.85,8.42,8.42,0,0,0,1.93.79,8.1,8.1,0,0,0,2.16.28c.3,0,.6,0,.91,0a8.68,8.68,0,0,0,.89-.14l1,2.76,4.29-2.76-1.62-1.93a7.84,7.84,0,0,0,2-2.83,8.91,8.91,0,0,0,.66-3.4A8.7,8.7,0,0,0,25,42.73,7.24,7.24,0,0,0,23.27,40.22ZM19.7,47.48a2.84,2.84,0,0,1-.51.9,2.58,2.58,0,0,1-.81.61,2.45,2.45,0,0,1-1.05.23,2.1,2.1,0,0,1-1-.26,2.36,2.36,0,0,1-.77-.67,3.29,3.29,0,0,1-.46-.94,3.84,3.84,0,0,1-.16-1.06,3.12,3.12,0,0,1,.18-1.07,2.81,2.81,0,0,1,.52-.85,2.43,2.43,0,0,1,.8-.57,2.6,2.6,0,0,1,1.06-.2,2.2,2.2,0,0,1,1.05.23,2.23,2.23,0,0,1,.76.63,2.76,2.76,0,0,1,.47.9,3.7,3.7,0,0,1,.15,1A3.21,3.21,0,0,1,19.7,47.48Z"/><path fill="#000000" d="M34.8,38.49c0,.6.07,1.2.09,1.81s0,1.21,0,1.82c0,.16,0,.41,0,.75s0,.72,0,1.16-.07.91-.11,1.42-.1,1-.17,1.52-.16,1-.26,1.47A8.37,8.37,0,0,1,34,49.68a2.89,2.89,0,0,1-.47.86.79.79,0,0,1-.61.32.66.66,0,0,1-.51-.27A2.48,2.48,0,0,1,32,49.9a5.73,5.73,0,0,1-.24-.93c-.06-.34-.1-.67-.13-1s-.06-.61-.07-.88,0-.46,0-.59a31,31,0,0,1,.23-3.73c.16-1.24.34-2.47.55-3.7l-5.49-.21c-.2,1.09-.36,2.17-.46,3.26a32.75,32.75,0,0,0-.17,3.28c0,.71,0,1.45.1,2.22a16.89,16.89,0,0,0,.36,2.26,11,11,0,0,0,.71,2.1,6.42,6.42,0,0,0,1.17,1.73,5.24,5.24,0,0,0,1.72,1.19,5.92,5.92,0,0,0,2.36.44A5.47,5.47,0,0,0,34.73,55a6.25,6.25,0,0,0,1.72-1.08,8.22,8.22,0,0,0,1.36-1.61,13.62,13.62,0,0,0,1-2,17.76,17.76,0,0,0,.74-2.2c.2-.76.36-1.51.49-2.26s.21-1.46.27-2.15.08-1.33.08-1.91c0-1.11,0-2.21-.14-3.28Z"/><path fill="#000000" d="M41.28,54.8l10.1-.24c0-.85.09-1.7.14-2.54l.15-2.57h-5l.11-1.71,3.52-.11L50.59,44H47.1l.11-1.47,5-.26c.06-.73.11-1.46.15-2.18s.09-1.45.13-2.18H41.66Z"/><path fill="#000000" d="M63.79,45.51a3.93,3.93,0,0,0-1.27-.91,4.93,4.93,0,0,0-1.69-.4,3.54,3.54,0,0,0-.48,0h-.63l-.69,0A3.68,3.68,0,0,1,58.4,44a1.38,1.38,0,0,1-.47-.24.55.55,0,0,1-.19-.42.58.58,0,0,1,.11-.39,1,1,0,0,1,.34-.26,2.08,2.08,0,0,1,.48-.16,5.07,5.07,0,0,1,.54-.09l.5,0h.39a7.79,7.79,0,0,1,1.71.19,14.07,14.07,0,0,1,1.67.45l.44-4.76a6.14,6.14,0,0,0-1.09-.41,11.06,11.06,0,0,0-1.17-.27c-.41-.07-.81-.12-1.22-.15s-.8,0-1.18,0a7.84,7.84,0,0,0-2.5.41A6.87,6.87,0,0,0,54.62,39a5.72,5.72,0,0,0-1.48,1.86,5.42,5.42,0,0,0-.56,2.48,5.18,5.18,0,0,0,.33,1.87,4.45,4.45,0,0,0,.92,1.49,4.2,4.2,0,0,0,1.42,1,4.7,4.7,0,0,0,1.83.35h.38l.5,0c.18,0,.36,0,.55.08a1.73,1.73,0,0,1,.5.15,1.12,1.12,0,0,1,.37.26.56.56,0,0,1,.14.38.63.63,0,0,1-.2.5,1.29,1.29,0,0,1-.49.27,2.35,2.35,0,0,1-.6.1l-.54,0a9.51,9.51,0,0,1-2.39-.31,8.29,8.29,0,0,1-2.2-.91l-.52,4.83c.34.16.72.32,1.15.5s.89.34,1.36.49.93.28,1.39.38a5.83,5.83,0,0,0,1.26.15,9.25,9.25,0,0,0,2.78-.4,6.43,6.43,0,0,0,2.26-1.19,5.52,5.52,0,0,0,1.52-2,6.5,6.5,0,0,0,.56-2.81,5.2,5.2,0,0,0-.27-1.71A3.83,3.83,0,0,0,63.79,45.51Z"/><polygon fill="#000000" points="64.94 38.06 64.8 43.59 68.3 43.41 68.27 54.52 73.22 54.26 74.11 43.15 77.6 43.01 77.72 38.04 64.94 38.06"/><path stroke="#000000" fill="none" stroke-width="6" d="M20.26,58a1.13,1.13,0,0,1-.32,0,1,1,0,0,1-.62-.61l-.72-2h-.14a8.54,8.54,0,0,1-1,.05A9.17,9.17,0,0,1,15,55.11a9.35,9.35,0,0,1-2.16-.89A8.91,8.91,0,0,1,9.59,51a9.11,9.11,0,0,1-.93-2.17,9.49,9.49,0,0,1,0-4.85,9.52,9.52,0,0,1,.87-2.2,9.14,9.14,0,0,1,3.19-3.38,8.86,8.86,0,0,1,2.17-1,8.63,8.63,0,0,1,2.45-.34A10.68,10.68,0,0,1,21,37.7,8.41,8.41,0,0,1,24,39.49a8.28,8.28,0,0,1,1.94,2.86,10.29,10.29,0,0,1-.06,7.51,8.73,8.73,0,0,1-1.56,2.51l1,1.22a1,1,0,0,1,.23.79,1,1,0,0,1-.45.7L20.8,57.84A1,1,0,0,1,20.26,58ZM17.45,44.6a1.69,1.69,0,0,0-.66.12,1.39,1.39,0,0,0-.46.33,1.43,1.43,0,0,0-.32.52,2.09,2.09,0,0,0-.12.72,2.53,2.53,0,0,0,.12.77,2,2,0,0,0,.31.64,1.41,1.41,0,0,0,.45.39,1.06,1.06,0,0,0,.56.13,1.41,1.41,0,0,0,.62-.13,1.35,1.35,0,0,0,.48-.37,1.72,1.72,0,0,0,.33-.58,2.19,2.19,0,0,0,.12-.73,2.35,2.35,0,0,0-.11-.75,1.82,1.82,0,0,0-.3-.59,1.19,1.19,0,0,0-.42-.35A1.37,1.37,0,0,0,17.45,44.6Z"/><path stroke="#000000" fill="none" stroke-width="6" d="M32.62,56.34a6.79,6.79,0,0,1-2.76-.53,6.23,6.23,0,0,1-2-1.4,7.65,7.65,0,0,1-1.36-2,12.35,12.35,0,0,1-.78-2.29,17.39,17.39,0,0,1-.38-2.4c-.06-.8-.1-1.57-.1-2.31,0-1.12.06-2.26.17-3.37s.27-2.24.48-3.35a1,1,0,0,1,1-.82l5.53.21a1,1,0,0,1,.74.37,1,1,0,0,1,.2.8c-.2,1.21-.38,2.43-.53,3.65a29,29,0,0,0-.23,3.61c0,.12,0,.31,0,.55s0,.52.06.83.07.6.13.92a3.81,3.81,0,0,0,.19.74,1.65,1.65,0,0,0,.09-.22,7.4,7.4,0,0,0,.31-1.1c.1-.44.18-.9.25-1.39s.12-1,.16-1.47.08-1,.11-1.39,0-.8,0-1.12,0-.57,0-.73c0-.6,0-1.2,0-1.79s0-1.19-.09-1.78a1,1,0,0,1,.27-.75,1,1,0,0,1,.73-.31h5.49a1,1,0,0,1,1,.91c.1,1.1.15,2.23.15,3.37,0,.6,0,1.27-.09,2s-.15,1.47-.28,2.24-.3,1.56-.5,2.34a17.87,17.87,0,0,1-.79,2.34,14.71,14.71,0,0,1-1.12,2.12,8.73,8.73,0,0,1-1.53,1.81,7,7,0,0,1-2,1.26A6.5,6.5,0,0,1,32.62,56.34Z"/><path stroke="#000000" fill="none" stroke-width="6" d="M41.28,55.8a1,1,0,0,1-.7-.29,1,1,0,0,1-.3-.73l.38-16.9a1,1,0,0,1,1-1h10.8a1,1,0,0,1,1,1.06c-.05.74-.09,1.46-.13,2.17s-.09,1.47-.15,2.21a1,1,0,0,1-1,.92l-.92.05h0a1,1,0,0,1,.27.75l-.26,3.64a1,1,0,0,1-.44.75h.78a1,1,0,0,1,.72.32,1,1,0,0,1,.27.74c0,.86-.09,1.72-.14,2.57s-.1,1.68-.14,2.53a1,1,0,0,1-1,1Z"/><path stroke="#000000" fill="none" stroke-width="6" d="M57.74,56a7.31,7.31,0,0,1-1.48-.17c-.49-.11-1-.25-1.48-.41s-1-.33-1.42-.52-.85-.35-1.2-.51a1,1,0,0,1-.57-1l.51-4.83a1,1,0,0,1,1-.89,1,1,0,0,1,.24,0l-.24-.23A5.76,5.76,0,0,1,52,45.59a6.67,6.67,0,0,1,.28-5.16A6.61,6.61,0,0,1,54,38.25a7.92,7.92,0,0,1,2.45-1.36,9,9,0,0,1,2.82-.46c.4,0,.82,0,1.25,0s.88.09,1.32.16.86.18,1.28.3a7.38,7.38,0,0,1,1.24.47,1,1,0,0,1,.57,1l-.45,4.76a1,1,0,0,1-.45.75,1.11,1.11,0,0,1-.43.15,4.38,4.38,0,0,1,.93.78,4.84,4.84,0,0,1,1,1.68,6.21,6.21,0,0,1,.33,2.05,7.63,7.63,0,0,1-.65,3.23,6.46,6.46,0,0,1-1.79,2.35,7.59,7.59,0,0,1-2.61,1.38A10.55,10.55,0,0,1,57.74,56Z"/><path stroke="#000000" fill="none" stroke-width="6" d="M68.27,55.52a1,1,0,0,1-.69-.28,1,1,0,0,1-.31-.72l0-10.06-2.49.14a1,1,0,0,1-.69-.29,1,1,0,0,1-.31-.74L63.94,38a1,1,0,0,1,1-1l12.78,0a1,1,0,0,1,.71.3,1,1,0,0,1,.29.72l-.12,5a1,1,0,0,1-1,1l-2.61.1-.82,10.23a1,1,0,0,1-.94.92Z"/><rect x="24.37" y="38.92" width="38" height="14"/><path fill="url(#Dégradé_sans_nom_19)" d="M25.62,46.69a9,9,0,0,1-.66,3.4,7.9,7.9,0,0,1-2,2.83l1.61,1.92L20.3,57.61l-1-2.77a7,7,0,0,1-.9.14,6.85,6.85,0,0,1-.91.05,8.1,8.1,0,0,1-2.16-.28A8.6,8.6,0,0,1,13.4,54a7.61,7.61,0,0,1-1.64-1.24,7.91,7.91,0,0,1-1.27-1.61,7.68,7.68,0,0,1-.82-1.93A8.1,8.1,0,0,1,9.38,47a8.23,8.23,0,0,1,.28-2.17,8.43,8.43,0,0,1,.78-2,8.22,8.22,0,0,1,1.23-1.69A7.77,7.77,0,0,1,15.21,39a7.67,7.67,0,0,1,2.16-.3,9.67,9.67,0,0,1,3.34.55,7.21,7.21,0,0,1,2.6,1.58A7,7,0,0,1,25,43.34,8.7,8.7,0,0,1,25.62,46.69ZM19.93,47A3.39,3.39,0,0,0,19.77,46a3.12,3.12,0,0,0-.46-.91,2.26,2.26,0,0,0-1.82-.86,2.52,2.52,0,0,0-1,.21,2.21,2.21,0,0,0-.81.57,2.5,2.5,0,0,0-.51.85,3.12,3.12,0,0,0-.18,1.07A3.82,3.82,0,0,0,15.09,48a3.07,3.07,0,0,0,.47.94,2.34,2.34,0,0,0,.76.67,2.12,2.12,0,0,0,1.05.26A2.41,2.41,0,0,0,19.23,49a2.71,2.71,0,0,0,.52-.89A3.21,3.21,0,0,0,19.93,47Z"/><path fill="url(#Dégradé_sans_nom_19)" d="M40.47,42.37c0,.58,0,1.22-.08,1.91s-.15,1.42-.27,2.16-.29,1.5-.49,2.26a15.65,15.65,0,0,1-.74,2.19,12.37,12.37,0,0,1-1,2,7.57,7.57,0,0,1-1.36,1.6,5.89,5.89,0,0,1-1.71,1.08,5.55,5.55,0,0,1-2.11.4,5.85,5.85,0,0,1-2.36-.44,5.29,5.29,0,0,1-1.72-1.19,6,6,0,0,1-1.17-1.73,10.4,10.4,0,0,1-.72-2.1,16.89,16.89,0,0,1-.36-2.26c-.06-.77-.1-1.51-.1-2.22a32.6,32.6,0,0,1,.17-3.28c.11-1.09.26-2.18.47-3.26l5.48.21c-.21,1.23-.39,2.46-.54,3.7a29,29,0,0,0-.23,3.73c0,.13,0,.33,0,.59s0,.56.06.88.08.66.14,1a4.22,4.22,0,0,0,.24.93,2.47,2.47,0,0,0,.36.69.66.66,0,0,0,.51.27.79.79,0,0,0,.61-.32,3.21,3.21,0,0,0,.48-.87A8.9,8.9,0,0,0,34.37,49c.1-.47.18-.95.25-1.46s.13-1,.17-1.53.08-1,.11-1.41,0-.83.05-1.16,0-.59,0-.75q0-.91,0-1.83c0-.6,0-1.2-.08-1.81h5.48C40.42,40.17,40.47,41.27,40.47,42.37Z"/><path fill="url(#Dégradé_sans_nom_19)" d="M52.51,38.51c0,.73-.09,1.46-.13,2.18s-.09,1.44-.15,2.18l-5,.25-.12,1.48h3.49l-.26,3.63-3.51.12-.12,1.71h5c-.05.86-.1,1.72-.15,2.56s-.09,1.7-.13,2.55l-10.1.24.37-16.9Z"/><path fill="url(#Dégradé_sans_nom_19)" d="M64.9,49.17A6.65,6.65,0,0,1,64.35,52a5.54,5.54,0,0,1-1.53,2,6.35,6.35,0,0,1-2.26,1.19,9.25,9.25,0,0,1-2.78.4,6,6,0,0,1-1.26-.15c-.46-.1-.92-.23-1.39-.38s-.92-.32-1.35-.5-.82-.34-1.16-.49l.52-4.83a8.22,8.22,0,0,0,2.21.91,9.91,9.91,0,0,0,2.38.31l.54,0a2.52,2.52,0,0,0,.61-.11,1.12,1.12,0,0,0,.48-.26.64.64,0,0,0,.2-.5.56.56,0,0,0-.14-.38.88.88,0,0,0-.36-.26,1.9,1.9,0,0,0-.51-.15,5.21,5.21,0,0,0-.55-.08,4.44,4.44,0,0,0-.5,0h-.38a4.53,4.53,0,0,1-1.83-.36,4.27,4.27,0,0,1-1.42-1A4.62,4.62,0,0,1,53,45.84,5.22,5.22,0,0,1,52.62,44a5.42,5.42,0,0,1,.56-2.48,5.75,5.75,0,0,1,1.49-1.86,6.46,6.46,0,0,1,2.14-1.18A7.74,7.74,0,0,1,59.3,38c.39,0,.78,0,1.19,0s.81.08,1.21.15a11.86,11.86,0,0,1,1.18.27,6.79,6.79,0,0,1,1.09.41l-.45,4.75a14.07,14.07,0,0,0-1.67-.45,8.4,8.4,0,0,0-1.7-.18h-.4l-.5,0a4.89,4.89,0,0,0-.53.09,2.08,2.08,0,0,0-.48.16.82.82,0,0,0-.34.26.54.54,0,0,0-.12.39.55.55,0,0,0,.19.41,1.24,1.24,0,0,0,.47.25,2.94,2.94,0,0,0,.63.12,5.43,5.43,0,0,0,.69,0h.63l.48,0a4.71,4.71,0,0,1,1.69.4,4.06,4.06,0,0,1,1.27.9,3.86,3.86,0,0,1,.8,1.34A5.26,5.26,0,0,1,64.9,49.17Z"/><path fill="url(#Dégradé_sans_nom_19)" d="M77.76,38.65l-.12,5-3.49.14-.89,11.11-5,.25,0-11.1-3.49.18L65,38.67Z"/><path fill="#8cc63f" d="M25.65,6a4.24,4.24,0,0,1-.52-1.39,3.88,3.88,0,0,1,0-1.48,2.54,2.54,0,0,1,.47-1.06,4.11,4.11,0,0,1,1.17-.94A7.34,7.34,0,0,1,28.21.52a9.35,9.35,0,0,1,1-.23L31,0a.37.37,0,0,1,.4.15c.06.41.1.82.15,1.25,0,.07,0,.12,0,.17,0,.52,0,1,0,1.54a5.89,5.89,0,0,1-.26,1.61,4.08,4.08,0,0,1-.53,1.14A2.8,2.8,0,0,1,29.13,7a3.68,3.68,0,0,1-2.43-.11,4.51,4.51,0,0,1-.52-.29,5.91,5.91,0,0,1,1.34-1.9,7,7,0,0,1,1.33-1A.32.32,0,0,0,29,3.27c0-.14-.11-.19-.22-.23a.34.34,0,0,0-.36.07c-.38.28-.77.54-1.12.85a7.58,7.58,0,0,0-1.47,1.78C25.77,5.83,25.7,5.9,25.65,6Z"/><path fill="#8cc63f" d="M16.61.49a.49.49,0,0,1,.48-.27c.39,0,.79-.09,1.18-.1A10.33,10.33,0,0,1,21,.3a4.29,4.29,0,0,1,1.49.64,2.57,2.57,0,0,1,1,1.32,5.8,5.8,0,0,1,.17.72,3.44,3.44,0,0,1,0,1.53,2.17,2.17,0,0,1-.38.9,8.27,8.27,0,0,0-1.36-1.58,9.24,9.24,0,0,0-1.79-1.18.34.34,0,0,0-.41.1.31.31,0,0,0,0,.43.8.8,0,0,0,.21.15c.36.23.75.43,1.1.68a5.67,5.67,0,0,1,1.35,1.37,5.33,5.33,0,0,1,.33.55,2.84,2.84,0,0,1-1.2.54,5.7,5.7,0,0,1-.91.13,3.07,3.07,0,0,1-1.79-.49,3.5,3.5,0,0,1-1.11-1.33,7.46,7.46,0,0,1-.61-1.59,8.79,8.79,0,0,1-.19-.89c0-.17-.07-.35-.11-.54C16.7,1.34,16.66.92,16.61.49Z"/><path fill="#709e33" d="M22.69,5.93c-.11-.18-.21-.37-.34-.55A5.67,5.67,0,0,0,21,4c-.35-.25-.74-.45-1.1-.68a.8.8,0,0,1-.21-.15.31.31,0,0,1,0-.43.34.34,0,0,1,.41-.1,9.24,9.24,0,0,1,1.79,1.18A7.89,7.89,0,0,1,23.2,5.41a12.47,12.47,0,0,1,1.51,3.51,6.52,6.52,0,0,1,.4-1.73c.15-.4.35-.79.53-1.2.06-.09.13-.16.18-.25A7.58,7.58,0,0,1,27.29,4c.35-.31.74-.57,1.12-.85A.34.34,0,0,1,28.77,3c.11,0,.21.09.22.23a.32.32,0,0,1-.14.35,7,7,0,0,0-1.33,1,6.09,6.09,0,0,0-1.35,1.9,7.75,7.75,0,0,0-.73,2.29c-.07.44-.13.87-.17,1.32a7.12,7.12,0,0,0,0,.8c0,.51.06,1,.08,1.53a.35.35,0,0,1-.69,0,.31.31,0,0,0,0-.1c-.06-.44-.1-.89-.18-1.32s-.19-1-.32-1.56A14.12,14.12,0,0,0,23,6.49C22.93,6.3,22.81,6.12,22.69,5.93Z"/></g></g></svg>