<svg width="51" height="51" viewBox="0 0 51 51" fill="none" xmlns="http://www.w3.org/2000/svg">
<path d="M25.5 51C39.5833 51 51 39.5833 51 25.5C51 11.4167 39.5833 0 25.5 0C11.4167 0 0 11.4167 0 25.5C0 39.5833 11.4167 51 25.5 51Z" fill="#FCF7F4"/>
<path d="M45.8969 25.5C45.8969 36.7631 36.7631 45.8969 25.5 45.8969C16.0295 45.8969 8.06655 39.4468 5.77144 30.6964C5.33626 29.0385 5.10312 27.2977 5.10312 25.5C5.10312 14.2317 14.2369 5.1031 25.5 5.1031C31.2766 5.1031 36.4885 7.50182 40.198 11.3615C43.7261 15.0244 45.8969 20.0083 45.8969 25.5Z" fill="#62A12C"/>
<path d="M38.5401 12.3562C36.991 15.0762 33.1728 20.9305 25.8057 25.2047C17.9619 29.7483 10.5067 29.9451 7.38783 29.8519C7.06144 28.738 6.78168 27.106 6.78168 25.1477C6.78168 14.9518 15.0451 6.68843 25.2409 6.68843C30.4684 6.69361 35.1881 8.86438 38.5401 12.3562Z" fill="#88D348"/>
<path d="M35.9083 37.8252C35.2192 36.4782 31.2766 36.8615 28.5463 38.2448C26.3652 39.3535 23.8059 41.6901 24.3395 43.0837C24.842 44.3945 27.9661 44.5965 30.2301 43.923C33.7686 42.8816 36.6439 39.2654 35.9083 37.8252Z" fill="#88D348"/>
<path d="M15.2834 25.0285C15.0244 25.1684 14.3975 24.4535 14.3508 24.3965C13.4597 23.3655 13.294 21.775 13.6255 21.6196C13.9001 21.4952 14.5477 22.3293 14.8741 22.92C15.3352 23.7592 15.5632 24.8731 15.2834 25.0285Z" fill="#E6D3C8"/>
<path d="M15.2005 32.8723C14.9363 32.9759 14.4596 32.3439 14.1747 31.9605C13.1593 30.5979 12.5479 28.6707 12.9676 28.4168C13.3043 28.2147 14.3249 29.1007 14.8586 30.0643C15.501 31.2352 15.5632 32.7324 15.2005 32.8723Z" fill="#E6D3C8"/>
<path d="M19.6457 37.6076C19.4436 37.7734 18.6302 37.1776 18.1225 36.5921C17.1122 35.4265 16.8739 33.7893 17.1433 33.665C17.2884 33.5976 17.5992 33.9914 18.0551 34.5768C18.8996 35.6648 19.9306 37.3745 19.6457 37.6076Z" fill="#E6D3C8"/>
<path d="M28.2717 37.9754C28.1163 38.2189 27.4221 38.1101 26.1942 37.6594C25.9352 37.3693 25.6502 36.9911 25.3964 36.5196C24.8524 35.5042 24.7177 34.5405 24.6866 33.9447C27.334 36.2295 28.5308 37.5765 28.2717 37.9754Z" fill="#E6D3C8"/>
<path d="M35.5974 25.9248C35.7788 25.8005 36.2658 26.158 36.5455 26.4377C37.7578 27.6552 37.592 29.9711 37.2449 30.054C36.9911 30.1109 36.5611 29.0333 36.0223 27.6863C35.6959 26.8781 35.3798 26.0751 35.5974 25.9248Z" fill="#E6D3C8"/>
<path d="M23.7644 12.8329C24.1374 12.8899 24.4224 13.0142 24.6244 13.1334C25.9507 13.9053 26.0233 15.7134 26.0284 15.9207C25.7331 15.8896 25.2358 15.786 24.7643 15.4285C23.609 14.5478 23.7489 12.9572 23.7644 12.8329Z" fill="#E6D3C8"/>
<path d="M33.7945 17.4801C34.0691 17.3557 33.9706 16.2626 33.5665 15.3922C32.7117 13.5634 30.4891 12.7189 30.2508 13.009C30.1679 13.1127 30.6704 13.781 31.6859 15.1125C33.4733 17.4542 33.6857 17.5267 33.7945 17.4801Z" fill="#E6D3C8"/>
<path d="M35.3332 17.8894C35.6389 17.6822 36.6854 18.651 37.2449 19.4436C38.4935 21.2207 38.3536 23.5935 37.9132 23.7126C37.1931 23.9095 34.696 18.3194 35.3332 17.8894Z" fill="#E6D3C8"/>
<path d="M36.8408 27.5827L35.1519 26.847C35.2141 26.4844 35.2555 26.1217 35.2762 25.759L37.1413 25.0234C37.2916 24.9301 37.5143 24.7643 37.7164 24.5105C38.8976 22.9925 37.934 19.7752 36.1984 19.4074C35.9031 19.3452 35.6389 19.3763 35.4731 19.4074L33.608 20.143C33.3956 19.8684 33.1728 19.6094 32.9293 19.3711L33.8722 17.5941C33.924 17.4283 33.981 17.1692 33.9551 16.8688C33.7997 15.0865 30.7326 13.7551 29.1007 14.755C28.8261 14.9259 28.6396 15.128 28.5256 15.2679L27.5827 17.0449C27.2252 17.0242 26.8574 17.0242 26.4896 17.0449L25.9611 15.2679C25.8834 15.128 25.7435 14.9259 25.5104 14.755C24.1064 13.7551 20.7337 15.0865 20.1638 16.8688C20.0653 17.1692 20.0653 17.4283 20.0809 17.5941L20.6093 19.3711C20.3088 19.6146 20.0187 19.8684 19.7493 20.143L18.0604 19.4074C17.8997 19.3763 17.6407 19.3452 17.335 19.4074C15.5114 19.77 13.8017 22.9925 14.6255 24.5105C14.7654 24.7643 14.9519 24.9301 15.0762 25.0234L16.7651 25.759C16.703 26.1217 16.6615 26.4844 16.6408 26.847L14.7757 27.5827C14.6255 27.6759 14.4027 27.8417 14.2006 28.0956C13.0194 29.6136 13.983 32.8309 15.7186 33.1987C16.0139 33.2609 16.2782 33.2298 16.4439 33.1987L18.309 32.463C18.5214 32.7376 18.7442 32.9966 18.9877 33.235L18.0448 35.012C17.993 35.1778 17.936 35.4368 17.9619 35.7373C18.1173 37.5195 21.1844 38.851 22.8163 37.8511C23.0909 37.6801 23.2774 37.4781 23.3862 37.3382L24.3291 35.5612C24.6866 35.5819 25.0545 35.5819 25.4171 35.5612L25.9456 37.3382C26.0233 37.4781 26.1632 37.6801 26.3963 37.8511C27.8003 38.851 31.173 37.5195 31.7429 35.7373C31.8413 35.4368 31.8413 35.1778 31.8258 35.012L31.2973 33.235C31.5978 32.9915 31.888 32.7376 32.1574 32.463L33.8463 33.1987C34.0069 33.2298 34.266 33.2609 34.5716 33.1987C36.3953 32.836 38.1049 29.6136 37.2812 28.0956C37.1569 27.8417 36.9652 27.6759 36.8408 27.5827ZM25.4378 30.7326C22.9925 30.7326 21.2414 28.7484 21.5263 26.303C21.8113 23.8577 24.0235 21.8734 26.474 21.8734C28.9245 21.8734 30.6705 23.8577 30.3855 26.303C30.1006 28.7484 27.8832 30.7326 25.4378 30.7326Z" fill="#E6D3C8"/>
<path d="M35.929 25.9715L34.24 25.2358C34.3022 24.8731 34.3437 24.5105 34.3644 24.1478L36.2295 23.4121C36.3797 23.3189 36.6025 23.1531 36.8045 22.8992C37.9858 21.3812 37.0221 18.164 35.2866 17.7961C34.9913 17.7339 34.727 17.765 34.5612 17.7961L32.6961 18.5318C32.4837 18.2572 32.261 17.9982 32.0175 17.7599L32.9604 15.9828C33.0122 15.817 33.0692 15.558 33.0433 15.2575C32.8878 13.4753 29.8208 12.1438 28.1888 13.1437C27.9143 13.3147 27.7277 13.5168 27.6189 13.6566L26.676 15.4337C26.3186 15.4129 25.9507 15.4129 25.5829 15.4337L25.0544 13.6566C24.9767 13.5168 24.8368 13.3147 24.6037 13.1437C23.1997 12.1438 19.827 13.4753 19.2571 15.2575C19.1587 15.558 19.1587 15.817 19.1742 15.9828L19.6871 17.7599C19.3866 18.0033 19.0965 18.2572 18.8271 18.5318L17.1381 17.7961C16.9775 17.765 16.7185 17.7339 16.4128 17.7961C14.5892 18.1588 12.8795 21.3812 13.7033 22.8992C13.8431 23.1531 14.0297 23.3189 14.154 23.4121L15.8429 24.1478C15.7808 24.5105 15.7393 24.8731 15.7186 25.2358L13.8535 25.9715C13.7033 26.0647 13.4805 26.2305 13.2784 26.4844C12.0972 28.0023 13.0608 31.2196 14.7964 31.5875C15.0917 31.6496 15.3559 31.6185 15.5217 31.5875L17.3868 30.8518C17.5992 31.1264 17.822 31.3854 18.0655 31.6237L17.1226 33.4007C17.0708 33.5665 17.0138 33.8256 17.0397 34.1261C17.1951 35.9083 20.2622 37.2397 21.8941 36.2398C22.1687 36.0689 22.3552 35.8668 22.4692 35.7269L23.4121 33.9499C23.7696 33.9706 24.1374 33.9706 24.5053 33.9499L25.0337 35.7269C25.1114 35.8668 25.2513 36.0689 25.4844 36.2398C26.8884 37.2397 30.2612 35.9083 30.8311 34.1261C30.9295 33.8256 30.9295 33.5665 30.9139 33.4007L30.3855 31.6237C30.686 31.3802 30.9761 31.1264 31.2455 30.8518L32.9345 31.5875C33.0951 31.6185 33.3541 31.6496 33.6598 31.5875C35.4834 31.2248 37.1931 28.0023 36.3694 26.4844C36.245 26.2305 36.0533 26.0647 35.929 25.9715ZM24.526 29.1214C22.0806 29.1214 20.3295 27.1371 20.6145 24.6918C20.8994 22.2464 23.1116 20.2622 25.5622 20.2622C28.0075 20.2622 29.7586 22.2464 29.4737 24.6918C29.1887 27.1371 26.9713 29.1214 24.526 29.1214Z" fill="#FCF7F4"/>
</svg>
