<svg width="41" height="65" viewBox="0 0 41 65" fill="none" xmlns="http://www.w3.org/2000/svg">
<path d="M40.0101 64.4405H0.960088C0.336169 63.0101 0.00585938 59.5626 0.00585938 58.0222V13.6807H40.0101V64.4405Z" fill="#BA2F2F"/>
<path d="M38.2122 11.7734H1.80469V62.68H38.2122V11.7734Z" fill="#EDEDED"/>
<path d="M34.7618 50.7598L0.00585938 57.3615V6.60171L34.7618 0V50.7598Z" fill="#BA2F2F"/>
<path d="M40.0102 64.4401H0.813444L0.740043 64.1466C0.29963 62.1661 -0.140784 59.8189 0.0427213 57.2515L0.0794218 56.9948L0.33633 56.9581L34.3583 50.4664V0H35.0923V51.0532L0.776744 57.5816C0.629939 59.8189 0.996951 61.9094 1.40066 63.7065H40.0102V64.4401Z" fill="#962323"/>
<path d="M1.80451 55.3814C1.62101 55.3814 1.4375 55.2347 1.4375 55.0146V7.92243C1.4375 7.73904 1.5843 7.55566 1.80451 7.55566C1.98802 7.55566 2.17152 7.70237 2.17152 7.92243V55.0146C2.17152 55.2347 1.98802 55.3814 1.80451 55.3814Z" fill="#962323"/>
<path d="M14.0998 23.9134C12.4482 23.9134 10.9068 23.7301 9.54883 23.3633C7.01646 22.6665 5.47501 21.4195 5.1814 19.8424C4.59418 16.6149 9.62224 13.0573 16.3385 11.847C23.0548 10.6733 28.9637 12.3238 29.5509 15.5146C30.1382 18.7421 25.1101 22.2997 18.3938 23.51C16.9258 23.7667 15.4944 23.9134 14.0998 23.9134ZM20.6693 11.8103C19.3113 11.8103 17.88 11.9203 16.4119 12.1771C9.87914 13.3507 5.03459 16.7616 5.54841 19.769C5.80532 21.1994 7.27336 22.373 9.62223 22.9965C12.0445 23.6567 15.1274 23.6934 18.3204 23.1432C24.8532 22.0063 29.6977 18.5954 29.1839 15.5879C28.7802 13.2773 25.2569 11.8103 20.6693 11.8103Z" fill="#B76C39"/>
<path d="M24.4689 16.1411L10.2285 18.8574L10.2973 19.2177L24.5377 16.5014L24.4689 16.1411Z" fill="#B76C39"/>
<path d="M22.6315 17.7762L12.0684 19.79L12.1371 20.1503L22.7002 18.1365L22.6315 17.7762Z" fill="#B76C39"/>
<path d="M22.6334 14.1444L12.0703 16.1582L12.1391 16.5185L22.7022 14.5046L22.6334 14.1444Z" fill="#B76C39"/>
</svg>
