<svg width="59" height="69" viewBox="0 0 59 69" fill="none" xmlns="http://www.w3.org/2000/svg">
<path d="M35.2677 1.86796L0 4.72949L4.39863 58.868L39.6663 56.0065L35.2677 1.86796Z" fill="#D3D2CD"/>
<path d="M54.1681 11.2644L18.9004 14.126L23.299 68.2645L58.5667 65.4029L54.1681 11.2644Z" fill="#D3D2CD"/>
<path d="M47.9621 1.40527H5.54297V62.214H47.9621V1.40527Z" fill="#EAEAEA"/>
<path d="M6.97336 63.6205H47.9856V60.7852H6.97336C6.17609 60.7852 5.54297 61.4178 5.54297 62.2146C5.54297 62.9879 6.17609 63.6205 6.97336 63.6205Z" fill="#BCBBB3"/>
<path d="M6.97336 2.83539H47.9856V0H6.97336C6.17609 0 5.54297 0.63269 5.54297 1.42941C5.54297 2.17927 6.17609 2.83539 6.97336 2.83539Z" fill="#EAEAEA"/>
<path d="M31.9937 3.9834H9.01367V10.076H31.9937V3.9834Z" fill="#7A786E"/>
<path d="M44.1635 12.5596H33.3301V33.7196H44.1635V12.5596Z" fill="#9B9A95"/>
<path d="M19.8471 39.7178H9.01367V47.2398H19.8471V39.7178Z" fill="#9B9A95"/>
<path d="M31.9937 12.5596H9.01367V23.1513H31.9937V12.5596Z" fill="#9B9A95"/>
<path d="M44.1637 39.8359H9.01367V41.1482H44.1637V39.8359Z" fill="#9B9A95"/>
<path d="M44.1637 41.8516H9.01367V43.1638H44.1637V41.8516Z" fill="#9B9A95"/>
<path d="M44.1637 43.8896H9.01367V45.2019H44.1637V43.8896Z" fill="#9B9A95"/>
<path d="M44.1637 45.9287H9.01367V47.241H44.1637V45.9287Z" fill="#9B9A95"/>
<path d="M44.1637 49.9824H9.01367V51.2947H44.1637V49.9824Z" fill="#9B9A95"/>
<path d="M44.1637 47.9434H9.01367V49.2556H44.1637V47.9434Z" fill="#9B9A95"/>
<path d="M31.9937 24.2764H9.01367V25.5886H31.9937V24.2764Z" fill="#9B9A95"/>
<path d="M31.9937 26.3154H9.01367V27.6277H31.9937V26.3154Z" fill="#9B9A95"/>
<path d="M31.9937 28.3535H9.01367V29.6658H31.9937V28.3535Z" fill="#9B9A95"/>
<path d="M31.9937 30.3691H9.01367V31.6814H31.9937V30.3691Z" fill="#9B9A95"/>
<path d="M31.9937 32.4082H9.01367V33.7205H31.9937V32.4082Z" fill="#9B9A95"/>
<path d="M44.1637 52.0205H9.01367V53.3328H44.1637V52.0205Z" fill="#9B9A95"/>
<path d="M44.1637 54.0596H9.01367V55.3718H44.1637V54.0596Z" fill="#9B9A95"/>
<path d="M44.1637 56.0742H9.01367V57.3865H44.1637V56.0742Z" fill="#9B9A95"/>
<path d="M7.69531 38.514L7.69531 60.7754H9.00846L9.00846 38.514H7.69531Z" fill="#EAEAEA"/>
<path d="M19.834 24.2918L19.834 59.0664H21.1471L21.1471 24.2918H19.834Z" fill="#EAEAEA"/>
<path d="M31.9883 39.1112V59.0762H33.3014V39.1112H31.9883Z" fill="#EAEAEA"/>
<path d="M44.1637 35.7588H9.01367V39.1097H44.1637V35.7588Z" fill="#9B9A95"/>
<path d="M31.9937 3.9834H9.01367V10.076H31.9937V3.9834Z" fill="#7A786E"/>
<path d="M37.7385 3.9834H33.3301V10.076H37.7385V3.9834Z" fill="#7A786E"/>
<path d="M44.1648 3.9834H38.748V10.076H44.1648V3.9834Z" fill="#7A786E"/>
</svg>
