<svg width="73" height="47" viewBox="0 0 73 47" fill="none" xmlns="http://www.w3.org/2000/svg">
<path d="M72.8469 0.0917969H24.334V43.9108H72.8469V0.0917969Z" fill="#C6B375"/>
<path d="M42.0391 35.1416H67.5383L72.8775 43.8809H42.0391V35.1416Z" fill="#A38E54"/>
<path d="M48.6055 43.8809H62.1989L67.5381 35.1416H48.6055V43.8809Z" fill="#E0D299"/>
<path d="M43.2676 8.83107H67.5394L72.8786 0.0917969H43.2676V8.83107Z" fill="#E0D299"/>
<path d="M48.6055 0.0917969H62.1989L67.5381 8.83107H48.6055V0.0917969Z" fill="#A38E54"/>
<path d="M62.1686 0.0917969H24.334V43.9108H62.1686V0.0917969Z" fill="#E0D299"/>
<path d="M30.9016 43.8802L22.4019 46.272L9.33008 4.4461L24.335 0.0917969L30.9016 43.8802Z" fill="#C6B375"/>
<path d="M22.4 46.2722L0 44.6163L3.25261 0.919922L17.7666 1.99317L22.4 46.2722Z" fill="#E0D299"/>
<path d="M24.2715 5.94864L33.477 38.0233L37.4967 41.3657L24.3328 0.0917969L24.2715 5.94864Z" fill="#C6B375"/>
<path d="M34.7969 8.55469V15.4541L46.4572 37.7776L34.7969 8.55469Z" fill="#C6B375"/>
<path d="M15.1906 13.4609L10.4345 45.3823L5.70898 45.0143L15.1906 13.4609Z" fill="#C6B375"/>
<path d="M72.7247 43.9723L67.5082 35.4477L62.2918 43.9723L62.0156 43.8804V0.0919924L62.2918 0L67.5082 8.52463L72.7247 0L73.0008 0.0919924V43.911L72.7247 43.9723ZM67.3855 35.0798H67.631L72.694 43.3591V0.613282L67.631 8.8926H67.3855L62.3225 0.613282V43.3591L67.3855 35.0798Z" fill="#A38E54"/>
</svg>
