<svg width="85" height="32" viewBox="0 0 85 32" fill="none" xmlns="http://www.w3.org/2000/svg">
    <defs>
        <radialGradient id="paint0_radial_588_11524" cx="0" cy="0" r="1" gradientUnits="userSpaceOnUse" gradientTransform="translate(42.1791 15.9968) scale(14.5179 14.5799)">
            <stop stop-color="#004156"/>
            <stop offset="0.376" stop-color="#064B62"/>
            <stop offset="1" stop-color="#14637E"/>
        </radialGradient>
        <radialGradient id="paint1_radial_588_11524" cx="0" cy="0" r="1" gradientUnits="userSpaceOnUse" gradientTransform="translate(42.179 15.9965) scale(14.518 14.58)">
            <stop stop-color="#004156"/>
            <stop offset="0.376" stop-color="#064B62"/>
            <stop offset="1" stop-color="#14637E"/>
        </radialGradient>
        <radialGradient id="paint2_radial_588_11524" cx="0" cy="0" r="1" gradientUnits="userSpaceOnUse" gradientTransform="translate(42.1788 15.9974) scale(16.1901 16.2591)">
            <stop stop-color="#004DCD"/>
            <stop offset="0.3057" stop-color="#0459CE"/>
            <stop offset="0.8511" stop-color="#1077D0"/>
            <stop offset="1" stop-color="#1481D1"/>
        </radialGradient>
        <radialGradient id="paint3_radial_588_11524" cx="0" cy="0" r="1" gradientUnits="userSpaceOnUse" gradientTransform="translate(13.1435 14.5427) rotate(156.862) scale(11.5555 11.5896)">
            <stop stop-color="#004156"/>
            <stop offset="0.376" stop-color="#064B62"/>
            <stop offset="1" stop-color="#14637E"/>
        </radialGradient>
        <radialGradient id="paint4_radial_588_11524" cx="0" cy="0" r="1" gradientUnits="userSpaceOnUse" gradientTransform="translate(13.1433 14.5425) rotate(156.862) scale(11.5553 11.5895)">
            <stop stop-color="#004156"/>
            <stop offset="0.376" stop-color="#064B62"/>
            <stop offset="1" stop-color="#14637E"/>
        </radialGradient>
        <radialGradient id="paint5_radial_588_11524" cx="0" cy="0" r="1" gradientUnits="userSpaceOnUse" gradientTransform="translate(13.1436 14.5429) rotate(156.862) scale(12.8863 12.9243)">
            <stop stop-color="#004DCD"/>
            <stop offset="0.3057" stop-color="#0459CE"/>
            <stop offset="0.8511" stop-color="#1077D0"/>
            <stop offset="1" stop-color="#1481D1"/>
        </radialGradient>
        <radialGradient id="paint6_radial_588_11524" cx="0" cy="0" r="1" gradientUnits="userSpaceOnUse" gradientTransform="translate(71.5968 15.1058) rotate(-156.972) scale(11.5387 11.6067)">
            <stop stop-color="#004156"/>
            <stop offset="0.376" stop-color="#064B62"/>
            <stop offset="1" stop-color="#14637E"/>
        </radialGradient>
        <radialGradient id="paint7_radial_588_11524" cx="0" cy="0" r="1" gradientUnits="userSpaceOnUse" gradientTransform="translate(71.5969 15.1054) rotate(-156.972) scale(11.5386 11.6066)">
            <stop stop-color="#004156"/>
            <stop offset="0.376" stop-color="#064B62"/>
            <stop offset="1" stop-color="#14637E"/>
        </radialGradient>
        <radialGradient id="paint8_radial_588_11524" cx="0" cy="0" r="1" gradientUnits="userSpaceOnUse" gradientTransform="translate(71.5966 15.1057) rotate(-156.972) scale(12.8676 12.9434)">
            <stop stop-color="#004DCD"/>
            <stop offset="0.3057" stop-color="#0459CE"/>
            <stop offset="0.8511" stop-color="#1077D0"/>
            <stop offset="1" stop-color="#1481D1"/>
        </radialGradient>
    </defs>
<path d="M48.7001 32C47.7438 32 46.8205 31.7682 45.9632 31.3156L42.1822 29.3177L38.4011 31.3156C37.5328 31.7682 36.6205 32 35.6643 32C33.9276 32 32.2789 31.2273 31.1468 29.8806C30.0367 28.5561 29.564 26.801 29.8608 25.079L30.5862 20.8513L27.5196 17.8489C25.9039 16.2704 25.3323 13.9414 26.0248 11.7889C26.7173 9.63643 28.5418 8.09107 30.7731 7.77096L35.0048 7.15281L36.8953 3.30045C37.8955 1.25836 39.9179 0 42.1822 0C44.4354 0 46.4578 1.25836 47.458 3.30045L49.3485 7.15281L53.5802 7.77096C55.8115 8.1021 57.6361 9.63643 58.3285 11.7889C59.021 13.9414 58.4604 16.2704 56.8447 17.8489L53.7781 20.8513L54.5035 25.079C54.8003 26.801 54.3277 28.5561 53.2175 29.8806C52.0854 31.2163 50.4367 32 48.7001 32Z" fill="#1481D1"/>
<path d="M48.7 30.3111C48.0185 30.3111 47.359 30.1455 46.7435 29.8143L42.1821 27.408L37.6207 29.8143C37.0051 30.1455 36.3347 30.3111 35.6642 30.3111C34.4222 30.3111 33.2461 29.7591 32.4327 28.7878C31.6303 27.8274 31.3006 26.6132 31.5204 25.3549L32.3888 20.2552L28.6956 16.6457C27.5415 15.5087 27.1349 13.853 27.6295 12.3076C28.1241 10.7622 29.4321 9.65842 31.0368 9.42661L36.1368 8.68705L38.423 4.03993C39.1375 2.58287 40.5883 1.67773 42.2041 1.67773C43.8198 1.67773 45.2707 2.58287 45.9851 4.03993L48.2713 8.68705L53.3713 9.42661C54.9651 9.65842 56.2731 10.7622 56.7787 12.3076C57.2733 13.853 56.8666 15.5087 55.7125 16.6457L51.9864 20.2552L52.8548 25.3549C53.0636 26.6132 52.7448 27.8274 51.9315 28.7878C51.1291 29.7591 49.942 30.3111 48.7 30.3111Z" fill="url(#paint0_radial_588_11524)"/>
<path opacity="0.43" d="M56.7456 12.3076C56.251 10.7622 54.943 9.65842 53.3383 9.42662L48.2383 8.68705L45.9521 4.03993C45.2376 2.58287 43.7868 1.67773 42.171 1.67773C40.5553 1.67773 39.1044 2.58287 38.39 4.03993L36.1038 8.68705L31.0038 9.42662C29.399 9.65842 28.102 10.7622 27.5964 12.3076C27.0908 13.853 27.5085 15.5087 28.6626 16.6457L30.9488 18.8864C31.6742 17.7936 32.5536 16.8002 33.5428 15.9723C36.6314 13.3894 40.1596 12.5946 44.0945 13.1907C47.7876 13.7536 51.2609 15.6301 53.3053 18.8312C53.3163 18.8533 53.3273 18.8754 53.3493 18.8975L55.6575 16.6457C56.8336 15.5087 57.2402 13.853 56.7456 12.3076Z" fill="url(#paint1_radial_588_11524)"/>
<path opacity="0.45" d="M58.3285 11.7889C57.6361 9.63643 55.8115 8.09107 53.5802 7.77096L49.3485 7.14177L47.458 3.28941C46.4578 1.25837 44.4354 0 42.1822 0C39.9289 0 37.9065 1.25837 36.9063 3.30045L35.0158 7.15281L30.7731 7.75992C28.5418 8.09107 26.7173 9.62539 26.0248 11.7779C25.3323 13.9303 25.9039 16.2594 27.5196 17.8379L30.5862 20.8403L29.8608 25.068C29.564 26.7899 30.0367 28.545 31.1468 29.8696C32.2789 31.2163 33.9276 31.989 35.6643 31.989C36.6205 31.989 37.5438 31.7572 38.4011 31.3046L42.1822 29.3067L45.9632 31.3046C46.8315 31.7572 47.7438 31.989 48.7 31.989C50.4367 31.989 52.0854 31.2163 53.2175 29.8696C54.3276 28.545 54.8003 26.7899 54.5035 25.068L53.7781 20.8403L56.8447 17.8379C58.4604 16.2594 59.032 13.9414 58.3285 11.7889ZM53.0087 20.5974L53.8001 25.2004C54.0529 26.7127 53.6462 28.247 52.6679 29.417C51.6677 30.5981 50.2279 31.2825 48.7 31.2825C47.8647 31.2825 47.0513 31.0728 46.2929 30.6754L42.1712 28.5009L38.0494 30.6754C37.291 31.0728 36.4776 31.2825 35.6423 31.2825C34.1145 31.2825 32.6746 30.5981 31.6744 29.417C30.6961 28.258 30.2895 26.7237 30.5423 25.2004L31.3336 20.5974L28.0032 17.3301C26.5854 15.9393 26.0798 13.8972 26.6953 12.0097C27.3108 10.1221 28.9045 8.7644 30.872 8.47741L35.4774 7.80407L37.5328 3.60952C38.4121 1.82132 40.1817 0.717489 42.1712 0.717489C44.1496 0.717489 45.9302 1.82132 46.8095 3.60952L48.8649 7.80407L53.4703 8.47741C55.4268 8.7644 57.0315 10.1221 57.6471 12.0097C58.2626 13.8972 57.757 15.9393 56.3391 17.3301L53.0087 20.5974Z" fill="url(#paint2_radial_588_11524)"/>
<path d="M13.3283 28.2911C14.0318 27.993 14.6253 27.5405 15.1199 26.9334L17.2742 24.2842L20.6596 24.5601C21.429 24.6264 22.1764 24.5049 22.8798 24.2069C24.1548 23.666 25.1111 22.5843 25.5288 21.2487C25.9354 19.9351 25.7376 18.5001 24.9792 17.3301L23.1326 14.4601L24.4406 11.3032C25.1331 9.63637 24.8253 7.75986 23.6492 6.40215C22.4732 5.04444 20.6596 4.48149 18.9229 4.9451L15.6365 5.81712L13.0535 3.58739C11.6906 2.41733 9.82205 2.1193 8.17334 2.82575C6.52463 3.5322 5.43648 5.0886 5.33755 6.88784L5.1507 10.3097L2.24897 12.0869C0.721165 13.0251 -0.136164 14.725 0.0177154 16.5132C0.171595 18.3125 1.3147 19.8247 2.98539 20.487L6.16191 21.7233L6.9423 25.0458C7.26105 26.4035 8.15135 27.5294 9.3714 28.1586C10.6134 28.7878 12.0533 28.832 13.3283 28.2911Z" fill="#1481D1"/>
<path d="M12.8116 27.0658C13.3062 26.8561 13.7459 26.5249 14.0976 26.0944L16.6916 22.9044L20.7804 23.2355C21.3409 23.2797 21.8685 23.1914 22.3741 22.9816C23.2864 22.5953 23.9789 21.8116 24.2646 20.8512C24.5614 19.8909 24.4185 18.8975 23.8689 18.0475L21.6487 14.5815L23.2314 10.7843C23.7261 9.59219 23.5062 8.24551 22.6709 7.27414C21.8245 6.30278 20.5276 5.9054 19.2855 6.22551L15.3176 7.27414L12.1961 4.60288C11.2288 3.76397 9.88788 3.55424 8.7008 4.062C7.52472 4.56976 6.74433 5.68463 6.66739 6.97611L6.43657 11.0934L2.93032 13.2348C1.83118 13.9082 1.21566 15.1224 1.33656 16.4028C1.44648 17.6943 2.25984 18.776 3.4579 19.2397L7.28291 20.7298L8.22817 24.7367C8.45899 25.7191 9.07451 26.5139 9.96481 26.9554C10.8661 27.408 11.8993 27.4521 12.8116 27.0658Z" fill="url(#paint3_radial_588_11524)"/>
<path opacity="0.43" d="M1.33651 16.3918C1.2266 15.1113 1.83113 13.8861 2.93027 13.2238L6.43653 11.0824L6.66734 6.96507C6.74428 5.67359 7.52467 4.55873 8.70075 4.062C9.88783 3.55424 11.2288 3.76397 12.196 4.60288L15.3066 7.28518L19.2745 6.23655C20.5165 5.9054 21.8135 6.30277 22.6598 7.28518C23.5062 8.25655 23.715 9.60322 23.2204 10.7954L22.2422 13.1465C21.3738 12.5725 20.4176 12.12 19.4394 11.833C16.3728 10.9057 13.548 11.4356 10.8551 13.1024C8.32705 14.6698 6.37058 17.1313 5.86497 20.1117C5.86497 20.1338 5.86497 20.1558 5.85398 20.1779L3.46885 19.2507C2.27078 18.765 1.45742 17.6833 1.33651 16.3918Z" fill="url(#paint4_radial_588_11524)"/>
<path opacity="0.45" d="M2.98539 20.4877L6.16191 21.724L6.9423 25.0465C7.26105 26.4042 8.15135 27.5301 9.3714 28.1593C10.6134 28.7885 12.0643 28.8437 13.3283 28.3028C14.0318 28.0048 14.6253 27.5522 15.1199 26.9451L17.2742 24.2959L20.6596 24.5719C21.429 24.6381 22.1764 24.5167 22.8798 24.2186C24.1548 23.6778 25.1111 22.596 25.5288 21.2604C25.9354 19.9468 25.7376 18.5118 24.9792 17.3418L23.1326 14.4718L24.4406 11.3149C25.1331 9.64809 24.8253 7.77158 23.6492 6.41387C22.4732 5.05616 20.6596 4.49321 18.9229 4.95682L15.6365 5.82884L13.0535 3.59911C11.6906 2.42905 9.82205 2.13101 8.17334 2.83747C6.52463 3.54392 5.43648 5.10031 5.33755 6.89956L5.1507 10.3104L2.24897 12.0876C0.721165 13.0258 -0.136164 14.7257 0.0177154 16.5139C0.171595 18.3131 1.3147 19.8254 2.98539 20.4877ZM3.19423 19.9468C1.72138 19.3728 0.721165 18.0372 0.589268 16.4587C0.44638 14.8802 1.20479 13.3901 2.54574 12.5622L5.71126 10.6305L5.9201 6.92163C6.00803 5.34316 6.96428 3.97441 8.41515 3.35627C9.86601 2.73812 11.5147 2.992 12.7018 4.01856L15.5046 6.44699L19.0878 5.49769C20.6156 5.08928 22.1984 5.586 23.2425 6.77814C24.2757 7.97027 24.5395 9.62601 23.935 11.0831L22.5061 14.516L24.5066 17.6398C25.166 18.6664 25.3419 19.9137 24.9902 21.0727C24.6275 22.2538 23.7811 23.2031 22.671 23.6778C22.0555 23.9427 21.407 24.042 20.7255 23.9868L17.0324 23.6778L14.6912 26.5588C14.2626 27.0886 13.735 27.486 13.1195 27.7509C11.9983 28.2255 10.7343 28.1814 9.63519 27.6295C8.55804 27.0776 7.78864 26.0841 7.50286 24.903L6.64553 21.2824L3.19423 19.9468Z" fill="url(#paint5_radial_588_11524)"/>
<path d="M61.8424 24.796C62.5436 25.0966 63.2797 25.2104 64.0585 25.1455L67.4539 24.8589L69.599 27.4944C70.084 28.0958 70.6886 28.5509 71.3899 28.8515C72.6611 29.3958 74.1006 29.3341 75.3497 28.7072C76.5754 28.0876 77.4699 26.9473 77.786 25.5864L78.5707 22.2586L81.7453 21.0082C83.4227 20.3494 84.5585 18.8227 84.7202 17.0302C84.8821 15.2374 84.0313 13.537 82.4959 12.6057L79.5942 10.8397L79.409 7.42523C79.3066 5.62808 78.2273 4.07214 76.5783 3.37314C74.9292 2.67415 73.0572 2.97061 71.6955 4.14992L69.1066 6.39372L65.8205 5.53456C64.0885 5.08397 62.2732 5.64678 61.0944 7.00091C59.9076 8.36271 59.6119 10.239 60.2923 11.9054L61.6025 15.0576L59.7545 17.9306C58.9993 19.1044 58.8063 20.5297 59.1986 21.8478C59.6061 23.1817 60.571 24.2517 61.8424 24.796Z" fill="#1481D1"/>
<path d="M62.3656 23.5713C62.8587 23.7826 63.4011 23.8698 63.954 23.8244L68.0426 23.4793L70.6349 26.6609C70.9912 27.0962 71.4199 27.4156 71.9206 27.6348C72.8297 28.0247 73.8725 27.9798 74.7605 27.5185C75.6563 27.0652 76.2714 26.2714 76.5019 25.2839L77.4564 21.2719L81.2814 19.7749C82.4806 19.3032 83.2965 18.2084 83.4165 16.9301C83.5288 15.6441 82.9167 14.4316 81.8268 13.7576L78.3265 11.6224L78.0856 7.51231C78.0191 6.23097 77.2416 5.11725 76.055 4.61337C74.8759 4.11739 73.5344 4.32909 72.5528 5.1713L69.4335 7.86677L65.4672 6.82445C64.2224 6.49913 62.9235 6.89888 62.0868 7.87624C61.2346 8.85333 61.0201 10.1924 61.5162 11.3795L63.0928 15.1762L60.867 18.644C60.3206 19.4936 60.1754 20.4902 60.4744 21.4397C60.7729 22.405 61.4564 23.1814 62.3656 23.5713Z" fill="url(#paint6_radial_588_11524)"/>
<path opacity="0.43" d="M62.0948 7.86847C62.9391 6.89904 64.2382 6.48369 65.4751 6.8167L69.4414 7.859L72.5607 5.16354C73.5423 4.32132 74.8838 4.10964 76.0549 4.61326C77.2417 5.11716 78.0192 6.23088 78.0857 7.51221L78.3108 11.6221L81.8112 13.7572C82.9091 14.4236 83.5211 15.636 83.4009 16.9299C83.2886 18.2159 82.465 19.3028 81.2658 19.7745L78.8986 20.7027C78.7102 19.677 78.3735 18.6722 77.9027 17.7665C76.4464 14.9084 74.1103 13.2377 71.0481 12.4526C68.1715 11.7174 65.0478 12.0163 62.5556 13.7231C62.5397 13.7384 62.5239 13.7538 62.5004 13.7612L61.5158 11.395C61.0356 10.1926 61.2502 8.8535 62.0948 7.86847Z" fill="url(#paint7_radial_588_11524)"/>
<path opacity="0.45" d="M60.2919 11.9058L61.6021 15.058L59.7541 17.9309C58.9988 19.1048 58.8058 20.5301 59.1981 21.8481C59.6056 23.182 60.5702 24.2677 61.834 24.8041C62.5351 25.1047 63.2713 25.2185 64.0501 25.1535L67.4455 24.867L69.5905 27.5024C70.0756 28.1039 70.6802 28.5589 71.3814 28.8595C72.6527 29.4038 74.0923 29.3421 75.3414 28.7151C76.5671 28.0957 77.4616 26.9553 77.7776 25.5946L78.5623 22.2667L81.7368 21.0163C83.4142 20.3574 84.55 18.8309 84.7119 17.0382C84.8736 15.2454 84.0229 13.5451 82.4876 12.6137L79.5858 10.8477L79.4006 7.43328C79.2981 5.63613 78.219 4.0802 76.5699 3.3812C74.9208 2.6822 73.0488 2.97867 71.687 4.15798L69.1061 6.3941L65.82 5.53494C64.0881 5.08434 62.2727 5.64718 61.0939 7.00129C59.9071 8.36308 59.6114 10.2394 60.2919 11.9058ZM60.8252 11.6805C60.2182 10.2184 60.4859 8.56794 61.5292 7.37549C62.5649 6.17509 64.161 5.68665 65.6843 6.07909L69.264 7.02125L72.0745 4.59381C73.27 3.56004 74.9157 3.29881 76.3644 3.91638C77.813 4.53395 78.7717 5.90051 78.8556 7.47098L79.0502 11.1822L82.213 13.1088C83.5641 13.9276 84.3026 15.4154 84.1685 16.9977C84.0269 18.5724 83.0193 19.9136 81.5534 20.4902L78.0969 21.8452L77.2361 25.4605C76.9548 26.6502 76.18 27.6443 75.1034 28.196C74.0034 28.7552 72.7351 28.8041 71.6256 28.3328C71.0091 28.0727 70.4887 27.6736 70.0567 27.1433L67.7224 24.2627L64.031 24.5755C63.3535 24.6344 62.7026 24.5299 62.0861 24.2697C60.9689 23.7904 60.1257 22.8473 59.7615 21.6703C59.4126 20.509 59.5941 19.2631 60.2452 18.2358L62.2542 15.1001L60.8252 11.6805Z" fill="url(#paint8_radial_588_11524)"/>

</svg>
