<svg width="72" height="87" viewBox="0 0 72 87" fill="none" xmlns="http://www.w3.org/2000/svg">
<circle cx="22" cy="50" r="50" fill="#FCFCFC"/>
<g clip-path="url(#clip0_850_13155)">
<path d="M43.77 58.6235C52.1043 50.3411 52.1043 36.9128 43.77 28.6304C35.4357 20.348 21.9231 20.348 13.5887 28.6304C5.25441 36.9128 5.25441 50.3411 13.5887 58.6235C21.9231 66.9059 35.4357 66.9059 43.77 58.6235Z" fill="#35B9D0"/>
<path d="M17.7527 27.8533C17.6785 27.927 17.6043 27.9762 17.5301 28.0499C16.7635 28.1974 16.6151 29.3033 15.7001 29.205C15.6754 29.1067 15.6506 28.9838 15.6259 28.8855C15.9969 28.4186 16.0216 27.8779 16.0216 27.3372C17.0108 26.3296 18.544 26.2068 19.459 25.1009C21.1406 24.167 22.7975 23.0857 24.85 23.1103C25.0726 23.2086 25.1962 23.4298 24.9737 23.5772C23.5641 24.339 22.5007 25.5678 20.9428 26.1085C19.8052 26.5017 18.6676 26.9932 17.7527 27.8533Z" fill="#B2DA89"/>
<path d="M11.0262 33.9479C10.8284 33.9725 10.6553 33.997 10.4574 34.0216C10.408 32.5962 11.4961 31.9081 12.2627 30.7285C13.0788 32.5225 11.5455 33.014 11.0262 33.9479Z" fill="#B2DA89"/>
<path d="M49.6785 39.6004C50.0247 41.7384 50.0742 43.8765 49.8516 46.0145V46.0391C49.4065 45.7688 49.5796 45.2773 49.5301 44.8595C49.5054 44.6383 49.1839 44.5892 49.085 44.7858C48.442 46.0391 47.9474 47.2924 47.7001 48.6687C47.6754 48.8161 47.527 48.8898 47.3786 48.8407L47.2797 48.7915C47.1808 48.7424 47.1313 48.6441 47.1313 48.5458C47.3292 46.5798 47.2797 44.6383 45.9196 42.9918C45.7465 42.574 45.4745 42.7214 45.2024 42.8443C45.1777 42.8689 45.1283 42.8689 45.0788 42.8689C44.9057 42.8689 44.7326 42.8443 44.5595 42.8443C44.5347 42.8443 44.4853 42.8197 44.4606 42.8197C43.6445 42.3282 42.6553 42.0825 41.8392 41.5664C41.6661 41.4435 41.4436 41.6155 41.493 41.8121C41.6661 42.7214 41.7156 43.7536 43.4466 43.0163C43.5208 42.9918 43.7187 43.2375 43.8918 43.3604C43.9165 43.385 43.9165 43.385 43.9412 43.4095C44.5595 44.3188 44.1638 44.9086 43.6692 45.4984C43.0262 46.0391 42.408 46.5552 41.765 47.0713C41.4188 47.2679 41.0726 47.4891 40.7264 47.6857C40.4296 47.784 40.1576 47.8823 39.8856 47.9806C39.7372 48.0051 39.6136 47.8823 39.6136 47.7348C39.6878 45.6213 38.2782 44.0977 37.3879 42.3528C37.2643 42.1071 36.9922 41.9596 36.7202 42.0825C36.6213 42.107 36.5471 42.4265 36.5966 42.4757C37.9814 44.0731 37.8083 46.506 39.5394 47.8823C39.6136 47.9314 39.6383 48.0051 39.6383 48.1034C39.5888 48.3492 39.5394 48.6195 39.9845 48.6195C40.4544 48.5458 40.9242 48.4721 41.4436 48.3738C41.6167 48.3492 41.765 48.5212 41.7156 48.6687C41.2952 49.9712 40.6027 50.9542 39.5641 51.7652C38.2534 52.8219 37.0664 53.9278 37.1653 55.8692C37.2148 56.7294 36.7449 57.4912 35.8052 57.8353C35.2117 58.0565 34.816 58.5234 34.8408 59.2115C34.8408 59.2852 34.816 59.3589 34.7419 59.4081C34.272 59.7522 33.7774 60.0471 33.5796 60.6369C33.5301 60.6614 33.4806 60.6614 33.4312 60.7106C30.9088 62.5783 30.7604 62.2834 29.9938 59.5556C29.9938 59.531 29.9938 59.5064 29.9938 59.4818C30.0185 58.7691 29.2519 58.1793 29.5734 57.3929C30.3153 55.6726 29.5487 54.4193 28.3864 53.2888C28.3369 53.2397 28.3122 53.1414 28.3369 53.0677C28.6831 51.8143 28.2133 51.1262 26.8779 51.0525C26.8284 51.0525 26.7542 51.0279 26.7295 50.9788C26.2349 50.5118 25.7156 50.7576 25.1963 50.9788C23.3415 51.716 21.6847 51.4948 20.3245 49.9466L20.2998 49.922C19.6816 49.0373 18.7913 48.3 18.915 47.0467C18.6677 45.4739 18.9892 44.0239 19.7558 42.6723C19.7558 42.6477 19.7805 42.6477 19.7805 42.6231L20.102 42.2299V42.2545C21.0912 41.5172 21.289 40.1902 22.1051 39.33C22.1545 39.2809 22.2287 39.2563 22.3029 39.2563C23.8361 39.5021 25.1221 38.4945 26.5811 38.3716C26.6058 38.3716 26.6553 38.3716 26.68 38.3716C27.2488 38.5436 28.238 37.9538 28.2875 39.0351C28.3122 39.8461 28.8068 39.8707 29.3014 40.1902C30.5378 41.0257 31.6507 40.7308 32.7388 40.0427C32.7882 39.9936 32.8624 39.9936 32.9366 40.0181C33.8516 40.3376 34.7666 40.5834 35.7805 40.4851C36.9922 40.3868 36.9675 39.5512 36.9922 38.7894C37.0417 37.5852 36.1514 38.5191 35.731 38.3224C35.5085 38.2241 35.2117 38.347 34.9644 38.2979C34.3956 38.1996 33.9752 37.8801 33.8763 37.2903C33.7774 36.7005 34.3462 36.6267 34.6924 36.4793C35.5332 36.0861 36.4235 35.9632 37.3632 36.1844C37.6599 36.2581 38.0803 36.381 38.2287 36.0124C38.4266 35.5454 37.9072 35.4471 37.6599 35.2014C37.1406 34.7099 36.2504 35.0785 35.8547 34.7099C34.1731 33.2353 34.4204 35.0293 34.0494 35.6929C33.9011 35.9632 34.2225 36.5776 33.629 36.5284C32.2936 36.4056 32.714 37.2411 32.714 37.8555C32.714 38.003 32.5904 38.1013 32.4667 38.1013C31.8732 38.0275 31.8732 37.2657 31.4528 37.02C31.3786 36.9954 31.3539 36.9217 31.3292 36.8479C31.1561 35.7666 30.2164 35.5946 29.425 35.2014C29.2519 35.1277 29.0541 35.2751 29.1035 35.4471C29.153 35.6929 29.1283 35.8895 29.0293 36.1107C28.9551 36.2581 28.7326 36.2827 28.6337 36.1598C27.9907 35.3243 27.1499 35.4717 26.2596 35.8649C26.2349 35.8649 26.2102 35.8895 26.2102 35.8895C25.3446 36.0124 24.7759 36.6513 24.5286 37.2903C24.0834 38.4207 23.2674 38.7157 22.2534 38.8385C22.204 38.8385 22.1793 38.8385 22.1298 38.814C21.0417 38.347 21.3632 37.4623 21.4868 36.6022C21.6105 35.5454 22.3771 35.9386 22.9459 35.8649C23.3415 35.8158 23.8114 35.9632 24.0587 35.4471C24.306 34.931 24.1824 34.4641 23.7372 34.1938C22.7233 33.5548 23.9598 33.7023 24.034 33.4565C24.0587 33.3828 24.1329 33.3337 24.2071 33.3091C24.8995 33.0879 25.493 32.7438 25.9381 32.1786C26.2102 31.982 26.6058 31.7117 26.8531 31.5151C26.9768 31.4659 27.0757 31.4168 27.1994 31.3922H27.323L27.4219 31.3185C27.6939 31.2202 27.6445 31.1219 27.5208 30.9744C27.4714 30.9253 27.4466 30.8761 27.4466 30.827C27.4466 30.7532 27.4466 30.6795 27.4466 30.5812C27.4466 30.3355 27.7681 30.2617 27.8918 30.4829C28.4606 31.5642 29.5239 31.1956 30.5378 30.9253C31.5765 30.6549 31.6507 29.3279 31.4281 29.0575C30.9088 28.4432 30.8841 27.8288 30.9335 27.1652C30.9582 26.9441 30.7109 26.8458 30.5378 26.9686C30.0185 27.4356 29.5239 27.8779 30.0185 28.8364C30.1916 29.1558 29.9196 30.016 29.3014 30.2863C28.6584 30.5566 28.7326 29.844 28.4358 29.5982C28.238 29.4016 28.0154 29.1313 27.7187 29.4016C27.3972 29.4016 27.1252 29.4016 26.8037 29.4016L26.779 29.377C26.7295 29.3524 26.7048 29.3033 26.68 29.2541C26.4822 28.4677 26.8779 27.9271 27.4961 27.4601C27.5208 27.4356 27.5456 27.4356 27.5703 27.4356C27.9907 27.2881 28.3122 26.9932 28.4606 26.6246C29.2024 24.806 30.5626 24.5848 32.2194 25.0763C32.2689 25.1009 32.3184 25.1255 32.3431 25.1501C32.714 25.617 34.544 25.0026 33.4559 26.6246C33.357 26.772 33.8763 26.9195 34.0742 26.772C34.3709 26.5509 34.5687 26.2314 34.816 25.961H34.7913C34.915 25.9365 35.0386 25.9365 35.1623 25.9119C35.2117 25.9119 35.2612 25.8873 35.3106 25.8382C35.3848 25.7399 35.4837 25.6661 35.5579 25.5678C35.5827 25.5433 35.6074 25.5187 35.6568 25.5187C35.9289 25.4204 36.2009 25.3221 36.4977 25.1992C36.5224 25.1992 36.5224 25.1992 36.5471 25.1746C37.1159 25.0763 37.9072 25.9856 38.3524 25.1501C38.6244 25.0763 38.7728 25.0272 39.0448 24.9535C39.9598 25.5187 40.8748 26.1085 41.7898 26.6737C42.8037 27.6567 44.4111 29.1804 45.4497 30.1634C46.1174 31.1464 46.7851 32.1295 47.4776 33.1125L47.5023 33.137C48.3678 35.3243 49.2334 37.3886 49.6785 39.6004ZM42.1607 37.4623C42.1607 37.4377 42.1607 37.4132 42.136 37.3886C42.0865 37.2903 41.9629 37.1428 41.9876 37.0445C42.2349 35.9632 40.8748 35.6929 40.85 34.8327C40.85 34.3658 41.221 33.8006 40.3555 33.9726C39.8609 34.0709 39.5147 34.5378 39.7867 35.0539C40.2565 35.9141 40.8253 36.725 41.0479 37.7081C41.0973 37.9292 41.4683 38.1996 41.8392 38.1258C42.1854 38.0275 42.2102 37.7572 42.1607 37.4623Z" fill="#B2DA89"/>
<path d="M14.1669 58.4005C12.8315 56.9506 11.6197 55.4269 10.6058 53.7558C10.0865 52.4533 9.24571 51.2737 8.99841 49.6025C10.1854 50.6593 11.2241 51.5686 12.238 52.4779C12.4358 52.9694 12.6337 53.4854 13.2766 53.5346C13.4745 53.6083 13.6476 53.7066 13.8454 53.7803L13.8701 53.7558C14.0432 54.2964 14.5626 54.149 14.9088 54.321C15.7001 54.7388 16.714 55.0583 16.7635 56.0904C16.8377 57.4175 17.6043 58.3268 18.3214 59.2852C18.2225 60.1208 18.6182 60.6369 19.2364 61.153C19.5579 61.4233 20.4482 61.669 19.731 62.4063C18.5193 61.5953 17.2828 60.8089 16.0711 59.9979C15.6012 59.3344 14.9335 58.8183 14.1669 58.4005Z" fill="#B2DA89"/>
<path d="M36.3245 59.3345C37.0417 58.4006 37.3137 56.9753 38.9459 56.8032C38.7233 57.86 37.7836 58.4006 37.3632 59.2362C37.2642 59.3345 37.1653 59.4328 37.0911 59.5311C36.9922 59.6048 36.918 59.654 36.8191 59.7277C36.5471 59.7031 36.3987 59.5557 36.3245 59.3345Z" fill="#B2DA89"/>
<path d="M22.0309 36.3808C21.8578 36.3808 21.7094 36.258 21.6847 36.0859C21.2396 33.5301 19.6569 32.9649 19.6321 32.9649C19.4343 32.8911 19.3354 32.6945 19.4096 32.5225C19.4838 32.3259 19.6816 32.2276 19.8547 32.3013C19.9289 32.3259 21.8578 32.9894 22.3771 35.9631C22.4019 36.1597 22.2782 36.3317 22.0804 36.3808C22.0556 36.3808 22.0309 36.3808 22.0309 36.3808Z" fill="#2B3333"/>
<path d="M31.3786 32.5718C31.2055 32.5718 31.0571 32.4489 31.0324 32.2769C30.5873 29.721 29.0046 29.1558 28.9799 29.1558C28.782 29.0821 28.6831 28.8855 28.7573 28.7134C28.8315 28.5168 29.0293 28.4185 29.2024 28.4923C29.2766 28.5168 31.2055 29.1804 31.7248 32.154C31.7496 32.3506 31.6259 32.5226 31.4281 32.5718C31.4034 32.5718 31.3786 32.5718 31.3786 32.5718Z" fill="#2B3333"/>
<path d="M24.5533 38.2731C24.3555 38.3468 24.3307 38.6417 24.5286 38.74L25.9629 39.4527C25.9629 39.4527 25.9629 39.4527 25.9876 39.4527C27.2241 40.0671 28.5842 40.0425 29.7218 39.551C31.0324 38.9857 32.0711 37.8061 32.3678 36.2579L32.4667 35.7418C32.4915 35.5452 32.3184 35.3977 32.1205 35.4715L24.5533 38.2731Z" fill="#D40000"/>
<path d="M26.0123 39.4525C27.2488 40.0669 28.6089 40.0423 29.7465 39.5508C29.7218 39.4771 29.7218 39.4034 29.697 39.3297C29.3755 38.3221 28.3122 37.7814 27.2983 38.0763C26.6306 38.2975 26.1607 38.8136 26.0123 39.4525Z" fill="#FF0000"/>
<path d="M23.3168 83.0004C23.1932 83.0004 23.0695 82.9266 22.9954 82.8283C22.8964 82.6563 22.9459 82.4351 23.119 82.3368L24.5533 81.5258L19.3601 61.9147C19.3107 61.7181 19.4343 61.5215 19.6074 61.4723C19.8052 61.4232 20.0031 61.5461 20.0525 61.7181L25.3447 81.5996C25.3941 81.747 25.3199 81.919 25.1715 81.9928L23.4899 82.9512C23.4405 82.9758 23.391 83.0004 23.3168 83.0004Z" fill="#2B3333"/>
<path d="M37.5858 82.8776C37.4621 82.8776 37.3632 82.8284 37.289 82.7301L36.102 81.059C36.0526 80.9853 36.0278 80.887 36.0278 80.7887L39.391 60.7843C39.4158 60.5877 39.6136 60.4649 39.8114 60.4894C40.0093 60.514 40.1329 60.7106 40.1082 60.9072L36.7697 80.7641L37.8825 82.3124C38.0062 82.4844 37.9567 82.7056 37.8084 82.8039C37.7342 82.853 37.66 82.8776 37.5858 82.8776Z" fill="#2B3333"/>
<path d="M2.37092 59.9975C2.29673 59.9975 2.24727 59.9729 2.17309 59.9484C1.99998 59.8501 1.95052 59.6289 2.04944 59.4569L11.8671 43.5075C11.966 43.3354 12.1885 43.2863 12.3616 43.3846C12.5348 43.4829 12.5842 43.7041 12.4853 43.8761L2.66768 59.8501C2.59349 59.9484 2.46984 59.9975 2.37092 59.9975Z" fill="#2B3333"/>
</g>
<defs>
<clipPath id="clip0_850_13155">
<rect width="48" height="68" fill="white" transform="translate(2 15)"/>
</clipPath>
</defs>
</svg>
