<svg width="19" height="19" viewBox="0 0 19 19" fill="none" xmlns="http://www.w3.org/2000/svg">
<path d="M18.6467 15.9853C18.756 16.5867 18.492 17.276 17.936 17.8307C17.464 18.3027 16.8933 18.5667 16.3627 18.5667C16.2693 18.5667 16.1787 18.5587 16.088 18.5427C15.0667 18.3547 13.9547 17.184 13.1707 16.1867C12.7147 16.508 12.2853 16.7427 11.9347 16.836C11.7707 16.8787 11.6227 16.8973 11.4893 16.8973C11.036 16.8973 10.7467 16.688 10.5973 16.5387C10.4493 16.3907 10.2387 16.1 10.2387 15.6467C10.2387 15.512 10.2573 15.3627 10.3013 15.2C10.3707 14.9427 10.5147 14.6413 10.716 14.3173L9.224 13.1253L7.86534 14.2133C8.45067 15.1813 8.48934 15.9267 7.976 16.44C7.73734 16.68 7.44667 16.8 7.10667 16.8C6.688 16.8 6.19467 16.6173 5.62667 16.2547C4.84133 17.26 3.716 18.4533 2.68533 18.6427C2.596 18.66 2.50267 18.6667 2.40933 18.6667C1.88 18.6667 1.31067 18.404 0.837334 17.932C0.281334 17.376 0.0160006 16.6853 0.126667 16.0853C0.313334 15.0693 1.476 13.9613 2.472 13.1773C1.67067 12.0347 1.55467 11.1693 2.12933 10.596C2.368 10.3573 2.65867 10.236 2.99734 10.236C3.38534 10.236 3.84 10.392 4.356 10.7067L5.07467 9.808L0.350667 6.02933C0.130667 5.852 0 5.584 0 5.3V1.03467C0 0.518666 0.417333 0.101333 0.933334 0.101333H5.2C5.484 0.101333 5.75067 0.229333 5.928 0.452L9.244 4.596L12.6427 0.350666C12.82 0.129333 13.088 0 13.372 0H17.6387C18.1533 0 18.572 0.417333 18.572 0.933333V5.19867C18.572 5.48267 18.4427 5.75067 18.2213 5.928L13.4 9.78533L14.2227 10.8133C14.5453 10.6133 14.8467 10.468 15.1053 10.3987C15.8213 10.2067 16.2507 10.5013 16.4453 10.6947C16.6373 10.8867 16.9333 11.3173 16.74 12.0333C16.6627 12.3227 16.4893 12.6667 16.2493 13.036C17.256 13.8213 18.456 14.9507 18.6467 15.9853Z" fill="white"/>
</svg>
