<svg width="28" height="26" viewBox="0 0 28 26" fill="none" xmlns="http://www.w3.org/2000/svg">
    <defs>
        <radialGradient id="paint0_radial_1099_7357" cx="0" cy="0" r="1" gradientUnits="userSpaceOnUse" gradientTransform="translate(13.9995 12.9975) scale(11.641 11.6906)">
            <stop stop-color="#004156"/>
            <stop offset="0.376" stop-color="#064B62"/>
            <stop offset="1" stop-color="#14637E"/>
        </radialGradient>
        <radialGradient id="paint1_radial_1099_7357" cx="0" cy="0" r="1" gradientUnits="userSpaceOnUse" gradientTransform="translate(13.999 12.9973) scale(11.6411 11.6907)">
            <stop stop-color="#004156"/>
            <stop offset="0.376" stop-color="#064B62"/>
            <stop offset="1" stop-color="#14637E"/>
        </radialGradient>
        <radialGradient id="paint2_radial_1099_7357" cx="0" cy="0" r="1" gradientUnits="userSpaceOnUse" gradientTransform="translate(13.999 12.998) scale(12.9817 13.0371)">
            <stop stop-color="#004DCD"/>
            <stop offset="0.3057" stop-color="#0459CE"/>
            <stop offset="0.8511" stop-color="#1077D0"/>
            <stop offset="1" stop-color="#1481D1"/>
        </radialGradient>
        <linearGradient id="paint3_linear_1099_7357" x1="13.999" y1="22.0199" x2="13.999" y2="8.98147" gradientUnits="userSpaceOnUse">
            <stop stop-color="#FF8C29"/>
            <stop offset="0.1705" stop-color="#FF912A"/>
            <stop offset="0.3859" stop-color="#FFA12B"/>
            <stop offset="0.6253" stop-color="#FFBB2E"/>
            <stop offset="0.8804" stop-color="#FFDF32"/>
            <stop offset="1" stop-color="#FFF234"/>
        </linearGradient>
        <linearGradient id="paint4_linear_1099_7357" x1="13.7809" y1="20.6085" x2="13.7809" y2="9.01843" gradientUnits="userSpaceOnUse">
            <stop stop-color="#FF8C29"/>
            <stop offset="0.1705" stop-color="#FF912A"/>
            <stop offset="0.3859" stop-color="#FFA12B"/>
            <stop offset="0.6253" stop-color="#FFBB2E"/>
            <stop offset="0.8804" stop-color="#FFDF32"/>
            <stop offset="1" stop-color="#FFF234"/>
        </linearGradient>
        <linearGradient id="paint5_linear_1099_7357" x1="14.8859" y1="22.0199" x2="14.8859" y2="8.98157" gradientUnits="userSpaceOnUse">
            <stop stop-color="#FF8C29"/>
            <stop offset="0.1705" stop-color="#FF912A"/>
            <stop offset="0.3859" stop-color="#FFA12B"/>
            <stop offset="0.6253" stop-color="#FFBB2E"/>
            <stop offset="0.8804" stop-color="#FFDF32"/>
            <stop offset="1" stop-color="#FFF234"/>
        </linearGradient>
        <linearGradient id="paint6_linear_1099_7357" x1="12.924" y1="13.5404" x2="12.924" y2="6.60172" gradientUnits="userSpaceOnUse">
            <stop stop-color="#FF8C29"/>
            <stop offset="0.1705" stop-color="#FF912A"/>
            <stop offset="0.3859" stop-color="#FFA12B"/>
            <stop offset="0.6253" stop-color="#FFBB2E"/>
            <stop offset="0.8804" stop-color="#FFDF32"/>
            <stop offset="1" stop-color="#FFF234"/>
        </linearGradient>
        <linearGradient id="paint7_linear_1099_7357" x1="13.7995" y1="20.6083" x2="13.7995" y2="9.01843" gradientUnits="userSpaceOnUse">
            <stop stop-color="#FF8C29"/>
            <stop offset="0.1403" stop-color="#FF902E"/>
            <stop offset="0.3174" stop-color="#FF9D3E"/>
            <stop offset="0.5144" stop-color="#FFB258"/>
            <stop offset="0.7258" stop-color="#FFD07C"/>
            <stop offset="0.9464" stop-color="#FFF5AA"/>
            <stop offset="1" stop-color="#FFFFB6"/>
        </linearGradient>
        <linearGradient id="paint8_linear_1099_7357" x1="6.9881" y1="18.7441" x2="9.13554" y2="18.7441" gradientUnits="userSpaceOnUse">
            <stop stop-color="#FF8C29"/>
            <stop offset="0.1705" stop-color="#FF912A"/>
            <stop offset="0.3859" stop-color="#FFA12B"/>
            <stop offset="0.6253" stop-color="#FFBB2E"/>
            <stop offset="0.8804" stop-color="#FFDF32"/>
            <stop offset="1" stop-color="#FFF234"/>
        </linearGradient>
        <linearGradient id="paint9_linear_1099_7357" x1="8.47488" y1="21.7189" x2="9.87381" y2="21.7189" gradientUnits="userSpaceOnUse">
            <stop stop-color="#FF8C29"/>
            <stop offset="0.1705" stop-color="#FF912A"/>
            <stop offset="0.3859" stop-color="#FFA12B"/>
            <stop offset="0.6253" stop-color="#FFBB2E"/>
            <stop offset="0.8804" stop-color="#FFDF32"/>
            <stop offset="1" stop-color="#FFF234"/>
        </linearGradient>
        <linearGradient id="paint10_linear_1099_7357" x1="18.9857" y1="18.7209" x2="20.7608" y2="18.7209" gradientUnits="userSpaceOnUse">
            <stop stop-color="#FF8C29"/>
            <stop offset="0.1705" stop-color="#FF912A"/>
            <stop offset="0.3859" stop-color="#FFA12B"/>
            <stop offset="0.6253" stop-color="#FFBB2E"/>
            <stop offset="0.8804" stop-color="#FFDF32"/>
            <stop offset="1" stop-color="#FFF234"/>
        </linearGradient>
    </defs>
<path d="M19.2279 25.8294C18.4612 25.8294 17.7208 25.6435 17.0334 25.2806L14.0016 23.6786L10.9699 25.2806C10.2736 25.6435 9.54211 25.8294 8.77535 25.8294C7.38285 25.8294 6.06086 25.2098 5.15309 24.13C4.26295 23.0679 3.88398 21.6606 4.12194 20.2799L4.70361 16.89L2.2447 14.4825C0.949152 13.2169 0.49086 11.3493 1.0461 9.6234C1.60133 7.89748 3.06434 6.65835 4.85344 6.40168L8.24655 5.90603L9.76244 2.81707C10.5644 1.17966 12.1861 0.170654 14.0016 0.170654C15.8084 0.170654 17.43 1.17966 18.232 2.81707L19.7479 5.90603L23.141 6.40168C24.9301 6.6672 26.3931 7.89748 26.9483 9.6234C27.5036 11.3493 27.0541 13.2169 25.7586 14.4825L23.2997 16.89L23.8813 20.2799C24.1193 21.6606 23.7403 23.0679 22.8502 24.13C21.9424 25.201 20.6204 25.8294 19.2279 25.8294Z" fill="#1481D1"/>
<path d="M19.2282 24.4752C18.6818 24.4752 18.153 24.3424 17.6594 24.0769L14.0019 22.1474L10.3444 24.0769C9.85085 24.3424 9.31324 24.4752 8.77563 24.4752C7.77973 24.4752 6.8367 24.0326 6.18452 23.2537C5.54115 22.4837 5.27675 21.5101 5.45302 20.5011L6.14927 16.412L3.188 13.5178C2.26261 12.6061 1.93652 11.2785 2.33311 10.0394C2.72971 8.80024 3.77849 7.91515 5.06523 7.72928L9.1546 7.13627L10.9878 3.41005C11.5606 2.24173 12.724 1.51596 14.0195 1.51596C15.3151 1.51596 16.4784 2.24173 17.0513 3.41005L18.8845 7.13627L22.9738 7.72928C24.2518 7.91515 25.3005 8.80024 25.706 10.0394C26.1026 11.2785 25.7765 12.6061 24.8511 13.5178L21.8634 16.412L22.5596 20.5011C22.7271 21.5101 22.4715 22.4837 21.8193 23.2537C21.1759 24.0326 20.2241 24.4752 19.2282 24.4752Z" fill="url(#paint0_radial_1099_7357)"/>
<path opacity="0.43" d="M25.679 10.0394C25.2824 8.80024 24.2337 7.91515 22.9469 7.72928L18.8575 7.13627L17.0244 3.41005C16.4515 2.24173 15.2882 1.51596 13.9926 1.51596C12.6971 1.51596 11.5337 2.24173 10.9608 3.41005L9.12768 7.13627L5.03831 7.72928C3.75157 7.91515 2.7116 8.80024 2.30619 10.0394C1.90078 11.2785 2.23569 12.6061 3.16108 13.5178L4.99425 15.3145C5.57592 14.4383 6.28099 13.6417 7.07418 12.9779C9.55072 10.9068 12.3798 10.2695 15.5349 10.7474C18.4962 11.1988 21.2812 12.7035 22.9205 15.2702C22.9293 15.2879 22.9381 15.3056 22.9557 15.3233L24.8065 13.5178C25.7495 12.6061 26.0756 11.2785 25.679 10.0394Z" fill="url(#paint1_radial_1099_7357)"/>
<path opacity="0.45" d="M26.9484 9.6234C26.3931 7.89748 24.9301 6.65835 23.141 6.40168L19.7479 5.89718L18.232 2.80822C17.43 1.17966 15.8084 0.170654 14.0016 0.170654C12.1949 0.170654 10.5733 1.17966 9.77125 2.81707L8.25537 5.90603L4.85344 6.39283C3.06434 6.65835 1.60133 7.88863 1.0461 9.61455C0.49086 11.3405 0.949152 13.208 2.2447 14.4737L4.70361 16.8811L4.12194 20.271C3.88398 21.6517 4.26295 23.059 5.15309 24.1211C6.06086 25.201 7.38285 25.8205 8.77535 25.8205C9.54211 25.8205 10.2824 25.6346 10.9699 25.2718L14.0016 23.6698L17.0334 25.2718C17.7297 25.6346 18.4612 25.8205 19.2279 25.8205C20.6204 25.8205 21.9424 25.201 22.8502 24.1211C23.7403 23.059 24.1193 21.6517 23.8813 20.271L23.2997 16.8811L25.7586 14.4737C27.0541 13.208 27.5124 11.3493 26.9484 9.6234ZM22.6827 16.6864L23.3173 20.3772C23.52 21.5898 23.1939 22.8201 22.4095 23.7583C21.6075 24.7053 20.453 25.2541 19.2279 25.2541C18.5581 25.2541 17.9059 25.0859 17.2978 24.7673L13.9928 23.0236L10.6878 24.7673C10.0797 25.0859 9.42754 25.2541 8.75773 25.2541C7.53268 25.2541 6.37814 24.7053 5.57613 23.7583C4.79175 22.8289 4.46565 21.5986 4.66836 20.3772L5.30292 16.6864L2.63249 14.0665C1.49558 12.9513 1.09016 11.3139 1.58371 9.80042C2.07725 8.28691 3.35518 7.19826 4.93276 6.96813L8.62552 6.42823L10.2736 3.06489C10.9787 1.63105 12.3976 0.745962 13.9928 0.745962C15.5792 0.745962 17.007 1.63105 17.712 3.06489L19.3601 6.42823L23.0529 6.96813C24.6216 7.19826 25.9084 8.28691 26.4019 9.80042C26.8955 11.3139 26.4901 12.9513 25.3531 14.0665L22.6827 16.6864Z" fill="url(#paint2_radial_1099_7357)"/>
<path d="M16.5134 3.66669L18.4788 7.65844L22.8678 8.2957C25.1681 8.63204 26.0846 11.4732 24.4189 13.1017L21.2461 16.2084L21.9953 20.5984C22.3919 22.8997 19.9858 24.6521 17.9235 23.5723L14.0016 21.5012L10.0797 23.5723C8.02621 24.661 5.62018 22.8997 6.00797 20.5984L6.7571 16.2084L3.58431 13.1017C1.9186 11.4732 2.83518 8.63204 5.13545 8.2957L9.52447 7.65844L11.4898 3.66669C12.5122 1.56903 15.4823 1.56903 16.5134 3.66669Z" fill="url(#paint3_linear_1099_7357)"/>
<path opacity="0.39" d="M3.77831 10.2695C3.86644 11.0218 4.68608 11.7299 5.35589 12.0574C8.30834 13.5001 11.7015 13.801 14.9271 13.5532C17.3772 13.3673 22.0218 13.1549 23.4936 10.8537C25.1241 8.2869 19.6246 8.29575 18.1792 8.08333L16.3461 4.35711C15.3854 2.40106 12.6092 2.40106 11.6486 4.35711L9.81541 8.08333C8.57274 8.2692 7.31243 8.40196 6.06976 8.63209C5.47046 8.74715 4.60676 8.81795 4.16609 9.2605C3.84 9.59683 3.73424 9.94202 3.77831 10.2695Z" fill="url(#paint4_linear_1099_7357)"/>
<path opacity="0.41" d="M25.0711 12.1281C24.8508 12.6769 23.3173 13.6593 22.8149 14.1107C22.0129 14.8188 21.0875 15.5446 20.0652 15.8809C20.3736 17.359 22.2773 20.8905 20.4618 22.1119C18.5757 23.3776 15.2707 20.7489 14.1691 19.4036C12.6973 20.5807 10.3265 23.1917 8.17605 22.5368C5.79646 21.811 6.63372 17.7839 7.69132 16.3323C6.88049 15.8632 6.36051 15.1197 5.5585 14.686C5.27648 14.5356 4.98564 14.3674 4.70361 14.1904L6.75711 16.1996L5.99917 20.5984C5.60257 22.8997 8.00859 24.6521 10.0709 23.5723L13.9928 21.5012L17.9147 23.5723C19.977 24.661 22.3743 22.8997 21.9865 20.5984L21.2373 16.2084L24.4101 13.1017C24.7186 12.8097 24.9389 12.4733 25.0711 12.1281Z" fill="url(#paint5_linear_1099_7357)"/>
<path opacity="0.39" d="M10.8375 7.87094C11.4456 8.38429 12.653 7.33988 13.0849 6.98585C13.8693 6.33973 14.8387 5.41039 15.156 4.40139C15.8875 2.02935 12.3534 2.92329 11.6483 4.35714C11.3839 4.90589 10.0531 7.20712 10.8375 7.87094Z" fill="url(#paint6_linear_1099_7357)"/>
<path opacity="0.61" d="M21.9072 10.9333C17.7121 13.1991 12.3888 13.0487 7.82355 12.3318C6.3341 12.1016 4.79178 11.6502 3.80469 10.4377C3.98095 11.128 4.73008 11.7653 5.34701 12.0662C8.29946 13.5089 11.6926 13.8099 14.9182 13.562C17.3683 13.3762 22.0129 13.1637 23.4848 10.8625C23.8109 10.3492 23.8549 9.94202 23.6963 9.61453C23.1763 10.119 22.577 10.5704 21.9072 10.9333Z" fill="url(#paint7_linear_1099_7357)"/>
<path opacity="0.39" d="M7.8325 20.9613C9.23381 20.74 9.65685 16.4031 8.33486 16.5181C7.14506 16.6244 6.40475 20.4922 7.58573 20.9347C7.66505 20.9701 7.75318 20.979 7.8325 20.9613Z" fill="url(#paint8_linear_1099_7357)"/>
<path opacity="0.39" d="M9.61276 21.3065C9.27785 21.1383 8.70499 21.218 8.52873 21.6251C8.19382 22.3863 9.60395 22.3243 9.81547 21.9083C9.95648 21.6251 9.83309 21.4127 9.61276 21.3065Z" fill="url(#paint9_linear_1099_7357)"/>
<path opacity="0.39" d="M20.1003 20.3594C21.5809 21.0498 20.2413 16.4385 19.36 17.0581C18.4963 17.6776 19.2983 19.9877 20.1003 20.3594Z" fill="url(#paint10_linear_1099_7357)"/>

</svg>
