<svg width="120" height="143" viewBox="0 0 120 143" fill="none" xmlns="http://www.w3.org/2000/svg">
<path d="M6.30469 123.594L8.97656 132.852L11.6562 123.594H14.3906C14.4531 125.453 14.5156 127.161 14.5781 128.719C14.5938 129.161 14.612 129.607 14.6328 130.055C14.6536 130.497 14.6745 130.932 14.6953 131.359C14.7161 131.781 14.737 132.185 14.7578 132.57C14.7786 132.951 14.7969 133.299 14.8125 133.617C14.8333 133.935 14.8542 134.214 14.875 134.453C14.8958 134.688 14.9167 134.87 14.9375 135H12.8281L12.6406 126.148L10.1328 135H7.82812L5.30469 126.172L5.09375 135H2.98438C3 134.87 3.01823 134.688 3.03906 134.453C3.0599 134.214 3.07812 133.935 3.09375 133.617C3.11458 133.299 3.13542 132.951 3.15625 132.57C3.17708 132.185 3.19792 131.781 3.21875 131.359C3.23958 130.932 3.25781 130.497 3.27344 130.055C3.29427 129.607 3.3151 129.161 3.33594 128.719C3.39844 127.161 3.46354 125.453 3.53125 123.594H6.30469ZM19.2031 131.039C19.2031 131.414 19.237 131.75 19.3047 132.047C19.3776 132.339 19.4818 132.589 19.6172 132.797C19.7578 133.005 19.9297 133.164 20.1328 133.273C20.3411 133.383 20.5781 133.438 20.8438 133.438C21.0938 133.438 21.3203 133.383 21.5234 133.273C21.7266 133.164 21.8984 133.005 22.0391 132.797C22.1849 132.589 22.2943 132.339 22.3672 132.047C22.4453 131.75 22.4844 131.414 22.4844 131.039C22.4844 130.289 22.3438 129.701 22.0625 129.273C21.7865 128.846 21.3802 128.633 20.8438 128.633C20.5938 128.633 20.3672 128.688 20.1641 128.797C19.9609 128.906 19.7865 129.065 19.6406 129.273C19.5 129.482 19.3906 129.734 19.3125 130.031C19.2396 130.328 19.2031 130.664 19.2031 131.039ZM17.0156 131.039C17.0156 130.367 17.1198 129.773 17.3281 129.258C17.5365 128.737 17.8177 128.302 18.1719 127.953C18.5312 127.599 18.9479 127.331 19.4219 127.148C19.8958 126.966 20.3958 126.875 20.9219 126.875C21.474 126.875 21.9792 126.966 22.4375 127.148C22.901 127.331 23.2969 127.599 23.625 127.953C23.9583 128.302 24.2161 128.737 24.3984 129.258C24.5807 129.773 24.6719 130.367 24.6719 131.039C24.6719 131.711 24.5677 132.307 24.3594 132.828C24.151 133.344 23.8672 133.779 23.5078 134.133C23.1536 134.482 22.7396 134.747 22.2656 134.93C21.7917 135.107 21.2917 135.195 20.7656 135.195C20.2135 135.195 19.7083 135.107 19.25 134.93C18.7917 134.747 18.3958 134.482 18.0625 134.133C17.7344 133.779 17.4766 133.344 17.2891 132.828C17.1068 132.307 17.0156 131.711 17.0156 131.039ZM31.8984 129.234C31.7161 129.146 31.5469 129.073 31.3906 129.016C31.2396 128.953 31.0885 128.904 30.9375 128.867C30.7917 128.826 30.6406 128.797 30.4844 128.781C30.3333 128.76 30.1667 128.75 29.9844 128.75C29.7812 128.75 29.5807 128.805 29.3828 128.914C29.1849 129.023 29.0078 129.182 28.8516 129.391C28.7005 129.599 28.5781 129.854 28.4844 130.156C28.3906 130.453 28.3438 130.792 28.3438 131.172C28.3438 131.917 28.4661 132.482 28.7109 132.867C28.9557 133.247 29.3281 133.438 29.8281 133.438C30.0365 133.438 30.2422 133.393 30.4453 133.305C30.6536 133.216 30.849 133.099 31.0312 132.953C31.2135 132.802 31.3802 132.635 31.5312 132.453C31.6823 132.266 31.8047 132.073 31.8984 131.875V129.234ZM34.0859 130.859C34.0859 131.844 34.1406 132.672 34.25 133.344C34.3646 134.01 34.5052 134.562 34.6719 135H32.5234C32.4922 134.938 32.4583 134.857 32.4219 134.758C32.3906 134.659 32.3542 134.549 32.3125 134.43C32.276 134.31 32.237 134.182 32.1953 134.047C32.1589 133.906 32.125 133.768 32.0938 133.633C31.7396 134.138 31.3385 134.526 30.8906 134.797C30.4427 135.062 29.9453 135.195 29.3984 135.195C28.9141 135.195 28.474 135.107 28.0781 134.93C27.6823 134.747 27.3411 134.492 27.0547 134.164C26.7682 133.831 26.5469 133.432 26.3906 132.969C26.2344 132.5 26.1562 131.979 26.1562 131.406C26.1562 130.714 26.2552 130.089 26.4531 129.531C26.6562 128.974 26.9297 128.5 27.2734 128.109C27.6224 127.714 28.0286 127.409 28.4922 127.195C28.9557 126.982 29.4531 126.875 29.9844 126.875C30.1406 126.875 30.2995 126.893 30.4609 126.93C30.6276 126.966 30.7943 127.016 30.9609 127.078C31.1276 127.141 31.2891 127.214 31.4453 127.297C31.6068 127.375 31.7578 127.456 31.8984 127.539V125.352C31.8984 124.721 31.8828 124.172 31.8516 123.703C31.8255 123.229 31.776 122.828 31.7031 122.5H34.0859V130.859ZM38.1094 131.484C38.1615 132.161 38.3516 132.651 38.6797 132.953C39.013 133.25 39.474 133.398 40.0625 133.398C40.5781 133.398 41.0781 133.341 41.5625 133.227C42.0521 133.107 42.5417 132.901 43.0312 132.609L43.1953 134.414C42.9141 134.555 42.638 134.674 42.3672 134.773C42.1016 134.872 41.8333 134.953 41.5625 135.016C41.2969 135.078 41.0234 135.122 40.7422 135.148C40.4609 135.18 40.1693 135.195 39.8672 135.195C39.3516 135.195 38.8568 135.109 38.3828 134.938C37.9141 134.76 37.5 134.503 37.1406 134.164C36.7812 133.82 36.4948 133.396 36.2812 132.891C36.0729 132.385 35.9688 131.799 35.9688 131.133C35.9688 130.487 36.0573 129.904 36.2344 129.383C36.4167 128.857 36.6771 128.409 37.0156 128.039C37.3542 127.664 37.763 127.378 38.2422 127.18C38.7214 126.977 39.263 126.875 39.8672 126.875C40.3047 126.875 40.6875 126.93 41.0156 127.039C41.349 127.143 41.6354 127.289 41.875 127.477C42.1198 127.659 42.3229 127.878 42.4844 128.133C42.651 128.383 42.7812 128.656 42.875 128.953C42.974 129.245 43.0443 129.552 43.0859 129.875C43.1276 130.198 43.1484 130.521 43.1484 130.844V130.984C43.1484 131.042 43.1484 131.102 43.1484 131.164C43.1536 131.227 43.1562 131.286 43.1562 131.344V131.484H38.1094ZM39.7578 128.516C39.3047 128.516 38.9453 128.638 38.6797 128.883C38.4193 129.122 38.2448 129.521 38.1562 130.078H41.1641C41.1641 129.526 41.0443 129.128 40.8047 128.883C40.5703 128.638 40.2214 128.516 39.7578 128.516ZM54.6406 128.781C54.5312 128.755 54.3724 128.724 54.1641 128.688C53.9557 128.646 53.6849 128.625 53.3516 128.625C52.9401 128.625 52.5964 128.714 52.3203 128.891C52.0443 129.068 51.8229 129.305 51.6562 129.602C51.4948 129.898 51.3776 130.237 51.3047 130.617C51.237 130.997 51.2031 131.391 51.2031 131.797C51.2031 132.026 51.224 132.234 51.2656 132.422C51.3125 132.609 51.375 132.771 51.4531 132.906C51.5312 133.042 51.6224 133.148 51.7266 133.227C51.8307 133.299 51.9427 133.336 52.0625 133.336C52.2552 133.336 52.4531 133.258 52.6562 133.102C52.8594 132.94 53.0547 132.734 53.2422 132.484C53.4349 132.234 53.6146 131.956 53.7812 131.648C53.9531 131.341 54.1016 131.039 54.2266 130.742C54.3568 130.44 54.4583 130.161 54.5312 129.906C54.6042 129.651 54.6406 129.448 54.6406 129.297V128.781ZM55.3047 135C55.2474 134.906 55.1927 134.763 55.1406 134.57C55.0885 134.372 55.0417 134.161 55 133.938C54.9635 133.708 54.9323 133.484 54.9062 133.266C54.8854 133.042 54.875 132.857 54.875 132.711V132.266C54.7083 132.604 54.5078 132.948 54.2734 133.297C54.0443 133.641 53.7812 133.953 53.4844 134.234C53.1875 134.516 52.8594 134.747 52.5 134.93C52.1458 135.107 51.7656 135.195 51.3594 135.195C51.0312 135.195 50.724 135.122 50.4375 134.977C50.151 134.831 49.901 134.615 49.6875 134.328C49.4792 134.042 49.3151 133.688 49.1953 133.266C49.0755 132.839 49.0156 132.349 49.0156 131.797C49.0156 131.177 49.1068 130.573 49.2891 129.984C49.4714 129.391 49.7526 128.865 50.1328 128.406C50.513 127.943 50.9974 127.573 51.5859 127.297C52.1745 127.016 52.8724 126.875 53.6797 126.875C54.2474 126.875 54.8099 126.909 55.3672 126.977C55.9245 127.039 56.4271 127.122 56.875 127.227V130.859C56.875 131.844 56.9219 132.672 57.0156 133.344C57.1094 134.01 57.2318 134.562 57.3828 135H55.3047ZM66.5938 127.031C66.4844 127.255 66.3698 127.497 66.25 127.758C66.1354 128.018 66.0234 128.273 65.9141 128.523C65.8099 128.773 65.7109 129.01 65.6172 129.234C65.5234 129.458 65.4453 129.648 65.3828 129.805C65.3307 129.93 65.2604 130.102 65.1719 130.32C65.0885 130.534 64.9922 130.776 64.8828 131.047C64.7786 131.312 64.6667 131.596 64.5469 131.898C64.4271 132.195 64.3099 132.49 64.1953 132.781C63.9193 133.469 63.625 134.208 63.3125 135H61.4062C61.1042 134.245 60.8203 133.531 60.5547 132.859C60.4401 132.573 60.3229 132.281 60.2031 131.984C60.0833 131.688 59.9688 131.404 59.8594 131.133C59.7552 130.857 59.6562 130.604 59.5625 130.375C59.474 130.146 59.3984 129.956 59.3359 129.805C59.2734 129.648 59.1953 129.458 59.1016 129.234C59.0078 129.005 58.9062 128.766 58.7969 128.516C58.6875 128.266 58.5755 128.013 58.4609 127.758C58.3464 127.497 58.2344 127.255 58.125 127.031H60.5625L62.3906 132.734L64.1875 127.031H66.5938ZM69.5156 131.484C69.5677 132.161 69.7578 132.651 70.0859 132.953C70.4193 133.25 70.8802 133.398 71.4688 133.398C71.9844 133.398 72.4844 133.341 72.9688 133.227C73.4583 133.107 73.9479 132.901 74.4375 132.609L74.6016 134.414C74.3203 134.555 74.0443 134.674 73.7734 134.773C73.5078 134.872 73.2396 134.953 72.9688 135.016C72.7031 135.078 72.4297 135.122 72.1484 135.148C71.8672 135.18 71.5755 135.195 71.2734 135.195C70.7578 135.195 70.263 135.109 69.7891 134.938C69.3203 134.76 68.9062 134.503 68.5469 134.164C68.1875 133.82 67.901 133.396 67.6875 132.891C67.4792 132.385 67.375 131.799 67.375 131.133C67.375 130.487 67.4635 129.904 67.6406 129.383C67.8229 128.857 68.0833 128.409 68.4219 128.039C68.7604 127.664 69.1693 127.378 69.6484 127.18C70.1276 126.977 70.6693 126.875 71.2734 126.875C71.7109 126.875 72.0938 126.93 72.4219 127.039C72.7552 127.143 73.0417 127.289 73.2812 127.477C73.526 127.659 73.7292 127.878 73.8906 128.133C74.0573 128.383 74.1875 128.656 74.2812 128.953C74.3802 129.245 74.4505 129.552 74.4922 129.875C74.5339 130.198 74.5547 130.521 74.5547 130.844V130.984C74.5547 131.042 74.5547 131.102 74.5547 131.164C74.5599 131.227 74.5625 131.286 74.5625 131.344V131.484H69.5156ZM71.1641 128.516C70.7109 128.516 70.3516 128.638 70.0859 128.883C69.8255 129.122 69.651 129.521 69.5625 130.078H72.5703C72.5703 129.526 72.4505 129.128 72.2109 128.883C71.9766 128.638 71.6276 128.516 71.1641 128.516ZM81.9062 135V130.703C81.9062 130.344 81.8828 130.042 81.8359 129.797C81.7891 129.552 81.7161 129.357 81.6172 129.211C81.5182 129.06 81.3906 128.953 81.2344 128.891C81.0833 128.823 80.9036 128.789 80.6953 128.789C80.4714 128.789 80.2526 128.839 80.0391 128.938C79.8255 129.036 79.6276 129.167 79.4453 129.328C79.263 129.49 79.1042 129.669 78.9688 129.867C78.8333 130.065 78.7318 130.266 78.6641 130.469V135H76.4766V130.195C76.4766 129.424 76.4323 128.773 76.3438 128.242C76.2604 127.706 76.1745 127.302 76.0859 127.031H78.2344C78.2656 127.109 78.2969 127.214 78.3281 127.344C78.3594 127.469 78.388 127.602 78.4141 127.742C78.4401 127.878 78.4635 128.013 78.4844 128.148L78.5469 128.477C78.7969 128.195 79.0417 127.953 79.2812 127.75C79.5208 127.547 79.763 127.38 80.0078 127.25C80.2526 127.12 80.5026 127.026 80.7578 126.969C81.013 126.906 81.2786 126.875 81.5547 126.875C81.9505 126.875 82.3047 126.943 82.6172 127.078C82.9349 127.214 83.2031 127.417 83.4219 127.688C83.6406 127.958 83.8073 128.297 83.9219 128.703C84.0365 129.109 84.0938 129.581 84.0938 130.117V135H81.9062ZM88.9844 128.711V131.391C88.9844 131.833 89.0026 132.188 89.0391 132.453C89.0755 132.714 89.1328 132.914 89.2109 133.055C89.2943 133.195 89.3984 133.286 89.5234 133.328C89.6484 133.37 89.7995 133.391 89.9766 133.391C90.1745 133.391 90.3958 133.341 90.6406 133.242C90.8906 133.143 91.1719 132.997 91.4844 132.805V134.555C91.1094 134.789 90.75 134.953 90.4062 135.047C90.0677 135.146 89.7578 135.195 89.4766 135.195C89.1068 135.195 88.7578 135.159 88.4297 135.086C88.1068 135.018 87.8229 134.896 87.5781 134.719C87.3385 134.542 87.1484 134.307 87.0078 134.016C86.8672 133.719 86.7969 133.344 86.7969 132.891V128.711H85.3125V127.148H86.7969V124.688H88.9844V127.148H91.3672V128.711H88.9844ZM98.9922 135C98.9557 134.917 98.9167 134.82 98.875 134.711C98.8333 134.596 98.7917 134.477 98.75 134.352C98.7135 134.227 98.6771 134.096 98.6406 133.961C98.6094 133.826 98.5833 133.69 98.5625 133.555C98.099 134.091 97.6198 134.5 97.125 134.781C96.6302 135.057 96.1146 135.195 95.5781 135.195C93.9479 135.195 93.1328 134.076 93.1328 131.836V129.531C93.1328 129.281 93.1302 129.055 93.125 128.852C93.125 128.648 93.1198 128.453 93.1094 128.266C93.099 128.073 93.0833 127.878 93.0625 127.68C93.0417 127.482 93.013 127.266 92.9766 127.031H95.3203V131.367C95.3203 131.721 95.3359 132.026 95.3672 132.281C95.4036 132.536 95.4635 132.747 95.5469 132.914C95.6302 133.076 95.7396 133.195 95.875 133.273C96.0104 133.352 96.1771 133.391 96.375 133.391C96.5521 133.391 96.7396 133.339 96.9375 133.234C97.1406 133.13 97.3333 132.997 97.5156 132.836C97.7031 132.669 97.8724 132.49 98.0234 132.297C98.1745 132.104 98.2891 131.917 98.3672 131.734V129.531C98.3672 129.276 98.3646 129.047 98.3594 128.844C98.3594 128.635 98.3542 128.438 98.3438 128.25C98.3333 128.062 98.3177 127.872 98.2969 127.68C98.276 127.487 98.2474 127.271 98.2109 127.031H100.555V131.484C100.555 132.245 100.596 132.911 100.68 133.484C100.768 134.052 100.896 134.557 101.062 135H98.9922ZM102.867 135V130.195C102.867 129.424 102.823 128.773 102.734 128.242C102.651 127.706 102.565 127.302 102.477 127.031H104.625C104.656 127.115 104.688 127.224 104.719 127.359C104.75 127.49 104.779 127.628 104.805 127.773C104.831 127.919 104.854 128.062 104.875 128.203L104.938 128.555C105.125 128.284 105.326 128.044 105.539 127.836C105.753 127.628 105.966 127.453 106.18 127.312C106.398 127.167 106.612 127.057 106.82 126.984C107.029 126.911 107.221 126.875 107.398 126.875C107.763 126.875 108.073 126.953 108.328 127.109C108.589 127.266 108.799 127.479 108.961 127.75C109.128 128.016 109.247 128.326 109.32 128.68C109.393 129.034 109.43 129.409 109.43 129.805L107.688 130.078C107.661 129.724 107.576 129.44 107.43 129.227C107.284 129.008 107.044 128.898 106.711 128.898C106.581 128.898 106.432 128.956 106.266 129.07C106.104 129.185 105.945 129.333 105.789 129.516C105.633 129.698 105.487 129.909 105.352 130.148C105.221 130.383 105.122 130.62 105.055 130.859V135H102.867ZM112.359 131.484C112.411 132.161 112.602 132.651 112.93 132.953C113.263 133.25 113.724 133.398 114.312 133.398C114.828 133.398 115.328 133.341 115.812 133.227C116.302 133.107 116.792 132.901 117.281 132.609L117.445 134.414C117.164 134.555 116.888 134.674 116.617 134.773C116.352 134.872 116.083 134.953 115.812 135.016C115.547 135.078 115.273 135.122 114.992 135.148C114.711 135.18 114.419 135.195 114.117 135.195C113.602 135.195 113.107 135.109 112.633 134.938C112.164 134.76 111.75 134.503 111.391 134.164C111.031 133.82 110.745 133.396 110.531 132.891C110.323 132.385 110.219 131.799 110.219 131.133C110.219 130.487 110.307 129.904 110.484 129.383C110.667 128.857 110.927 128.409 111.266 128.039C111.604 127.664 112.013 127.378 112.492 127.18C112.971 126.977 113.513 126.875 114.117 126.875C114.555 126.875 114.938 126.93 115.266 127.039C115.599 127.143 115.885 127.289 116.125 127.477C116.37 127.659 116.573 127.878 116.734 128.133C116.901 128.383 117.031 128.656 117.125 128.953C117.224 129.245 117.294 129.552 117.336 129.875C117.378 130.198 117.398 130.521 117.398 130.844V130.984C117.398 131.042 117.398 131.102 117.398 131.164C117.404 131.227 117.406 131.286 117.406 131.344V131.484H112.359ZM114.008 128.516C113.555 128.516 113.195 128.638 112.93 128.883C112.669 129.122 112.495 129.521 112.406 130.078H115.414C115.414 129.526 115.294 129.128 115.055 128.883C114.82 128.638 114.471 128.516 114.008 128.516Z" fill="#404040"/>
<g clip-path="url(#clip0_651_10038)">
<path d="M45.1039 14.0996L47.4341 9.80613C47.568 9.59411 47.6751 9.38209 47.7822 9.14356C48.1572 8.32196 48.3715 7.42086 48.3715 6.44024C48.3715 2.88883 45.4521 0 41.8631 0C38.2742 0 35.3816 2.88883 35.3816 6.44024C35.3816 7.39435 35.5959 8.32196 35.9708 9.14356C36.078 9.38209 36.1851 9.59411 36.319 9.80613L38.6492 14.0996H45.1039Z" fill="#E54151"/>
<path d="M43.0416 14.0996L43.8718 9.80613C43.9254 9.59411 43.9522 9.38209 44.0058 9.14356C44.1397 8.32196 44.22 7.42086 44.22 6.44024C44.22 2.88883 43.1755 0 41.8631 0C40.5507 0 39.533 2.88883 39.533 6.44024C39.533 7.39435 39.6133 8.32196 39.7472 9.14356C39.774 9.38209 39.8276 9.59411 39.8811 9.80613L40.7114 14.0996H43.0416Z" fill="#B6323F"/>
<path d="M45.2111 16.8825H38.8367V20.7254H45.2111V16.8825Z" fill="#FFD79F"/>
<path d="M40.1222 14.0996H39.7205V16.8825H40.1222V14.0996Z" fill="#00AFAE"/>
<path d="M44.2201 14.0996H43.8184V16.8825H44.2201V14.0996Z" fill="#00AFAE"/>
<path d="M81.8237 26.6886L57.5313 21.282L33.2656 26.6886L9 21.282V102.593L33.2656 108L57.5313 102.593L81.8237 108L106.089 102.593V21.282L81.8237 26.6886Z" fill="#7CAE9F"/>
<path d="M34.1763 106.675L9.91064 101.268V19.9568L34.1763 25.3634V106.675Z" fill="#FFFEFF"/>
<path d="M58.4687 101.268L34.1763 106.675V25.3634L58.4687 19.9568V101.268Z" fill="#FEEFE8"/>
<path d="M82.7344 106.675L58.4688 101.268V19.9568L82.7344 25.3634V106.675Z" fill="#FFFEFF"/>
<path d="M107 101.268L82.7344 106.675V25.3634L107 19.9568V101.268Z" fill="#FEEFE8"/>
<path d="M34.1762 28.0667L12.5889 23.2697V99.148L34.1762 103.972V28.0667Z" fill="#55AC36"/>
<path d="M34.1763 28.0667V103.972L58.4687 98.5649V22.6866L34.1763 28.0667Z" fill="#008242"/>
<path d="M82.7342 28.0667V103.972L67.548 100.579L58.4685 98.5649V22.6866L82.7342 28.0667Z" fill="#55AC36"/>
<path d="M104.322 23.2697V99.148L82.7344 103.972V28.0667L104.322 23.2697Z" fill="#008242"/>
<path d="M58.4686 50.1173L29.248 50.2233L38.4347 40.2847L43.2289 35.0636L51.1568 42.882L58.4686 50.1173Z" fill="#00AFAE"/>
<path d="M43.2557 35.1696H43.1486L38.4347 40.2847L29.248 50.2233L43.2557 50.1703V35.1696Z" fill="#49B6AE"/>
<path d="M51.1569 42.882C50.1927 44.1541 48.8267 44.9492 47.3001 44.9492C45.0235 44.9492 43.0951 43.1735 42.3452 40.6557C41.8363 40.9737 41.2471 41.1593 40.6578 41.1593C39.8275 41.1593 39.0508 40.8147 38.4348 40.2582L43.2558 35.037L51.1569 42.882Z" fill="#FFFEFF"/>
<path d="M46.1751 52.6881L23.3826 52.7676L30.5605 45.0022L34.3101 40.9472L40.4703 47.0429L46.1751 52.6881Z" fill="#90C7BC"/>
<path d="M34.2298 41.0002L30.5605 45.0022L23.3826 52.7676L34.2298 52.7146V41.0002Z" fill="#BAD6D4"/>
<path d="M40.4704 47.0429C39.7204 48.0501 38.6491 48.6596 37.4706 48.6596C35.7029 48.6596 34.2031 47.2815 33.6138 45.3202C33.2121 45.5853 32.7568 45.7178 32.3015 45.7178C31.6587 45.7178 31.0694 45.4528 30.5605 45.0287L34.3102 40.9737L40.4704 47.0429Z" fill="#FFFEFF"/>
<path d="M104.322 48.5006V99.1745L82.7344 103.972L67.5483 100.579V92.8137C67.5483 90.3225 65.5128 88.3347 62.9951 88.3347H49.9784C47.4608 88.3347 45.4253 86.3205 45.4253 83.8292V80.0923C45.4253 77.601 47.4608 75.6132 49.9784 75.6132H73.4942C76.0118 75.6132 78.0205 73.599 78.0205 71.1077V61.9377C78.0205 59.4464 80.0561 57.4321 82.5469 57.4321H88.9749C91.4925 57.4321 93.5281 55.4179 93.5281 52.9531C93.5281 51.7075 94.0369 50.5943 94.8672 49.7728C95.6975 48.9512 96.8224 48.4476 98.0812 48.4476H103.759C103.947 48.4476 104.134 48.4741 104.322 48.5006Z" fill="#9AD5D1"/>
<path d="M58.4687 75.5867H49.9784C47.4608 75.5867 45.4253 77.601 45.4253 80.0658V83.8027C45.4253 86.294 47.4608 88.3082 49.9784 88.3082H58.4687V75.5867Z" fill="#49B6AE"/>
<path d="M104.322 48.5006V99.1745L82.7344 103.972V57.4321H89.0017C91.5193 57.4321 93.5548 55.4179 93.5548 52.9531C93.5548 51.7075 94.0637 50.5943 94.894 49.7728C95.7243 48.9512 96.8492 48.4476 98.108 48.4476H103.786C103.947 48.4476 104.134 48.4741 104.322 48.5006Z" fill="#49B6AE"/>
<path d="M74.8869 46.4069C76.6028 46.4069 77.9938 45.9204 77.9938 45.3202C77.9938 44.7201 76.6028 44.2336 74.8869 44.2336C73.171 44.2336 71.78 44.7201 71.78 45.3202C71.78 45.9204 73.171 46.4069 74.8869 46.4069Z" fill="#008242"/>
<path d="M77.833 36.5477C76.1992 34.931 73.5477 34.931 71.9407 36.5477C70.3069 38.1644 70.3069 40.7882 71.9407 42.3784L74.8868 45.2937L77.833 42.3784C79.4668 40.7882 79.4668 38.1644 77.833 36.5477Z" fill="#E54151"/>
<path d="M73.387 40.9472C72.5835 40.1521 72.5835 38.827 73.387 38.0319C74.1905 37.2368 75.5297 37.2368 76.3332 38.0319C77.1367 38.827 77.1367 40.1521 76.3332 40.9472C75.5297 41.7423 74.2173 41.7423 73.387 40.9472Z" fill="#FFFEFF"/>
<path d="M40.7917 80.3573C42.5075 80.3573 43.8985 79.8708 43.8985 79.2707C43.8985 78.6705 42.5075 78.184 40.7917 78.184C39.0758 78.184 37.6848 78.6705 37.6848 79.2707C37.6848 79.8708 39.0758 80.3573 40.7917 80.3573Z" fill="#006B40"/>
<path d="M43.7646 70.4982C42.1308 68.8815 39.4793 68.8815 37.8723 70.4982C36.2385 72.1148 36.2385 74.7386 37.8723 76.3288L40.8185 79.2442L43.7646 76.3288C45.3984 74.7121 45.3984 72.1148 43.7646 70.4982Z" fill="#F8B87B"/>
<path d="M40.7917 76.3023C42.404 76.3023 43.7111 75.009 43.7111 73.4135C43.7111 71.818 42.404 70.5247 40.7917 70.5247C39.1794 70.5247 37.8723 71.818 37.8723 73.4135C37.8723 75.009 39.1794 76.3023 40.7917 76.3023Z" fill="#FFFEFF"/>
<path d="M40.015 74.2086C39.5865 73.7845 39.5865 73.069 40.015 72.6449C40.4435 72.2209 41.1667 72.2209 41.5952 72.6449C42.0237 73.069 42.0237 73.7845 41.5952 74.2086C41.1667 74.6326 40.4435 74.6326 40.015 74.2086Z" fill="#E54151"/>
<path d="M99.3668 68.0069C98.9115 68.0069 98.6704 67.6888 98.4561 67.4238C98.2687 67.1588 98.108 66.9467 97.7598 66.9467C97.4384 66.9467 97.2509 67.1588 97.0634 67.4238C96.8491 67.6888 96.6349 68.0069 96.1528 68.0069C95.6975 68.0069 95.4564 67.6888 95.2421 67.4238C95.0547 67.1588 94.894 66.9467 94.5458 66.9467C94.2244 66.9467 94.0637 67.1588 93.8494 67.4238C93.6351 67.6888 93.4209 68.0069 92.9388 68.0069C92.4835 68.0069 92.2424 67.6888 92.0282 67.4238C91.8407 67.1588 91.68 66.9467 91.3318 66.9467V66.6817C91.7871 66.6817 92.0282 66.9998 92.2424 67.2648C92.4299 67.5298 92.5906 67.7418 92.9388 67.7418C93.2602 67.7418 93.4209 67.5298 93.6352 67.2648C93.8494 66.9998 94.0637 66.6817 94.5458 66.6817C95.0011 66.6817 95.2421 66.9998 95.4564 67.2648C95.6439 67.5298 95.8046 67.7418 96.1528 67.7418C96.4742 67.7418 96.6617 67.5298 96.8491 67.2648C97.0634 66.9998 97.2777 66.6817 97.7598 66.6817C98.2151 66.6817 98.4561 66.9998 98.6704 67.2648C98.8579 67.5298 99.0186 67.7418 99.3668 67.7418V68.0069Z" fill="#FFFEFF"/>
<path d="M104.322 55.9745V56.2395C104.268 56.213 104.188 56.213 104.107 56.213C103.786 56.213 103.599 56.425 103.411 56.6901C103.197 56.9551 102.983 57.2731 102.5 57.2731C102.045 57.2731 101.804 56.9551 101.59 56.6901C101.402 56.425 101.242 56.213 100.893 56.213C100.545 56.213 100.385 56.425 100.197 56.6901C99.9828 56.9551 99.7685 57.2731 99.2864 57.2731C98.8311 57.2731 98.5901 56.9551 98.3758 56.6901C98.1883 56.425 98.0276 56.213 97.6794 56.213V55.948C98.1348 55.948 98.3758 56.266 98.5901 56.531C98.7776 56.7961 98.9383 57.0081 99.2864 57.0081C99.6078 57.0081 99.7685 56.7961 99.9828 56.531C100.197 56.266 100.411 55.948 100.893 55.948C101.349 55.948 101.59 56.266 101.804 56.531C101.992 56.7961 102.152 57.0081 102.5 57.0081C102.822 57.0081 103.009 56.7961 103.197 56.531C103.411 56.266 103.625 55.948 104.107 55.948C104.188 55.948 104.268 55.948 104.322 55.9745Z" fill="#FFFEFF"/>
<path d="M60.397 82.6101C59.9417 82.6101 59.7007 82.292 59.4864 82.027C59.2989 81.762 59.1382 81.5499 58.79 81.5499C58.4686 81.5499 58.2812 81.762 58.0937 82.027C57.8794 82.292 57.6651 82.6101 57.1831 82.6101C56.7277 82.6101 56.4867 82.292 56.2724 82.027C56.0849 81.762 55.9242 81.5499 55.5761 81.5499C55.2547 81.5499 55.094 81.762 54.8797 82.027C54.6654 82.292 54.4512 82.6101 53.9691 82.6101C53.5137 82.6101 53.2727 82.292 53.0584 82.027C52.8709 81.762 52.7102 81.5499 52.3621 81.5499V81.2849C52.8174 81.2849 53.0584 81.6029 53.2727 81.868C53.4602 82.133 53.6209 82.345 53.9691 82.345C54.2905 82.345 54.4512 82.133 54.6654 81.868C54.8797 81.6029 55.094 81.2849 55.5761 81.2849C56.0314 81.2849 56.2724 81.6029 56.4867 81.868C56.6742 82.133 56.8349 82.345 57.1831 82.345C57.5044 82.345 57.6919 82.133 57.8794 81.868C58.0937 81.6029 58.3079 81.2849 58.79 81.2849C59.2454 81.2849 59.4864 81.6029 59.7007 81.868C59.8882 82.133 60.0489 82.345 60.397 82.345V82.6101Z" fill="#FFFEFF"/>
<path d="M99.3399 97.9288C98.8846 97.9288 98.6436 97.6108 98.4293 97.3458C98.2418 97.0807 98.0811 96.8687 97.7329 96.8687C97.4115 96.8687 97.224 97.0807 97.0366 97.3458C96.8223 97.6108 96.608 97.9288 96.1259 97.9288C95.6706 97.9288 95.4296 97.6108 95.2153 97.3458C95.0278 97.0807 94.8671 96.8687 94.5189 96.8687C94.1975 96.8687 94.0368 97.0807 93.8226 97.3458C93.6083 97.6108 93.394 97.9288 92.9119 97.9288C92.4566 97.9288 92.2156 97.6108 92.0013 97.3458C91.8138 97.0807 91.6531 96.8687 91.3049 96.8687V96.6037C91.7602 96.6037 92.0013 96.9217 92.2156 97.1868C92.4031 97.4518 92.5637 97.6638 92.9119 97.6638C93.2333 97.6638 93.394 97.4518 93.6083 97.1868C93.8226 96.9217 94.0368 96.6037 94.5189 96.6037C94.9742 96.6037 95.2153 96.9217 95.4296 97.1868C95.617 97.4518 95.7777 97.6638 96.1259 97.6638C96.4473 97.6638 96.6348 97.4518 96.8223 97.1868C97.0366 96.9217 97.2508 96.6037 97.7329 96.6037C98.215 96.6037 98.4293 96.9217 98.6436 97.1868C98.831 97.4518 98.9917 97.6638 99.3399 97.6638V97.9288Z" fill="#FFFEFF"/>
<path d="M92.7513 78.078C92.296 78.078 92.0549 77.76 91.8407 77.495C91.6532 77.2299 91.4925 77.0179 91.1443 77.0179C90.7961 77.0179 90.6354 77.2299 90.4479 77.495C90.2337 77.76 90.0194 78.078 89.5373 78.078C89.082 78.078 88.8409 77.76 88.6267 77.495C88.4392 77.2299 88.2785 77.0179 87.9303 77.0179C87.6089 77.0179 87.4482 77.2299 87.2339 77.495C87.0197 77.76 86.8054 78.078 86.3233 78.078C85.8412 78.078 85.6269 77.76 85.4127 77.495C85.2252 77.2299 85.0645 77.0179 84.7163 77.0179V76.7529C85.1716 76.7529 85.4127 77.0709 85.6269 77.3359C85.8144 77.601 85.9751 77.813 86.3233 77.813C86.6447 77.813 86.8054 77.601 87.0197 77.3359C87.2339 77.0709 87.4482 76.7529 87.9303 76.7529C88.3856 76.7529 88.6267 77.0709 88.8409 77.3359C89.0284 77.601 89.1891 77.813 89.5373 77.813C89.8587 77.813 90.0462 77.601 90.2337 77.3359C90.4479 77.0709 90.6622 76.7529 91.1443 76.7529C91.6264 76.7529 91.8407 77.0709 92.0549 77.3359C92.2424 77.601 92.4031 77.813 92.7513 77.813V78.078Z" fill="#FFFEFF"/>
<path d="M84.1805 93.7678C83.7252 93.7678 83.4841 93.4498 83.2699 93.1848C83.0824 92.9198 82.9217 92.7077 82.5735 92.7077C82.2521 92.7077 82.0646 92.9198 81.8771 93.1848C81.6629 93.4498 81.4486 93.7678 80.9665 93.7678C80.5112 93.7678 80.2701 93.4498 80.0559 93.1848C79.8684 92.9198 79.7077 92.7077 79.3595 92.7077C79.0381 92.7077 78.8774 92.9198 78.6631 93.1848C78.4489 93.4498 78.2346 93.7678 77.7525 93.7678C77.2972 93.7678 77.0561 93.4498 76.8419 93.1848C76.6544 92.9198 76.4937 92.7077 76.1455 92.7077V92.4427C76.6008 92.4427 76.8419 92.7607 77.0561 93.0258C77.2436 93.2908 77.4043 93.5028 77.7525 93.5028C78.0739 93.5028 78.2346 93.2908 78.4489 93.0258C78.6631 92.7607 78.8774 92.4427 79.3595 92.4427C79.8148 92.4427 80.0559 92.7607 80.2701 93.0258C80.4576 93.2908 80.6183 93.5028 80.9665 93.5028C81.2879 93.5028 81.4754 93.2908 81.6629 93.0258C81.8771 92.7607 82.0914 92.4427 82.5735 92.4427C83.0288 92.4427 83.2699 92.7607 83.4841 93.0258C83.6716 93.2908 83.8323 93.5028 84.1805 93.5028V93.7678Z" fill="#FFFEFF"/>
<path d="M104.322 82.6631V83.0076C104.241 83.0871 104.161 83.1931 104.107 83.2726C103.893 83.5377 103.679 83.8557 103.197 83.8557C102.715 83.8557 102.5 83.5377 102.286 83.2726C102.099 83.0076 101.938 82.7956 101.59 82.7956C101.242 82.7956 101.081 83.0076 100.893 83.2726C100.679 83.5377 100.465 83.8557 99.9827 83.8557C99.5274 83.8557 99.2864 83.5377 99.0721 83.2726C98.8846 83.0076 98.7239 82.7956 98.3757 82.7956V82.5305C98.831 82.5305 99.0721 82.8486 99.2864 83.1136C99.4738 83.3786 99.6345 83.5907 99.9827 83.5907C100.304 83.5907 100.465 83.3786 100.679 83.1136C100.893 82.8486 101.108 82.5305 101.59 82.5305C102.045 82.5305 102.286 82.8486 102.5 83.1136C102.688 83.3786 102.849 83.5907 103.197 83.5907C103.545 83.5907 103.706 83.3786 103.893 83.1136C104 82.9546 104.134 82.7691 104.322 82.6631Z" fill="#FFFEFF"/>
<path d="M77.5115 85.7639C77.0562 85.7639 76.8152 85.4459 76.6009 85.1809C76.4134 84.9158 76.2527 84.7038 75.9045 84.7038C75.5831 84.7038 75.3957 84.9158 75.2082 85.1809C74.9939 85.4459 74.7797 85.7639 74.2976 85.7639C73.8422 85.7639 73.6012 85.4459 73.3869 85.1809C73.1994 84.9158 73.0387 84.7038 72.6906 84.7038C72.3692 84.7038 72.2085 84.9158 71.9942 85.1809C71.7799 85.4459 71.5657 85.7639 71.0836 85.7639C70.6282 85.7639 70.3872 85.4459 70.1729 85.1809C69.9854 84.9158 69.8247 84.7038 69.4766 84.7038V84.4388C69.9319 84.4388 70.1729 84.7568 70.3872 85.0218C70.5747 85.2869 70.7354 85.4989 71.0836 85.4989C71.405 85.4989 71.5657 85.2869 71.7799 85.0218C71.9942 84.7568 72.2085 84.4388 72.6906 84.4388C73.1459 84.4388 73.3869 84.7568 73.6012 85.0218C73.7887 85.2869 73.9494 85.4989 74.2976 85.4989C74.619 85.4989 74.8064 85.2869 74.9939 85.0218C75.2082 84.7568 75.4224 84.4388 75.9045 84.4388C76.3599 84.4388 76.6009 84.7568 76.8152 85.0218C77.0027 85.2869 77.1634 85.4989 77.5115 85.4989V85.7639Z" fill="#FFFEFF"/>
<path d="M69.2623 70.9222C71.8953 70.9222 74.0297 70.3526 74.0297 69.6501C74.0297 68.9475 71.8953 68.3779 69.2623 68.3779C66.6293 68.3779 64.4949 68.9475 64.4949 69.6501C64.4949 70.3526 66.6293 70.9222 69.2623 70.9222Z" fill="#008242"/>
<path d="M73.4672 52.3171H65.1108V69.6236H73.4672V52.3171Z" fill="#FFD79F"/>
<path d="M72.0745 50.7799H66.4768V52.3171H72.0745V50.7799Z" fill="#FFD79F"/>
<path d="M69.1016 54.2253H66.8518V56.4515H69.1016V54.2253Z" fill="#FFFEFF"/>
<path d="M72.0745 54.2253H69.8247V56.4515H72.0745V54.2253Z" fill="#FFFEFF"/>
<path d="M69.1016 57.1406H66.8518V59.3669H69.1016V57.1406Z" fill="#FFFEFF"/>
<path d="M72.0745 57.1406H69.8247V59.3669H72.0745V57.1406Z" fill="#FFFEFF"/>
<path d="M69.1016 60.0824H66.8518V62.3087H69.1016V60.0824Z" fill="#FFFEFF"/>
<path d="M72.0745 60.0824H69.8247V62.3087H72.0745V60.0824Z" fill="#FFFEFF"/>
<path d="M69.1016 63.0243H66.8518V65.2505H69.1016V63.0243Z" fill="#FFFEFF"/>
<path d="M72.0745 63.0243H69.8247V65.2505H72.0745V63.0243Z" fill="#FFFEFF"/>
<path d="M70.6819 65.8336H68.4321V69.6501H70.6819V65.8336Z" fill="#FFFEFF"/>
<path d="M22.5791 43.9156C24.1322 43.9156 25.3913 43.4172 25.3913 42.8025C25.3913 42.1877 24.1322 41.6893 22.5791 41.6893C21.0259 41.6893 19.7668 42.1877 19.7668 42.8025C19.7668 43.4172 21.0259 43.9156 22.5791 43.9156Z" fill="#008242"/>
<path d="M23.1415 29.1799H22.0166V42.829H23.1415V29.1799Z" fill="#FFD79F"/>
<path d="M27.2395 33.1288H23.1685V30.611H27.2395L28.8465 31.8567L27.2395 33.1288Z" fill="#FFFEFF"/>
<path d="M17.9456 32.1747H22.0167V34.6925H17.9456L16.3386 33.4204L17.9456 32.1747Z" fill="#FFFEFF"/>
<path d="M84.636 89.1033L88.3589 93.1053H99.2061V89.1033H84.636Z" fill="#E54151"/>
<path d="M98.1884 87.2481H89.0286V89.1033H98.1884V87.2481Z" fill="#FFD79F"/>
<path d="M91.0373 84.4123H90.4749V87.2216H91.0373V84.4123Z" fill="#FFFEFF"/>
<path d="M94.1174 84.4123H93.5549V87.2216H94.1174V84.4123Z" fill="#FFFEFF"/>
<path d="M97.1975 84.4123H96.635V87.2216H97.1975V84.4123Z" fill="#FFFEFF"/>
<path d="M92.6709 88.1757C92.6709 88.3612 92.5102 88.4937 92.3495 88.4937C92.162 88.4937 92.0281 88.3347 92.0281 88.1757C92.0281 87.9902 92.1888 87.8577 92.3495 87.8577C92.537 87.8312 92.6709 87.9902 92.6709 88.1757Z" fill="#FFFEFF"/>
<path d="M96.0456 88.1757C96.0456 88.3612 95.8849 88.4937 95.7242 88.4937C95.5367 88.4937 95.4028 88.3347 95.4028 88.1757C95.4028 87.9902 95.5635 87.8577 95.7242 87.8577C95.8849 87.8312 96.0456 87.9902 96.0456 88.1757Z" fill="#FFFEFF"/>
<path d="M99.1794 90.9055H89.0286V91.2501H99.1794V90.9055Z" fill="#B24355"/>
<path d="M80.4578 26.1585L82.2523 22.8456C82.3594 22.6866 82.4398 22.5011 82.5201 22.3421C82.8147 21.706 82.9754 21.0169 82.9754 20.2483C82.9754 17.5185 80.7256 15.2923 77.967 15.2923C75.2083 15.2923 72.9585 17.5185 72.9585 20.2483C72.9585 20.9904 73.1192 21.706 73.4138 22.3421C73.4942 22.5276 73.6013 22.6866 73.6816 22.8456L75.4761 26.1585H80.4578Z" fill="#F8B87B"/>
<path d="M78.8776 26.1585L79.5204 22.8456C79.5472 22.6866 79.6008 22.5011 79.6276 22.3421C79.7347 21.706 79.7883 21.0169 79.7883 20.2483C79.7883 17.5185 78.9848 15.2923 77.967 15.2923C76.976 15.2923 76.1458 17.5185 76.1458 20.2483C76.1458 20.9904 76.1993 21.706 76.3065 22.3421C76.3332 22.5276 76.36 22.6866 76.4136 22.8456L77.0564 26.1585H78.8776Z" fill="#F9CF9D"/>
<path d="M80.5382 28.3053H75.6101V31.2736H80.5382V28.3053Z" fill="#FEEFE8"/>
<path d="M76.6278 26.1585H76.3064V28.3053H76.6278V26.1585Z" fill="#49B6AE"/>
<path d="M79.7882 26.1585H79.4668V28.3053H79.7882V26.1585Z" fill="#49B6AE"/>
<path d="M18.6686 84.4388C19.7928 84.4388 20.7041 84.0828 20.7041 83.6437C20.7041 83.2046 19.7928 82.8486 18.6686 82.8486C17.5444 82.8486 16.6331 83.2046 16.6331 83.6437C16.6331 84.0828 17.5444 84.4388 18.6686 84.4388Z" fill="#008242"/>
<path d="M19.0971 73.8375H18.2668V83.6437H19.0971V73.8375Z" fill="#FFD79F"/>
<path d="M20.3025 75.1627C20.5971 74.7917 20.7846 74.3411 20.7846 73.8375C20.7846 72.6714 19.8471 71.7438 18.6687 71.7438C17.4902 71.7438 16.5528 72.6714 16.5528 73.8375C16.5528 74.3411 16.7403 74.7917 17.0349 75.1627C16.0707 75.7193 15.4011 76.7529 15.4011 77.9455C15.4011 79.7212 16.8742 81.1789 18.6687 81.1789C20.4632 81.1789 21.9362 79.7212 21.9362 77.9455C21.9362 76.7794 21.2934 75.7458 20.3025 75.1627Z" fill="#358B4C"/>
<path d="M18.6687 81.1789V71.7438C17.4902 71.7438 16.5528 72.6714 16.5528 73.8375C16.5528 74.3411 16.7403 74.7917 17.0349 75.1627C16.0707 75.7193 15.4011 76.7529 15.4011 77.9455C15.4011 79.7477 16.8742 81.1789 18.6687 81.1789Z" fill="#008242"/>
<path d="M28.766 84.4388C29.8902 84.4388 30.8015 84.0828 30.8015 83.6437C30.8015 83.2046 29.8902 82.8486 28.766 82.8486C27.6418 82.8486 26.7305 83.2046 26.7305 83.6437C26.7305 84.0828 27.6418 84.4388 28.766 84.4388Z" fill="#008242"/>
<path d="M29.1945 73.8375H28.3643V83.6437H29.1945V73.8375Z" fill="#FFD79F"/>
<path d="M30.3999 75.1627C30.6945 74.7917 30.882 74.3411 30.882 73.8375C30.882 72.6714 29.9446 71.7438 28.7661 71.7438C27.5876 71.7438 26.6502 72.6714 26.6502 73.8375C26.6502 74.3411 26.8377 74.7917 27.1323 75.1627C26.1681 75.7193 25.4985 76.7529 25.4985 77.9455C25.4985 79.7212 26.9716 81.1789 28.7661 81.1789C30.5606 81.1789 32.0337 79.7212 32.0337 77.9455C32.0337 76.7794 31.3641 75.7458 30.3999 75.1627Z" fill="#358B4C"/>
<path d="M28.7661 81.1789V71.7438C27.5876 71.7438 26.6502 72.6714 26.6502 73.8375C26.6502 74.3411 26.8377 74.7917 27.1323 75.1627C26.1681 75.7193 25.4985 76.7529 25.4985 77.9455C25.4985 79.7477 26.9716 81.1789 28.7661 81.1789Z" fill="#008242"/>
<path d="M25.686 93.0788C25.686 93.5293 24.7754 93.8739 23.6505 93.8739C22.5256 93.8739 21.615 93.5293 21.615 93.0788C21.615 92.6282 22.5256 92.2837 23.6505 92.2837C24.7754 92.2837 25.686 92.6547 25.686 93.0788Z" fill="#008242"/>
<path d="M24.1057 83.2726H23.2754V93.0788H24.1057V83.2726Z" fill="#FFD79F"/>
<path d="M25.311 84.5978C25.6056 84.2267 25.7931 83.7762 25.7931 83.2726C25.7931 82.1065 24.8557 81.1789 23.6772 81.1789C22.4988 81.1789 21.5613 82.1065 21.5613 83.2726C21.5613 83.7762 21.7488 84.2267 22.0434 84.5978C21.0793 85.1544 20.4097 86.188 20.4097 87.3806C20.4097 89.1563 21.8827 90.614 23.6772 90.614C25.4717 90.614 26.9448 89.1563 26.9448 87.3806C26.9448 86.188 26.2752 85.1544 25.311 84.5978Z" fill="#358B4C"/>
<path d="M23.6772 90.614V81.1789C22.4988 81.1789 21.5613 82.1065 21.5613 83.2726C21.5613 83.7762 21.7488 84.2267 22.0434 84.5978C21.0793 85.1544 20.4097 86.188 20.4097 87.3806C20.4097 89.1828 21.856 90.614 23.6772 90.614Z" fill="#008242"/>
<path d="M99.5543 34.7455L99.6346 35.1166C99.6614 35.2756 99.7954 35.4081 99.9561 35.4346L100.331 35.5141L99.9561 35.5936C99.7954 35.6201 99.6614 35.7526 99.6346 35.9117L99.5543 36.2827L99.4739 35.9117C99.4472 35.7526 99.3133 35.6201 99.1526 35.5936L98.7776 35.5141L99.1526 35.4346C99.3133 35.4081 99.4472 35.2756 99.4739 35.1166L99.5543 34.7455Z" fill="#FFFEFF"/>
<path d="M87.9034 34.7455L87.9838 35.1166C88.0106 35.2756 88.1445 35.4081 88.3052 35.4346L88.6801 35.5141L88.3052 35.5936C88.1445 35.6201 88.0106 35.7526 87.9838 35.9117L87.9034 36.2827L87.8231 35.9117C87.7963 35.7526 87.6624 35.6201 87.5017 35.5936L87.1267 35.5141L87.5017 35.4346C87.6624 35.4081 87.7963 35.2756 87.8231 35.1166L87.9034 34.7455Z" fill="#FFFEFF"/>
<path d="M94.1707 29.5774L94.3314 30.399C94.385 30.7436 94.6796 31.0351 95.0278 31.0881L95.8581 31.2471L95.0278 31.4061C94.6796 31.4591 94.385 31.7507 94.3314 32.0952L94.1707 32.9168L94.01 32.0952C93.9565 31.7507 93.6619 31.4591 93.3137 31.4061L92.4834 31.2471L93.3137 31.0881C93.6619 31.0351 93.9565 30.7436 94.01 30.399L94.1707 29.5774Z" fill="#FFFEFF"/>
<path d="M93.8762 40.3907C96.4796 40.3907 98.5901 40.1059 98.5901 39.7546C98.5901 39.4033 96.4796 39.1185 93.8762 39.1185C91.2728 39.1185 89.1624 39.4033 89.1624 39.7546C89.1624 40.1059 91.2728 40.3907 93.8762 40.3907Z" fill="#006B40"/>
<path d="M98.1884 34.3745H89.5642V39.7546H98.1884V34.3745Z" fill="#FFD79F"/>
<path d="M95.5636 38.986C96.6434 38.986 97.5188 38.1198 97.5188 37.0513C97.5188 35.9828 96.6434 35.1166 95.5636 35.1166C94.4838 35.1166 93.6084 35.9828 93.6084 37.0513C93.6084 38.1198 94.4838 38.986 95.5636 38.986Z" fill="#F8B87B"/>
<path d="M96.9564 37.0513C96.9564 37.8199 96.3403 38.4294 95.5636 38.4294C94.7869 38.4294 94.1709 37.8199 94.1709 37.0513C94.1709 36.2827 94.7869 35.6731 95.5636 35.6731C96.3403 35.6731 96.9564 36.3092 96.9564 37.0513Z" fill="#E54151"/>
<path d="M96.7689 37.0513C96.7689 37.7139 96.2332 38.2439 95.5636 38.2439C94.8941 38.2439 94.3584 37.7139 94.3584 37.0513C94.3584 36.3887 94.8941 35.8587 95.5636 35.8587C96.2332 35.8852 96.7689 36.4152 96.7689 37.0513Z" fill="#FFFEFF"/>
<path d="M98.1882 33.4734H95.8313V34.3745H98.1882V33.4734Z" fill="#FFFEFF"/>
<path d="M91.4658 33.9239H90.2874V34.3745H91.4658V33.9239Z" fill="#F8B87B"/>
<path d="M93.0727 35.3816H90.4212C90.3676 35.3816 90.3408 35.3551 90.3408 35.3021C90.3408 35.2491 90.3676 35.2226 90.4212 35.2226H93.0727C93.1263 35.2226 93.1531 35.2491 93.1531 35.3021C93.1531 35.3551 93.1263 35.3816 93.0727 35.3816Z" fill="#E54151"/>
<path d="M44.1398 62.3088C44.1398 62.8653 43.8987 63.3689 43.5505 63.7399C43.1756 64.111 42.6667 64.323 42.1042 64.323H33.5336C32.4087 64.323 31.498 63.4219 31.498 62.3088C31.498 61.7522 31.7391 61.2486 32.0873 60.8776C32.4622 60.5066 32.9711 60.2945 33.5336 60.2945H42.1042C43.2291 60.268 44.1398 61.1956 44.1398 62.3088Z" fill="#49B6AE"/>
<path d="M34.1764 60.268V64.2964H33.5336C32.4087 64.2964 31.498 63.3953 31.498 62.2822C31.498 61.7256 31.7391 61.2221 32.0873 60.851C32.4622 60.48 32.9711 60.268 33.5336 60.268H34.1764Z" fill="#9AD5D1"/>
<path d="M41.7828 62.9713C41.3275 62.9713 41.0864 62.6532 40.8722 62.3882C40.6847 62.1232 40.524 61.9112 40.1758 61.9112C39.8544 61.9112 39.6669 62.1232 39.4794 62.3882C39.2652 62.6532 39.0509 62.9713 38.5688 62.9713C38.1135 62.9713 37.8724 62.6532 37.6582 62.3882C37.4707 62.1232 37.31 61.9112 36.9618 61.9112C36.6404 61.9112 36.4797 62.1232 36.2654 62.3882C36.0512 62.6532 35.8369 62.9713 35.3548 62.9713C34.8995 62.9713 34.6584 62.6532 34.4442 62.3882C34.2567 62.1232 34.096 61.9112 33.7478 61.9112V61.6461C34.2031 61.6461 34.4442 61.9642 34.6584 62.2292C34.8459 62.4942 35.0066 62.7063 35.3548 62.7063C35.6762 62.7063 35.8369 62.4942 36.0512 62.2292C36.2654 61.9642 36.4797 61.6461 36.9618 61.6461C37.4171 61.6461 37.6582 61.9642 37.8724 62.2292C38.0599 62.4942 38.2206 62.7063 38.5688 62.7063C38.8902 62.7063 39.0777 62.4942 39.2652 62.2292C39.4794 61.9642 39.6937 61.6461 40.1758 61.6461C40.6311 61.6461 40.8722 61.9642 41.0864 62.2292C41.2739 62.4942 41.4346 62.7063 41.7828 62.7063V62.9713Z" fill="#FFFEFF"/>
<path d="M26.0342 61.0366L25.1503 62.5472L24.2665 61.0366L23.3559 62.5472L22.472 61.0366L21.5882 62.5472L20.7043 61.0366L19.6062 62.9183H21.3739H21.8024H23.1416H23.5701H24.9361H25.3646H27.1323L26.0342 61.0366Z" fill="#009546"/>
<path d="M68.1643 30.611L67.2805 32.1217L66.3966 30.611L65.5128 32.1217L64.6289 30.611L63.7451 32.1217L62.8612 30.611L61.7363 32.4928H63.5308H63.9593H65.2985H65.727H67.0662H67.4947H69.2624L68.1643 30.611Z" fill="#009546"/>
<path d="M80.1631 47.6525L79.2792 49.1632L78.3954 47.6525L77.5116 49.1632L76.6277 47.6525L75.7439 49.1632L74.8332 47.6525L73.7351 49.5342H75.5296H75.9313H77.2973H77.7258H79.065H79.4935H81.2612L80.1631 47.6525Z" fill="#009546"/>
<path d="M94.0637 42.988L93.1799 44.4986L92.296 42.988L91.4122 44.4986L90.5283 42.988L89.6177 44.4986L88.7339 42.988L87.6357 44.8697H89.4302H89.832H91.1979H91.6264H92.9656H93.3941H95.1618L94.0637 42.988Z" fill="#006B40"/>
<path d="M31.8462 67.0528L30.9624 68.5899L30.0517 67.0528L29.1679 68.5899L28.284 67.0528L27.4002 68.5899L26.5163 67.0528L25.4182 68.961H27.1859H27.6144H28.9536H29.3821H30.7481H31.1498H32.9443L31.8462 67.0528Z" fill="#009546"/>
<path d="M44.9163 92.1512L44.0056 93.6883L43.1218 92.1512L42.2379 93.6883L41.3541 92.1512L40.4702 93.6883L39.5864 92.1512L38.4883 94.0329H40.256H40.6845H42.0237H42.4522H43.7914H44.2199H46.0144L44.9163 92.1512Z" fill="#006B40"/>
<path d="M53.8084 64.2964L52.9245 65.8071L52.0407 64.2964L51.1568 65.8071L50.2462 64.2964L49.3623 65.8071L48.4785 64.2964L47.3804 66.1782H49.1481H49.5766H50.9425H51.3711H52.7102H53.1388H54.9065L53.8084 64.2964Z" fill="#006B40"/>
<path d="M43.1218 30.293L42.238 31.8037L41.3541 30.293L40.4703 31.8037L39.5864 30.293L38.6758 31.8037L37.792 30.293L36.6938 32.1747H38.4883H38.8901H40.256H40.6846H42.0237H42.4523H44.2199L43.1218 30.293Z" fill="#006B40"/>
<path d="M78.2883 85.0218C78.2883 87.5131 76.2528 89.5009 73.762 89.5009C71.2443 89.5009 69.2356 87.4866 69.2356 85.0218C69.2356 82.5305 71.2711 80.5428 73.762 80.5428C76.2528 80.5163 78.2883 82.5305 78.2883 85.0218Z" fill="#FFFEFF"/>
<path d="M73.7351 80.5163V89.5009C71.2175 89.5009 69.2087 87.4866 69.2087 85.0218C69.2087 82.5305 71.2443 80.5163 73.7351 80.5163Z" fill="#FEEFE8"/>
<path d="M75.8778 77.4155L72.8513 84.8893L74.619 85.3664L75.8778 77.4155Z" fill="#E54151"/>
<path d="M71.5925 92.8667L74.619 85.3664L72.8513 84.8893L71.5925 92.8667Z" fill="#B24355"/>
</g>
<defs>
<clipPath id="clip0_651_10038">
<rect width="98" height="108" fill="white" transform="translate(9)"/>
</clipPath>
</defs>
</svg>
