<svg width="98" height="108" viewBox="0 0 98 108" fill="none" xmlns="http://www.w3.org/2000/svg">

    <defs>
        <clipPath id="clip0_482_8006">
            <rect width="98" height="108" fill="white"/>
        </clipPath>
    </defs>
<g clip-path="url(#clip0_482_8006)">
<path d="M36.1039 14.0996L38.4341 9.80613C38.568 9.59411 38.6751 9.38209 38.7822 9.14356C39.1572 8.32196 39.3715 7.42086 39.3715 6.44024C39.3715 2.88883 36.4521 0 32.8631 0C29.2742 0 26.3816 2.88883 26.3816 6.44024C26.3816 7.39435 26.5959 8.32196 26.9708 9.14356C27.078 9.38209 27.1851 9.59411 27.319 9.80613L29.6492 14.0996H36.1039Z" fill="#E54151"/>
<path d="M34.0416 14.0996L34.8718 9.80613C34.9254 9.59411 34.9522 9.38209 35.0058 9.14356C35.1397 8.32196 35.22 7.42086 35.22 6.44024C35.22 2.88883 34.1755 0 32.8631 0C31.5507 0 30.533 2.88883 30.533 6.44024C30.533 7.39435 30.6133 8.32196 30.7472 9.14356C30.774 9.38209 30.8276 9.59411 30.8811 9.80613L31.7114 14.0996H34.0416Z" fill="#B6323F"/>
<path d="M36.2111 16.8825H29.8367V20.7254H36.2111V16.8825Z" fill="#FFD79F"/>
<path d="M31.1222 14.0996H30.7205V16.8825H31.1222V14.0996Z" fill="#00AFAE"/>
<path d="M35.2201 14.0996H34.8184V16.8825H35.2201V14.0996Z" fill="#00AFAE"/>
<path d="M72.8237 26.6886L48.5313 21.282L24.2656 26.6886L0 21.282V102.593L24.2656 108L48.5313 102.593L72.8237 108L97.0894 102.593V21.282L72.8237 26.6886Z" fill="#7CAE9F"/>
<path d="M25.1763 106.675L0.910645 101.268V19.9568L25.1763 25.3634V106.675Z" fill="#FFFEFF"/>
<path d="M49.4687 101.268L25.1763 106.675V25.3634L49.4687 19.9568V101.268Z" fill="#FEEFE8"/>
<path d="M73.7344 106.675L49.4688 101.268V19.9568L73.7344 25.3634V106.675Z" fill="#FFFEFF"/>
<path d="M98 101.268L73.7344 106.675V25.3634L98 19.9568V101.268Z" fill="#FEEFE8"/>
<path d="M25.1762 28.0667L3.58887 23.2697V99.148L25.1762 103.972V28.0667Z" fill="#55AC36"/>
<path d="M25.1763 28.0667V103.972L49.4687 98.5649V22.6866L25.1763 28.0667Z" fill="#008242"/>
<path d="M73.7342 28.0667V103.972L58.548 100.579L49.4685 98.5649V22.6866L73.7342 28.0667Z" fill="#55AC36"/>
<path d="M95.3217 23.2697V99.148L73.7344 103.972V28.0667L95.3217 23.2697Z" fill="#008242"/>
<path d="M49.4686 50.1173L20.248 50.2233L29.4347 40.2847L34.2289 35.0636L42.1568 42.882L49.4686 50.1173Z" fill="#00AFAE"/>
<path d="M34.2557 35.1696H34.1486L29.4347 40.2847L20.248 50.2233L34.2557 50.1703V35.1696Z" fill="#49B6AE"/>
<path d="M42.1569 42.882C41.1927 44.1541 39.8267 44.9492 38.3001 44.9492C36.0235 44.9492 34.0951 43.1735 33.3452 40.6557C32.8363 40.9737 32.2471 41.1593 31.6578 41.1593C30.8275 41.1593 30.0508 40.8147 29.4348 40.2582L34.2558 35.037L42.1569 42.882Z" fill="#FFFEFF"/>
<path d="M37.1751 52.6881L14.3826 52.7676L21.5605 45.0022L25.3101 40.9472L31.4703 47.0429L37.1751 52.6881Z" fill="#90C7BC"/>
<path d="M25.2298 41.0002L21.5605 45.0022L14.3826 52.7676L25.2298 52.7146V41.0002Z" fill="#BAD6D4"/>
<path d="M31.4704 47.0429C30.7204 48.0501 29.6491 48.6596 28.4706 48.6596C26.7029 48.6596 25.2031 47.2815 24.6138 45.3202C24.2121 45.5853 23.7568 45.7178 23.3015 45.7178C22.6587 45.7178 22.0694 45.4528 21.5605 45.0287L25.3102 40.9737L31.4704 47.0429Z" fill="#FFFEFF"/>
<path d="M95.3217 48.5006V99.1745L73.7344 103.972L58.5483 100.579V92.8137C58.5483 90.3225 56.5128 88.3347 53.9951 88.3347H40.9784C38.4608 88.3347 36.4253 86.3205 36.4253 83.8292V80.0923C36.4253 77.601 38.4608 75.6132 40.9784 75.6132H64.4942C67.0118 75.6132 69.0205 73.599 69.0205 71.1077V61.9377C69.0205 59.4464 71.0561 57.4321 73.5469 57.4321H79.9749C82.4925 57.4321 84.5281 55.4179 84.5281 52.9531C84.5281 51.7075 85.0369 50.5943 85.8672 49.7728C86.6975 48.9512 87.8224 48.4476 89.0812 48.4476H94.7593C94.9467 48.4476 95.1342 48.4741 95.3217 48.5006Z" fill="#9AD5D1"/>
<path d="M49.4687 75.5867H40.9784C38.4608 75.5867 36.4253 77.601 36.4253 80.0658V83.8027C36.4253 86.294 38.4608 88.3082 40.9784 88.3082H49.4687V75.5867Z" fill="#49B6AE"/>
<path d="M95.3217 48.5006V99.1745L73.7344 103.972V57.4321H80.0017C82.5193 57.4321 84.5548 55.4179 84.5548 52.9531C84.5548 51.7075 85.0637 50.5943 85.894 49.7728C86.7243 48.9512 87.8492 48.4476 89.108 48.4476H94.786C94.9467 48.4476 95.1342 48.4741 95.3217 48.5006Z" fill="#49B6AE"/>
<path d="M65.8869 46.4069C67.6028 46.4069 68.9938 45.9204 68.9938 45.3202C68.9938 44.7201 67.6028 44.2336 65.8869 44.2336C64.171 44.2336 62.78 44.7201 62.78 45.3202C62.78 45.9204 64.171 46.4069 65.8869 46.4069Z" fill="#008242"/>
<path d="M68.833 36.5477C67.1992 34.931 64.5477 34.931 62.9407 36.5477C61.3069 38.1644 61.3069 40.7882 62.9407 42.3784L65.8868 45.2937L68.833 42.3784C70.4668 40.7882 70.4668 38.1644 68.833 36.5477Z" fill="#E54151"/>
<path d="M64.387 40.9472C63.5835 40.1521 63.5835 38.827 64.387 38.0319C65.1905 37.2368 66.5297 37.2368 67.3332 38.0319C68.1367 38.827 68.1367 40.1521 67.3332 40.9472C66.5297 41.7423 65.2173 41.7423 64.387 40.9472Z" fill="#FFFEFF"/>
<path d="M31.7917 80.3573C33.5075 80.3573 34.8985 79.8708 34.8985 79.2707C34.8985 78.6705 33.5075 78.184 31.7917 78.184C30.0758 78.184 28.6848 78.6705 28.6848 79.2707C28.6848 79.8708 30.0758 80.3573 31.7917 80.3573Z" fill="#006B40"/>
<path d="M34.7646 70.4982C33.1308 68.8815 30.4793 68.8815 28.8723 70.4982C27.2385 72.1148 27.2385 74.7386 28.8723 76.3288L31.8185 79.2442L34.7646 76.3288C36.3984 74.7121 36.3984 72.1148 34.7646 70.4982Z" fill="#F8B87B"/>
<path d="M31.7917 76.3023C33.404 76.3023 34.7111 75.009 34.7111 73.4135C34.7111 71.818 33.404 70.5247 31.7917 70.5247C30.1794 70.5247 28.8723 71.818 28.8723 73.4135C28.8723 75.009 30.1794 76.3023 31.7917 76.3023Z" fill="#FFFEFF"/>
<path d="M31.015 74.2086C30.5865 73.7845 30.5865 73.069 31.015 72.6449C31.4435 72.2209 32.1667 72.2209 32.5952 72.6449C33.0237 73.069 33.0237 73.7845 32.5952 74.2086C32.1667 74.6326 31.4435 74.6326 31.015 74.2086Z" fill="#E54151"/>
<path d="M90.3668 68.0069C89.9115 68.0069 89.6704 67.6888 89.4561 67.4238C89.2687 67.1588 89.108 66.9467 88.7598 66.9467C88.4384 66.9467 88.2509 67.1588 88.0634 67.4238C87.8491 67.6888 87.6349 68.0069 87.1528 68.0069C86.6975 68.0069 86.4564 67.6888 86.2421 67.4238C86.0547 67.1588 85.894 66.9467 85.5458 66.9467C85.2244 66.9467 85.0637 67.1588 84.8494 67.4238C84.6351 67.6888 84.4209 68.0069 83.9388 68.0069C83.4835 68.0069 83.2424 67.6888 83.0282 67.4238C82.8407 67.1588 82.68 66.9467 82.3318 66.9467V66.6817C82.7871 66.6817 83.0282 66.9998 83.2424 67.2648C83.4299 67.5298 83.5906 67.7418 83.9388 67.7418C84.2602 67.7418 84.4209 67.5298 84.6352 67.2648C84.8494 66.9998 85.0637 66.6817 85.5458 66.6817C86.0011 66.6817 86.2421 66.9998 86.4564 67.2648C86.6439 67.5298 86.8046 67.7418 87.1528 67.7418C87.4742 67.7418 87.6617 67.5298 87.8491 67.2648C88.0634 66.9998 88.2777 66.6817 88.7598 66.6817C89.2151 66.6817 89.4561 66.9998 89.6704 67.2648C89.8579 67.5298 90.0186 67.7418 90.3668 67.7418V68.0069Z" fill="#FFFEFF"/>
<path d="M95.3217 55.9745V56.2395C95.2681 56.213 95.1878 56.213 95.1074 56.213C94.786 56.213 94.5985 56.425 94.4111 56.6901C94.1968 56.9551 93.9825 57.2731 93.5004 57.2731C93.0451 57.2731 92.8041 56.9551 92.5898 56.6901C92.4023 56.425 92.2416 56.213 91.8934 56.213C91.5453 56.213 91.3846 56.425 91.1971 56.6901C90.9828 56.9551 90.7685 57.2731 90.2864 57.2731C89.8311 57.2731 89.5901 56.9551 89.3758 56.6901C89.1883 56.425 89.0276 56.213 88.6794 56.213V55.948C89.1348 55.948 89.3758 56.266 89.5901 56.531C89.7776 56.7961 89.9383 57.0081 90.2864 57.0081C90.6078 57.0081 90.7685 56.7961 90.9828 56.531C91.1971 56.266 91.4113 55.948 91.8934 55.948C92.3488 55.948 92.5898 56.266 92.8041 56.531C92.9915 56.7961 93.1522 57.0081 93.5004 57.0081C93.8218 57.0081 94.0093 56.7961 94.1968 56.531C94.4111 56.266 94.6253 55.948 95.1074 55.948C95.1878 55.948 95.2681 55.948 95.3217 55.9745Z" fill="#FFFEFF"/>
<path d="M51.397 82.6101C50.9417 82.6101 50.7007 82.292 50.4864 82.027C50.2989 81.762 50.1382 81.5499 49.79 81.5499C49.4686 81.5499 49.2812 81.762 49.0937 82.027C48.8794 82.292 48.6651 82.6101 48.1831 82.6101C47.7277 82.6101 47.4867 82.292 47.2724 82.027C47.0849 81.762 46.9242 81.5499 46.5761 81.5499C46.2547 81.5499 46.094 81.762 45.8797 82.027C45.6654 82.292 45.4512 82.6101 44.9691 82.6101C44.5137 82.6101 44.2727 82.292 44.0584 82.027C43.8709 81.762 43.7102 81.5499 43.3621 81.5499V81.2849C43.8174 81.2849 44.0584 81.6029 44.2727 81.868C44.4602 82.133 44.6209 82.345 44.9691 82.345C45.2905 82.345 45.4512 82.133 45.6654 81.868C45.8797 81.6029 46.094 81.2849 46.5761 81.2849C47.0314 81.2849 47.2724 81.6029 47.4867 81.868C47.6742 82.133 47.8349 82.345 48.1831 82.345C48.5044 82.345 48.6919 82.133 48.8794 81.868C49.0937 81.6029 49.3079 81.2849 49.79 81.2849C50.2454 81.2849 50.4864 81.6029 50.7007 81.868C50.8882 82.133 51.0489 82.345 51.397 82.345V82.6101Z" fill="#FFFEFF"/>
<path d="M90.3399 97.9288C89.8846 97.9288 89.6436 97.6108 89.4293 97.3458C89.2418 97.0807 89.0811 96.8687 88.7329 96.8687C88.4115 96.8687 88.224 97.0807 88.0366 97.3458C87.8223 97.6108 87.608 97.9288 87.1259 97.9288C86.6706 97.9288 86.4296 97.6108 86.2153 97.3458C86.0278 97.0807 85.8671 96.8687 85.5189 96.8687C85.1975 96.8687 85.0368 97.0807 84.8226 97.3458C84.6083 97.6108 84.394 97.9288 83.9119 97.9288C83.4566 97.9288 83.2156 97.6108 83.0013 97.3458C82.8138 97.0807 82.6531 96.8687 82.3049 96.8687V96.6037C82.7602 96.6037 83.0013 96.9217 83.2156 97.1868C83.4031 97.4518 83.5637 97.6638 83.9119 97.6638C84.2333 97.6638 84.394 97.4518 84.6083 97.1868C84.8226 96.9217 85.0368 96.6037 85.5189 96.6037C85.9742 96.6037 86.2153 96.9217 86.4296 97.1868C86.617 97.4518 86.7777 97.6638 87.1259 97.6638C87.4473 97.6638 87.6348 97.4518 87.8223 97.1868C88.0366 96.9217 88.2508 96.6037 88.7329 96.6037C89.215 96.6037 89.4293 96.9217 89.6436 97.1868C89.831 97.4518 89.9917 97.6638 90.3399 97.6638V97.9288Z" fill="#FFFEFF"/>
<path d="M83.7513 78.078C83.296 78.078 83.0549 77.76 82.8407 77.495C82.6532 77.2299 82.4925 77.0179 82.1443 77.0179C81.7961 77.0179 81.6354 77.2299 81.4479 77.495C81.2337 77.76 81.0194 78.078 80.5373 78.078C80.082 78.078 79.8409 77.76 79.6267 77.495C79.4392 77.2299 79.2785 77.0179 78.9303 77.0179C78.6089 77.0179 78.4482 77.2299 78.2339 77.495C78.0197 77.76 77.8054 78.078 77.3233 78.078C76.8412 78.078 76.6269 77.76 76.4127 77.495C76.2252 77.2299 76.0645 77.0179 75.7163 77.0179V76.7529C76.1716 76.7529 76.4127 77.0709 76.6269 77.3359C76.8144 77.601 76.9751 77.813 77.3233 77.813C77.6447 77.813 77.8054 77.601 78.0197 77.3359C78.2339 77.0709 78.4482 76.7529 78.9303 76.7529C79.3856 76.7529 79.6267 77.0709 79.8409 77.3359C80.0284 77.601 80.1891 77.813 80.5373 77.813C80.8587 77.813 81.0462 77.601 81.2337 77.3359C81.4479 77.0709 81.6622 76.7529 82.1443 76.7529C82.6264 76.7529 82.8407 77.0709 83.0549 77.3359C83.2424 77.601 83.4031 77.813 83.7513 77.813V78.078Z" fill="#FFFEFF"/>
<path d="M75.1805 93.7678C74.7252 93.7678 74.4841 93.4498 74.2699 93.1848C74.0824 92.9198 73.9217 92.7077 73.5735 92.7077C73.2521 92.7077 73.0646 92.9198 72.8771 93.1848C72.6629 93.4498 72.4486 93.7678 71.9665 93.7678C71.5112 93.7678 71.2701 93.4498 71.0559 93.1848C70.8684 92.9198 70.7077 92.7077 70.3595 92.7077C70.0381 92.7077 69.8774 92.9198 69.6631 93.1848C69.4489 93.4498 69.2346 93.7678 68.7525 93.7678C68.2972 93.7678 68.0561 93.4498 67.8419 93.1848C67.6544 92.9198 67.4937 92.7077 67.1455 92.7077V92.4427C67.6008 92.4427 67.8419 92.7607 68.0561 93.0258C68.2436 93.2908 68.4043 93.5028 68.7525 93.5028C69.0739 93.5028 69.2346 93.2908 69.4489 93.0258C69.6631 92.7607 69.8774 92.4427 70.3595 92.4427C70.8148 92.4427 71.0559 92.7607 71.2701 93.0258C71.4576 93.2908 71.6183 93.5028 71.9665 93.5028C72.2879 93.5028 72.4754 93.2908 72.6629 93.0258C72.8771 92.7607 73.0914 92.4427 73.5735 92.4427C74.0288 92.4427 74.2699 92.7607 74.4841 93.0258C74.6716 93.2908 74.8323 93.5028 75.1805 93.5028V93.7678Z" fill="#FFFEFF"/>
<path d="M95.3216 82.6631V83.0076C95.2413 83.0871 95.1609 83.1931 95.1074 83.2726C94.8931 83.5377 94.6788 83.8557 94.1967 83.8557C93.7146 83.8557 93.5003 83.5377 93.2861 83.2726C93.0986 83.0076 92.9379 82.7956 92.5897 82.7956C92.2415 82.7956 92.0808 83.0076 91.8934 83.2726C91.6791 83.5377 91.4648 83.8557 90.9827 83.8557C90.5274 83.8557 90.2864 83.5377 90.0721 83.2726C89.8846 83.0076 89.7239 82.7956 89.3757 82.7956V82.5305C89.831 82.5305 90.0721 82.8486 90.2864 83.1136C90.4738 83.3786 90.6345 83.5907 90.9827 83.5907C91.3041 83.5907 91.4648 83.3786 91.6791 83.1136C91.8934 82.8486 92.1076 82.5305 92.5897 82.5305C93.045 82.5305 93.2861 82.8486 93.5004 83.1136C93.6878 83.3786 93.8485 83.5907 94.1967 83.5907C94.5449 83.5907 94.7056 83.3786 94.8931 83.1136C95.0002 82.9546 95.1341 82.7691 95.3216 82.6631Z" fill="#FFFEFF"/>
<path d="M68.5115 85.7639C68.0562 85.7639 67.8152 85.4459 67.6009 85.1809C67.4134 84.9158 67.2527 84.7038 66.9045 84.7038C66.5831 84.7038 66.3957 84.9158 66.2082 85.1809C65.9939 85.4459 65.7797 85.7639 65.2976 85.7639C64.8422 85.7639 64.6012 85.4459 64.3869 85.1809C64.1994 84.9158 64.0387 84.7038 63.6906 84.7038C63.3692 84.7038 63.2085 84.9158 62.9942 85.1809C62.7799 85.4459 62.5657 85.7639 62.0836 85.7639C61.6282 85.7639 61.3872 85.4459 61.1729 85.1809C60.9854 84.9158 60.8247 84.7038 60.4766 84.7038V84.4388C60.9319 84.4388 61.1729 84.7568 61.3872 85.0218C61.5747 85.2869 61.7354 85.4989 62.0836 85.4989C62.405 85.4989 62.5657 85.2869 62.7799 85.0218C62.9942 84.7568 63.2085 84.4388 63.6906 84.4388C64.1459 84.4388 64.3869 84.7568 64.6012 85.0218C64.7887 85.2869 64.9494 85.4989 65.2976 85.4989C65.619 85.4989 65.8064 85.2869 65.9939 85.0218C66.2082 84.7568 66.4224 84.4388 66.9045 84.4388C67.3599 84.4388 67.6009 84.7568 67.8152 85.0218C68.0027 85.2869 68.1634 85.4989 68.5115 85.4989V85.7639Z" fill="#FFFEFF"/>
<path d="M60.2623 70.9222C62.8953 70.9222 65.0297 70.3526 65.0297 69.6501C65.0297 68.9475 62.8953 68.3779 60.2623 68.3779C57.6293 68.3779 55.4949 68.9475 55.4949 69.6501C55.4949 70.3526 57.6293 70.9222 60.2623 70.9222Z" fill="#008242"/>
<path d="M64.4672 52.3171H56.1108V69.6236H64.4672V52.3171Z" fill="#FFD79F"/>
<path d="M63.0745 50.7799H57.4768V52.3171H63.0745V50.7799Z" fill="#FFD79F"/>
<path d="M60.1016 54.2253H57.8518V56.4515H60.1016V54.2253Z" fill="#FFFEFF"/>
<path d="M63.0745 54.2253H60.8247V56.4515H63.0745V54.2253Z" fill="#FFFEFF"/>
<path d="M60.1016 57.1406H57.8518V59.3669H60.1016V57.1406Z" fill="#FFFEFF"/>
<path d="M63.0745 57.1406H60.8247V59.3669H63.0745V57.1406Z" fill="#FFFEFF"/>
<path d="M60.1016 60.0824H57.8518V62.3087H60.1016V60.0824Z" fill="#FFFEFF"/>
<path d="M63.0745 60.0824H60.8247V62.3087H63.0745V60.0824Z" fill="#FFFEFF"/>
<path d="M60.1016 63.0243H57.8518V65.2505H60.1016V63.0243Z" fill="#FFFEFF"/>
<path d="M63.0745 63.0243H60.8247V65.2505H63.0745V63.0243Z" fill="#FFFEFF"/>
<path d="M61.6819 65.8336H59.4321V69.6501H61.6819V65.8336Z" fill="#FFFEFF"/>
<path d="M13.5791 43.9156C15.1322 43.9156 16.3913 43.4172 16.3913 42.8025C16.3913 42.1877 15.1322 41.6893 13.5791 41.6893C12.0259 41.6893 10.7668 42.1877 10.7668 42.8025C10.7668 43.4172 12.0259 43.9156 13.5791 43.9156Z" fill="#008242"/>
<path d="M14.1415 29.1799H13.0166V42.829H14.1415V29.1799Z" fill="#FFD79F"/>
<path d="M18.2395 33.1288H14.1685V30.611H18.2395L19.8465 31.8567L18.2395 33.1288Z" fill="#FFFEFF"/>
<path d="M8.94562 32.1747H13.0167V34.6925H8.94562L7.33862 33.4204L8.94562 32.1747Z" fill="#FFFEFF"/>
<path d="M75.636 89.1033L79.3589 93.1053H90.2061V89.1033H75.636Z" fill="#E54151"/>
<path d="M89.1884 87.2481H80.0286V89.1033H89.1884V87.2481Z" fill="#FFD79F"/>
<path d="M82.0373 84.4123H81.4749V87.2216H82.0373V84.4123Z" fill="#FFFEFF"/>
<path d="M85.1174 84.4123H84.5549V87.2216H85.1174V84.4123Z" fill="#FFFEFF"/>
<path d="M88.1975 84.4123H87.635V87.2216H88.1975V84.4123Z" fill="#FFFEFF"/>
<path d="M83.6709 88.1757C83.6709 88.3612 83.5102 88.4937 83.3495 88.4937C83.162 88.4937 83.0281 88.3347 83.0281 88.1757C83.0281 87.9902 83.1888 87.8577 83.3495 87.8577C83.537 87.8312 83.6709 87.9902 83.6709 88.1757Z" fill="#FFFEFF"/>
<path d="M87.0456 88.1757C87.0456 88.3612 86.8849 88.4937 86.7242 88.4937C86.5367 88.4937 86.4028 88.3347 86.4028 88.1757C86.4028 87.9902 86.5635 87.8577 86.7242 87.8577C86.8849 87.8312 87.0456 87.9902 87.0456 88.1757Z" fill="#FFFEFF"/>
<path d="M90.1794 90.9055H80.0286V91.2501H90.1794V90.9055Z" fill="#B24355"/>
<path d="M71.4578 26.1585L73.2523 22.8456C73.3594 22.6866 73.4398 22.5011 73.5201 22.3421C73.8147 21.706 73.9754 21.0169 73.9754 20.2483C73.9754 17.5185 71.7256 15.2923 68.967 15.2923C66.2083 15.2923 63.9585 17.5185 63.9585 20.2483C63.9585 20.9904 64.1192 21.706 64.4138 22.3421C64.4942 22.5276 64.6013 22.6866 64.6816 22.8456L66.4761 26.1585H71.4578Z" fill="#F8B87B"/>
<path d="M69.8776 26.1585L70.5204 22.8456C70.5472 22.6866 70.6008 22.5011 70.6276 22.3421C70.7347 21.706 70.7883 21.0169 70.7883 20.2483C70.7883 17.5185 69.9848 15.2923 68.967 15.2923C67.976 15.2923 67.1458 17.5185 67.1458 20.2483C67.1458 20.9904 67.1993 21.706 67.3065 22.3421C67.3332 22.5276 67.36 22.6866 67.4136 22.8456L68.0564 26.1585H69.8776Z" fill="#F9CF9D"/>
<path d="M71.5382 28.3053H66.6101V31.2736H71.5382V28.3053Z" fill="#FEEFE8"/>
<path d="M67.6278 26.1585H67.3064V28.3053H67.6278V26.1585Z" fill="#49B6AE"/>
<path d="M70.7882 26.1585H70.4668V28.3053H70.7882V26.1585Z" fill="#49B6AE"/>
<path d="M9.66859 84.4388C10.7928 84.4388 11.7041 84.0828 11.7041 83.6437C11.7041 83.2046 10.7928 82.8486 9.66859 82.8486C8.54439 82.8486 7.63306 83.2046 7.63306 83.6437C7.63306 84.0828 8.54439 84.4388 9.66859 84.4388Z" fill="#008242"/>
<path d="M10.0971 73.8375H9.26685V83.6437H10.0971V73.8375Z" fill="#FFD79F"/>
<path d="M11.3025 75.1627C11.5971 74.7917 11.7846 74.3411 11.7846 73.8375C11.7846 72.6714 10.8471 71.7438 9.66868 71.7438C8.49022 71.7438 7.5528 72.6714 7.5528 73.8375C7.5528 74.3411 7.74029 74.7917 8.0349 75.1627C7.07071 75.7193 6.40112 76.7529 6.40112 77.9455C6.40112 79.7212 7.8742 81.1789 9.66868 81.1789C11.4632 81.1789 12.9362 79.7212 12.9362 77.9455C12.9362 76.7794 12.2934 75.7458 11.3025 75.1627Z" fill="#358B4C"/>
<path d="M9.66868 81.1789V71.7438C8.49022 71.7438 7.5528 72.6714 7.5528 73.8375C7.5528 74.3411 7.74029 74.7917 8.0349 75.1627C7.0707 75.7193 6.40112 76.7529 6.40112 77.9455C6.40112 79.7477 7.8742 81.1789 9.66868 81.1789Z" fill="#008242"/>
<path d="M19.766 84.4388C20.8902 84.4388 21.8015 84.0828 21.8015 83.6437C21.8015 83.2046 20.8902 82.8486 19.766 82.8486C18.6418 82.8486 17.7305 83.2046 17.7305 83.6437C17.7305 84.0828 18.6418 84.4388 19.766 84.4388Z" fill="#008242"/>
<path d="M20.1945 73.8375H19.3643V83.6437H20.1945V73.8375Z" fill="#FFD79F"/>
<path d="M21.3999 75.1627C21.6945 74.7917 21.882 74.3411 21.882 73.8375C21.882 72.6714 20.9446 71.7438 19.7661 71.7438C18.5876 71.7438 17.6502 72.6714 17.6502 73.8375C17.6502 74.3411 17.8377 74.7917 18.1323 75.1627C17.1681 75.7193 16.4985 76.7529 16.4985 77.9455C16.4985 79.7212 17.9716 81.1789 19.7661 81.1789C21.5606 81.1789 23.0337 79.7212 23.0337 77.9455C23.0337 76.7794 22.3641 75.7458 21.3999 75.1627Z" fill="#358B4C"/>
<path d="M19.7661 81.1789V71.7438C18.5876 71.7438 17.6502 72.6714 17.6502 73.8375C17.6502 74.3411 17.8377 74.7917 18.1323 75.1627C17.1681 75.7193 16.4985 76.7529 16.4985 77.9455C16.4985 79.7477 17.9716 81.1789 19.7661 81.1789Z" fill="#008242"/>
<path d="M16.686 93.0788C16.686 93.5293 15.7754 93.8739 14.6505 93.8739C13.5256 93.8739 12.615 93.5293 12.615 93.0788C12.615 92.6282 13.5256 92.2837 14.6505 92.2837C15.7754 92.2837 16.686 92.6547 16.686 93.0788Z" fill="#008242"/>
<path d="M15.1057 83.2726H14.2754V93.0788H15.1057V83.2726Z" fill="#FFD79F"/>
<path d="M16.311 84.5978C16.6056 84.2267 16.7931 83.7762 16.7931 83.2726C16.7931 82.1065 15.8557 81.1789 14.6772 81.1789C13.4988 81.1789 12.5613 82.1065 12.5613 83.2726C12.5613 83.7762 12.7488 84.2267 13.0434 84.5978C12.0793 85.1544 11.4097 86.188 11.4097 87.3806C11.4097 89.1563 12.8827 90.614 14.6772 90.614C16.4717 90.614 17.9448 89.1563 17.9448 87.3806C17.9448 86.188 17.2752 85.1544 16.311 84.5978Z" fill="#358B4C"/>
<path d="M14.6772 90.614V81.1789C13.4988 81.1789 12.5613 82.1065 12.5613 83.2726C12.5613 83.7762 12.7488 84.2267 13.0434 84.5978C12.0793 85.1544 11.4097 86.188 11.4097 87.3806C11.4097 89.1828 12.856 90.614 14.6772 90.614Z" fill="#008242"/>
<path d="M90.5543 34.7455L90.6346 35.1166C90.6614 35.2756 90.7954 35.4081 90.9561 35.4346L91.331 35.5141L90.9561 35.5936C90.7954 35.6201 90.6614 35.7526 90.6346 35.9117L90.5543 36.2827L90.4739 35.9117C90.4472 35.7526 90.3133 35.6201 90.1526 35.5936L89.7776 35.5141L90.1526 35.4346C90.3133 35.4081 90.4472 35.2756 90.4739 35.1166L90.5543 34.7455Z" fill="#FFFEFF"/>
<path d="M78.9034 34.7455L78.9838 35.1166C79.0106 35.2756 79.1445 35.4081 79.3052 35.4346L79.6801 35.5141L79.3052 35.5936C79.1445 35.6201 79.0106 35.7526 78.9838 35.9117L78.9034 36.2827L78.8231 35.9117C78.7963 35.7526 78.6624 35.6201 78.5017 35.5936L78.1267 35.5141L78.5017 35.4346C78.6624 35.4081 78.7963 35.2756 78.8231 35.1166L78.9034 34.7455Z" fill="#FFFEFF"/>
<path d="M85.1707 29.5774L85.3314 30.399C85.385 30.7436 85.6796 31.0351 86.0278 31.0881L86.8581 31.2471L86.0278 31.4061C85.6796 31.4591 85.385 31.7507 85.3314 32.0952L85.1707 32.9168L85.01 32.0952C84.9565 31.7507 84.6619 31.4591 84.3137 31.4061L83.4834 31.2471L84.3137 31.0881C84.6619 31.0351 84.9565 30.7436 85.01 30.399L85.1707 29.5774Z" fill="#FFFEFF"/>
<path d="M84.8762 40.3907C87.4796 40.3907 89.5901 40.1059 89.5901 39.7546C89.5901 39.4033 87.4796 39.1185 84.8762 39.1185C82.2728 39.1185 80.1624 39.4033 80.1624 39.7546C80.1624 40.1059 82.2728 40.3907 84.8762 40.3907Z" fill="#006B40"/>
<path d="M89.1884 34.3745H80.5642V39.7546H89.1884V34.3745Z" fill="#FFD79F"/>
<path d="M86.5636 38.986C87.6434 38.986 88.5188 38.1198 88.5188 37.0513C88.5188 35.9828 87.6434 35.1166 86.5636 35.1166C85.4838 35.1166 84.6084 35.9828 84.6084 37.0513C84.6084 38.1198 85.4838 38.986 86.5636 38.986Z" fill="#F8B87B"/>
<path d="M87.9564 37.0513C87.9564 37.8199 87.3403 38.4294 86.5636 38.4294C85.7869 38.4294 85.1709 37.8199 85.1709 37.0513C85.1709 36.2827 85.7869 35.6731 86.5636 35.6731C87.3403 35.6731 87.9564 36.3092 87.9564 37.0513Z" fill="#E54151"/>
<path d="M87.7689 37.0513C87.7689 37.7139 87.2332 38.2439 86.5636 38.2439C85.8941 38.2439 85.3584 37.7139 85.3584 37.0513C85.3584 36.3887 85.8941 35.8587 86.5636 35.8587C87.2332 35.8852 87.7689 36.4152 87.7689 37.0513Z" fill="#FFFEFF"/>
<path d="M89.1882 33.4734H86.8313V34.3745H89.1882V33.4734Z" fill="#FFFEFF"/>
<path d="M82.4658 33.9239H81.2874V34.3745H82.4658V33.9239Z" fill="#F8B87B"/>
<path d="M84.0727 35.3816H81.4212C81.3676 35.3816 81.3408 35.3551 81.3408 35.3021C81.3408 35.2491 81.3676 35.2226 81.4212 35.2226H84.0727C84.1263 35.2226 84.1531 35.2491 84.1531 35.3021C84.1531 35.3551 84.1263 35.3816 84.0727 35.3816Z" fill="#E54151"/>
<path d="M35.1398 62.3088C35.1398 62.8653 34.8987 63.3689 34.5505 63.7399C34.1756 64.111 33.6667 64.323 33.1042 64.323H24.5336C23.4087 64.323 22.498 63.4219 22.498 62.3088C22.498 61.7522 22.7391 61.2486 23.0873 60.8776C23.4622 60.5066 23.9711 60.2945 24.5336 60.2945H33.1042C34.2291 60.268 35.1398 61.1956 35.1398 62.3088Z" fill="#49B6AE"/>
<path d="M25.1764 60.268V64.2964H24.5336C23.4087 64.2964 22.498 63.3953 22.498 62.2822C22.498 61.7256 22.7391 61.2221 23.0873 60.851C23.4622 60.48 23.9711 60.268 24.5336 60.268H25.1764Z" fill="#9AD5D1"/>
<path d="M32.7828 62.9713C32.3275 62.9713 32.0864 62.6532 31.8722 62.3882C31.6847 62.1232 31.524 61.9112 31.1758 61.9112C30.8544 61.9112 30.6669 62.1232 30.4794 62.3882C30.2652 62.6532 30.0509 62.9713 29.5688 62.9713C29.1135 62.9713 28.8724 62.6532 28.6582 62.3882C28.4707 62.1232 28.31 61.9112 27.9618 61.9112C27.6404 61.9112 27.4797 62.1232 27.2654 62.3882C27.0512 62.6532 26.8369 62.9713 26.3548 62.9713C25.8995 62.9713 25.6584 62.6532 25.4442 62.3882C25.2567 62.1232 25.096 61.9112 24.7478 61.9112V61.6461C25.2031 61.6461 25.4442 61.9642 25.6584 62.2292C25.8459 62.4942 26.0066 62.7063 26.3548 62.7063C26.6762 62.7063 26.8369 62.4942 27.0512 62.2292C27.2654 61.9642 27.4797 61.6461 27.9618 61.6461C28.4171 61.6461 28.6582 61.9642 28.8724 62.2292C29.0599 62.4942 29.2206 62.7063 29.5688 62.7063C29.8902 62.7063 30.0777 62.4942 30.2652 62.2292C30.4794 61.9642 30.6937 61.6461 31.1758 61.6461C31.6311 61.6461 31.8722 61.9642 32.0864 62.2292C32.2739 62.4942 32.4346 62.7063 32.7828 62.7063V62.9713Z" fill="#FFFEFF"/>
<path d="M17.0342 61.0366L16.1503 62.5472L15.2665 61.0366L14.3559 62.5472L13.472 61.0366L12.5882 62.5472L11.7043 61.0366L10.6062 62.9183H12.3739H12.8024H14.1416H14.5701H15.9361H16.3646H18.1323L17.0342 61.0366Z" fill="#009546"/>
<path d="M59.1643 30.611L58.2805 32.1217L57.3966 30.611L56.5128 32.1217L55.6289 30.611L54.7451 32.1217L53.8612 30.611L52.7363 32.4928H54.5308H54.9593H56.2985H56.727H58.0662H58.4947H60.2624L59.1643 30.611Z" fill="#009546"/>
<path d="M71.1631 47.6525L70.2792 49.1632L69.3954 47.6525L68.5116 49.1632L67.6277 47.6525L66.7439 49.1632L65.8332 47.6525L64.7351 49.5342H66.5296H66.9313H68.2973H68.7258H70.065H70.4935H72.2612L71.1631 47.6525Z" fill="#009546"/>
<path d="M85.0637 42.988L84.1799 44.4986L83.296 42.988L82.4122 44.4986L81.5283 42.988L80.6177 44.4986L79.7339 42.988L78.6357 44.8697H80.4302H80.832H82.1979H82.6264H83.9656H84.3941H86.1618L85.0637 42.988Z" fill="#006B40"/>
<path d="M22.8462 67.0528L21.9624 68.5899L21.0517 67.0528L20.1679 68.5899L19.284 67.0528L18.4002 68.5899L17.5163 67.0528L16.4182 68.961H18.1859H18.6144H19.9536H20.3821H21.7481H22.1498H23.9443L22.8462 67.0528Z" fill="#009546"/>
<path d="M35.9163 92.1512L35.0056 93.6883L34.1218 92.1512L33.2379 93.6883L32.3541 92.1512L31.4702 93.6883L30.5864 92.1512L29.4883 94.0329H31.256H31.6845H33.0237H33.4522H34.7914H35.2199H37.0144L35.9163 92.1512Z" fill="#006B40"/>
<path d="M44.8084 64.2964L43.9245 65.8071L43.0407 64.2964L42.1568 65.8071L41.2462 64.2964L40.3623 65.8071L39.4785 64.2964L38.3804 66.1782H40.1481H40.5766H41.9425H42.3711H43.7102H44.1388H45.9065L44.8084 64.2964Z" fill="#006B40"/>
<path d="M34.1218 30.293L33.238 31.8037L32.3541 30.293L31.4703 31.8037L30.5864 30.293L29.6758 31.8037L28.792 30.293L27.6938 32.1747H29.4883H29.8901H31.256H31.6846H33.0237H33.4523H35.2199L34.1218 30.293Z" fill="#006B40"/>
<path d="M69.2883 85.0218C69.2883 87.5131 67.2528 89.5009 64.762 89.5009C62.2443 89.5009 60.2356 87.4866 60.2356 85.0218C60.2356 82.5305 62.2711 80.5428 64.762 80.5428C67.2528 80.5163 69.2883 82.5305 69.2883 85.0218Z" fill="#FFFEFF"/>
<path d="M64.7351 80.5163V89.5009C62.2175 89.5009 60.2087 87.4866 60.2087 85.0218C60.2087 82.5305 62.2443 80.5163 64.7351 80.5163Z" fill="#FEEFE8"/>
<path d="M66.8778 77.4155L63.8513 84.8893L65.619 85.3664L66.8778 77.4155Z" fill="#E54151"/>
<path d="M62.5925 92.8667L65.619 85.3664L63.8513 84.8893L62.5925 92.8667Z" fill="#B24355"/>
</g>
</svg>
