<svg width="120" height="140" viewBox="0 0 120 140" fill="none" xmlns="http://www.w3.org/2000/svg">
<path d="M25.0469 120.594L27.7188 129.852L30.3984 120.594H33.1328C33.1953 122.453 33.2578 124.161 33.3203 125.719C33.3359 126.161 33.3542 126.607 33.375 127.055C33.3958 127.497 33.4167 127.932 33.4375 128.359C33.4583 128.781 33.4792 129.185 33.5 129.57C33.5208 129.951 33.5391 130.299 33.5547 130.617C33.5755 130.935 33.5964 131.214 33.6172 131.453C33.638 131.688 33.6589 131.87 33.6797 132H31.5703L31.3828 123.148L28.875 132H26.5703L24.0469 123.172L23.8359 132H21.7266C21.7422 131.87 21.7604 131.688 21.7812 131.453C21.8021 131.214 21.8203 130.935 21.8359 130.617C21.8568 130.299 21.8776 129.951 21.8984 129.57C21.9193 129.185 21.9401 128.781 21.9609 128.359C21.9818 127.932 22 127.497 22.0156 127.055C22.0365 126.607 22.0573 126.161 22.0781 125.719C22.1406 124.161 22.2057 122.453 22.2734 120.594H25.0469ZM37.9453 128.039C37.9453 128.414 37.9792 128.75 38.0469 129.047C38.1198 129.339 38.224 129.589 38.3594 129.797C38.5 130.005 38.6719 130.164 38.875 130.273C39.0833 130.383 39.3203 130.438 39.5859 130.438C39.8359 130.438 40.0625 130.383 40.2656 130.273C40.4688 130.164 40.6406 130.005 40.7812 129.797C40.9271 129.589 41.0365 129.339 41.1094 129.047C41.1875 128.75 41.2266 128.414 41.2266 128.039C41.2266 127.289 41.0859 126.701 40.8047 126.273C40.5286 125.846 40.1224 125.633 39.5859 125.633C39.3359 125.633 39.1094 125.688 38.9062 125.797C38.7031 125.906 38.5286 126.065 38.3828 126.273C38.2422 126.482 38.1328 126.734 38.0547 127.031C37.9818 127.328 37.9453 127.664 37.9453 128.039ZM35.7578 128.039C35.7578 127.367 35.862 126.773 36.0703 126.258C36.2786 125.737 36.5599 125.302 36.9141 124.953C37.2734 124.599 37.6901 124.331 38.1641 124.148C38.638 123.966 39.138 123.875 39.6641 123.875C40.2161 123.875 40.7214 123.966 41.1797 124.148C41.6432 124.331 42.0391 124.599 42.3672 124.953C42.7005 125.302 42.9583 125.737 43.1406 126.258C43.3229 126.773 43.4141 127.367 43.4141 128.039C43.4141 128.711 43.3099 129.307 43.1016 129.828C42.8932 130.344 42.6094 130.779 42.25 131.133C41.8958 131.482 41.4818 131.747 41.0078 131.93C40.5339 132.107 40.0339 132.195 39.5078 132.195C38.9557 132.195 38.4505 132.107 37.9922 131.93C37.5339 131.747 37.138 131.482 36.8047 131.133C36.4766 130.779 36.2188 130.344 36.0312 129.828C35.849 129.307 35.7578 128.711 35.7578 128.039ZM50.6406 126.234C50.4583 126.146 50.2891 126.073 50.1328 126.016C49.9818 125.953 49.8307 125.904 49.6797 125.867C49.5339 125.826 49.3828 125.797 49.2266 125.781C49.0755 125.76 48.9089 125.75 48.7266 125.75C48.5234 125.75 48.3229 125.805 48.125 125.914C47.9271 126.023 47.75 126.182 47.5938 126.391C47.4427 126.599 47.3203 126.854 47.2266 127.156C47.1328 127.453 47.0859 127.792 47.0859 128.172C47.0859 128.917 47.2083 129.482 47.4531 129.867C47.6979 130.247 48.0703 130.438 48.5703 130.438C48.7786 130.438 48.9844 130.393 49.1875 130.305C49.3958 130.216 49.5911 130.099 49.7734 129.953C49.9557 129.802 50.1224 129.635 50.2734 129.453C50.4245 129.266 50.5469 129.073 50.6406 128.875V126.234ZM52.8281 127.859C52.8281 128.844 52.8828 129.672 52.9922 130.344C53.1068 131.01 53.2474 131.562 53.4141 132H51.2656C51.2344 131.938 51.2005 131.857 51.1641 131.758C51.1328 131.659 51.0964 131.549 51.0547 131.43C51.0182 131.31 50.9792 131.182 50.9375 131.047C50.901 130.906 50.8672 130.768 50.8359 130.633C50.4818 131.138 50.0807 131.526 49.6328 131.797C49.1849 132.062 48.6875 132.195 48.1406 132.195C47.6562 132.195 47.2161 132.107 46.8203 131.93C46.4245 131.747 46.0833 131.492 45.7969 131.164C45.5104 130.831 45.2891 130.432 45.1328 129.969C44.9766 129.5 44.8984 128.979 44.8984 128.406C44.8984 127.714 44.9974 127.089 45.1953 126.531C45.3984 125.974 45.6719 125.5 46.0156 125.109C46.3646 124.714 46.7708 124.409 47.2344 124.195C47.6979 123.982 48.1953 123.875 48.7266 123.875C48.8828 123.875 49.0417 123.893 49.2031 123.93C49.3698 123.966 49.5365 124.016 49.7031 124.078C49.8698 124.141 50.0312 124.214 50.1875 124.297C50.349 124.375 50.5 124.456 50.6406 124.539V122.352C50.6406 121.721 50.625 121.172 50.5938 120.703C50.5677 120.229 50.5182 119.828 50.4453 119.5H52.8281V127.859ZM56.8516 128.484C56.9036 129.161 57.0938 129.651 57.4219 129.953C57.7552 130.25 58.2161 130.398 58.8047 130.398C59.3203 130.398 59.8203 130.341 60.3047 130.227C60.7943 130.107 61.2839 129.901 61.7734 129.609L61.9375 131.414C61.6562 131.555 61.3802 131.674 61.1094 131.773C60.8438 131.872 60.5755 131.953 60.3047 132.016C60.0391 132.078 59.7656 132.122 59.4844 132.148C59.2031 132.18 58.9115 132.195 58.6094 132.195C58.0938 132.195 57.599 132.109 57.125 131.938C56.6562 131.76 56.2422 131.503 55.8828 131.164C55.5234 130.82 55.237 130.396 55.0234 129.891C54.8151 129.385 54.7109 128.799 54.7109 128.133C54.7109 127.487 54.7995 126.904 54.9766 126.383C55.1589 125.857 55.4193 125.409 55.7578 125.039C56.0964 124.664 56.5052 124.378 56.9844 124.18C57.4635 123.977 58.0052 123.875 58.6094 123.875C59.0469 123.875 59.4297 123.93 59.7578 124.039C60.0911 124.143 60.3776 124.289 60.6172 124.477C60.862 124.659 61.0651 124.878 61.2266 125.133C61.3932 125.383 61.5234 125.656 61.6172 125.953C61.7161 126.245 61.7865 126.552 61.8281 126.875C61.8698 127.198 61.8906 127.521 61.8906 127.844V127.984C61.8906 128.042 61.8906 128.102 61.8906 128.164C61.8958 128.227 61.8984 128.286 61.8984 128.344V128.484H56.8516ZM58.5 125.516C58.0469 125.516 57.6875 125.638 57.4219 125.883C57.1615 126.122 56.987 126.521 56.8984 127.078H59.9062C59.9062 126.526 59.7865 126.128 59.5469 125.883C59.3125 125.638 58.9635 125.516 58.5 125.516ZM73.1484 125.984C72.987 125.911 72.8099 125.852 72.6172 125.805C72.4297 125.758 72.2552 125.734 72.0938 125.734C71.7031 125.734 71.3724 125.807 71.1016 125.953C70.8307 126.094 70.6094 126.281 70.4375 126.516C70.2656 126.75 70.1406 127.016 70.0625 127.312C69.9844 127.609 69.9453 127.909 69.9453 128.211C69.9453 128.596 69.987 128.93 70.0703 129.211C70.1589 129.487 70.2734 129.716 70.4141 129.898C70.5599 130.076 70.7266 130.206 70.9141 130.289C71.1068 130.372 71.3047 130.414 71.5078 130.414C71.7839 130.414 72.0625 130.307 72.3438 130.094C72.6302 129.88 72.8984 129.557 73.1484 129.125V125.984ZM73.1484 131.062C72.7422 131.479 72.3542 131.773 71.9844 131.945C71.6146 132.112 71.2474 132.195 70.8828 132.195C70.5234 132.195 70.1589 132.125 69.7891 131.984C69.4193 131.844 69.0833 131.628 68.7812 131.336C68.4792 131.039 68.2318 130.664 68.0391 130.211C67.8516 129.758 67.7578 129.221 67.7578 128.602C67.7578 128.003 67.8359 127.419 67.9922 126.852C68.1484 126.284 68.3906 125.781 68.7188 125.344C69.0469 124.901 69.4661 124.547 69.9766 124.281C70.4922 124.01 71.1068 123.875 71.8203 123.875C72.1172 123.875 72.4167 123.893 72.7188 123.93C73.026 123.961 73.3281 124.005 73.625 124.062C73.9271 124.12 74.2214 124.185 74.5078 124.258C74.7943 124.326 75.0703 124.393 75.3359 124.461V133.172C75.3359 133.484 75.3385 133.766 75.3438 134.016C75.3542 134.271 75.3672 134.505 75.3828 134.719C75.3984 134.932 75.4193 135.128 75.4453 135.305C75.4714 135.487 75.5 135.661 75.5312 135.828H73.1484V131.062ZM83.4219 132C83.3854 131.917 83.3464 131.82 83.3047 131.711C83.263 131.596 83.2214 131.477 83.1797 131.352C83.1432 131.227 83.1068 131.096 83.0703 130.961C83.0391 130.826 83.013 130.69 82.9922 130.555C82.5286 131.091 82.0495 131.5 81.5547 131.781C81.0599 132.057 80.5443 132.195 80.0078 132.195C78.3776 132.195 77.5625 131.076 77.5625 128.836V126.531C77.5625 126.281 77.5599 126.055 77.5547 125.852C77.5547 125.648 77.5495 125.453 77.5391 125.266C77.5286 125.073 77.513 124.878 77.4922 124.68C77.4714 124.482 77.4427 124.266 77.4062 124.031H79.75V128.367C79.75 128.721 79.7656 129.026 79.7969 129.281C79.8333 129.536 79.8932 129.747 79.9766 129.914C80.0599 130.076 80.1693 130.195 80.3047 130.273C80.4401 130.352 80.6068 130.391 80.8047 130.391C80.9818 130.391 81.1693 130.339 81.3672 130.234C81.5703 130.13 81.763 129.997 81.9453 129.836C82.1328 129.669 82.3021 129.49 82.4531 129.297C82.6042 129.104 82.7188 128.917 82.7969 128.734V126.531C82.7969 126.276 82.7943 126.047 82.7891 125.844C82.7891 125.635 82.7839 125.438 82.7734 125.25C82.763 125.062 82.7474 124.872 82.7266 124.68C82.7057 124.487 82.6771 124.271 82.6406 124.031H84.9844V128.484C84.9844 129.245 85.026 129.911 85.1094 130.484C85.1979 131.052 85.3255 131.557 85.4922 132H83.4219ZM87.2969 121.18C87.2969 120.982 87.3307 120.799 87.3984 120.633C87.4661 120.466 87.5599 120.323 87.6797 120.203C87.8047 120.078 87.9505 119.982 88.1172 119.914C88.2839 119.846 88.4661 119.812 88.6641 119.812C88.862 119.812 89.0443 119.846 89.2109 119.914C89.3776 119.982 89.5208 120.078 89.6406 120.203C89.7656 120.323 89.862 120.466 89.9297 120.633C89.9974 120.799 90.0312 120.982 90.0312 121.18C90.0312 121.383 89.9974 121.568 89.9297 121.734C89.862 121.901 89.7656 122.047 89.6406 122.172C89.5208 122.292 89.3776 122.385 89.2109 122.453C89.0443 122.516 88.862 122.547 88.6641 122.547C88.4661 122.547 88.2839 122.516 88.1172 122.453C87.9505 122.385 87.8047 122.292 87.6797 122.172C87.5599 122.047 87.4661 121.901 87.3984 121.734C87.3307 121.568 87.2969 121.383 87.2969 121.18ZM89.7578 124.031V128.289C89.7578 128.539 89.7604 128.836 89.7656 129.18C89.776 129.518 89.7865 129.862 89.7969 130.211C89.8125 130.56 89.8281 130.893 89.8438 131.211C89.8646 131.529 89.888 131.792 89.9141 132H87.5703V127.859C87.5703 127.479 87.5677 127.104 87.5625 126.734C87.5625 126.365 87.5573 126.016 87.5469 125.688C87.5417 125.354 87.5312 125.047 87.5156 124.766C87.5 124.479 87.4792 124.234 87.4531 124.031H89.7578ZM98.6641 124.031V125.156L94.5234 130.32H97.0625C97.3438 130.32 97.6276 130.315 97.9141 130.305C98.2057 130.294 98.4948 130.26 98.7812 130.203V132H91.9062V130.758L95.9688 125.711H93.3516C93.1172 125.711 92.8932 125.716 92.6797 125.727C92.4661 125.737 92.2865 125.771 92.1406 125.828V124.031H98.6641Z" fill="#404040"/>
<path d="M32.0035 98.0906C30.4261 98.1072 28.8572 97.7866 27.3592 97.1416C25.961 96.5425 24.6806 95.551 23.608 94.2368C22.5103 92.867 21.6607 91.195 21.1211 89.3428C20.5275 87.3852 20.2307 85.0827 20.2307 82.4353C20.2307 79.8649 20.5432 77.5916 21.1681 75.6154C21.7552 73.7054 22.6602 71.9893 23.8178 70.5911C25.0085 69.1882 26.4161 68.1349 27.9456 67.5021C29.6819 66.7843 31.495 66.4331 33.3162 66.4619C34.9834 66.4468 36.643 66.756 38.2402 67.3793C39.7717 67.9884 40.9446 68.6651 41.7588 69.4094C42.3452 69.9287 42.8471 70.5939 43.2356 71.367C43.5952 72.1002 43.7749 73.0176 43.7749 74.1192V107.387C43.2812 107.559 42.7799 107.692 42.2739 107.786C41.5759 107.93 40.8703 108.001 40.1636 108C39.5424 108.006 38.9219 107.944 38.3087 107.813C37.8089 107.718 37.3341 107.466 36.9247 107.08C36.5398 106.696 36.2468 106.176 36.08 105.582C35.8898 104.95 35.7946 104.123 35.7946 103.104V97.296C35.2221 97.5944 34.6236 97.7994 34.0125 97.9064C33.3471 98.0297 32.6757 98.0913 32.0035 98.0906ZM35.8489 75.2134C35.5308 75.034 35.2014 74.8908 34.8643 74.7854C34.4337 74.6539 33.9924 74.5914 33.5502 74.5993C31.8618 74.5993 30.5643 75.2419 29.6578 76.5272C28.7513 77.8124 28.298 79.739 28.298 82.3069C28.298 84.9977 28.7356 86.9348 29.6107 88.1183C30.4859 89.3018 31.7225 89.893 33.3205 89.8917C34.384 89.8917 35.2282 89.6064 35.8531 89.0357L35.8489 75.2134Z" fill="#3D3A32"/>
<path d="M46.8713 67.811C47.3565 67.6433 47.8499 67.519 48.3481 67.4388C49.0398 67.3136 49.7373 67.2514 50.4356 67.2527C51.0568 67.2462 51.6773 67.3085 52.2905 67.4388C52.7903 67.5357 53.265 67.7877 53.6745 68.1738C54.0619 68.5621 54.3616 69.0797 54.542 69.6718C54.7446 70.3045 54.8464 71.1301 54.8474 72.1486V85.301C54.8474 86.9721 55.1598 88.1649 55.7848 88.8794C56.4097 89.594 57.3167 89.9506 58.5058 89.9494C59.0974 89.9683 59.6884 89.8857 60.2636 89.7038C60.6266 89.5842 60.9801 89.4204 61.3195 89.2144V67.8147C61.8047 67.6472 62.2981 67.5229 62.7963 67.4425C63.4879 67.3174 64.1854 67.2552 64.8837 67.2564C65.5049 67.2502 66.1254 67.3124 66.7386 67.4425C67.238 67.5394 67.7122 67.7915 68.1212 68.1776C68.5092 68.5651 68.809 69.0829 68.9887 69.6755C69.1923 70.3082 69.2941 71.1338 69.2941 72.1523V90.7477C69.2941 92.7872 68.6377 94.3168 67.325 95.3365C66.1141 96.2937 64.791 96.9852 63.4084 97.3835C61.7854 97.8669 60.1248 98.1029 58.4601 98.0869C56.8863 98.102 55.3176 97.8519 53.7929 97.3425C52.4627 96.9148 51.2103 96.149 50.1074 95.089C49.0678 94.0578 48.2448 92.7008 47.7146 91.1441C47.1524 89.5313 46.8713 87.5843 46.8713 85.3029V67.811Z" fill="#3D3A32"/>
<path d="M72.1035 59.1264C72.091 58.4037 72.1904 57.6851 72.3959 57.0136C72.6013 56.3422 72.9085 55.7317 73.2991 55.2187C74.0963 54.158 75.1517 53.6277 76.4653 53.6277C77.7789 53.6277 78.8348 54.1555 79.6329 55.2112C80.4007 56.2685 80.8286 57.6693 80.8286 59.1255C80.8286 60.5817 80.4007 61.9825 79.6329 63.0398C78.8348 64.103 77.7794 64.6333 76.4667 64.6308C75.154 64.6283 74.0987 64.098 73.3006 63.0398C72.9089 62.5266 72.601 61.9153 72.3952 61.2427C72.1895 60.5702 72.0903 59.8503 72.1035 59.1264ZM80.4519 97.0504C80.1075 97.1323 79.5996 97.2445 78.928 97.3872C78.2534 97.5294 77.5711 97.601 76.8876 97.6012C76.2664 97.6075 75.6459 97.5453 75.0328 97.4151C74.5335 97.3189 74.0593 97.0674 73.6501 96.6819C73.2621 96.2937 72.9623 95.7753 72.7826 95.1821C72.5791 94.5519 72.4773 93.7263 72.4773 92.7053V67.811C72.8207 67.7304 73.3286 67.6187 74.0012 67.476C74.6757 67.3328 75.3581 67.2613 76.0415 67.262C76.6627 67.2558 77.2832 67.318 77.8964 67.4481C78.3958 67.545 78.87 67.7971 79.279 68.1832C79.667 68.5707 79.9668 69.0885 80.1465 69.6811C80.3501 70.3138 80.4519 71.1394 80.4519 72.1579V97.0504Z" fill="#3D3A32"/>
<path d="M84.4385 97.1118C83.9416 96.5469 83.5353 95.8594 83.2428 95.089C82.9374 94.2707 82.7849 93.3697 82.7976 92.4597C82.8011 91.6194 82.9535 90.7915 83.2428 90.0406C83.5412 89.2422 83.9109 88.4927 84.3443 87.8076L92.4116 75.4516H83.7821C83.562 74.904 83.3814 74.3309 83.2428 73.7396C83.0658 73.0078 82.9787 72.2441 82.9845 71.4768C82.9845 70.0502 83.2271 69.0205 83.7122 68.3878C84.1973 67.7552 84.8461 67.4388 85.6584 67.4388H100.432C100.928 68.0035 101.335 68.6894 101.629 69.4578C101.933 70.2766 102.086 71.1773 102.074 72.0872C102.07 72.9275 101.918 73.7552 101.629 74.5063C101.33 75.3043 100.959 76.0538 100.526 76.7393L92.6471 89.0953H101.84C102.059 89.6437 102.239 90.2167 102.38 90.8072C102.555 91.5394 102.642 92.3029 102.636 93.07C102.636 94.4992 102.394 95.5288 101.91 96.159C101.426 96.7892 100.777 97.1056 99.9639 97.1081L84.4385 97.1118Z" fill="#3D3A32"/>
<path d="M36.2397 56.7166L17.6038 43.6517C16.5518 42.8898 15.7545 41.6453 15.3666 40.1597C14.9787 38.6742 15.028 37.0536 15.5049 35.6128L25.4842 6.30831C26.8098 2.41916 29.9959 0.629029 32.5628 2.43032L54.7472 17.9832C57.3155 19.7827 57.9005 24.2115 56.1041 27.775L42.5906 54.6009C41.2251 57.314 38.3971 58.2295 36.2397 56.7166Z" fill="#EB933B"/>
<path d="M34.1668 55.267L15.5309 42.1983C13.375 40.6873 12.4019 37.1034 13.3821 34.1242L23.0846 4.62424C24.3687 0.705311 27.5278 -1.10157 30.0961 0.699728L52.2791 16.2526C54.8474 18.0521 55.4624 22.5013 53.7059 26.0909L40.4663 53.1122C39.8083 54.4265 38.7992 55.3749 37.635 55.7731C36.4709 56.1713 35.2347 55.991 34.1668 55.267Z" fill="#FFC131"/>
<path d="M28.9174 34.3307V28.2253C28.9174 27.9538 29.0001 27.6935 29.1473 27.5016C29.2945 27.3097 29.4941 27.2018 29.7022 27.2018H32.8412C33.465 27.2018 34.0632 26.8788 34.5045 26.3037C34.9457 25.7287 35.1937 24.9487 35.1941 24.1352C35.1941 23.7322 35.1332 23.3332 35.015 22.9609C34.8967 22.5886 34.7234 22.2503 34.505 21.9654C34.2865 21.6804 34.0271 21.4544 33.7416 21.3002C33.4562 21.146 33.1502 21.0666 32.8412 21.0666H28.1327C27.5089 21.0661 26.9108 20.7426 26.4699 20.1672C26.0289 19.5918 25.7812 18.8116 25.7813 17.9981C25.7813 17.1843 26.0291 16.4038 26.4704 15.8283C26.9116 15.2529 27.5101 14.9296 28.1341 14.9296H33.6231C37.8085 14.9296 39.9012 17.6588 39.9012 23.1173V25.1642C39.9012 30.6227 37.8085 33.3519 33.6231 33.3519V34.3437C33.6231 34.6236 33.5379 34.8919 33.3862 35.0898C33.2345 35.2877 33.0287 35.3988 32.8141 35.3988H29.7265C29.6194 35.3988 29.5133 35.3711 29.4145 35.3173C29.3157 35.2635 29.2261 35.1846 29.1508 35.0852C29.0756 34.9858 29.0162 34.868 28.9761 34.7385C28.9361 34.609 28.9161 34.4704 28.9174 34.3307ZM33.626 38.4543V42.5482C33.6262 42.6825 33.6061 42.8155 33.5668 42.9397C33.5275 43.0639 33.4698 43.1767 33.3971 43.2718C33.3243 43.3668 33.2379 43.4422 33.1428 43.4937C33.0476 43.5452 32.9457 43.5716 32.8427 43.5716H29.7036C29.4955 43.5716 29.2959 43.4638 29.1487 43.2719C29.0015 43.0799 28.9189 42.8196 28.9189 42.5482V38.4543C28.9189 38.1829 29.0015 37.9226 29.1487 37.7306C29.2959 37.5387 29.4955 37.4309 29.7036 37.4309H32.8427C33.0502 37.4319 33.2489 37.5402 33.3952 37.7321C33.5416 37.9239 33.6235 38.1837 33.6231 38.4543H33.626Z" fill="white"/>
<path d="M107.512 11.7234L86.3776 2.60523C85.1703 2.1054 83.8635 2.20964 82.7119 2.89764C81.5603 3.58564 80.6463 4.80812 80.148 6.32692L70.193 37.4606C68.8703 41.5973 70.1273 46.0633 73.0466 47.3231L98.206 58.1848C101.118 59.4428 104.136 56.8227 104.925 52.4553L110.871 19.5835C111.464 16.2619 109.957 12.7766 107.512 11.7234Z" fill="#45ABBD"/>
<path d="M105.159 10.7055L84.0248 1.58179C81.5792 0.524833 78.7755 2.14004 77.7382 5.27928L67.4692 36.2865C66.1052 40.4045 67.3266 44.8575 70.2402 46.1136L95.3996 56.9753C98.3117 58.2314 101.364 55.6262 102.196 51.2774L108.455 18.5415C108.751 16.9348 108.577 15.2421 107.967 13.7935C107.358 12.3449 106.357 11.244 105.159 10.7055Z" fill="#51C7DB"/>
<path d="M90.7535 37.5593C91.174 37.5593 91.602 37.5835 92.0377 37.6319L92.3701 37.6709C92.6661 37.7073 92.9427 37.8786 93.1515 38.1545C93.3602 38.4305 93.4877 38.7937 93.5116 39.1801V39.1931C93.5626 39.9834 93.5309 40.7791 93.4174 41.5582V41.5899C93.3668 41.9461 93.2275 42.2707 93.0212 42.5132C92.8148 42.7558 92.5529 42.9028 92.2759 42.9315L91.9378 42.965C91.5345 42.9985 91.1364 43.014 90.7435 43.0116C90.3511 43.0116 89.9531 42.9874 89.5507 42.9483C89.4394 42.9371 89.3267 42.926 89.2111 42.9111C88.9345 42.8782 88.6739 42.7276 88.4694 42.4824C88.2649 42.2373 88.128 41.9112 88.0796 41.5545V41.5247C88.0272 41.1365 87.9939 40.7443 87.9797 40.3506C87.9685 39.9521 87.9761 39.5531 88.0026 39.1559V39.1447C88.0294 38.7617 88.1582 38.403 88.3668 38.1311C88.5753 37.8591 88.8503 37.691 89.144 37.6561L89.4779 37.6207C89.906 37.576 90.334 37.5574 90.7535 37.5593ZM87.2963 16.0871C87.2762 15.656 87.3863 15.2319 87.6032 14.9056C87.82 14.5793 88.1263 14.3768 88.4563 14.3416C88.6775 14.3174 88.8943 14.3006 89.1098 14.2895C89.7224 14.2572 90.2998 14.243 90.842 14.2467C91.3842 14.2504 91.9549 14.2721 92.5542 14.3118C92.7796 14.3267 93.0093 14.349 93.2448 14.3788C93.5714 14.4222 93.8721 14.63 94.0832 14.958C94.2942 15.286 94.3988 15.7084 94.3748 16.1354L93.4517 33.0281C93.4307 33.413 93.3068 33.7759 93.1015 34.0538C92.8963 34.3316 92.6228 34.5067 92.3287 34.5485C92.1861 34.5671 92.0605 34.5838 91.9364 34.5968C91.524 34.6396 91.1331 34.6582 90.7635 34.6564C90.2431 34.6462 89.7234 34.5996 89.2068 34.5168C88.9116 34.4732 88.6377 34.2952 88.4333 34.014C88.2289 33.7328 88.1072 33.3665 88.0896 32.9798L87.2963 16.0871Z" fill="white"/>
<path d="M64.5867 54.3552C74.7805 54.3552 83.0443 42.9872 83.0443 28.9641C83.0443 14.9409 74.7805 3.57288 64.5867 3.57288C54.3929 3.57288 46.1292 14.9409 46.1292 28.9641C46.1292 42.9872 54.3929 54.3552 64.5867 54.3552Z" fill="#86B026"/>
<path d="M61.2281 54.3552C71.4219 54.3552 79.6856 42.9872 79.6856 28.9641C79.6856 14.9409 71.4219 3.57288 61.2281 3.57288C51.0342 3.57288 42.7705 14.9409 42.7705 28.9641C42.7705 42.9872 51.0342 54.3552 61.2281 54.3552Z" fill="#A4D72E"/>
<path d="M50.8421 26.5022C50.2491 27.2846 49.9165 28.3403 49.9165 29.4405C49.9165 30.5406 50.2491 31.5964 50.8421 32.3787L56.5837 39.783C56.8481 40.1311 57.1632 40.4068 57.5105 40.5938C57.8577 40.7808 58.2302 40.8753 58.6059 40.8719C58.9815 40.8684 59.3529 40.767 59.6981 40.5736C60.0433 40.3802 60.3554 40.0988 60.616 39.7458L73.0294 23.2997C73.6091 22.5134 73.9304 21.4631 73.9251 20.3725C73.9198 19.2818 73.5882 18.2369 73.0009 17.4604C72.7354 17.1115 72.4189 16.8355 72.0703 16.6487C71.7217 16.4619 71.3479 16.3681 70.9709 16.3728C70.594 16.3774 70.2217 16.4805 69.8758 16.676C69.53 16.8714 69.2176 17.1552 68.9572 17.5106L59.2462 30.4974C59.1641 30.6099 59.0655 30.6997 58.9563 30.7616C58.8471 30.8235 58.7295 30.8562 58.6104 30.8577C58.4913 30.8593 58.3732 30.8297 58.2631 30.7707C58.153 30.7117 58.053 30.6244 57.9692 30.5142L54.853 26.4947C54.5904 26.1492 54.2778 25.875 53.9333 25.6881C53.5889 25.5012 53.2194 25.4053 52.8464 25.406C52.4733 25.4067 52.104 25.504 51.76 25.6921C51.416 25.8803 51.104 26.1556 50.8421 26.5022Z" fill="white"/>
</svg>
