<svg width="120" height="143" viewBox="0 0 120 143" fill="none" xmlns="http://www.w3.org/2000/svg">

    <defs>
        <clipPath id="clip0_1129_20871">
            <rect width="98" height="88" fill="white" transform="translate(11 20)"/>
        </clipPath>
    </defs>
<path d="M25.0469 123.594L27.7188 132.852L30.3984 123.594H33.1328C33.1953 125.453 33.2578 127.161 33.3203 128.719C33.3359 129.161 33.3542 129.607 33.375 130.055C33.3958 130.497 33.4167 130.932 33.4375 131.359C33.4583 131.781 33.4792 132.185 33.5 132.57C33.5208 132.951 33.5391 133.299 33.5547 133.617C33.5755 133.935 33.5964 134.214 33.6172 134.453C33.638 134.688 33.6589 134.87 33.6797 135H31.5703L31.3828 126.148L28.875 135H26.5703L24.0469 126.172L23.8359 135H21.7266C21.7422 134.87 21.7604 134.688 21.7812 134.453C21.8021 134.214 21.8203 133.935 21.8359 133.617C21.8568 133.299 21.8776 132.951 21.8984 132.57C21.9193 132.185 21.9401 131.781 21.9609 131.359C21.9818 130.932 22 130.497 22.0156 130.055C22.0365 129.607 22.0573 129.161 22.0781 128.719C22.1406 127.161 22.2057 125.453 22.2734 123.594H25.0469ZM37.9453 131.039C37.9453 131.414 37.9792 131.75 38.0469 132.047C38.1198 132.339 38.224 132.589 38.3594 132.797C38.5 133.005 38.6719 133.164 38.875 133.273C39.0833 133.383 39.3203 133.438 39.5859 133.438C39.8359 133.438 40.0625 133.383 40.2656 133.273C40.4688 133.164 40.6406 133.005 40.7812 132.797C40.9271 132.589 41.0365 132.339 41.1094 132.047C41.1875 131.75 41.2266 131.414 41.2266 131.039C41.2266 130.289 41.0859 129.701 40.8047 129.273C40.5286 128.846 40.1224 128.633 39.5859 128.633C39.3359 128.633 39.1094 128.688 38.9062 128.797C38.7031 128.906 38.5286 129.065 38.3828 129.273C38.2422 129.482 38.1328 129.734 38.0547 130.031C37.9818 130.328 37.9453 130.664 37.9453 131.039ZM35.7578 131.039C35.7578 130.367 35.862 129.773 36.0703 129.258C36.2786 128.737 36.5599 128.302 36.9141 127.953C37.2734 127.599 37.6901 127.331 38.1641 127.148C38.638 126.966 39.138 126.875 39.6641 126.875C40.2161 126.875 40.7214 126.966 41.1797 127.148C41.6432 127.331 42.0391 127.599 42.3672 127.953C42.7005 128.302 42.9583 128.737 43.1406 129.258C43.3229 129.773 43.4141 130.367 43.4141 131.039C43.4141 131.711 43.3099 132.307 43.1016 132.828C42.8932 133.344 42.6094 133.779 42.25 134.133C41.8958 134.482 41.4818 134.747 41.0078 134.93C40.5339 135.107 40.0339 135.195 39.5078 135.195C38.9557 135.195 38.4505 135.107 37.9922 134.93C37.5339 134.747 37.138 134.482 36.8047 134.133C36.4766 133.779 36.2188 133.344 36.0312 132.828C35.849 132.307 35.7578 131.711 35.7578 131.039ZM50.6406 129.234C50.4583 129.146 50.2891 129.073 50.1328 129.016C49.9818 128.953 49.8307 128.904 49.6797 128.867C49.5339 128.826 49.3828 128.797 49.2266 128.781C49.0755 128.76 48.9089 128.75 48.7266 128.75C48.5234 128.75 48.3229 128.805 48.125 128.914C47.9271 129.023 47.75 129.182 47.5938 129.391C47.4427 129.599 47.3203 129.854 47.2266 130.156C47.1328 130.453 47.0859 130.792 47.0859 131.172C47.0859 131.917 47.2083 132.482 47.4531 132.867C47.6979 133.247 48.0703 133.438 48.5703 133.438C48.7786 133.438 48.9844 133.393 49.1875 133.305C49.3958 133.216 49.5911 133.099 49.7734 132.953C49.9557 132.802 50.1224 132.635 50.2734 132.453C50.4245 132.266 50.5469 132.073 50.6406 131.875V129.234ZM52.8281 130.859C52.8281 131.844 52.8828 132.672 52.9922 133.344C53.1068 134.01 53.2474 134.562 53.4141 135H51.2656C51.2344 134.938 51.2005 134.857 51.1641 134.758C51.1328 134.659 51.0964 134.549 51.0547 134.43C51.0182 134.31 50.9792 134.182 50.9375 134.047C50.901 133.906 50.8672 133.768 50.8359 133.633C50.4818 134.138 50.0807 134.526 49.6328 134.797C49.1849 135.062 48.6875 135.195 48.1406 135.195C47.6562 135.195 47.2161 135.107 46.8203 134.93C46.4245 134.747 46.0833 134.492 45.7969 134.164C45.5104 133.831 45.2891 133.432 45.1328 132.969C44.9766 132.5 44.8984 131.979 44.8984 131.406C44.8984 130.714 44.9974 130.089 45.1953 129.531C45.3984 128.974 45.6719 128.5 46.0156 128.109C46.3646 127.714 46.7708 127.409 47.2344 127.195C47.6979 126.982 48.1953 126.875 48.7266 126.875C48.8828 126.875 49.0417 126.893 49.2031 126.93C49.3698 126.966 49.5365 127.016 49.7031 127.078C49.8698 127.141 50.0312 127.214 50.1875 127.297C50.349 127.375 50.5 127.456 50.6406 127.539V125.352C50.6406 124.721 50.625 124.172 50.5938 123.703C50.5677 123.229 50.5182 122.828 50.4453 122.5H52.8281V130.859ZM56.8516 131.484C56.9036 132.161 57.0938 132.651 57.4219 132.953C57.7552 133.25 58.2161 133.398 58.8047 133.398C59.3203 133.398 59.8203 133.341 60.3047 133.227C60.7943 133.107 61.2839 132.901 61.7734 132.609L61.9375 134.414C61.6562 134.555 61.3802 134.674 61.1094 134.773C60.8438 134.872 60.5755 134.953 60.3047 135.016C60.0391 135.078 59.7656 135.122 59.4844 135.148C59.2031 135.18 58.9115 135.195 58.6094 135.195C58.0938 135.195 57.599 135.109 57.125 134.938C56.6562 134.76 56.2422 134.503 55.8828 134.164C55.5234 133.82 55.237 133.396 55.0234 132.891C54.8151 132.385 54.7109 131.799 54.7109 131.133C54.7109 130.487 54.7995 129.904 54.9766 129.383C55.1589 128.857 55.4193 128.409 55.7578 128.039C56.0964 127.664 56.5052 127.378 56.9844 127.18C57.4635 126.977 58.0052 126.875 58.6094 126.875C59.0469 126.875 59.4297 126.93 59.7578 127.039C60.0911 127.143 60.3776 127.289 60.6172 127.477C60.862 127.659 61.0651 127.878 61.2266 128.133C61.3932 128.383 61.5234 128.656 61.6172 128.953C61.7161 129.245 61.7865 129.552 61.8281 129.875C61.8698 130.198 61.8906 130.521 61.8906 130.844V130.984C61.8906 131.042 61.8906 131.102 61.8906 131.164C61.8958 131.227 61.8984 131.286 61.8984 131.344V131.484H56.8516ZM58.5 128.516C58.0469 128.516 57.6875 128.638 57.4219 128.883C57.1615 129.122 56.987 129.521 56.8984 130.078H59.9062C59.9062 129.526 59.7865 129.128 59.5469 128.883C59.3125 128.638 58.9635 128.516 58.5 128.516ZM73.1484 128.984C72.987 128.911 72.8099 128.852 72.6172 128.805C72.4297 128.758 72.2552 128.734 72.0938 128.734C71.7031 128.734 71.3724 128.807 71.1016 128.953C70.8307 129.094 70.6094 129.281 70.4375 129.516C70.2656 129.75 70.1406 130.016 70.0625 130.312C69.9844 130.609 69.9453 130.909 69.9453 131.211C69.9453 131.596 69.987 131.93 70.0703 132.211C70.1589 132.487 70.2734 132.716 70.4141 132.898C70.5599 133.076 70.7266 133.206 70.9141 133.289C71.1068 133.372 71.3047 133.414 71.5078 133.414C71.7839 133.414 72.0625 133.307 72.3438 133.094C72.6302 132.88 72.8984 132.557 73.1484 132.125V128.984ZM73.1484 134.062C72.7422 134.479 72.3542 134.773 71.9844 134.945C71.6146 135.112 71.2474 135.195 70.8828 135.195C70.5234 135.195 70.1589 135.125 69.7891 134.984C69.4193 134.844 69.0833 134.628 68.7812 134.336C68.4792 134.039 68.2318 133.664 68.0391 133.211C67.8516 132.758 67.7578 132.221 67.7578 131.602C67.7578 131.003 67.8359 130.419 67.9922 129.852C68.1484 129.284 68.3906 128.781 68.7188 128.344C69.0469 127.901 69.4661 127.547 69.9766 127.281C70.4922 127.01 71.1068 126.875 71.8203 126.875C72.1172 126.875 72.4167 126.893 72.7188 126.93C73.026 126.961 73.3281 127.005 73.625 127.062C73.9271 127.12 74.2214 127.185 74.5078 127.258C74.7943 127.326 75.0703 127.393 75.3359 127.461V136.172C75.3359 136.484 75.3385 136.766 75.3438 137.016C75.3542 137.271 75.3672 137.505 75.3828 137.719C75.3984 137.932 75.4193 138.128 75.4453 138.305C75.4714 138.487 75.5 138.661 75.5312 138.828H73.1484V134.062ZM83.4219 135C83.3854 134.917 83.3464 134.82 83.3047 134.711C83.263 134.596 83.2214 134.477 83.1797 134.352C83.1432 134.227 83.1068 134.096 83.0703 133.961C83.0391 133.826 83.013 133.69 82.9922 133.555C82.5286 134.091 82.0495 134.5 81.5547 134.781C81.0599 135.057 80.5443 135.195 80.0078 135.195C78.3776 135.195 77.5625 134.076 77.5625 131.836V129.531C77.5625 129.281 77.5599 129.055 77.5547 128.852C77.5547 128.648 77.5495 128.453 77.5391 128.266C77.5286 128.073 77.513 127.878 77.4922 127.68C77.4714 127.482 77.4427 127.266 77.4062 127.031H79.75V131.367C79.75 131.721 79.7656 132.026 79.7969 132.281C79.8333 132.536 79.8932 132.747 79.9766 132.914C80.0599 133.076 80.1693 133.195 80.3047 133.273C80.4401 133.352 80.6068 133.391 80.8047 133.391C80.9818 133.391 81.1693 133.339 81.3672 133.234C81.5703 133.13 81.763 132.997 81.9453 132.836C82.1328 132.669 82.3021 132.49 82.4531 132.297C82.6042 132.104 82.7188 131.917 82.7969 131.734V129.531C82.7969 129.276 82.7943 129.047 82.7891 128.844C82.7891 128.635 82.7839 128.438 82.7734 128.25C82.763 128.062 82.7474 127.872 82.7266 127.68C82.7057 127.487 82.6771 127.271 82.6406 127.031H84.9844V131.484C84.9844 132.245 85.026 132.911 85.1094 133.484C85.1979 134.052 85.3255 134.557 85.4922 135H83.4219ZM87.2969 124.18C87.2969 123.982 87.3307 123.799 87.3984 123.633C87.4661 123.466 87.5599 123.323 87.6797 123.203C87.8047 123.078 87.9505 122.982 88.1172 122.914C88.2839 122.846 88.4661 122.812 88.6641 122.812C88.862 122.812 89.0443 122.846 89.2109 122.914C89.3776 122.982 89.5208 123.078 89.6406 123.203C89.7656 123.323 89.862 123.466 89.9297 123.633C89.9974 123.799 90.0312 123.982 90.0312 124.18C90.0312 124.383 89.9974 124.568 89.9297 124.734C89.862 124.901 89.7656 125.047 89.6406 125.172C89.5208 125.292 89.3776 125.385 89.2109 125.453C89.0443 125.516 88.862 125.547 88.6641 125.547C88.4661 125.547 88.2839 125.516 88.1172 125.453C87.9505 125.385 87.8047 125.292 87.6797 125.172C87.5599 125.047 87.4661 124.901 87.3984 124.734C87.3307 124.568 87.2969 124.383 87.2969 124.18ZM89.7578 127.031V131.289C89.7578 131.539 89.7604 131.836 89.7656 132.18C89.776 132.518 89.7865 132.862 89.7969 133.211C89.8125 133.56 89.8281 133.893 89.8438 134.211C89.8646 134.529 89.888 134.792 89.9141 135H87.5703V130.859C87.5703 130.479 87.5677 130.104 87.5625 129.734C87.5625 129.365 87.5573 129.016 87.5469 128.688C87.5417 128.354 87.5312 128.047 87.5156 127.766C87.5 127.479 87.4792 127.234 87.4531 127.031H89.7578ZM98.6641 127.031V128.156L94.5234 133.32H97.0625C97.3438 133.32 97.6276 133.315 97.9141 133.305C98.2057 133.294 98.4948 133.26 98.7812 133.203V135H91.9062V133.758L95.9688 128.711H93.3516C93.1172 128.711 92.8932 128.716 92.6797 128.727C92.4661 128.737 92.2865 128.771 92.1406 128.828V127.031H98.6641Z" fill="#404040"/>
<g clip-path="url(#clip0_1129_20871)">
<path d="M30.0047 99.926C28.4272 99.9395 26.8582 99.6783 25.3602 99.1527C23.962 98.6646 22.6815 97.8566 21.6089 96.7858C20.5111 95.6697 19.6614 94.3073 19.1218 92.7981C18.5282 91.203 18.2314 89.3269 18.2314 87.1698C18.2314 85.0753 18.5439 83.223 19.1689 81.6127C19.756 80.0565 20.661 78.6582 21.8186 77.5189C23.0094 76.3758 24.4171 75.5175 25.9466 75.0019C27.6829 74.417 29.4961 74.1309 31.3174 74.1543C32.9847 74.142 34.6443 74.394 36.2416 74.9018C37.7731 75.3981 38.946 75.9496 39.7603 76.556C40.3467 76.9791 40.8486 77.5212 41.2371 78.1511C41.5967 78.7485 41.7765 79.4961 41.7765 80.3937V107.501C41.2827 107.641 40.7814 107.75 40.2754 107.826C39.5774 107.943 38.8717 108.001 38.1651 108C37.5438 108.005 36.9233 107.955 36.3101 107.848C35.8102 107.77 35.3354 107.566 34.926 107.251C34.5411 106.938 34.2481 106.514 34.0813 106.03C33.891 105.515 33.7959 104.842 33.7959 104.011V99.2785C33.2234 99.5217 32.6248 99.6887 32.0137 99.7759C31.3482 99.8764 30.6769 99.9266 30.0047 99.926ZM33.8501 81.2852C33.532 81.1391 33.2026 81.0224 32.8656 80.9365C32.435 80.8293 31.9937 80.7784 31.5514 80.7849C29.8629 80.7849 28.5654 81.3085 27.6589 82.3557C26.7523 83.4029 26.2991 84.9727 26.2991 87.0652C26.2991 89.2577 26.7366 90.8361 27.6118 91.8004C28.487 92.7647 29.7236 93.2464 31.3217 93.2454C32.3852 93.2454 33.2295 93.0129 33.8544 92.5479L33.8501 81.2852Z" fill="#3D3A32"/>
<path d="M44.8728 75.2536C45.358 75.117 45.8514 75.0157 46.3496 74.9503C47.0413 74.8483 47.7388 74.7977 48.4372 74.7987C49.0584 74.7934 49.6789 74.8442 50.2921 74.9503C50.792 75.0293 51.2667 75.2347 51.6762 75.5493C52.0636 75.8656 52.3633 76.2873 52.5437 76.7698C52.7464 77.2854 52.8481 77.9581 52.8491 78.788V89.5048C52.8491 90.8664 53.1616 91.8383 53.7866 92.4206C54.4115 93.0028 55.3186 93.2934 56.5076 93.2924C57.0993 93.3078 57.6904 93.2405 58.2656 93.0923C58.6285 92.9948 58.982 92.8613 59.3215 92.6935V75.2566C59.8067 75.1202 60.3001 75.0189 60.7983 74.9534C61.49 74.8514 62.1875 74.8007 62.8858 74.8018C63.5071 74.7966 64.1276 74.8473 64.7408 74.9534C65.2402 75.0323 65.7144 75.2377 66.1234 75.5523C66.5114 75.8681 66.8113 76.29 66.991 76.7729C67.1945 77.2884 67.2963 77.9611 67.2963 78.791V93.9429C67.2963 95.6047 66.64 96.851 65.3272 97.6819C64.1163 98.4618 62.7931 99.0253 61.4104 99.3498C59.7874 99.7437 58.1268 99.936 56.462 99.9229C54.8881 99.9353 53.3193 99.7315 51.7946 99.3164C50.4644 98.9679 49.2119 98.3439 48.109 97.4803C47.0694 96.64 46.2463 95.5343 45.7161 94.2658C45.1539 92.9517 44.8728 91.3652 44.8728 89.5063V75.2536Z" fill="#3D3A32"/>
<path d="M70.1059 68.1773C70.0934 67.5883 70.1929 67.0028 70.3983 66.4557C70.6038 65.9086 70.911 65.4111 71.3016 64.9931C72.0988 64.1289 73.1542 63.6968 74.4679 63.6968C75.7816 63.6968 76.8375 64.1269 77.6356 64.9871C78.4034 65.8486 78.8313 66.99 78.8313 68.1765C78.8313 69.363 78.4034 70.5044 77.6356 71.3659C76.8375 72.2322 75.7821 72.6643 74.4693 72.6623C73.1566 72.6603 72.1012 72.2282 71.3031 71.3659C70.9114 70.9477 70.6034 70.4497 70.3977 69.9017C70.1919 69.3537 70.0927 68.7671 70.1059 68.1773ZM78.4546 99.0784C78.1103 99.1451 77.6023 99.2366 76.9307 99.3528C76.256 99.4687 75.5737 99.527 74.8903 99.5272C74.269 99.5324 73.6485 99.4817 73.0353 99.3756C72.536 99.2972 72.0618 99.0923 71.6526 98.7782C71.2646 98.4618 70.9648 98.0394 70.7851 97.5561C70.5815 97.0426 70.4797 96.3699 70.4797 95.538V75.2536C70.8231 75.1879 71.3311 75.0969 72.0037 74.9807C72.6782 74.864 73.3606 74.8057 74.0441 74.8063C74.6653 74.8012 75.2859 74.8519 75.8991 74.9579C76.3985 75.0368 76.8727 75.2423 77.2817 75.5568C77.6697 75.8726 77.9696 76.2945 78.1493 76.7774C78.3528 77.2929 78.4546 77.9657 78.4546 78.7955V99.0784Z" fill="#3D3A32"/>
<path d="M82.4415 99.1284C81.9446 98.6681 81.5382 98.108 81.2457 97.4803C80.9404 96.8134 80.7878 96.0793 80.8005 95.3378C80.8041 94.6531 80.9564 93.9785 81.2457 93.3667C81.5441 92.7162 81.9139 92.1054 82.3473 91.5472L90.4149 81.4793H81.7851C81.5649 81.0331 81.3844 80.5661 81.2457 80.0844C81.0688 79.4881 80.9816 78.8658 80.9875 78.2406C80.9875 77.0781 81.23 76.2392 81.7152 75.7236C82.2003 75.2081 82.8491 74.9503 83.6615 74.9503H98.4354C98.9317 75.4104 99.3384 75.9693 99.6326 76.5955C99.9371 77.2626 100.09 77.9966 100.078 78.7379C100.074 79.4226 99.9215 80.0971 99.6326 80.7091C99.3331 81.3593 98.963 81.97 98.5296 82.5286L90.6503 92.5964H99.8438C100.062 93.0433 100.243 93.5102 100.383 93.9914C100.559 94.588 100.645 95.2101 100.64 95.8351C100.64 96.9996 100.398 97.8386 99.9137 98.3521C99.4295 98.8656 98.7807 99.1234 97.9674 99.1254L82.4415 99.1284Z" fill="#3D3A32"/>
<path d="M34.2412 66.2137L15.6046 55.5681C14.5526 54.9474 13.7552 53.9333 13.3673 52.7228C12.9795 51.5124 13.0288 50.1919 13.5057 49.018L23.4853 25.1401C24.8109 21.9711 27.9972 20.5125 30.5641 21.9802L52.7494 34.653C55.3178 36.1192 55.9028 39.7279 54.1063 42.6315L40.5923 64.4898C39.2268 66.7004 36.3987 67.4464 34.2412 66.2137Z" fill="#EB933B"/>
<path d="M32.1681 65.0325L13.5315 54.3839C11.3755 53.1527 10.4023 50.2324 11.3826 47.8049L21.0854 23.7678C22.3696 20.5746 25.5288 19.1024 28.0972 20.5701L50.281 33.2429C52.8494 34.7091 53.4644 38.3344 51.7079 41.2593L38.4678 63.2767C37.8098 64.3476 36.8006 65.1204 35.6364 65.4449C34.4722 65.7694 33.236 65.6224 32.1681 65.0325Z" fill="#FFC131"/>
<path d="M26.9183 47.9733V42.9984C26.9183 42.7773 27.001 42.5652 27.1481 42.4088C27.2953 42.2524 27.4949 42.1645 27.7031 42.1645H30.8422C31.466 42.1645 32.0643 41.9013 32.5055 41.4327C32.9467 40.9642 33.1948 40.3286 33.1952 39.6657C33.1952 39.3374 33.1343 39.0123 33.016 38.7089C32.8978 38.4056 32.7245 38.1299 32.506 37.8978C32.2875 37.6656 32.0281 37.4814 31.7426 37.3558C31.4572 37.2301 31.1512 37.1654 30.8422 37.1654H26.1335C25.5097 37.165 24.9116 36.9014 24.4706 36.4326C24.0297 35.9637 23.782 35.328 23.782 34.6651C23.782 34.002 24.0299 33.3661 24.4711 32.8972C24.9124 32.4283 25.5109 32.1649 26.1349 32.1649H31.6242C35.8097 32.1649 37.9025 34.3887 37.9025 38.8363V40.5042C37.9025 44.9519 35.8097 47.1757 31.6242 47.1757V47.9839C31.6242 48.2119 31.5389 48.4305 31.3872 48.5918C31.2355 48.753 31.0297 48.8436 30.8151 48.8436H27.7273C27.6202 48.8436 27.5142 48.821 27.4154 48.7771C27.3166 48.7333 27.2269 48.669 27.1517 48.588C27.0764 48.5071 27.017 48.411 26.977 48.3055C26.9369 48.2 26.917 48.087 26.9183 47.9733ZM31.627 51.3333V54.669C31.6272 54.7784 31.6071 54.8869 31.5678 54.988C31.5285 55.0892 31.4708 55.1811 31.3981 55.2586C31.3253 55.3361 31.2389 55.3975 31.1438 55.4394C31.0486 55.4814 30.9466 55.5029 30.8436 55.5029H27.7045C27.4964 55.5029 27.2967 55.4151 27.1496 55.2587C27.0024 55.1023 26.9197 54.8902 26.9197 54.669V51.3333C26.9197 51.1121 27.0024 50.9 27.1496 50.7436C27.2967 50.5872 27.4964 50.4993 27.7045 50.4993H30.8436C31.0512 50.5001 31.2499 50.5884 31.3962 50.7447C31.5426 50.9011 31.6245 51.1127 31.6242 51.3333H31.627Z" fill="white"/>
<path d="M105.515 29.5524L84.3804 22.1227C83.173 21.7155 81.8662 21.8004 80.7145 22.361C79.5629 22.9216 78.6489 23.9177 78.1506 25.1552L68.1952 50.5236C66.8725 53.8942 68.1295 57.5332 71.049 58.5597L96.2093 67.41C99.1215 68.435 102.139 66.3002 102.928 62.7415L108.874 35.957C109.468 33.2505 107.961 30.4106 105.515 29.5524Z" fill="#45ABBD"/>
<path d="M103.163 28.723L82.0276 21.2888C79.5819 20.4276 76.7781 21.7437 75.7408 24.3016L65.4715 49.5668C64.1074 52.9223 65.3288 56.5507 68.2425 57.5741L93.4028 66.4245C96.315 67.448 99.3672 65.3252 100.199 61.7817L106.459 35.1079C106.754 33.7987 106.58 32.4195 105.971 31.2391C105.362 30.0588 104.36 29.1618 103.163 28.723Z" fill="#51C7DB"/>
<path d="M88.7568 50.6039C89.1773 50.6039 89.6053 50.6237 90.041 50.6631L90.3735 50.6949C90.6694 50.7246 90.9461 50.8641 91.1549 51.089C91.3636 51.3139 91.4911 51.6097 91.515 51.9246V51.9352C91.566 52.5792 91.5343 53.2275 91.4208 53.8624V53.8881C91.3702 54.1784 91.2309 54.4429 91.0246 54.6405C90.8182 54.8381 90.5562 54.9579 90.2793 54.9814L89.9411 55.0086C89.5378 55.0359 89.1397 55.0486 88.7468 55.0466C88.3544 55.0466 87.9563 55.0268 87.5539 54.995C87.4426 54.9859 87.3299 54.9768 87.2143 54.9647C86.9377 54.9379 86.6771 54.8152 86.4726 54.6154C86.2681 54.4157 86.1312 54.15 86.0828 53.8593V53.8351C86.0304 53.5187 85.9971 53.1992 85.9829 52.8783C85.9717 52.5537 85.9793 52.2286 86.0058 51.9049V51.8958C86.0326 51.5837 86.1614 51.2914 86.37 51.0698C86.5785 50.8482 86.8536 50.7113 87.1473 50.6828L87.4812 50.654C87.9092 50.6176 88.3373 50.6024 88.7568 50.6039ZM85.2995 33.108C85.2793 32.7568 85.3895 32.4112 85.6064 32.1453C85.8232 31.8794 86.1295 31.7144 86.4595 31.6857C86.6807 31.666 86.8976 31.6524 87.113 31.6433C87.7256 31.617 88.3031 31.6054 88.8453 31.6084C89.3875 31.6114 89.9582 31.6291 90.5575 31.6615C90.783 31.6736 91.0127 31.6918 91.2482 31.716C91.5748 31.7514 91.8755 31.9207 92.0866 32.188C92.2976 32.4553 92.4022 32.7994 92.3782 33.1474L91.455 46.9119C91.4341 47.2254 91.3101 47.5212 91.1049 47.7476C90.8997 47.974 90.6262 48.1166 90.3321 48.1507C90.1894 48.1658 90.0638 48.1795 89.9397 48.1901C89.5273 48.225 89.1364 48.2401 88.7668 48.2386C88.2463 48.2303 87.7267 48.1923 87.2101 48.1249C86.9149 48.0894 86.6409 47.9443 86.4365 47.7152C86.2321 47.486 86.1104 47.1876 86.0928 46.8725L85.2995 33.108Z" fill="white"/>
<path d="M62.5891 64.2896C72.7832 64.2896 81.0473 55.0267 81.0473 43.6004C81.0473 32.1741 72.7832 22.9112 62.5891 22.9112C52.3949 22.9112 44.1309 32.1741 44.1309 43.6004C44.1309 55.0267 52.3949 64.2896 62.5891 64.2896Z" fill="#86B026"/>
<path d="M59.2302 64.2896C69.4244 64.2896 77.6884 55.0267 77.6884 43.6004C77.6884 32.1741 69.4244 22.9112 59.2302 22.9112C49.036 22.9112 40.772 32.1741 40.772 43.6004C40.772 55.0267 49.036 64.2896 59.2302 64.2896Z" fill="#A4D72E"/>
<path d="M48.8439 41.5944C48.2508 42.2319 47.9182 43.0922 47.9182 43.9886C47.9182 44.885 48.2508 45.7452 48.8439 46.3827L54.5857 52.4159C54.8501 52.6995 55.1652 52.9242 55.5124 53.0765C55.8597 53.2289 56.2322 53.3059 56.6079 53.3031C56.9836 53.3003 57.355 53.2176 57.7002 53.0601C58.0454 52.9025 58.3575 52.6732 58.618 52.3855L71.032 38.9849C71.6116 38.3443 71.933 37.4885 71.9277 36.5998C71.9223 35.7111 71.5907 34.8597 71.0034 34.227C70.7379 33.9427 70.4214 33.7178 70.0728 33.5656C69.7241 33.4134 69.3503 33.3369 68.9734 33.3408C68.5965 33.3446 68.2241 33.4286 67.8782 33.5878C67.5324 33.7471 67.22 33.9783 66.9596 34.2679L57.2482 44.8498C57.1661 44.9414 57.0675 45.0146 56.9583 45.065C56.8491 45.1155 56.7315 45.1421 56.6124 45.1434C56.4934 45.1447 56.3752 45.1205 56.2651 45.0725C56.155 45.0244 56.055 44.9533 55.9712 44.8634L52.8549 41.5883C52.5922 41.3068 52.2796 41.0833 51.9352 40.9311C51.5907 40.7788 51.2213 40.7007 50.8482 40.7012C50.4751 40.7018 50.1058 40.781 49.7618 40.9344C49.4177 41.0877 49.1057 41.312 48.8439 41.5944Z" fill="white"/>
</g>
</svg>
