<svg width="24" height="77" viewBox="0 0 24 77" fill="none" xmlns="http://www.w3.org/2000/svg">
<path d="M22.0394 27.2143C22.6415 26.7453 23.1304 26.1469 23.4697 25.4635C23.8091 24.7801 23.9904 24.0291 24.0001 23.2661V18.752C23.9993 16.2301 23.204 13.7726 21.7273 11.7281C20.2505 9.68356 18.1672 8.15586 15.773 7.36173V0.852539H8.2273V7.36173C5.83306 8.15586 3.74976 9.68356 2.273 11.7281C0.796237 13.7726 0.00100326 16.2301 0.000128228 18.752V23.2661C0.00984203 24.0291 0.19111 24.7801 0.530508 25.4635C0.869905 26.1469 1.35874 26.7453 1.96081 27.2143C2.32739 27.5081 2.62347 27.8803 2.82729 28.3035C3.03111 28.7268 3.13749 29.1903 3.13862 29.66C3.13749 30.1297 3.03111 30.5932 2.82729 31.0165C2.62347 31.4397 2.32739 31.8119 1.96081 32.1058C1.35771 32.5746 0.868197 33.1734 0.528721 33.8576C0.189246 34.5418 0.00856231 35.2937 0.000128228 36.0574V71.0177C-0.00910619 72.3009 0.480745 73.5374 1.36629 74.4664C2.25183 75.3954 3.46377 75.944 4.74631 75.9965C5.39937 76.0133 6.04918 75.8992 6.65742 75.6609C7.26567 75.4226 7.82002 75.065 8.28778 74.6091C8.75554 74.1532 9.12725 73.6082 9.38097 73.0064C9.6347 72.4046 9.76531 71.7581 9.76509 71.105H14.2352C14.2349 71.7581 14.3656 72.4046 14.6193 73.0064C14.873 73.6082 15.2447 74.1532 15.7125 74.6091C16.1802 75.065 16.7346 75.4226 17.3428 75.6609C17.9511 75.8992 18.6009 76.0133 19.254 75.9965C20.5365 75.944 21.7484 75.3954 22.634 74.4664C23.5195 73.5374 24.0094 72.3009 24.0001 71.0177V36.0574C23.9912 35.2943 23.8102 34.543 23.4708 33.8595C23.1313 33.1759 22.6421 32.5777 22.0394 32.1093C21.6746 31.8145 21.3803 31.4419 21.1781 31.0187C20.976 30.5955 20.871 30.1325 20.871 29.6635C20.871 29.1945 20.976 28.7315 21.1781 28.3083C21.3803 27.8851 21.6746 27.5125 22.0394 27.2177V27.2143Z" fill="#C1E5CF"/>
<path d="M3.87891 63.8584V71.1188C5.97589 71.1188 7.28301 76.0103 12.0012 76.0103C16.7194 76.0103 18.0126 71.1188 20.1201 71.1188V63.8584H3.87891Z" fill="#C1E5CF"/>
<path d="M15.7727 7.36173V0.852539H9.50965V7.36173C6.98978 8.94448 5.19336 13.4447 5.19336 18.752C5.19429 19.9489 5.67032 21.0966 6.51694 21.9429C7.36357 22.7893 8.51157 23.2652 9.70887 23.2661H23.9998V18.752C23.999 16.2301 23.2037 13.7726 21.727 11.7281C20.2502 9.68356 18.1669 8.15586 15.7727 7.36173Z" fill="#E1F4F0"/>
<path d="M22.1058 32.1615C21.6904 31.8456 21.3601 31.4314 21.1447 30.9561H8.26224C7.8662 30.9564 7.47652 31.0556 7.12861 31.2448C6.7807 31.4339 6.48559 31.707 6.2701 32.0392L6.22467 32.1091C5.51679 33.3021 5.15947 34.6704 5.19365 36.0572V63.9562C5.19365 65.4389 5.7828 66.8608 6.8315 67.9092C7.88019 68.9576 9.30253 69.5465 10.7856 69.5465H20.2989C20.785 69.5465 21.2663 69.4508 21.7153 69.2649C22.1644 69.0789 22.5724 68.8064 22.9161 68.4628C23.2597 68.1192 23.5324 67.7113 23.7184 67.2624C23.9044 66.8135 24.0001 66.3324 24.0001 65.8465V36.0572C24.0048 35.306 23.8363 34.5639 23.5078 33.8883C23.1793 33.2127 22.6996 32.6218 22.1058 32.1615Z" fill="#E1F4F0"/>
<path d="M16.2946 0H7.71094V4.13332H16.2946V0Z" fill="#3C8E8A"/>
<path d="M16.776 4.77637H7.2207V5.53455H16.776V4.77637Z" fill="#C1E5CF"/>
<path d="M15.7742 4.1333H8.22852V5.53437H15.7742V4.1333Z" fill="#C1E5CF"/>
<path d="M18.7855 21.8265C18.6967 21.827 18.6086 21.8099 18.5263 21.7762C18.4441 21.7425 18.3693 21.6929 18.3063 21.6303C18.2433 21.5676 18.1933 21.4931 18.1592 21.4111C18.1251 21.329 18.1075 21.2411 18.1075 21.1522V18.7519C18.1075 15.1776 17.2443 11.8793 15.7274 9.6956C15.677 9.62265 15.6413 9.54047 15.6226 9.45375C15.6039 9.36704 15.6025 9.27748 15.6184 9.19021C15.6505 9.01395 15.7513 8.85766 15.8987 8.75573C16.0461 8.6538 16.2279 8.61457 16.4042 8.64668C16.5806 8.67879 16.7369 8.7796 16.8388 8.92693C18.499 11.3308 19.4496 14.9085 19.4496 18.7519V21.1522C19.4496 21.3292 19.38 21.4992 19.2558 21.6254C19.1315 21.7515 18.9626 21.8238 18.7855 21.8265Z" fill="white"/>
<path d="M18.7862 67.8103C18.6064 67.8103 18.4339 67.7389 18.3067 67.6118C18.1796 67.4846 18.1082 67.3122 18.1082 67.1325V36.0574C18.1082 34.5236 17.8635 33.4405 17.3323 32.6544C17.2827 32.5809 17.2481 32.4985 17.2304 32.4117C17.2127 32.3249 17.2123 32.2355 17.2291 32.1485C17.2632 31.9729 17.3657 31.8181 17.514 31.718C17.6623 31.6179 17.8443 31.5808 18.02 31.6149C18.1069 31.6318 18.1897 31.6656 18.2636 31.7145C18.3375 31.7633 18.4011 31.8262 18.4507 31.8997C19.1497 32.9199 19.4607 34.2406 19.4607 36.0574V67.1325C19.4607 67.3116 19.3898 67.4835 19.2634 67.6105C19.137 67.7375 18.9654 67.8094 18.7862 67.8103Z" fill="white"/>
<path d="M16.2935 0H9.50977V4.13332H16.2935V0Z" fill="#5FB2AC"/>
</svg>
