<svg width="82" height="67" viewBox="0 0 82 67" fill="none" xmlns="http://www.w3.org/2000/svg">
<path d="M48.2291 38.774L7.49399 36.4143C6.29845 36.3436 5.3546 35.0379 5.29167 33.3704L4.0332 0.0917969L50.2741 2.76604L48.2291 38.774Z" fill="#80BC40"/>
<path d="M67.0288 39.8511L48.2305 38.7736L50.2755 2.76562L73.8718 4.12634L69.7031 36.8465C69.4671 38.632 68.3188 39.9298 67.0288 39.8511Z" fill="#5E8E25"/>
<path d="M3.82049 0.0902791L50.2757 2.76073L50.0951 5.90172L3.63994 3.23127C3.22341 3.20732 2.83346 3.0189 2.55587 2.70744C2.27828 2.39599 2.13578 1.98701 2.15972 1.57049C2.18366 1.15397 2.37209 0.764023 2.68354 0.486429C2.995 0.208835 3.40397 0.0663356 3.82049 0.0902791Z" fill="#80BC40"/>
<path d="M73.8924 7.26617L50.0994 5.89844L50.28 2.75745L74.073 4.12518C74.4895 4.14912 74.8794 4.33755 75.157 4.649C75.4346 4.96046 75.5771 5.36943 75.5532 5.78595C75.5292 6.20247 75.3408 6.59242 75.0293 6.87002C74.7179 7.14761 74.3089 7.29011 73.8924 7.26617Z" fill="#5E8E25"/>
<path d="M4.27816 3.168L4.23438 3.92969L50.0614 6.56403L50.1052 5.80234L4.27816 3.168Z" fill="#5E8E25"/>
<path d="M50.1024 5.79789L50.0586 6.55957L73.2548 7.89299L73.2986 7.13131L50.1024 5.79789Z" fill="#407016"/>
<path d="M41.1535 11.6338L39.8672 33.9424L40.6289 33.9863L41.9152 11.6777L41.1535 11.6338Z" fill="#5E8E25"/>
<path d="M12.4972 9.98922L11.2109 32.2979L11.9726 32.3418L13.2589 10.0331L12.4972 9.98922Z" fill="#5E8E25"/>
<path d="M19.6574 10.4023L18.3711 32.7109L19.1328 32.7549L20.4191 10.4462L19.6574 10.4023Z" fill="#5E8E25"/>
<path d="M26.8176 10.8154L25.5312 33.124L26.2929 33.1679L27.5792 10.8593L26.8176 10.8154Z" fill="#5E8E25"/>
<path d="M33.9933 11.2285L32.707 33.5371L33.4687 33.581L34.755 11.2724L33.9933 11.2285Z" fill="#5E8E25"/>
<path d="M55.4504 12.4599L54.1641 34.7686L54.9257 34.8125L56.2121 12.5038L55.4504 12.4599Z" fill="#407016"/>
<path d="M66.6398 13.1054L65.3535 35.4141L66.1152 35.458L67.4015 13.1494L66.6398 13.1054Z" fill="#407016"/>
<path d="M61.05 12.7871L59.7637 35.0957L60.5254 35.1396L61.8117 12.831L61.05 12.7871Z" fill="#407016"/>
<path d="M58.6355 58.8703L14.2745 66.0436C12.9688 66.256 11.6395 65.084 11.1755 63.2986L1.93359 27.8019L52.2723 19.6533L58.6355 58.8703Z" fill="#AFAEAA"/>
<path d="M79.1475 55.5508L58.6345 58.87L52.2949 19.653L77.9991 15.4922L81.2948 51.6732C81.4757 53.6474 80.5475 55.3227 79.1475 55.5508Z" fill="#7A786E"/>
<path d="M1.70042 27.8382L52.3325 19.6466L52.8827 23.0475L2.25063 31.239C1.79965 31.312 1.33815 31.2028 0.967672 30.9355C0.59719 30.6682 0.348065 30.2647 0.275103 29.8137C0.202141 29.3627 0.311319 28.9012 0.578617 28.5307C0.845916 28.1603 1.24944 27.9111 1.70042 27.8382Z" fill="#AFAEAA"/>
<path d="M78.7586 18.8581L52.8408 23.0512L52.2906 19.6504L78.2084 15.4573C78.6593 15.3843 79.1208 15.4935 79.4913 15.7608C79.8618 16.0281 80.1109 16.4316 80.1839 16.8826C80.2568 17.3336 80.1477 17.7951 79.8804 18.1655C79.6131 18.536 79.2095 18.7851 78.7586 18.8581Z" fill="#7A786E"/>
<path d="M52.8296 22.9861L2.92383 31.0869L3.04607 31.84L52.9518 23.7392L52.8296 22.9861Z" fill="#565550"/>
<path d="M78.1157 18.9121L52.8438 23.0098L52.9659 23.7629L78.2378 19.6652L78.1157 18.9121Z" fill="#3A3935"/>
<path d="M45.3879 31.2375L44.6348 31.3594L48.5666 55.6622L49.3198 55.5403L45.3879 31.2375Z" fill="#565550"/>
<path d="M14.1731 36.2903L13.4199 36.4121L17.3518 60.7149L18.1049 60.593L14.1731 36.2903Z" fill="#565550"/>
<path d="M21.9797 35.0217L21.2266 35.1436L25.1571 59.4386L25.9103 59.3167L21.9797 35.0217Z" fill="#565550"/>
<path d="M29.7805 33.7678L29.0273 33.8896L32.9579 58.1847L33.7111 58.0628L29.7805 33.7678Z" fill="#565550"/>
<path d="M37.5793 32.4992L36.8262 32.6211L40.758 56.9239L41.5112 56.802L37.5793 32.4992Z" fill="#565550"/>
<path d="M60.966 28.7258L60.2129 28.8477L64.1447 53.1504L64.8979 53.0286L60.966 28.7258Z" fill="#3A3935"/>
<path d="M73.1496 26.7502L72.3965 26.8721L76.3271 51.1671L77.0802 51.0452L73.1496 26.7502Z" fill="#3A3935"/>
<path d="M67.052 27.7346L66.2988 27.8564L70.2307 52.1592L70.9838 52.0374L67.052 27.7346Z" fill="#3A3935"/>
</svg>
