<svg width="57" height="73" viewBox="0 0 57 73" fill="none" xmlns="http://www.w3.org/2000/svg">
<path d="M43.6085 -0.000132066L0 8.93555L13.0048 72.4026L56.6133 63.4669L43.6085 -0.000132066Z" fill="#9B4D18"/>
<path d="M11.021 22.4491C13.6548 22.4491 15.79 20.314 15.79 17.6801C15.79 15.0463 13.6548 12.9111 11.021 12.9111C8.38711 12.9111 6.25195 15.0463 6.25195 17.6801C6.25195 20.314 8.38711 22.4491 11.021 22.4491Z" fill="#702A0F"/>
<path d="M28.4359 16.6918C29.3536 14.223 28.0961 11.4777 25.6273 10.56C23.1585 9.64238 20.4132 10.8999 19.4955 13.3687C18.5779 15.8375 19.8354 18.5828 22.3042 19.5004C24.773 20.4181 27.5183 19.1606 28.4359 16.6918Z" fill="#702A0F"/>
<path d="M40.7895 15.1597C42.2381 12.9736 41.6403 10.0271 39.4542 8.57847C37.2681 7.12986 34.3216 7.7277 32.873 9.91379C31.4243 12.0999 32.0222 15.0464 34.2083 16.495C36.3944 17.9436 39.3409 17.3458 40.7895 15.1597Z" fill="#702A0F"/>
<path d="M15.3379 36.347C17.8515 35.5602 19.2513 32.8847 18.4646 30.3711C17.6778 27.8575 15.0024 26.4577 12.4888 27.2444C9.97518 28.0312 8.57529 30.7066 9.36204 33.2202C10.1488 35.7338 12.8243 37.1337 15.3379 36.347Z" fill="#702A0F"/>
<path d="M30.1694 32.5723C32.0631 30.7417 32.1142 27.7225 30.2836 25.8288C28.4529 23.9352 25.4338 23.8841 23.5401 25.7147C21.6465 27.5453 21.5953 30.5644 23.426 32.4581C25.2566 34.3518 28.2757 34.4029 30.1694 32.5723Z" fill="#702A0F"/>
<path d="M43.2649 29.7728C45.0749 27.8594 44.9911 24.841 43.0777 23.031C41.1643 21.221 38.1459 21.3048 36.3359 23.2181C34.5259 25.1315 34.6097 28.1499 36.5231 29.9599C38.4364 31.77 41.4548 31.6862 43.2649 29.7728Z" fill="#702A0F"/>
<path d="M20.7849 48.5316C22.2355 46.3332 21.6294 43.3751 19.431 41.9245C17.2327 40.4738 14.2746 41.08 12.8239 43.2783C11.3733 45.4767 11.9794 48.4348 14.1777 49.8854C16.3761 51.3361 19.3342 50.7299 20.7849 48.5316Z" fill="#702A0F"/>
<path d="M29.7495 48.0263C32.3833 48.0263 34.5185 45.8911 34.5185 43.2573C34.5185 40.6234 32.3833 38.4883 29.7495 38.4883C27.1156 38.4883 24.9805 40.6234 24.9805 43.2573C24.9805 45.8911 27.1156 48.0263 29.7495 48.0263Z" fill="#702A0F"/>
<path d="M45.6843 44.3288C47.7381 42.6798 48.0663 39.6782 46.4173 37.6243C44.7684 35.5705 41.7667 35.2423 39.7129 36.8913C37.6591 38.5402 37.3309 41.5419 38.9798 43.5957C40.6288 45.6495 43.6304 45.9777 45.6843 44.3288Z" fill="#702A0F"/>
<path d="M23.1633 63.2992C24.9733 61.3858 24.8895 58.3674 22.9762 56.5574C21.0628 54.7474 18.0444 54.8311 16.2344 56.7445C14.4243 58.6579 14.5081 61.6763 16.4215 63.4863C18.3349 65.2963 21.3533 65.2126 23.1633 63.2992Z" fill="#702A0F"/>
<path d="M34.0683 61.9222C36.5819 61.1354 37.9818 58.4599 37.1951 55.9463C36.4083 53.4327 33.7328 52.0328 31.2192 52.8196C28.7056 53.6064 27.3058 56.2818 28.0925 58.7954C28.8793 61.309 31.5547 62.7089 34.0683 61.9222Z" fill="#702A0F"/>
<path d="M48.9057 58.1553C50.7994 56.3247 50.8505 53.3055 49.0199 51.4119C47.1893 49.5182 44.1701 49.4671 42.2765 51.2977C40.3828 53.1283 40.3317 56.1474 42.1623 58.0411C43.9929 59.9348 47.012 59.9859 48.9057 58.1553Z" fill="#702A0F"/>
<path d="M8.90701 22.3258C11.2173 22.2435 13.0235 20.3039 12.9412 17.9936C12.8589 15.6833 10.9193 13.8771 8.609 13.9594C6.29867 14.0417 4.49249 15.9813 4.57479 18.2916C4.65708 20.6019 6.59668 22.4081 8.90701 22.3258Z" fill="#A55723"/>
<path d="M25.1934 17.7988C26.4666 15.8693 25.9346 13.2728 24.0051 11.9996C22.0755 10.7263 19.4791 11.2583 18.2059 13.1879C16.9326 15.1174 17.4646 17.7138 19.3942 18.9871C21.3237 20.2604 23.9201 19.7284 25.1934 17.7988Z" fill="#A55723"/>
<path d="M38.1465 15.1435C39.4198 13.214 38.8878 10.6176 36.9582 9.34431C35.0286 8.07103 32.4322 8.60305 31.159 10.5326C29.8857 12.4622 30.4177 15.0586 32.3473 16.3318C34.2768 17.6051 36.8732 17.0731 38.1465 15.1435Z" fill="#A55723"/>
<path d="M15.724 33.2119C16.2504 30.9608 14.8522 28.7093 12.6011 28.183C10.35 27.6566 8.09847 29.0548 7.57214 31.3059C7.04581 33.557 8.444 35.8085 10.6951 36.3348C12.9462 36.8612 15.1977 35.463 15.724 33.2119Z" fill="#A55723"/>
<path d="M28.6713 30.5635C29.1976 28.3124 27.7994 26.0608 25.5484 25.5345C23.2973 25.0082 21.0457 26.4064 20.5194 28.6575C19.9931 30.9085 21.3913 33.1601 23.6423 33.6864C25.8934 34.2127 28.145 32.8145 28.6713 30.5635Z" fill="#A55723"/>
<path d="M37.5394 31.1383C39.8512 31.1383 41.7253 29.2643 41.7253 26.9525C41.7253 24.6407 39.8512 22.7666 37.5394 22.7666C35.2276 22.7666 33.3535 24.6407 33.3535 26.9525C33.3535 29.2643 35.2276 31.1383 37.5394 31.1383Z" fill="#A55723"/>
<path d="M18.0371 48.6767C19.3104 46.7472 18.7784 44.1508 16.8488 42.8775C14.9193 41.6042 12.3229 42.1363 11.0496 44.0658C9.77633 45.9954 10.3084 48.5918 12.2379 49.865C14.1675 51.1383 16.7639 50.6063 18.0371 48.6767Z" fill="#A55723"/>
<path d="M27.6336 47.901C29.9439 47.8187 31.7501 45.8791 31.6678 43.5688C31.5855 41.2585 29.6459 39.4523 27.3356 39.5346C25.0252 39.6169 23.2191 41.5565 23.3013 43.8668C23.3836 46.1771 25.3232 47.9833 27.6336 47.901Z" fill="#A55723"/>
<path d="M40.7145 45.2437C43.0212 45.0909 44.7673 43.0971 44.6145 40.7903C44.4617 38.4836 42.4678 36.7375 40.1611 36.8903C37.8544 37.0431 36.1083 39.037 36.2611 41.3437C36.4139 43.6504 38.4077 45.3966 40.7145 45.2437Z" fill="#A55723"/>
<path d="M17.4359 64.6715C19.7477 64.6715 21.6217 62.7975 21.6217 60.4857C21.6217 58.1739 19.7477 56.2998 17.4359 56.2998C15.1241 56.2998 13.25 58.1739 13.25 60.4857C13.25 62.7975 15.1241 64.6715 17.4359 64.6715Z" fill="#A55723"/>
<path d="M34.4565 58.793C34.9828 56.5419 33.5846 54.2903 31.3335 53.764C29.0824 53.2377 26.8309 54.6359 26.3046 56.8869C25.7782 59.138 27.1764 61.3896 29.4275 61.9159C31.6786 62.4422 33.9301 61.044 34.4565 58.793Z" fill="#A55723"/>
<path d="M47.4018 56.1396C47.9281 53.8886 46.5299 51.637 44.2788 51.1107C42.0277 50.5844 39.7762 51.9825 39.2499 54.2336C38.7235 56.4847 40.1217 58.7362 42.3728 59.2626C44.6239 59.7889 46.8754 58.3907 47.4018 56.1396Z" fill="#A55723"/>
<path d="M13.8547 71.081L13.8028 70.8096L1.31445 9.81712L42.7228 1.31836L42.7806 1.58972L55.292 62.5995L13.8547 71.081ZM1.97265 10.2386L14.3051 70.4401L54.6338 62.1781L42.3071 1.97655L1.97265 10.2386Z" fill="#702A0F"/>
</svg>
