<svg width="62" height="75" viewBox="0 0 62 75" fill="none" xmlns="http://www.w3.org/2000/svg">
<path d="M27.2181 70.2403L32.4564 54.7611C32.4854 54.5916 32.5184 54.4179 32.5474 54.2443C32.6626 53.5806 32.7427 52.9112 32.7872 52.2391C32.8161 51.6709 32.7995 51.1013 32.7376 50.5357C32.585 49.5985 32.6457 48.6389 32.9153 47.7284C33.3255 46.8087 34.0293 46.0511 34.9164 45.5744C35.7433 45.0576 36.6611 44.6276 37.3392 43.8917C37.947 43.1863 38.3097 42.3028 38.3728 41.3738C38.4431 40.6793 38.534 40.0467 39.1087 39.5795C39.515 39.2786 39.9674 39.0454 40.4482 38.8891C40.9981 38.6823 41.5521 38.5004 42.102 38.3102C43.0406 38.0044 43.9324 37.5703 44.7522 37.0203L52.1652 29.3551C54.2382 27.2086 55.5823 24.4636 56.0068 21.5098C56.4313 18.5561 55.9146 15.5436 54.53 12.9002L59.8841 7.35591L53.4634 1.1543L48.1093 6.69441C45.4196 5.40177 42.391 4.98926 39.4536 5.51544C36.5161 6.04163 33.8191 7.47978 31.7453 9.62571L22.662 19.0191C22.005 19.7915 21.5139 20.6907 21.2191 21.661C21.0455 22.1323 20.9007 22.6119 20.7643 23.0956C20.6279 23.5793 20.4956 24.0383 20.3509 24.5054C20.2089 24.9765 20.0263 25.4344 19.8051 25.8739C18.8873 27.569 16.9937 28.152 15.3276 28.8466C13.6021 29.5307 12.0399 30.5703 10.7425 31.8978C10.635 32.0135 10.5316 32.1293 10.4283 32.2492C9.9385 33.0751 9.53533 33.9493 9.22517 34.858L0.323781 61.1405C-0.174364 62.5749 -0.0952864 64.1467 0.544302 65.5239C1.18389 66.9011 2.33387 67.9756 3.75121 68.5204C4.47538 68.7866 5.24545 68.9053 6.01616 68.8695C6.78687 68.8338 7.54265 68.6444 8.23908 68.3123C8.93552 67.9803 9.55854 67.5124 10.0715 66.9361C10.5845 66.3598 10.9771 65.6867 11.2262 64.9565L16.2371 66.6516C15.9941 67.3821 15.8991 68.1537 15.9579 68.9213C16.0167 69.689 16.2281 70.4371 16.5796 71.122C16.9311 71.807 17.4157 72.4149 18.0051 72.9102C18.5944 73.4056 19.2767 73.7783 20.0118 74.0068C21.4669 74.4347 23.0314 74.2813 24.3756 73.5787C25.7198 72.8762 26.7388 71.6793 27.2181 70.2403Z" fill="#38C142"/>
<path d="M7.38438 54.5752L4.63086 62.7076C6.99161 63.5097 6.5947 69.4715 11.8826 71.2575C17.1705 73.0436 20.4698 68.0699 22.8347 68.8679L25.5841 60.7313L7.38438 54.5752Z" fill="#38C142"/>
<path d="M29.1861 64.427C29.1861 64.427 31.3029 58.1716 31.6667 57.1546C32.3613 54.9551 30.5959 50.5395 30.9763 47.5007C31.646 45.5534 33.7959 45.3095 35.1107 43.8996C35.3418 43.6784 35.5265 43.4133 35.6539 43.1198C35.7813 42.8263 35.8489 42.5104 35.8527 42.1905C35.8566 41.8706 35.7966 41.5531 35.6763 41.2566C35.556 40.9602 35.3777 40.6907 35.152 40.4639C32.5556 37.0903 23.3069 40.5673 23.1912 35.5026C24.6878 32.1248 32.9815 36.2427 34.7675 36.3295C38.2198 37.0241 41.7175 37.2226 45.0415 35.821C47.3568 34.775 47.1087 34.4897 49.7878 31.8148C56.3119 25.8943 57.7342 19.7381 54.5672 12.8626L59.8965 7.34317L54.5548 2.2041C54.4018 2.2041 49.1801 8.09564 49.0436 7.71941C43.0942 6.87185 37.2192 12.5691 33.5892 16.5629L30.3892 19.8704L30.3148 19.9697C29.9403 20.4196 29.6592 20.9396 29.4879 21.4994C29.4427 21.731 29.4493 21.9697 29.5072 22.1984C29.5651 22.4271 29.6729 22.6402 29.8228 22.8224C30.4 23.5093 31.1013 24.0815 31.89 24.5092C32.8652 25.0878 33.8744 25.6069 34.9122 26.0638C35.4166 26.2953 35.9169 26.5268 36.413 26.7666C36.9092 27.0064 37.2895 27.2338 37.7484 27.4157C38.4518 27.6508 39.0904 28.0472 39.6131 28.5734C39.8368 28.7965 39.9696 29.0948 39.9856 29.4104C40.0017 29.726 39.8998 30.0362 39.6999 30.2809C39.2452 30.688 38.6564 30.9132 38.0461 30.9135C37.3569 30.9642 36.6642 30.9448 35.9789 30.8556C35.4862 30.8123 34.9962 30.7419 34.5112 30.6447C33.303 30.3162 32.1133 29.9228 30.9473 29.4664C29.7009 28.9736 28.3886 28.6671 27.0527 28.5568C26.4895 28.5152 25.9241 28.6014 25.3989 28.809C24.8672 29.0467 24.4306 29.4558 24.1586 29.9708C23.7452 30.6778 23.5385 31.4385 22.8108 31.8892C22.3597 32.1368 21.8896 32.3483 21.4051 32.5217C20.9545 32.7078 20.5038 32.8856 20.0573 33.0757C19.2146 33.4021 18.431 33.8644 17.7379 34.4442C17.5583 34.6093 17.3898 34.7861 17.2335 34.9734C16.5885 37.5657 18.0604 39.2029 20.4418 39.5916C24.8408 40.9601 34.1308 38.2975 32.0471 42.1218C29.5664 43.9162 26.2341 43.2671 23.2739 43.3622C16.6588 42.9735 11.8215 45.9544 9.95692 51.8046C8.88198 55.1866 7.47628 57.8533 9.54348 60.9003C11.8836 64.0921 13.9053 63.5918 19.4661 65.75C23.9891 67.2839 26.9742 68.9955 29.1861 64.427Z" fill="#75E252"/>
<path d="M61.0198 7.05492L53.7168 0L50.3186 3.5177L57.6216 10.5726L61.0198 7.05492Z" fill="#BA2F2F"/>
<path d="M57.5086 11.5185L49.3789 3.66504L48.7556 4.3103L56.8852 12.1638L57.5086 11.5185Z" fill="#38C142"/>
<path d="M57.1836 10.1481L50.7637 3.94629L49.6118 5.13868L56.0317 11.3405L57.1836 10.1481Z" fill="#38C142"/>
<path d="M39.1453 34.7298C38.9379 34.7297 38.7389 34.648 38.5913 34.5024C38.5171 34.4283 38.4583 34.3403 38.4182 34.2435C38.3781 34.1467 38.3574 34.0429 38.3574 33.9381C38.3574 33.8332 38.3781 33.7295 38.4182 33.6326C38.4583 33.5358 38.5171 33.4478 38.5913 33.3737L48.8529 22.74C51.102 20.4123 52.4539 17.572 52.5738 14.9384C52.5831 14.7268 52.6762 14.5275 52.8324 14.3844C52.9886 14.2414 53.1953 14.1663 53.4069 14.1756C53.6185 14.1849 53.8178 14.2779 53.9609 14.4341C54.1039 14.5904 54.179 14.797 54.1697 15.0087C54.0374 18.0268 52.5159 21.2475 50.0064 23.848L39.7199 34.5024C39.6441 34.5766 39.5542 34.635 39.4555 34.674C39.3568 34.713 39.2514 34.732 39.1453 34.7298Z" fill="white"/>
<path d="M23.1043 63.9474C22.9764 63.9496 22.8498 63.9209 22.7353 63.8639C22.6208 63.8069 22.5216 63.7232 22.4462 63.6198C22.3708 63.5165 22.3214 63.3965 22.3021 63.27C22.2828 63.1436 22.2942 63.0143 22.3353 62.8931L26.8129 49.663C26.8893 49.4729 27.0356 49.3193 27.2217 49.2336C27.4078 49.148 27.6197 49.1368 27.8138 49.2024C28.0079 49.2679 28.1696 49.4053 28.2656 49.5863C28.3616 49.7673 28.3847 49.9782 28.3302 50.1757L23.8485 63.4058C23.7956 63.5619 23.6956 63.6978 23.5624 63.7947C23.4291 63.8917 23.2691 63.9451 23.1043 63.9474Z" fill="white"/>
<path d="M61.0236 7.05311L55.252 1.47754L51.8538 4.99524L57.6254 10.5708L61.0236 7.05311Z" fill="#FF6550"/>
</svg>
