<!DOCTYPE svg PUBLIC "-//W3C//DTD SVG 1.1//EN" "http://www.w3.org/Graphics/SVG/1.1/DTD/svg11.dtd">
<!-- Uploaded to: SVG Repo, www.svgrepo.com, Transformed by: SVG Repo Mixer Tools -->
<svg version="1.1" id="_x32_" xmlns="http://www.w3.org/2000/svg" xmlns:xlink="http://www.w3.org/1999/xlink" width="256px" height="256px" viewBox="0 0 512 512" xml:space="preserve" fill="#ff0000" stroke="#ff0000">
<g id="SVGRepo_bgCarrier" stroke-width="0"/>
<g id="SVGRepo_tracerCarrier" stroke-linecap="round" stroke-linejoin="round"/>
<g id="SVGRepo_iconCarrier"> <style type="text/css">  .st0{fill:#ff0000;}  </style> <g> <path class="st0" d="M357.125,312.859h-22.063v44.391h22.063c13.969,0,25.313-9.953,25.313-22.203 C382.438,322.813,371.094,312.859,357.125,312.859z"/> <path class="st0" d="M352.109,190.297c-88.313,0-159.906,71.594-159.906,159.891c0,88.328,71.594,159.891,159.906,159.891 c88.297,0,159.891-71.563,159.891-159.891C512,261.891,440.406,190.297,352.109,190.297z M357.125,381.938h-22.063v32.313 c0,6.203-5.031,11.25-11.234,11.25h-5.641c-6.219,0-11.25-5.047-11.25-11.25V299.438c0-6.203,5.031-11.234,11.25-11.234h38.938 c29.484,0,53.469,21.016,53.469,46.844C410.594,360.906,386.609,381.938,357.125,381.938z"/> <path class="st0" d="M259.719,57.203c0,30.547-58.125,55.297-129.859,55.297C58.141,112.5,0,87.75,0,57.203 C0,26.672,58.141,1.922,129.859,1.922C201.594,1.922,259.719,26.672,259.719,57.203z"/> <path class="st0" d="M0,150.813c0,30.531,58.141,55.281,129.859,55.281c71.734,0,129.859-24.75,129.859-55.281v-13.75 c0-4.219-2.125-8.156-5.641-10.5c-3.516-2.313-7.984-2.734-11.859-1.063c0,0-40.625,25.094-112.359,25.094 c-71.719,0-112.328-25.094-112.328-25.094c-3.906-1.672-8.375-1.25-11.875,1.063C2.125,128.906,0,132.844,0,137.063V150.813z"/> <path class="st0" d="M171.828,244.313c-10.594,17.813-18.469,37.281-23.281,57.906c-6.125,0.406-12.344,0.578-18.719,0.578 c-71.656,0-129.813-24.766-129.813-55.344v-13.656c0-4.219,2.078-8.203,5.641-10.531c3.469-2.313,7.953-2.734,11.844-1.078 c0,0,40.672,25.109,112.328,25.109C145.328,247.297,159.328,246.141,171.828,244.313z"/> <path class="st0" d="M148.719,398.891c-6.125,0.422-12.516,0.594-18.891,0.594c-71.656,0-129.813-24.781-129.813-55.266v-13.75 c0-4.219,2.078-8.203,5.641-10.531c3.469-2.313,7.953-2.734,11.844-1.063c0,0,40.672,25.094,112.328,25.094 c4.563,0,8.953-0.078,13.25-0.25c-0.156,2.156-0.156,4.313-0.156,6.469C142.922,366.922,144.906,383.234,148.719,398.891z"/> <path class="st0" d="M195.359,488.531c-19.219,4.891-41.578,7.625-65.531,7.625c-71.656,0-129.813-24.781-129.813-55.266v-13.75 c0-4.219,2.078-8.203,5.641-10.516c3.469-2.313,7.953-2.734,11.844-1.078c0,0,40.672,25.094,112.328,25.094 c11.766,0,22.781-0.656,32.813-1.813C171.172,456.969,182.188,473.703,195.359,488.531z"/> </g> </g>
</svg>