<svg width="17" height="27" viewBox="0 0 17 27" fill="none" xmlns="http://www.w3.org/2000/svg">
    <defs>
        <linearGradient id="paint0_linear_692_3699" x1="8.50288" y1="30.9395" x2="8.50288" y2="-3.63769" gradientUnits="userSpaceOnUse">
            <stop stop-color="#FFCB11"/>
            <stop offset="1" stop-color="#FEEF21"/>
        </linearGradient>
    </defs>
<path fill-rule="evenodd" clip-rule="evenodd" d="M16.0218 16.7089C15.961 15.3025 15.4438 14.1712 14.5312 13.254C12.4017 11.1137 9.8768 11.1443 8.14282 10.6245C6.6522 10.1965 7.86903 8.42318 12.7059 9.73789C15.8088 10.5634 16.7823 4.96825 14.1966 4.63193L11.8542 4.11217C11.5195 4.05102 11.4283 3.83699 11.5499 3.53125L11.8542 2.43056C11.9758 0.168047 7.99072 -0.0154006 7.59525 2.46114V3.77585C7.59525 4.32619 7.2302 4.41791 7.07809 4.47906C4.1577 5.36572 2.14993 7.65882 2.24119 10.9303C2.36288 14.3852 5.67874 15.4248 8.1124 16.1891C10.0289 16.8006 9.51175 17.779 8.87292 18.0542C6.92599 18.9103 5.22243 16.8923 3.2755 17.1675C1.32857 17.4121 0.294264 20.5001 1.54151 22.09C2.72792 23.6187 4.70527 23.4353 6.37842 23.5576C6.46968 23.5576 6.59136 23.5882 6.56094 23.8328C6.46968 24.3525 5.00948 26.4622 8.05156 26.3704C10.6373 26.2787 10.5461 24.6583 10.4548 23.527C10.4548 23.4353 10.4548 23.2518 10.6982 23.2213C13.9836 22.4263 16.1435 20.3473 16.0218 16.7089Z" stroke="#FD9F00" stroke-width="1.0647" stroke-miterlimit="22.9256"/>
<path fill-rule="evenodd" clip-rule="evenodd" d="M16.0218 16.7089C15.961 15.3025 15.4438 14.1712 14.5312 13.254C12.4017 11.1137 9.8768 11.1443 8.14282 10.6245C6.6522 10.1965 7.86903 8.42318 12.7059 9.73789C15.8088 10.5634 16.7823 4.96825 14.1966 4.63193L11.8542 4.11217C11.5195 4.05102 11.4283 3.83699 11.5499 3.53125L11.8542 2.43056C11.9758 0.168047 7.99072 -0.0154005 7.59525 2.46114V3.77585C7.59525 4.32619 7.2302 4.41791 7.07809 4.47906C4.1577 5.36572 2.14993 7.65882 2.24119 10.9303C2.36287 14.3852 5.67874 15.4248 8.1124 16.1891C10.0289 16.8006 9.51175 17.779 8.87292 18.0542C6.92599 18.9103 5.22243 16.8923 3.2755 17.1675C1.32857 17.4121 0.294264 20.5001 1.54151 22.09C2.72792 23.6187 4.70527 23.4353 6.37842 23.5576C6.46968 23.5576 6.59136 23.5882 6.56094 23.8328C6.46968 24.3525 5.00948 26.4622 8.05156 26.3704C10.6373 26.2787 10.5461 24.6583 10.4548 23.527C10.4548 23.4353 10.4548 23.2518 10.6982 23.2213C13.9836 22.4263 16.1435 20.3473 16.0218 16.7089Z" fill="url(#paint0_linear_692_3699)"/>
<path fill-rule="evenodd" clip-rule="evenodd" d="M2.36289 11.8475C2.88004 6.28296 12.6147 3.7147 15.6568 7.35307C15.8697 6.09951 15.4134 4.78481 14.227 4.63193L11.8846 4.11217C11.55 4.05102 11.4587 3.83699 11.5804 3.53125L11.8846 2.43056C12.0063 0.168047 8.02115 -0.0154005 7.62568 2.46114V3.77585C7.62568 4.32619 7.26063 4.41791 7.10853 4.47906C4.15772 5.36572 2.14995 7.65882 2.24121 10.9303C2.24121 11.2666 2.30205 11.5724 2.36289 11.8475Z" fill="#FFFF00"/>
<path fill-rule="evenodd" clip-rule="evenodd" d="M14.5312 13.254C12.493 11.2055 10.1506 11.1443 8.41663 10.7163C11.1545 13.1317 15.6263 13.3151 15.6872 19.1854C15.9306 18.4516 16.0522 17.6261 16.0218 16.7089C15.961 15.3024 15.4742 14.1712 14.5312 13.254Z" fill="#FFFF00"/>
<path fill-rule="evenodd" clip-rule="evenodd" d="M8.87289 18.0542C6.92596 18.9103 5.22239 16.8923 3.27547 17.1675C1.5719 17.3815 0.568017 19.7663 1.17643 21.4174C1.81527 16.7395 6.19586 20.1638 9.02499 17.993C8.96415 18.0236 8.90331 18.0542 8.87289 18.0542Z" fill="#FFFF00"/>
<path fill-rule="evenodd" clip-rule="evenodd" d="M15.0179 13.8043C14.8658 13.6209 14.7137 13.4374 14.5312 13.254C13.0405 11.7558 11.3674 11.3278 9.9072 11.022V11.5418C11.4891 11.8475 13.3752 12.1838 15.0179 13.8043ZM9.9072 18.2988V17.5955C10.0593 17.8401 10.0289 18.0847 9.9072 18.2988ZM9.9072 1.32988V0.626663C10.6677 0.626663 11.3978 0.993558 11.702 1.63562C11.2153 1.2993 10.546 1.20758 9.9072 1.32988ZM15.4134 5.48802C15.17 5.0294 14.7745 4.69308 14.1965 4.63193L12.4017 4.23446L11.7933 4.11216C11.6716 4.41791 12.0975 4.72366 12.4321 4.7848L14.7745 5.30457C15.0179 5.30457 15.2308 5.36572 15.4134 5.48802ZM9.9072 11.022C9.26837 10.8997 8.65995 10.7774 8.1428 10.6245C8.05154 10.8691 8.26448 11.1443 8.72079 11.2666C9.08584 11.3583 9.48131 11.4501 9.9072 11.5418V11.022ZM9.9072 0.626663V1.32988C9.08584 1.48275 8.32532 2.06367 8.17322 3.07263V4.38733C8.17322 4.93768 7.80817 5.0294 7.65607 5.09055C4.73567 6.00779 2.7279 8.30088 2.81917 11.5724C2.84959 12.5813 3.1538 13.3763 3.64053 14.0489C2.84959 13.3151 2.30201 12.3061 2.27159 10.9303C2.14991 7.65881 4.15768 5.36572 7.07807 4.44848C7.2606 4.38733 7.59523 4.29561 7.59523 3.74527V2.43056C7.80817 1.20758 8.90332 0.626663 9.9072 0.626663ZM9.9072 17.5955V18.2988C9.78552 18.4822 9.603 18.6351 9.42047 18.6962C7.47354 19.5217 5.76998 17.5344 3.82305 17.8096C1.93696 18.0542 0.902659 20.9282 1.96739 22.5792C1.81528 22.4569 1.66318 22.2735 1.51107 22.09C0.263823 20.5001 1.32855 17.4121 3.24506 17.1675C5.19199 16.9229 6.89555 18.9103 8.84248 18.0542C9.20753 17.9013 9.51173 17.5344 9.42047 17.1369C9.66384 17.2898 9.81594 17.4427 9.9072 17.5955ZM6.40882 24.1691C6.16545 24.7806 5.73956 25.7895 6.71302 26.187C6.59134 25.5755 7.07807 24.7806 7.10849 24.4748C7.16934 24.2302 7.01723 24.1997 6.92597 24.1997C6.74344 24.1997 6.56092 24.1691 6.40882 24.1691Z" fill="white"/>
<path fill-rule="evenodd" clip-rule="evenodd" d="M9.48137 1.20758C10.0289 1.20758 10.2723 1.7885 10.0594 2.49171C9.816 3.19493 9.20759 3.77584 8.66001 3.77584C8.11244 3.77584 7.86907 3.19493 8.08202 2.49171C8.29496 1.7885 8.9338 1.20758 9.48137 1.20758Z" fill="white"/>
<path fill-rule="evenodd" clip-rule="evenodd" d="M3.64051 7.99514C4.21851 7.81169 4.61398 8.57605 4.55314 9.73789C4.46187 10.8691 3.94472 11.9393 3.36673 12.1227C2.78873 12.3062 2.39326 11.5418 2.4541 10.38C2.54537 9.2487 3.06252 8.17859 3.64051 7.99514Z" fill="white"/>
<path fill-rule="evenodd" clip-rule="evenodd" d="M4.21852 17.7178C4.67483 17.9319 4.49231 18.6045 3.85347 19.2466C3.21464 19.8886 2.30201 20.2555 1.8457 20.0721C1.38939 19.8581 1.57191 19.1854 2.21075 18.5434C2.88001 17.9013 3.76221 17.5344 4.21852 17.7178Z" fill="white"/>

</svg>
