<svg width="29" height="27" viewBox="0 0 29 27" fill="none" xmlns="http://www.w3.org/2000/svg">
    <defs>
        <linearGradient id="paint0_linear_692_3037" x1="14.7119" y1="25.1651" x2="14.7119" y2="1.31752" gradientUnits="userSpaceOnUse">
            <stop stop-color="#FFCB11"/>
            <stop offset="1" stop-color="#FEEF2F"/>
        </linearGradient>
    </defs>
<path fill-rule="evenodd" clip-rule="evenodd" d="M14.7097 22.37L8.23071 25.8076C7.15088 26.41 5.93172 25.524 6.14072 24.1774L7.32505 16.9123L1.99558 11.5256C1.22925 10.7459 1.33375 9.50555 2.79674 9.22204L10.2162 8.08799C10.9129 6.67042 12.5849 0.964725 14.7097 1.00016C16.8345 1.0356 18.5065 6.56411 19.2728 8.08799L26.6923 9.22204C28.1204 9.50555 28.2598 10.7459 27.4934 11.5256L22.0595 16.9123L23.2438 24.1774C23.4528 25.524 22.2685 26.41 21.1538 25.8076L14.7097 22.37Z" stroke="#FD9F00" stroke-width="1.1999" stroke-miterlimit="22.9256"/>
<path fill-rule="evenodd" clip-rule="evenodd" d="M14.7097 22.37L8.23071 25.8076C7.15088 26.41 5.93172 25.524 6.14072 24.1774L7.32505 16.9123L1.99558 11.5256C1.22925 10.7459 1.33375 9.50555 2.79674 9.22204L10.2162 8.08799C10.9129 6.67042 12.5849 0.964725 14.7097 1.00016C16.8345 1.0356 18.5065 6.56411 19.2728 8.08799L26.6923 9.22204C28.1204 9.50555 28.2598 10.7459 27.4934 11.5256L22.0595 16.9123L23.2438 24.1774C23.4528 25.524 22.2685 26.41 21.1538 25.8076L14.7097 22.37Z" fill="url(#paint0_linear_692_3037)"/>

</svg>
