<svg width="23" height="27" viewBox="0 0 23 27" fill="none" xmlns="http://www.w3.org/2000/svg">
    <defs>
        <linearGradient id="paint0_linear_692_8" x1="11.7397" y1="14.4977" x2="14.1916" y2="22.816" gradientUnits="userSpaceOnUse">
            <stop offset="0.00440529" stop-color="#16BFC4"/>
            <stop offset="1" stop-color="#059599"/>
        </linearGradient>
        <linearGradient id="paint1_linear_692_8" x1="6.16105" y1="25.6251" x2="22.4102" y2="20.9067" gradientUnits="userSpaceOnUse">
            <stop stop-color="#F76922"/>
            <stop offset="1" stop-color="#FFA82E"/>
        </linearGradient>
        <linearGradient id="paint2_linear_692_8" x1="11.1544" y1="12.4792" x2="8.70244" y2="4.16094" gradientUnits="userSpaceOnUse">
            <stop offset="0.00440529" stop-color="#16BFC4"/>
            <stop offset="1" stop-color="#059599"/>
        </linearGradient>
        <linearGradient id="paint3_linear_692_8" x1="0.864802" y1="7.38278" x2="17.1139" y2="2.66442" gradientUnits="userSpaceOnUse">
            <stop stop-color="#F76922"/>
            <stop offset="1" stop-color="#FFA82E"/>
        </linearGradient>
        <linearGradient id="paint4_linear_692_8" x1="0.502782" y1="6.13581" x2="16.7519" y2="1.41746" gradientUnits="userSpaceOnUse">
            <stop stop-color="#FAC521"/>
            <stop offset="1" stop-color="#FFA82E"/>
        </linearGradient>
    </defs>
<path d="M22.036 19.5892C20.6618 15.205 16.0559 12.6667 11.7299 13.8461C7.30205 15.0768 4.5792 19.7943 5.80067 24.358L22.036 19.5892Z" fill="url(#paint0_linear_692_8)"/>
<path d="M19.3385 20.384C17.8116 20.5378 15.8776 20.948 13.791 21.5634C11.7043 22.1787 9.84664 22.8966 8.47249 23.5888L5.80054 24.3836L6.1568 25.6399C6.43672 26.5629 10.2792 26.2552 14.758 24.922C19.2367 23.5888 22.6466 21.7685 22.3921 20.8455L22.0359 19.5892L19.3385 20.384Z" fill="url(#paint1_linear_692_8)"/>
<path d="M14.3996 23.6475C18.878 22.3279 22.291 20.509 22.0228 19.5848C21.7545 18.6606 17.9066 18.9812 13.4282 20.3008C8.94979 21.6204 5.5368 23.4393 5.80506 24.3635C6.07332 25.2876 9.92124 24.9671 14.3996 23.6475Z" fill="#058185"/>
<path d="M13.104 12.9488C13.333 13.7179 12.7731 14.5384 11.8316 14.8204C10.9155 15.1024 9.99939 14.6922 9.77037 13.923C9.54134 13.1539 10.1012 12.3334 11.0427 12.0514C11.9588 11.795 12.8749 12.2052 13.104 12.9488Z" fill="#058185"/>
<path d="M17.0992 2.59073C18.2952 7.02622 15.776 11.6668 11.4754 13.0257C7.07301 14.4102 2.26349 11.8976 0.863892 7.38516L17.0992 2.59073Z" fill="url(#paint2_linear_692_8)"/>
<path d="M14.0455 2.15486C12.5187 2.30869 10.5847 2.71891 8.49799 3.33424C6.41132 3.94957 4.55368 4.66745 3.17953 5.3597L0.507568 6.1545L0.863829 7.41079C1.14375 8.33379 4.98628 8.02612 9.46499 6.69291C13.9437 5.3597 17.3536 3.53935 17.0992 2.61636L16.7429 1.36006L14.0455 2.15486Z" fill="url(#paint3_linear_692_8)"/>
<path d="M16.7429 1.36007C17.0228 2.28306 13.5875 4.10341 9.10875 5.43662C4.63004 6.76983 0.787507 7.0775 0.507587 6.15451C0.227668 5.23151 3.63759 3.38553 8.14175 2.07795C12.6205 0.744741 16.463 0.437077 16.7429 1.36007Z" fill="url(#paint4_linear_692_8)"/>
<path d="M7.14934 7.82101C6.89487 8.17996 6.51316 8.8722 6.56406 9.69264C6.6404 11.1284 7.9891 12.4616 9.89764 12.8462C9.36325 12.9231 8.65073 12.9744 7.81097 12.8206C6.18235 12.5385 5.08812 11.6925 4.57917 11.231C4.70641 11.0259 4.93543 10.59 4.90999 9.97467C4.85909 8.92348 4.07023 8.30815 3.94299 8.20559C4.3756 8.23123 4.85909 8.23123 5.41893 8.17996C6.10601 8.10304 6.69129 7.94921 7.14934 7.82101Z" fill="#5CE1E6"/>
<path d="M10.6864 15.9229C10.381 16.3843 10.0757 16.8971 9.79574 17.4612C9.33769 18.3842 8.98143 19.2559 8.7524 20.025C7.98899 20.1789 7.20012 20.3327 6.43671 20.4865C6.51305 19.9738 6.66573 19.2302 7.02199 18.4354C7.58183 17.2304 8.39614 16.4869 8.87964 16.1023C9.46492 16.051 10.0757 15.9741 10.6864 15.9229Z" fill="#5CE1E6"/>
<path d="M8.62517 21.4095C8.70151 22.0761 8.77785 22.7684 8.85419 23.435C8.57427 23.5375 8.16712 23.6657 7.65817 23.717C7.20012 23.7427 6.79297 23.6914 6.51305 23.6401C6.4876 22.9991 6.46215 22.3838 6.43671 21.7428C7.17468 21.6403 7.91264 21.5121 8.62517 21.4095Z" fill="#5CE1E6"/>

</svg>
