<svg width="45" height="69" viewBox="0 0 45 69" fill="none" xmlns="http://www.w3.org/2000/svg">
<path d="M38.8705 23.9492C45.5523 8.82905 30.9835 1.60853 18.109 3.94388C17.4191 4.08294 16.7378 4.26197 16.0687 4.48006C14.7496 4.90419 13.3348 4.93152 12.0003 4.55864C10.6658 4.18577 9.47063 3.42916 8.56356 2.38301C7.80139 1.50707 6.95405 0.708819 6.034 0L3.58798 3.28855L4.12491 3.71749C5.20484 4.6359 5.97951 5.86059 6.34606 7.22897C6.71262 8.59735 6.65372 10.0447 6.17719 11.3789C1.40445 18.6947 -0.230214 37.5443 0.0442184 40.5111C-0.373396 46.278 2.22775 51.7113 5.2823 56.5845C6.12946 55.7505 6.18912 54.976 5.92662 53.439C5.15584 46.6635 5.41328 39.8107 6.69026 33.1119C10.7471 44.7171 19.8153 51.9615 20.7102 60.1948C21.8437 64.8893 18.646 68.4757 20.8653 69C25.1369 62.9472 25.0653 54.9283 23.7767 47.7793C23.55 45.5274 22.5835 44.0856 21.3903 41.7384C15.3051 30.7885 15.4244 24.1518 16.4863 19.4811C18.7775 19.9923 20.9487 20.9389 22.8818 22.2692C31.3892 27.0352 35.792 35.7213 39.9205 44.0976C41.758 46.8619 39.5028 51.9377 43.2972 50.6866C46.9602 41.7026 44.3591 32.0276 38.8705 23.9492ZM24.8386 10.5091C31.3892 10.2708 36.6631 14.0121 37.1642 21.6258C33.7312 17.2355 29.5607 13.474 24.8386 10.5091Z" fill="#FFDC4A"/>
<path d="M38.8075 23.9426C45.5497 8.8266 30.8492 1.60808 17.8584 3.94278C17.1622 4.08181 16.4748 4.26079 15.7996 4.47881C14.4686 4.90283 13.041 4.93015 11.6944 4.55738C10.3479 4.18461 9.14191 3.4282 8.22664 2.38235C7.45758 1.50665 6.60259 0.708622 5.67422 0L5 0.881469C6.43268 1.97719 7.6838 3.28736 8.70823 4.76469C10.5902 7.93135 11.4786 11.5799 11.2606 15.247C11.2606 18.892 10.6587 22.5251 10.6948 26.1701C10.6804 30.1754 11.5257 34.1381 13.175 37.7959C15.1735 42.0603 18.352 45.6815 20.5794 49.8387C22.4061 53.3099 23.5269 57.1019 23.8782 61C24.559 56.6082 24.4489 52.1319 23.5532 47.778C23.3244 45.5267 22.3492 44.0853 21.1452 41.7387C15.005 30.7918 15.1254 24.157 16.1969 19.4876L17.2203 19.7854C17.2748 19.7663 17.3343 19.7663 17.3888 19.7854C20.9154 20.2293 24.335 21.2858 27.4901 22.9063C33.3163 25.7972 38.0851 30.4154 41.1311 36.1164C42.5608 38.8593 43.3818 41.8727 43.5391 44.9549C43.6216 46.9225 43.3983 48.8911 42.8769 50.7916L43.2983 50.6725C46.9704 41.6911 44.3457 32.0187 38.8075 23.9426ZM24.6488 10.5062C31.2586 10.2679 36.5801 14.0082 37.0858 21.6198C33.6218 17.2307 29.4136 13.4703 24.6488 10.5062Z" fill="#EAB93F"/>
</svg>
