<svg width="65" height="45" viewBox="0 0 65 45" fill="none" xmlns="http://www.w3.org/2000/svg">
<path d="M25.2721 20.4496C24.5621 17.4496 25.5521 14.2296 27.1921 11.5996C28.5075 9.44067 30.2879 7.60229 32.4036 6.21836C34.5193 4.83443 36.917 3.9398 39.4221 3.59961C41.3021 8.87961 38.9121 15.2596 34.2321 18.3596C32.7481 19.274 31.1729 20.0315 29.5321 20.6196C28.8626 20.9431 28.1238 21.0967 27.3808 21.0671C26.6379 21.0374 25.9137 20.8254 25.2721 20.4496Z" fill="#827537"/>
<path d="M20.9412 31.0995C19.4152 26.9099 19.0036 22.3957 19.7469 17.9992C20.4901 13.6027 22.3627 9.47466 25.1812 6.01953C26.596 7.91933 27.619 10.0815 28.1907 12.3802C28.7624 14.6789 28.8713 17.0683 28.5112 19.4095C27.8412 24.0895 24.7712 28.3395 20.9412 31.0995Z" fill="#B7D672"/>
<path d="M39.9522 25.3701C35.7312 26.0045 31.9069 28.2134 29.2484 31.5528C26.5899 34.8922 25.2943 39.1143 25.6222 43.3701C29.2422 44.0601 32.9222 42.2501 35.4322 39.5701C37.8552 36.7691 39.4178 33.3279 39.9322 29.6601C40.3258 28.2581 40.3327 26.7757 39.9522 25.3701Z" fill="#B7D672"/>
<path d="M7.11142 44.8902C8.39105 41.3096 8.43329 37.4033 7.2314 33.7958C6.02951 30.1883 3.65288 27.0879 0.481423 24.9902C-0.838577 31.4602 0.301424 42.0802 7.11142 44.8902Z" fill="#87A54E"/>
<path d="M37.4605 10.6001C37.3988 10.5317 37.3319 10.4682 37.2605 10.4101L37.1805 10.3401L37.0105 10.2701C36.9314 10.2291 36.8613 10.1726 36.8046 10.1038C36.7479 10.0351 36.7057 9.95558 36.6805 9.87008C36.675 9.81689 36.675 9.76327 36.6805 9.71008C36.6801 9.62632 36.7007 9.54379 36.7405 9.47008C36.7961 9.3329 36.8942 9.2172 37.0205 9.14008C37.1258 9.08035 37.2421 9.04248 37.3624 9.02873C37.4826 9.01499 37.6045 9.02565 37.7205 9.06008H38.0205H38.1505H38.3505H38.4205L38.4805 9.00008C38.4903 8.9798 38.4953 8.95758 38.4953 8.93508C38.4953 8.91257 38.4903 8.89036 38.4805 8.87008C38.4852 8.84026 38.4852 8.8099 38.4805 8.78008L38.2905 8.44008L38.2105 8.30008C38.1425 8.21777 38.0853 8.12702 38.0405 8.03008C37.9802 7.90772 37.9301 7.78063 37.8905 7.65008C37.822 7.5794 37.7706 7.49384 37.7405 7.40008C37.7047 7.25763 37.7262 7.10679 37.8005 6.98008C37.8468 6.89561 37.9004 6.81531 37.9605 6.74008C37.9853 6.70523 38.0157 6.67481 38.0505 6.65008C38.1694 6.52823 38.3174 6.43873 38.4805 6.39008C38.7389 6.33516 39.0083 6.37416 39.2405 6.50008C39.3285 6.54862 39.4093 6.60921 39.4805 6.68008C39.4729 6.51053 39.4966 6.34102 39.5505 6.18008C39.5231 5.99778 39.4727 5.81969 39.4005 5.65008C39.0274 5.62719 38.6738 5.47517 38.4005 5.22008C38.1245 4.89347 37.9384 4.50055 37.8605 4.08008C37.6105 4.13008 37.3705 4.20008 37.1205 4.26008C36.8177 4.59533 36.4828 4.90011 36.1205 5.17008C35.908 5.29751 35.6624 5.35889 35.4149 5.34642C35.1674 5.33396 34.9292 5.24821 34.7305 5.10008C31.5803 6.54773 28.924 8.88767 27.0905 11.8301C25.4505 14.4601 24.4605 17.6701 25.1705 20.6801C25.8121 21.0558 26.5363 21.2679 27.2793 21.2976C28.0222 21.3272 28.761 21.1735 29.4305 20.8501C31.0714 20.2619 32.6465 19.5045 34.1305 18.5901C35.281 17.8243 36.2951 16.8711 37.1305 15.7701C37.108 15.7162 37.0964 15.6585 37.0964 15.6001C37.0964 15.5417 37.108 15.4839 37.1305 15.4301C37.246 15.1803 37.3203 14.9136 37.3505 14.6401V14.5401C37.3459 14.5069 37.3459 14.4732 37.3505 14.4401C37.3505 14.4401 37.3505 14.3701 37.3505 14.3601C37.3541 14.3335 37.3541 14.3066 37.3505 14.2801C37.0089 13.8117 36.7299 13.3007 36.5205 12.7601C36.4526 12.4432 36.4789 12.1134 36.5962 11.8113C36.7135 11.5092 36.9166 11.2481 37.1805 11.0601L37.3905 10.8401L37.4505 10.7601C37.4505 10.7601 37.4505 10.7001 37.5105 10.6801C37.5105 10.6801 37.4705 10.6201 37.4605 10.6001Z" fill="#B7D672"/>
<path d="M14.6314 17.59C15.6302 16.8396 16.5101 15.9429 17.2414 14.93C20.2414 10.72 20.3214 5 18.9814 0C15.8914 1.32 14.2114 4.73 13.5014 8C12.7199 11.229 13.1208 14.6311 14.6314 17.59Z" fill="#87A54E"/>
<path d="M44.5306 12.5602C42.6364 12.5061 40.7521 12.852 39.0007 13.5753C37.2492 14.2986 35.6699 15.3831 34.3658 16.7579C33.0617 18.1328 32.0622 19.7671 31.4324 21.5543C30.8025 23.3416 30.5566 25.2415 30.7106 27.1302C37.7706 25.3302 42.7006 19.5902 44.5306 12.5602Z" fill="#87A54E"/>
<path d="M28.2619 40.3499C29.4741 38.1507 30.0566 35.66 29.9455 33.1513C29.8343 30.6427 29.0338 28.2132 27.6319 26.1299C26.2567 28.2464 25.6042 30.7514 25.7719 33.2699C25.8236 35.8354 26.6963 38.3168 28.2619 40.3499Z" fill="#87A54E"/>
<path d="M23.3922 18.3796C18.1162 17.561 12.7298 18.8466 8.39218 21.9596C4.20218 25.1396 1.61218 30.5496 2.39218 35.7496C7.47218 35.6796 12.3922 34.7496 16.6122 31.8296C20.8322 28.9096 23.2422 23.4496 23.3922 18.3796Z" fill="#827537"/>
<path d="M16.7712 31.28C16.9211 30.7651 17.1999 30.297 17.5812 29.92C17.9823 29.6578 18.416 29.4493 18.8712 29.3C19.2292 29.1338 19.5466 28.8915 19.8012 28.59C20.2812 27.94 20.0012 27.07 20.1312 26.33C20.199 25.913 20.3597 25.5165 20.6012 25.17L20.7212 25C20.6942 24.8637 20.647 24.7323 20.5812 24.61C20.4112 24.31 20.1212 24.11 20.0112 23.77C19.9541 23.5659 19.9397 23.3521 19.969 23.1422C19.9982 22.9323 20.0705 22.7307 20.1812 22.55C20.5512 21.92 21.3712 21.77 21.9512 21.39C21.9893 21.3657 22.0231 21.3353 22.0512 21.3C22.0726 21.1876 22.0726 21.0723 22.0512 20.96C22.0512 20.53 21.6712 20.21 21.8412 19.74C21.9163 19.5562 22.0409 19.3969 22.2012 19.28C22.1956 19.2435 22.1956 19.2064 22.2012 19.17C22.2012 19.1 22.2012 19.02 22.2012 18.95C22.2042 18.8967 22.2042 18.8432 22.2012 18.79C22.2012 18.79 22.2012 18.71 22.2012 18.69C22.1446 18.6751 22.0906 18.6515 22.0412 18.62H21.9812L21.6912 18.68C21.418 18.756 21.1316 18.773 20.8512 18.73C20.7067 18.7158 20.5704 18.6558 20.4625 18.5586C20.3545 18.4614 20.2805 18.3322 20.2512 18.19C16.0076 18.1379 11.8611 19.4605 8.43125 21.96C4.24125 25.14 1.65125 30.55 2.43125 35.75C7.43125 35.68 12.3512 34.75 16.5012 31.92C16.5812 31.76 16.6412 31.49 16.7712 31.28Z" fill="#87A54E"/>
<path d="M34.8818 20.7594C35.7703 19.2535 36.1228 17.4911 35.8818 15.7594C35.5744 12.5352 34.4679 9.43856 32.6625 6.74964C30.8571 4.06072 28.4097 1.86439 25.5418 0.359375C24.0245 2.11674 23.1376 4.33051 23.0218 6.64938C22.9837 8.97381 23.4228 11.2814 24.3118 13.4294C25.106 15.6447 26.4153 17.6395 28.1318 19.2494C29.9018 20.7594 32.5618 21.0794 34.8818 20.7594Z" fill="#827537"/>
<path d="M34.9006 20.2296C34.969 19.874 34.9925 19.5111 34.9706 19.1496C34.9634 18.9667 34.9119 18.7882 34.8206 18.6296C34.7406 18.5196 34.6106 18.4596 34.5306 18.3496C34.1706 17.8196 34.3806 17.3496 34.5306 16.7996C34.7438 16.309 34.8265 15.7716 34.7706 15.2396C34.6542 14.753 34.4246 14.3008 34.1006 13.9196C33.7624 13.5684 33.4913 13.1583 33.3006 12.7096C33.2355 12.2821 33.2355 11.8472 33.3006 11.4196C33.3006 10.9796 33.0106 10.7696 32.5706 10.7596C32.0122 10.8196 31.449 10.8196 30.8906 10.7596C30.4026 10.6668 29.9527 10.4324 29.5971 10.0856C29.2414 9.73887 28.9957 9.29508 28.8906 8.80961C28.8105 8.33703 28.8518 7.85186 29.0106 7.39961C29.1884 6.96636 29.3127 6.513 29.3806 6.04961C29.3885 5.83211 29.3253 5.61794 29.2006 5.43961C29.0741 5.29654 28.9119 5.18957 28.7306 5.12961C28.6279 5.09184 28.5347 5.03207 28.4576 4.95447C28.3804 4.87688 28.3212 4.78335 28.284 4.68044C28.2469 4.57753 28.2327 4.46774 28.2424 4.35876C28.2522 4.24979 28.2857 4.14427 28.3406 4.04961V3.95961L28.2806 3.86961C28.1706 3.78961 27.9606 3.80961 27.8306 3.77961C27.6319 3.75254 27.4409 3.6854 27.269 3.58226C27.0971 3.47912 26.9479 3.34213 26.8306 3.17961C26.6606 2.86961 26.7606 2.47961 26.6106 2.17961C26.4606 1.87961 26.2706 1.91961 26.0506 1.89961C25.5737 1.86727 25.1222 1.67325 24.7706 1.34961C23.6942 2.91553 23.0776 4.75144 22.9906 6.64961C22.9525 8.97404 23.3915 11.2816 24.2806 13.4296C25.0747 15.6449 26.3841 17.6397 28.1006 19.2496C29.8706 20.7896 32.5306 21.0796 34.8506 20.7496C34.8908 20.6919 34.9276 20.6318 34.9606 20.5696C34.927 20.5204 34.9044 20.4647 34.894 20.4061C34.8837 20.3474 34.8859 20.2873 34.9006 20.2296Z" fill="#87A54E"/>
<path d="M56.2434 43.6855C56.2828 42.3678 56.023 41.0583 55.4834 39.8555C54.8492 38.5551 53.9815 37.3823 52.9234 36.3955C50.9756 34.4965 48.6426 33.0379 46.0824 32.1184C43.5222 31.1988 40.7944 30.8398 38.0834 31.0655C37.7529 33.5906 38.4123 36.1457 39.9234 38.1955C41.566 40.2303 43.6526 41.862 46.0234 42.9655C49.2232 44.4633 52.8652 44.7199 56.2434 43.6855Z" fill="#827537"/>
<path d="M64.7436 42.19C64.8108 42.0706 64.8485 41.9369 64.8536 41.8C64.8536 41.63 64.5936 41.42 64.4136 41.22C64.1193 40.9421 63.8934 40.5998 63.7536 40.22C63.6334 39.7543 63.6334 39.2657 63.7536 38.8C63.7617 38.6868 63.7617 38.5732 63.7536 38.46L63.5936 38.39C63.2299 38.3054 62.8543 38.2851 62.4836 38.33C61.4836 38.33 61.4836 37.07 61.7736 36.33C61.9636 35.86 62.2036 35.54 61.8336 35.07C61.4621 34.6756 60.9981 34.38 60.4836 34.21C59.1954 33.7574 57.9334 33.2333 56.7036 32.64C56.3966 32.4609 56.1025 32.2604 55.8236 32.04C55.6415 31.8741 55.436 31.736 55.2136 31.63C54.6736 31.4 54.3236 31.84 53.8136 31.92C53.5781 31.9643 53.3346 31.9365 53.1151 31.8401C52.8957 31.7438 52.7104 31.5834 52.5836 31.38C52.5136 31.28 52.4736 31.15 52.3536 31.09C52.163 31.015 51.9553 30.9943 51.7536 31.03C50.9136 31.03 50.1336 31.46 49.2836 31.47C49.0495 31.4825 48.8154 31.4472 48.5954 31.3664C48.3753 31.2856 48.174 31.161 48.0036 31C47.9441 33.1384 48.622 35.2323 49.9236 36.93C51.5662 38.9648 53.6528 40.5964 56.0236 41.7C58.5734 42.9061 61.4281 43.314 64.2136 42.87C64.4179 42.6663 64.596 42.4379 64.7436 42.19Z" fill="#B7D672"/>
</svg>
