<svg width="47" height="52" viewBox="0 0 47 52" fill="none" xmlns="http://www.w3.org/2000/svg">
<path d="M40 1.76096C38.8826 2.17662 37.8261 2.75784 36.8618 3.48738C35.8957 4.21963 35.0357 5.09788 34.3089 6.09429C32.8754 8.21745 31.7263 10.5415 30.8943 13L30 12.6374C30.7622 10.0233 31.8562 7.53159 33.252 5.23108C33.985 4.05068 34.8844 2.99679 35.9187 2.10624C36.9691 1.22684 38.1362 0.517094 39.3821 0L40 1.76096Z" fill="#754F36"/>
<path d="M44.2713 14.4951C42.171 11.2201 35.0598 9.05358 31.9177 6.95423C28.0479 4.36783 23.9134 -0.0828027 19.2498 0.00117144C16.9306 0.0452471 14.6386 0.5176 12.4859 1.39514C13.9095 2.93745 14.9722 4.78595 15.595 6.80308C15.9571 8.12485 16.1079 9.4971 16.0415 10.8674C16.5642 11.2706 17.0028 11.7751 17.3321 12.3517C17.6614 12.9283 17.8748 13.5655 17.9599 14.2264C18.0767 15.7852 17.7917 17.348 17.133 18.761C16.5221 20.1054 15.6502 21.3107 14.5697 22.3047C14.3051 22.5566 14.0239 22.7918 13.7428 23.0101C13.8108 23.815 13.8053 24.6246 13.7262 25.4285C13.5617 26.9284 13.0951 28.3778 12.3554 29.6867C11.6157 30.9955 10.6187 32.1358 9.42646 33.0366C8.45842 33.7493 7.37152 34.2784 6.21816 34.5985C5.93566 34.8684 5.63745 35.1208 5.32512 35.3543C3.70562 36.5917 1.90999 37.5714 0 38.2598C0.489542 39.2956 1.04186 40.2997 1.65376 41.2661C4.38248 45.448 9.06263 46.7244 13.8255 48.5046C16.5873 49.5459 18.671 52.0819 21.532 51.998C23.3629 51.9476 25.1825 51.6885 26.9564 51.2254C26.6775 50.8823 26.418 50.5235 26.1791 50.1505C25.4716 49.0765 25.0135 47.8533 24.8395 46.5732C24.6701 45.0621 24.8281 43.5316 25.3026 42.089V41.9211C24.815 41.4499 24.4902 40.8314 24.3765 40.1576C24.2524 38.4437 24.7592 36.744 25.7987 35.3879C26.8925 33.7432 28.1445 32.2129 29.5362 30.8197C31.0908 29.1402 32.5296 27.4607 34.1833 25.882C35.0095 24.97 36.0487 24.2841 37.2049 23.8878C38.3611 23.4915 39.597 23.3976 40.7984 23.6147C42.7155 22.5899 44.835 22.016 47 21.9352C46.6725 19.2734 45.7382 16.7259 44.2713 14.4951Z" fill="#FF6550"/>
<path d="M46.916 21.6217C45.2606 21.6511 43.623 21.2844 42.1455 20.5535C38.9371 18.9101 37.2909 15.3605 33.881 13.9801C30.471 12.5997 27.1619 13.2406 23.9031 11.9259C22.5205 11.3865 21.394 10.3606 20.7452 9.05C20.3337 7.68934 19.642 6.42543 18.7126 5.33601C17.4719 4.45254 16.069 3.81092 14.5804 3.44615C13.637 3.12942 12.7646 2.63849 12.0104 2C13.4563 3.50913 14.5358 5.31787 15.1683 7.29161C15.5361 8.58495 15.6893 9.92769 15.6219 11.2685C16.1527 11.663 16.5983 12.1567 16.9328 12.7209C17.2673 13.285 17.484 13.9085 17.5704 14.5552C17.689 16.0805 17.3995 17.6097 16.7305 18.9923C16.11 20.3078 15.2244 21.4872 14.1269 22.4598C13.8581 22.7063 13.5726 22.9364 13.287 23.15C13.3317 23.9287 13.3036 24.7098 13.203 25.4836C13.0359 26.9511 12.5619 28.3694 11.8106 29.6501C11.0592 30.9308 10.0466 32.0465 8.8356 32.928C7.85234 33.6253 6.74834 34.1431 5.57684 34.4563C5.28991 34.7204 4.987 34.9673 4.66976 35.1958C3.23797 36.2517 1.66724 37.114 0 37.7594C0.631075 37.866 1.23892 38.0772 1.79736 38.3839C2.85561 38.9591 3.76269 39.7808 4.77055 40.4545C5.7724 41.1273 6.92438 41.5556 8.13009 41.7035C9.47391 41.9171 10.8345 41.9171 12.1783 42.0157C13.5387 42.0748 14.8841 42.3182 16.1762 42.7388C17.4558 43.2128 18.6828 43.8129 19.8381 44.5301C21.8026 45.8961 23.6713 47.3895 25.4317 49C24.9496 48.1328 24.6363 47.1855 24.5079 46.2063C24.3254 44.718 24.4802 43.2087 24.9614 41.7857V41.6213C24.4661 41.1603 24.1362 40.5551 24.0207 39.8958C23.8946 38.2187 24.4094 36.5556 25.4653 35.2287C26.5763 33.6194 27.848 32.122 29.2616 30.7587C30.8406 29.1154 32.302 27.472 33.9818 25.9273C34.8209 25.0348 35.8764 24.3637 37.0508 23.976C38.2252 23.5882 39.4806 23.4963 40.7009 23.7087C42.6481 22.706 44.8009 22.1444 47 22.0654L46.916 21.6217Z" fill="#FFEA94"/>
<path d="M24.8962 31.9643C22.7133 31.4801 24.9988 26.5269 26.6543 25C27.2404 26.769 27.3283 32.5043 24.8962 31.9643Z" fill="#754F36"/>
<path d="M15.591 28.1632C18.3799 30.7892 21.6491 26.726 22 23C19.8944 23.7452 12.9498 25.626 15.591 28.1632Z" fill="#754F36"/>
</svg>
