<svg width="65" height="56" viewBox="0 0 65 56" fill="none" xmlns="http://www.w3.org/2000/svg">
<path d="M38.9612 54.24C39.664 53.7291 40.2759 53.1038 40.7713 52.39C41.2691 51.6957 41.8032 51.0281 42.3713 50.39C43.0455 49.6884 43.8598 49.1365 44.7612 48.77C46.7612 47.9 49.0913 47.77 51.0913 46.77C54.963 44.7796 58.2066 41.754 60.4612 38.03C62.5785 34.6578 63.9018 30.8486 64.3313 26.89C64.6861 23.3153 64.3465 19.7058 63.3312 16.26C62.7287 14.1533 61.9458 12.1023 60.9912 10.13C60.2312 9.68 59.4513 9.27 58.6613 8.89C58.0713 8.61 57.4612 8.37001 56.8912 8.06001C56.3212 7.75001 55.7212 7.31 55.1412 6.93C54.6135 6.49257 54.1726 5.96003 53.8413 5.36C53.4559 4.72527 53.0283 4.11723 52.5612 3.54C52.1623 3.08604 51.697 2.69496 51.1812 2.38C50.4712 2.08 49.7512 1.8 49.0112 1.55C47.8829 1.31995 46.7196 1.31995 45.5913 1.55C44.2519 1.94502 42.9474 2.45007 41.6912 3.06001C40.5774 3.58651 39.3057 3.67225 38.1313 3.3C36.2113 2.59 35.2613 0.399999 33.1313 0.139999C33.0842 0.137873 33.0385 0.123934 32.9983 0.0994644C32.9581 0.0749948 32.9247 0.0407844 32.9012 0C31.1686 0.556514 29.4941 1.27991 27.9012 2.16C23.961 4.36674 20.4623 7.28231 17.5812 10.76C14.7258 14.112 12.4633 17.9268 10.8912 22.04C9.53125 25.65 8.74125 29.47 7.06125 32.97C6.2913 34.668 5.22076 36.2128 3.90125 37.53C2.78278 38.588 1.46808 39.4169 0.03125 39.97C0.10125 40.17 0.171247 40.38 0.251247 40.59C1.17865 43.1172 2.54645 45.46 4.29125 47.51C4.53081 47.2891 4.79605 47.0977 5.08125 46.94C7.49125 45.61 10.5413 46.54 12.9113 47.49C15.5302 48.6469 18.081 49.9524 20.5513 51.4C21.9714 52.1437 23.4301 52.8113 24.9212 53.4C26.7295 54.1778 28.608 54.7806 30.5312 55.2C32.4159 55.6329 34.369 55.6771 36.2713 55.33C37.2291 55.1412 38.1421 54.7712 38.9612 54.24Z" fill="#96A53D"/>
<path d="M58.4798 12.6202C58.8413 12.2815 59.281 12.0375 59.7598 11.9102C59.4214 11.6379 59.0522 11.4063 58.6598 11.2202C58.1298 10.9602 57.5698 10.7502 57.0598 10.4502C56.6031 10.1702 56.1831 9.8343 55.8098 9.4502C54.4698 9.6402 53.1498 9.8902 51.8098 10.2002C49.2877 10.9264 46.8185 11.8252 44.4198 12.8902C38.3582 15.4438 32.837 19.1258 28.1498 23.7402C25.4204 26.6224 22.8691 29.668 20.5098 32.8602L24.0198 30.3102C25.9198 28.9502 27.8398 27.6002 29.7998 26.3102C31.7598 25.0202 33.7998 23.8302 35.9198 22.6802C42.8298 18.8302 50.1898 15.3702 58.0098 14.0302C57.9628 13.7746 57.9812 13.5113 58.0634 13.2647C58.1456 13.0182 58.2888 12.7965 58.4798 12.6202Z" fill="#B6CC5A"/>
<path d="M12.29 38.5098C13.23 37.9298 14.16 37.3198 15.08 36.6898C16.951 34.3668 18.6839 31.9359 20.27 29.4098C22.3197 26.5522 24.7717 24.0058 27.55 21.8498C28.95 20.7598 30.42 19.7598 31.87 18.7398C33.32 17.7198 34.87 16.7398 36.4 15.8298C41.2077 12.9607 46.4192 10.8302 51.86 9.50981C52.86 9.21981 53.92 8.95981 54.97 8.72981C54.3922 8.27973 53.6988 8.00237 52.97 7.92981C52.0682 7.90678 51.1708 8.06314 50.33 8.38981C48.42 9.01981 46.54 9.82981 44.49 9.56981C43.523 9.45708 42.5971 9.11416 41.79 8.56981C41.02 8.03981 40.37 7.37981 39.66 6.78981C38.9657 6.12806 38.0934 5.68322 37.15 5.50981C36.114 5.4646 35.0774 5.58615 34.08 5.86981C33.4207 6.04105 32.7258 6.01673 32.08 5.79981C31.2836 5.35126 30.5808 4.75374 30.01 4.03981C29.4208 3.54982 28.7033 3.23938 27.9428 3.14542C27.1822 3.05146 26.4107 3.17794 25.72 3.50981C22.6549 5.53516 19.9024 7.99788 17.55 10.8198C14.6945 14.1718 12.432 17.9866 10.86 22.0998C9.5 25.7098 8.71 29.5298 7.03 33.0298C6.26006 34.7278 5.18951 36.2726 3.87 37.5898C2.75153 38.6478 1.43683 39.4767 0 40.0298C0.07 40.2298 0.140001 40.4398 0.220001 40.6498C0.616123 41.6846 1.09084 42.6875 1.64 43.6498C5.38202 42.3667 8.95735 40.6411 12.29 38.5098Z" fill="#B6CC5A"/>
<path d="M50.4315 33.3893C50.5765 33.3844 50.7215 33.4012 50.8615 33.4393C50.7542 33.2589 50.6863 33.0578 50.6622 32.8493C50.6381 32.6408 50.6583 32.4295 50.7215 32.2293C50.7712 32.0916 50.8314 31.9579 50.9015 31.8293C50.4333 31.4336 50.1132 30.8908 49.9933 30.2896C49.8734 29.6884 49.9609 29.0644 50.2415 28.5193V28.4493C47.9795 28.5493 45.713 28.4389 43.4715 28.1193C42.0361 27.9216 40.623 27.5868 39.2515 27.1193C38.2573 26.8008 37.3433 26.2722 36.5715 25.5693C33.0115 27.9493 29.5715 30.4693 26.0215 32.8993C27.4015 32.6393 28.7815 32.4293 30.1715 32.2793C36.8877 31.6064 43.6675 31.9741 50.2715 33.3693L50.4315 33.3893Z" fill="#B6CC5A"/>
<path d="M52.4816 38.09C52.3734 37.4961 52.3198 36.8936 52.3216 36.29C52.32 36.0245 52.3862 35.763 52.514 35.5302C52.6417 35.2975 52.8268 35.1012 53.0516 34.96L51.9916 34.73C52.0408 34.962 52.0375 35.2021 51.9819 35.4327C51.9263 35.6633 51.8198 35.8785 51.6702 36.0626C51.5206 36.2467 51.3318 36.395 51.1174 36.4966C50.9031 36.5983 50.6688 36.6507 50.4316 36.65C50.1474 36.645 49.8695 36.5658 49.6254 36.4202C49.3812 36.2747 49.1794 36.0678 49.0399 35.8202C48.9005 35.5725 48.8281 35.2927 48.8302 35.0085C48.8322 34.7243 48.9085 34.4456 49.0516 34.2L48.5116 34.11C43.9983 33.3692 39.4213 33.0911 34.8516 33.28C35.5182 33.82 36.2182 34.35 36.9516 34.87C37.1812 34.9566 37.3845 35.1013 37.5416 35.29L38.5416 35.97L39.0816 36.33C39.1267 36.2541 39.1804 36.1836 39.2416 36.12C39.5626 35.7642 39.9875 35.5186 40.456 35.4181C40.9246 35.3175 41.4129 35.3672 41.8516 35.56C42.5411 35.903 43.1071 36.4516 43.4716 37.13C43.6469 37.432 43.7173 37.7837 43.6716 38.13C45.2816 37.52 46.8316 38.24 47.9116 39.77C48.1416 40.1 48.3316 40.48 48.5416 40.84C48.5348 40.5139 48.6243 40.1931 48.7987 39.9176C48.9732 39.6421 49.2249 39.4241 49.5225 39.2907C49.8201 39.1574 50.1504 39.1147 50.4721 39.1679C50.7938 39.2211 51.0927 39.3679 51.3316 39.59C51.5016 39.75 51.7816 40.07 52.0616 40.3C52.1445 40.0002 52.3151 39.732 52.5516 39.53C52.7514 39.3303 52.9994 39.1856 53.2716 39.11H53.3716C53.1553 39.019 52.9627 38.8798 52.8085 38.703C52.6542 38.5262 52.5424 38.3165 52.4816 38.09Z" fill="#B6CC5A"/>
<path d="M45.8007 42.6893C45.5307 42.2493 45.2707 41.7993 44.9607 41.3693C44.9001 41.3019 44.8292 41.2445 44.7507 41.1993C44.5899 41.2899 44.4391 41.3972 44.3007 41.5193C44.0476 41.7064 43.7337 41.792 43.4207 41.7593C43.0722 42.0298 42.6585 42.2037 42.2213 42.2634C41.7842 42.3231 41.339 42.2665 40.9307 42.0993C40.6679 41.9819 40.4276 41.8194 40.2207 41.6193L39.9807 41.7293C37.9807 42.8193 35.8907 41.9593 36.1707 39.4193C36.2113 39.1092 36.3329 38.8153 36.5232 38.5672C36.7135 38.319 36.9658 38.1254 37.2547 38.0057C37.5437 37.8861 37.859 37.8447 38.169 37.8857C38.4791 37.9267 38.7728 38.0487 39.0207 38.2393C38.7987 37.9328 38.6956 37.5561 38.7307 37.1793L37.8907 36.6293C37.86 37.0174 37.6806 37.3787 37.3899 37.6377C37.0993 37.8967 36.7198 38.0334 36.3307 38.0193C35.9775 38.0045 35.6383 37.8773 35.3624 37.6562C35.0865 37.4352 34.8884 37.1319 34.7969 36.7904C34.7054 36.449 34.7253 36.0872 34.8537 35.7579C34.9821 35.4285 35.2123 35.1487 35.5107 34.9593C34.7107 34.3793 33.9207 33.7793 33.1407 33.1693C33.0978 33.1302 33.0638 33.0825 33.0407 33.0293C29.2584 33.2094 25.5255 33.9647 21.9707 35.2693C16.0014 39.4643 9.53552 42.9038 2.7207 45.5093C3.0407 45.9693 3.3707 46.4193 3.7207 46.8493C3.74146 46.7704 3.79153 46.7025 3.8607 46.6593C5.03123 45.9382 6.28775 45.3671 7.6007 44.9593C13.0226 43.3664 18.8477 43.8992 23.8907 46.4493C26.3007 47.6293 28.5707 49.0593 31.0207 50.1493C33.4707 51.2393 36.1007 51.6593 38.3907 50.0893C39.0562 49.603 39.6518 49.0276 40.1607 48.3793C39.8036 48.146 39.5441 47.7904 39.4307 47.3793C39.2407 46.8893 39.1207 46.3793 38.9407 45.9093C38.8353 45.4932 38.8951 45.0525 39.1077 44.6796C39.3202 44.3067 39.669 44.0306 40.0807 43.9093C40.2915 43.8523 40.5115 43.838 40.7278 43.8672C40.9442 43.8964 41.1526 43.9685 41.3407 44.0793C41.4302 44.1302 41.514 44.1905 41.5907 44.2593C41.7743 44.0613 42.0052 43.9133 42.2618 43.8292C42.5184 43.7452 42.7921 43.7279 43.0572 43.7789C43.3224 43.8299 43.5701 43.9476 43.7772 44.1209C43.9842 44.2942 44.1437 44.5173 44.2407 44.7693C45.2202 44.5216 46.2338 44.4372 47.2407 44.5193C46.6568 43.9987 46.1693 43.3792 45.8007 42.6893ZM36.9207 50.2593C36.4884 50.2593 36.0738 50.0876 35.7681 49.7819C35.4624 49.4762 35.2907 49.0616 35.2907 48.6293C35.2907 48.197 35.4624 47.7824 35.7681 47.4767C36.0738 47.171 36.4884 46.9993 36.9207 46.9993C37.353 46.9993 37.7676 47.171 38.0733 47.4767C38.379 47.7824 38.5507 48.197 38.5507 48.6293C38.5507 49.0616 38.379 49.4762 38.0733 49.7819C37.7676 50.0876 37.353 50.2593 36.9207 50.2593Z" fill="#B6CC5A"/>
<path d="M60.2805 17.3302C59.9892 17.1701 59.7602 16.9164 59.6306 16.6102C59.3831 16.5459 59.1421 16.4588 58.9106 16.3502C58.7038 16.239 58.5263 16.0804 58.3925 15.8875C58.2587 15.6946 58.1724 15.4728 58.1405 15.2402C54.3714 15.9027 50.7237 17.1298 47.3205 18.8802C43.6897 20.7004 40.1792 22.7513 36.8105 25.0202C37.7592 25.8 38.8747 26.3509 40.0705 26.6302C40.8305 26.8502 41.6106 27.0302 42.4006 27.1802L42.4605 27.1202C44.3765 25.9375 46.4368 25.0065 48.5906 24.3502C48.5358 24.118 48.5347 23.8763 48.5874 23.6435C48.6401 23.4108 48.7451 23.1931 48.8946 23.007C49.044 22.8209 49.2339 22.6714 49.4498 22.5697C49.6657 22.468 49.9019 22.4169 50.1405 22.4202C50.4835 22.4074 50.8206 22.5126 51.0954 22.7182C51.3702 22.9239 51.5661 23.2175 51.6506 23.5502C52.4206 23.3902 53.1906 23.2502 53.9706 23.1202C53.8307 23.0091 53.7121 22.8736 53.6206 22.7202C53.4107 22.3446 53.3549 21.902 53.4649 21.486C53.575 21.07 53.8423 20.713 54.2105 20.4902C54.5912 20.2307 55.0252 20.0598 55.4806 19.9902C55.1218 19.8417 54.8279 19.5699 54.6517 19.2239C54.4755 18.8779 54.4286 18.4803 54.5195 18.1028C54.6104 17.7253 54.833 17.3926 55.1474 17.1647C55.4617 16.9367 55.8472 16.8285 56.2342 16.8595C56.6213 16.8904 56.9846 17.0586 57.2587 17.3336C57.5328 17.6086 57.6998 17.9724 57.7295 18.3596C57.7592 18.7467 57.6497 19.1318 57.4207 19.4454C57.1918 19.759 56.8584 19.9806 56.4806 20.0702C56.7574 20.1723 57.0071 20.3365 57.2105 20.5502C57.2816 20.6238 57.3453 20.7042 57.4006 20.7902C57.6254 20.7778 57.8491 20.7511 58.0705 20.7102C58.374 20.6614 58.6843 20.6784 58.9806 20.7602C59.1702 20.3997 59.4296 20.0806 59.7438 19.8213C60.058 19.5621 60.4206 19.3679 60.8105 19.2502C60.9964 19.1673 61.1971 19.1231 61.4006 19.1202C61.5699 18.5701 61.6805 18.0036 61.7306 17.4302C61.4969 17.5239 61.2452 17.5636 60.9941 17.5462C60.743 17.5289 60.4991 17.4551 60.2805 17.3302Z" fill="#B6CC5A"/>
</svg>
