<svg width="58" height="62" viewBox="0 0 58 62" fill="none" xmlns="http://www.w3.org/2000/svg">
<path d="M28.6168 61.4726C26.6348 61.4726 25.0493 61.0193 23.9922 60.245C22.2556 58.9797 21.9725 56.8833 23.1617 54.3149C23.3127 53.9938 23.4637 53.6917 23.6525 53.3706C22.5388 53.4462 21.3874 53.4084 20.2171 53.2384C17.0082 52.7663 14.8186 50.1412 14.3844 46.2507C13.6671 39.8485 17.7821 31.501 27.0123 27.9316L27.1445 28.2716C18.0841 31.7843 14.0635 39.9429 14.7619 46.213C15.1772 49.9334 17.2347 52.4263 20.2737 52.8796C21.5195 53.0684 22.7275 53.0873 23.8978 52.9929C26.2762 49.1591 30.9196 45.703 33.298 46.2696C34.0908 46.4585 34.4683 46.9684 34.3362 47.6671C33.9398 49.6879 29.5983 52.8229 24.1243 53.3328C23.8978 53.7106 23.6902 54.0883 23.5203 54.466C22.7464 56.1657 22.2368 58.4886 24.2376 59.9428C27.8995 62.6057 38.168 61.2648 49.5123 49.9334L49.7766 50.1978C41.4712 58.4886 33.7321 61.4726 28.6168 61.4726ZM32.7128 46.5718C30.4477 46.5718 26.5216 49.6124 24.3697 52.9551C29.6172 52.3508 33.6377 49.3102 33.9586 47.6105C34.053 47.1006 33.8076 46.7795 33.2036 46.6284C33.0337 46.5907 32.8827 46.5718 32.7128 46.5718Z" fill="#262420"/>
<path d="M35.0894 29.1211H21.9141V38.0162H35.0894V29.1211Z" fill="#636157"/>
<path d="M42.6594 36.8643H14.3457V39.1494H42.6594V36.8643Z" fill="#7A786E"/>
<path d="M57.0049 0H0V32.9744H57.0049V0Z" fill="#7A786E"/>
<path d="M57.0049 0H0V32.9744H57.0049V0Z" fill="#7A786E"/>
<path d="M55.1562 1.85059H1.83203V31.1422H55.1562V1.85059Z" fill="#3A3832"/>
<path d="M42.6594 36.8643H14.3457V37.4308H42.6594V36.8643Z" fill="#9B9A94"/>
<path d="M33.0336 31.0292C33.0147 31.0292 32.9958 31.0292 32.977 31.0103C32.9392 30.9725 32.9203 30.9159 32.9581 30.8781C39.3759 22.3985 44.0382 12.4457 46.4543 2.0775C46.4732 2.02084 46.5109 2.00195 46.5675 2.00195C46.6242 2.02084 46.643 2.05861 46.643 2.11527C44.2269 12.5024 39.5457 22.474 33.1091 30.9725C33.0902 31.0292 33.0525 31.0292 33.0336 31.0292Z" fill="#9B9A94"/>
<path d="M44.1131 30.6893C44.0565 30.6893 44.0187 30.6516 44.0187 30.5949C43.6978 25.9868 42.7918 21.4354 41.3195 17.0539C41.3006 16.9972 41.3384 16.9595 41.3761 16.9406C41.4327 16.9217 41.4705 16.9595 41.4894 16.9972C42.9617 21.3787 43.8866 25.949 44.2075 30.576C44.2075 30.6327 44.1697 30.6704 44.1131 30.6893Z" fill="#9B9A94"/>
<path d="M40.0366 15.751C39.9988 15.751 39.9799 15.7321 39.9611 15.7133C37.2429 11.6717 35.4875 6.96919 34.9023 2.13447C34.9023 2.07781 34.9401 2.04004 34.9779 2.04004C35.0345 2.04004 35.0722 2.07781 35.0722 2.11558C35.6574 6.93142 37.394 11.5962 40.1121 15.5999C40.1498 15.6377 40.1309 15.6944 40.0932 15.7321C40.0743 15.7321 40.0554 15.751 40.0366 15.751Z" fill="#9B9A94"/>
<path d="M36.544 9.1589C34.7885 9.00781 33.033 8.13907 31.5985 6.72265C30.4282 5.57062 29.4466 4.09754 28.5406 2.07678C28.5217 2.03901 28.5406 1.98235 28.5784 1.96346C28.6161 1.94458 28.6727 1.96346 28.6916 2.00124C29.5977 3.98423 30.5603 5.45731 31.7117 6.59045C33.1274 7.98799 34.8451 8.83784 36.544 8.97004C36.6006 8.97004 36.6383 9.0267 36.6195 9.06447C36.6383 9.12113 36.6006 9.1589 36.544 9.1589Z" fill="#9B9A94"/>
<path d="M38.3943 13.0308C38.3566 13.0308 38.3188 13.012 38.2999 12.9553C38.2811 12.8986 38.3188 12.8609 38.3566 12.842C39.6213 12.4832 40.7538 11.5011 41.792 9.85805C43.2643 7.53512 44.1137 4.85336 44.2647 2.11494C44.2647 2.05828 44.3025 2.02051 44.3591 2.02051C44.4157 2.02051 44.4535 2.05828 44.4535 2.11494C44.3025 4.89113 43.4342 7.61066 41.943 9.95248C40.8671 11.6522 39.7156 12.6531 38.3943 13.0308C38.4132 13.0308 38.4132 13.0308 38.3943 13.0308Z" fill="#9B9A94"/>
<path d="M52.5505 30.746C52.5128 30.746 52.475 30.7272 52.4562 30.6894C50.663 24.646 45.2267 21.0955 42.1311 19.528C42.0933 19.5091 42.0745 19.4524 42.0933 19.3958C42.1122 19.358 42.1688 19.3391 42.2255 19.358C45.34 20.9444 50.8328 24.5138 52.6449 30.6327C52.6638 30.6894 52.626 30.7272 52.5883 30.746C52.5694 30.746 52.5505 30.746 52.5505 30.746Z" fill="#9B9A94"/>
<path d="M50.6816 46.3643L53.3242 49.1405L50.5495 51.2179C49.9266 51.69 49.0583 51.6145 48.5298 51.0479C48.0012 50.4813 47.9635 49.6126 48.4731 49.0271L50.6816 46.3643Z" fill="#262420"/>
<path d="M51.8313 49.3099C51.7747 49.3099 51.737 49.291 51.6992 49.2532C51.6237 49.1777 51.6237 49.0644 51.6992 48.9888L53.6812 47.1192C53.7567 47.0436 53.8699 47.0436 53.9454 47.1192C54.0209 47.1947 54.0209 47.308 53.9454 47.3836L51.9635 49.2532C51.9068 49.3099 51.8691 49.3099 51.8313 49.3099Z" fill="#262420"/>
<path d="M50.6048 48.0452C50.5481 48.0452 50.5104 48.0264 50.4726 47.9886C50.3971 47.913 50.3971 47.7997 50.4726 47.7242L52.4546 45.8545C52.5301 45.779 52.6434 45.779 52.7189 45.8545C52.7944 45.9301 52.7944 46.0434 52.7189 46.1189L50.7369 47.9886C50.6992 48.0264 50.6614 48.0452 50.6048 48.0452Z" fill="#262420"/>
<path d="M6.07812 31.1422H12.7979L17.0638 1.85059H10.3629L6.07812 31.1422Z" fill="#C6C6C4"/>
<path d="M55.1562 1.85059H1.83203V2.39827H55.1562V1.85059Z" fill="#262420"/>
<path d="M55.1562 30.5947H1.83203V31.1424H55.1562V30.5947Z" fill="#9B9A94"/>
</svg>
