<svg width="40" height="53" viewBox="0 0 40 53" fill="none" xmlns="http://www.w3.org/2000/svg">
<path d="M20.4505 52.3425L1.29365 44.4671C0.203043 44.0401 -0.27114 42.8066 0.155621 41.7154L16.7519 1.29432C17.1786 0.203143 18.4115 -0.27128 19.5021 0.155703L38.7064 8.03118C39.797 8.45816 40.2711 9.69166 39.8444 10.7828L23.2481 51.2039C22.7739 52.2951 21.5411 52.817 20.4505 52.3425Z" fill="#7A786E"/>
<path d="M37.8058 9.16915L32.7321 7.08168C32.3527 6.93936 31.926 7.12912 31.7363 7.50866C31.5941 7.8882 31.1199 8.07797 30.7405 7.93564L25.2401 5.70584C24.8607 5.56351 24.671 5.08909 24.8133 4.70955C24.9555 4.33001 24.7659 3.90303 24.3865 3.71326L19.3128 1.62578C18.649 1.34113 17.8903 1.67323 17.6058 2.33742L1.43628 41.7622C1.15177 42.4264 1.4837 43.1855 2.14755 43.4702L20.4983 51.0135C21.1621 51.2982 21.9208 50.9661 22.2053 50.3019L38.3748 10.8771C38.8016 10.2129 38.4696 9.45381 37.8058 9.16915Z" fill="#3A3832"/>
<path d="M30.3612 7.12814L25.9513 5.32532C25.8565 5.27788 25.8091 5.183 25.8565 5.08811C25.9039 4.99323 25.9987 4.94578 26.0936 4.99322L30.5034 6.79605C30.5983 6.84349 30.6457 6.93838 30.5983 7.03326C30.5983 7.12815 30.456 7.17558 30.3612 7.12814Z" fill="#3A3832"/>
<path d="M37.8051 9.16972L35.2445 8.12598L12.0098 47.4085L20.6398 50.9667C21.3037 51.2513 22.0624 50.9192 22.3469 50.255L38.5164 10.8302C38.8009 10.2135 38.4689 9.45438 37.8051 9.16972Z" fill="#C6C6C4"/>
</svg>
