<svg width="71" height="29" viewBox="0 0 71 29" fill="none" xmlns="http://www.w3.org/2000/svg">
<path d="M69.2776 28.6547H1.34044C0.588485 28.6547 0 28.0659 0 27.3135V2.78059C0 2.02825 0.588485 1.43945 1.34044 1.43945H69.2776C70.0295 1.43945 70.618 2.02825 70.618 2.78059V27.3135C70.618 28.0659 69.9968 28.6547 69.2776 28.6547Z" fill="#BFBFBF"/>
<path d="M69.2776 27.2152H1.34044C0.588485 27.2152 0 26.6264 0 25.8741V1.34114C0 0.588792 0.588485 0 1.34044 0H69.2776C70.0295 0 70.618 0.588792 70.618 1.34114V25.8741C70.618 26.5937 69.9968 27.2152 69.2776 27.2152Z" fill="#DDDDDB"/>
<path d="M4.70694 3.63086H2.32031V6.01873H4.70694V3.63086Z" fill="#BFBFBF"/>
<path d="M7.97647 3.63086H5.58984V6.01873H7.97647V3.63086Z" fill="#BFBFBF"/>
<path d="M4.70694 21.1641H2.32031V23.5519H4.70694V21.1641Z" fill="#BFBFBF"/>
<path d="M7.97647 21.1641H5.58984V23.5519H7.97647V21.1641Z" fill="#BFBFBF"/>
<path d="M11.2792 21.1641H8.89258V23.5519H11.2792V21.1641Z" fill="#BFBFBF"/>
<path d="M14.5819 21.1641H12.1953V23.5519H14.5819V21.1641Z" fill="#BFBFBF"/>
<path d="M40.9648 21.1641H38.5781V23.5519H40.9648V21.1641Z" fill="#BFBFBF"/>
<path d="M44.2675 21.1641H41.8809V23.5519H44.2675V21.1641Z" fill="#BFBFBF"/>
<path d="M47.5683 21.1641H45.1816V23.5519H47.5683V21.1641Z" fill="#BFBFBF"/>
<path d="M50.871 21.1641H48.4844V23.5519H50.871V21.1641Z" fill="#BFBFBF"/>
<path d="M54.1405 21.1641H51.7539V23.5519H54.1405V21.1641Z" fill="#BFBFBF"/>
<path d="M11.2792 3.63086H8.89258V6.01873H11.2792V3.63086Z" fill="#BFBFBF"/>
<path d="M14.5819 3.63086H12.1953V6.01873H14.5819V3.63086Z" fill="#BFBFBF"/>
<path d="M17.8827 3.63086H15.4961V6.01873H17.8827V3.63086Z" fill="#BFBFBF"/>
<path d="M21.1855 3.63086H18.7988V6.01873H21.1855V3.63086Z" fill="#BFBFBF"/>
<path d="M24.4882 3.63086H22.1016V6.01873H24.4882V3.63086Z" fill="#BFBFBF"/>
<path d="M27.789 3.63086H25.4023V6.01873H27.789V3.63086Z" fill="#BFBFBF"/>
<path d="M31.0585 3.63086H28.6719V6.01873H31.0585V3.63086Z" fill="#BFBFBF"/>
<path d="M34.3612 3.63086H31.9746V6.01873H34.3612V3.63086Z" fill="#BFBFBF"/>
<path d="M37.662 3.63086H35.2754V6.01873H37.662V3.63086Z" fill="#BFBFBF"/>
<path d="M40.9648 3.63086H38.5781V6.01873H40.9648V3.63086Z" fill="#BFBFBF"/>
<path d="M44.2675 3.63086H41.8809V6.01873H44.2675V3.63086Z" fill="#BFBFBF"/>
<path d="M47.5683 3.63086H45.1816V6.01873H47.5683V3.63086Z" fill="#BFBFBF"/>
<path d="M50.871 3.63086H48.4844V6.01873H50.871V3.63086Z" fill="#BFBFBF"/>
<path d="M54.1405 3.63086H51.7539V6.01873H54.1405V3.63086Z" fill="#BFBFBF"/>
<path d="M8.00898 17.8271H2.32031V20.215H8.00898V17.8271Z" fill="#BFBFBF"/>
<path d="M6.27623 14.5234H2.32031V16.9113H6.27623V14.5234Z" fill="#BFBFBF"/>
<path d="M54.1083 14.5234H50.1523V16.9113H54.1083V14.5234Z" fill="#BFBFBF"/>
<path d="M11.2792 17.8271H8.89258V20.215H11.2792V17.8271Z" fill="#BFBFBF"/>
<path d="M14.5819 17.8271H12.1953V20.215H14.5819V17.8271Z" fill="#BFBFBF"/>
<path d="M17.8827 17.8271H15.4961V20.215H17.8827V17.8271Z" fill="#BFBFBF"/>
<path d="M21.1855 17.8271H18.7988V20.215H21.1855V17.8271Z" fill="#BFBFBF"/>
<path d="M24.4882 17.8271H22.1016V20.215H24.4882V17.8271Z" fill="#BFBFBF"/>
<path d="M27.789 17.8271H25.4023V20.215H27.789V17.8271Z" fill="#BFBFBF"/>
<path d="M31.0585 17.8271H28.6719V20.215H31.0585V17.8271Z" fill="#BFBFBF"/>
<path d="M34.3612 17.8271H31.9746V20.215H34.3612V17.8271Z" fill="#BFBFBF"/>
<path d="M37.662 17.8271H35.2754V20.215H37.662V17.8271Z" fill="#BFBFBF"/>
<path d="M40.9648 17.8271H38.5781V20.215H40.9648V17.8271Z" fill="#BFBFBF"/>
<path d="M44.2675 17.8271H41.8809V20.215H44.2675V17.8271Z" fill="#BFBFBF"/>
<path d="M47.5683 17.8271H45.1816V20.215H47.5683V17.8271Z" fill="#BFBFBF"/>
<path d="M11.2792 11.2197H8.89258V13.6076H11.2792V11.2197Z" fill="#BFBFBF"/>
<path d="M14.5819 11.2197H12.1953V13.6076H14.5819V11.2197Z" fill="#BFBFBF"/>
<path d="M4.70694 11.2197H2.32031V13.6076H4.70694V11.2197Z" fill="#BFBFBF"/>
<path d="M7.97647 11.2197H5.58984V13.6076H7.97647V11.2197Z" fill="#BFBFBF"/>
<path d="M17.8827 11.2197H15.4961V13.6076H17.8827V11.2197Z" fill="#BFBFBF"/>
<path d="M21.1855 11.2197H18.7988V13.6076H21.1855V11.2197Z" fill="#BFBFBF"/>
<path d="M24.4882 11.2197H22.1016V13.6076H24.4882V11.2197Z" fill="#BFBFBF"/>
<path d="M27.789 11.2197H25.4023V13.6076H27.789V11.2197Z" fill="#BFBFBF"/>
<path d="M31.0585 11.2197H28.6719V13.6076H31.0585V11.2197Z" fill="#BFBFBF"/>
<path d="M34.3612 11.2197H31.9746V13.6076H34.3612V11.2197Z" fill="#BFBFBF"/>
<path d="M37.662 11.2197H35.2754V13.6076H37.662V11.2197Z" fill="#BFBFBF"/>
<path d="M50.871 11.2197H48.4844V13.6076H50.871V11.2197Z" fill="#BFBFBF"/>
<path d="M54.1405 11.2197H51.7539V13.6076H54.1405V11.2197Z" fill="#BFBFBF"/>
<path d="M40.9648 11.2197H38.5781V13.6076H40.9648V11.2197Z" fill="#BFBFBF"/>
<path d="M44.2675 11.2197H41.8809V13.6076H44.2675V11.2197Z" fill="#BFBFBF"/>
<path d="M47.5683 11.2197H45.1816V13.6076H47.5683V11.2197Z" fill="#BFBFBF"/>
<path d="M11.2792 7.91602H8.89258V10.3039H11.2792V7.91602Z" fill="#BFBFBF"/>
<path d="M14.5819 7.91602H12.1953V10.3039H14.5819V7.91602Z" fill="#BFBFBF"/>
<path d="M4.70694 7.91602H2.32031V10.3039H4.70694V7.91602Z" fill="#BFBFBF"/>
<path d="M7.97647 7.91602H5.58984V10.3039H7.97647V7.91602Z" fill="#BFBFBF"/>
<path d="M17.8827 7.91602H15.4961V10.3039H17.8827V7.91602Z" fill="#BFBFBF"/>
<path d="M21.1855 7.91602H18.7988V10.3039H21.1855V7.91602Z" fill="#BFBFBF"/>
<path d="M24.4882 7.91602H22.1016V10.3039H24.4882V7.91602Z" fill="#BFBFBF"/>
<path d="M27.789 7.91602H25.4023V10.3039H27.789V7.91602Z" fill="#BFBFBF"/>
<path d="M31.0585 7.91602H28.6719V10.3039H31.0585V7.91602Z" fill="#BFBFBF"/>
<path d="M34.3612 7.91602H31.9746V10.3039H34.3612V7.91602Z" fill="#BFBFBF"/>
<path d="M37.662 7.91602H35.2754V10.3039H37.662V7.91602Z" fill="#BFBFBF"/>
<path d="M50.871 7.91602H48.4844V10.3039H50.871V7.91602Z" fill="#BFBFBF"/>
<path d="M54.1405 7.91602H51.7539V10.3039H54.1405V7.91602Z" fill="#BFBFBF"/>
<path d="M40.9648 7.91602H38.5781V10.3039H40.9648V7.91602Z" fill="#BFBFBF"/>
<path d="M44.2675 7.91602H41.8809V10.3039H44.2675V7.91602Z" fill="#BFBFBF"/>
<path d="M47.5683 7.91602H45.1816V10.3039H47.5683V7.91602Z" fill="#BFBFBF"/>
<path d="M9.64444 14.5234H7.25781V16.9113H9.64444V14.5234Z" fill="#BFBFBF"/>
<path d="M12.9472 14.5234H10.5605V16.9113H12.9472V14.5234Z" fill="#BFBFBF"/>
<path d="M16.248 14.5234H13.8613V16.9113H16.248V14.5234Z" fill="#BFBFBF"/>
<path d="M19.5175 14.5234H17.1309V16.9113H19.5175V14.5234Z" fill="#BFBFBF"/>
<path d="M22.8202 14.5234H20.4336V16.9113H22.8202V14.5234Z" fill="#BFBFBF"/>
<path d="M26.121 14.5234H23.7344V16.9113H26.121V14.5234Z" fill="#BFBFBF"/>
<path d="M29.4237 14.5234H27.0371V16.9113H29.4237V14.5234Z" fill="#BFBFBF"/>
<path d="M32.7265 14.5234H30.3398V16.9113H32.7265V14.5234Z" fill="#BFBFBF"/>
<path d="M36.0273 14.5234H33.6406V16.9113H36.0273V14.5234Z" fill="#BFBFBF"/>
<path d="M39.33 14.5234H36.9434V16.9113H39.33V14.5234Z" fill="#BFBFBF"/>
<path d="M42.5995 14.5234H40.2129V16.9113H42.5995V14.5234Z" fill="#BFBFBF"/>
<path d="M45.9022 14.5234H43.5156V16.9113H45.9022V14.5234Z" fill="#BFBFBF"/>
<path d="M49.203 14.5234H46.8164V16.9113H49.203V14.5234Z" fill="#BFBFBF"/>
<path d="M54.173 17.8271H48.4844V20.215H54.173V17.8271Z" fill="#BFBFBF"/>
<path d="M58.4237 3.63086H56.0371V6.01873H58.4237V3.63086Z" fill="#BFBFBF"/>
<path d="M61.7245 3.63086H59.3379V6.01873H61.7245V3.63086Z" fill="#BFBFBF"/>
<path d="M64.9941 3.63086H62.6074V6.01873H64.9941V3.63086Z" fill="#BFBFBF"/>
<path d="M68.2968 3.63086H65.9102V6.01873H68.2968V3.63086Z" fill="#BFBFBF"/>
<path d="M58.4237 7.91602H56.0371V10.3039H58.4237V7.91602Z" fill="#BFBFBF"/>
<path d="M61.7245 7.91602H59.3379V10.3039H61.7245V7.91602Z" fill="#BFBFBF"/>
<path d="M64.9941 7.91602H62.6074V10.3039H64.9941V7.91602Z" fill="#BFBFBF"/>
<path d="M68.2968 7.91602H65.9102V10.3039H68.2968V7.91602Z" fill="#BFBFBF"/>
<path d="M58.4237 11.2197H56.0371V13.6076H58.4237V11.2197Z" fill="#BFBFBF"/>
<path d="M61.7245 11.2197H59.3379V13.6076H61.7245V11.2197Z" fill="#BFBFBF"/>
<path d="M64.9941 11.2197H62.6074V13.6076H64.9941V11.2197Z" fill="#BFBFBF"/>
<path d="M58.4237 14.5234H56.0371V16.9113H58.4237V14.5234Z" fill="#BFBFBF"/>
<path d="M61.7245 14.5234H59.3379V16.9113H61.7245V14.5234Z" fill="#BFBFBF"/>
<path d="M64.9941 14.5234H62.6074V16.9113H64.9941V14.5234Z" fill="#BFBFBF"/>
<path d="M68.2968 11.2197H65.9102V16.9114H68.2968V11.2197Z" fill="#BFBFBF"/>
<path d="M58.4237 17.8271H56.0371V20.215H58.4237V17.8271Z" fill="#BFBFBF"/>
<path d="M61.7245 17.8271H59.3379V20.215H61.7245V17.8271Z" fill="#BFBFBF"/>
<path d="M64.9941 17.8271H62.6074V20.215H64.9941V17.8271Z" fill="#BFBFBF"/>
<path d="M68.2968 17.8271H65.9102V23.5188H68.2968V17.8271Z" fill="#BFBFBF"/>
<path d="M61.7258 21.1641H56.0371V23.5519H61.7258V21.1641Z" fill="#BFBFBF"/>
<path d="M64.9941 21.1641H62.6074V23.5519H64.9941V21.1641Z" fill="#BFBFBF"/>
<path d="M37.6623 21.1641H15.4961V23.5519H37.6623V21.1641Z" fill="#BFBFBF"/>
<path d="M4.70694 3.17285H2.32031V5.56072H4.70694V3.17285Z" fill="white"/>
<path d="M7.97647 3.17285H5.58984V5.56072H7.97647V3.17285Z" fill="white"/>
<path d="M4.70694 20.7061H2.32031V23.0939H4.70694V20.7061Z" fill="white"/>
<path d="M7.97647 20.7061H5.58984V23.0939H7.97647V20.7061Z" fill="white"/>
<path d="M11.2792 20.7061H8.89258V23.0939H11.2792V20.7061Z" fill="white"/>
<path d="M14.5819 20.7061H12.1953V23.0939H14.5819V20.7061Z" fill="white"/>
<path d="M40.9648 20.7061H38.5781V23.0939H40.9648V20.7061Z" fill="white"/>
<path d="M44.2675 20.7061H41.8809V23.0939H44.2675V20.7061Z" fill="white"/>
<path d="M47.5683 20.7061H45.1816V23.0939H47.5683V20.7061Z" fill="white"/>
<path d="M50.871 20.7061H48.4844V23.0939H50.871V20.7061Z" fill="white"/>
<path d="M54.1405 20.7061H51.7539V23.0939H54.1405V20.7061Z" fill="white"/>
<path d="M11.2792 3.17285H8.89258V5.56072H11.2792V3.17285Z" fill="white"/>
<path d="M14.5819 3.17285H12.1953V5.56072H14.5819V3.17285Z" fill="white"/>
<path d="M17.8827 3.17285H15.4961V5.56072H17.8827V3.17285Z" fill="white"/>
<path d="M21.1855 3.17285H18.7988V5.56072H21.1855V3.17285Z" fill="white"/>
<path d="M24.4882 3.17285H22.1016V5.56072H24.4882V3.17285Z" fill="white"/>
<path d="M27.789 3.17285H25.4023V5.56072H27.789V3.17285Z" fill="white"/>
<path d="M31.0585 3.17285H28.6719V5.56072H31.0585V3.17285Z" fill="white"/>
<path d="M34.3612 3.17285H31.9746V5.56072H34.3612V3.17285Z" fill="white"/>
<path d="M37.662 3.17285H35.2754V5.56072H37.662V3.17285Z" fill="white"/>
<path d="M40.9648 3.17285H38.5781V5.56072H40.9648V3.17285Z" fill="white"/>
<path d="M44.2675 3.17285H41.8809V5.56072H44.2675V3.17285Z" fill="white"/>
<path d="M47.5683 3.17285H45.1816V5.56072H47.5683V3.17285Z" fill="white"/>
<path d="M50.871 3.17285H48.4844V5.56072H50.871V3.17285Z" fill="white"/>
<path d="M54.1405 3.17285H51.7539V5.56072H54.1405V3.17285Z" fill="white"/>
<path d="M8.00898 17.4023H2.32031V19.7902H8.00898V17.4023Z" fill="white"/>
<path d="M6.27623 14.0986H2.32031V16.4865H6.27623V14.0986Z" fill="white"/>
<path d="M54.1083 14.0986H50.1523V16.4865H54.1083V14.0986Z" fill="white"/>
<path d="M11.2792 17.4023H8.89258V19.7902H11.2792V17.4023Z" fill="white"/>
<path d="M14.5819 17.4023H12.1953V19.7902H14.5819V17.4023Z" fill="white"/>
<path d="M17.8827 17.4023H15.4961V19.7902H17.8827V17.4023Z" fill="white"/>
<path d="M21.1855 17.4023H18.7988V19.7902H21.1855V17.4023Z" fill="white"/>
<path d="M24.4882 17.4023H22.1016V19.7902H24.4882V17.4023Z" fill="white"/>
<path d="M27.789 17.4023H25.4023V19.7902H27.789V17.4023Z" fill="white"/>
<path d="M31.0585 17.4023H28.6719V19.7902H31.0585V17.4023Z" fill="white"/>
<path d="M34.3612 17.4023H31.9746V19.7902H34.3612V17.4023Z" fill="white"/>
<path d="M37.662 17.4023H35.2754V19.7902H37.662V17.4023Z" fill="white"/>
<path d="M40.9648 17.4023H38.5781V19.7902H40.9648V17.4023Z" fill="white"/>
<path d="M44.2675 17.4023H41.8809V19.7902H44.2675V17.4023Z" fill="white"/>
<path d="M47.5683 17.4023H45.1816V19.7902H47.5683V17.4023Z" fill="white"/>
<path d="M11.2792 10.7617H8.89258V13.1496H11.2792V10.7617Z" fill="white"/>
<path d="M14.5819 10.7617H12.1953V13.1496H14.5819V10.7617Z" fill="white"/>
<path d="M4.70694 10.7617H2.32031V13.1496H4.70694V10.7617Z" fill="white"/>
<path d="M7.97647 10.7617H5.58984V13.1496H7.97647V10.7617Z" fill="white"/>
<path d="M17.8827 10.7617H15.4961V13.1496H17.8827V10.7617Z" fill="white"/>
<path d="M21.1855 10.7617H18.7988V13.1496H21.1855V10.7617Z" fill="white"/>
<path d="M24.4882 10.7617H22.1016V13.1496H24.4882V10.7617Z" fill="white"/>
<path d="M27.789 10.7617H25.4023V13.1496H27.789V10.7617Z" fill="white"/>
<path d="M31.0585 10.7617H28.6719V13.1496H31.0585V10.7617Z" fill="white"/>
<path d="M34.3612 10.7617H31.9746V13.1496H34.3612V10.7617Z" fill="white"/>
<path d="M37.662 10.7617H35.2754V13.1496H37.662V10.7617Z" fill="white"/>
<path d="M50.871 10.7617H48.4844V13.1496H50.871V10.7617Z" fill="white"/>
<path d="M54.1405 10.7617H51.7539V13.1496H54.1405V10.7617Z" fill="white"/>
<path d="M40.9648 10.7617H38.5781V13.1496H40.9648V10.7617Z" fill="white"/>
<path d="M44.2675 10.7617H41.8809V13.1496H44.2675V10.7617Z" fill="white"/>
<path d="M47.5683 10.7617H45.1816V13.1496H47.5683V10.7617Z" fill="white"/>
<path d="M11.2792 7.45801H8.89258V9.84589H11.2792V7.45801Z" fill="white"/>
<path d="M14.5819 7.45801H12.1953V9.84589H14.5819V7.45801Z" fill="white"/>
<path d="M4.70694 7.45801H2.32031V9.84589H4.70694V7.45801Z" fill="white"/>
<path d="M7.97647 7.45801H5.58984V9.84589H7.97647V7.45801Z" fill="white"/>
<path d="M17.8827 7.45801H15.4961V9.84589H17.8827V7.45801Z" fill="white"/>
<path d="M21.1855 7.45801H18.7988V9.84589H21.1855V7.45801Z" fill="white"/>
<path d="M24.4882 7.45801H22.1016V9.84589H24.4882V7.45801Z" fill="white"/>
<path d="M27.789 7.45801H25.4023V9.84589H27.789V7.45801Z" fill="white"/>
<path d="M31.0585 7.45801H28.6719V9.84589H31.0585V7.45801Z" fill="white"/>
<path d="M34.3612 7.45801H31.9746V9.84589H34.3612V7.45801Z" fill="white"/>
<path d="M37.662 7.45801H35.2754V9.84589H37.662V7.45801Z" fill="white"/>
<path d="M50.871 7.45801H48.4844V9.84589H50.871V7.45801Z" fill="white"/>
<path d="M54.1405 7.45801H51.7539V9.84589H54.1405V7.45801Z" fill="white"/>
<path d="M40.9648 7.45801H38.5781V9.84589H40.9648V7.45801Z" fill="white"/>
<path d="M44.2675 7.45801H41.8809V9.84589H44.2675V7.45801Z" fill="white"/>
<path d="M47.5683 7.45801H45.1816V9.84589H47.5683V7.45801Z" fill="white"/>
<path d="M9.64444 14.0986H7.25781V16.4865H9.64444V14.0986Z" fill="white"/>
<path d="M12.9472 14.0986H10.5605V16.4865H12.9472V14.0986Z" fill="white"/>
<path d="M16.248 14.0986H13.8613V16.4865H16.248V14.0986Z" fill="white"/>
<path d="M19.5175 14.0986H17.1309V16.4865H19.5175V14.0986Z" fill="white"/>
<path d="M22.8202 14.0986H20.4336V16.4865H22.8202V14.0986Z" fill="white"/>
<path d="M26.121 14.0986H23.7344V16.4865H26.121V14.0986Z" fill="white"/>
<path d="M29.4237 14.0986H27.0371V16.4865H29.4237V14.0986Z" fill="white"/>
<path d="M32.7265 14.0986H30.3398V16.4865H32.7265V14.0986Z" fill="white"/>
<path d="M36.0273 14.0986H33.6406V16.4865H36.0273V14.0986Z" fill="white"/>
<path d="M39.33 14.0986H36.9434V16.4865H39.33V14.0986Z" fill="white"/>
<path d="M42.5995 14.0986H40.2129V16.4865H42.5995V14.0986Z" fill="white"/>
<path d="M45.9022 14.0986H43.5156V16.4865H45.9022V14.0986Z" fill="white"/>
<path d="M49.203 14.0986H46.8164V16.4865H49.203V14.0986Z" fill="white"/>
<path d="M54.173 17.4023H48.4844V19.7902H54.173V17.4023Z" fill="white"/>
<path d="M58.4237 3.17285H56.0371V5.56072H58.4237V3.17285Z" fill="white"/>
<path d="M61.7245 3.17285H59.3379V5.56072H61.7245V3.17285Z" fill="white"/>
<path d="M64.9941 3.17285H62.6074V5.56072H64.9941V3.17285Z" fill="white"/>
<path d="M68.2968 3.17285H65.9102V5.56072H68.2968V3.17285Z" fill="white"/>
<path d="M58.4237 7.45801H56.0371V9.84589H58.4237V7.45801Z" fill="white"/>
<path d="M61.7245 7.45801H59.3379V9.84589H61.7245V7.45801Z" fill="white"/>
<path d="M64.9941 7.45801H62.6074V9.84589H64.9941V7.45801Z" fill="white"/>
<path d="M68.2968 7.45801H65.9102V9.84589H68.2968V7.45801Z" fill="white"/>
<path d="M58.4237 10.7617H56.0371V13.1496H58.4237V10.7617Z" fill="white"/>
<path d="M61.7245 10.7617H59.3379V13.1496H61.7245V10.7617Z" fill="white"/>
<path d="M64.9941 10.7617H62.6074V13.1496H64.9941V10.7617Z" fill="white"/>
<path d="M58.4237 14.0986H56.0371V16.4865H58.4237V14.0986Z" fill="white"/>
<path d="M61.7245 14.0986H59.3379V16.4865H61.7245V14.0986Z" fill="white"/>
<path d="M64.9941 14.0986H62.6074V16.4865H64.9941V14.0986Z" fill="white"/>
<path d="M68.2968 10.7617H65.9102V16.4534H68.2968V10.7617Z" fill="white"/>
<path d="M58.4237 17.4023H56.0371V19.7902H58.4237V17.4023Z" fill="white"/>
<path d="M61.7245 17.4023H59.3379V19.7902H61.7245V17.4023Z" fill="white"/>
<path d="M64.9941 17.4023H62.6074V19.7902H64.9941V17.4023Z" fill="white"/>
<path d="M68.2968 17.4023H65.9102V23.094H68.2968V17.4023Z" fill="white"/>
<path d="M61.7258 20.7061H56.0371V23.0939H61.7258V20.7061Z" fill="white"/>
<path d="M64.9941 20.7061H62.6074V23.0939H64.9941V20.7061Z" fill="white"/>
<path d="M37.6623 20.7061H15.4961V23.0939H37.6623V20.7061Z" fill="white"/>
</svg>
