<svg width="50" height="64" viewBox="0 0 50 64" fill="none" xmlns="http://www.w3.org/2000/svg">
<path d="M27.1189 21.9727L15.658 22.9181C12.2415 22.9181 9.45508 25.6818 9.45508 29.1243V56.0823C9.45508 59.5005 12.2173 62.2885 15.658 62.2885L27.1189 63.2339C30.5353 63.2339 28.7423 60.4702 28.7423 57.0278V28.1788C28.7423 24.7606 30.5353 21.9727 27.1189 21.9727Z" fill="#D3D2CD"/>
<path d="M20.9159 35.5967H9.45508V49.5848H20.9159V35.5967Z" fill="#AFAEAA"/>
<path d="M4.29156 14.8942L0.632812 11.6214L3.95234 8.66377C4.70348 8.00921 5.81807 8.00921 6.56921 8.66377C7.32034 9.31832 7.44149 10.4335 6.85996 11.2578L4.29156 14.8942Z" fill="#262420"/>
<path d="M0.221428 14.3127C0.172968 14.3127 0.100276 14.2884 0.0760457 14.2642C-0.020875 14.1672 -0.0208764 14.0218 0.0518141 13.9248L2.37791 11.3066C2.47483 11.2096 2.62021 11.2096 2.71713 11.2823C2.81405 11.3793 2.81406 11.5247 2.74136 11.6217L0.415267 14.2399C0.342576 14.2884 0.294119 14.3127 0.221428 14.3127Z" fill="#262420"/>
<path d="M1.91753 15.8156C1.86907 15.8156 1.79638 15.7913 1.74792 15.7671C1.651 15.6701 1.651 15.5247 1.72369 15.4277L4.04978 12.8095C4.1467 12.7125 4.29209 12.7125 4.38901 12.7852C4.48593 12.8822 4.48593 13.0277 4.41324 13.1246L2.08714 15.7429C2.03868 15.7914 1.96599 15.8156 1.91753 15.8156Z" fill="#262420"/>
<path d="M33.8772 21.9727H27.2624C23.7732 21.9727 20.9141 24.8091 20.9141 28.3243V56.8823C20.9141 60.3733 23.749 63.2339 27.2624 63.2339H33.8772C37.3664 63.2339 40.2255 60.3975 40.2255 56.8823V28.3243C40.2013 24.8091 37.3664 21.9727 33.8772 21.9727Z" fill="#7A786E"/>
<path d="M28.7387 27.4746H25.4434V57.7296H28.7387V27.4746Z" fill="#3A3832"/>
<path d="M35.6703 27.4746H32.375V57.7296H35.6703V27.4746Z" fill="#3A3832"/>
<path d="M14.9042 47.6706C16.6171 47.6706 18.0057 45.4021 18.0057 42.6039C18.0057 39.8056 16.6171 37.5371 14.9042 37.5371C13.1913 37.5371 11.8027 39.8056 11.8027 42.6039C11.8027 45.4021 13.1913 47.6706 14.9042 47.6706Z" fill="#D3D2CD"/>
<path d="M17.1594 43.0878H16.6021C16.4567 45.2697 15.3179 46.9667 13.9368 46.9667C12.4588 46.9667 11.2715 45.003 11.2715 42.603C11.2715 40.2029 12.4588 38.2393 13.9368 38.2393C15.3179 38.2393 16.4325 39.9363 16.6021 42.1181H17.1594V43.0878Z" fill="white"/>
<path d="M17.1602 41.9971H13.8164V42.2395H17.1602V41.9971Z" fill="#7A786E"/>
<path d="M40.2023 42.2153V41.7305C44.6364 41.7305 47.5925 39.5971 48.3436 35.8637C49.4098 30.4091 45.4118 22.409 37.1008 19.015C35.7197 18.3847 34.2901 17.8756 32.8121 17.4877C30.8252 20.1059 28.0145 22.7969 24.4285 25.3666C18.9524 29.2939 9.72074 32.2516 4.36587 30.1424C2.18516 29.2939 0.828265 27.6939 0.367892 25.4393C0.0528996 23.8878 0.852494 22.2878 2.64553 20.8574C5.74699 18.3847 11.4169 16.5422 17.8378 15.9361C23.0716 15.427 28.1841 15.8149 32.6425 16.9786C34.799 14.021 35.8409 11.1603 35.6228 8.61482C35.3563 5.58447 33.2967 3.13594 29.541 1.36622C24.5981 -0.573206 19.2674 0.978339 15.6814 2.65109C10.908 4.85719 7.22503 8.12996 5.50468 10.2391L5.14123 9.94817C9.13921 5.00264 20.4547 -2.70658 29.7349 0.954088C33.6601 2.79654 35.7924 5.36629 36.0832 8.59058C36.3255 11.2088 35.2836 14.1422 33.1271 17.1483C34.6051 17.5604 35.9862 18.0695 37.2947 18.6513C45.8237 22.1423 49.9186 30.3848 48.8282 36.0334C48.0286 39.9365 44.903 42.2153 40.2023 42.2153ZM22.3931 16.1301C14.1549 16.1301 6.42544 18.4089 2.93629 21.1968C1.77324 22.1181 0.464811 23.5969 0.828264 25.3181C1.26441 27.4272 2.50014 28.8818 4.53548 29.6818C9.7692 31.7425 18.7828 28.8333 24.1619 24.9787C27.6511 22.4817 30.3891 19.8877 32.3517 17.3422C29.0807 16.518 25.6884 16.1301 22.3931 16.1301Z" fill="#262420"/>
</svg>
